G04 #@! TF.GenerationSoftware,KiCad,Pcbnew,(6.0.8)*
G04 #@! TF.CreationDate,2022-11-17T16:59:53+01:00*
G04 #@! TF.ProjectId,detection_pcb,64657465-6374-4696-9f6e-5f7063622e6b,rev?*
G04 #@! TF.SameCoordinates,Original*
G04 #@! TF.FileFunction,Legend,Top*
G04 #@! TF.FilePolarity,Positive*
%FSLAX46Y46*%
G04 Gerber Fmt 4.6, Leading zero omitted, Abs format (unit mm)*
G04 Created by KiCad (PCBNEW (6.0.8)) date 2022-11-17 16:59:53*
%MOMM*%
%LPD*%
G01*
G04 APERTURE LIST*
G04 Aperture macros list*
%AMRoundRect*
0 Rectangle with rounded corners*
0 $1 Rounding radius*
0 $2 $3 $4 $5 $6 $7 $8 $9 X,Y pos of 4 corners*
0 Add a 4 corners polygon primitive as box body*
4,1,4,$2,$3,$4,$5,$6,$7,$8,$9,$2,$3,0*
0 Add four circle primitives for the rounded corners*
1,1,$1+$1,$2,$3*
1,1,$1+$1,$4,$5*
1,1,$1+$1,$6,$7*
1,1,$1+$1,$8,$9*
0 Add four rect primitives between the rounded corners*
20,1,$1+$1,$2,$3,$4,$5,0*
20,1,$1+$1,$4,$5,$6,$7,0*
20,1,$1+$1,$6,$7,$8,$9,0*
20,1,$1+$1,$8,$9,$2,$3,0*%
%AMHorizOval*
0 Thick line with rounded ends*
0 $1 width*
0 $2 $3 position (X,Y) of the first rounded end (center of the circle)*
0 $4 $5 position (X,Y) of the second rounded end (center of the circle)*
0 Add line between two ends*
20,1,$1,$2,$3,$4,$5,0*
0 Add two circle primitives to create the rounded ends*
1,1,$1,$2,$3*
1,1,$1,$4,$5*%
%AMRotRect*
0 Rectangle, with rotation*
0 The origin of the aperture is its center*
0 $1 length*
0 $2 width*
0 $3 Rotation angle, in degrees counterclockwise*
0 Add horizontal line*
21,1,$1,$2,0,0,$3*%
%AMFreePoly0*
4,1,6,1.000000,0.000000,0.500000,-0.750000,-0.500000,-0.750000,-0.500000,0.750000,0.500000,0.750000,1.000000,0.000000,1.000000,0.000000,$1*%
%AMFreePoly1*
4,1,6,0.500000,-0.750000,-0.650000,-0.750000,-0.150000,0.000000,-0.650000,0.750000,0.500000,0.750000,0.500000,-0.750000,0.500000,-0.750000,$1*%
G04 Aperture macros list end*
%ADD10C,0.150000*%
%ADD11C,0.250000*%
%ADD12C,0.120000*%
%ADD13RoundRect,0.250000X0.450000X-0.350000X0.450000X0.350000X-0.450000X0.350000X-0.450000X-0.350000X0*%
%ADD14RoundRect,0.250000X-0.574524X-0.097227X-0.097227X-0.574524X0.574524X0.097227X0.097227X0.574524X0*%
%ADD15FreePoly0,90.000000*%
%ADD16FreePoly1,90.000000*%
%ADD17RoundRect,0.250000X0.565685X0.070711X0.070711X0.565685X-0.565685X-0.070711X-0.070711X-0.565685X0*%
%ADD18RoundRect,0.250000X-0.475000X0.337500X-0.475000X-0.337500X0.475000X-0.337500X0.475000X0.337500X0*%
%ADD19RoundRect,0.250000X-0.565685X-0.070711X-0.070711X-0.565685X0.565685X0.070711X0.070711X0.565685X0*%
%ADD20RoundRect,0.250000X0.549685X-0.151150X0.281807X0.495565X-0.549685X0.151150X-0.281807X-0.495565X0*%
%ADD21RoundRect,0.250000X-0.600000X-0.750000X0.600000X-0.750000X0.600000X0.750000X-0.600000X0.750000X0*%
%ADD22O,1.700000X2.000000*%
%ADD23RoundRect,0.250000X0.567998X-0.130035X0.309687X0.493584X-0.567998X0.130035X-0.309687X-0.493584X0*%
%ADD24RoundRect,0.250000X-0.070711X0.565685X-0.565685X0.070711X0.070711X-0.565685X0.565685X-0.070711X0*%
%ADD25RoundRect,0.250000X-0.281807X0.495565X-0.549685X-0.151150X0.281807X-0.495565X0.549685X0.151150X0*%
%ADD26RoundRect,0.250000X-0.151150X-0.549685X0.495565X-0.281807X0.151150X0.549685X-0.495565X0.281807X0*%
%ADD27RotRect,1.700000X1.700000X157.500000*%
%ADD28HorizOval,1.700000X0.000000X0.000000X0.000000X0.000000X0*%
%ADD29RoundRect,0.250000X0.475000X-0.337500X0.475000X0.337500X-0.475000X0.337500X-0.475000X-0.337500X0*%
%ADD30RoundRect,0.250000X0.281807X-0.495565X0.549685X0.151150X-0.281807X0.495565X-0.549685X-0.151150X0*%
%ADD31RotRect,1.700000X1.700000X22.500000*%
%ADD32HorizOval,1.700000X0.000000X0.000000X0.000000X0.000000X0*%
%ADD33RoundRect,0.250000X-0.450000X0.350000X-0.450000X-0.350000X0.450000X-0.350000X0.450000X0.350000X0*%
%ADD34C,6.000000*%
%ADD35RoundRect,0.250000X0.070711X-0.565685X0.565685X-0.070711X-0.070711X0.565685X-0.565685X0.070711X0*%
%ADD36RotRect,1.700000X1.700000X45.000000*%
%ADD37HorizOval,1.700000X0.000000X0.000000X0.000000X0.000000X0*%
%ADD38RotRect,1.700000X1.700000X67.500000*%
%ADD39HorizOval,1.700000X0.000000X0.000000X0.000000X0.000000X0*%
%ADD40RoundRect,0.250000X-0.567998X0.130035X-0.309687X-0.493584X0.567998X-0.130035X0.309687X0.493584X0*%
%ADD41RoundRect,0.250000X0.309687X-0.493584X0.567998X0.130035X-0.309687X0.493584X-0.567998X-0.130035X0*%
%ADD42R,1.700000X1.700000*%
%ADD43O,1.700000X1.700000*%
%ADD44RoundRect,0.250000X0.337500X0.475000X-0.337500X0.475000X-0.337500X-0.475000X0.337500X-0.475000X0*%
%ADD45RoundRect,0.250000X0.574524X0.097227X0.097227X0.574524X-0.574524X-0.097227X-0.097227X-0.574524X0*%
%ADD46RotRect,1.700000X1.700000X292.500000*%
%ADD47HorizOval,1.700000X0.000000X0.000000X0.000000X0.000000X0*%
%ADD48RoundRect,0.150000X0.587500X0.150000X-0.587500X0.150000X-0.587500X-0.150000X0.587500X-0.150000X0*%
%ADD49RoundRect,0.250000X-0.337500X-0.475000X0.337500X-0.475000X0.337500X0.475000X-0.337500X0.475000X0*%
%ADD50RotRect,1.700000X1.700000X202.500000*%
%ADD51HorizOval,1.700000X0.000000X0.000000X0.000000X0.000000X0*%
%ADD52RoundRect,0.250000X0.495565X0.281807X-0.151150X0.549685X-0.495565X-0.281807X0.151150X-0.549685X0*%
%ADD53RoundRect,0.250000X-0.495565X-0.281807X0.151150X-0.549685X0.495565X0.281807X-0.151150X0.549685X0*%
%ADD54RoundRect,0.150000X-0.150000X0.587500X-0.150000X-0.587500X0.150000X-0.587500X0.150000X0.587500X0*%
%ADD55RoundRect,0.250000X-0.493584X-0.309687X0.130035X-0.567998X0.493584X0.309687X-0.130035X0.567998X0*%
%ADD56RoundRect,0.250000X0.493584X0.309687X-0.130035X0.567998X-0.493584X-0.309687X0.130035X-0.567998X0*%
%ADD57RoundRect,0.250000X-0.262500X-0.450000X0.262500X-0.450000X0.262500X0.450000X-0.262500X0.450000X0*%
%ADD58R,2.400000X0.740000*%
%ADD59RotRect,1.700000X1.700000X112.500000*%
%ADD60HorizOval,1.700000X0.000000X0.000000X0.000000X0.000000X0*%
%ADD61RoundRect,0.250000X-0.097227X0.574524X-0.574524X0.097227X0.097227X-0.574524X0.574524X-0.097227X0*%
%ADD62R,2.500000X2.300000*%
%ADD63RoundRect,0.250000X0.151150X0.549685X-0.495565X0.281807X-0.151150X-0.549685X0.495565X-0.281807X0*%
%ADD64RoundRect,0.218750X-0.256250X0.218750X-0.256250X-0.218750X0.256250X-0.218750X0.256250X0.218750X0*%
%ADD65RoundRect,0.250000X-0.350000X-0.450000X0.350000X-0.450000X0.350000X0.450000X-0.350000X0.450000X0*%
%ADD66RotRect,1.700000X1.700000X225.000000*%
%ADD67HorizOval,1.700000X0.000000X0.000000X0.000000X0.000000X0*%
%ADD68RoundRect,0.250000X0.350000X0.450000X-0.350000X0.450000X-0.350000X-0.450000X0.350000X-0.450000X0*%
%ADD69RoundRect,0.250000X-0.309687X0.493584X-0.567998X-0.130035X0.309687X-0.493584X0.567998X0.130035X0*%
%ADD70RoundRect,0.250000X-0.549685X0.151150X-0.281807X-0.495565X0.549685X-0.151150X0.281807X0.495565X0*%
%ADD71RoundRect,0.249750X-0.425250X-1.750250X0.425250X-1.750250X0.425250X1.750250X-0.425250X1.750250X0*%
%ADD72RoundRect,0.250000X0.130035X0.567998X-0.493584X0.309687X-0.130035X-0.567998X0.493584X-0.309687X0*%
%ADD73RotRect,1.700000X1.700000X135.000000*%
%ADD74HorizOval,1.700000X0.000000X0.000000X0.000000X0.000000X0*%
%ADD75RotRect,1.700000X1.700000X247.500000*%
%ADD76HorizOval,1.700000X0.000000X0.000000X0.000000X0.000000X0*%
%ADD77RotRect,1.700000X1.700000X315.000000*%
%ADD78HorizOval,1.700000X0.000000X0.000000X0.000000X0.000000X0*%
%ADD79RotRect,1.700000X1.700000X337.500000*%
%ADD80HorizOval,1.700000X0.000000X0.000000X0.000000X0.000000X0*%
%ADD81RoundRect,0.250000X-0.130035X-0.567998X0.493584X-0.309687X0.130035X0.567998X-0.493584X0.309687X0*%
%ADD82RoundRect,0.250000X0.097227X-0.574524X0.574524X-0.097227X-0.097227X0.574524X-0.574524X0.097227X0*%
%ADD83RoundRect,0.250000X0.262500X0.450000X-0.262500X0.450000X-0.262500X-0.450000X0.262500X-0.450000X0*%
%ADD84RotRect,1.800000X1.800000X45.000000*%
%ADD85C,1.800000*%
%ADD86R,1.800000X1.800000*%
%ADD87RotRect,1.800000X1.800000X337.500000*%
%ADD88RotRect,1.800000X1.800000X112.500000*%
%ADD89RotRect,1.800000X1.800000X315.000000*%
%ADD90RotRect,1.800000X1.800000X157.500000*%
%ADD91RotRect,1.800000X1.800000X225.000000*%
%ADD92RotRect,1.800000X1.800000X292.500000*%
%ADD93RotRect,1.800000X1.800000X202.500000*%
%ADD94RotRect,1.800000X1.800000X67.500000*%
%ADD95RotRect,1.800000X1.800000X247.500000*%
%ADD96RotRect,1.800000X1.800000X22.500000*%
%ADD97RotRect,1.800000X1.800000X135.000000*%
G04 APERTURE END LIST*
D10*
X136800000Y-140850000D02*
X143200000Y-143550000D01*
X186700000Y-83800000D02*
X184100000Y-77600000D01*
X131950000Y-65150000D02*
X125450000Y-67850000D01*
X190800000Y-99500000D02*
X190800000Y-92700000D01*
X111200000Y-88800000D02*
X108600000Y-95000000D01*
X123100000Y-132800000D02*
X127900000Y-137600000D01*
X119250000Y-74950000D02*
X114350000Y-79850000D01*
X147500000Y-61100000D02*
X140900000Y-61100000D01*
X177100000Y-71200000D02*
X172200000Y-66300000D01*
X180900000Y-129000000D02*
X185700000Y-124200000D01*
X113200000Y-120100000D02*
X115800000Y-126300000D01*
X168100000Y-138800000D02*
X174400000Y-136200000D01*
X152600000Y-142900000D02*
X159600000Y-142900000D01*
X163300000Y-63200000D02*
X156800000Y-60500000D01*
X109100000Y-104600000D02*
X109100000Y-111400000D01*
X188900000Y-115200000D02*
X191500000Y-108900000D01*
D11*
X146580952Y-78752380D02*
X147152380Y-78752380D01*
X146866666Y-79752380D02*
X146866666Y-78752380D01*
X147390476Y-78752380D02*
X148057142Y-79752380D01*
X148057142Y-78752380D02*
X147390476Y-79752380D01*
X149771428Y-79752380D02*
X149438095Y-79276190D01*
X149200000Y-79752380D02*
X149200000Y-78752380D01*
X149580952Y-78752380D01*
X149676190Y-78800000D01*
X149723809Y-78847619D01*
X149771428Y-78942857D01*
X149771428Y-79085714D01*
X149723809Y-79180952D01*
X149676190Y-79228571D01*
X149580952Y-79276190D01*
X149200000Y-79276190D01*
X150104761Y-78752380D02*
X150771428Y-79752380D01*
X150771428Y-78752380D02*
X150104761Y-79752380D01*
X164404761Y-107252380D02*
X164738095Y-108252380D01*
X165071428Y-107252380D01*
X165833333Y-108204761D02*
X165738095Y-108252380D01*
X165547619Y-108252380D01*
X165452380Y-108204761D01*
X165404761Y-108157142D01*
X165357142Y-108061904D01*
X165357142Y-107776190D01*
X165404761Y-107680952D01*
X165452380Y-107633333D01*
X165547619Y-107585714D01*
X165738095Y-107585714D01*
X165833333Y-107633333D01*
X166690476Y-108204761D02*
X166595238Y-108252380D01*
X166404761Y-108252380D01*
X166309523Y-108204761D01*
X166261904Y-108157142D01*
X166214285Y-108061904D01*
X166214285Y-107776190D01*
X166261904Y-107680952D01*
X166309523Y-107633333D01*
X166404761Y-107585714D01*
X166595238Y-107585714D01*
X166690476Y-107633333D01*
X168404761Y-107300000D02*
X168309523Y-107252380D01*
X168166666Y-107252380D01*
X168023809Y-107300000D01*
X167928571Y-107395238D01*
X167880952Y-107490476D01*
X167833333Y-107680952D01*
X167833333Y-107823809D01*
X167880952Y-108014285D01*
X167928571Y-108109523D01*
X168023809Y-108204761D01*
X168166666Y-108252380D01*
X168261904Y-108252380D01*
X168404761Y-108204761D01*
X168452380Y-108157142D01*
X168452380Y-107823809D01*
X168261904Y-107823809D01*
X168880952Y-108252380D02*
X168880952Y-107252380D01*
X169452380Y-108252380D01*
X169452380Y-107252380D01*
X169928571Y-108252380D02*
X169928571Y-107252380D01*
X170166666Y-107252380D01*
X170309523Y-107300000D01*
X170404761Y-107395238D01*
X170452380Y-107490476D01*
X170500000Y-107680952D01*
X170500000Y-107823809D01*
X170452380Y-108014285D01*
X170404761Y-108109523D01*
X170309523Y-108204761D01*
X170166666Y-108252380D01*
X169928571Y-108252380D01*
D10*
X141952380Y-59942857D02*
X141476190Y-60276190D01*
X141952380Y-60514285D02*
X140952380Y-60514285D01*
X140952380Y-60133333D01*
X141000000Y-60038095D01*
X141047619Y-59990476D01*
X141142857Y-59942857D01*
X141285714Y-59942857D01*
X141380952Y-59990476D01*
X141428571Y-60038095D01*
X141476190Y-60133333D01*
X141476190Y-60514285D01*
X141952380Y-58990476D02*
X141952380Y-59561904D01*
X141952380Y-59276190D02*
X140952380Y-59276190D01*
X141095238Y-59371428D01*
X141190476Y-59466666D01*
X141238095Y-59561904D01*
X141952380Y-58038095D02*
X141952380Y-58609523D01*
X141952380Y-58323809D02*
X140952380Y-58323809D01*
X141095238Y-58419047D01*
X141190476Y-58514285D01*
X141238095Y-58609523D01*
X128861422Y-122580468D02*
X128928766Y-122580468D01*
X129063453Y-122647812D01*
X129130796Y-122715155D01*
X129198140Y-122849842D01*
X129198140Y-122984529D01*
X129164468Y-123085544D01*
X129063453Y-123253903D01*
X128962438Y-123354918D01*
X128794079Y-123455934D01*
X128693064Y-123489605D01*
X128558377Y-123489605D01*
X128423690Y-123422262D01*
X128356346Y-123354918D01*
X128289003Y-123220231D01*
X128289003Y-123152888D01*
X128255331Y-121839689D02*
X128659392Y-122243750D01*
X128457361Y-122041720D02*
X127750254Y-122748827D01*
X127918613Y-122715155D01*
X128053300Y-122715155D01*
X128154316Y-122748827D01*
X127312522Y-122311094D02*
X126874789Y-121873361D01*
X127379865Y-121839689D01*
X127278850Y-121738674D01*
X127245178Y-121637659D01*
X127245178Y-121570315D01*
X127278850Y-121469300D01*
X127447209Y-121300941D01*
X127548224Y-121267270D01*
X127615567Y-121267270D01*
X127716583Y-121300941D01*
X127918613Y-121502972D01*
X127952285Y-121603987D01*
X127952285Y-121671331D01*
X123452380Y-101133333D02*
X124166666Y-101133333D01*
X124309523Y-101180952D01*
X124404761Y-101276190D01*
X124452380Y-101419047D01*
X124452380Y-101514285D01*
X124452380Y-100657142D02*
X123452380Y-100657142D01*
X123452380Y-100276190D01*
X123500000Y-100180952D01*
X123547619Y-100133333D01*
X123642857Y-100085714D01*
X123785714Y-100085714D01*
X123880952Y-100133333D01*
X123928571Y-100180952D01*
X123976190Y-100276190D01*
X123976190Y-100657142D01*
X124452380Y-99133333D02*
X124452380Y-99704761D01*
X124452380Y-99419047D02*
X123452380Y-99419047D01*
X123595238Y-99514285D01*
X123690476Y-99609523D01*
X123738095Y-99704761D01*
X115474450Y-77134687D02*
X115373435Y-77707106D01*
X115878511Y-77538748D02*
X115171404Y-78245854D01*
X114902030Y-77976480D01*
X114868358Y-77875465D01*
X114868358Y-77808122D01*
X114902030Y-77707106D01*
X115003045Y-77606091D01*
X115104061Y-77572419D01*
X115171404Y-77572419D01*
X115272419Y-77606091D01*
X115541793Y-77875465D01*
X114801015Y-76461251D02*
X115205076Y-76865312D01*
X115003045Y-76663282D02*
X114295938Y-77370389D01*
X114464297Y-77336717D01*
X114598984Y-77336717D01*
X114700000Y-77370389D01*
X113487816Y-76562267D02*
X113622503Y-76696954D01*
X113723519Y-76730625D01*
X113790862Y-76730625D01*
X113959221Y-76696954D01*
X114127580Y-76595938D01*
X114396954Y-76326564D01*
X114430625Y-76225549D01*
X114430625Y-76158206D01*
X114396954Y-76057190D01*
X114262267Y-75922503D01*
X114161251Y-75888832D01*
X114093908Y-75888832D01*
X113992893Y-75922503D01*
X113824534Y-76090862D01*
X113790862Y-76191877D01*
X113790862Y-76259221D01*
X113824534Y-76360236D01*
X113959221Y-76494923D01*
X114060236Y-76528595D01*
X114127580Y-76528595D01*
X114228595Y-76494923D01*
X161557142Y-99242857D02*
X161604761Y-99290476D01*
X161652380Y-99433333D01*
X161652380Y-99528571D01*
X161604761Y-99671428D01*
X161509523Y-99766666D01*
X161414285Y-99814285D01*
X161223809Y-99861904D01*
X161080952Y-99861904D01*
X160890476Y-99814285D01*
X160795238Y-99766666D01*
X160700000Y-99671428D01*
X160652380Y-99528571D01*
X160652380Y-99433333D01*
X160700000Y-99290476D01*
X160747619Y-99242857D01*
X161652380Y-98290476D02*
X161652380Y-98861904D01*
X161652380Y-98576190D02*
X160652380Y-98576190D01*
X160795238Y-98671428D01*
X160890476Y-98766666D01*
X160938095Y-98861904D01*
X161652380Y-97814285D02*
X161652380Y-97623809D01*
X161604761Y-97528571D01*
X161557142Y-97480952D01*
X161414285Y-97385714D01*
X161223809Y-97338095D01*
X160842857Y-97338095D01*
X160747619Y-97385714D01*
X160700000Y-97433333D01*
X160652380Y-97528571D01*
X160652380Y-97719047D01*
X160700000Y-97814285D01*
X160747619Y-97861904D01*
X160842857Y-97909523D01*
X161080952Y-97909523D01*
X161176190Y-97861904D01*
X161223809Y-97814285D01*
X161271428Y-97719047D01*
X161271428Y-97528571D01*
X161223809Y-97433333D01*
X161176190Y-97385714D01*
X161080952Y-97338095D01*
X185725549Y-125865312D02*
X185826564Y-125292893D01*
X185321488Y-125461251D02*
X186028595Y-124754145D01*
X186297969Y-125023519D01*
X186331641Y-125124534D01*
X186331641Y-125191877D01*
X186297969Y-125292893D01*
X186196954Y-125393908D01*
X186095938Y-125427580D01*
X186028595Y-125427580D01*
X185927580Y-125393908D01*
X185658206Y-125124534D01*
X186668358Y-125393908D02*
X187106091Y-125831641D01*
X186601015Y-125865312D01*
X186702030Y-125966328D01*
X186735702Y-126067343D01*
X186735702Y-126134687D01*
X186702030Y-126235702D01*
X186533671Y-126404061D01*
X186432656Y-126437732D01*
X186365312Y-126437732D01*
X186264297Y-126404061D01*
X186062267Y-126202030D01*
X186028595Y-126101015D01*
X186028595Y-126033671D01*
X187072419Y-127212183D02*
X186668358Y-126808122D01*
X186870389Y-127010152D02*
X187577496Y-126303045D01*
X187409137Y-126336717D01*
X187274450Y-126336717D01*
X187173435Y-126303045D01*
X161011642Y-143310624D02*
X161324024Y-142820434D01*
X160792966Y-142782692D02*
X161716846Y-142400009D01*
X161862630Y-142751963D01*
X161855081Y-142858175D01*
X161829310Y-142920392D01*
X161759545Y-143000832D01*
X161627562Y-143055501D01*
X161521350Y-143047953D01*
X161459133Y-143022182D01*
X161378693Y-142952416D01*
X161232909Y-142600462D01*
X161955576Y-143847398D02*
X161339657Y-144102520D01*
X162216415Y-143481643D02*
X161465386Y-143535017D01*
X161702285Y-144106942D01*
X162427543Y-144115785D02*
X162682666Y-144731705D01*
X161594779Y-144718440D01*
X162066666Y-111052380D02*
X162066666Y-111766666D01*
X162019047Y-111909523D01*
X161923809Y-112004761D01*
X161780952Y-112052380D01*
X161685714Y-112052380D01*
X163066666Y-112052380D02*
X162495238Y-112052380D01*
X162780952Y-112052380D02*
X162780952Y-111052380D01*
X162685714Y-111195238D01*
X162590476Y-111290476D01*
X162495238Y-111338095D01*
X178341619Y-91560215D02*
X178403836Y-91585986D01*
X178502500Y-91699746D01*
X178538946Y-91787734D01*
X178549620Y-91937940D01*
X178498078Y-92062375D01*
X178428313Y-92142815D01*
X178270558Y-92259701D01*
X178138576Y-92314370D01*
X177944376Y-92343268D01*
X177838164Y-92335720D01*
X177713729Y-92284178D01*
X177615066Y-92170418D01*
X177578620Y-92082429D01*
X177567945Y-91932223D01*
X177593717Y-91870006D01*
X177485674Y-90986994D02*
X178101593Y-90731872D01*
X177224835Y-91352750D02*
X177975864Y-91299376D01*
X177738964Y-90727450D01*
X139257142Y-113166666D02*
X139304761Y-113214285D01*
X139352380Y-113357142D01*
X139352380Y-113452380D01*
X139304761Y-113595238D01*
X139209523Y-113690476D01*
X139114285Y-113738095D01*
X138923809Y-113785714D01*
X138780952Y-113785714D01*
X138590476Y-113738095D01*
X138495238Y-113690476D01*
X138400000Y-113595238D01*
X138352380Y-113452380D01*
X138352380Y-113357142D01*
X138400000Y-113214285D01*
X138447619Y-113166666D01*
X139352380Y-112214285D02*
X139352380Y-112785714D01*
X139352380Y-112500000D02*
X138352380Y-112500000D01*
X138495238Y-112595238D01*
X138590476Y-112690476D01*
X138638095Y-112785714D01*
X126334687Y-137725549D02*
X126907106Y-137826564D01*
X126738748Y-137321488D02*
X127445854Y-138028595D01*
X127176480Y-138297969D01*
X127075465Y-138331641D01*
X127008122Y-138331641D01*
X126907106Y-138297969D01*
X126806091Y-138196954D01*
X126772419Y-138095938D01*
X126772419Y-138028595D01*
X126806091Y-137927580D01*
X127075465Y-137658206D01*
X126705076Y-138634687D02*
X126705076Y-138702030D01*
X126671404Y-138803045D01*
X126503045Y-138971404D01*
X126402030Y-139005076D01*
X126334687Y-139005076D01*
X126233671Y-138971404D01*
X126166328Y-138904061D01*
X126098984Y-138769374D01*
X126098984Y-137961251D01*
X125661251Y-138398984D01*
X126132656Y-139341793D02*
X125694923Y-139779526D01*
X125661251Y-139274450D01*
X125560236Y-139375465D01*
X125459221Y-139409137D01*
X125391877Y-139409137D01*
X125290862Y-139375465D01*
X125122503Y-139207106D01*
X125088832Y-139106091D01*
X125088832Y-139038748D01*
X125122503Y-138937732D01*
X125324534Y-138735702D01*
X125425549Y-138702030D01*
X125492893Y-138702030D01*
X141628065Y-144032958D02*
X142195569Y-143907229D01*
X141846741Y-143505027D02*
X142770621Y-143887711D01*
X142624836Y-144239665D01*
X142544396Y-144309430D01*
X142482179Y-144335201D01*
X142375967Y-144342750D01*
X142243984Y-144288081D01*
X142174219Y-144207640D01*
X142148448Y-144145423D01*
X142140899Y-144039211D01*
X142286684Y-143687257D01*
X142318172Y-144731150D02*
X142343943Y-144793367D01*
X142351491Y-144899579D01*
X142260376Y-145119550D01*
X142179936Y-145189315D01*
X142117718Y-145215087D01*
X142011507Y-145222635D01*
X141923518Y-145186189D01*
X141809759Y-145087526D01*
X141500504Y-144340918D01*
X141263604Y-144912844D01*
X141953711Y-145611035D02*
X141979482Y-145673252D01*
X141987031Y-145779464D01*
X141895916Y-145999435D01*
X141815475Y-146069201D01*
X141753258Y-146094972D01*
X141647046Y-146102520D01*
X141559058Y-146066074D01*
X141445298Y-145967411D01*
X141136043Y-145220803D01*
X140899144Y-145792729D01*
X108889375Y-113111642D02*
X109379565Y-113424024D01*
X109417307Y-112892966D02*
X109799990Y-113816846D01*
X109448036Y-113962630D01*
X109341824Y-113955081D01*
X109279607Y-113929310D01*
X109199167Y-113859545D01*
X109144498Y-113727562D01*
X109152046Y-113621350D01*
X109177817Y-113559133D01*
X109247583Y-113478693D01*
X109599537Y-113332909D01*
X108352601Y-114055576D02*
X108097479Y-113439657D01*
X108718356Y-114316415D02*
X108664982Y-113565386D01*
X108093057Y-113802285D01*
X108084214Y-114527543D02*
X107512288Y-114764443D01*
X107674464Y-114284927D01*
X107542481Y-114339596D01*
X107436270Y-114332048D01*
X107374052Y-114306277D01*
X107293612Y-114236511D01*
X107202497Y-114016540D01*
X107210045Y-113910329D01*
X107235816Y-113848111D01*
X107305582Y-113767671D01*
X107569547Y-113658333D01*
X107675759Y-113665881D01*
X107737976Y-113691652D01*
X118302497Y-93694343D02*
X119050400Y-94004134D01*
X119156611Y-93996586D01*
X119218828Y-93970815D01*
X119299269Y-93901049D01*
X119372161Y-93725072D01*
X119364613Y-93618861D01*
X119338841Y-93556643D01*
X119269076Y-93476203D01*
X118521173Y-93166412D01*
X119154021Y-92758494D02*
X119073581Y-92828259D01*
X119011363Y-92854030D01*
X118905152Y-92861579D01*
X118861158Y-92843356D01*
X118791392Y-92762915D01*
X118765621Y-92700698D01*
X118758073Y-92594486D01*
X118830965Y-92418509D01*
X118911405Y-92348744D01*
X118973622Y-92322973D01*
X119079834Y-92315424D01*
X119123828Y-92333647D01*
X119193594Y-92414088D01*
X119219365Y-92476305D01*
X119226913Y-92582517D01*
X119154021Y-92758494D01*
X119161569Y-92864705D01*
X119187340Y-92926922D01*
X119257106Y-93007363D01*
X119433083Y-93080255D01*
X119539295Y-93072707D01*
X119601512Y-93046935D01*
X119681952Y-92977170D01*
X119754844Y-92801193D01*
X119747296Y-92694981D01*
X119721525Y-92632764D01*
X119651759Y-92552324D01*
X119475782Y-92479432D01*
X119369571Y-92486980D01*
X119307353Y-92512751D01*
X119226913Y-92582517D01*
X180257142Y-103166666D02*
X180304761Y-103214285D01*
X180352380Y-103357142D01*
X180352380Y-103452380D01*
X180304761Y-103595238D01*
X180209523Y-103690476D01*
X180114285Y-103738095D01*
X179923809Y-103785714D01*
X179780952Y-103785714D01*
X179590476Y-103738095D01*
X179495238Y-103690476D01*
X179400000Y-103595238D01*
X179352380Y-103452380D01*
X179352380Y-103357142D01*
X179400000Y-103214285D01*
X179447619Y-103166666D01*
X179352380Y-102833333D02*
X179352380Y-102214285D01*
X179733333Y-102547619D01*
X179733333Y-102404761D01*
X179780952Y-102309523D01*
X179828571Y-102261904D01*
X179923809Y-102214285D01*
X180161904Y-102214285D01*
X180257142Y-102261904D01*
X180304761Y-102309523D01*
X180352380Y-102404761D01*
X180352380Y-102690476D01*
X180304761Y-102785714D01*
X180257142Y-102833333D01*
X127563956Y-65720803D02*
X127251574Y-66210993D01*
X127782632Y-66248735D02*
X126858752Y-66631418D01*
X126712968Y-66279464D01*
X126720517Y-66173252D01*
X126746288Y-66111035D01*
X126816053Y-66030595D01*
X126948036Y-65975926D01*
X127054248Y-65983474D01*
X127116465Y-66009245D01*
X127196905Y-66079011D01*
X127342689Y-66430965D01*
X127199495Y-64840918D02*
X127418172Y-65368849D01*
X127308833Y-65104884D02*
X126384954Y-65487567D01*
X126553383Y-65520887D01*
X126677817Y-65572429D01*
X126758258Y-65642195D01*
X126148055Y-64915642D02*
X125911155Y-64343716D01*
X126390671Y-64505892D01*
X126336002Y-64373909D01*
X126343550Y-64267698D01*
X126369321Y-64205480D01*
X126439087Y-64125040D01*
X126659058Y-64033925D01*
X126765269Y-64041473D01*
X126827487Y-64067244D01*
X126907927Y-64137010D01*
X127017265Y-64400975D01*
X127009717Y-64507187D01*
X126983946Y-64569404D01*
X158354164Y-60027098D02*
X157786661Y-60152828D01*
X158135488Y-60555029D02*
X157211609Y-60172346D01*
X157357393Y-59820392D01*
X157437833Y-59750626D01*
X157500050Y-59724855D01*
X157606262Y-59717307D01*
X157738245Y-59771976D01*
X157808010Y-59852416D01*
X157833781Y-59914633D01*
X157841330Y-60020845D01*
X157695546Y-60372799D01*
X158536395Y-59587155D02*
X158609287Y-59411178D01*
X158601738Y-59304967D01*
X158575967Y-59242750D01*
X158480431Y-59100092D01*
X158322676Y-58983206D01*
X157970722Y-58837421D01*
X157864511Y-58844970D01*
X157802294Y-58870741D01*
X157721853Y-58940506D01*
X157648961Y-59116484D01*
X157656509Y-59222695D01*
X157682281Y-59284912D01*
X157752046Y-59365353D01*
X157972017Y-59456468D01*
X158078229Y-59448920D01*
X158140446Y-59423148D01*
X158220887Y-59353383D01*
X158293779Y-59177406D01*
X158286230Y-59071194D01*
X158260459Y-59008977D01*
X158190694Y-58928537D01*
X177914365Y-84886527D02*
X177166463Y-85196318D01*
X177096697Y-85276758D01*
X177070926Y-85338975D01*
X177063378Y-85445187D01*
X177136270Y-85621164D01*
X177216710Y-85690930D01*
X177278927Y-85716701D01*
X177385139Y-85724249D01*
X178133041Y-85414458D01*
X178209060Y-85846852D02*
X178271277Y-85872623D01*
X178351718Y-85942389D01*
X178442833Y-86162360D01*
X178435285Y-86268572D01*
X178409513Y-86330789D01*
X178339748Y-86411229D01*
X178251759Y-86447675D01*
X178101553Y-86458350D01*
X177354946Y-86149095D01*
X177591845Y-86721021D01*
X159457142Y-99242857D02*
X159504761Y-99290476D01*
X159552380Y-99433333D01*
X159552380Y-99528571D01*
X159504761Y-99671428D01*
X159409523Y-99766666D01*
X159314285Y-99814285D01*
X159123809Y-99861904D01*
X158980952Y-99861904D01*
X158790476Y-99814285D01*
X158695238Y-99766666D01*
X158600000Y-99671428D01*
X158552380Y-99528571D01*
X158552380Y-99433333D01*
X158600000Y-99290476D01*
X158647619Y-99242857D01*
X158647619Y-98861904D02*
X158600000Y-98814285D01*
X158552380Y-98719047D01*
X158552380Y-98480952D01*
X158600000Y-98385714D01*
X158647619Y-98338095D01*
X158742857Y-98290476D01*
X158838095Y-98290476D01*
X158980952Y-98338095D01*
X159552380Y-98909523D01*
X159552380Y-98290476D01*
X158552380Y-97671428D02*
X158552380Y-97576190D01*
X158600000Y-97480952D01*
X158647619Y-97433333D01*
X158742857Y-97385714D01*
X158933333Y-97338095D01*
X159171428Y-97338095D01*
X159361904Y-97385714D01*
X159457142Y-97433333D01*
X159504761Y-97480952D01*
X159552380Y-97576190D01*
X159552380Y-97671428D01*
X159504761Y-97766666D01*
X159457142Y-97814285D01*
X159361904Y-97861904D01*
X159171428Y-97909523D01*
X158933333Y-97909523D01*
X158742857Y-97861904D01*
X158647619Y-97814285D01*
X158600000Y-97766666D01*
X158552380Y-97671428D01*
X144497619Y-144357142D02*
X144973809Y-144023809D01*
X144497619Y-143785714D02*
X145497619Y-143785714D01*
X145497619Y-144166666D01*
X145450000Y-144261904D01*
X145402380Y-144309523D01*
X145307142Y-144357142D01*
X145164285Y-144357142D01*
X145069047Y-144309523D01*
X145021428Y-144261904D01*
X144973809Y-144166666D01*
X144973809Y-143785714D01*
X145164285Y-145214285D02*
X144497619Y-145214285D01*
X145545238Y-144976190D02*
X144830952Y-144738095D01*
X144830952Y-145357142D01*
X145497619Y-146166666D02*
X145497619Y-145976190D01*
X145450000Y-145880952D01*
X145402380Y-145833333D01*
X145259523Y-145738095D01*
X145069047Y-145690476D01*
X144688095Y-145690476D01*
X144592857Y-145738095D01*
X144545238Y-145785714D01*
X144497619Y-145880952D01*
X144497619Y-146071428D01*
X144545238Y-146166666D01*
X144592857Y-146214285D01*
X144688095Y-146261904D01*
X144926190Y-146261904D01*
X145021428Y-146214285D01*
X145069047Y-146166666D01*
X145116666Y-146071428D01*
X145116666Y-145880952D01*
X145069047Y-145785714D01*
X145021428Y-145738095D01*
X144926190Y-145690476D01*
X156847619Y-144057142D02*
X157323809Y-143723809D01*
X156847619Y-143485714D02*
X157847619Y-143485714D01*
X157847619Y-143866666D01*
X157800000Y-143961904D01*
X157752380Y-144009523D01*
X157657142Y-144057142D01*
X157514285Y-144057142D01*
X157419047Y-144009523D01*
X157371428Y-143961904D01*
X157323809Y-143866666D01*
X157323809Y-143485714D01*
X157752380Y-144438095D02*
X157800000Y-144485714D01*
X157847619Y-144580952D01*
X157847619Y-144819047D01*
X157800000Y-144914285D01*
X157752380Y-144961904D01*
X157657142Y-145009523D01*
X157561904Y-145009523D01*
X157419047Y-144961904D01*
X156847619Y-144390476D01*
X156847619Y-145009523D01*
X157419047Y-145580952D02*
X157466666Y-145485714D01*
X157514285Y-145438095D01*
X157609523Y-145390476D01*
X157657142Y-145390476D01*
X157752380Y-145438095D01*
X157800000Y-145485714D01*
X157847619Y-145580952D01*
X157847619Y-145771428D01*
X157800000Y-145866666D01*
X157752380Y-145914285D01*
X157657142Y-145961904D01*
X157609523Y-145961904D01*
X157514285Y-145914285D01*
X157466666Y-145866666D01*
X157419047Y-145771428D01*
X157419047Y-145580952D01*
X157371428Y-145485714D01*
X157323809Y-145438095D01*
X157228571Y-145390476D01*
X157038095Y-145390476D01*
X156942857Y-145438095D01*
X156895238Y-145485714D01*
X156847619Y-145580952D01*
X156847619Y-145771428D01*
X156895238Y-145866666D01*
X156942857Y-145914285D01*
X157038095Y-145961904D01*
X157228571Y-145961904D01*
X157323809Y-145914285D01*
X157371428Y-145866666D01*
X157419047Y-145771428D01*
X174902030Y-67437732D02*
X174329610Y-67336717D01*
X174497969Y-67841793D02*
X173790862Y-67134687D01*
X174060236Y-66865312D01*
X174161251Y-66831641D01*
X174228595Y-66831641D01*
X174329610Y-66865312D01*
X174430625Y-66966328D01*
X174464297Y-67067343D01*
X174464297Y-67134687D01*
X174430625Y-67235702D01*
X174161251Y-67505076D01*
X174430625Y-66494923D02*
X174902030Y-66023519D01*
X175306091Y-67033671D01*
X169148477Y-75474027D02*
X168576057Y-76046447D01*
X168542385Y-76147462D01*
X168542385Y-76214806D01*
X168576057Y-76315821D01*
X168710744Y-76450508D01*
X168811759Y-76484180D01*
X168879103Y-76484180D01*
X168980118Y-76450508D01*
X169552538Y-75878088D01*
X169821912Y-76147462D02*
X170259644Y-76585195D01*
X169754568Y-76618867D01*
X169855583Y-76719882D01*
X169889255Y-76820897D01*
X169889255Y-76888241D01*
X169855583Y-76989256D01*
X169687225Y-77157615D01*
X169586209Y-77191287D01*
X169518866Y-77191287D01*
X169417851Y-77157615D01*
X169215820Y-76955584D01*
X169182148Y-76854569D01*
X169182148Y-76787226D01*
X157605656Y-70102497D02*
X157295865Y-70850400D01*
X157303413Y-70956611D01*
X157329184Y-71018828D01*
X157398950Y-71099269D01*
X157574927Y-71172161D01*
X157681138Y-71164613D01*
X157743356Y-71138841D01*
X157823796Y-71069076D01*
X158133587Y-70321173D01*
X158841917Y-70975371D02*
X158586795Y-71591290D01*
X158767730Y-70532301D02*
X158274413Y-71101100D01*
X158846339Y-71338000D01*
X122628085Y-112851841D02*
X122690303Y-112877613D01*
X122788966Y-112991372D01*
X122825412Y-113079361D01*
X122836087Y-113229567D01*
X122784544Y-113354001D01*
X122714779Y-113434442D01*
X122557025Y-113551328D01*
X122425042Y-113605997D01*
X122230842Y-113634895D01*
X122124630Y-113627347D01*
X122000196Y-113575804D01*
X121901532Y-113462044D01*
X121865086Y-113374056D01*
X121854412Y-113223850D01*
X121880183Y-113161633D01*
X122351613Y-111935510D02*
X122570290Y-112463441D01*
X122460951Y-112199476D02*
X121537072Y-112582159D01*
X121705501Y-112615479D01*
X121829935Y-112667021D01*
X121910376Y-112736787D01*
X121369938Y-111929793D02*
X121307721Y-111904022D01*
X121227281Y-111834257D01*
X121136166Y-111614285D01*
X121143714Y-111508074D01*
X121169485Y-111445856D01*
X121239250Y-111365416D01*
X121327239Y-111328970D01*
X121477445Y-111318295D01*
X122224052Y-111627550D01*
X121987153Y-111055625D01*
X124041176Y-68267961D02*
X123940161Y-68840380D01*
X124445237Y-68672022D02*
X123738130Y-69379128D01*
X123468756Y-69109754D01*
X123435084Y-69008739D01*
X123435084Y-68941396D01*
X123468756Y-68840380D01*
X123569771Y-68739365D01*
X123670787Y-68705693D01*
X123738130Y-68705693D01*
X123839145Y-68739365D01*
X124108519Y-69008739D01*
X122963680Y-68133274D02*
X123435084Y-67661869D01*
X122862664Y-68571006D02*
X123536100Y-68234289D01*
X123098367Y-67796556D01*
X122222901Y-67863899D02*
X122155558Y-67796556D01*
X122121886Y-67695541D01*
X122121886Y-67628197D01*
X122155558Y-67527182D01*
X122256573Y-67358823D01*
X122424932Y-67190464D01*
X122593290Y-67089449D01*
X122694306Y-67055777D01*
X122761649Y-67055777D01*
X122862664Y-67089449D01*
X122930008Y-67156793D01*
X122963680Y-67257808D01*
X122963680Y-67325151D01*
X122930008Y-67426167D01*
X122828993Y-67594525D01*
X122660634Y-67762884D01*
X122492275Y-67863899D01*
X122391260Y-67897571D01*
X122323916Y-67897571D01*
X122222901Y-67863899D01*
X177231828Y-115087687D02*
X177257599Y-115149904D01*
X177246924Y-115300110D01*
X177210478Y-115388098D01*
X177111815Y-115501858D01*
X176987380Y-115553401D01*
X176881169Y-115560949D01*
X176686969Y-115532051D01*
X176554986Y-115477382D01*
X176397232Y-115360496D01*
X176327466Y-115280055D01*
X176275924Y-115155621D01*
X176286599Y-115005415D01*
X176323045Y-114917426D01*
X176421708Y-114803667D01*
X176483925Y-114777895D01*
X177684277Y-114244247D02*
X177465600Y-114772179D01*
X177574939Y-114508213D02*
X176651059Y-114125530D01*
X176746596Y-114268187D01*
X176798138Y-114392622D01*
X176805686Y-114498833D01*
X177375022Y-113497640D02*
X177294581Y-113567406D01*
X177232364Y-113593177D01*
X177126153Y-113600725D01*
X177082158Y-113582502D01*
X177012393Y-113502062D01*
X176986622Y-113439844D01*
X176979073Y-113333633D01*
X177051965Y-113157656D01*
X177132406Y-113087890D01*
X177194623Y-113062119D01*
X177300835Y-113054571D01*
X177344829Y-113072794D01*
X177414594Y-113153234D01*
X177440366Y-113215451D01*
X177447914Y-113321663D01*
X177375022Y-113497640D01*
X177382570Y-113603852D01*
X177408341Y-113666069D01*
X177478107Y-113746509D01*
X177654084Y-113819401D01*
X177760295Y-113811853D01*
X177822513Y-113786082D01*
X177902953Y-113716316D01*
X177975845Y-113540339D01*
X177968297Y-113434128D01*
X177942526Y-113371910D01*
X177872760Y-113291470D01*
X177696783Y-113218578D01*
X177590571Y-113226126D01*
X177528354Y-113251898D01*
X177447914Y-113321663D01*
X159854164Y-60627098D02*
X159286661Y-60752828D01*
X159635488Y-61155029D02*
X158711609Y-60772346D01*
X158857393Y-60420392D01*
X158937833Y-60350626D01*
X159000050Y-60324855D01*
X159106262Y-60317307D01*
X159238245Y-60371976D01*
X159308010Y-60452416D01*
X159333781Y-60514633D01*
X159341330Y-60620845D01*
X159195546Y-60972799D01*
X159544910Y-59880491D02*
X159464469Y-59950256D01*
X159402252Y-59976027D01*
X159296040Y-59983576D01*
X159252046Y-59965353D01*
X159182281Y-59884912D01*
X159156509Y-59822695D01*
X159148961Y-59716484D01*
X159221853Y-59540506D01*
X159302294Y-59470741D01*
X159364511Y-59444970D01*
X159470722Y-59437421D01*
X159514717Y-59455645D01*
X159584482Y-59536085D01*
X159610253Y-59598302D01*
X159617802Y-59704514D01*
X159544910Y-59880491D01*
X159552458Y-59986702D01*
X159578229Y-60048920D01*
X159647994Y-60129360D01*
X159823972Y-60202252D01*
X159930183Y-60194704D01*
X159992400Y-60168932D01*
X160072841Y-60099167D01*
X160145733Y-59923190D01*
X160138185Y-59816978D01*
X160112413Y-59754761D01*
X160042648Y-59674321D01*
X159866671Y-59601429D01*
X159760459Y-59608977D01*
X159698242Y-59634748D01*
X159617802Y-59704514D01*
X158447619Y-144057142D02*
X158923809Y-143723809D01*
X158447619Y-143485714D02*
X159447619Y-143485714D01*
X159447619Y-143866666D01*
X159400000Y-143961904D01*
X159352380Y-144009523D01*
X159257142Y-144057142D01*
X159114285Y-144057142D01*
X159019047Y-144009523D01*
X158971428Y-143961904D01*
X158923809Y-143866666D01*
X158923809Y-143485714D01*
X159352380Y-144438095D02*
X159400000Y-144485714D01*
X159447619Y-144580952D01*
X159447619Y-144819047D01*
X159400000Y-144914285D01*
X159352380Y-144961904D01*
X159257142Y-145009523D01*
X159161904Y-145009523D01*
X159019047Y-144961904D01*
X158447619Y-144390476D01*
X158447619Y-145009523D01*
X159447619Y-145342857D02*
X159447619Y-146009523D01*
X158447619Y-145580952D01*
X117452380Y-106561904D02*
X118261904Y-106561904D01*
X118357142Y-106514285D01*
X118404761Y-106466666D01*
X118452380Y-106371428D01*
X118452380Y-106180952D01*
X118404761Y-106085714D01*
X118357142Y-106038095D01*
X118261904Y-105990476D01*
X117452380Y-105990476D01*
X118452380Y-105466666D02*
X118452380Y-105276190D01*
X118404761Y-105180952D01*
X118357142Y-105133333D01*
X118214285Y-105038095D01*
X118023809Y-104990476D01*
X117642857Y-104990476D01*
X117547619Y-105038095D01*
X117500000Y-105085714D01*
X117452380Y-105180952D01*
X117452380Y-105371428D01*
X117500000Y-105466666D01*
X117547619Y-105514285D01*
X117642857Y-105561904D01*
X117880952Y-105561904D01*
X117976190Y-105514285D01*
X118023809Y-105466666D01*
X118071428Y-105371428D01*
X118071428Y-105180952D01*
X118023809Y-105085714D01*
X117976190Y-105038095D01*
X117880952Y-104990476D01*
X125234687Y-136625549D02*
X125807106Y-136726564D01*
X125638748Y-136221488D02*
X126345854Y-136928595D01*
X126076480Y-137197969D01*
X125975465Y-137231641D01*
X125908122Y-137231641D01*
X125807106Y-137197969D01*
X125706091Y-137096954D01*
X125672419Y-136995938D01*
X125672419Y-136928595D01*
X125706091Y-136827580D01*
X125975465Y-136558206D01*
X125605076Y-137534687D02*
X125605076Y-137602030D01*
X125571404Y-137703045D01*
X125403045Y-137871404D01*
X125302030Y-137905076D01*
X125234687Y-137905076D01*
X125133671Y-137871404D01*
X125066328Y-137804061D01*
X124998984Y-137669374D01*
X124998984Y-136861251D01*
X124561251Y-137298984D01*
X124426564Y-138376480D02*
X123955160Y-137905076D01*
X124864297Y-138477496D02*
X124527580Y-137804061D01*
X124089847Y-138241793D01*
X150858333Y-72457142D02*
X150810714Y-72504761D01*
X150667857Y-72552380D01*
X150572619Y-72552380D01*
X150429761Y-72504761D01*
X150334523Y-72409523D01*
X150286904Y-72314285D01*
X150239285Y-72123809D01*
X150239285Y-71980952D01*
X150286904Y-71790476D01*
X150334523Y-71695238D01*
X150429761Y-71600000D01*
X150572619Y-71552380D01*
X150667857Y-71552380D01*
X150810714Y-71600000D01*
X150858333Y-71647619D01*
X151191666Y-71552380D02*
X151858333Y-71552380D01*
X151429761Y-72552380D01*
X139277142Y-117066666D02*
X139324761Y-117114285D01*
X139372380Y-117257142D01*
X139372380Y-117352380D01*
X139324761Y-117495238D01*
X139229523Y-117590476D01*
X139134285Y-117638095D01*
X138943809Y-117685714D01*
X138800952Y-117685714D01*
X138610476Y-117638095D01*
X138515238Y-117590476D01*
X138420000Y-117495238D01*
X138372380Y-117352380D01*
X138372380Y-117257142D01*
X138420000Y-117114285D01*
X138467619Y-117066666D01*
X138467619Y-116685714D02*
X138420000Y-116638095D01*
X138372380Y-116542857D01*
X138372380Y-116304761D01*
X138420000Y-116209523D01*
X138467619Y-116161904D01*
X138562857Y-116114285D01*
X138658095Y-116114285D01*
X138800952Y-116161904D01*
X139372380Y-116733333D01*
X139372380Y-116114285D01*
X172182450Y-81515751D02*
X172249793Y-81515751D01*
X172384480Y-81583095D01*
X172451824Y-81650439D01*
X172519167Y-81785126D01*
X172519167Y-81919813D01*
X172485496Y-82020828D01*
X172384480Y-82189187D01*
X172283465Y-82290202D01*
X172115106Y-82391217D01*
X172014091Y-82424889D01*
X171879404Y-82424889D01*
X171744717Y-82357545D01*
X171677373Y-82290202D01*
X171610030Y-82155515D01*
X171610030Y-82088171D01*
X170902923Y-81515751D02*
X171239641Y-81852469D01*
X171610030Y-81549423D01*
X171542686Y-81549423D01*
X171441671Y-81515751D01*
X171273312Y-81347393D01*
X171239641Y-81246377D01*
X171239641Y-81179034D01*
X171273312Y-81078019D01*
X171441671Y-80909660D01*
X171542686Y-80875988D01*
X171610030Y-80875988D01*
X171711045Y-80909660D01*
X171879404Y-81078019D01*
X171913076Y-81179034D01*
X171913076Y-81246377D01*
X166953415Y-130132135D02*
X166643624Y-129384233D01*
X166563183Y-129314467D01*
X166500966Y-129288696D01*
X166394755Y-129281148D01*
X166218778Y-129354040D01*
X166149012Y-129434480D01*
X166123241Y-129496697D01*
X166115693Y-129602909D01*
X166425484Y-130350811D01*
X165118921Y-129809615D02*
X165646852Y-129590939D01*
X165382887Y-129700277D02*
X165765570Y-130624157D01*
X165798889Y-130455728D01*
X165850432Y-130331293D01*
X165920197Y-130250853D01*
X164582147Y-130753549D02*
X164327024Y-130137630D01*
X164947902Y-131014388D02*
X164894528Y-130263359D01*
X164322603Y-130500258D01*
X147654761Y-124147619D02*
X147559523Y-124100000D01*
X147464285Y-124004761D01*
X147321428Y-123861904D01*
X147226190Y-123814285D01*
X147130952Y-123814285D01*
X147178571Y-124052380D02*
X147083333Y-124004761D01*
X146988095Y-123909523D01*
X146940476Y-123719047D01*
X146940476Y-123385714D01*
X146988095Y-123195238D01*
X147083333Y-123100000D01*
X147178571Y-123052380D01*
X147369047Y-123052380D01*
X147464285Y-123100000D01*
X147559523Y-123195238D01*
X147607142Y-123385714D01*
X147607142Y-123719047D01*
X147559523Y-123909523D01*
X147464285Y-124004761D01*
X147369047Y-124052380D01*
X147178571Y-124052380D01*
X148559523Y-124052380D02*
X147988095Y-124052380D01*
X148273809Y-124052380D02*
X148273809Y-123052380D01*
X148178571Y-123195238D01*
X148083333Y-123290476D01*
X147988095Y-123338095D01*
X155502380Y-59642857D02*
X155026190Y-59976190D01*
X155502380Y-60214285D02*
X154502380Y-60214285D01*
X154502380Y-59833333D01*
X154550000Y-59738095D01*
X154597619Y-59690476D01*
X154692857Y-59642857D01*
X154835714Y-59642857D01*
X154930952Y-59690476D01*
X154978571Y-59738095D01*
X155026190Y-59833333D01*
X155026190Y-60214285D01*
X154502380Y-59309523D02*
X154502380Y-58690476D01*
X154883333Y-59023809D01*
X154883333Y-58880952D01*
X154930952Y-58785714D01*
X154978571Y-58738095D01*
X155073809Y-58690476D01*
X155311904Y-58690476D01*
X155407142Y-58738095D01*
X155454761Y-58785714D01*
X155502380Y-58880952D01*
X155502380Y-59166666D01*
X155454761Y-59261904D01*
X155407142Y-59309523D01*
X154930952Y-58119047D02*
X154883333Y-58214285D01*
X154835714Y-58261904D01*
X154740476Y-58309523D01*
X154692857Y-58309523D01*
X154597619Y-58261904D01*
X154550000Y-58214285D01*
X154502380Y-58119047D01*
X154502380Y-57928571D01*
X154550000Y-57833333D01*
X154597619Y-57785714D01*
X154692857Y-57738095D01*
X154740476Y-57738095D01*
X154835714Y-57785714D01*
X154883333Y-57833333D01*
X154930952Y-57928571D01*
X154930952Y-58119047D01*
X154978571Y-58214285D01*
X155026190Y-58261904D01*
X155121428Y-58309523D01*
X155311904Y-58309523D01*
X155407142Y-58261904D01*
X155454761Y-58214285D01*
X155502380Y-58119047D01*
X155502380Y-57928571D01*
X155454761Y-57833333D01*
X155407142Y-57785714D01*
X155311904Y-57738095D01*
X155121428Y-57738095D01*
X155026190Y-57785714D01*
X154978571Y-57833333D01*
X154930952Y-57928571D01*
X148357142Y-132177142D02*
X148309523Y-132224761D01*
X148166666Y-132272380D01*
X148071428Y-132272380D01*
X147928571Y-132224761D01*
X147833333Y-132129523D01*
X147785714Y-132034285D01*
X147738095Y-131843809D01*
X147738095Y-131700952D01*
X147785714Y-131510476D01*
X147833333Y-131415238D01*
X147928571Y-131320000D01*
X148071428Y-131272380D01*
X148166666Y-131272380D01*
X148309523Y-131320000D01*
X148357142Y-131367619D01*
X149309523Y-132272380D02*
X148738095Y-132272380D01*
X149023809Y-132272380D02*
X149023809Y-131272380D01*
X148928571Y-131415238D01*
X148833333Y-131510476D01*
X148738095Y-131558095D01*
X150214285Y-131272380D02*
X149738095Y-131272380D01*
X149690476Y-131748571D01*
X149738095Y-131700952D01*
X149833333Y-131653333D01*
X150071428Y-131653333D01*
X150166666Y-131700952D01*
X150214285Y-131748571D01*
X150261904Y-131843809D01*
X150261904Y-132081904D01*
X150214285Y-132177142D01*
X150166666Y-132224761D01*
X150071428Y-132272380D01*
X149833333Y-132272380D01*
X149738095Y-132224761D01*
X149690476Y-132177142D01*
X122067864Y-118953415D02*
X122815766Y-118643624D01*
X122885532Y-118563183D01*
X122911303Y-118500966D01*
X122918851Y-118394755D01*
X122845959Y-118218778D01*
X122765519Y-118149012D01*
X122703302Y-118123241D01*
X122597090Y-118115693D01*
X121849188Y-118425484D01*
X122390384Y-117118921D02*
X122609060Y-117646852D01*
X122499722Y-117382887D02*
X121575842Y-117765570D01*
X121744271Y-117798889D01*
X121868706Y-117850432D01*
X121949146Y-117920197D01*
X121229605Y-116929679D02*
X121193159Y-116841690D01*
X121200707Y-116735479D01*
X121226478Y-116673262D01*
X121296244Y-116592821D01*
X121453998Y-116475935D01*
X121673969Y-116384820D01*
X121868169Y-116355922D01*
X121974381Y-116363470D01*
X122036598Y-116389242D01*
X122117039Y-116459007D01*
X122153485Y-116546996D01*
X122145936Y-116653207D01*
X122120165Y-116715424D01*
X122050400Y-116795865D01*
X121892646Y-116912751D01*
X121672674Y-117003866D01*
X121478474Y-117032764D01*
X121372263Y-117025216D01*
X121310045Y-116999444D01*
X121229605Y-116929679D01*
X108567041Y-92228065D02*
X108692770Y-92795569D01*
X109094972Y-92446741D02*
X108712288Y-93370621D01*
X108360334Y-93224836D01*
X108290569Y-93144396D01*
X108264798Y-93082179D01*
X108257249Y-92975967D01*
X108311918Y-92843984D01*
X108392359Y-92774219D01*
X108454576Y-92748448D01*
X108560788Y-92740899D01*
X108912742Y-92886684D01*
X107687155Y-91863604D02*
X108215087Y-92082281D01*
X107951121Y-91972942D02*
X107568438Y-92896822D01*
X107711095Y-92801285D01*
X107835530Y-92749743D01*
X107941741Y-92742195D01*
X106996512Y-92659923D02*
X106380593Y-92404800D01*
X107159224Y-91644928D01*
X175958823Y-135732038D02*
X176059838Y-135159619D01*
X175554762Y-135327977D02*
X176261869Y-134620871D01*
X176531243Y-134890245D01*
X176564915Y-134991260D01*
X176564915Y-135058603D01*
X176531243Y-135159619D01*
X176430228Y-135260634D01*
X176329212Y-135294306D01*
X176261869Y-135294306D01*
X176160854Y-135260634D01*
X175891480Y-134991260D01*
X177036319Y-135866726D02*
X176564915Y-136338130D01*
X177137335Y-135428993D02*
X176463899Y-135765710D01*
X176901632Y-136203443D01*
X177440380Y-136405474D02*
X177406709Y-136304458D01*
X177406709Y-136237115D01*
X177440380Y-136136100D01*
X177474052Y-136102428D01*
X177575067Y-136068756D01*
X177642411Y-136068756D01*
X177743426Y-136102428D01*
X177878113Y-136237115D01*
X177911785Y-136338130D01*
X177911785Y-136405474D01*
X177878113Y-136506489D01*
X177844441Y-136540161D01*
X177743426Y-136573832D01*
X177676083Y-136573832D01*
X177575067Y-136540161D01*
X177440380Y-136405474D01*
X177339365Y-136371802D01*
X177272022Y-136371802D01*
X177171006Y-136405474D01*
X177036319Y-136540161D01*
X177002648Y-136641176D01*
X177002648Y-136708519D01*
X177036319Y-136809535D01*
X177171006Y-136944222D01*
X177272022Y-136977893D01*
X177339365Y-136977893D01*
X177440380Y-136944222D01*
X177575067Y-136809535D01*
X177608739Y-136708519D01*
X177608739Y-136641176D01*
X177575067Y-136540161D01*
X191532958Y-111771934D02*
X191407229Y-111204430D01*
X191005027Y-111553258D02*
X191387711Y-110629378D01*
X191739665Y-110775163D01*
X191809430Y-110855603D01*
X191835201Y-110917820D01*
X191842750Y-111024032D01*
X191788081Y-111156015D01*
X191707640Y-111225780D01*
X191645423Y-111251551D01*
X191539211Y-111259100D01*
X191187257Y-111113315D01*
X192223602Y-110975616D02*
X192795527Y-111212515D01*
X192341783Y-111436908D01*
X192473766Y-111491577D01*
X192543531Y-111572017D01*
X192569302Y-111634235D01*
X192576851Y-111740446D01*
X192485736Y-111960418D01*
X192405295Y-112030183D01*
X192343078Y-112055954D01*
X192236866Y-112063503D01*
X191972901Y-111954164D01*
X191903135Y-111873724D01*
X191877364Y-111811507D01*
X193103487Y-111340076D02*
X193675412Y-111576976D01*
X193221668Y-111801368D01*
X193353651Y-111856038D01*
X193423417Y-111936478D01*
X193449188Y-111998695D01*
X193456736Y-112104907D01*
X193365621Y-112324878D01*
X193285181Y-112394644D01*
X193222963Y-112420415D01*
X193116752Y-112427963D01*
X192852786Y-112318625D01*
X192783021Y-112238185D01*
X192757249Y-112175967D01*
X116134687Y-128025549D02*
X116707106Y-128126564D01*
X116538748Y-127621488D02*
X117245854Y-128328595D01*
X116976480Y-128597969D01*
X116875465Y-128631641D01*
X116808122Y-128631641D01*
X116707106Y-128597969D01*
X116606091Y-128496954D01*
X116572419Y-128395938D01*
X116572419Y-128328595D01*
X116606091Y-128227580D01*
X116875465Y-127958206D01*
X116000000Y-129103045D02*
X115528595Y-128631641D01*
X116437732Y-129204061D02*
X116101015Y-128530625D01*
X115663282Y-128968358D01*
X115326564Y-129776480D02*
X114855160Y-129305076D01*
X115764297Y-129877496D02*
X115427580Y-129204061D01*
X114989847Y-129641793D01*
X183958205Y-76174450D02*
X183385786Y-76073435D01*
X183554144Y-76578511D02*
X182847038Y-75871404D01*
X183116412Y-75602030D01*
X183217427Y-75568358D01*
X183284770Y-75568358D01*
X183385786Y-75602030D01*
X183486801Y-75703045D01*
X183520473Y-75804061D01*
X183520473Y-75871404D01*
X183486801Y-75972419D01*
X183217427Y-76241793D01*
X183486801Y-75231641D02*
X183924534Y-74793908D01*
X183958205Y-75298984D01*
X184059221Y-75197969D01*
X184160236Y-75164297D01*
X184227580Y-75164297D01*
X184328595Y-75197969D01*
X184496954Y-75366328D01*
X184530625Y-75467343D01*
X184530625Y-75534687D01*
X184496954Y-75635702D01*
X184294923Y-75837732D01*
X184193908Y-75871404D01*
X184126564Y-75871404D01*
X184530625Y-74187816D02*
X184395938Y-74322503D01*
X184362267Y-74423519D01*
X184362267Y-74490862D01*
X184395938Y-74659221D01*
X184496954Y-74827580D01*
X184766328Y-75096954D01*
X184867343Y-75130625D01*
X184934686Y-75130625D01*
X185035702Y-75096954D01*
X185170389Y-74962267D01*
X185204060Y-74861251D01*
X185204060Y-74793908D01*
X185170389Y-74692893D01*
X185002030Y-74524534D01*
X184901015Y-74490862D01*
X184833671Y-74490862D01*
X184732656Y-74524534D01*
X184597969Y-74659221D01*
X184564297Y-74760236D01*
X184564297Y-74827580D01*
X184597969Y-74928595D01*
X151552380Y-90538095D02*
X150552380Y-90538095D01*
X150552380Y-90300000D01*
X150600000Y-90157142D01*
X150695238Y-90061904D01*
X150790476Y-90014285D01*
X150980952Y-89966666D01*
X151123809Y-89966666D01*
X151314285Y-90014285D01*
X151409523Y-90061904D01*
X151504761Y-90157142D01*
X151552380Y-90300000D01*
X151552380Y-90538095D01*
X150552380Y-89633333D02*
X150552380Y-89014285D01*
X150933333Y-89347619D01*
X150933333Y-89204761D01*
X150980952Y-89109523D01*
X151028571Y-89061904D01*
X151123809Y-89014285D01*
X151361904Y-89014285D01*
X151457142Y-89061904D01*
X151504761Y-89109523D01*
X151552380Y-89204761D01*
X151552380Y-89490476D01*
X151504761Y-89585714D01*
X151457142Y-89633333D01*
X143352380Y-59942857D02*
X142876190Y-60276190D01*
X143352380Y-60514285D02*
X142352380Y-60514285D01*
X142352380Y-60133333D01*
X142400000Y-60038095D01*
X142447619Y-59990476D01*
X142542857Y-59942857D01*
X142685714Y-59942857D01*
X142780952Y-59990476D01*
X142828571Y-60038095D01*
X142876190Y-60133333D01*
X142876190Y-60514285D01*
X143352380Y-58990476D02*
X143352380Y-59561904D01*
X143352380Y-59276190D02*
X142352380Y-59276190D01*
X142495238Y-59371428D01*
X142590476Y-59466666D01*
X142638095Y-59561904D01*
X142447619Y-58609523D02*
X142400000Y-58561904D01*
X142352380Y-58466666D01*
X142352380Y-58228571D01*
X142400000Y-58133333D01*
X142447619Y-58085714D01*
X142542857Y-58038095D01*
X142638095Y-58038095D01*
X142780952Y-58085714D01*
X143352380Y-58657142D01*
X143352380Y-58038095D01*
X138419425Y-128953070D02*
X138481642Y-128927299D01*
X138631848Y-128937974D01*
X138719836Y-128974420D01*
X138833596Y-129073083D01*
X138885139Y-129197518D01*
X138892687Y-129303729D01*
X138863789Y-129497929D01*
X138809120Y-129629912D01*
X138692234Y-129787666D01*
X138611793Y-129857432D01*
X138487359Y-129908974D01*
X138337153Y-129898299D01*
X138249164Y-129861853D01*
X138135405Y-129763190D01*
X138109633Y-129700973D01*
X137575985Y-128500621D02*
X138103917Y-128719298D01*
X137839951Y-128609959D02*
X137457268Y-129533839D01*
X137599925Y-129438302D01*
X137724360Y-129386760D01*
X137830571Y-129379212D01*
X136528966Y-128788527D02*
X136784089Y-128172607D01*
X136603154Y-129231596D02*
X137096470Y-128662797D01*
X136524545Y-128425898D01*
X162647744Y-74623441D02*
X162709961Y-74597670D01*
X162860167Y-74608345D01*
X162948156Y-74644791D01*
X163061915Y-74743454D01*
X163113458Y-74867889D01*
X163121006Y-74974100D01*
X163092108Y-75168300D01*
X163037439Y-75300283D01*
X162920553Y-75458037D01*
X162840113Y-75527803D01*
X162715678Y-75579345D01*
X162565472Y-75568670D01*
X162477484Y-75532224D01*
X162363724Y-75433561D01*
X162337953Y-75371344D01*
X161509610Y-75131318D02*
X161685587Y-75204210D01*
X161791799Y-75196662D01*
X161854016Y-75170890D01*
X161996673Y-75075354D01*
X162113560Y-74917600D01*
X162259344Y-74565645D01*
X162251796Y-74459434D01*
X162226024Y-74397217D01*
X162156259Y-74316776D01*
X161980282Y-74243884D01*
X161874070Y-74251432D01*
X161811853Y-74277204D01*
X161731413Y-74346969D01*
X161640298Y-74566941D01*
X161647846Y-74673152D01*
X161673617Y-74735369D01*
X161743383Y-74815810D01*
X161919360Y-74888702D01*
X162025571Y-74881154D01*
X162087789Y-74855382D01*
X162168229Y-74785617D01*
X124057142Y-109852380D02*
X123723809Y-109376190D01*
X123485714Y-109852380D02*
X123485714Y-108852380D01*
X123866666Y-108852380D01*
X123961904Y-108900000D01*
X124009523Y-108947619D01*
X124057142Y-109042857D01*
X124057142Y-109185714D01*
X124009523Y-109280952D01*
X123961904Y-109328571D01*
X123866666Y-109376190D01*
X123485714Y-109376190D01*
X124961904Y-108852380D02*
X124485714Y-108852380D01*
X124438095Y-109328571D01*
X124485714Y-109280952D01*
X124580952Y-109233333D01*
X124819047Y-109233333D01*
X124914285Y-109280952D01*
X124961904Y-109328571D01*
X125009523Y-109423809D01*
X125009523Y-109661904D01*
X124961904Y-109757142D01*
X124914285Y-109804761D01*
X124819047Y-109852380D01*
X124580952Y-109852380D01*
X124485714Y-109804761D01*
X124438095Y-109757142D01*
X125628571Y-108852380D02*
X125723809Y-108852380D01*
X125819047Y-108900000D01*
X125866666Y-108947619D01*
X125914285Y-109042857D01*
X125961904Y-109233333D01*
X125961904Y-109471428D01*
X125914285Y-109661904D01*
X125866666Y-109757142D01*
X125819047Y-109804761D01*
X125723809Y-109852380D01*
X125628571Y-109852380D01*
X125533333Y-109804761D01*
X125485714Y-109757142D01*
X125438095Y-109661904D01*
X125390476Y-109471428D01*
X125390476Y-109233333D01*
X125438095Y-109042857D01*
X125485714Y-108947619D01*
X125533333Y-108900000D01*
X125628571Y-108852380D01*
X153452380Y-124166666D02*
X152976190Y-124500000D01*
X153452380Y-124738095D02*
X152452380Y-124738095D01*
X152452380Y-124357142D01*
X152500000Y-124261904D01*
X152547619Y-124214285D01*
X152642857Y-124166666D01*
X152785714Y-124166666D01*
X152880952Y-124214285D01*
X152928571Y-124261904D01*
X152976190Y-124357142D01*
X152976190Y-124738095D01*
X153452380Y-123214285D02*
X153452380Y-123785714D01*
X153452380Y-123500000D02*
X152452380Y-123500000D01*
X152595238Y-123595238D01*
X152690476Y-123690476D01*
X152738095Y-123785714D01*
X173802030Y-66337732D02*
X173229610Y-66236717D01*
X173397969Y-66741793D02*
X172690862Y-66034687D01*
X172960236Y-65765312D01*
X173061251Y-65731641D01*
X173128595Y-65731641D01*
X173229610Y-65765312D01*
X173330625Y-65866328D01*
X173364297Y-65967343D01*
X173364297Y-66034687D01*
X173330625Y-66135702D01*
X173061251Y-66405076D01*
X173701015Y-65024534D02*
X173566328Y-65159221D01*
X173532656Y-65260236D01*
X173532656Y-65327580D01*
X173566328Y-65495938D01*
X173667343Y-65664297D01*
X173936717Y-65933671D01*
X174037732Y-65967343D01*
X174105076Y-65967343D01*
X174206091Y-65933671D01*
X174340778Y-65798984D01*
X174374450Y-65697969D01*
X174374450Y-65630625D01*
X174340778Y-65529610D01*
X174172419Y-65361251D01*
X174071404Y-65327580D01*
X174004061Y-65327580D01*
X173903045Y-65361251D01*
X173768358Y-65495938D01*
X173734687Y-65596954D01*
X173734687Y-65664297D01*
X173768358Y-65765312D01*
X128703664Y-138901530D02*
X129271168Y-138775801D01*
X128922340Y-138373599D02*
X129846220Y-138756283D01*
X129700435Y-139108237D01*
X129619995Y-139178002D01*
X129557778Y-139203773D01*
X129451566Y-139211322D01*
X129319583Y-139156653D01*
X129249818Y-139076212D01*
X129224047Y-139013995D01*
X129216498Y-138907783D01*
X129362283Y-138555829D01*
X128991569Y-139948549D02*
X128375649Y-139693427D01*
X129434638Y-139874362D02*
X128865839Y-139381045D01*
X128628940Y-139952971D01*
X128916846Y-140999990D02*
X129099076Y-140560047D01*
X128677356Y-140333823D01*
X128703127Y-140396040D01*
X128710676Y-140502252D01*
X128619560Y-140722223D01*
X128539120Y-140791989D01*
X128476903Y-140817760D01*
X128370691Y-140825308D01*
X128150720Y-140734193D01*
X128080954Y-140653753D01*
X128055183Y-140591535D01*
X128047635Y-140485324D01*
X128138750Y-140265352D01*
X128219190Y-140195587D01*
X128281408Y-140169816D01*
X129666666Y-97099761D02*
X129809523Y-97147380D01*
X130047619Y-97147380D01*
X130142857Y-97099761D01*
X130190476Y-97052142D01*
X130238095Y-96956904D01*
X130238095Y-96861666D01*
X130190476Y-96766428D01*
X130142857Y-96718809D01*
X130047619Y-96671190D01*
X129857142Y-96623571D01*
X129761904Y-96575952D01*
X129714285Y-96528333D01*
X129666666Y-96433095D01*
X129666666Y-96337857D01*
X129714285Y-96242619D01*
X129761904Y-96195000D01*
X129857142Y-96147380D01*
X130095238Y-96147380D01*
X130238095Y-96195000D01*
X130571428Y-96147380D02*
X130809523Y-97147380D01*
X131000000Y-96433095D01*
X131190476Y-97147380D01*
X131428571Y-96147380D01*
X131809523Y-97147380D02*
X131809523Y-96147380D01*
X132047619Y-96147380D01*
X132190476Y-96195000D01*
X132285714Y-96290238D01*
X132333333Y-96385476D01*
X132380952Y-96575952D01*
X132380952Y-96718809D01*
X132333333Y-96909285D01*
X132285714Y-97004523D01*
X132190476Y-97099761D01*
X132047619Y-97147380D01*
X131809523Y-97147380D01*
X133333333Y-97147380D02*
X132761904Y-97147380D01*
X133047619Y-97147380D02*
X133047619Y-96147380D01*
X132952380Y-96290238D01*
X132857142Y-96385476D01*
X132761904Y-96433095D01*
X133386527Y-73585634D02*
X133696318Y-74333536D01*
X133776758Y-74403302D01*
X133838975Y-74429073D01*
X133945187Y-74436621D01*
X134121164Y-74363729D01*
X134190930Y-74283289D01*
X134216701Y-74221072D01*
X134224249Y-74114860D01*
X133914458Y-73366958D01*
X134750349Y-73020720D02*
X134574372Y-73093612D01*
X134504606Y-73174053D01*
X134478835Y-73236270D01*
X134445515Y-73404699D01*
X134474413Y-73598899D01*
X134620197Y-73950853D01*
X134700638Y-74020618D01*
X134762855Y-74046390D01*
X134869067Y-74053938D01*
X135045044Y-73981046D01*
X135114809Y-73900605D01*
X135140580Y-73838388D01*
X135148129Y-73732177D01*
X135057013Y-73512205D01*
X134976573Y-73442440D01*
X134914356Y-73416669D01*
X134808144Y-73409120D01*
X134632167Y-73482012D01*
X134562402Y-73562453D01*
X134536631Y-73624670D01*
X134529082Y-73730882D01*
X152557142Y-98342857D02*
X152604761Y-98390476D01*
X152652380Y-98533333D01*
X152652380Y-98628571D01*
X152604761Y-98771428D01*
X152509523Y-98866666D01*
X152414285Y-98914285D01*
X152223809Y-98961904D01*
X152080952Y-98961904D01*
X151890476Y-98914285D01*
X151795238Y-98866666D01*
X151700000Y-98771428D01*
X151652380Y-98628571D01*
X151652380Y-98533333D01*
X151700000Y-98390476D01*
X151747619Y-98342857D01*
X151747619Y-97961904D02*
X151700000Y-97914285D01*
X151652380Y-97819047D01*
X151652380Y-97580952D01*
X151700000Y-97485714D01*
X151747619Y-97438095D01*
X151842857Y-97390476D01*
X151938095Y-97390476D01*
X152080952Y-97438095D01*
X152652380Y-98009523D01*
X152652380Y-97390476D01*
X152652380Y-96438095D02*
X152652380Y-97009523D01*
X152652380Y-96723809D02*
X151652380Y-96723809D01*
X151795238Y-96819047D01*
X151890476Y-96914285D01*
X151938095Y-97009523D01*
X129822626Y-80558328D02*
X129822626Y-80625671D01*
X129755282Y-80760358D01*
X129687939Y-80827702D01*
X129553251Y-80895045D01*
X129418564Y-80895045D01*
X129317549Y-80861374D01*
X129149190Y-80760358D01*
X129048175Y-80659343D01*
X128947160Y-80490984D01*
X128913488Y-80389969D01*
X128913488Y-80255282D01*
X128980832Y-80120595D01*
X129048175Y-80053251D01*
X129182862Y-79985908D01*
X129250206Y-79985908D01*
X130226687Y-80288954D02*
X130361374Y-80154267D01*
X130395045Y-80053251D01*
X130395045Y-79985908D01*
X130361374Y-79817549D01*
X130260358Y-79649190D01*
X129990984Y-79379816D01*
X129889969Y-79346145D01*
X129822626Y-79346145D01*
X129721610Y-79379816D01*
X129586923Y-79514503D01*
X129553251Y-79615519D01*
X129553251Y-79682862D01*
X129586923Y-79783877D01*
X129755282Y-79952236D01*
X129856297Y-79985908D01*
X129923641Y-79985908D01*
X130024656Y-79952236D01*
X130159343Y-79817549D01*
X130193015Y-79716534D01*
X130193015Y-79649190D01*
X130159343Y-79548175D01*
X186977650Y-123513652D02*
X186851921Y-122946148D01*
X186449719Y-123294976D02*
X186832403Y-122371096D01*
X187184357Y-122516881D01*
X187254122Y-122597321D01*
X187279893Y-122659538D01*
X187287442Y-122765750D01*
X187232773Y-122897733D01*
X187152332Y-122967498D01*
X187090115Y-122993269D01*
X186983903Y-123000818D01*
X186631949Y-122855033D01*
X188024669Y-123225747D02*
X187769547Y-123841667D01*
X187950482Y-122782678D02*
X187457165Y-123351477D01*
X188029091Y-123588376D01*
X188297478Y-124060343D02*
X188473455Y-124133235D01*
X188579667Y-124125687D01*
X188641884Y-124099915D01*
X188784542Y-124004379D01*
X188901428Y-123846625D01*
X189047212Y-123494671D01*
X189039664Y-123388459D01*
X189013893Y-123326242D01*
X188944127Y-123245801D01*
X188768150Y-123172909D01*
X188661939Y-123180458D01*
X188599721Y-123206229D01*
X188519281Y-123275994D01*
X188428166Y-123495966D01*
X188435714Y-123602177D01*
X188461485Y-123664394D01*
X188531251Y-123744835D01*
X188707228Y-123817727D01*
X188813439Y-123810179D01*
X188875657Y-123784407D01*
X188956097Y-123714642D01*
X154761904Y-117552380D02*
X154761904Y-116552380D01*
X155000000Y-116552380D01*
X155142857Y-116600000D01*
X155238095Y-116695238D01*
X155285714Y-116790476D01*
X155333333Y-116980952D01*
X155333333Y-117123809D01*
X155285714Y-117314285D01*
X155238095Y-117409523D01*
X155142857Y-117504761D01*
X155000000Y-117552380D01*
X154761904Y-117552380D01*
X156285714Y-117552380D02*
X155714285Y-117552380D01*
X156000000Y-117552380D02*
X156000000Y-116552380D01*
X155904761Y-116695238D01*
X155809523Y-116790476D01*
X155714285Y-116838095D01*
X191279196Y-91063956D02*
X190789006Y-90751574D01*
X190751264Y-91282632D02*
X190368581Y-90358752D01*
X190720535Y-90212968D01*
X190826747Y-90220517D01*
X190888964Y-90246288D01*
X190969404Y-90316053D01*
X191024073Y-90448036D01*
X191016525Y-90554248D01*
X190990754Y-90616465D01*
X190920988Y-90696905D01*
X190569034Y-90842689D01*
X191204472Y-90012515D02*
X191776397Y-89775616D01*
X191614222Y-90255131D01*
X191746205Y-90200462D01*
X191852416Y-90208010D01*
X191914633Y-90233781D01*
X191995074Y-90303547D01*
X192086189Y-90523518D01*
X192078641Y-90629730D01*
X192052869Y-90691947D01*
X191983104Y-90772387D01*
X191719138Y-90881726D01*
X191612927Y-90874177D01*
X191550709Y-90848406D01*
X192612288Y-89429378D02*
X192172346Y-89611609D01*
X192310582Y-90069774D01*
X192336353Y-90007557D01*
X192406119Y-89927117D01*
X192626090Y-89836002D01*
X192732301Y-89843550D01*
X192794519Y-89869321D01*
X192874959Y-89939087D01*
X192966074Y-90159058D01*
X192958526Y-90265269D01*
X192932755Y-90327487D01*
X192862989Y-90407927D01*
X192643018Y-90499042D01*
X192536806Y-90491494D01*
X192474589Y-90465723D01*
X145538095Y-69452380D02*
X145538095Y-70261904D01*
X145585714Y-70357142D01*
X145633333Y-70404761D01*
X145728571Y-70452380D01*
X145919047Y-70452380D01*
X146014285Y-70404761D01*
X146061904Y-70357142D01*
X146109523Y-70261904D01*
X146109523Y-69452380D01*
X147061904Y-69452380D02*
X146585714Y-69452380D01*
X146538095Y-69928571D01*
X146585714Y-69880952D01*
X146680952Y-69833333D01*
X146919047Y-69833333D01*
X147014285Y-69880952D01*
X147061904Y-69928571D01*
X147109523Y-70023809D01*
X147109523Y-70261904D01*
X147061904Y-70357142D01*
X147014285Y-70404761D01*
X146919047Y-70452380D01*
X146680952Y-70452380D01*
X146585714Y-70404761D01*
X146538095Y-70357142D01*
X151202380Y-124538095D02*
X150202380Y-124538095D01*
X150202380Y-124300000D01*
X150250000Y-124157142D01*
X150345238Y-124061904D01*
X150440476Y-124014285D01*
X150630952Y-123966666D01*
X150773809Y-123966666D01*
X150964285Y-124014285D01*
X151059523Y-124061904D01*
X151154761Y-124157142D01*
X151202380Y-124300000D01*
X151202380Y-124538095D01*
X150297619Y-123585714D02*
X150250000Y-123538095D01*
X150202380Y-123442857D01*
X150202380Y-123204761D01*
X150250000Y-123109523D01*
X150297619Y-123061904D01*
X150392857Y-123014285D01*
X150488095Y-123014285D01*
X150630952Y-123061904D01*
X151202380Y-123633333D01*
X151202380Y-123014285D01*
X191933333Y-95352380D02*
X191600000Y-94876190D01*
X191361904Y-95352380D02*
X191361904Y-94352380D01*
X191742857Y-94352380D01*
X191838095Y-94400000D01*
X191885714Y-94447619D01*
X191933333Y-94542857D01*
X191933333Y-94685714D01*
X191885714Y-94780952D01*
X191838095Y-94828571D01*
X191742857Y-94876190D01*
X191361904Y-94876190D01*
X192266666Y-94352380D02*
X192885714Y-94352380D01*
X192552380Y-94733333D01*
X192695238Y-94733333D01*
X192790476Y-94780952D01*
X192838095Y-94828571D01*
X192885714Y-94923809D01*
X192885714Y-95161904D01*
X192838095Y-95257142D01*
X192790476Y-95304761D01*
X192695238Y-95352380D01*
X192409523Y-95352380D01*
X192314285Y-95304761D01*
X192266666Y-95257142D01*
X155038095Y-134447619D02*
X155038095Y-133638095D01*
X154990476Y-133542857D01*
X154942857Y-133495238D01*
X154847619Y-133447619D01*
X154657142Y-133447619D01*
X154561904Y-133495238D01*
X154514285Y-133542857D01*
X154466666Y-133638095D01*
X154466666Y-134447619D01*
X153466666Y-133447619D02*
X154038095Y-133447619D01*
X153752380Y-133447619D02*
X153752380Y-134447619D01*
X153847619Y-134304761D01*
X153942857Y-134209523D01*
X154038095Y-134161904D01*
X153133333Y-134447619D02*
X152514285Y-134447619D01*
X152847619Y-134066666D01*
X152704761Y-134066666D01*
X152609523Y-134019047D01*
X152561904Y-133971428D01*
X152514285Y-133876190D01*
X152514285Y-133638095D01*
X152561904Y-133542857D01*
X152609523Y-133495238D01*
X152704761Y-133447619D01*
X152990476Y-133447619D01*
X153085714Y-133495238D01*
X153133333Y-133542857D01*
X130688240Y-128362690D02*
X131260660Y-127790270D01*
X131294331Y-127689255D01*
X131294331Y-127621912D01*
X131260660Y-127520896D01*
X131125973Y-127386209D01*
X131024957Y-127352538D01*
X130957614Y-127352538D01*
X130856599Y-127386209D01*
X130284179Y-127958629D01*
X130284179Y-126544416D02*
X130688240Y-126948477D01*
X130486209Y-126746446D02*
X129779103Y-127453553D01*
X129947461Y-127419881D01*
X130082148Y-127419881D01*
X130183164Y-127453553D01*
X129610744Y-125870981D02*
X130014805Y-126275042D01*
X129812774Y-126073011D02*
X129105668Y-126780118D01*
X129274026Y-126746446D01*
X129408713Y-126746446D01*
X129509729Y-126780118D01*
X140128571Y-82352380D02*
X140128571Y-83161904D01*
X140176190Y-83257142D01*
X140223809Y-83304761D01*
X140319047Y-83352380D01*
X140509523Y-83352380D01*
X140604761Y-83304761D01*
X140652380Y-83257142D01*
X140700000Y-83161904D01*
X140700000Y-82352380D01*
X141128571Y-83066666D02*
X141604761Y-83066666D01*
X141033333Y-83352380D02*
X141366666Y-82352380D01*
X141700000Y-83352380D01*
X142604761Y-83352380D02*
X142271428Y-82876190D01*
X142033333Y-83352380D02*
X142033333Y-82352380D01*
X142414285Y-82352380D01*
X142509523Y-82400000D01*
X142557142Y-82447619D01*
X142604761Y-82542857D01*
X142604761Y-82685714D01*
X142557142Y-82780952D01*
X142509523Y-82828571D01*
X142414285Y-82876190D01*
X142033333Y-82876190D01*
X142890476Y-82352380D02*
X143461904Y-82352380D01*
X143176190Y-83352380D02*
X143176190Y-82352380D01*
X144319047Y-83352380D02*
X143747619Y-83352380D01*
X144033333Y-83352380D02*
X144033333Y-82352380D01*
X143938095Y-82495238D01*
X143842857Y-82590476D01*
X143747619Y-82638095D01*
X184625549Y-126865312D02*
X184726564Y-126292893D01*
X184221488Y-126461251D02*
X184928595Y-125754145D01*
X185197969Y-126023519D01*
X185231641Y-126124534D01*
X185231641Y-126191877D01*
X185197969Y-126292893D01*
X185096954Y-126393908D01*
X184995938Y-126427580D01*
X184928595Y-126427580D01*
X184827580Y-126393908D01*
X184558206Y-126124534D01*
X185568358Y-126393908D02*
X186006091Y-126831641D01*
X185501015Y-126865312D01*
X185602030Y-126966328D01*
X185635702Y-127067343D01*
X185635702Y-127134687D01*
X185602030Y-127235702D01*
X185433671Y-127404061D01*
X185332656Y-127437732D01*
X185265312Y-127437732D01*
X185164297Y-127404061D01*
X184962267Y-127202030D01*
X184928595Y-127101015D01*
X184928595Y-127033671D01*
X186208122Y-127168358D02*
X186275465Y-127168358D01*
X186376480Y-127202030D01*
X186544839Y-127370389D01*
X186578511Y-127471404D01*
X186578511Y-127538748D01*
X186544839Y-127639763D01*
X186477496Y-127707106D01*
X186342809Y-127774450D01*
X185534687Y-127774450D01*
X185972419Y-128212183D01*
X107942857Y-108847619D02*
X108276190Y-109323809D01*
X108514285Y-108847619D02*
X108514285Y-109847619D01*
X108133333Y-109847619D01*
X108038095Y-109800000D01*
X107990476Y-109752380D01*
X107942857Y-109657142D01*
X107942857Y-109514285D01*
X107990476Y-109419047D01*
X108038095Y-109371428D01*
X108133333Y-109323809D01*
X108514285Y-109323809D01*
X107561904Y-109752380D02*
X107514285Y-109800000D01*
X107419047Y-109847619D01*
X107180952Y-109847619D01*
X107085714Y-109800000D01*
X107038095Y-109752380D01*
X106990476Y-109657142D01*
X106990476Y-109561904D01*
X107038095Y-109419047D01*
X107609523Y-108847619D01*
X106990476Y-108847619D01*
X106371428Y-109847619D02*
X106276190Y-109847619D01*
X106180952Y-109800000D01*
X106133333Y-109752380D01*
X106085714Y-109657142D01*
X106038095Y-109466666D01*
X106038095Y-109228571D01*
X106085714Y-109038095D01*
X106133333Y-108942857D01*
X106180952Y-108895238D01*
X106276190Y-108847619D01*
X106371428Y-108847619D01*
X106466666Y-108895238D01*
X106514285Y-108942857D01*
X106561904Y-109038095D01*
X106609523Y-109228571D01*
X106609523Y-109466666D01*
X106561904Y-109657142D01*
X106514285Y-109752380D01*
X106466666Y-109800000D01*
X106371428Y-109847619D01*
X122973564Y-90373503D02*
X122999335Y-90435720D01*
X122988660Y-90585926D01*
X122952214Y-90673914D01*
X122853551Y-90787674D01*
X122729116Y-90839217D01*
X122622905Y-90846765D01*
X122428705Y-90817867D01*
X122296722Y-90763198D01*
X122138968Y-90646312D01*
X122069202Y-90565871D01*
X122017660Y-90441437D01*
X122028335Y-90291231D01*
X122064781Y-90203242D01*
X122163444Y-90089483D01*
X122225661Y-90063711D01*
X123426013Y-89530063D02*
X123207336Y-90057995D01*
X123316675Y-89794029D02*
X122392795Y-89411346D01*
X122488332Y-89554003D01*
X122539874Y-89678438D01*
X122547422Y-89784649D01*
X122739032Y-88575455D02*
X122775478Y-88487466D01*
X122855919Y-88417701D01*
X122918136Y-88391929D01*
X123024348Y-88384381D01*
X123218548Y-88413279D01*
X123438519Y-88504394D01*
X123596273Y-88621280D01*
X123666038Y-88701721D01*
X123691810Y-88763938D01*
X123699358Y-88870150D01*
X123662912Y-88958138D01*
X123582472Y-89027904D01*
X123520254Y-89053675D01*
X123414043Y-89061223D01*
X123219843Y-89032325D01*
X122999871Y-88941210D01*
X122842117Y-88824324D01*
X122772352Y-88743883D01*
X122746581Y-88681666D01*
X122739032Y-88575455D01*
X173936043Y-137679196D02*
X174248425Y-137189006D01*
X173717367Y-137151264D02*
X174641247Y-136768581D01*
X174787031Y-137120535D01*
X174779482Y-137226747D01*
X174753711Y-137288964D01*
X174683946Y-137369404D01*
X174551963Y-137424073D01*
X174445751Y-137416525D01*
X174383534Y-137390754D01*
X174303094Y-137320988D01*
X174157310Y-136969034D01*
X174917718Y-137684912D02*
X174979936Y-137710684D01*
X175060376Y-137780449D01*
X175151491Y-138000420D01*
X175143943Y-138106632D01*
X175118172Y-138168849D01*
X175048406Y-138249290D01*
X174960418Y-138285736D01*
X174810212Y-138296410D01*
X174063604Y-137987155D01*
X174300504Y-138559081D01*
X175552398Y-138968294D02*
X175479505Y-138792317D01*
X175399065Y-138722552D01*
X175336848Y-138696780D01*
X175168419Y-138663461D01*
X174974219Y-138692359D01*
X174622265Y-138838143D01*
X174552499Y-138918583D01*
X174526728Y-138980801D01*
X174519180Y-139087012D01*
X174592072Y-139262989D01*
X174672512Y-139332755D01*
X174734730Y-139358526D01*
X174840941Y-139366074D01*
X175060912Y-139274959D01*
X175130678Y-139194519D01*
X175156449Y-139132301D01*
X175163997Y-139026090D01*
X175091105Y-138850113D01*
X175010665Y-138780347D01*
X174948448Y-138754576D01*
X174842236Y-138747028D01*
X192257142Y-107752380D02*
X191923809Y-107276190D01*
X191685714Y-107752380D02*
X191685714Y-106752380D01*
X192066666Y-106752380D01*
X192161904Y-106800000D01*
X192209523Y-106847619D01*
X192257142Y-106942857D01*
X192257142Y-107085714D01*
X192209523Y-107180952D01*
X192161904Y-107228571D01*
X192066666Y-107276190D01*
X191685714Y-107276190D01*
X192590476Y-106752380D02*
X193209523Y-106752380D01*
X192876190Y-107133333D01*
X193019047Y-107133333D01*
X193114285Y-107180952D01*
X193161904Y-107228571D01*
X193209523Y-107323809D01*
X193209523Y-107561904D01*
X193161904Y-107657142D01*
X193114285Y-107704761D01*
X193019047Y-107752380D01*
X192733333Y-107752380D01*
X192638095Y-107704761D01*
X192590476Y-107657142D01*
X194066666Y-107085714D02*
X194066666Y-107752380D01*
X193828571Y-106704761D02*
X193590476Y-107419047D01*
X194209523Y-107419047D01*
X120557142Y-101642857D02*
X120604761Y-101690476D01*
X120652380Y-101833333D01*
X120652380Y-101928571D01*
X120604761Y-102071428D01*
X120509523Y-102166666D01*
X120414285Y-102214285D01*
X120223809Y-102261904D01*
X120080952Y-102261904D01*
X119890476Y-102214285D01*
X119795238Y-102166666D01*
X119700000Y-102071428D01*
X119652380Y-101928571D01*
X119652380Y-101833333D01*
X119700000Y-101690476D01*
X119747619Y-101642857D01*
X120652380Y-100690476D02*
X120652380Y-101261904D01*
X120652380Y-100976190D02*
X119652380Y-100976190D01*
X119795238Y-101071428D01*
X119890476Y-101166666D01*
X119938095Y-101261904D01*
X120652380Y-99738095D02*
X120652380Y-100309523D01*
X120652380Y-100023809D02*
X119652380Y-100023809D01*
X119795238Y-100119047D01*
X119890476Y-100214285D01*
X119938095Y-100309523D01*
X142461904Y-109497380D02*
X142461904Y-110306904D01*
X142509523Y-110402142D01*
X142557142Y-110449761D01*
X142652380Y-110497380D01*
X142842857Y-110497380D01*
X142938095Y-110449761D01*
X142985714Y-110402142D01*
X143033333Y-110306904D01*
X143033333Y-109497380D01*
X144033333Y-110497380D02*
X143461904Y-110497380D01*
X143747619Y-110497380D02*
X143747619Y-109497380D01*
X143652380Y-109640238D01*
X143557142Y-109735476D01*
X143461904Y-109783095D01*
X144366666Y-109497380D02*
X145033333Y-109497380D01*
X144604761Y-110497380D01*
X114474450Y-78134687D02*
X114373435Y-78707106D01*
X114878511Y-78538748D02*
X114171404Y-79245854D01*
X113902030Y-78976480D01*
X113868358Y-78875465D01*
X113868358Y-78808122D01*
X113902030Y-78707106D01*
X114003045Y-78606091D01*
X114104061Y-78572419D01*
X114171404Y-78572419D01*
X114272419Y-78606091D01*
X114541793Y-78875465D01*
X113801015Y-77461251D02*
X114205076Y-77865312D01*
X114003045Y-77663282D02*
X113295938Y-78370389D01*
X113464297Y-78336717D01*
X113598984Y-78336717D01*
X113700000Y-78370389D01*
X112454145Y-77528595D02*
X112790862Y-77865312D01*
X113161251Y-77562267D01*
X113093908Y-77562267D01*
X112992893Y-77528595D01*
X112824534Y-77360236D01*
X112790862Y-77259221D01*
X112790862Y-77191877D01*
X112824534Y-77090862D01*
X112992893Y-76922503D01*
X113093908Y-76888832D01*
X113161251Y-76888832D01*
X113262267Y-76922503D01*
X113430625Y-77090862D01*
X113464297Y-77191877D01*
X113464297Y-77259221D01*
X138888357Y-60789375D02*
X138575975Y-61279565D01*
X139107033Y-61317307D02*
X138183153Y-61699990D01*
X138037369Y-61348036D01*
X138044918Y-61241824D01*
X138070689Y-61179607D01*
X138140454Y-61099167D01*
X138272437Y-61044498D01*
X138378649Y-61052046D01*
X138440866Y-61077817D01*
X138521306Y-61147583D01*
X138667090Y-61499537D01*
X137836916Y-60864099D02*
X137600017Y-60292174D01*
X138079532Y-60454349D01*
X138024863Y-60322366D01*
X138032411Y-60216155D01*
X138058182Y-60153938D01*
X138127948Y-60073497D01*
X138347919Y-59982382D01*
X138454131Y-59989930D01*
X138516348Y-60015702D01*
X138596788Y-60085467D01*
X138706127Y-60349433D01*
X138698578Y-60455644D01*
X138672807Y-60517862D01*
X138341666Y-59469547D02*
X138268774Y-59293570D01*
X138188334Y-59223805D01*
X138126116Y-59198034D01*
X137957688Y-59164714D01*
X137763488Y-59193612D01*
X137411533Y-59339396D01*
X137341768Y-59419836D01*
X137315997Y-59482054D01*
X137308449Y-59588265D01*
X137381341Y-59764242D01*
X137461781Y-59834008D01*
X137523998Y-59859779D01*
X137630210Y-59867327D01*
X137850181Y-59776212D01*
X137919947Y-59695772D01*
X137945718Y-59633555D01*
X137953266Y-59527343D01*
X137880374Y-59351366D01*
X137799934Y-59281601D01*
X137737716Y-59255829D01*
X137631505Y-59248281D01*
X151016666Y-108926571D02*
X150683333Y-108926571D01*
X150683333Y-109450380D02*
X150683333Y-108450380D01*
X151159523Y-108450380D01*
X152064285Y-109450380D02*
X151492857Y-109450380D01*
X151778571Y-109450380D02*
X151778571Y-108450380D01*
X151683333Y-108593238D01*
X151588095Y-108688476D01*
X151492857Y-108736095D01*
X139525600Y-74483355D02*
X139499829Y-74545572D01*
X139386069Y-74644236D01*
X139298081Y-74680682D01*
X139147875Y-74691356D01*
X139023440Y-74639814D01*
X138943000Y-74570049D01*
X138826114Y-74412294D01*
X138771445Y-74280312D01*
X138742547Y-74086112D01*
X138750095Y-73979900D01*
X138801637Y-73855465D01*
X138915397Y-73756802D01*
X139003386Y-73720356D01*
X139153592Y-73709681D01*
X139215809Y-73735453D01*
X139871301Y-73824736D02*
X139765090Y-73817188D01*
X139702872Y-73791417D01*
X139622432Y-73721651D01*
X139604209Y-73677657D01*
X139611757Y-73571445D01*
X139637528Y-73509228D01*
X139707294Y-73428788D01*
X139883271Y-73355896D01*
X139989483Y-73363444D01*
X140051700Y-73389215D01*
X140132140Y-73458981D01*
X140150363Y-73502975D01*
X140142815Y-73609186D01*
X140117044Y-73671404D01*
X140047278Y-73751844D01*
X139871301Y-73824736D01*
X139801536Y-73905176D01*
X139775764Y-73967394D01*
X139768216Y-74073605D01*
X139841108Y-74249582D01*
X139921549Y-74319348D01*
X139983766Y-74345119D01*
X140089977Y-74352667D01*
X140265954Y-74279775D01*
X140335720Y-74199335D01*
X140361491Y-74137118D01*
X140369039Y-74030906D01*
X140296147Y-73854929D01*
X140215707Y-73785164D01*
X140153490Y-73759392D01*
X140047278Y-73751844D01*
X186119138Y-79681726D02*
X185628948Y-79369344D01*
X185591207Y-79900402D02*
X185208524Y-78976522D01*
X185560478Y-78830738D01*
X185666689Y-78838286D01*
X185728907Y-78864058D01*
X185809347Y-78933823D01*
X185864016Y-79065806D01*
X185856468Y-79172017D01*
X185830697Y-79234235D01*
X185760931Y-79314675D01*
X185408977Y-79460459D01*
X186655913Y-78737792D02*
X186911035Y-79353711D01*
X186290157Y-78476953D02*
X186343531Y-79227982D01*
X186915457Y-78991082D01*
X185519138Y-78281726D02*
X185028948Y-77969344D01*
X184991207Y-78500402D02*
X184608524Y-77576522D01*
X184960478Y-77430738D01*
X185066689Y-77438286D01*
X185128907Y-77464058D01*
X185209347Y-77533823D01*
X185264016Y-77665806D01*
X185256468Y-77772017D01*
X185230697Y-77834235D01*
X185160931Y-77914675D01*
X184808977Y-78060459D01*
X185972346Y-77011609D02*
X185532403Y-77193839D01*
X185670639Y-77652005D01*
X185696410Y-77589787D01*
X185766176Y-77509347D01*
X185986147Y-77418232D01*
X186092359Y-77425780D01*
X186154576Y-77451551D01*
X186235016Y-77521317D01*
X186326131Y-77741288D01*
X186318583Y-77847500D01*
X186292812Y-77909717D01*
X186223046Y-77990157D01*
X186003075Y-78081272D01*
X185896864Y-78073724D01*
X185834646Y-78047953D01*
X123874026Y-82151522D02*
X124446446Y-82723942D01*
X124547461Y-82757614D01*
X124614805Y-82757614D01*
X124715820Y-82723942D01*
X124850507Y-82589255D01*
X124884179Y-82488240D01*
X124884179Y-82420896D01*
X124850507Y-82319881D01*
X124278087Y-81747461D01*
X124547461Y-81478087D02*
X125018866Y-81006683D01*
X125422927Y-82016835D01*
X192132958Y-110371934D02*
X192007229Y-109804430D01*
X191605027Y-110153258D02*
X191987711Y-109229378D01*
X192339665Y-109375163D01*
X192409430Y-109455603D01*
X192435201Y-109517820D01*
X192442750Y-109624032D01*
X192388081Y-109756015D01*
X192307640Y-109825780D01*
X192245423Y-109851551D01*
X192139211Y-109859100D01*
X191787257Y-109713315D01*
X192823602Y-109575616D02*
X193395527Y-109812515D01*
X192941783Y-110036908D01*
X193073766Y-110091577D01*
X193143531Y-110172017D01*
X193169302Y-110234235D01*
X193176851Y-110340446D01*
X193085736Y-110560418D01*
X193005295Y-110630183D01*
X192943078Y-110655954D01*
X192836866Y-110663503D01*
X192572901Y-110554164D01*
X192503135Y-110473724D01*
X192477364Y-110411507D01*
X193967452Y-110049414D02*
X194055441Y-110085860D01*
X194125206Y-110166301D01*
X194150978Y-110228518D01*
X194158526Y-110334730D01*
X194129628Y-110528930D01*
X194038513Y-110748901D01*
X193921627Y-110906655D01*
X193841186Y-110976420D01*
X193778969Y-111002192D01*
X193672757Y-111009740D01*
X193584769Y-110973294D01*
X193515003Y-110892854D01*
X193489232Y-110830636D01*
X193481684Y-110724425D01*
X193510582Y-110530225D01*
X193601697Y-110310253D01*
X193718583Y-110152499D01*
X193799024Y-110082734D01*
X193861241Y-110056963D01*
X193967452Y-110049414D01*
X171396335Y-64998469D02*
X170828831Y-65124198D01*
X171177659Y-65526400D02*
X170253779Y-65143716D01*
X170399564Y-64791762D01*
X170480004Y-64721997D01*
X170542221Y-64696226D01*
X170648433Y-64688677D01*
X170780416Y-64743346D01*
X170850181Y-64823787D01*
X170875952Y-64886004D01*
X170883501Y-64992216D01*
X170737716Y-65344170D01*
X170600017Y-64307825D02*
X170836916Y-63735900D01*
X171061309Y-64189644D01*
X171115978Y-64057661D01*
X171196418Y-63987896D01*
X171258636Y-63962125D01*
X171364847Y-63954576D01*
X171584819Y-64045691D01*
X171654584Y-64126132D01*
X171680355Y-64188349D01*
X171687904Y-64294561D01*
X171578565Y-64558526D01*
X171498125Y-64628292D01*
X171435908Y-64654063D01*
X170964477Y-63427940D02*
X171219600Y-62812021D01*
X171979472Y-63590652D01*
X107942857Y-110447619D02*
X108276190Y-110923809D01*
X108514285Y-110447619D02*
X108514285Y-111447619D01*
X108133333Y-111447619D01*
X108038095Y-111400000D01*
X107990476Y-111352380D01*
X107942857Y-111257142D01*
X107942857Y-111114285D01*
X107990476Y-111019047D01*
X108038095Y-110971428D01*
X108133333Y-110923809D01*
X108514285Y-110923809D01*
X106990476Y-110447619D02*
X107561904Y-110447619D01*
X107276190Y-110447619D02*
X107276190Y-111447619D01*
X107371428Y-111304761D01*
X107466666Y-111209523D01*
X107561904Y-111161904D01*
X106514285Y-110447619D02*
X106323809Y-110447619D01*
X106228571Y-110495238D01*
X106180952Y-110542857D01*
X106085714Y-110685714D01*
X106038095Y-110876190D01*
X106038095Y-111257142D01*
X106085714Y-111352380D01*
X106133333Y-111400000D01*
X106228571Y-111447619D01*
X106419047Y-111447619D01*
X106514285Y-111400000D01*
X106561904Y-111352380D01*
X106609523Y-111257142D01*
X106609523Y-111019047D01*
X106561904Y-110923809D01*
X106514285Y-110876190D01*
X106419047Y-110828571D01*
X106228571Y-110828571D01*
X106133333Y-110876190D01*
X106085714Y-110923809D01*
X106038095Y-111019047D01*
X142334286Y-133979732D02*
X142644077Y-133231830D01*
X142636529Y-133125618D01*
X142610757Y-133063401D01*
X142540992Y-132982960D01*
X142365015Y-132910068D01*
X142258803Y-132917617D01*
X142196586Y-132943388D01*
X142116146Y-133013153D01*
X141806354Y-133761056D01*
X141265158Y-132454493D02*
X141793090Y-132673169D01*
X141529124Y-132563831D02*
X141146440Y-133487711D01*
X141289098Y-133392174D01*
X141413533Y-133340631D01*
X141519744Y-133333083D01*
X140566967Y-133144600D02*
X140504750Y-133170371D01*
X140398538Y-133177919D01*
X140178567Y-133086804D01*
X140108801Y-133006364D01*
X140083030Y-132944146D01*
X140075482Y-132837935D01*
X140111928Y-132749946D01*
X140210591Y-132636187D01*
X140957199Y-132326932D01*
X140385273Y-132090032D01*
X176562690Y-121311759D02*
X175990270Y-120739339D01*
X175889255Y-120705668D01*
X175821912Y-120705668D01*
X175720896Y-120739339D01*
X175586209Y-120874026D01*
X175552538Y-120975042D01*
X175552538Y-121042385D01*
X175586209Y-121143400D01*
X176158629Y-121715820D01*
X174744416Y-121715820D02*
X175148477Y-121311759D01*
X174946446Y-121513790D02*
X175653553Y-122220896D01*
X175619881Y-122052538D01*
X175619881Y-121917851D01*
X175653553Y-121816835D01*
X174811759Y-123062690D02*
X175148477Y-122725973D01*
X174845431Y-122355583D01*
X174845431Y-122422927D01*
X174811759Y-122523942D01*
X174643400Y-122692301D01*
X174542385Y-122725973D01*
X174475042Y-122725973D01*
X174374026Y-122692301D01*
X174205668Y-122523942D01*
X174171996Y-122422927D01*
X174171996Y-122355583D01*
X174205668Y-122254568D01*
X174374026Y-122086209D01*
X174475042Y-122052538D01*
X174542385Y-122052538D01*
X107642857Y-96397619D02*
X107976190Y-96873809D01*
X108214285Y-96397619D02*
X108214285Y-97397619D01*
X107833333Y-97397619D01*
X107738095Y-97350000D01*
X107690476Y-97302380D01*
X107642857Y-97207142D01*
X107642857Y-97064285D01*
X107690476Y-96969047D01*
X107738095Y-96921428D01*
X107833333Y-96873809D01*
X108214285Y-96873809D01*
X106785714Y-97064285D02*
X106785714Y-96397619D01*
X107023809Y-97445238D02*
X107261904Y-96730952D01*
X106642857Y-96730952D01*
X106309523Y-97302380D02*
X106261904Y-97350000D01*
X106166666Y-97397619D01*
X105928571Y-97397619D01*
X105833333Y-97350000D01*
X105785714Y-97302380D01*
X105738095Y-97207142D01*
X105738095Y-97111904D01*
X105785714Y-96969047D01*
X106357142Y-96397619D01*
X105738095Y-96397619D01*
X181879732Y-109665713D02*
X181131830Y-109355922D01*
X181025618Y-109363470D01*
X180963401Y-109389242D01*
X180882960Y-109459007D01*
X180810068Y-109634984D01*
X180817617Y-109741196D01*
X180843388Y-109803413D01*
X180913153Y-109883853D01*
X181661056Y-110193645D01*
X180354493Y-110734841D02*
X180573169Y-110206909D01*
X180463831Y-110470875D02*
X181387711Y-110853559D01*
X181292174Y-110710901D01*
X181240631Y-110586466D01*
X181233083Y-110480255D01*
X180950358Y-111909421D02*
X181023250Y-111733444D01*
X181015702Y-111627232D01*
X180989931Y-111565015D01*
X180894394Y-111422357D01*
X180736640Y-111305471D01*
X180384686Y-111159687D01*
X180278474Y-111167235D01*
X180216257Y-111193006D01*
X180135817Y-111262772D01*
X180062925Y-111438749D01*
X180070473Y-111544960D01*
X180096244Y-111607178D01*
X180166009Y-111687618D01*
X180385981Y-111778733D01*
X180492192Y-111771185D01*
X180554410Y-111745414D01*
X180634850Y-111675648D01*
X180707742Y-111499671D01*
X180700194Y-111393460D01*
X180674423Y-111331242D01*
X180604657Y-111250802D01*
X159999842Y-130523849D02*
X159974070Y-130586067D01*
X159860311Y-130684730D01*
X159772322Y-130721176D01*
X159622116Y-130731851D01*
X159497682Y-130680308D01*
X159417241Y-130610543D01*
X159300355Y-130452789D01*
X159245686Y-130320806D01*
X159216788Y-130126606D01*
X159224336Y-130020394D01*
X159275879Y-129895960D01*
X159389639Y-129797296D01*
X159477627Y-129760850D01*
X159627833Y-129750176D01*
X159690050Y-129775947D01*
X160916173Y-130247377D02*
X160388242Y-130466054D01*
X160652207Y-130356715D02*
X160269524Y-129432836D01*
X160236204Y-129601265D01*
X160184662Y-129725699D01*
X160114896Y-129806140D01*
X161325386Y-128995483D02*
X161149409Y-129068376D01*
X161079644Y-129148816D01*
X161053872Y-129211033D01*
X161020553Y-129379462D01*
X161049451Y-129573662D01*
X161195235Y-129925616D01*
X161275675Y-129995382D01*
X161337893Y-130021153D01*
X161444104Y-130028701D01*
X161620081Y-129955809D01*
X161689847Y-129875369D01*
X161715618Y-129813151D01*
X161723166Y-129706940D01*
X161632051Y-129486969D01*
X161551611Y-129417203D01*
X161489393Y-129391432D01*
X161383182Y-129383884D01*
X161207205Y-129456776D01*
X161137439Y-129537216D01*
X161111668Y-129599433D01*
X161104120Y-129705645D01*
X112998469Y-80703664D02*
X113124198Y-81271168D01*
X113526400Y-80922340D02*
X113143716Y-81846220D01*
X112791762Y-81700435D01*
X112721997Y-81619995D01*
X112696226Y-81557778D01*
X112688677Y-81451566D01*
X112743346Y-81319583D01*
X112823787Y-81249818D01*
X112886004Y-81224047D01*
X112992216Y-81216498D01*
X113344170Y-81362283D01*
X111951450Y-80991569D02*
X112206572Y-80375649D01*
X112025637Y-81434638D02*
X112518954Y-80865839D01*
X111947028Y-80628940D01*
X111238698Y-79974743D02*
X111766629Y-80193419D01*
X111502664Y-80084081D02*
X111119980Y-81007961D01*
X111262638Y-80912424D01*
X111387073Y-80860881D01*
X111493284Y-80853333D01*
X191933333Y-93852380D02*
X191600000Y-93376190D01*
X191361904Y-93852380D02*
X191361904Y-92852380D01*
X191742857Y-92852380D01*
X191838095Y-92900000D01*
X191885714Y-92947619D01*
X191933333Y-93042857D01*
X191933333Y-93185714D01*
X191885714Y-93280952D01*
X191838095Y-93328571D01*
X191742857Y-93376190D01*
X191361904Y-93376190D01*
X192314285Y-92947619D02*
X192361904Y-92900000D01*
X192457142Y-92852380D01*
X192695238Y-92852380D01*
X192790476Y-92900000D01*
X192838095Y-92947619D01*
X192885714Y-93042857D01*
X192885714Y-93138095D01*
X192838095Y-93280952D01*
X192266666Y-93852380D01*
X192885714Y-93852380D01*
X150887142Y-104342857D02*
X150934761Y-104390476D01*
X150982380Y-104533333D01*
X150982380Y-104628571D01*
X150934761Y-104771428D01*
X150839523Y-104866666D01*
X150744285Y-104914285D01*
X150553809Y-104961904D01*
X150410952Y-104961904D01*
X150220476Y-104914285D01*
X150125238Y-104866666D01*
X150030000Y-104771428D01*
X149982380Y-104628571D01*
X149982380Y-104533333D01*
X150030000Y-104390476D01*
X150077619Y-104342857D01*
X150077619Y-103961904D02*
X150030000Y-103914285D01*
X149982380Y-103819047D01*
X149982380Y-103580952D01*
X150030000Y-103485714D01*
X150077619Y-103438095D01*
X150172857Y-103390476D01*
X150268095Y-103390476D01*
X150410952Y-103438095D01*
X150982380Y-104009523D01*
X150982380Y-103390476D01*
X150077619Y-103009523D02*
X150030000Y-102961904D01*
X149982380Y-102866666D01*
X149982380Y-102628571D01*
X150030000Y-102533333D01*
X150077619Y-102485714D01*
X150172857Y-102438095D01*
X150268095Y-102438095D01*
X150410952Y-102485714D01*
X150982380Y-103057142D01*
X150982380Y-102438095D01*
X140228065Y-143432958D02*
X140795569Y-143307229D01*
X140446741Y-142905027D02*
X141370621Y-143287711D01*
X141224836Y-143639665D01*
X141144396Y-143709430D01*
X141082179Y-143735201D01*
X140975967Y-143742750D01*
X140843984Y-143688081D01*
X140774219Y-143607640D01*
X140748448Y-143545423D01*
X140740899Y-143439211D01*
X140886684Y-143087257D01*
X140918172Y-144131150D02*
X140943943Y-144193367D01*
X140951491Y-144299579D01*
X140860376Y-144519550D01*
X140779936Y-144589315D01*
X140717718Y-144615087D01*
X140611507Y-144622635D01*
X140523518Y-144586189D01*
X140409759Y-144487526D01*
X140100504Y-143740918D01*
X139863604Y-144312844D01*
X140441247Y-145531418D02*
X140623477Y-145091475D01*
X140201757Y-144865251D01*
X140227528Y-144927468D01*
X140235077Y-145033680D01*
X140143961Y-145253651D01*
X140063521Y-145323417D01*
X140001304Y-145349188D01*
X139895092Y-145356736D01*
X139675121Y-145265621D01*
X139605355Y-145185181D01*
X139579584Y-145122963D01*
X139572036Y-145016752D01*
X139663151Y-144796780D01*
X139743591Y-144727015D01*
X139805809Y-144701244D01*
X182347619Y-97138095D02*
X181538095Y-97138095D01*
X181442857Y-97185714D01*
X181395238Y-97233333D01*
X181347619Y-97328571D01*
X181347619Y-97519047D01*
X181395238Y-97614285D01*
X181442857Y-97661904D01*
X181538095Y-97709523D01*
X182347619Y-97709523D01*
X181347619Y-98709523D02*
X181347619Y-98138095D01*
X181347619Y-98423809D02*
X182347619Y-98423809D01*
X182204761Y-98328571D01*
X182109523Y-98233333D01*
X182061904Y-98138095D01*
X107967041Y-93628065D02*
X108092770Y-94195569D01*
X108494972Y-93846741D02*
X108112288Y-94770621D01*
X107760334Y-94624836D01*
X107690569Y-94544396D01*
X107664798Y-94482179D01*
X107657249Y-94375967D01*
X107711918Y-94243984D01*
X107792359Y-94174219D01*
X107854576Y-94148448D01*
X107960788Y-94140899D01*
X108312742Y-94286684D01*
X107087155Y-93263604D02*
X107615087Y-93482281D01*
X107351121Y-93372942D02*
X106968438Y-94296822D01*
X107111095Y-94201285D01*
X107235530Y-94149743D01*
X107341741Y-94142195D01*
X106040136Y-93551510D02*
X106295259Y-92935590D01*
X106114324Y-93994579D02*
X106607640Y-93425780D01*
X106035715Y-93188881D01*
X170210030Y-124519167D02*
X170210030Y-124586511D01*
X170142686Y-124721198D01*
X170075343Y-124788541D01*
X169940656Y-124855885D01*
X169805969Y-124855885D01*
X169704954Y-124822213D01*
X169536595Y-124721198D01*
X169435580Y-124620183D01*
X169334564Y-124451824D01*
X169300893Y-124350809D01*
X169300893Y-124216122D01*
X169368236Y-124081435D01*
X169435580Y-124014091D01*
X169570267Y-123946748D01*
X169637610Y-123946748D01*
X170950809Y-123913076D02*
X170546748Y-124317137D01*
X170748778Y-124115106D02*
X170041671Y-123407999D01*
X170075343Y-123576358D01*
X170075343Y-123711045D01*
X170041671Y-123812061D01*
X170479404Y-122970267D02*
X170950809Y-122498862D01*
X171354870Y-123509015D01*
X126063956Y-66320803D02*
X125751574Y-66810993D01*
X126282632Y-66848735D02*
X125358752Y-67231418D01*
X125212968Y-66879464D01*
X125220517Y-66773252D01*
X125246288Y-66711035D01*
X125316053Y-66630595D01*
X125448036Y-66575926D01*
X125554248Y-66583474D01*
X125616465Y-66609245D01*
X125696905Y-66679011D01*
X125842689Y-67030965D01*
X125699495Y-65440918D02*
X125918172Y-65968849D01*
X125808833Y-65704884D02*
X124884954Y-66087567D01*
X125053383Y-66120887D01*
X125177817Y-66172429D01*
X125258258Y-66242195D01*
X124538717Y-65251676D02*
X124502271Y-65163688D01*
X124509819Y-65057476D01*
X124535590Y-64995259D01*
X124605355Y-64914818D01*
X124763110Y-64797932D01*
X124983081Y-64706817D01*
X125177281Y-64677919D01*
X125283492Y-64685467D01*
X125345710Y-64711239D01*
X125426150Y-64781004D01*
X125462596Y-64868993D01*
X125455048Y-64975204D01*
X125429277Y-65037421D01*
X125359511Y-65117862D01*
X125201757Y-65234748D01*
X124981786Y-65325863D01*
X124787586Y-65354761D01*
X124681374Y-65347213D01*
X124619157Y-65321442D01*
X124538717Y-65251676D01*
X113820803Y-124336043D02*
X114310993Y-124648425D01*
X114348735Y-124117367D02*
X114731418Y-125041247D01*
X114379464Y-125187031D01*
X114273252Y-125179482D01*
X114211035Y-125153711D01*
X114130595Y-125083946D01*
X114075926Y-124951963D01*
X114083474Y-124845751D01*
X114109245Y-124783534D01*
X114179011Y-124703094D01*
X114530965Y-124557310D01*
X113815087Y-125317718D02*
X113789315Y-125379936D01*
X113719550Y-125460376D01*
X113499579Y-125551491D01*
X113393367Y-125543943D01*
X113331150Y-125518172D01*
X113250709Y-125448406D01*
X113214263Y-125360418D01*
X113203589Y-125210212D01*
X113512844Y-124463604D01*
X112940918Y-124700504D01*
X112061033Y-125064964D02*
X112588964Y-124846288D01*
X112324998Y-124955626D02*
X112707682Y-125879505D01*
X112741001Y-125711077D01*
X112792544Y-125586642D01*
X112862309Y-125506202D01*
X123557142Y-107752380D02*
X123223809Y-107276190D01*
X122985714Y-107752380D02*
X122985714Y-106752380D01*
X123366666Y-106752380D01*
X123461904Y-106800000D01*
X123509523Y-106847619D01*
X123557142Y-106942857D01*
X123557142Y-107085714D01*
X123509523Y-107180952D01*
X123461904Y-107228571D01*
X123366666Y-107276190D01*
X122985714Y-107276190D01*
X124461904Y-106752380D02*
X123985714Y-106752380D01*
X123938095Y-107228571D01*
X123985714Y-107180952D01*
X124080952Y-107133333D01*
X124319047Y-107133333D01*
X124414285Y-107180952D01*
X124461904Y-107228571D01*
X124509523Y-107323809D01*
X124509523Y-107561904D01*
X124461904Y-107657142D01*
X124414285Y-107704761D01*
X124319047Y-107752380D01*
X124080952Y-107752380D01*
X123985714Y-107704761D01*
X123938095Y-107657142D01*
X125461904Y-107752380D02*
X124890476Y-107752380D01*
X125176190Y-107752380D02*
X125176190Y-106752380D01*
X125080952Y-106895238D01*
X124985714Y-106990476D01*
X124890476Y-107038095D01*
X114420803Y-125736043D02*
X114910993Y-126048425D01*
X114948735Y-125517367D02*
X115331418Y-126441247D01*
X114979464Y-126587031D01*
X114873252Y-126579482D01*
X114811035Y-126553711D01*
X114730595Y-126483946D01*
X114675926Y-126351963D01*
X114683474Y-126245751D01*
X114709245Y-126183534D01*
X114779011Y-126103094D01*
X115130965Y-125957310D01*
X113540918Y-126100504D02*
X114068849Y-125881827D01*
X113804884Y-125991166D02*
X114187567Y-126915045D01*
X114220887Y-126746616D01*
X114272429Y-126622182D01*
X114342195Y-126541741D01*
X113231663Y-126847111D02*
X113337875Y-126854659D01*
X113400092Y-126880431D01*
X113480532Y-126950196D01*
X113498755Y-126994190D01*
X113491207Y-127100402D01*
X113465436Y-127162619D01*
X113395670Y-127243059D01*
X113219693Y-127315951D01*
X113113482Y-127308403D01*
X113051264Y-127282632D01*
X112970824Y-127212867D01*
X112952601Y-127168872D01*
X112960149Y-127062661D01*
X112985921Y-127000443D01*
X113055686Y-126920003D01*
X113231663Y-126847111D01*
X113301429Y-126766671D01*
X113327200Y-126704453D01*
X113334748Y-126598242D01*
X113261856Y-126422265D01*
X113181416Y-126352499D01*
X113119198Y-126326728D01*
X113012987Y-126319180D01*
X112837010Y-126392072D01*
X112767244Y-126472512D01*
X112741473Y-126534730D01*
X112733925Y-126640941D01*
X112806817Y-126816918D01*
X112887257Y-126886684D01*
X112949475Y-126912455D01*
X113055686Y-126920003D01*
X172436043Y-138279196D02*
X172748425Y-137789006D01*
X172217367Y-137751264D02*
X173141247Y-137368581D01*
X173287031Y-137720535D01*
X173279482Y-137826747D01*
X173253711Y-137888964D01*
X173183946Y-137969404D01*
X173051963Y-138024073D01*
X172945751Y-138016525D01*
X172883534Y-137990754D01*
X172803094Y-137920988D01*
X172657310Y-137569034D01*
X173417718Y-138284912D02*
X173479936Y-138310684D01*
X173560376Y-138380449D01*
X173651491Y-138600420D01*
X173643943Y-138706632D01*
X173618172Y-138768849D01*
X173548406Y-138849290D01*
X173460418Y-138885736D01*
X173310212Y-138896410D01*
X172563604Y-138587155D01*
X172800504Y-139159081D01*
X172982734Y-139599024D02*
X173055626Y-139775001D01*
X173136066Y-139844766D01*
X173198284Y-139870537D01*
X173366712Y-139903857D01*
X173560912Y-139874959D01*
X173912867Y-139729175D01*
X173982632Y-139648735D01*
X174008403Y-139586517D01*
X174015951Y-139480306D01*
X173943059Y-139304329D01*
X173862619Y-139234563D01*
X173800402Y-139208792D01*
X173694190Y-139201244D01*
X173474219Y-139292359D01*
X173404453Y-139372799D01*
X173378682Y-139435016D01*
X173371134Y-139541228D01*
X173444026Y-139717205D01*
X173524466Y-139786970D01*
X173586684Y-139812742D01*
X173692895Y-139820290D01*
D12*
X145235000Y-59227064D02*
X145235000Y-58772936D01*
X143765000Y-59227064D02*
X143765000Y-58772936D01*
X127301367Y-122861920D02*
X127670834Y-123231387D01*
X126261920Y-123901367D02*
X126631387Y-124270834D01*
X126800000Y-101700000D02*
X124800000Y-101700000D01*
X126800000Y-98900000D02*
X126800000Y-101700000D01*
X124800000Y-101700000D02*
X124800000Y-98900000D01*
X124800000Y-98900000D02*
X126800000Y-98900000D01*
X117880282Y-73740835D02*
X117559165Y-73419718D01*
X116840835Y-74780282D02*
X116519718Y-74459165D01*
X161935000Y-101938748D02*
X161935000Y-102461252D01*
X160465000Y-101938748D02*
X160465000Y-102461252D01*
X184759165Y-127719718D02*
X185080282Y-128040835D01*
X183719718Y-128759165D02*
X184040835Y-129080282D01*
X163965945Y-143028507D02*
X163792158Y-142608948D01*
X162607842Y-143591052D02*
X162434055Y-143171493D01*
X166850000Y-109900000D02*
X167850000Y-109900000D01*
X164300000Y-114350000D02*
X167350000Y-114350000D01*
X170400000Y-114350000D02*
X167350000Y-114350000D01*
X163540000Y-115110000D02*
X171160000Y-115110000D01*
X169350000Y-109150000D02*
X169350000Y-109900000D01*
X165350000Y-109150000D02*
X163550000Y-109150000D01*
X171160000Y-109140000D02*
X163540000Y-109140000D01*
X165350000Y-109900000D02*
X165350000Y-109150000D01*
X164500000Y-108850000D02*
X163250000Y-108850000D01*
X166850000Y-109150000D02*
X166850000Y-109900000D01*
X163250000Y-108850000D02*
X163250000Y-110100000D01*
X167850000Y-109900000D02*
X167850000Y-109150000D01*
X163550000Y-109150000D02*
X163550000Y-109900000D01*
X167850000Y-109150000D02*
X166850000Y-109150000D01*
X171150000Y-109150000D02*
X169350000Y-109150000D01*
X171160000Y-115110000D02*
X171160000Y-109140000D01*
X163550000Y-109900000D02*
X165350000Y-109900000D01*
X171150000Y-111400000D02*
X170400000Y-111400000D01*
X171150000Y-109900000D02*
X171150000Y-109150000D01*
X170400000Y-111400000D02*
X170400000Y-114350000D01*
X164300000Y-111400000D02*
X164300000Y-114350000D01*
X169350000Y-109900000D02*
X171150000Y-109900000D01*
X163540000Y-109140000D02*
X163540000Y-115110000D01*
X163550000Y-111400000D02*
X164300000Y-111400000D01*
X180279028Y-90860093D02*
X180079075Y-90377362D01*
X178920925Y-91422638D02*
X178720972Y-90939907D01*
X139865000Y-112738748D02*
X139865000Y-113261252D01*
X141335000Y-112738748D02*
X141335000Y-113261252D01*
X124380282Y-136759165D02*
X124059165Y-137080282D01*
X123340835Y-135719718D02*
X123019718Y-136040835D01*
X138107842Y-143408948D02*
X137934055Y-143828507D01*
X139465945Y-143971493D02*
X139292158Y-144391052D01*
X109171493Y-116065945D02*
X109591052Y-115892158D01*
X108608948Y-114707842D02*
X109028507Y-114534055D01*
X112397369Y-91910932D02*
X111888400Y-93139692D01*
X112883377Y-90737605D02*
X115285464Y-91732582D01*
X114290487Y-94134669D02*
X116692574Y-95129646D01*
X116794402Y-81295557D02*
X121598576Y-83285510D01*
X116692574Y-95129646D02*
X121598576Y-83285510D01*
X115285464Y-91732582D02*
X114290487Y-94134669D01*
X112883377Y-90737605D02*
X116794402Y-81295557D01*
X111888400Y-93139692D02*
X113117160Y-93648661D01*
X180765000Y-103261252D02*
X180765000Y-102738748D01*
X182235000Y-103261252D02*
X182235000Y-102738748D01*
X131065945Y-63528507D02*
X130892158Y-63108948D01*
X129707842Y-64091052D02*
X129534055Y-63671493D01*
X161992158Y-60691052D02*
X162165945Y-60271493D01*
X160634055Y-60128507D02*
X160807842Y-59708948D01*
X183155619Y-81285662D02*
X181926859Y-81794631D01*
X178351445Y-83275616D02*
X183257447Y-95119751D01*
X181748509Y-84682725D02*
X180753532Y-82280639D01*
X183664588Y-82514421D02*
X183155619Y-81285662D01*
X180753532Y-82280639D02*
X178351445Y-83275616D01*
X184150596Y-83687748D02*
X188061620Y-93129797D01*
X184150596Y-83687748D02*
X181748509Y-84682725D01*
X188061620Y-93129797D02*
X183257447Y-95119751D01*
X158365000Y-101938748D02*
X158365000Y-102461252D01*
X159835000Y-101938748D02*
X159835000Y-102461252D01*
X147335000Y-145227064D02*
X147335000Y-144772936D01*
X145865000Y-145227064D02*
X145865000Y-144772936D01*
X154235000Y-144772936D02*
X154235000Y-145227064D01*
X152765000Y-144772936D02*
X152765000Y-145227064D01*
X177219718Y-68740835D02*
X177540835Y-68419718D01*
X178259165Y-69780282D02*
X178580282Y-69459165D01*
X169000684Y-73941279D02*
X178065793Y-83006388D01*
X170839161Y-72102802D02*
X169000684Y-73941279D01*
X172677639Y-70264324D02*
X171737187Y-71204776D01*
X172677639Y-73941279D02*
X170839161Y-72102802D01*
X181742748Y-79329433D02*
X178065793Y-83006388D01*
X174516117Y-72102802D02*
X181742748Y-79329433D01*
X174516117Y-72102802D02*
X172677639Y-73941279D01*
X173618091Y-71204776D02*
X172677639Y-70264324D01*
X158860308Y-63888400D02*
X158351339Y-65117160D01*
X160267418Y-67285464D02*
X157865331Y-66290487D01*
X170704443Y-68794402D02*
X168714490Y-73598576D01*
X161262395Y-64883377D02*
X160267418Y-67285464D01*
X161262395Y-64883377D02*
X170704443Y-68794402D01*
X156870354Y-68692574D02*
X168714490Y-73598576D01*
X160089068Y-64397369D02*
X158860308Y-63888400D01*
X157865331Y-66290487D02*
X156870354Y-68692574D01*
X119720972Y-113077407D02*
X119920925Y-113560138D01*
X121079075Y-112514862D02*
X121279028Y-112997593D01*
X122459165Y-68619718D02*
X122780282Y-68940835D01*
X121419718Y-69659165D02*
X121740835Y-69980282D01*
X179279075Y-115522638D02*
X179479028Y-115039907D01*
X177920972Y-114960093D02*
X178120925Y-114477362D01*
X163892158Y-61491052D02*
X164065945Y-61071493D01*
X162534055Y-60928507D02*
X162707842Y-60508948D01*
X154865000Y-144772936D02*
X154865000Y-145227064D01*
X156335000Y-144772936D02*
X156335000Y-145227064D01*
X111445000Y-95585000D02*
X116645000Y-95585000D01*
X116645000Y-108405000D02*
X116645000Y-95585000D01*
X114045000Y-105805000D02*
X114045000Y-108405000D01*
X111445000Y-105805000D02*
X114045000Y-105805000D01*
X111445000Y-108405000D02*
X112775000Y-108405000D01*
X111445000Y-105805000D02*
X111445000Y-95585000D01*
X111445000Y-107075000D02*
X111445000Y-108405000D01*
X114045000Y-108405000D02*
X116645000Y-108405000D01*
X122880282Y-135259165D02*
X122559165Y-135580282D01*
X121840835Y-134219718D02*
X121519718Y-134540835D01*
X151323752Y-69765000D02*
X150801248Y-69765000D01*
X151323752Y-71235000D02*
X150801248Y-71235000D01*
X141335000Y-117161252D02*
X141335000Y-116638748D01*
X139865000Y-117161252D02*
X139865000Y-116638748D01*
X172665010Y-81166957D02*
X172295543Y-80797490D01*
X173704457Y-80127510D02*
X173334990Y-79758043D01*
X170694437Y-135229490D02*
X170185468Y-134000730D01*
X168704483Y-130425316D02*
X156860348Y-135331318D01*
X168292351Y-136224467D02*
X158850302Y-140135491D01*
X168292351Y-136224467D02*
X167297374Y-133822380D01*
X167297374Y-133822380D02*
X169699460Y-132827403D01*
X158850302Y-140135491D02*
X156860348Y-135331318D01*
X169465678Y-135738459D02*
X170694437Y-135229490D01*
X169699460Y-132827403D02*
X168704483Y-130425316D01*
X147750000Y-122760000D02*
X147100000Y-122760000D01*
X147750000Y-119640000D02*
X148400000Y-119640000D01*
X147750000Y-119640000D02*
X147100000Y-119640000D01*
X147750000Y-122760000D02*
X149425000Y-122760000D01*
X154135000Y-58772936D02*
X154135000Y-59227064D01*
X152665000Y-58772936D02*
X152665000Y-59227064D01*
X148738748Y-134235000D02*
X149261252Y-134235000D01*
X148738748Y-132765000D02*
X149261252Y-132765000D01*
X115866219Y-120213643D02*
X118268306Y-119218666D01*
X118268306Y-119218666D02*
X119263283Y-121620752D01*
X115866219Y-120213643D02*
X111955195Y-110771594D01*
X116352227Y-121386970D02*
X116861196Y-122615729D01*
X119263283Y-121620752D02*
X121665370Y-120625775D01*
X116861196Y-122615729D02*
X118089956Y-122106760D01*
X121665370Y-120625775D02*
X116759368Y-108781640D01*
X111955195Y-110771594D02*
X116759368Y-108781640D01*
X109491052Y-88207842D02*
X109071493Y-88034055D01*
X108928507Y-89565945D02*
X108508948Y-89392158D01*
X178580282Y-134340835D02*
X178259165Y-134019718D01*
X177540835Y-135380282D02*
X177219718Y-135059165D01*
X191171493Y-114434055D02*
X191591052Y-114607842D01*
X190608948Y-115792158D02*
X191028507Y-115965945D01*
X116519718Y-129640835D02*
X116840835Y-129319718D01*
X117559165Y-130680282D02*
X117880282Y-130359165D01*
X182540835Y-73512611D02*
X182219718Y-73833728D01*
X183580282Y-74552058D02*
X183259165Y-74873175D01*
X147140000Y-89800000D02*
X147140000Y-89150000D01*
X150260000Y-89800000D02*
X150260000Y-88125000D01*
X147140000Y-89800000D02*
X147140000Y-90450000D01*
X150260000Y-89800000D02*
X150260000Y-90450000D01*
X145865000Y-59227064D02*
X145865000Y-58772936D01*
X147335000Y-59227064D02*
X147335000Y-58772936D01*
X137039907Y-129920972D02*
X137522638Y-130120925D01*
X136477362Y-131279075D02*
X136960093Y-131479028D01*
X163522638Y-72758425D02*
X163039907Y-72558472D01*
X162960093Y-74116528D02*
X162477362Y-73916575D01*
X121272936Y-110235000D02*
X121727064Y-110235000D01*
X121272936Y-108765000D02*
X121727064Y-108765000D01*
X152215000Y-121527064D02*
X152215000Y-121072936D01*
X153685000Y-121527064D02*
X153685000Y-121072936D01*
X176859165Y-68380282D02*
X177180282Y-68059165D01*
X175819718Y-67340835D02*
X176140835Y-67019718D01*
X129634055Y-140228507D02*
X129807842Y-139808948D01*
X130992158Y-140791052D02*
X131165945Y-140371493D01*
X129735000Y-106705000D02*
X133265000Y-106705000D01*
X133265000Y-106640000D02*
X133265000Y-106705000D01*
X129735000Y-97695000D02*
X129735000Y-97760000D01*
X129735000Y-97695000D02*
X133265000Y-97695000D01*
X133265000Y-97695000D02*
X133265000Y-97760000D01*
X128410000Y-97760000D02*
X129735000Y-97760000D01*
X129735000Y-106640000D02*
X129735000Y-106705000D01*
X131302209Y-73618716D02*
X143146344Y-68712714D01*
X130307232Y-71216629D02*
X131302209Y-73618716D01*
X129312255Y-68814542D02*
X129821224Y-70043302D01*
X131714341Y-67819565D02*
X141156390Y-63908541D01*
X131714341Y-67819565D02*
X132709318Y-70221652D01*
X141156390Y-63908541D02*
X143146344Y-68712714D01*
X130541014Y-68305573D02*
X129312255Y-68814542D01*
X132709318Y-70221652D02*
X130307232Y-71216629D01*
X152935000Y-100938748D02*
X152935000Y-101461252D01*
X151465000Y-100938748D02*
X151465000Y-101461252D01*
X128165010Y-78295543D02*
X127795543Y-78665010D01*
X129204457Y-79334990D02*
X128834990Y-79704457D01*
X188304627Y-122583262D02*
X187885068Y-122409475D01*
X188867172Y-121225159D02*
X188447613Y-121051372D01*
X147250000Y-114950000D02*
X152950000Y-114950000D01*
X147250000Y-119250000D02*
X152950000Y-119250000D01*
X147250000Y-114950000D02*
X147250000Y-119250000D01*
X191491052Y-89392158D02*
X191071493Y-89565945D01*
X190928507Y-88034055D02*
X190508948Y-88207842D01*
X146195000Y-63445000D02*
X146195000Y-66045000D01*
X156415000Y-63445000D02*
X156415000Y-68645000D01*
X143595000Y-66045000D02*
X143595000Y-68645000D01*
X144925000Y-63445000D02*
X143595000Y-63445000D01*
X146195000Y-66045000D02*
X143595000Y-66045000D01*
X143595000Y-68645000D02*
X156415000Y-68645000D01*
X146195000Y-63445000D02*
X156415000Y-63445000D01*
X143595000Y-63445000D02*
X143595000Y-64775000D01*
X151585000Y-122100000D02*
X151585000Y-119815000D01*
X150115000Y-119815000D02*
X150115000Y-122100000D01*
X151585000Y-119815000D02*
X150115000Y-119815000D01*
X192672936Y-97865000D02*
X193127064Y-97865000D01*
X192672936Y-99335000D02*
X193127064Y-99335000D01*
X153805000Y-138005000D02*
X156405000Y-138005000D01*
X153805000Y-140605000D02*
X143585000Y-140605000D01*
X153805000Y-140605000D02*
X153805000Y-138005000D01*
X156405000Y-140605000D02*
X156405000Y-139275000D01*
X155075000Y-140605000D02*
X156405000Y-140605000D01*
X143585000Y-140605000D02*
X143585000Y-135405000D01*
X156405000Y-135405000D02*
X143585000Y-135405000D01*
X156405000Y-138005000D02*
X156405000Y-135405000D01*
X129134529Y-132030580D02*
X130973006Y-130192103D01*
X126355599Y-132928606D02*
X127296051Y-133869058D01*
X125457573Y-132030580D02*
X118230942Y-124803949D01*
X127296051Y-130192103D02*
X129134529Y-132030580D01*
X130973006Y-130192103D02*
X121907897Y-121126994D01*
X127296051Y-133869058D02*
X128236503Y-132928606D01*
X125457573Y-132030580D02*
X127296051Y-130192103D01*
X118230942Y-124803949D02*
X121907897Y-121126994D01*
X150750000Y-81200000D02*
X152550000Y-81200000D01*
X148250000Y-80450000D02*
X148250000Y-81200000D01*
X152550000Y-82700000D02*
X151800000Y-82700000D01*
X144940000Y-80440000D02*
X144940000Y-86410000D01*
X145700000Y-82700000D02*
X145700000Y-85650000D01*
X152560000Y-86410000D02*
X152560000Y-80440000D01*
X151800000Y-85650000D02*
X148750000Y-85650000D01*
X145700000Y-85650000D02*
X148750000Y-85650000D01*
X151800000Y-82700000D02*
X151800000Y-85650000D01*
X148250000Y-81200000D02*
X149250000Y-81200000D01*
X144650000Y-80150000D02*
X144650000Y-81400000D01*
X152560000Y-80440000D02*
X144940000Y-80440000D01*
X145900000Y-80150000D02*
X144650000Y-80150000D01*
X144940000Y-86410000D02*
X152560000Y-86410000D01*
X146750000Y-80450000D02*
X144950000Y-80450000D01*
X144950000Y-82700000D02*
X145700000Y-82700000D01*
X152550000Y-80450000D02*
X150750000Y-80450000D01*
X149250000Y-80450000D02*
X148250000Y-80450000D01*
X144950000Y-81200000D02*
X146750000Y-81200000D01*
X149250000Y-81200000D02*
X149250000Y-80450000D01*
X152550000Y-81200000D02*
X152550000Y-80450000D01*
X150750000Y-80450000D02*
X150750000Y-81200000D01*
X146750000Y-81200000D02*
X146750000Y-80450000D01*
X144950000Y-80450000D02*
X144950000Y-81200000D01*
X182219718Y-130259165D02*
X182540835Y-130580282D01*
X183259165Y-129219718D02*
X183580282Y-129540835D01*
X107227064Y-104765000D02*
X106772936Y-104765000D01*
X107227064Y-106235000D02*
X106772936Y-106235000D01*
X122116528Y-89039907D02*
X121916575Y-89522638D01*
X120758425Y-88477362D02*
X120558472Y-88960093D01*
X172192158Y-139108948D02*
X172365945Y-139528507D01*
X170834055Y-139671493D02*
X171007842Y-140091052D01*
X192672936Y-104865000D02*
X193127064Y-104865000D01*
X192672936Y-106335000D02*
X193127064Y-106335000D01*
X119235000Y-100738748D02*
X119235000Y-101261252D01*
X117765000Y-100738748D02*
X117765000Y-101261252D01*
X142370000Y-113645000D02*
X142370000Y-118785000D01*
X142370000Y-111045000D02*
X143700000Y-111045000D01*
X142370000Y-113645000D02*
X145030000Y-113645000D01*
X142370000Y-112375000D02*
X142370000Y-111045000D01*
X142370000Y-118785000D02*
X145030000Y-118785000D01*
X145030000Y-113645000D02*
X145030000Y-118785000D01*
X116380282Y-75240835D02*
X116059165Y-74919718D01*
X115340835Y-76280282D02*
X115019718Y-75959165D01*
X135934055Y-61071493D02*
X136107842Y-61491052D01*
X137292158Y-60508948D02*
X137465945Y-60928507D01*
X149947936Y-114422000D02*
X152752064Y-114422000D01*
X149942872Y-110166400D02*
X152747000Y-110166400D01*
X138860093Y-71758472D02*
X138377362Y-71958425D01*
X139422638Y-73116575D02*
X138939907Y-73316528D01*
X188371493Y-83065945D02*
X188791052Y-82892158D01*
X187808948Y-81707842D02*
X188228507Y-81534055D01*
X187571493Y-81165945D02*
X187991052Y-80992158D01*
X187008948Y-79807842D02*
X187428507Y-79634055D01*
X121841279Y-79222362D02*
X120002802Y-81060840D01*
X120002802Y-77383884D02*
X127229433Y-70157253D01*
X121841279Y-82899317D02*
X130906388Y-73834208D01*
X119104776Y-78281910D02*
X118164324Y-79222362D01*
X118164324Y-79222362D02*
X119104776Y-80162814D01*
X127229433Y-70157253D02*
X130906388Y-73834208D01*
X120002802Y-77383884D02*
X121841279Y-79222362D01*
X120002802Y-81060840D02*
X121841279Y-82899317D01*
X191408948Y-113892158D02*
X191828507Y-114065945D01*
X191971493Y-112534055D02*
X192391052Y-112707842D01*
X170465945Y-63671493D02*
X170292158Y-64091052D01*
X169107842Y-63108948D02*
X168934055Y-63528507D01*
X107227064Y-106865000D02*
X106772936Y-106865000D01*
X107227064Y-108335000D02*
X106772936Y-108335000D01*
X138754303Y-139096483D02*
X129312255Y-135185458D01*
X143146344Y-135287286D02*
X131302208Y-130381284D01*
X141156390Y-140091460D02*
X141665359Y-138862700D01*
X138754303Y-139096483D02*
X139749280Y-136694396D01*
X139927630Y-139582491D02*
X141156390Y-140091460D01*
X139749280Y-136694396D02*
X142151367Y-137689373D01*
X142151367Y-137689373D02*
X143146344Y-135287286D01*
X129312255Y-135185458D02*
X131302208Y-130381284D01*
X178092103Y-121126994D02*
X169026994Y-130192103D01*
X179930580Y-126642427D02*
X172703949Y-133869058D01*
X181769058Y-124803949D02*
X180828606Y-123863497D01*
X179930580Y-126642427D02*
X178092103Y-124803949D01*
X180828606Y-125744401D02*
X181769058Y-124803949D01*
X172703949Y-133869058D02*
X169026994Y-130192103D01*
X179930580Y-122965471D02*
X178092103Y-121126994D01*
X178092103Y-124803949D02*
X179930580Y-122965471D01*
X106772936Y-99235000D02*
X107227064Y-99235000D01*
X106772936Y-97765000D02*
X107227064Y-97765000D01*
X187062817Y-113281530D02*
X184660730Y-112286553D01*
X183253620Y-108889489D02*
X178347618Y-120733625D01*
X185655707Y-109884466D02*
X183253620Y-108889489D01*
X187062817Y-113281530D02*
X183151792Y-122723578D01*
X183151792Y-122723578D02*
X178347618Y-120733625D01*
X187548825Y-112108203D02*
X188057794Y-110879443D01*
X188057794Y-110879443D02*
X186829034Y-110370474D01*
X184660730Y-112286553D02*
X185655707Y-109884466D01*
X161139907Y-132279028D02*
X161622638Y-132079075D01*
X160577362Y-130920925D02*
X161060093Y-130720972D01*
X111108948Y-82992158D02*
X111528507Y-83165945D01*
X111671493Y-81634055D02*
X112091052Y-81807842D01*
X192672936Y-95865000D02*
X193127064Y-95865000D01*
X192672936Y-97335000D02*
X193127064Y-97335000D01*
X148115000Y-103438748D02*
X148115000Y-103961252D01*
X149585000Y-103438748D02*
X149585000Y-103961252D01*
X136207842Y-142608948D02*
X136034055Y-143028507D01*
X137565945Y-143171493D02*
X137392158Y-143591052D01*
X188530000Y-98190000D02*
X188530000Y-108410000D01*
X185930000Y-95590000D02*
X183330000Y-95590000D01*
X188530000Y-108410000D02*
X183330000Y-108410000D01*
X183330000Y-95590000D02*
X183330000Y-108410000D01*
X188530000Y-95590000D02*
X187200000Y-95590000D01*
X188530000Y-98190000D02*
X185930000Y-98190000D01*
X188530000Y-96920000D02*
X188530000Y-95590000D01*
X185930000Y-98190000D02*
X185930000Y-95590000D01*
X108128507Y-91465945D02*
X107708948Y-91292158D01*
X108691052Y-90107842D02*
X108271493Y-89934055D01*
X171934990Y-125704457D02*
X172304457Y-125334990D01*
X170895543Y-124665010D02*
X171265010Y-124295543D01*
X127807842Y-64891052D02*
X127634055Y-64471493D01*
X129165945Y-64328507D02*
X128992158Y-63908948D01*
X111628507Y-120934055D02*
X111208948Y-121107842D01*
X112191052Y-122292158D02*
X111771493Y-122465945D01*
X121127064Y-106565000D02*
X120672936Y-106565000D01*
X121127064Y-108035000D02*
X120672936Y-108035000D01*
X112428507Y-122834055D02*
X112008948Y-123007842D01*
X112991052Y-124192158D02*
X112571493Y-124365945D01*
X170292158Y-139908948D02*
X170465945Y-140328507D01*
X168934055Y-140471493D02*
X169107842Y-140891052D01*
%LPC*%
D13*
X144500000Y-60000000D03*
X144500000Y-58000000D03*
D14*
X126232754Y-122832754D03*
X127700000Y-124300000D03*
D15*
X125800000Y-101025000D03*
D16*
X125800000Y-99575000D03*
D17*
X117907107Y-74807107D03*
X116492893Y-73392893D03*
D18*
X161200000Y-101162500D03*
X161200000Y-103237500D03*
D19*
X183692893Y-127692893D03*
X185107107Y-129107107D03*
D20*
X163582683Y-144023880D03*
X162817317Y-142176120D03*
D21*
X166100000Y-111600000D03*
D22*
X168600000Y-111600000D03*
D23*
X179897034Y-91858525D03*
X179102966Y-89941475D03*
D18*
X140600000Y-111962500D03*
X140600000Y-114037500D03*
D24*
X124407107Y-135692893D03*
X122992893Y-137107107D03*
D25*
X139082683Y-142976120D03*
X138317317Y-144823880D03*
D26*
X108176120Y-115682683D03*
X110023880Y-114917317D03*
D27*
X113626129Y-92419901D03*
D28*
X115972783Y-93391917D03*
X114598145Y-90073247D03*
X116944799Y-91045263D03*
X115570161Y-87726593D03*
X117916815Y-88698609D03*
X116542177Y-85379939D03*
X118888831Y-86351955D03*
X117514193Y-83033285D03*
X119860847Y-84005301D03*
D29*
X181500000Y-104037500D03*
X181500000Y-101962500D03*
D20*
X130682683Y-64523880D03*
X129917317Y-62676120D03*
D30*
X161017317Y-61123880D03*
X161782683Y-59276120D03*
D31*
X182435828Y-83023390D03*
D32*
X180089174Y-83995406D03*
X183407844Y-85370044D03*
X181061190Y-86342060D03*
X184379860Y-87716698D03*
X182033206Y-88688714D03*
X185351876Y-90063352D03*
X183005222Y-91035368D03*
X186323892Y-92410006D03*
X183977237Y-93382022D03*
D18*
X159100000Y-101162500D03*
X159100000Y-103237500D03*
D13*
X146600000Y-146000000D03*
X146600000Y-144000000D03*
D33*
X153500000Y-144000000D03*
X153500000Y-146000000D03*
D34*
X132850000Y-119150000D03*
D35*
X177192893Y-69807107D03*
X178607107Y-68392893D03*
D36*
X172677639Y-72145228D03*
D37*
X170881588Y-73941279D03*
X174473690Y-73941279D03*
X172677639Y-75737330D03*
X176269741Y-75737330D03*
X174473690Y-77533382D03*
X178065793Y-77533382D03*
X176269741Y-79329433D03*
X179861844Y-79329433D03*
X178065793Y-81125484D03*
D38*
X159580099Y-65626129D03*
D39*
X158608083Y-67972783D03*
X161926753Y-66598145D03*
X160954737Y-68944799D03*
X164273407Y-67570161D03*
X163301391Y-69916815D03*
X166620061Y-68542177D03*
X165648045Y-70888831D03*
X168966715Y-69514193D03*
X167994699Y-71860847D03*
D40*
X120102966Y-112078975D03*
X120897034Y-113996025D03*
D34*
X167150000Y-119150000D03*
D19*
X121392893Y-68592893D03*
X122807107Y-70007107D03*
D41*
X178302966Y-115958525D03*
X179097034Y-114041475D03*
D30*
X162917317Y-61923880D03*
X163682683Y-60076120D03*
D33*
X155600000Y-144000000D03*
X155600000Y-146000000D03*
D42*
X112775000Y-107075000D03*
D43*
X115315000Y-107075000D03*
X112775000Y-104535000D03*
X115315000Y-104535000D03*
X112775000Y-101995000D03*
X115315000Y-101995000D03*
X112775000Y-99455000D03*
X115315000Y-99455000D03*
X112775000Y-96915000D03*
X115315000Y-96915000D03*
D24*
X122907107Y-134192893D03*
X121492893Y-135607107D03*
D44*
X152100000Y-70500000D03*
X150025000Y-70500000D03*
D29*
X140600000Y-117937500D03*
X140600000Y-115862500D03*
D45*
X173733623Y-81196123D03*
X172266377Y-79728877D03*
D46*
X168956709Y-134509699D03*
D47*
X167984693Y-132163045D03*
X166610055Y-135481715D03*
X165638039Y-133135061D03*
X164263401Y-136453731D03*
X163291385Y-134107077D03*
X161916747Y-137425747D03*
X160944731Y-135079093D03*
X159570093Y-138397763D03*
X158598077Y-136051108D03*
D48*
X148687500Y-122150000D03*
X148687500Y-120250000D03*
X146812500Y-121200000D03*
D33*
X153400000Y-58000000D03*
X153400000Y-60000000D03*
D49*
X147962500Y-133500000D03*
X150037500Y-133500000D03*
D50*
X117580987Y-120878001D03*
D51*
X119927641Y-119905985D03*
X116608971Y-118531347D03*
X118955625Y-117559331D03*
X115636955Y-116184693D03*
X117983609Y-115212677D03*
X114664939Y-113838039D03*
X117011593Y-112866023D03*
X113692923Y-111491385D03*
X116039578Y-110519369D03*
D52*
X109923880Y-89182683D03*
X108076120Y-88417317D03*
D17*
X178607107Y-135407107D03*
X177192893Y-133992893D03*
D53*
X190176120Y-114817317D03*
X192023880Y-115582683D03*
D35*
X116492893Y-130707107D03*
X117907107Y-129292893D03*
D24*
X183607107Y-73485786D03*
X182192893Y-74900000D03*
D54*
X149650000Y-88862500D03*
X147750000Y-88862500D03*
X148700000Y-90737500D03*
D13*
X146600000Y-60000000D03*
X146600000Y-58000000D03*
D55*
X136041475Y-130302966D03*
X137958525Y-131097034D03*
D56*
X163958525Y-73734534D03*
X162041475Y-72940466D03*
D57*
X120587500Y-109500000D03*
X122412500Y-109500000D03*
D13*
X152950000Y-122300000D03*
X152950000Y-120300000D03*
D35*
X175792893Y-68407107D03*
X177207107Y-66992893D03*
D30*
X130017317Y-141223880D03*
X130782683Y-139376120D03*
D58*
X129550000Y-98390000D03*
X133450000Y-98390000D03*
X129550000Y-99660000D03*
X133450000Y-99660000D03*
X129550000Y-100930000D03*
X133450000Y-100930000D03*
X129550000Y-102200000D03*
X133450000Y-102200000D03*
X129550000Y-103470000D03*
X133450000Y-103470000D03*
X129550000Y-104740000D03*
X133450000Y-104740000D03*
X129550000Y-106010000D03*
X133450000Y-106010000D03*
D59*
X131049983Y-69534333D03*
D60*
X132021999Y-71880987D03*
X133396637Y-68562317D03*
X134368653Y-70908971D03*
X135743291Y-67590301D03*
X136715307Y-69936955D03*
X138089945Y-66618285D03*
X139061961Y-68964939D03*
X140436599Y-65646269D03*
X141408615Y-67992924D03*
D18*
X152200000Y-100162500D03*
X152200000Y-102237500D03*
D61*
X129233623Y-78266377D03*
X127766377Y-79733623D03*
D52*
X189300000Y-122200000D03*
X187452240Y-121434634D03*
D62*
X148650000Y-117100000D03*
X152950000Y-117100000D03*
D63*
X191923880Y-88417317D03*
X190076120Y-89182683D03*
D42*
X144925000Y-64775000D03*
D43*
X144925000Y-67315000D03*
X147465000Y-64775000D03*
X147465000Y-67315000D03*
X150005000Y-64775000D03*
X150005000Y-67315000D03*
X152545000Y-64775000D03*
X152545000Y-67315000D03*
X155085000Y-64775000D03*
X155085000Y-67315000D03*
D64*
X150850000Y-120512500D03*
X150850000Y-122087500D03*
D65*
X191900000Y-98600000D03*
X193900000Y-98600000D03*
D42*
X155075000Y-139275000D03*
D43*
X155075000Y-136735000D03*
X152535000Y-139275000D03*
X152535000Y-136735000D03*
X149995000Y-139275000D03*
X149995000Y-136735000D03*
X147455000Y-139275000D03*
X147455000Y-136735000D03*
X144915000Y-139275000D03*
X144915000Y-136735000D03*
D66*
X127296051Y-131988154D03*
D67*
X129092102Y-130192103D03*
X125500000Y-130192103D03*
X127296051Y-128396052D03*
X123703949Y-128396052D03*
X125500000Y-126600000D03*
X121907897Y-126600000D03*
X123703949Y-124803949D03*
X120111846Y-124803949D03*
X121907897Y-123007898D03*
D21*
X147500000Y-82900000D03*
D22*
X150000000Y-82900000D03*
D19*
X182192893Y-129192893D03*
X183607107Y-130607107D03*
D68*
X108000000Y-105500000D03*
X106000000Y-105500000D03*
D69*
X121734534Y-88041475D03*
X120940466Y-89958525D03*
D34*
X132860000Y-84850000D03*
D70*
X171217317Y-138676120D03*
X171982683Y-140523880D03*
D65*
X191900000Y-105600000D03*
X193900000Y-105600000D03*
D18*
X118500000Y-99962500D03*
X118500000Y-102037500D03*
D42*
X143700000Y-112375000D03*
D43*
X143700000Y-114915000D03*
X143700000Y-117455000D03*
D17*
X116407107Y-76307107D03*
X114992893Y-74892893D03*
D70*
X136317317Y-60076120D03*
X137082683Y-61923880D03*
D71*
X149100000Y-112300000D03*
X153600000Y-112300000D03*
D72*
X139858525Y-72140466D03*
X137941475Y-72934534D03*
D26*
X187376120Y-82682683D03*
X189223880Y-81917317D03*
X186576120Y-80782683D03*
X188423880Y-80017317D03*
D73*
X120045228Y-79222362D03*
D74*
X121841279Y-81018413D03*
X121841279Y-77426311D03*
X123637330Y-79222362D03*
X123637330Y-75630260D03*
X125433382Y-77426311D03*
X125433382Y-73834208D03*
X127229433Y-75630260D03*
X127229433Y-72038157D03*
X129025484Y-73834208D03*
D53*
X190976120Y-112917317D03*
X192823880Y-113682683D03*
D25*
X170082683Y-62676120D03*
X169317317Y-64523880D03*
D68*
X108000000Y-107600000D03*
X106000000Y-107600000D03*
D75*
X140436599Y-138353731D03*
D76*
X141408615Y-136007077D03*
X138089945Y-137381715D03*
X139061961Y-135035061D03*
X135743291Y-136409699D03*
X136715307Y-134063045D03*
X133396637Y-135437683D03*
X134368653Y-133091029D03*
X131049983Y-134465667D03*
X132021999Y-132119013D03*
D77*
X179888154Y-124803949D03*
D78*
X178092103Y-123007898D03*
X178092103Y-126600000D03*
X176296052Y-124803949D03*
X176296052Y-128396051D03*
X174500000Y-126600000D03*
X174500000Y-130192103D03*
X172703949Y-128396051D03*
X172703949Y-131988154D03*
X170907898Y-130192103D03*
D65*
X106000000Y-98500000D03*
X108000000Y-98500000D03*
D79*
X186320065Y-111599234D03*
D80*
X183973411Y-110627218D03*
X185348049Y-113945888D03*
X183001395Y-112973872D03*
X184376033Y-116292542D03*
X182029379Y-115320526D03*
X183404017Y-118639196D03*
X181057363Y-117667180D03*
X182432001Y-120985850D03*
X180085347Y-120013834D03*
D81*
X160141475Y-131897034D03*
X162058525Y-131102966D03*
D53*
X110676120Y-82017317D03*
X112523880Y-82782683D03*
D65*
X191900000Y-96600000D03*
X193900000Y-96600000D03*
D18*
X148850000Y-102662500D03*
X148850000Y-104737500D03*
D25*
X137182683Y-142176120D03*
X136417317Y-144023880D03*
D42*
X187200000Y-96920000D03*
D43*
X184660000Y-96920000D03*
X187200000Y-99460000D03*
X184660000Y-99460000D03*
X187200000Y-102000000D03*
X184660000Y-102000000D03*
X187200000Y-104540000D03*
X184660000Y-104540000D03*
X187200000Y-107080000D03*
X184660000Y-107080000D03*
D52*
X109123880Y-91082683D03*
X107276120Y-90317317D03*
D82*
X170866377Y-125733623D03*
X172333623Y-124266377D03*
D20*
X128782683Y-65323880D03*
X128017317Y-63476120D03*
D63*
X112623880Y-121317317D03*
X110776120Y-122082683D03*
D83*
X121812500Y-107300000D03*
X119987500Y-107300000D03*
D34*
X167150000Y-84850000D03*
D63*
X113423880Y-123217317D03*
X111576120Y-123982683D03*
D70*
X169317317Y-139476120D03*
X170082683Y-141323880D03*
D84*
X118700000Y-133400000D03*
D85*
X120496051Y-131603949D03*
D86*
X150000000Y-146275000D03*
D85*
X150000000Y-143735000D03*
D86*
X150000000Y-57625000D03*
D85*
X150000000Y-60165000D03*
D86*
X194275000Y-102100000D03*
D85*
X191735000Y-102100000D03*
D87*
X109075000Y-85027984D03*
D85*
X111421654Y-86000000D03*
D88*
X166925000Y-142900000D03*
D85*
X165952984Y-140553346D03*
D89*
X118675000Y-70698439D03*
D85*
X120471051Y-72494490D03*
D90*
X190900000Y-119000000D03*
D85*
X188553346Y-118027984D03*
D91*
X181375000Y-70700000D03*
D85*
X179578949Y-72496051D03*
D92*
X133000000Y-61100000D03*
D85*
X133972016Y-63446654D03*
D93*
X190975000Y-85100000D03*
D85*
X188628346Y-86072016D03*
D94*
X133000000Y-142900000D03*
D85*
X133972016Y-140553346D03*
D95*
X167000000Y-61100000D03*
D85*
X166027984Y-63446654D03*
D86*
X105725000Y-102000000D03*
D85*
X108265000Y-102000000D03*
D96*
X109125000Y-119000000D03*
D85*
X111471654Y-118027984D03*
D97*
X181325000Y-133296051D03*
D85*
X179528949Y-131500000D03*
M02*
