M48
; DRILL file {KiCad (6.0.8)} date Thu Nov 17 17:00:38 2022
; FORMAT={-:-/ absolute / metric / decimal}
; #@! TF.CreationDate,2022-11-17T17:00:38+01:00
; #@! TF.GenerationSoftware,Kicad,Pcbnew,(6.0.8)
; #@! TF.FileFunction,Plated,1,2,PTH
FMAT,2
METRIC
; #@! TA.AperFunction,Plated,PTH,ViaDrill
T1C0.400
; #@! TA.AperFunction,Plated,PTH,ComponentDrill
T2C0.900
; #@! TA.AperFunction,Plated,PTH,ComponentDrill
T3C1.000
; #@! TA.AperFunction,Plated,PTH,ComponentDrill
T4C4.300
%
G90
G05
T1
X109.5Y-98.5
X111.6Y-114.3
X113.9Y-83.3
X119.1Y-128.1
X120.6Y-104.1
X121.8Y-103.6
X121.8Y-105.3
X122.6Y-91.2
X123.1Y-93.1
X123.4Y-114.7
X123.6Y-100.5
X123.9Y-71.1
X124.4Y-114.1
X125.4Y-107.3
X126.3Y-112.4
X126.8Y-96.6
X130.2Y-90.9
X130.9Y-79.6
X131.0Y-124.5
X131.3Y-138.1
X131.6Y-80.5
X132.7Y-124.4
X136.0Y-90.7
X136.7Y-102.1
X137.0Y-76.8
X137.7Y-63.3
X138.35Y-74.95
X139.1Y-77.7
X139.9Y-92.7
X140.6Y-121.4
X140.7Y-126.8
X140.7Y-129.9
X142.1Y-79.5
X142.4Y-129.3
X142.5Y-94.8
X142.8Y-82.0
X142.9Y-76.7
X143.8Y-121.4
X144.0Y-126.7
X146.1Y-98.8
X146.1Y-100.2
X146.6Y-142.5
X147.3Y-77.8
X147.75Y-91.8
X148.7Y-85.9
X148.7Y-125.0
X148.7Y-129.0
X148.9Y-92.5
X149.7Y-127.3
X149.8Y-77.8
X150.1Y-73.7
X150.9Y-72.6
X151.9Y-128.7
X152.3Y-131.4
X153.4Y-61.5
X153.7Y-103.8
X154.1Y-100.9
X154.1Y-102.3
X154.1Y-130.0
X155.1Y-76.3
X155.1Y-79.0
X155.1Y-82.2
X155.1Y-85.9
X155.9Y-127.4
X157.3Y-101.2
X158.6Y-75.1
X159.2Y-93.9
X160.1Y-126.1
X160.4Y-74.5
X161.6Y-89.3
X162.3Y-140.9
X162.4Y-128.6
X163.3Y-126.9
X163.8Y-93.3
X166.6Y-79.2
X166.8Y-102.3
X167.5Y-91.8
X168.7Y-65.9
X169.2Y-99.2
X169.4Y-80.0
X169.6Y-105.3
X172.2Y-121.3
X172.3Y-119.3
X172.9Y-100.4
X175.5Y-97.8
X176.1Y-91.2
X176.1Y-132.9
X177.0Y-110.3
X177.2Y-90.8
X177.6Y-112.1
X178.3Y-102.8
X179.4Y-103.4
X181.1Y-76.0
X186.0Y-120.9
X188.7Y-89.8
X190.4Y-105.6
T2
X105.725Y-102.0
X108.265Y-102.0
X109.075Y-85.028
X109.125Y-119.0
X111.422Y-86.0
X111.472Y-118.028
X118.675Y-70.698
X118.7Y-133.4
X120.471Y-72.494
X120.496Y-131.604
X133.0Y-61.1
X133.0Y-142.9
X133.972Y-63.447
X133.972Y-140.553
X150.0Y-57.625
X150.0Y-60.165
X150.0Y-143.735
X150.0Y-146.275
X165.953Y-140.553
X166.028Y-63.447
X166.925Y-142.9
X167.0Y-61.1
X179.529Y-131.5
X179.579Y-72.496
X181.325Y-133.296
X181.375Y-70.7
X188.553Y-118.028
X188.628Y-86.072
X190.9Y-119.0
X190.975Y-85.1
X191.735Y-102.1
X194.275Y-102.1
T3
X112.775Y-96.915
X112.775Y-99.455
X112.775Y-101.995
X112.775Y-104.535
X112.775Y-107.075
X113.626Y-92.42
X113.693Y-111.491
X114.598Y-90.073
X114.665Y-113.838
X115.315Y-96.915
X115.315Y-99.455
X115.315Y-101.995
X115.315Y-104.535
X115.315Y-107.075
X115.57Y-87.727
X115.637Y-116.185
X115.973Y-93.392
X116.04Y-110.519
X116.542Y-85.38
X116.609Y-118.531
X116.945Y-91.045
X117.012Y-112.866
X117.514Y-83.033
X117.581Y-120.878
X117.917Y-88.699
X117.984Y-115.213
X118.889Y-86.352
X118.956Y-117.559
X119.861Y-84.005
X119.928Y-119.906
X120.045Y-79.222
X120.112Y-124.804
X121.841Y-77.426
X121.841Y-81.018
X121.908Y-123.008
X121.908Y-126.6
X123.637Y-75.63
X123.637Y-79.222
X123.704Y-124.804
X123.704Y-128.396
X125.433Y-73.834
X125.433Y-77.426
X125.5Y-126.6
X125.5Y-130.192
X127.229Y-72.038
X127.229Y-75.63
X127.296Y-128.396
X127.296Y-131.988
X129.025Y-73.834
X129.092Y-130.192
X131.05Y-69.534
X131.05Y-134.466
X132.022Y-71.881
X132.022Y-132.119
X133.397Y-68.562
X133.397Y-135.438
X134.369Y-70.909
X134.369Y-133.091
X135.743Y-67.59
X135.743Y-136.41
X136.715Y-69.937
X136.715Y-134.063
X138.09Y-66.618
X138.09Y-137.382
X139.062Y-68.965
X139.062Y-135.035
X140.437Y-65.646
X140.437Y-138.354
X141.409Y-67.993
X141.409Y-136.007
X143.7Y-112.375
X143.7Y-114.915
X143.7Y-117.455
X144.915Y-136.735
X144.915Y-139.275
X144.925Y-64.775
X144.925Y-67.315
X147.455Y-136.735
X147.455Y-139.275
X147.465Y-64.775
X147.465Y-67.315
X147.5Y-82.9
X149.995Y-136.735
X149.995Y-139.275
X150.0Y-82.9
X150.005Y-64.775
X150.005Y-67.315
X152.535Y-136.735
X152.535Y-139.275
X152.545Y-64.775
X152.545Y-67.315
X155.075Y-136.735
X155.075Y-139.275
X155.085Y-64.775
X155.085Y-67.315
X158.598Y-136.051
X158.608Y-67.973
X159.57Y-138.398
X159.58Y-65.626
X160.945Y-135.079
X160.955Y-68.945
X161.917Y-137.426
X161.927Y-66.598
X163.291Y-134.107
X163.301Y-69.917
X164.263Y-136.454
X164.273Y-67.57
X165.638Y-133.135
X165.648Y-70.889
X166.1Y-111.6
X166.61Y-135.482
X166.62Y-68.542
X167.985Y-132.163
X167.995Y-71.861
X168.6Y-111.6
X168.957Y-134.51
X168.967Y-69.514
X170.882Y-73.941
X170.908Y-130.192
X172.678Y-72.145
X172.678Y-75.737
X172.704Y-128.396
X172.704Y-131.988
X174.474Y-73.941
X174.474Y-77.533
X174.5Y-126.6
X174.5Y-130.192
X176.27Y-75.737
X176.27Y-79.329
X176.296Y-124.804
X176.296Y-128.396
X178.066Y-77.533
X178.066Y-81.125
X178.092Y-123.008
X178.092Y-126.6
X179.862Y-79.329
X179.888Y-124.804
X180.085Y-120.014
X180.089Y-83.995
X181.057Y-117.667
X181.061Y-86.342
X182.029Y-115.321
X182.033Y-88.689
X182.432Y-120.986
X182.436Y-83.023
X183.001Y-112.974
X183.005Y-91.035
X183.404Y-118.639
X183.408Y-85.37
X183.973Y-110.627
X183.977Y-93.382
X184.376Y-116.293
X184.38Y-87.717
X184.66Y-96.92
X184.66Y-99.46
X184.66Y-102.0
X184.66Y-104.54
X184.66Y-107.08
X185.348Y-113.946
X185.352Y-90.063
X186.32Y-111.599
X186.324Y-92.41
X187.2Y-96.92
X187.2Y-99.46
X187.2Y-102.0
X187.2Y-104.54
X187.2Y-107.08
T4
X132.85Y-119.15
X132.86Y-84.85
X167.15Y-84.85
X167.15Y-119.15
T0
M30
