G04 #@! TF.GenerationSoftware,KiCad,Pcbnew,(6.0.8)*
G04 #@! TF.CreationDate,2022-11-17T16:59:53+01:00*
G04 #@! TF.ProjectId,detection_pcb,64657465-6374-4696-9f6e-5f7063622e6b,rev?*
G04 #@! TF.SameCoordinates,Original*
G04 #@! TF.FileFunction,Soldermask,Bot*
G04 #@! TF.FilePolarity,Negative*
%FSLAX46Y46*%
G04 Gerber Fmt 4.6, Leading zero omitted, Abs format (unit mm)*
G04 Created by KiCad (PCBNEW (6.0.8)) date 2022-11-17 16:59:53*
%MOMM*%
%LPD*%
G01*
G04 APERTURE LIST*
G04 Aperture macros list*
%AMRoundRect*
0 Rectangle with rounded corners*
0 $1 Rounding radius*
0 $2 $3 $4 $5 $6 $7 $8 $9 X,Y pos of 4 corners*
0 Add a 4 corners polygon primitive as box body*
4,1,4,$2,$3,$4,$5,$6,$7,$8,$9,$2,$3,0*
0 Add four circle primitives for the rounded corners*
1,1,$1+$1,$2,$3*
1,1,$1+$1,$4,$5*
1,1,$1+$1,$6,$7*
1,1,$1+$1,$8,$9*
0 Add four rect primitives between the rounded corners*
20,1,$1+$1,$2,$3,$4,$5,0*
20,1,$1+$1,$4,$5,$6,$7,0*
20,1,$1+$1,$6,$7,$8,$9,0*
20,1,$1+$1,$8,$9,$2,$3,0*%
%AMHorizOval*
0 Thick line with rounded ends*
0 $1 width*
0 $2 $3 position (X,Y) of the first rounded end (center of the circle)*
0 $4 $5 position (X,Y) of the second rounded end (center of the circle)*
0 Add line between two ends*
20,1,$1,$2,$3,$4,$5,0*
0 Add two circle primitives to create the rounded ends*
1,1,$1,$2,$3*
1,1,$1,$4,$5*%
%AMRotRect*
0 Rectangle, with rotation*
0 The origin of the aperture is its center*
0 $1 length*
0 $2 width*
0 $3 Rotation angle, in degrees counterclockwise*
0 Add horizontal line*
21,1,$1,$2,0,0,$3*%
G04 Aperture macros list end*
%ADD10RoundRect,0.250000X-0.600000X-0.750000X0.600000X-0.750000X0.600000X0.750000X-0.600000X0.750000X0*%
%ADD11O,1.700000X2.000000*%
%ADD12RotRect,1.700000X1.700000X157.500000*%
%ADD13HorizOval,1.700000X0.000000X0.000000X0.000000X0.000000X0*%
%ADD14RotRect,1.700000X1.700000X22.500000*%
%ADD15HorizOval,1.700000X0.000000X0.000000X0.000000X0.000000X0*%
%ADD16C,6.000000*%
%ADD17RotRect,1.700000X1.700000X45.000000*%
%ADD18HorizOval,1.700000X0.000000X0.000000X0.000000X0.000000X0*%
%ADD19RotRect,1.700000X1.700000X67.500000*%
%ADD20HorizOval,1.700000X0.000000X0.000000X0.000000X0.000000X0*%
%ADD21R,1.700000X1.700000*%
%ADD22O,1.700000X1.700000*%
%ADD23RotRect,1.700000X1.700000X292.500000*%
%ADD24HorizOval,1.700000X0.000000X0.000000X0.000000X0.000000X0*%
%ADD25RotRect,1.700000X1.700000X202.500000*%
%ADD26HorizOval,1.700000X0.000000X0.000000X0.000000X0.000000X0*%
%ADD27RotRect,1.700000X1.700000X112.500000*%
%ADD28HorizOval,1.700000X0.000000X0.000000X0.000000X0.000000X0*%
%ADD29RotRect,1.700000X1.700000X225.000000*%
%ADD30HorizOval,1.700000X0.000000X0.000000X0.000000X0.000000X0*%
%ADD31RotRect,1.700000X1.700000X135.000000*%
%ADD32HorizOval,1.700000X0.000000X0.000000X0.000000X0.000000X0*%
%ADD33RotRect,1.700000X1.700000X247.500000*%
%ADD34HorizOval,1.700000X0.000000X0.000000X0.000000X0.000000X0*%
%ADD35RotRect,1.700000X1.700000X315.000000*%
%ADD36HorizOval,1.700000X0.000000X0.000000X0.000000X0.000000X0*%
%ADD37RotRect,1.700000X1.700000X337.500000*%
%ADD38HorizOval,1.700000X0.000000X0.000000X0.000000X0.000000X0*%
%ADD39RotRect,1.800000X1.800000X45.000000*%
%ADD40C,1.800000*%
%ADD41C,1.000000*%
%ADD42R,1.800000X1.800000*%
%ADD43RoundRect,0.237500X-0.382607X0.004224X0.083680X-0.373368X0.382607X-0.004224X-0.083680X0.373368X0*%
%ADD44RotRect,1.800000X1.800000X337.500000*%
%ADD45RotRect,1.800000X1.800000X112.500000*%
%ADD46RotRect,1.800000X1.800000X315.000000*%
%ADD47RotRect,1.800000X1.800000X157.500000*%
%ADD48RotRect,1.300000X1.000000X321.000000*%
%ADD49RotRect,1.800000X1.800000X225.000000*%
%ADD50RotRect,1.800000X1.800000X292.500000*%
%ADD51RoundRect,0.075000X0.700000X0.075000X-0.700000X0.075000X-0.700000X-0.075000X0.700000X-0.075000X0*%
%ADD52RoundRect,0.075000X0.075000X0.700000X-0.075000X0.700000X-0.075000X-0.700000X0.075000X-0.700000X0*%
%ADD53RotRect,1.800000X1.800000X202.500000*%
%ADD54RotRect,1.800000X1.800000X67.500000*%
%ADD55RotRect,1.800000X1.800000X247.500000*%
%ADD56RotRect,1.800000X1.800000X22.500000*%
%ADD57RotRect,1.800000X1.800000X135.000000*%
%ADD58RoundRect,0.237500X-0.004224X-0.382607X0.373368X0.083680X0.004224X0.382607X-0.373368X-0.083680X0*%
G04 APERTURE END LIST*
D10*
X166100000Y-111600000D03*
D11*
X168600000Y-111600000D03*
D12*
X113626129Y-92419901D03*
D13*
X115972783Y-93391917D03*
X114598145Y-90073247D03*
X116944799Y-91045263D03*
X115570161Y-87726593D03*
X117916815Y-88698609D03*
X116542177Y-85379939D03*
X118888831Y-86351955D03*
X117514193Y-83033285D03*
X119860847Y-84005301D03*
D14*
X182435828Y-83023390D03*
D15*
X180089174Y-83995406D03*
X183407844Y-85370044D03*
X181061190Y-86342060D03*
X184379860Y-87716698D03*
X182033206Y-88688714D03*
X185351876Y-90063352D03*
X183005222Y-91035368D03*
X186323892Y-92410006D03*
X183977237Y-93382022D03*
D16*
X132850000Y-119150000D03*
D17*
X172677639Y-72145228D03*
D18*
X170881588Y-73941279D03*
X174473690Y-73941279D03*
X172677639Y-75737330D03*
X176269741Y-75737330D03*
X174473690Y-77533382D03*
X178065793Y-77533382D03*
X176269741Y-79329433D03*
X179861844Y-79329433D03*
X178065793Y-81125484D03*
D19*
X159580099Y-65626129D03*
D20*
X158608083Y-67972783D03*
X161926753Y-66598145D03*
X160954737Y-68944799D03*
X164273407Y-67570161D03*
X163301391Y-69916815D03*
X166620061Y-68542177D03*
X165648045Y-70888831D03*
X168966715Y-69514193D03*
X167994699Y-71860847D03*
D16*
X167150000Y-119150000D03*
D21*
X112775000Y-107075000D03*
D22*
X115315000Y-107075000D03*
X112775000Y-104535000D03*
X115315000Y-104535000D03*
X112775000Y-101995000D03*
X115315000Y-101995000D03*
X112775000Y-99455000D03*
X115315000Y-99455000D03*
X112775000Y-96915000D03*
X115315000Y-96915000D03*
D23*
X168956709Y-134509699D03*
D24*
X167984693Y-132163045D03*
X166610055Y-135481715D03*
X165638039Y-133135061D03*
X164263401Y-136453731D03*
X163291385Y-134107077D03*
X161916747Y-137425747D03*
X160944731Y-135079093D03*
X159570093Y-138397763D03*
X158598077Y-136051108D03*
D25*
X117580987Y-120878001D03*
D26*
X119927641Y-119905985D03*
X116608971Y-118531347D03*
X118955625Y-117559331D03*
X115636955Y-116184693D03*
X117983609Y-115212677D03*
X114664939Y-113838039D03*
X117011593Y-112866023D03*
X113692923Y-111491385D03*
X116039578Y-110519369D03*
D27*
X131049983Y-69534333D03*
D28*
X132021999Y-71880987D03*
X133396637Y-68562317D03*
X134368653Y-70908971D03*
X135743291Y-67590301D03*
X136715307Y-69936955D03*
X138089945Y-66618285D03*
X139061961Y-68964939D03*
X140436599Y-65646269D03*
X141408615Y-67992924D03*
D21*
X144925000Y-64775000D03*
D22*
X144925000Y-67315000D03*
X147465000Y-64775000D03*
X147465000Y-67315000D03*
X150005000Y-64775000D03*
X150005000Y-67315000D03*
X152545000Y-64775000D03*
X152545000Y-67315000D03*
X155085000Y-64775000D03*
X155085000Y-67315000D03*
D21*
X155075000Y-139275000D03*
D22*
X155075000Y-136735000D03*
X152535000Y-139275000D03*
X152535000Y-136735000D03*
X149995000Y-139275000D03*
X149995000Y-136735000D03*
X147455000Y-139275000D03*
X147455000Y-136735000D03*
X144915000Y-139275000D03*
X144915000Y-136735000D03*
D29*
X127296051Y-131988154D03*
D30*
X129092102Y-130192103D03*
X125500000Y-130192103D03*
X127296051Y-128396052D03*
X123703949Y-128396052D03*
X125500000Y-126600000D03*
X121907897Y-126600000D03*
X123703949Y-124803949D03*
X120111846Y-124803949D03*
X121907897Y-123007898D03*
D10*
X147500000Y-82900000D03*
D11*
X150000000Y-82900000D03*
D16*
X132860000Y-84850000D03*
D21*
X143700000Y-112375000D03*
D22*
X143700000Y-114915000D03*
X143700000Y-117455000D03*
D31*
X120045228Y-79222362D03*
D32*
X121841279Y-81018413D03*
X121841279Y-77426311D03*
X123637330Y-79222362D03*
X123637330Y-75630260D03*
X125433382Y-77426311D03*
X125433382Y-73834208D03*
X127229433Y-75630260D03*
X127229433Y-72038157D03*
X129025484Y-73834208D03*
D33*
X140436599Y-138353731D03*
D34*
X141408615Y-136007077D03*
X138089945Y-137381715D03*
X139061961Y-135035061D03*
X135743291Y-136409699D03*
X136715307Y-134063045D03*
X133396637Y-135437683D03*
X134368653Y-133091029D03*
X131049983Y-134465667D03*
X132021999Y-132119013D03*
D35*
X179888154Y-124803949D03*
D36*
X178092103Y-123007898D03*
X178092103Y-126600000D03*
X176296052Y-124803949D03*
X176296052Y-128396051D03*
X174500000Y-126600000D03*
X174500000Y-130192103D03*
X172703949Y-128396051D03*
X172703949Y-131988154D03*
X170907898Y-130192103D03*
D37*
X186320065Y-111599234D03*
D38*
X183973411Y-110627218D03*
X185348049Y-113945888D03*
X183001395Y-112973872D03*
X184376033Y-116292542D03*
X182029379Y-115320526D03*
X183404017Y-118639196D03*
X181057363Y-117667180D03*
X182432001Y-120985850D03*
X180085347Y-120013834D03*
D21*
X187200000Y-96920000D03*
D22*
X184660000Y-96920000D03*
X187200000Y-99460000D03*
X184660000Y-99460000D03*
X187200000Y-102000000D03*
X184660000Y-102000000D03*
X187200000Y-104540000D03*
X184660000Y-104540000D03*
X187200000Y-107080000D03*
X184660000Y-107080000D03*
D16*
X167150000Y-84850000D03*
D39*
X118700000Y-133400000D03*
D40*
X120496051Y-131603949D03*
D41*
X125500000Y-102500000D03*
D42*
X150000000Y-146275000D03*
D40*
X150000000Y-143735000D03*
D41*
X132800000Y-78800000D03*
D43*
X161379712Y-100507211D03*
X162720288Y-101592789D03*
D42*
X150000000Y-57625000D03*
D40*
X150000000Y-60165000D03*
D41*
X122600000Y-89000000D03*
D42*
X194275000Y-102100000D03*
D40*
X191735000Y-102100000D03*
D44*
X109075000Y-85027984D03*
D40*
X111421654Y-86000000D03*
D41*
X169500000Y-126100000D03*
X151300000Y-134300000D03*
D45*
X166925000Y-142900000D03*
D40*
X165952984Y-140553346D03*
D41*
X142700000Y-73500000D03*
D46*
X118675000Y-70698439D03*
D40*
X120471051Y-72494490D03*
D47*
X190900000Y-119000000D03*
D40*
X188553346Y-118027984D03*
D41*
X161900000Y-76200000D03*
D48*
X160111528Y-101708316D03*
X161821249Y-103092821D03*
X160688472Y-104491684D03*
X158978751Y-103107179D03*
D49*
X181375000Y-70700000D03*
D40*
X179578949Y-72496051D03*
D50*
X133000000Y-61100000D03*
D40*
X133972016Y-63446654D03*
D51*
X155675000Y-98250000D03*
X155675000Y-98750000D03*
X155675000Y-99250000D03*
X155675000Y-99750000D03*
X155675000Y-100250000D03*
X155675000Y-100750000D03*
X155675000Y-101250000D03*
X155675000Y-101750000D03*
X155675000Y-102250000D03*
X155675000Y-102750000D03*
X155675000Y-103250000D03*
X155675000Y-103750000D03*
X155675000Y-104250000D03*
X155675000Y-104750000D03*
X155675000Y-105250000D03*
X155675000Y-105750000D03*
D52*
X153750000Y-107675000D03*
X153250000Y-107675000D03*
X152750000Y-107675000D03*
X152250000Y-107675000D03*
X151750000Y-107675000D03*
X151250000Y-107675000D03*
X150750000Y-107675000D03*
X150250000Y-107675000D03*
X149750000Y-107675000D03*
X149250000Y-107675000D03*
X148750000Y-107675000D03*
X148250000Y-107675000D03*
X147750000Y-107675000D03*
X147250000Y-107675000D03*
X146750000Y-107675000D03*
X146250000Y-107675000D03*
D51*
X144325000Y-105750000D03*
X144325000Y-105250000D03*
X144325000Y-104750000D03*
X144325000Y-104250000D03*
X144325000Y-103750000D03*
X144325000Y-103250000D03*
X144325000Y-102750000D03*
X144325000Y-102250000D03*
X144325000Y-101750000D03*
X144325000Y-101250000D03*
X144325000Y-100750000D03*
X144325000Y-100250000D03*
X144325000Y-99750000D03*
X144325000Y-99250000D03*
X144325000Y-98750000D03*
X144325000Y-98250000D03*
D52*
X146250000Y-96325000D03*
X146750000Y-96325000D03*
X147250000Y-96325000D03*
X147750000Y-96325000D03*
X148250000Y-96325000D03*
X148750000Y-96325000D03*
X149250000Y-96325000D03*
X149750000Y-96325000D03*
X150250000Y-96325000D03*
X150750000Y-96325000D03*
X151250000Y-96325000D03*
X151750000Y-96325000D03*
X152250000Y-96325000D03*
X152750000Y-96325000D03*
X153250000Y-96325000D03*
X153750000Y-96325000D03*
D41*
X173300000Y-86900000D03*
X175300000Y-93800000D03*
D53*
X190975000Y-85100000D03*
D40*
X188628346Y-86072016D03*
D41*
X122700000Y-112200000D03*
X138000000Y-130200000D03*
D54*
X133000000Y-142900000D03*
D40*
X133972016Y-140553346D03*
D41*
X177800000Y-106100000D03*
D55*
X167000000Y-61100000D03*
D40*
X166027984Y-63446654D03*
D42*
X105725000Y-102000000D03*
D40*
X108265000Y-102000000D03*
D41*
X173800000Y-111000000D03*
X160000000Y-129100000D03*
D56*
X109125000Y-119000000D03*
D40*
X111471654Y-118027984D03*
D41*
X151100000Y-70800000D03*
X125500000Y-105000000D03*
D57*
X181325000Y-133296051D03*
D40*
X179528949Y-131500000D03*
D41*
X119400000Y-99800000D03*
D58*
X162257211Y-105620288D03*
X163342789Y-104279712D03*
M02*
