G04 #@! TF.GenerationSoftware,KiCad,Pcbnew,(6.0.8)*
G04 #@! TF.CreationDate,2022-11-17T16:59:53+01:00*
G04 #@! TF.ProjectId,detection_pcb,64657465-6374-4696-9f6e-5f7063622e6b,rev?*
G04 #@! TF.SameCoordinates,Original*
G04 #@! TF.FileFunction,Paste,Top*
G04 #@! TF.FilePolarity,Positive*
%FSLAX46Y46*%
G04 Gerber Fmt 4.6, Leading zero omitted, Abs format (unit mm)*
G04 Created by KiCad (PCBNEW (6.0.8)) date 2022-11-17 16:59:53*
%MOMM*%
%LPD*%
G01*
G04 APERTURE LIST*
G04 Aperture macros list*
%AMRoundRect*
0 Rectangle with rounded corners*
0 $1 Rounding radius*
0 $2 $3 $4 $5 $6 $7 $8 $9 X,Y pos of 4 corners*
0 Add a 4 corners polygon primitive as box body*
4,1,4,$2,$3,$4,$5,$6,$7,$8,$9,$2,$3,0*
0 Add four circle primitives for the rounded corners*
1,1,$1+$1,$2,$3*
1,1,$1+$1,$4,$5*
1,1,$1+$1,$6,$7*
1,1,$1+$1,$8,$9*
0 Add four rect primitives between the rounded corners*
20,1,$1+$1,$2,$3,$4,$5,0*
20,1,$1+$1,$4,$5,$6,$7,0*
20,1,$1+$1,$6,$7,$8,$9,0*
20,1,$1+$1,$8,$9,$2,$3,0*%
G04 Aperture macros list end*
%ADD10RoundRect,0.250000X0.450000X-0.350000X0.450000X0.350000X-0.450000X0.350000X-0.450000X-0.350000X0*%
%ADD11RoundRect,0.250000X-0.574524X-0.097227X-0.097227X-0.574524X0.574524X0.097227X0.097227X0.574524X0*%
%ADD12RoundRect,0.250000X0.565685X0.070711X0.070711X0.565685X-0.565685X-0.070711X-0.070711X-0.565685X0*%
%ADD13RoundRect,0.250000X-0.475000X0.337500X-0.475000X-0.337500X0.475000X-0.337500X0.475000X0.337500X0*%
%ADD14RoundRect,0.250000X-0.565685X-0.070711X-0.070711X-0.565685X0.565685X0.070711X0.070711X0.565685X0*%
%ADD15RoundRect,0.250000X0.549685X-0.151150X0.281807X0.495565X-0.549685X0.151150X-0.281807X-0.495565X0*%
%ADD16RoundRect,0.250000X0.567998X-0.130035X0.309687X0.493584X-0.567998X0.130035X-0.309687X-0.493584X0*%
%ADD17RoundRect,0.250000X-0.070711X0.565685X-0.565685X0.070711X0.070711X-0.565685X0.565685X-0.070711X0*%
%ADD18RoundRect,0.250000X-0.281807X0.495565X-0.549685X-0.151150X0.281807X-0.495565X0.549685X0.151150X0*%
%ADD19RoundRect,0.250000X-0.151150X-0.549685X0.495565X-0.281807X0.151150X0.549685X-0.495565X0.281807X0*%
%ADD20RoundRect,0.250000X0.475000X-0.337500X0.475000X0.337500X-0.475000X0.337500X-0.475000X-0.337500X0*%
%ADD21RoundRect,0.250000X0.281807X-0.495565X0.549685X0.151150X-0.281807X0.495565X-0.549685X-0.151150X0*%
%ADD22RoundRect,0.250000X-0.450000X0.350000X-0.450000X-0.350000X0.450000X-0.350000X0.450000X0.350000X0*%
%ADD23RoundRect,0.250000X0.070711X-0.565685X0.565685X-0.070711X-0.070711X0.565685X-0.565685X0.070711X0*%
%ADD24RoundRect,0.250000X-0.567998X0.130035X-0.309687X-0.493584X0.567998X-0.130035X0.309687X0.493584X0*%
%ADD25RoundRect,0.250000X0.309687X-0.493584X0.567998X0.130035X-0.309687X0.493584X-0.567998X-0.130035X0*%
%ADD26RoundRect,0.250000X0.337500X0.475000X-0.337500X0.475000X-0.337500X-0.475000X0.337500X-0.475000X0*%
%ADD27RoundRect,0.250000X0.574524X0.097227X0.097227X0.574524X-0.574524X-0.097227X-0.097227X-0.574524X0*%
%ADD28RoundRect,0.150000X0.587500X0.150000X-0.587500X0.150000X-0.587500X-0.150000X0.587500X-0.150000X0*%
%ADD29RoundRect,0.250000X-0.337500X-0.475000X0.337500X-0.475000X0.337500X0.475000X-0.337500X0.475000X0*%
%ADD30RoundRect,0.250000X0.495565X0.281807X-0.151150X0.549685X-0.495565X-0.281807X0.151150X-0.549685X0*%
%ADD31RoundRect,0.250000X-0.495565X-0.281807X0.151150X-0.549685X0.495565X0.281807X-0.151150X0.549685X0*%
%ADD32RoundRect,0.150000X-0.150000X0.587500X-0.150000X-0.587500X0.150000X-0.587500X0.150000X0.587500X0*%
%ADD33RoundRect,0.250000X-0.493584X-0.309687X0.130035X-0.567998X0.493584X0.309687X-0.130035X0.567998X0*%
%ADD34RoundRect,0.250000X0.493584X0.309687X-0.130035X0.567998X-0.493584X-0.309687X0.130035X-0.567998X0*%
%ADD35RoundRect,0.250000X-0.262500X-0.450000X0.262500X-0.450000X0.262500X0.450000X-0.262500X0.450000X0*%
%ADD36R,2.400000X0.740000*%
%ADD37RoundRect,0.250000X-0.097227X0.574524X-0.574524X0.097227X0.097227X-0.574524X0.574524X-0.097227X0*%
%ADD38R,2.500000X2.300000*%
%ADD39RoundRect,0.250000X0.151150X0.549685X-0.495565X0.281807X-0.151150X-0.549685X0.495565X-0.281807X0*%
%ADD40RoundRect,0.218750X-0.256250X0.218750X-0.256250X-0.218750X0.256250X-0.218750X0.256250X0.218750X0*%
%ADD41RoundRect,0.250000X-0.350000X-0.450000X0.350000X-0.450000X0.350000X0.450000X-0.350000X0.450000X0*%
%ADD42RoundRect,0.250000X0.350000X0.450000X-0.350000X0.450000X-0.350000X-0.450000X0.350000X-0.450000X0*%
%ADD43RoundRect,0.250000X-0.309687X0.493584X-0.567998X-0.130035X0.309687X-0.493584X0.567998X0.130035X0*%
%ADD44RoundRect,0.250000X-0.549685X0.151150X-0.281807X-0.495565X0.549685X-0.151150X0.281807X0.495565X0*%
%ADD45RoundRect,0.249750X-0.425250X-1.750250X0.425250X-1.750250X0.425250X1.750250X-0.425250X1.750250X0*%
%ADD46RoundRect,0.250000X0.130035X0.567998X-0.493584X0.309687X-0.130035X-0.567998X0.493584X-0.309687X0*%
%ADD47RoundRect,0.250000X-0.130035X-0.567998X0.493584X-0.309687X0.130035X0.567998X-0.493584X0.309687X0*%
%ADD48RoundRect,0.250000X0.097227X-0.574524X0.574524X-0.097227X-0.097227X0.574524X-0.574524X0.097227X0*%
%ADD49RoundRect,0.250000X0.262500X0.450000X-0.262500X0.450000X-0.262500X-0.450000X0.262500X-0.450000X0*%
G04 APERTURE END LIST*
D10*
X144500000Y-60000000D03*
X144500000Y-58000000D03*
D11*
X126232754Y-122832754D03*
X127700000Y-124300000D03*
D12*
X117907107Y-74807107D03*
X116492893Y-73392893D03*
D13*
X161200000Y-101162500D03*
X161200000Y-103237500D03*
D14*
X183692893Y-127692893D03*
X185107107Y-129107107D03*
D15*
X163582683Y-144023880D03*
X162817317Y-142176120D03*
D16*
X179897034Y-91858525D03*
X179102966Y-89941475D03*
D13*
X140600000Y-111962500D03*
X140600000Y-114037500D03*
D17*
X124407107Y-135692893D03*
X122992893Y-137107107D03*
D18*
X139082683Y-142976120D03*
X138317317Y-144823880D03*
D19*
X108176120Y-115682683D03*
X110023880Y-114917317D03*
D20*
X181500000Y-104037500D03*
X181500000Y-101962500D03*
D15*
X130682683Y-64523880D03*
X129917317Y-62676120D03*
D21*
X161017317Y-61123880D03*
X161782683Y-59276120D03*
D13*
X159100000Y-101162500D03*
X159100000Y-103237500D03*
D10*
X146600000Y-146000000D03*
X146600000Y-144000000D03*
D22*
X153500000Y-144000000D03*
X153500000Y-146000000D03*
D23*
X177192893Y-69807107D03*
X178607107Y-68392893D03*
D24*
X120102966Y-112078975D03*
X120897034Y-113996025D03*
D14*
X121392893Y-68592893D03*
X122807107Y-70007107D03*
D25*
X178302966Y-115958525D03*
X179097034Y-114041475D03*
D21*
X162917317Y-61923880D03*
X163682683Y-60076120D03*
D22*
X155600000Y-144000000D03*
X155600000Y-146000000D03*
D17*
X122907107Y-134192893D03*
X121492893Y-135607107D03*
D26*
X152100000Y-70500000D03*
X150025000Y-70500000D03*
D20*
X140600000Y-117937500D03*
X140600000Y-115862500D03*
D27*
X173733623Y-81196123D03*
X172266377Y-79728877D03*
D28*
X148687500Y-122150000D03*
X148687500Y-120250000D03*
X146812500Y-121200000D03*
D22*
X153400000Y-58000000D03*
X153400000Y-60000000D03*
D29*
X147962500Y-133500000D03*
X150037500Y-133500000D03*
D30*
X109923880Y-89182683D03*
X108076120Y-88417317D03*
D12*
X178607107Y-135407107D03*
X177192893Y-133992893D03*
D31*
X190176120Y-114817317D03*
X192023880Y-115582683D03*
D23*
X116492893Y-130707107D03*
X117907107Y-129292893D03*
D17*
X183607107Y-73485786D03*
X182192893Y-74900000D03*
D32*
X149650000Y-88862500D03*
X147750000Y-88862500D03*
X148700000Y-90737500D03*
D10*
X146600000Y-60000000D03*
X146600000Y-58000000D03*
D33*
X136041475Y-130302966D03*
X137958525Y-131097034D03*
D34*
X163958525Y-73734534D03*
X162041475Y-72940466D03*
D35*
X120587500Y-109500000D03*
X122412500Y-109500000D03*
D10*
X152950000Y-122300000D03*
X152950000Y-120300000D03*
D23*
X175792893Y-68407107D03*
X177207107Y-66992893D03*
D21*
X130017317Y-141223880D03*
X130782683Y-139376120D03*
D36*
X129550000Y-98390000D03*
X133450000Y-98390000D03*
X129550000Y-99660000D03*
X133450000Y-99660000D03*
X129550000Y-100930000D03*
X133450000Y-100930000D03*
X129550000Y-102200000D03*
X133450000Y-102200000D03*
X129550000Y-103470000D03*
X133450000Y-103470000D03*
X129550000Y-104740000D03*
X133450000Y-104740000D03*
X129550000Y-106010000D03*
X133450000Y-106010000D03*
D13*
X152200000Y-100162500D03*
X152200000Y-102237500D03*
D37*
X129233623Y-78266377D03*
X127766377Y-79733623D03*
D30*
X189300000Y-122200000D03*
X187452240Y-121434634D03*
D38*
X148650000Y-117100000D03*
X152950000Y-117100000D03*
D39*
X191923880Y-88417317D03*
X190076120Y-89182683D03*
D40*
X150850000Y-120512500D03*
X150850000Y-122087500D03*
D41*
X191900000Y-98600000D03*
X193900000Y-98600000D03*
D14*
X182192893Y-129192893D03*
X183607107Y-130607107D03*
D42*
X108000000Y-105500000D03*
X106000000Y-105500000D03*
D43*
X121734534Y-88041475D03*
X120940466Y-89958525D03*
D44*
X171217317Y-138676120D03*
X171982683Y-140523880D03*
D41*
X191900000Y-105600000D03*
X193900000Y-105600000D03*
D13*
X118500000Y-99962500D03*
X118500000Y-102037500D03*
D12*
X116407107Y-76307107D03*
X114992893Y-74892893D03*
D44*
X136317317Y-60076120D03*
X137082683Y-61923880D03*
D45*
X149100000Y-112300000D03*
X153600000Y-112300000D03*
D46*
X139858525Y-72140466D03*
X137941475Y-72934534D03*
D19*
X187376120Y-82682683D03*
X189223880Y-81917317D03*
X186576120Y-80782683D03*
X188423880Y-80017317D03*
D31*
X190976120Y-112917317D03*
X192823880Y-113682683D03*
D18*
X170082683Y-62676120D03*
X169317317Y-64523880D03*
D42*
X108000000Y-107600000D03*
X106000000Y-107600000D03*
D41*
X106000000Y-98500000D03*
X108000000Y-98500000D03*
D47*
X160141475Y-131897034D03*
X162058525Y-131102966D03*
D31*
X110676120Y-82017317D03*
X112523880Y-82782683D03*
D41*
X191900000Y-96600000D03*
X193900000Y-96600000D03*
D13*
X148850000Y-102662500D03*
X148850000Y-104737500D03*
D18*
X137182683Y-142176120D03*
X136417317Y-144023880D03*
D30*
X109123880Y-91082683D03*
X107276120Y-90317317D03*
D48*
X170866377Y-125733623D03*
X172333623Y-124266377D03*
D15*
X128782683Y-65323880D03*
X128017317Y-63476120D03*
D39*
X112623880Y-121317317D03*
X110776120Y-122082683D03*
D49*
X121812500Y-107300000D03*
X119987500Y-107300000D03*
D39*
X113423880Y-123217317D03*
X111576120Y-123982683D03*
D44*
X169317317Y-139476120D03*
X170082683Y-141323880D03*
M02*
