G04 #@! TF.GenerationSoftware,KiCad,Pcbnew,(6.0.8)*
G04 #@! TF.CreationDate,2022-11-17T16:59:53+01:00*
G04 #@! TF.ProjectId,detection_pcb,64657465-6374-4696-9f6e-5f7063622e6b,rev?*
G04 #@! TF.SameCoordinates,Original*
G04 #@! TF.FileFunction,Soldermask,Top*
G04 #@! TF.FilePolarity,Negative*
%FSLAX46Y46*%
G04 Gerber Fmt 4.6, Leading zero omitted, Abs format (unit mm)*
G04 Created by KiCad (PCBNEW (6.0.8)) date 2022-11-17 16:59:53*
%MOMM*%
%LPD*%
G01*
G04 APERTURE LIST*
G04 Aperture macros list*
%AMRoundRect*
0 Rectangle with rounded corners*
0 $1 Rounding radius*
0 $2 $3 $4 $5 $6 $7 $8 $9 X,Y pos of 4 corners*
0 Add a 4 corners polygon primitive as box body*
4,1,4,$2,$3,$4,$5,$6,$7,$8,$9,$2,$3,0*
0 Add four circle primitives for the rounded corners*
1,1,$1+$1,$2,$3*
1,1,$1+$1,$4,$5*
1,1,$1+$1,$6,$7*
1,1,$1+$1,$8,$9*
0 Add four rect primitives between the rounded corners*
20,1,$1+$1,$2,$3,$4,$5,0*
20,1,$1+$1,$4,$5,$6,$7,0*
20,1,$1+$1,$6,$7,$8,$9,0*
20,1,$1+$1,$8,$9,$2,$3,0*%
%AMHorizOval*
0 Thick line with rounded ends*
0 $1 width*
0 $2 $3 position (X,Y) of the first rounded end (center of the circle)*
0 $4 $5 position (X,Y) of the second rounded end (center of the circle)*
0 Add line between two ends*
20,1,$1,$2,$3,$4,$5,0*
0 Add two circle primitives to create the rounded ends*
1,1,$1,$2,$3*
1,1,$1,$4,$5*%
%AMRotRect*
0 Rectangle, with rotation*
0 The origin of the aperture is its center*
0 $1 length*
0 $2 width*
0 $3 Rotation angle, in degrees counterclockwise*
0 Add horizontal line*
21,1,$1,$2,0,0,$3*%
%AMFreePoly0*
4,1,6,1.000000,0.000000,0.500000,-0.750000,-0.500000,-0.750000,-0.500000,0.750000,0.500000,0.750000,1.000000,0.000000,1.000000,0.000000,$1*%
%AMFreePoly1*
4,1,6,0.500000,-0.750000,-0.650000,-0.750000,-0.150000,0.000000,-0.650000,0.750000,0.500000,0.750000,0.500000,-0.750000,0.500000,-0.750000,$1*%
G04 Aperture macros list end*
%ADD10RoundRect,0.250000X0.450000X-0.350000X0.450000X0.350000X-0.450000X0.350000X-0.450000X-0.350000X0*%
%ADD11RoundRect,0.250000X-0.574524X-0.097227X-0.097227X-0.574524X0.574524X0.097227X0.097227X0.574524X0*%
%ADD12FreePoly0,90.000000*%
%ADD13FreePoly1,90.000000*%
%ADD14RoundRect,0.250000X0.565685X0.070711X0.070711X0.565685X-0.565685X-0.070711X-0.070711X-0.565685X0*%
%ADD15RoundRect,0.250000X-0.475000X0.337500X-0.475000X-0.337500X0.475000X-0.337500X0.475000X0.337500X0*%
%ADD16RoundRect,0.250000X-0.565685X-0.070711X-0.070711X-0.565685X0.565685X0.070711X0.070711X0.565685X0*%
%ADD17RoundRect,0.250000X0.549685X-0.151150X0.281807X0.495565X-0.549685X0.151150X-0.281807X-0.495565X0*%
%ADD18RoundRect,0.250000X-0.600000X-0.750000X0.600000X-0.750000X0.600000X0.750000X-0.600000X0.750000X0*%
%ADD19O,1.700000X2.000000*%
%ADD20RoundRect,0.250000X0.567998X-0.130035X0.309687X0.493584X-0.567998X0.130035X-0.309687X-0.493584X0*%
%ADD21RoundRect,0.250000X-0.070711X0.565685X-0.565685X0.070711X0.070711X-0.565685X0.565685X-0.070711X0*%
%ADD22RoundRect,0.250000X-0.281807X0.495565X-0.549685X-0.151150X0.281807X-0.495565X0.549685X0.151150X0*%
%ADD23RoundRect,0.250000X-0.151150X-0.549685X0.495565X-0.281807X0.151150X0.549685X-0.495565X0.281807X0*%
%ADD24RotRect,1.700000X1.700000X157.500000*%
%ADD25HorizOval,1.700000X0.000000X0.000000X0.000000X0.000000X0*%
%ADD26RoundRect,0.250000X0.475000X-0.337500X0.475000X0.337500X-0.475000X0.337500X-0.475000X-0.337500X0*%
%ADD27RoundRect,0.250000X0.281807X-0.495565X0.549685X0.151150X-0.281807X0.495565X-0.549685X-0.151150X0*%
%ADD28RotRect,1.700000X1.700000X22.500000*%
%ADD29HorizOval,1.700000X0.000000X0.000000X0.000000X0.000000X0*%
%ADD30RoundRect,0.250000X-0.450000X0.350000X-0.450000X-0.350000X0.450000X-0.350000X0.450000X0.350000X0*%
%ADD31C,6.000000*%
%ADD32RoundRect,0.250000X0.070711X-0.565685X0.565685X-0.070711X-0.070711X0.565685X-0.565685X0.070711X0*%
%ADD33RotRect,1.700000X1.700000X45.000000*%
%ADD34HorizOval,1.700000X0.000000X0.000000X0.000000X0.000000X0*%
%ADD35RotRect,1.700000X1.700000X67.500000*%
%ADD36HorizOval,1.700000X0.000000X0.000000X0.000000X0.000000X0*%
%ADD37RoundRect,0.250000X-0.567998X0.130035X-0.309687X-0.493584X0.567998X-0.130035X0.309687X0.493584X0*%
%ADD38RoundRect,0.250000X0.309687X-0.493584X0.567998X0.130035X-0.309687X0.493584X-0.567998X-0.130035X0*%
%ADD39R,1.700000X1.700000*%
%ADD40O,1.700000X1.700000*%
%ADD41RoundRect,0.250000X0.337500X0.475000X-0.337500X0.475000X-0.337500X-0.475000X0.337500X-0.475000X0*%
%ADD42RoundRect,0.250000X0.574524X0.097227X0.097227X0.574524X-0.574524X-0.097227X-0.097227X-0.574524X0*%
%ADD43RotRect,1.700000X1.700000X292.500000*%
%ADD44HorizOval,1.700000X0.000000X0.000000X0.000000X0.000000X0*%
%ADD45RoundRect,0.150000X0.587500X0.150000X-0.587500X0.150000X-0.587500X-0.150000X0.587500X-0.150000X0*%
%ADD46RoundRect,0.250000X-0.337500X-0.475000X0.337500X-0.475000X0.337500X0.475000X-0.337500X0.475000X0*%
%ADD47RotRect,1.700000X1.700000X202.500000*%
%ADD48HorizOval,1.700000X0.000000X0.000000X0.000000X0.000000X0*%
%ADD49RoundRect,0.250000X0.495565X0.281807X-0.151150X0.549685X-0.495565X-0.281807X0.151150X-0.549685X0*%
%ADD50RoundRect,0.250000X-0.495565X-0.281807X0.151150X-0.549685X0.495565X0.281807X-0.151150X0.549685X0*%
%ADD51RoundRect,0.150000X-0.150000X0.587500X-0.150000X-0.587500X0.150000X-0.587500X0.150000X0.587500X0*%
%ADD52RoundRect,0.250000X-0.493584X-0.309687X0.130035X-0.567998X0.493584X0.309687X-0.130035X0.567998X0*%
%ADD53RoundRect,0.250000X0.493584X0.309687X-0.130035X0.567998X-0.493584X-0.309687X0.130035X-0.567998X0*%
%ADD54RoundRect,0.250000X-0.262500X-0.450000X0.262500X-0.450000X0.262500X0.450000X-0.262500X0.450000X0*%
%ADD55R,2.400000X0.740000*%
%ADD56RotRect,1.700000X1.700000X112.500000*%
%ADD57HorizOval,1.700000X0.000000X0.000000X0.000000X0.000000X0*%
%ADD58RoundRect,0.250000X-0.097227X0.574524X-0.574524X0.097227X0.097227X-0.574524X0.574524X-0.097227X0*%
%ADD59R,2.500000X2.300000*%
%ADD60RoundRect,0.250000X0.151150X0.549685X-0.495565X0.281807X-0.151150X-0.549685X0.495565X-0.281807X0*%
%ADD61RoundRect,0.218750X-0.256250X0.218750X-0.256250X-0.218750X0.256250X-0.218750X0.256250X0.218750X0*%
%ADD62RoundRect,0.250000X-0.350000X-0.450000X0.350000X-0.450000X0.350000X0.450000X-0.350000X0.450000X0*%
%ADD63RotRect,1.700000X1.700000X225.000000*%
%ADD64HorizOval,1.700000X0.000000X0.000000X0.000000X0.000000X0*%
%ADD65RoundRect,0.250000X0.350000X0.450000X-0.350000X0.450000X-0.350000X-0.450000X0.350000X-0.450000X0*%
%ADD66RoundRect,0.250000X-0.309687X0.493584X-0.567998X-0.130035X0.309687X-0.493584X0.567998X0.130035X0*%
%ADD67RoundRect,0.250000X-0.549685X0.151150X-0.281807X-0.495565X0.549685X-0.151150X0.281807X0.495565X0*%
%ADD68RoundRect,0.249750X-0.425250X-1.750250X0.425250X-1.750250X0.425250X1.750250X-0.425250X1.750250X0*%
%ADD69RoundRect,0.250000X0.130035X0.567998X-0.493584X0.309687X-0.130035X-0.567998X0.493584X-0.309687X0*%
%ADD70RotRect,1.700000X1.700000X135.000000*%
%ADD71HorizOval,1.700000X0.000000X0.000000X0.000000X0.000000X0*%
%ADD72RotRect,1.700000X1.700000X247.500000*%
%ADD73HorizOval,1.700000X0.000000X0.000000X0.000000X0.000000X0*%
%ADD74RotRect,1.700000X1.700000X315.000000*%
%ADD75HorizOval,1.700000X0.000000X0.000000X0.000000X0.000000X0*%
%ADD76RotRect,1.700000X1.700000X337.500000*%
%ADD77HorizOval,1.700000X0.000000X0.000000X0.000000X0.000000X0*%
%ADD78RoundRect,0.250000X-0.130035X-0.567998X0.493584X-0.309687X0.130035X0.567998X-0.493584X0.309687X0*%
%ADD79RoundRect,0.250000X0.097227X-0.574524X0.574524X-0.097227X-0.097227X0.574524X-0.574524X0.097227X0*%
%ADD80RoundRect,0.250000X0.262500X0.450000X-0.262500X0.450000X-0.262500X-0.450000X0.262500X-0.450000X0*%
%ADD81RotRect,1.800000X1.800000X45.000000*%
%ADD82C,1.800000*%
%ADD83R,1.800000X1.800000*%
%ADD84RotRect,1.800000X1.800000X337.500000*%
%ADD85RotRect,1.800000X1.800000X112.500000*%
%ADD86RotRect,1.800000X1.800000X315.000000*%
%ADD87RotRect,1.800000X1.800000X157.500000*%
%ADD88RotRect,1.800000X1.800000X225.000000*%
%ADD89RotRect,1.800000X1.800000X292.500000*%
%ADD90RotRect,1.800000X1.800000X202.500000*%
%ADD91RotRect,1.800000X1.800000X67.500000*%
%ADD92RotRect,1.800000X1.800000X247.500000*%
%ADD93RotRect,1.800000X1.800000X22.500000*%
%ADD94RotRect,1.800000X1.800000X135.000000*%
G04 APERTURE END LIST*
D10*
X144500000Y-60000000D03*
X144500000Y-58000000D03*
D11*
X126232754Y-122832754D03*
X127700000Y-124300000D03*
D12*
X125800000Y-101025000D03*
D13*
X125800000Y-99575000D03*
D14*
X117907107Y-74807107D03*
X116492893Y-73392893D03*
D15*
X161200000Y-101162500D03*
X161200000Y-103237500D03*
D16*
X183692893Y-127692893D03*
X185107107Y-129107107D03*
D17*
X163582683Y-144023880D03*
X162817317Y-142176120D03*
D18*
X166100000Y-111600000D03*
D19*
X168600000Y-111600000D03*
D20*
X179897034Y-91858525D03*
X179102966Y-89941475D03*
D15*
X140600000Y-111962500D03*
X140600000Y-114037500D03*
D21*
X124407107Y-135692893D03*
X122992893Y-137107107D03*
D22*
X139082683Y-142976120D03*
X138317317Y-144823880D03*
D23*
X108176120Y-115682683D03*
X110023880Y-114917317D03*
D24*
X113626129Y-92419901D03*
D25*
X115972783Y-93391917D03*
X114598145Y-90073247D03*
X116944799Y-91045263D03*
X115570161Y-87726593D03*
X117916815Y-88698609D03*
X116542177Y-85379939D03*
X118888831Y-86351955D03*
X117514193Y-83033285D03*
X119860847Y-84005301D03*
D26*
X181500000Y-104037500D03*
X181500000Y-101962500D03*
D17*
X130682683Y-64523880D03*
X129917317Y-62676120D03*
D27*
X161017317Y-61123880D03*
X161782683Y-59276120D03*
D28*
X182435828Y-83023390D03*
D29*
X180089174Y-83995406D03*
X183407844Y-85370044D03*
X181061190Y-86342060D03*
X184379860Y-87716698D03*
X182033206Y-88688714D03*
X185351876Y-90063352D03*
X183005222Y-91035368D03*
X186323892Y-92410006D03*
X183977237Y-93382022D03*
D15*
X159100000Y-101162500D03*
X159100000Y-103237500D03*
D10*
X146600000Y-146000000D03*
X146600000Y-144000000D03*
D30*
X153500000Y-144000000D03*
X153500000Y-146000000D03*
D31*
X132850000Y-119150000D03*
D32*
X177192893Y-69807107D03*
X178607107Y-68392893D03*
D33*
X172677639Y-72145228D03*
D34*
X170881588Y-73941279D03*
X174473690Y-73941279D03*
X172677639Y-75737330D03*
X176269741Y-75737330D03*
X174473690Y-77533382D03*
X178065793Y-77533382D03*
X176269741Y-79329433D03*
X179861844Y-79329433D03*
X178065793Y-81125484D03*
D35*
X159580099Y-65626129D03*
D36*
X158608083Y-67972783D03*
X161926753Y-66598145D03*
X160954737Y-68944799D03*
X164273407Y-67570161D03*
X163301391Y-69916815D03*
X166620061Y-68542177D03*
X165648045Y-70888831D03*
X168966715Y-69514193D03*
X167994699Y-71860847D03*
D37*
X120102966Y-112078975D03*
X120897034Y-113996025D03*
D31*
X167150000Y-119150000D03*
D16*
X121392893Y-68592893D03*
X122807107Y-70007107D03*
D38*
X178302966Y-115958525D03*
X179097034Y-114041475D03*
D27*
X162917317Y-61923880D03*
X163682683Y-60076120D03*
D30*
X155600000Y-144000000D03*
X155600000Y-146000000D03*
D39*
X112775000Y-107075000D03*
D40*
X115315000Y-107075000D03*
X112775000Y-104535000D03*
X115315000Y-104535000D03*
X112775000Y-101995000D03*
X115315000Y-101995000D03*
X112775000Y-99455000D03*
X115315000Y-99455000D03*
X112775000Y-96915000D03*
X115315000Y-96915000D03*
D21*
X122907107Y-134192893D03*
X121492893Y-135607107D03*
D41*
X152100000Y-70500000D03*
X150025000Y-70500000D03*
D26*
X140600000Y-117937500D03*
X140600000Y-115862500D03*
D42*
X173733623Y-81196123D03*
X172266377Y-79728877D03*
D43*
X168956709Y-134509699D03*
D44*
X167984693Y-132163045D03*
X166610055Y-135481715D03*
X165638039Y-133135061D03*
X164263401Y-136453731D03*
X163291385Y-134107077D03*
X161916747Y-137425747D03*
X160944731Y-135079093D03*
X159570093Y-138397763D03*
X158598077Y-136051108D03*
D45*
X148687500Y-122150000D03*
X148687500Y-120250000D03*
X146812500Y-121200000D03*
D30*
X153400000Y-58000000D03*
X153400000Y-60000000D03*
D46*
X147962500Y-133500000D03*
X150037500Y-133500000D03*
D47*
X117580987Y-120878001D03*
D48*
X119927641Y-119905985D03*
X116608971Y-118531347D03*
X118955625Y-117559331D03*
X115636955Y-116184693D03*
X117983609Y-115212677D03*
X114664939Y-113838039D03*
X117011593Y-112866023D03*
X113692923Y-111491385D03*
X116039578Y-110519369D03*
D49*
X109923880Y-89182683D03*
X108076120Y-88417317D03*
D14*
X178607107Y-135407107D03*
X177192893Y-133992893D03*
D50*
X190176120Y-114817317D03*
X192023880Y-115582683D03*
D32*
X116492893Y-130707107D03*
X117907107Y-129292893D03*
D21*
X183607107Y-73485786D03*
X182192893Y-74900000D03*
D51*
X149650000Y-88862500D03*
X147750000Y-88862500D03*
X148700000Y-90737500D03*
D10*
X146600000Y-60000000D03*
X146600000Y-58000000D03*
D52*
X136041475Y-130302966D03*
X137958525Y-131097034D03*
D53*
X163958525Y-73734534D03*
X162041475Y-72940466D03*
D54*
X120587500Y-109500000D03*
X122412500Y-109500000D03*
D10*
X152950000Y-122300000D03*
X152950000Y-120300000D03*
D32*
X175792893Y-68407107D03*
X177207107Y-66992893D03*
D27*
X130017317Y-141223880D03*
X130782683Y-139376120D03*
D55*
X129550000Y-98390000D03*
X133450000Y-98390000D03*
X129550000Y-99660000D03*
X133450000Y-99660000D03*
X129550000Y-100930000D03*
X133450000Y-100930000D03*
X129550000Y-102200000D03*
X133450000Y-102200000D03*
X129550000Y-103470000D03*
X133450000Y-103470000D03*
X129550000Y-104740000D03*
X133450000Y-104740000D03*
X129550000Y-106010000D03*
X133450000Y-106010000D03*
D56*
X131049983Y-69534333D03*
D57*
X132021999Y-71880987D03*
X133396637Y-68562317D03*
X134368653Y-70908971D03*
X135743291Y-67590301D03*
X136715307Y-69936955D03*
X138089945Y-66618285D03*
X139061961Y-68964939D03*
X140436599Y-65646269D03*
X141408615Y-67992924D03*
D15*
X152200000Y-100162500D03*
X152200000Y-102237500D03*
D58*
X129233623Y-78266377D03*
X127766377Y-79733623D03*
D49*
X189300000Y-122200000D03*
X187452240Y-121434634D03*
D59*
X148650000Y-117100000D03*
X152950000Y-117100000D03*
D60*
X191923880Y-88417317D03*
X190076120Y-89182683D03*
D39*
X144925000Y-64775000D03*
D40*
X144925000Y-67315000D03*
X147465000Y-64775000D03*
X147465000Y-67315000D03*
X150005000Y-64775000D03*
X150005000Y-67315000D03*
X152545000Y-64775000D03*
X152545000Y-67315000D03*
X155085000Y-64775000D03*
X155085000Y-67315000D03*
D61*
X150850000Y-120512500D03*
X150850000Y-122087500D03*
D62*
X191900000Y-98600000D03*
X193900000Y-98600000D03*
D39*
X155075000Y-139275000D03*
D40*
X155075000Y-136735000D03*
X152535000Y-139275000D03*
X152535000Y-136735000D03*
X149995000Y-139275000D03*
X149995000Y-136735000D03*
X147455000Y-139275000D03*
X147455000Y-136735000D03*
X144915000Y-139275000D03*
X144915000Y-136735000D03*
D63*
X127296051Y-131988154D03*
D64*
X129092102Y-130192103D03*
X125500000Y-130192103D03*
X127296051Y-128396052D03*
X123703949Y-128396052D03*
X125500000Y-126600000D03*
X121907897Y-126600000D03*
X123703949Y-124803949D03*
X120111846Y-124803949D03*
X121907897Y-123007898D03*
D18*
X147500000Y-82900000D03*
D19*
X150000000Y-82900000D03*
D16*
X182192893Y-129192893D03*
X183607107Y-130607107D03*
D65*
X108000000Y-105500000D03*
X106000000Y-105500000D03*
D66*
X121734534Y-88041475D03*
X120940466Y-89958525D03*
D31*
X132860000Y-84850000D03*
D67*
X171217317Y-138676120D03*
X171982683Y-140523880D03*
D62*
X191900000Y-105600000D03*
X193900000Y-105600000D03*
D15*
X118500000Y-99962500D03*
X118500000Y-102037500D03*
D39*
X143700000Y-112375000D03*
D40*
X143700000Y-114915000D03*
X143700000Y-117455000D03*
D14*
X116407107Y-76307107D03*
X114992893Y-74892893D03*
D67*
X136317317Y-60076120D03*
X137082683Y-61923880D03*
D68*
X149100000Y-112300000D03*
X153600000Y-112300000D03*
D69*
X139858525Y-72140466D03*
X137941475Y-72934534D03*
D23*
X187376120Y-82682683D03*
X189223880Y-81917317D03*
X186576120Y-80782683D03*
X188423880Y-80017317D03*
D70*
X120045228Y-79222362D03*
D71*
X121841279Y-81018413D03*
X121841279Y-77426311D03*
X123637330Y-79222362D03*
X123637330Y-75630260D03*
X125433382Y-77426311D03*
X125433382Y-73834208D03*
X127229433Y-75630260D03*
X127229433Y-72038157D03*
X129025484Y-73834208D03*
D50*
X190976120Y-112917317D03*
X192823880Y-113682683D03*
D22*
X170082683Y-62676120D03*
X169317317Y-64523880D03*
D65*
X108000000Y-107600000D03*
X106000000Y-107600000D03*
D72*
X140436599Y-138353731D03*
D73*
X141408615Y-136007077D03*
X138089945Y-137381715D03*
X139061961Y-135035061D03*
X135743291Y-136409699D03*
X136715307Y-134063045D03*
X133396637Y-135437683D03*
X134368653Y-133091029D03*
X131049983Y-134465667D03*
X132021999Y-132119013D03*
D74*
X179888154Y-124803949D03*
D75*
X178092103Y-123007898D03*
X178092103Y-126600000D03*
X176296052Y-124803949D03*
X176296052Y-128396051D03*
X174500000Y-126600000D03*
X174500000Y-130192103D03*
X172703949Y-128396051D03*
X172703949Y-131988154D03*
X170907898Y-130192103D03*
D62*
X106000000Y-98500000D03*
X108000000Y-98500000D03*
D76*
X186320065Y-111599234D03*
D77*
X183973411Y-110627218D03*
X185348049Y-113945888D03*
X183001395Y-112973872D03*
X184376033Y-116292542D03*
X182029379Y-115320526D03*
X183404017Y-118639196D03*
X181057363Y-117667180D03*
X182432001Y-120985850D03*
X180085347Y-120013834D03*
D78*
X160141475Y-131897034D03*
X162058525Y-131102966D03*
D50*
X110676120Y-82017317D03*
X112523880Y-82782683D03*
D62*
X191900000Y-96600000D03*
X193900000Y-96600000D03*
D15*
X148850000Y-102662500D03*
X148850000Y-104737500D03*
D22*
X137182683Y-142176120D03*
X136417317Y-144023880D03*
D39*
X187200000Y-96920000D03*
D40*
X184660000Y-96920000D03*
X187200000Y-99460000D03*
X184660000Y-99460000D03*
X187200000Y-102000000D03*
X184660000Y-102000000D03*
X187200000Y-104540000D03*
X184660000Y-104540000D03*
X187200000Y-107080000D03*
X184660000Y-107080000D03*
D49*
X109123880Y-91082683D03*
X107276120Y-90317317D03*
D79*
X170866377Y-125733623D03*
X172333623Y-124266377D03*
D17*
X128782683Y-65323880D03*
X128017317Y-63476120D03*
D60*
X112623880Y-121317317D03*
X110776120Y-122082683D03*
D80*
X121812500Y-107300000D03*
X119987500Y-107300000D03*
D31*
X167150000Y-84850000D03*
D60*
X113423880Y-123217317D03*
X111576120Y-123982683D03*
D67*
X169317317Y-139476120D03*
X170082683Y-141323880D03*
D81*
X118700000Y-133400000D03*
D82*
X120496051Y-131603949D03*
D83*
X150000000Y-146275000D03*
D82*
X150000000Y-143735000D03*
D83*
X150000000Y-57625000D03*
D82*
X150000000Y-60165000D03*
D83*
X194275000Y-102100000D03*
D82*
X191735000Y-102100000D03*
D84*
X109075000Y-85027984D03*
D82*
X111421654Y-86000000D03*
D85*
X166925000Y-142900000D03*
D82*
X165952984Y-140553346D03*
D86*
X118675000Y-70698439D03*
D82*
X120471051Y-72494490D03*
D87*
X190900000Y-119000000D03*
D82*
X188553346Y-118027984D03*
D88*
X181375000Y-70700000D03*
D82*
X179578949Y-72496051D03*
D89*
X133000000Y-61100000D03*
D82*
X133972016Y-63446654D03*
D90*
X190975000Y-85100000D03*
D82*
X188628346Y-86072016D03*
D91*
X133000000Y-142900000D03*
D82*
X133972016Y-140553346D03*
D92*
X167000000Y-61100000D03*
D82*
X166027984Y-63446654D03*
D83*
X105725000Y-102000000D03*
D82*
X108265000Y-102000000D03*
D93*
X109125000Y-119000000D03*
D82*
X111471654Y-118027984D03*
D94*
X181325000Y-133296051D03*
D82*
X179528949Y-131500000D03*
M02*
