G04 #@! TF.GenerationSoftware,KiCad,Pcbnew,(6.0.8)*
G04 #@! TF.CreationDate,2022-11-17T16:59:53+01:00*
G04 #@! TF.ProjectId,detection_pcb,64657465-6374-4696-9f6e-5f7063622e6b,rev?*
G04 #@! TF.SameCoordinates,Original*
G04 #@! TF.FileFunction,Legend,Bot*
G04 #@! TF.FilePolarity,Positive*
%FSLAX46Y46*%
G04 Gerber Fmt 4.6, Leading zero omitted, Abs format (unit mm)*
G04 Created by KiCad (PCBNEW (6.0.8)) date 2022-11-17 16:59:53*
%MOMM*%
%LPD*%
G01*
G04 APERTURE LIST*
G04 Aperture macros list*
%AMRoundRect*
0 Rectangle with rounded corners*
0 $1 Rounding radius*
0 $2 $3 $4 $5 $6 $7 $8 $9 X,Y pos of 4 corners*
0 Add a 4 corners polygon primitive as box body*
4,1,4,$2,$3,$4,$5,$6,$7,$8,$9,$2,$3,0*
0 Add four circle primitives for the rounded corners*
1,1,$1+$1,$2,$3*
1,1,$1+$1,$4,$5*
1,1,$1+$1,$6,$7*
1,1,$1+$1,$8,$9*
0 Add four rect primitives between the rounded corners*
20,1,$1+$1,$2,$3,$4,$5,0*
20,1,$1+$1,$4,$5,$6,$7,0*
20,1,$1+$1,$6,$7,$8,$9,0*
20,1,$1+$1,$8,$9,$2,$3,0*%
%AMHorizOval*
0 Thick line with rounded ends*
0 $1 width*
0 $2 $3 position (X,Y) of the first rounded end (center of the circle)*
0 $4 $5 position (X,Y) of the second rounded end (center of the circle)*
0 Add line between two ends*
20,1,$1,$2,$3,$4,$5,0*
0 Add two circle primitives to create the rounded ends*
1,1,$1,$2,$3*
1,1,$1,$4,$5*%
%AMRotRect*
0 Rectangle, with rotation*
0 The origin of the aperture is its center*
0 $1 length*
0 $2 width*
0 $3 Rotation angle, in degrees counterclockwise*
0 Add horizontal line*
21,1,$1,$2,0,0,$3*%
G04 Aperture macros list end*
%ADD10C,0.150000*%
%ADD11C,0.120000*%
%ADD12RoundRect,0.250000X-0.600000X-0.750000X0.600000X-0.750000X0.600000X0.750000X-0.600000X0.750000X0*%
%ADD13O,1.700000X2.000000*%
%ADD14RotRect,1.700000X1.700000X157.500000*%
%ADD15HorizOval,1.700000X0.000000X0.000000X0.000000X0.000000X0*%
%ADD16RotRect,1.700000X1.700000X22.500000*%
%ADD17HorizOval,1.700000X0.000000X0.000000X0.000000X0.000000X0*%
%ADD18C,6.000000*%
%ADD19RotRect,1.700000X1.700000X45.000000*%
%ADD20HorizOval,1.700000X0.000000X0.000000X0.000000X0.000000X0*%
%ADD21RotRect,1.700000X1.700000X67.500000*%
%ADD22HorizOval,1.700000X0.000000X0.000000X0.000000X0.000000X0*%
%ADD23R,1.700000X1.700000*%
%ADD24O,1.700000X1.700000*%
%ADD25RotRect,1.700000X1.700000X292.500000*%
%ADD26HorizOval,1.700000X0.000000X0.000000X0.000000X0.000000X0*%
%ADD27RotRect,1.700000X1.700000X202.500000*%
%ADD28HorizOval,1.700000X0.000000X0.000000X0.000000X0.000000X0*%
%ADD29RotRect,1.700000X1.700000X112.500000*%
%ADD30HorizOval,1.700000X0.000000X0.000000X0.000000X0.000000X0*%
%ADD31RotRect,1.700000X1.700000X225.000000*%
%ADD32HorizOval,1.700000X0.000000X0.000000X0.000000X0.000000X0*%
%ADD33RotRect,1.700000X1.700000X135.000000*%
%ADD34HorizOval,1.700000X0.000000X0.000000X0.000000X0.000000X0*%
%ADD35RotRect,1.700000X1.700000X247.500000*%
%ADD36HorizOval,1.700000X0.000000X0.000000X0.000000X0.000000X0*%
%ADD37RotRect,1.700000X1.700000X315.000000*%
%ADD38HorizOval,1.700000X0.000000X0.000000X0.000000X0.000000X0*%
%ADD39RotRect,1.700000X1.700000X337.500000*%
%ADD40HorizOval,1.700000X0.000000X0.000000X0.000000X0.000000X0*%
%ADD41RotRect,1.800000X1.800000X45.000000*%
%ADD42C,1.800000*%
%ADD43C,1.000000*%
%ADD44R,1.800000X1.800000*%
%ADD45RoundRect,0.237500X-0.382607X0.004224X0.083680X-0.373368X0.382607X-0.004224X-0.083680X0.373368X0*%
%ADD46RotRect,1.800000X1.800000X337.500000*%
%ADD47RotRect,1.800000X1.800000X112.500000*%
%ADD48RotRect,1.800000X1.800000X315.000000*%
%ADD49RotRect,1.800000X1.800000X157.500000*%
%ADD50RotRect,1.300000X1.000000X321.000000*%
%ADD51RotRect,1.800000X1.800000X225.000000*%
%ADD52RotRect,1.800000X1.800000X292.500000*%
%ADD53RoundRect,0.075000X0.700000X0.075000X-0.700000X0.075000X-0.700000X-0.075000X0.700000X-0.075000X0*%
%ADD54RoundRect,0.075000X0.075000X0.700000X-0.075000X0.700000X-0.075000X-0.700000X0.075000X-0.700000X0*%
%ADD55RotRect,1.800000X1.800000X202.500000*%
%ADD56RotRect,1.800000X1.800000X67.500000*%
%ADD57RotRect,1.800000X1.800000X247.500000*%
%ADD58RotRect,1.800000X1.800000X22.500000*%
%ADD59RotRect,1.800000X1.800000X135.000000*%
%ADD60RoundRect,0.237500X-0.004224X-0.382607X0.373368X0.083680X0.004224X0.382607X-0.373368X-0.083680X0*%
G04 APERTURE END LIST*
D10*
X154823809Y-132152380D02*
X154823809Y-131152380D01*
X154823809Y-132104761D02*
X154919047Y-132152380D01*
X155109523Y-132152380D01*
X155204761Y-132104761D01*
X155252380Y-132057142D01*
X155300000Y-131961904D01*
X155300000Y-131676190D01*
X155252380Y-131580952D01*
X155204761Y-131533333D01*
X155109523Y-131485714D01*
X154919047Y-131485714D01*
X154823809Y-131533333D01*
X153966666Y-132104761D02*
X154061904Y-132152380D01*
X154252380Y-132152380D01*
X154347619Y-132104761D01*
X154395238Y-132009523D01*
X154395238Y-131628571D01*
X154347619Y-131533333D01*
X154252380Y-131485714D01*
X154061904Y-131485714D01*
X153966666Y-131533333D01*
X153919047Y-131628571D01*
X153919047Y-131723809D01*
X154395238Y-131819047D01*
X153633333Y-131485714D02*
X153252380Y-131485714D01*
X153490476Y-131152380D02*
X153490476Y-132009523D01*
X153442857Y-132104761D01*
X153347619Y-132152380D01*
X153252380Y-132152380D01*
X152538095Y-132104761D02*
X152633333Y-132152380D01*
X152823809Y-132152380D01*
X152919047Y-132104761D01*
X152966666Y-132009523D01*
X152966666Y-131628571D01*
X152919047Y-131533333D01*
X152823809Y-131485714D01*
X152633333Y-131485714D01*
X152538095Y-131533333D01*
X152490476Y-131628571D01*
X152490476Y-131723809D01*
X152966666Y-131819047D01*
X151633333Y-132104761D02*
X151728571Y-132152380D01*
X151919047Y-132152380D01*
X152014285Y-132104761D01*
X152061904Y-132057142D01*
X152109523Y-131961904D01*
X152109523Y-131676190D01*
X152061904Y-131580952D01*
X152014285Y-131533333D01*
X151919047Y-131485714D01*
X151728571Y-131485714D01*
X151633333Y-131533333D01*
X151347619Y-131485714D02*
X150966666Y-131485714D01*
X151204761Y-131152380D02*
X151204761Y-132009523D01*
X151157142Y-132104761D01*
X151061904Y-132152380D01*
X150966666Y-132152380D01*
X150633333Y-132152380D02*
X150633333Y-131485714D01*
X150633333Y-131152380D02*
X150680952Y-131200000D01*
X150633333Y-131247619D01*
X150585714Y-131200000D01*
X150633333Y-131152380D01*
X150633333Y-131247619D01*
X150014285Y-132152380D02*
X150109523Y-132104761D01*
X150157142Y-132057142D01*
X150204761Y-131961904D01*
X150204761Y-131676190D01*
X150157142Y-131580952D01*
X150109523Y-131533333D01*
X150014285Y-131485714D01*
X149871428Y-131485714D01*
X149776190Y-131533333D01*
X149728571Y-131580952D01*
X149680952Y-131676190D01*
X149680952Y-131961904D01*
X149728571Y-132057142D01*
X149776190Y-132104761D01*
X149871428Y-132152380D01*
X150014285Y-132152380D01*
X149252380Y-131485714D02*
X149252380Y-132152380D01*
X149252380Y-131580952D02*
X149204761Y-131533333D01*
X149109523Y-131485714D01*
X148966666Y-131485714D01*
X148871428Y-131533333D01*
X148823809Y-131628571D01*
X148823809Y-132152380D01*
X147680952Y-131485714D02*
X147442857Y-132152380D01*
X147204761Y-131485714D01*
X146871428Y-131247619D02*
X146823809Y-131200000D01*
X146728571Y-131152380D01*
X146490476Y-131152380D01*
X146395238Y-131200000D01*
X146347619Y-131247619D01*
X146300000Y-131342857D01*
X146300000Y-131438095D01*
X146347619Y-131580952D01*
X146919047Y-132152380D01*
X146300000Y-132152380D01*
X123138947Y-133786887D02*
X123475664Y-133450170D01*
X122768558Y-132743063D01*
X122532855Y-133652200D02*
X122297153Y-133887903D01*
X122566527Y-134359307D02*
X122903245Y-134022590D01*
X122196138Y-133315483D01*
X121859420Y-133652200D01*
X122263481Y-134662353D02*
X121556374Y-133955246D01*
X121388016Y-134123605D01*
X121320672Y-134258292D01*
X121320672Y-134392979D01*
X121354344Y-134493994D01*
X121455359Y-134662353D01*
X121556374Y-134763368D01*
X121724733Y-134864384D01*
X121825749Y-134898055D01*
X121960436Y-134898055D01*
X122095123Y-134830712D01*
X122263481Y-134662353D01*
X121185985Y-135739849D02*
X121590046Y-135335788D01*
X121388016Y-135537819D02*
X120680909Y-134830712D01*
X120849268Y-134864384D01*
X120983955Y-134864384D01*
X121084970Y-134830712D01*
X120512550Y-136413284D02*
X120916611Y-136009223D01*
X120714581Y-136211254D02*
X120007474Y-135504147D01*
X120175833Y-135537819D01*
X120310520Y-135537819D01*
X120411535Y-135504147D01*
X129840476Y-102904761D02*
X129697619Y-102952380D01*
X129459523Y-102952380D01*
X129364285Y-102904761D01*
X129316666Y-102857142D01*
X129269047Y-102761904D01*
X129269047Y-102666666D01*
X129316666Y-102571428D01*
X129364285Y-102523809D01*
X129459523Y-102476190D01*
X129650000Y-102428571D01*
X129745238Y-102380952D01*
X129792857Y-102333333D01*
X129840476Y-102238095D01*
X129840476Y-102142857D01*
X129792857Y-102047619D01*
X129745238Y-102000000D01*
X129650000Y-101952380D01*
X129411904Y-101952380D01*
X129269047Y-102000000D01*
X128840476Y-102952380D02*
X128840476Y-101952380D01*
X128602380Y-101952380D01*
X128459523Y-102000000D01*
X128364285Y-102095238D01*
X128316666Y-102190476D01*
X128269047Y-102380952D01*
X128269047Y-102523809D01*
X128316666Y-102714285D01*
X128364285Y-102809523D01*
X128459523Y-102904761D01*
X128602380Y-102952380D01*
X128840476Y-102952380D01*
X127888095Y-102666666D02*
X127411904Y-102666666D01*
X127983333Y-102952380D02*
X127650000Y-101952380D01*
X127316666Y-102952380D01*
X126459523Y-102952380D02*
X127030952Y-102952380D01*
X126745238Y-102952380D02*
X126745238Y-101952380D01*
X126840476Y-102095238D01*
X126935714Y-102190476D01*
X127030952Y-102238095D01*
X153412380Y-143409761D02*
X153412380Y-142933571D01*
X152412380Y-142933571D01*
X152888571Y-143743095D02*
X152888571Y-144076428D01*
X153412380Y-144219285D02*
X153412380Y-143743095D01*
X152412380Y-143743095D01*
X152412380Y-144219285D01*
X153412380Y-144647857D02*
X152412380Y-144647857D01*
X152412380Y-144885952D01*
X152460000Y-145028809D01*
X152555238Y-145124047D01*
X152650476Y-145171666D01*
X152840952Y-145219285D01*
X152983809Y-145219285D01*
X153174285Y-145171666D01*
X153269523Y-145124047D01*
X153364761Y-145028809D01*
X153412380Y-144885952D01*
X153412380Y-144647857D01*
X153412380Y-146171666D02*
X153412380Y-145600238D01*
X153412380Y-145885952D02*
X152412380Y-145885952D01*
X152555238Y-145790714D01*
X152650476Y-145695476D01*
X152698095Y-145600238D01*
X152412380Y-146505000D02*
X152412380Y-147124047D01*
X152793333Y-146790714D01*
X152793333Y-146933571D01*
X152840952Y-147028809D01*
X152888571Y-147076428D01*
X152983809Y-147124047D01*
X153221904Y-147124047D01*
X153317142Y-147076428D01*
X153364761Y-147028809D01*
X153412380Y-146933571D01*
X153412380Y-146647857D01*
X153364761Y-146552619D01*
X153317142Y-146505000D01*
X135109523Y-76804380D02*
X134442857Y-77804380D01*
X134442857Y-76804380D02*
X135109523Y-77804380D01*
X134109523Y-77756761D02*
X133966666Y-77804380D01*
X133728571Y-77804380D01*
X133633333Y-77756761D01*
X133585714Y-77709142D01*
X133538095Y-77613904D01*
X133538095Y-77518666D01*
X133585714Y-77423428D01*
X133633333Y-77375809D01*
X133728571Y-77328190D01*
X133919047Y-77280571D01*
X134014285Y-77232952D01*
X134061904Y-77185333D01*
X134109523Y-77090095D01*
X134109523Y-76994857D01*
X134061904Y-76899619D01*
X134014285Y-76852000D01*
X133919047Y-76804380D01*
X133680952Y-76804380D01*
X133538095Y-76852000D01*
X133109523Y-77804380D02*
X133109523Y-76804380D01*
X132871428Y-76804380D01*
X132728571Y-76852000D01*
X132633333Y-76947238D01*
X132585714Y-77042476D01*
X132538095Y-77232952D01*
X132538095Y-77375809D01*
X132585714Y-77566285D01*
X132633333Y-77661523D01*
X132728571Y-77756761D01*
X132871428Y-77804380D01*
X133109523Y-77804380D01*
X132109523Y-77804380D02*
X132109523Y-76804380D01*
X131538095Y-77804380D01*
X131538095Y-76804380D01*
X131109523Y-76899619D02*
X131061904Y-76852000D01*
X130966666Y-76804380D01*
X130728571Y-76804380D01*
X130633333Y-76852000D01*
X130585714Y-76899619D01*
X130538095Y-76994857D01*
X130538095Y-77090095D01*
X130585714Y-77232952D01*
X131157142Y-77804380D01*
X130538095Y-77804380D01*
X162725163Y-99167884D02*
X162718124Y-99100910D01*
X162637070Y-98974000D01*
X162563057Y-98914065D01*
X162422068Y-98861169D01*
X162288119Y-98875247D01*
X162191177Y-98919293D01*
X162034299Y-99037354D01*
X161944396Y-99148374D01*
X161861533Y-99326370D01*
X161838604Y-99430351D01*
X161852683Y-99564301D01*
X161933736Y-99691210D01*
X162007750Y-99751146D01*
X162148739Y-99804042D01*
X162215713Y-99797002D01*
X162511769Y-100036744D02*
X162518808Y-100103718D01*
X162562854Y-100200660D01*
X162747889Y-100350499D01*
X162851871Y-100373427D01*
X162918845Y-100366388D01*
X163015787Y-100322341D01*
X163075723Y-100248327D01*
X163128619Y-100107339D01*
X163044147Y-99303644D01*
X163525237Y-99693223D01*
X163154965Y-100680143D02*
X163636056Y-101069722D01*
X163616748Y-100563893D01*
X163727769Y-100653796D01*
X163831751Y-100676724D01*
X163898725Y-100669685D01*
X163995668Y-100625638D01*
X164145506Y-100440604D01*
X164168434Y-100336622D01*
X164161395Y-100269648D01*
X164117348Y-100172705D01*
X163895307Y-99992899D01*
X163791325Y-99969971D01*
X163724351Y-99977010D01*
X147492380Y-57775952D02*
X147492380Y-57299761D01*
X146492380Y-57299761D01*
X146968571Y-58109285D02*
X146968571Y-58442619D01*
X147492380Y-58585476D02*
X147492380Y-58109285D01*
X146492380Y-58109285D01*
X146492380Y-58585476D01*
X147492380Y-59014047D02*
X146492380Y-59014047D01*
X146492380Y-59252142D01*
X146540000Y-59395000D01*
X146635238Y-59490238D01*
X146730476Y-59537857D01*
X146920952Y-59585476D01*
X147063809Y-59585476D01*
X147254285Y-59537857D01*
X147349523Y-59490238D01*
X147444761Y-59395000D01*
X147492380Y-59252142D01*
X147492380Y-59014047D01*
X146492380Y-60490238D02*
X146492380Y-60014047D01*
X146968571Y-59966428D01*
X146920952Y-60014047D01*
X146873333Y-60109285D01*
X146873333Y-60347380D01*
X146920952Y-60442619D01*
X146968571Y-60490238D01*
X147063809Y-60537857D01*
X147301904Y-60537857D01*
X147397142Y-60490238D01*
X147444761Y-60442619D01*
X147492380Y-60347380D01*
X147492380Y-60109285D01*
X147444761Y-60014047D01*
X147397142Y-59966428D01*
X125385714Y-87004380D02*
X124719047Y-88004380D01*
X124719047Y-87004380D02*
X125385714Y-88004380D01*
X124385714Y-87956761D02*
X124242857Y-88004380D01*
X124004761Y-88004380D01*
X123909523Y-87956761D01*
X123861904Y-87909142D01*
X123814285Y-87813904D01*
X123814285Y-87718666D01*
X123861904Y-87623428D01*
X123909523Y-87575809D01*
X124004761Y-87528190D01*
X124195238Y-87480571D01*
X124290476Y-87432952D01*
X124338095Y-87385333D01*
X124385714Y-87290095D01*
X124385714Y-87194857D01*
X124338095Y-87099619D01*
X124290476Y-87052000D01*
X124195238Y-87004380D01*
X123957142Y-87004380D01*
X123814285Y-87052000D01*
X123385714Y-88004380D02*
X123385714Y-87004380D01*
X123147619Y-87004380D01*
X123004761Y-87052000D01*
X122909523Y-87147238D01*
X122861904Y-87242476D01*
X122814285Y-87432952D01*
X122814285Y-87575809D01*
X122861904Y-87766285D01*
X122909523Y-87861523D01*
X123004761Y-87956761D01*
X123147619Y-88004380D01*
X123385714Y-88004380D01*
X122385714Y-88004380D02*
X122385714Y-87004380D01*
X121814285Y-88004380D01*
X121814285Y-87004380D01*
X120814285Y-88004380D02*
X121385714Y-88004380D01*
X121100000Y-88004380D02*
X121100000Y-87004380D01*
X121195238Y-87147238D01*
X121290476Y-87242476D01*
X121385714Y-87290095D01*
X120195238Y-87004380D02*
X120100000Y-87004380D01*
X120004761Y-87052000D01*
X119957142Y-87099619D01*
X119909523Y-87194857D01*
X119861904Y-87385333D01*
X119861904Y-87623428D01*
X119909523Y-87813904D01*
X119957142Y-87909142D01*
X120004761Y-87956761D01*
X120100000Y-88004380D01*
X120195238Y-88004380D01*
X120290476Y-87956761D01*
X120338095Y-87909142D01*
X120385714Y-87813904D01*
X120433333Y-87623428D01*
X120433333Y-87385333D01*
X120385714Y-87194857D01*
X120338095Y-87099619D01*
X120290476Y-87052000D01*
X120195238Y-87004380D01*
X194124047Y-99592380D02*
X194600238Y-99592380D01*
X194600238Y-98592380D01*
X193790714Y-99068571D02*
X193457380Y-99068571D01*
X193314523Y-99592380D02*
X193790714Y-99592380D01*
X193790714Y-98592380D01*
X193314523Y-98592380D01*
X192885952Y-99592380D02*
X192885952Y-98592380D01*
X192647857Y-98592380D01*
X192505000Y-98640000D01*
X192409761Y-98735238D01*
X192362142Y-98830476D01*
X192314523Y-99020952D01*
X192314523Y-99163809D01*
X192362142Y-99354285D01*
X192409761Y-99449523D01*
X192505000Y-99544761D01*
X192647857Y-99592380D01*
X192885952Y-99592380D01*
X191362142Y-99592380D02*
X191933571Y-99592380D01*
X191647857Y-99592380D02*
X191647857Y-98592380D01*
X191743095Y-98735238D01*
X191838333Y-98830476D01*
X191933571Y-98878095D01*
X108254837Y-87402488D02*
X107814894Y-87220258D01*
X107432211Y-88144137D01*
X108362344Y-88013986D02*
X108670303Y-88141547D01*
X109002739Y-87712279D02*
X108562797Y-87530049D01*
X108180113Y-88453929D01*
X108620056Y-88636159D01*
X109398688Y-87876287D02*
X109016004Y-88800166D01*
X109235976Y-88891281D01*
X109386182Y-88901956D01*
X109510616Y-88850413D01*
X109591056Y-88780648D01*
X109707943Y-88622894D01*
X109762612Y-88490911D01*
X109791510Y-88296711D01*
X109783961Y-88190500D01*
X109732419Y-88066065D01*
X109618659Y-87967402D01*
X109398688Y-87876287D01*
X110235874Y-88841570D02*
X110129662Y-88849118D01*
X110067445Y-88874890D01*
X109987005Y-88944655D01*
X109968782Y-88988649D01*
X109976330Y-89094861D01*
X110002101Y-89157078D01*
X110071867Y-89237519D01*
X110247844Y-89310411D01*
X110354055Y-89302862D01*
X110416273Y-89277091D01*
X110496713Y-89207326D01*
X110514936Y-89163331D01*
X110507388Y-89057120D01*
X110481616Y-88994903D01*
X110411851Y-88914462D01*
X110235874Y-88841570D01*
X110166108Y-88761130D01*
X110140337Y-88698913D01*
X110132789Y-88592701D01*
X110205681Y-88416724D01*
X110286121Y-88346959D01*
X110348339Y-88321187D01*
X110454550Y-88313639D01*
X110630527Y-88386531D01*
X110700293Y-88466971D01*
X110726064Y-88529189D01*
X110733612Y-88635400D01*
X110660720Y-88811377D01*
X110580280Y-88881143D01*
X110518063Y-88906914D01*
X110411851Y-88914462D01*
X171809523Y-124104380D02*
X171142857Y-125104380D01*
X171142857Y-124104380D02*
X171809523Y-125104380D01*
X170809523Y-125056761D02*
X170666666Y-125104380D01*
X170428571Y-125104380D01*
X170333333Y-125056761D01*
X170285714Y-125009142D01*
X170238095Y-124913904D01*
X170238095Y-124818666D01*
X170285714Y-124723428D01*
X170333333Y-124675809D01*
X170428571Y-124628190D01*
X170619047Y-124580571D01*
X170714285Y-124532952D01*
X170761904Y-124485333D01*
X170809523Y-124390095D01*
X170809523Y-124294857D01*
X170761904Y-124199619D01*
X170714285Y-124152000D01*
X170619047Y-124104380D01*
X170380952Y-124104380D01*
X170238095Y-124152000D01*
X169809523Y-125104380D02*
X169809523Y-124104380D01*
X169571428Y-124104380D01*
X169428571Y-124152000D01*
X169333333Y-124247238D01*
X169285714Y-124342476D01*
X169238095Y-124532952D01*
X169238095Y-124675809D01*
X169285714Y-124866285D01*
X169333333Y-124961523D01*
X169428571Y-125056761D01*
X169571428Y-125104380D01*
X169809523Y-125104380D01*
X168809523Y-125104380D02*
X168809523Y-124104380D01*
X168238095Y-125104380D01*
X168238095Y-124104380D01*
X167857142Y-124104380D02*
X167238095Y-124104380D01*
X167571428Y-124485333D01*
X167428571Y-124485333D01*
X167333333Y-124532952D01*
X167285714Y-124580571D01*
X167238095Y-124675809D01*
X167238095Y-124913904D01*
X167285714Y-125009142D01*
X167333333Y-125056761D01*
X167428571Y-125104380D01*
X167714285Y-125104380D01*
X167809523Y-125056761D01*
X167857142Y-125009142D01*
X158185714Y-133652380D02*
X157519047Y-134652380D01*
X157519047Y-133652380D02*
X158185714Y-134652380D01*
X157185714Y-134604761D02*
X157042857Y-134652380D01*
X156804761Y-134652380D01*
X156709523Y-134604761D01*
X156661904Y-134557142D01*
X156614285Y-134461904D01*
X156614285Y-134366666D01*
X156661904Y-134271428D01*
X156709523Y-134223809D01*
X156804761Y-134176190D01*
X156995238Y-134128571D01*
X157090476Y-134080952D01*
X157138095Y-134033333D01*
X157185714Y-133938095D01*
X157185714Y-133842857D01*
X157138095Y-133747619D01*
X157090476Y-133700000D01*
X156995238Y-133652380D01*
X156757142Y-133652380D01*
X156614285Y-133700000D01*
X156185714Y-134652380D02*
X156185714Y-133652380D01*
X155947619Y-133652380D01*
X155804761Y-133700000D01*
X155709523Y-133795238D01*
X155661904Y-133890476D01*
X155614285Y-134080952D01*
X155614285Y-134223809D01*
X155661904Y-134414285D01*
X155709523Y-134509523D01*
X155804761Y-134604761D01*
X155947619Y-134652380D01*
X156185714Y-134652380D01*
X155185714Y-134652380D02*
X155185714Y-133652380D01*
X154614285Y-134652380D01*
X154614285Y-133652380D01*
X153614285Y-134652380D02*
X154185714Y-134652380D01*
X153900000Y-134652380D02*
X153900000Y-133652380D01*
X153995238Y-133795238D01*
X154090476Y-133890476D01*
X154185714Y-133938095D01*
X153233333Y-133747619D02*
X153185714Y-133700000D01*
X153090476Y-133652380D01*
X152852380Y-133652380D01*
X152757142Y-133700000D01*
X152709523Y-133747619D01*
X152661904Y-133842857D01*
X152661904Y-133938095D01*
X152709523Y-134080952D01*
X153280952Y-134652380D01*
X152661904Y-134652380D01*
X168981149Y-138947003D02*
X168798919Y-138507060D01*
X167875039Y-138889744D01*
X168624773Y-139455416D02*
X168752334Y-139763376D01*
X169290940Y-139694905D02*
X169108710Y-139254963D01*
X168184830Y-139637646D01*
X168367061Y-140077589D01*
X169454947Y-140090854D02*
X168531068Y-140473537D01*
X168622183Y-140693509D01*
X168720846Y-140807268D01*
X168845281Y-140858811D01*
X168951492Y-140866359D01*
X169145692Y-140837461D01*
X169277675Y-140782792D01*
X169435429Y-140665906D01*
X169505195Y-140585466D01*
X169556737Y-140461031D01*
X169546062Y-140310825D01*
X169454947Y-140090854D01*
X170038084Y-141498670D02*
X169819408Y-140970739D01*
X169928746Y-141234705D02*
X169004866Y-141617388D01*
X169100403Y-141474731D01*
X169151946Y-141350296D01*
X169159494Y-141244084D01*
X169750179Y-142545689D02*
X170366098Y-142290567D01*
X169307109Y-142471502D02*
X169875908Y-141978186D01*
X170112808Y-142550111D01*
X145009523Y-71504380D02*
X144342857Y-72504380D01*
X144342857Y-71504380D02*
X145009523Y-72504380D01*
X144009523Y-72456761D02*
X143866666Y-72504380D01*
X143628571Y-72504380D01*
X143533333Y-72456761D01*
X143485714Y-72409142D01*
X143438095Y-72313904D01*
X143438095Y-72218666D01*
X143485714Y-72123428D01*
X143533333Y-72075809D01*
X143628571Y-72028190D01*
X143819047Y-71980571D01*
X143914285Y-71932952D01*
X143961904Y-71885333D01*
X144009523Y-71790095D01*
X144009523Y-71694857D01*
X143961904Y-71599619D01*
X143914285Y-71552000D01*
X143819047Y-71504380D01*
X143580952Y-71504380D01*
X143438095Y-71552000D01*
X143009523Y-72504380D02*
X143009523Y-71504380D01*
X142771428Y-71504380D01*
X142628571Y-71552000D01*
X142533333Y-71647238D01*
X142485714Y-71742476D01*
X142438095Y-71932952D01*
X142438095Y-72075809D01*
X142485714Y-72266285D01*
X142533333Y-72361523D01*
X142628571Y-72456761D01*
X142771428Y-72504380D01*
X143009523Y-72504380D01*
X142009523Y-72504380D02*
X142009523Y-71504380D01*
X141438095Y-72504380D01*
X141438095Y-71504380D01*
X141057142Y-71504380D02*
X140390476Y-71504380D01*
X140819047Y-72504380D01*
X117181826Y-72695005D02*
X116845108Y-72358287D01*
X116138002Y-73065394D01*
X117047139Y-73301096D02*
X117282841Y-73536798D01*
X117754246Y-73267424D02*
X117417528Y-72930707D01*
X116710421Y-73637814D01*
X117047139Y-73974531D01*
X118057292Y-73570470D02*
X117350185Y-74277577D01*
X117518543Y-74445936D01*
X117653231Y-74513279D01*
X117787918Y-74513279D01*
X117888933Y-74479608D01*
X118057292Y-74378592D01*
X118158307Y-74277577D01*
X118259322Y-74109218D01*
X118292994Y-74008203D01*
X118292994Y-73873516D01*
X118225650Y-73738829D01*
X118057292Y-73570470D01*
X117989948Y-74917340D02*
X118461353Y-75388745D01*
X118865414Y-74378592D01*
X189558726Y-114750892D02*
X189118784Y-114568662D01*
X188736100Y-115492541D01*
X189666233Y-115362390D02*
X189974193Y-115489951D01*
X190306629Y-115060683D02*
X189866686Y-114878453D01*
X189484003Y-115802332D01*
X189923945Y-115984563D01*
X190702577Y-115224690D02*
X190319894Y-116148570D01*
X190539865Y-116239685D01*
X190690071Y-116250360D01*
X190814505Y-116198817D01*
X190894946Y-116129052D01*
X191011832Y-115971298D01*
X191066501Y-115839315D01*
X191095399Y-115645115D01*
X191087851Y-115538903D01*
X191036308Y-115414469D01*
X190922549Y-115315805D01*
X190702577Y-115224690D01*
X192110394Y-115807827D02*
X191582462Y-115589151D01*
X191846428Y-115698489D02*
X191463745Y-116622368D01*
X191430425Y-116453940D01*
X191378883Y-116329505D01*
X191309117Y-116249065D01*
X192519607Y-117059721D02*
X192343630Y-116986829D01*
X192273864Y-116906389D01*
X192248093Y-116844171D01*
X192214774Y-116675742D01*
X192243672Y-116481542D01*
X192389456Y-116129588D01*
X192469896Y-116059823D01*
X192532113Y-116034051D01*
X192638325Y-116026503D01*
X192814302Y-116099395D01*
X192884067Y-116179836D01*
X192909839Y-116242053D01*
X192917387Y-116348264D01*
X192826272Y-116568236D01*
X192745831Y-116638001D01*
X192683614Y-116663773D01*
X192577403Y-116671321D01*
X192401426Y-116598429D01*
X192331660Y-116517988D01*
X192305889Y-116455771D01*
X192298341Y-116349560D01*
X164685714Y-74204380D02*
X164019047Y-75204380D01*
X164019047Y-74204380D02*
X164685714Y-75204380D01*
X163685714Y-75156761D02*
X163542857Y-75204380D01*
X163304761Y-75204380D01*
X163209523Y-75156761D01*
X163161904Y-75109142D01*
X163114285Y-75013904D01*
X163114285Y-74918666D01*
X163161904Y-74823428D01*
X163209523Y-74775809D01*
X163304761Y-74728190D01*
X163495238Y-74680571D01*
X163590476Y-74632952D01*
X163638095Y-74585333D01*
X163685714Y-74490095D01*
X163685714Y-74394857D01*
X163638095Y-74299619D01*
X163590476Y-74252000D01*
X163495238Y-74204380D01*
X163257142Y-74204380D01*
X163114285Y-74252000D01*
X162685714Y-75204380D02*
X162685714Y-74204380D01*
X162447619Y-74204380D01*
X162304761Y-74252000D01*
X162209523Y-74347238D01*
X162161904Y-74442476D01*
X162114285Y-74632952D01*
X162114285Y-74775809D01*
X162161904Y-74966285D01*
X162209523Y-75061523D01*
X162304761Y-75156761D01*
X162447619Y-75204380D01*
X162685714Y-75204380D01*
X161685714Y-75204380D02*
X161685714Y-74204380D01*
X161114285Y-75204380D01*
X161114285Y-74204380D01*
X160114285Y-75204380D02*
X160685714Y-75204380D01*
X160400000Y-75204380D02*
X160400000Y-74204380D01*
X160495238Y-74347238D01*
X160590476Y-74442476D01*
X160685714Y-74490095D01*
X159161904Y-75204380D02*
X159733333Y-75204380D01*
X159447619Y-75204380D02*
X159447619Y-74204380D01*
X159542857Y-74347238D01*
X159638095Y-74442476D01*
X159733333Y-74490095D01*
X158981172Y-104814946D02*
X159351242Y-105114623D01*
X158783869Y-104226254D02*
X158981172Y-104814946D01*
X158364322Y-104744351D01*
X158602051Y-106039796D02*
X158961663Y-105595713D01*
X158781857Y-105817755D02*
X158004711Y-105188434D01*
X158175667Y-105204323D01*
X158309616Y-105190245D01*
X158406558Y-105146198D01*
X179495105Y-69033585D02*
X179831823Y-68696867D01*
X179124716Y-67989761D01*
X178889014Y-68898898D02*
X178653312Y-69134600D01*
X178922686Y-69606005D02*
X179259403Y-69269287D01*
X178552296Y-68562180D01*
X178215579Y-68898898D01*
X178619640Y-69909051D02*
X177912533Y-69201944D01*
X177744174Y-69370302D01*
X177676831Y-69504990D01*
X177676831Y-69639677D01*
X177710502Y-69740692D01*
X177811518Y-69909051D01*
X177912533Y-70010066D01*
X178080892Y-70111081D01*
X178181907Y-70144753D01*
X178316594Y-70144753D01*
X178451281Y-70077409D01*
X178619640Y-69909051D01*
X177272770Y-69841707D02*
X176835037Y-70279440D01*
X177340113Y-70313112D01*
X177239098Y-70414127D01*
X177205426Y-70515142D01*
X177205426Y-70582486D01*
X177239098Y-70683501D01*
X177407457Y-70851860D01*
X177508472Y-70885531D01*
X177575815Y-70885531D01*
X177676831Y-70851860D01*
X177878861Y-70649829D01*
X177912533Y-70548814D01*
X177912533Y-70481470D01*
X130856434Y-62373174D02*
X130674204Y-61933231D01*
X129750324Y-62315914D01*
X130500058Y-62881587D02*
X130627619Y-63189547D01*
X131166225Y-63121076D02*
X130983995Y-62681133D01*
X130060116Y-63063817D01*
X130242346Y-63503760D01*
X131330233Y-63517024D02*
X130406353Y-63899708D01*
X130497468Y-64119679D01*
X130596131Y-64233439D01*
X130720566Y-64284981D01*
X130826778Y-64292530D01*
X131020978Y-64263632D01*
X131152960Y-64208963D01*
X131310714Y-64092076D01*
X131380480Y-64011636D01*
X131432022Y-63887202D01*
X131421348Y-63736996D01*
X131330233Y-63517024D01*
X130953044Y-65219536D02*
X130880152Y-65043559D01*
X130887700Y-64937347D01*
X130913471Y-64875130D01*
X131009008Y-64732472D01*
X131166762Y-64615586D01*
X131518716Y-64469802D01*
X131624927Y-64477350D01*
X131687145Y-64503121D01*
X131767585Y-64572887D01*
X131840477Y-64748864D01*
X131832929Y-64855075D01*
X131807158Y-64917293D01*
X131737392Y-64997733D01*
X131517421Y-65088848D01*
X131411209Y-65081300D01*
X131348992Y-65055529D01*
X131268552Y-64985763D01*
X131195660Y-64809786D01*
X131203208Y-64703575D01*
X131228979Y-64641357D01*
X131298745Y-64560917D01*
X151238095Y-94052380D02*
X151238095Y-94861904D01*
X151190476Y-94957142D01*
X151142857Y-95004761D01*
X151047619Y-95052380D01*
X150857142Y-95052380D01*
X150761904Y-95004761D01*
X150714285Y-94957142D01*
X150666666Y-94861904D01*
X150666666Y-94052380D01*
X149666666Y-95052380D02*
X150238095Y-95052380D01*
X149952380Y-95052380D02*
X149952380Y-94052380D01*
X150047619Y-94195238D01*
X150142857Y-94290476D01*
X150238095Y-94338095D01*
X149095238Y-94480952D02*
X149190476Y-94433333D01*
X149238095Y-94385714D01*
X149285714Y-94290476D01*
X149285714Y-94242857D01*
X149238095Y-94147619D01*
X149190476Y-94100000D01*
X149095238Y-94052380D01*
X148904761Y-94052380D01*
X148809523Y-94100000D01*
X148761904Y-94147619D01*
X148714285Y-94242857D01*
X148714285Y-94290476D01*
X148761904Y-94385714D01*
X148809523Y-94433333D01*
X148904761Y-94480952D01*
X149095238Y-94480952D01*
X149190476Y-94528571D01*
X149238095Y-94576190D01*
X149285714Y-94671428D01*
X149285714Y-94861904D01*
X149238095Y-94957142D01*
X149190476Y-95004761D01*
X149095238Y-95052380D01*
X148904761Y-95052380D01*
X148809523Y-95004761D01*
X148761904Y-94957142D01*
X148714285Y-94861904D01*
X148714285Y-94671428D01*
X148761904Y-94576190D01*
X148809523Y-94528571D01*
X148904761Y-94480952D01*
X176085714Y-84904380D02*
X175419047Y-85904380D01*
X175419047Y-84904380D02*
X176085714Y-85904380D01*
X175085714Y-85856761D02*
X174942857Y-85904380D01*
X174704761Y-85904380D01*
X174609523Y-85856761D01*
X174561904Y-85809142D01*
X174514285Y-85713904D01*
X174514285Y-85618666D01*
X174561904Y-85523428D01*
X174609523Y-85475809D01*
X174704761Y-85428190D01*
X174895238Y-85380571D01*
X174990476Y-85332952D01*
X175038095Y-85285333D01*
X175085714Y-85190095D01*
X175085714Y-85094857D01*
X175038095Y-84999619D01*
X174990476Y-84952000D01*
X174895238Y-84904380D01*
X174657142Y-84904380D01*
X174514285Y-84952000D01*
X174085714Y-85904380D02*
X174085714Y-84904380D01*
X173847619Y-84904380D01*
X173704761Y-84952000D01*
X173609523Y-85047238D01*
X173561904Y-85142476D01*
X173514285Y-85332952D01*
X173514285Y-85475809D01*
X173561904Y-85666285D01*
X173609523Y-85761523D01*
X173704761Y-85856761D01*
X173847619Y-85904380D01*
X174085714Y-85904380D01*
X173085714Y-85904380D02*
X173085714Y-84904380D01*
X172514285Y-85904380D01*
X172514285Y-84904380D01*
X171514285Y-85904380D02*
X172085714Y-85904380D01*
X171800000Y-85904380D02*
X171800000Y-84904380D01*
X171895238Y-85047238D01*
X171990476Y-85142476D01*
X172085714Y-85190095D01*
X171180952Y-84904380D02*
X170561904Y-84904380D01*
X170895238Y-85285333D01*
X170752380Y-85285333D01*
X170657142Y-85332952D01*
X170609523Y-85380571D01*
X170561904Y-85475809D01*
X170561904Y-85713904D01*
X170609523Y-85809142D01*
X170657142Y-85856761D01*
X170752380Y-85904380D01*
X171038095Y-85904380D01*
X171133333Y-85856761D01*
X171180952Y-85809142D01*
X178085714Y-91804380D02*
X177419047Y-92804380D01*
X177419047Y-91804380D02*
X178085714Y-92804380D01*
X177085714Y-92756761D02*
X176942857Y-92804380D01*
X176704761Y-92804380D01*
X176609523Y-92756761D01*
X176561904Y-92709142D01*
X176514285Y-92613904D01*
X176514285Y-92518666D01*
X176561904Y-92423428D01*
X176609523Y-92375809D01*
X176704761Y-92328190D01*
X176895238Y-92280571D01*
X176990476Y-92232952D01*
X177038095Y-92185333D01*
X177085714Y-92090095D01*
X177085714Y-91994857D01*
X177038095Y-91899619D01*
X176990476Y-91852000D01*
X176895238Y-91804380D01*
X176657142Y-91804380D01*
X176514285Y-91852000D01*
X176085714Y-92804380D02*
X176085714Y-91804380D01*
X175847619Y-91804380D01*
X175704761Y-91852000D01*
X175609523Y-91947238D01*
X175561904Y-92042476D01*
X175514285Y-92232952D01*
X175514285Y-92375809D01*
X175561904Y-92566285D01*
X175609523Y-92661523D01*
X175704761Y-92756761D01*
X175847619Y-92804380D01*
X176085714Y-92804380D01*
X175085714Y-92804380D02*
X175085714Y-91804380D01*
X174514285Y-92804380D01*
X174514285Y-91804380D01*
X173514285Y-92804380D02*
X174085714Y-92804380D01*
X173800000Y-92804380D02*
X173800000Y-91804380D01*
X173895238Y-91947238D01*
X173990476Y-92042476D01*
X174085714Y-92090095D01*
X172609523Y-91804380D02*
X173085714Y-91804380D01*
X173133333Y-92280571D01*
X173085714Y-92232952D01*
X172990476Y-92185333D01*
X172752380Y-92185333D01*
X172657142Y-92232952D01*
X172609523Y-92280571D01*
X172561904Y-92375809D01*
X172561904Y-92613904D01*
X172609523Y-92709142D01*
X172657142Y-92756761D01*
X172752380Y-92804380D01*
X172990476Y-92804380D01*
X173085714Y-92756761D01*
X173133333Y-92709142D01*
X189875913Y-82841029D02*
X190315856Y-82658799D01*
X189933173Y-81734919D01*
X189367500Y-82484653D02*
X189059540Y-82612214D01*
X189128011Y-83150820D02*
X189567954Y-82968590D01*
X189185270Y-82044711D01*
X188745327Y-82226941D01*
X188732063Y-83314828D02*
X188349379Y-82390948D01*
X188129408Y-82482063D01*
X188015648Y-82580726D01*
X187964106Y-82705161D01*
X187956557Y-82811373D01*
X187985455Y-83005573D01*
X188040124Y-83137555D01*
X188157011Y-83295309D01*
X188237451Y-83365075D01*
X188361885Y-83416617D01*
X188512091Y-83405943D01*
X188732063Y-83314828D01*
X187505940Y-82843397D02*
X187443723Y-82817626D01*
X187337511Y-82810077D01*
X187117540Y-82901193D01*
X187047774Y-82981633D01*
X187022003Y-83043850D01*
X187014455Y-83150062D01*
X187050901Y-83238050D01*
X187149564Y-83351810D01*
X187896172Y-83661065D01*
X187324246Y-83897964D01*
X125009523Y-110204380D02*
X124342857Y-111204380D01*
X124342857Y-110204380D02*
X125009523Y-111204380D01*
X124009523Y-111156761D02*
X123866666Y-111204380D01*
X123628571Y-111204380D01*
X123533333Y-111156761D01*
X123485714Y-111109142D01*
X123438095Y-111013904D01*
X123438095Y-110918666D01*
X123485714Y-110823428D01*
X123533333Y-110775809D01*
X123628571Y-110728190D01*
X123819047Y-110680571D01*
X123914285Y-110632952D01*
X123961904Y-110585333D01*
X124009523Y-110490095D01*
X124009523Y-110394857D01*
X123961904Y-110299619D01*
X123914285Y-110252000D01*
X123819047Y-110204380D01*
X123580952Y-110204380D01*
X123438095Y-110252000D01*
X123009523Y-111204380D02*
X123009523Y-110204380D01*
X122771428Y-110204380D01*
X122628571Y-110252000D01*
X122533333Y-110347238D01*
X122485714Y-110442476D01*
X122438095Y-110632952D01*
X122438095Y-110775809D01*
X122485714Y-110966285D01*
X122533333Y-111061523D01*
X122628571Y-111156761D01*
X122771428Y-111204380D01*
X123009523Y-111204380D01*
X122009523Y-111204380D02*
X122009523Y-110204380D01*
X121438095Y-111204380D01*
X121438095Y-110204380D01*
X120914285Y-111204380D02*
X120723809Y-111204380D01*
X120628571Y-111156761D01*
X120580952Y-111109142D01*
X120485714Y-110966285D01*
X120438095Y-110775809D01*
X120438095Y-110394857D01*
X120485714Y-110299619D01*
X120533333Y-110252000D01*
X120628571Y-110204380D01*
X120819047Y-110204380D01*
X120914285Y-110252000D01*
X120961904Y-110299619D01*
X121009523Y-110394857D01*
X121009523Y-110632952D01*
X120961904Y-110728190D01*
X120914285Y-110775809D01*
X120819047Y-110823428D01*
X120628571Y-110823428D01*
X120533333Y-110775809D01*
X120485714Y-110728190D01*
X120438095Y-110632952D01*
X136885714Y-128552380D02*
X136219047Y-129552380D01*
X136219047Y-128552380D02*
X136885714Y-129552380D01*
X135885714Y-129504761D02*
X135742857Y-129552380D01*
X135504761Y-129552380D01*
X135409523Y-129504761D01*
X135361904Y-129457142D01*
X135314285Y-129361904D01*
X135314285Y-129266666D01*
X135361904Y-129171428D01*
X135409523Y-129123809D01*
X135504761Y-129076190D01*
X135695238Y-129028571D01*
X135790476Y-128980952D01*
X135838095Y-128933333D01*
X135885714Y-128838095D01*
X135885714Y-128742857D01*
X135838095Y-128647619D01*
X135790476Y-128600000D01*
X135695238Y-128552380D01*
X135457142Y-128552380D01*
X135314285Y-128600000D01*
X134885714Y-129552380D02*
X134885714Y-128552380D01*
X134647619Y-128552380D01*
X134504761Y-128600000D01*
X134409523Y-128695238D01*
X134361904Y-128790476D01*
X134314285Y-128980952D01*
X134314285Y-129123809D01*
X134361904Y-129314285D01*
X134409523Y-129409523D01*
X134504761Y-129504761D01*
X134647619Y-129552380D01*
X134885714Y-129552380D01*
X133885714Y-129552380D02*
X133885714Y-128552380D01*
X133314285Y-129552380D01*
X133314285Y-128552380D01*
X132314285Y-129552380D02*
X132885714Y-129552380D01*
X132600000Y-129552380D02*
X132600000Y-128552380D01*
X132695238Y-128695238D01*
X132790476Y-128790476D01*
X132885714Y-128838095D01*
X131457142Y-128885714D02*
X131457142Y-129552380D01*
X131695238Y-128504761D02*
X131933333Y-129219047D01*
X131314285Y-129219047D01*
X137249107Y-141558726D02*
X137431337Y-141118784D01*
X136507458Y-140736100D01*
X136637609Y-141666233D02*
X136510048Y-141974193D01*
X136939316Y-142306629D02*
X137121546Y-141866686D01*
X136197667Y-141484003D01*
X136015436Y-141923945D01*
X136775309Y-142702577D02*
X135851429Y-142319894D01*
X135760314Y-142539865D01*
X135749639Y-142690071D01*
X135801182Y-142814505D01*
X135870947Y-142894946D01*
X136028701Y-143011832D01*
X136160684Y-143066501D01*
X136354884Y-143095399D01*
X136461096Y-143087851D01*
X136585530Y-143036308D01*
X136684194Y-142922549D01*
X136775309Y-142702577D01*
X136192172Y-144110394D02*
X136410848Y-143582462D01*
X136301510Y-143846428D02*
X135377631Y-143463745D01*
X135546059Y-143430425D01*
X135670494Y-143378883D01*
X135750934Y-143309117D01*
X135210497Y-144116110D02*
X135148280Y-144141882D01*
X135067839Y-144211647D01*
X134976724Y-144431618D01*
X134984272Y-144537830D01*
X135010044Y-144600047D01*
X135079809Y-144680488D01*
X135167798Y-144716934D01*
X135318003Y-144727608D01*
X136064611Y-144418353D01*
X135827712Y-144990279D01*
X180109523Y-104104380D02*
X179442857Y-105104380D01*
X179442857Y-104104380D02*
X180109523Y-105104380D01*
X179109523Y-105056761D02*
X178966666Y-105104380D01*
X178728571Y-105104380D01*
X178633333Y-105056761D01*
X178585714Y-105009142D01*
X178538095Y-104913904D01*
X178538095Y-104818666D01*
X178585714Y-104723428D01*
X178633333Y-104675809D01*
X178728571Y-104628190D01*
X178919047Y-104580571D01*
X179014285Y-104532952D01*
X179061904Y-104485333D01*
X179109523Y-104390095D01*
X179109523Y-104294857D01*
X179061904Y-104199619D01*
X179014285Y-104152000D01*
X178919047Y-104104380D01*
X178680952Y-104104380D01*
X178538095Y-104152000D01*
X178109523Y-105104380D02*
X178109523Y-104104380D01*
X177871428Y-104104380D01*
X177728571Y-104152000D01*
X177633333Y-104247238D01*
X177585714Y-104342476D01*
X177538095Y-104532952D01*
X177538095Y-104675809D01*
X177585714Y-104866285D01*
X177633333Y-104961523D01*
X177728571Y-105056761D01*
X177871428Y-105104380D01*
X178109523Y-105104380D01*
X177109523Y-105104380D02*
X177109523Y-104104380D01*
X176538095Y-105104380D01*
X176538095Y-104104380D01*
X175633333Y-104104380D02*
X175823809Y-104104380D01*
X175919047Y-104152000D01*
X175966666Y-104199619D01*
X176061904Y-104342476D01*
X176109523Y-104532952D01*
X176109523Y-104913904D01*
X176061904Y-105009142D01*
X176014285Y-105056761D01*
X175919047Y-105104380D01*
X175728571Y-105104380D01*
X175633333Y-105056761D01*
X175585714Y-105009142D01*
X175538095Y-104913904D01*
X175538095Y-104675809D01*
X175585714Y-104580571D01*
X175633333Y-104532952D01*
X175728571Y-104485333D01*
X175919047Y-104485333D01*
X176014285Y-104532952D01*
X176061904Y-104580571D01*
X176109523Y-104675809D01*
X164625495Y-60279837D02*
X164807725Y-59839894D01*
X163883846Y-59457211D01*
X164013997Y-60387344D02*
X163886436Y-60695303D01*
X164315704Y-61027739D02*
X164497934Y-60587797D01*
X163574054Y-60205113D01*
X163391824Y-60645056D01*
X164151696Y-61423688D02*
X163227817Y-61041004D01*
X163136702Y-61260976D01*
X163126027Y-61411182D01*
X163177570Y-61535616D01*
X163247335Y-61616056D01*
X163405089Y-61732943D01*
X163537072Y-61787612D01*
X163731272Y-61816510D01*
X163837483Y-61808961D01*
X163961918Y-61757419D01*
X164060581Y-61643659D01*
X164151696Y-61423688D01*
X162989086Y-62488393D02*
X163605006Y-62743516D01*
X162728247Y-62122638D02*
X163479276Y-62176012D01*
X163242377Y-62747937D01*
X108114047Y-105412380D02*
X108590238Y-105412380D01*
X108590238Y-104412380D01*
X107780714Y-104888571D02*
X107447380Y-104888571D01*
X107304523Y-105412380D02*
X107780714Y-105412380D01*
X107780714Y-104412380D01*
X107304523Y-104412380D01*
X106875952Y-105412380D02*
X106875952Y-104412380D01*
X106637857Y-104412380D01*
X106495000Y-104460000D01*
X106399761Y-104555238D01*
X106352142Y-104650476D01*
X106304523Y-104840952D01*
X106304523Y-104983809D01*
X106352142Y-105174285D01*
X106399761Y-105269523D01*
X106495000Y-105364761D01*
X106637857Y-105412380D01*
X106875952Y-105412380D01*
X105828333Y-105412380D02*
X105637857Y-105412380D01*
X105542619Y-105364761D01*
X105495000Y-105317142D01*
X105399761Y-105174285D01*
X105352142Y-104983809D01*
X105352142Y-104602857D01*
X105399761Y-104507619D01*
X105447380Y-104460000D01*
X105542619Y-104412380D01*
X105733095Y-104412380D01*
X105828333Y-104460000D01*
X105875952Y-104507619D01*
X105923571Y-104602857D01*
X105923571Y-104840952D01*
X105875952Y-104936190D01*
X105828333Y-104983809D01*
X105733095Y-105031428D01*
X105542619Y-105031428D01*
X105447380Y-104983809D01*
X105399761Y-104936190D01*
X105352142Y-104840952D01*
X176109523Y-109004380D02*
X175442857Y-110004380D01*
X175442857Y-109004380D02*
X176109523Y-110004380D01*
X175109523Y-109956761D02*
X174966666Y-110004380D01*
X174728571Y-110004380D01*
X174633333Y-109956761D01*
X174585714Y-109909142D01*
X174538095Y-109813904D01*
X174538095Y-109718666D01*
X174585714Y-109623428D01*
X174633333Y-109575809D01*
X174728571Y-109528190D01*
X174919047Y-109480571D01*
X175014285Y-109432952D01*
X175061904Y-109385333D01*
X175109523Y-109290095D01*
X175109523Y-109194857D01*
X175061904Y-109099619D01*
X175014285Y-109052000D01*
X174919047Y-109004380D01*
X174680952Y-109004380D01*
X174538095Y-109052000D01*
X174109523Y-110004380D02*
X174109523Y-109004380D01*
X173871428Y-109004380D01*
X173728571Y-109052000D01*
X173633333Y-109147238D01*
X173585714Y-109242476D01*
X173538095Y-109432952D01*
X173538095Y-109575809D01*
X173585714Y-109766285D01*
X173633333Y-109861523D01*
X173728571Y-109956761D01*
X173871428Y-110004380D01*
X174109523Y-110004380D01*
X173109523Y-110004380D02*
X173109523Y-109004380D01*
X172538095Y-110004380D01*
X172538095Y-109004380D01*
X171538095Y-110004380D02*
X172109523Y-110004380D01*
X171823809Y-110004380D02*
X171823809Y-109004380D01*
X171919047Y-109147238D01*
X172014285Y-109242476D01*
X172109523Y-109290095D01*
X162309523Y-127104380D02*
X161642857Y-128104380D01*
X161642857Y-127104380D02*
X162309523Y-128104380D01*
X161309523Y-128056761D02*
X161166666Y-128104380D01*
X160928571Y-128104380D01*
X160833333Y-128056761D01*
X160785714Y-128009142D01*
X160738095Y-127913904D01*
X160738095Y-127818666D01*
X160785714Y-127723428D01*
X160833333Y-127675809D01*
X160928571Y-127628190D01*
X161119047Y-127580571D01*
X161214285Y-127532952D01*
X161261904Y-127485333D01*
X161309523Y-127390095D01*
X161309523Y-127294857D01*
X161261904Y-127199619D01*
X161214285Y-127152000D01*
X161119047Y-127104380D01*
X160880952Y-127104380D01*
X160738095Y-127152000D01*
X160309523Y-128104380D02*
X160309523Y-127104380D01*
X160071428Y-127104380D01*
X159928571Y-127152000D01*
X159833333Y-127247238D01*
X159785714Y-127342476D01*
X159738095Y-127532952D01*
X159738095Y-127675809D01*
X159785714Y-127866285D01*
X159833333Y-127961523D01*
X159928571Y-128056761D01*
X160071428Y-128104380D01*
X160309523Y-128104380D01*
X159309523Y-128104380D02*
X159309523Y-127104380D01*
X158738095Y-128104380D01*
X158738095Y-127104380D01*
X157785714Y-127104380D02*
X158261904Y-127104380D01*
X158309523Y-127580571D01*
X158261904Y-127532952D01*
X158166666Y-127485333D01*
X157928571Y-127485333D01*
X157833333Y-127532952D01*
X157785714Y-127580571D01*
X157738095Y-127675809D01*
X157738095Y-127913904D01*
X157785714Y-128009142D01*
X157833333Y-128056761D01*
X157928571Y-128104380D01*
X158166666Y-128104380D01*
X158261904Y-128056761D01*
X158309523Y-128009142D01*
X113077996Y-121056149D02*
X113517939Y-120873919D01*
X113135255Y-119950039D01*
X112569583Y-120699773D02*
X112261623Y-120827334D01*
X112330094Y-121365940D02*
X112770036Y-121183710D01*
X112387353Y-120259830D01*
X111947410Y-120442061D01*
X111934145Y-121529947D02*
X111551462Y-120606068D01*
X111331490Y-120697183D01*
X111217731Y-120795846D01*
X111166188Y-120920281D01*
X111158640Y-121026492D01*
X111187538Y-121220692D01*
X111242207Y-121352675D01*
X111359093Y-121510429D01*
X111439533Y-121580195D01*
X111563968Y-121631737D01*
X111714174Y-121621062D01*
X111934145Y-121529947D01*
X110526329Y-122113084D02*
X111054260Y-121894408D01*
X110790294Y-122003746D02*
X110407611Y-121079866D01*
X110550268Y-121175403D01*
X110674703Y-121226946D01*
X110780915Y-121234494D01*
X109571720Y-121426104D02*
X109483731Y-121462550D01*
X109413966Y-121542990D01*
X109388195Y-121605207D01*
X109380646Y-121711419D01*
X109409544Y-121905619D01*
X109500659Y-122125590D01*
X109617546Y-122283344D01*
X109697986Y-122353110D01*
X109760203Y-122378881D01*
X109866415Y-122386429D01*
X109954403Y-122349983D01*
X110024169Y-122269543D01*
X110049940Y-122207326D01*
X110057488Y-122101114D01*
X110028590Y-121906914D01*
X109937475Y-121686943D01*
X109820589Y-121529189D01*
X109740149Y-121459423D01*
X109677931Y-121433652D01*
X109571720Y-121426104D01*
X153409523Y-68804380D02*
X152742857Y-69804380D01*
X152742857Y-68804380D02*
X153409523Y-69804380D01*
X152409523Y-69756761D02*
X152266666Y-69804380D01*
X152028571Y-69804380D01*
X151933333Y-69756761D01*
X151885714Y-69709142D01*
X151838095Y-69613904D01*
X151838095Y-69518666D01*
X151885714Y-69423428D01*
X151933333Y-69375809D01*
X152028571Y-69328190D01*
X152219047Y-69280571D01*
X152314285Y-69232952D01*
X152361904Y-69185333D01*
X152409523Y-69090095D01*
X152409523Y-68994857D01*
X152361904Y-68899619D01*
X152314285Y-68852000D01*
X152219047Y-68804380D01*
X151980952Y-68804380D01*
X151838095Y-68852000D01*
X151409523Y-69804380D02*
X151409523Y-68804380D01*
X151171428Y-68804380D01*
X151028571Y-68852000D01*
X150933333Y-68947238D01*
X150885714Y-69042476D01*
X150838095Y-69232952D01*
X150838095Y-69375809D01*
X150885714Y-69566285D01*
X150933333Y-69661523D01*
X151028571Y-69756761D01*
X151171428Y-69804380D01*
X151409523Y-69804380D01*
X150409523Y-69804380D02*
X150409523Y-68804380D01*
X149838095Y-69804380D01*
X149838095Y-68804380D01*
X149219047Y-69232952D02*
X149314285Y-69185333D01*
X149361904Y-69137714D01*
X149409523Y-69042476D01*
X149409523Y-68994857D01*
X149361904Y-68899619D01*
X149314285Y-68852000D01*
X149219047Y-68804380D01*
X149028571Y-68804380D01*
X148933333Y-68852000D01*
X148885714Y-68899619D01*
X148838095Y-68994857D01*
X148838095Y-69042476D01*
X148885714Y-69137714D01*
X148933333Y-69185333D01*
X149028571Y-69232952D01*
X149219047Y-69232952D01*
X149314285Y-69280571D01*
X149361904Y-69328190D01*
X149409523Y-69423428D01*
X149409523Y-69613904D01*
X149361904Y-69709142D01*
X149314285Y-69756761D01*
X149219047Y-69804380D01*
X149028571Y-69804380D01*
X148933333Y-69756761D01*
X148885714Y-69709142D01*
X148838095Y-69613904D01*
X148838095Y-69423428D01*
X148885714Y-69328190D01*
X148933333Y-69280571D01*
X149028571Y-69232952D01*
X129766666Y-105404761D02*
X129623809Y-105452380D01*
X129385714Y-105452380D01*
X129290476Y-105404761D01*
X129242857Y-105357142D01*
X129195238Y-105261904D01*
X129195238Y-105166666D01*
X129242857Y-105071428D01*
X129290476Y-105023809D01*
X129385714Y-104976190D01*
X129576190Y-104928571D01*
X129671428Y-104880952D01*
X129719047Y-104833333D01*
X129766666Y-104738095D01*
X129766666Y-104642857D01*
X129719047Y-104547619D01*
X129671428Y-104500000D01*
X129576190Y-104452380D01*
X129338095Y-104452380D01*
X129195238Y-104500000D01*
X128195238Y-105357142D02*
X128242857Y-105404761D01*
X128385714Y-105452380D01*
X128480952Y-105452380D01*
X128623809Y-105404761D01*
X128719047Y-105309523D01*
X128766666Y-105214285D01*
X128814285Y-105023809D01*
X128814285Y-104880952D01*
X128766666Y-104690476D01*
X128719047Y-104595238D01*
X128623809Y-104500000D01*
X128480952Y-104452380D01*
X128385714Y-104452380D01*
X128242857Y-104500000D01*
X128195238Y-104547619D01*
X127290476Y-105452380D02*
X127766666Y-105452380D01*
X127766666Y-104452380D01*
X126433333Y-105452380D02*
X127004761Y-105452380D01*
X126719047Y-105452380D02*
X126719047Y-104452380D01*
X126814285Y-104595238D01*
X126909523Y-104690476D01*
X127004761Y-104738095D01*
X181711887Y-128857103D02*
X181375170Y-128520386D01*
X180668063Y-129227492D01*
X181577200Y-129463195D02*
X181812903Y-129698897D01*
X182284307Y-129429523D02*
X181947590Y-129092805D01*
X181240483Y-129799912D01*
X181577200Y-130136630D01*
X182587353Y-129732569D02*
X181880246Y-130439676D01*
X182048605Y-130608034D01*
X182183292Y-130675378D01*
X182317979Y-130675378D01*
X182418994Y-130641706D01*
X182587353Y-130540691D01*
X182688368Y-130439676D01*
X182789384Y-130271317D01*
X182823055Y-130170301D01*
X182823055Y-130035614D01*
X182755712Y-129900927D01*
X182587353Y-129732569D01*
X183664849Y-130810065D02*
X183260788Y-130406004D01*
X183462819Y-130608034D02*
X182755712Y-131315141D01*
X182789384Y-131146782D01*
X182789384Y-131012095D01*
X182755712Y-130911080D01*
X183597506Y-132156935D02*
X183260788Y-131820217D01*
X183563834Y-131449828D01*
X183563834Y-131517172D01*
X183597506Y-131618187D01*
X183765864Y-131786546D01*
X183866880Y-131820217D01*
X183934223Y-131820217D01*
X184035238Y-131786546D01*
X184203597Y-131618187D01*
X184237269Y-131517172D01*
X184237269Y-131449828D01*
X184203597Y-131348813D01*
X184035238Y-131180454D01*
X183934223Y-131146782D01*
X183866880Y-131146782D01*
X121709523Y-97804380D02*
X121042857Y-98804380D01*
X121042857Y-97804380D02*
X121709523Y-98804380D01*
X120709523Y-98756761D02*
X120566666Y-98804380D01*
X120328571Y-98804380D01*
X120233333Y-98756761D01*
X120185714Y-98709142D01*
X120138095Y-98613904D01*
X120138095Y-98518666D01*
X120185714Y-98423428D01*
X120233333Y-98375809D01*
X120328571Y-98328190D01*
X120519047Y-98280571D01*
X120614285Y-98232952D01*
X120661904Y-98185333D01*
X120709523Y-98090095D01*
X120709523Y-97994857D01*
X120661904Y-97899619D01*
X120614285Y-97852000D01*
X120519047Y-97804380D01*
X120280952Y-97804380D01*
X120138095Y-97852000D01*
X119709523Y-98804380D02*
X119709523Y-97804380D01*
X119471428Y-97804380D01*
X119328571Y-97852000D01*
X119233333Y-97947238D01*
X119185714Y-98042476D01*
X119138095Y-98232952D01*
X119138095Y-98375809D01*
X119185714Y-98566285D01*
X119233333Y-98661523D01*
X119328571Y-98756761D01*
X119471428Y-98804380D01*
X119709523Y-98804380D01*
X118709523Y-98804380D02*
X118709523Y-97804380D01*
X118138095Y-98804380D01*
X118138095Y-97804380D01*
X117233333Y-98137714D02*
X117233333Y-98804380D01*
X117471428Y-97756761D02*
X117709523Y-98471047D01*
X117090476Y-98471047D01*
X164593434Y-105575091D02*
X164660408Y-105568052D01*
X164787318Y-105486998D01*
X164847253Y-105412985D01*
X164900149Y-105271996D01*
X164886071Y-105138047D01*
X164842025Y-105041105D01*
X164723964Y-104884227D01*
X164612944Y-104794324D01*
X164434948Y-104711461D01*
X164330967Y-104688532D01*
X164197017Y-104702611D01*
X164070108Y-104783664D01*
X164010172Y-104857678D01*
X163957276Y-104998667D01*
X163964316Y-105065641D01*
X163724574Y-105361697D02*
X163657600Y-105368736D01*
X163560658Y-105412782D01*
X163410819Y-105597817D01*
X163387891Y-105701799D01*
X163394930Y-105768773D01*
X163438977Y-105865715D01*
X163512991Y-105925651D01*
X163653979Y-105978547D01*
X164457674Y-105894075D01*
X164068095Y-106375165D01*
X163010580Y-106621743D02*
X163528677Y-107041290D01*
X162864363Y-106196968D02*
X163569305Y-106461447D01*
X163179726Y-106942538D01*
D11*
X119368923Y-134479045D02*
X119258614Y-134368736D01*
X117731264Y-132841386D02*
X117620955Y-132731077D01*
X119368581Y-134478701D02*
G75*
G03*
X121543236Y-132082146I229445J1976727D01*
G01*
X120017854Y-130556762D02*
G75*
G03*
X117621297Y-132731419I-419828J-1945212D01*
G01*
X119570656Y-131002224D02*
G75*
G03*
X118098280Y-132474370I27370J-1499750D01*
G01*
X119625630Y-134001720D02*
G75*
G03*
X121097776Y-132529344I-27604J1499746D01*
G01*
X126200000Y-102500000D02*
G75*
G03*
X126200000Y-102500000I-700000J0D01*
G01*
X148920000Y-146565000D02*
X148764000Y-146565000D01*
X151236000Y-146565000D02*
X151080000Y-146565000D01*
X148921392Y-143332665D02*
G75*
G03*
X148764484Y-146565000I1078608J-1672335D01*
G01*
X151235516Y-146565000D02*
G75*
G03*
X151078608Y-143332665I-1235516J1560000D01*
G01*
X148920163Y-143963870D02*
G75*
G03*
X148920000Y-146045961I1079837J-1041130D01*
G01*
X151080000Y-146045961D02*
G75*
G03*
X151079837Y-143963870I-1080000J1040961D01*
G01*
X133500000Y-78800000D02*
G75*
G03*
X133500000Y-78800000I-700000J0D01*
G01*
X161615376Y-101354296D02*
X161842717Y-101538393D01*
X162257283Y-100561607D02*
X162484624Y-100745704D01*
X151080000Y-57335000D02*
X151236000Y-57335000D01*
X148764000Y-57335000D02*
X148920000Y-57335000D01*
X148920000Y-57854039D02*
G75*
G03*
X148920163Y-59936130I1080000J-1040961D01*
G01*
X148764484Y-57335000D02*
G75*
G03*
X148921392Y-60567335I1235516J-1560000D01*
G01*
X151079837Y-59936130D02*
G75*
G03*
X151080000Y-57854039I-1079837J1041130D01*
G01*
X151078608Y-60567335D02*
G75*
G03*
X151235516Y-57335000I-1078608J1672335D01*
G01*
X123300000Y-89000000D02*
G75*
G03*
X123300000Y-89000000I-700000J0D01*
G01*
X194565000Y-103180000D02*
X194565000Y-103336000D01*
X194565000Y-100864000D02*
X194565000Y-101020000D01*
X191332665Y-103178608D02*
G75*
G03*
X194565000Y-103335516I1672335J1078608D01*
G01*
X191963870Y-103179837D02*
G75*
G03*
X194045961Y-103180000I1041130J1079837D01*
G01*
X194045961Y-101020000D02*
G75*
G03*
X191963870Y-101020163I-1040961J-1080000D01*
G01*
X194565000Y-100864484D02*
G75*
G03*
X191332665Y-101021392I-1560000J-1235516D01*
G01*
X109220373Y-83919216D02*
X109280072Y-83775091D01*
X108334078Y-86058921D02*
X108393777Y-85914796D01*
X108334263Y-86058474D02*
G75*
G03*
X111380598Y-87150471I1914064J544482D01*
G01*
X112206129Y-85157463D02*
G75*
G03*
X109279886Y-83775538I-1957802J-356529D01*
G01*
X111623441Y-84914776D02*
G75*
G03*
X109699903Y-84117844I-1375114J-599216D01*
G01*
X108873307Y-86113423D02*
G75*
G03*
X110796970Y-86910054I1375020J599431D01*
G01*
X170200000Y-126100000D02*
G75*
G03*
X170200000Y-126100000I-700000J0D01*
G01*
X152000000Y-134300000D02*
G75*
G03*
X152000000Y-134300000I-700000J0D01*
G01*
X168177893Y-142694928D02*
X168033768Y-142754627D01*
X166038188Y-143581223D02*
X165894063Y-143640922D01*
X167835140Y-142275097D02*
G75*
G03*
X167038208Y-140351559I-1396148J548424D01*
G01*
X165042929Y-141178030D02*
G75*
G03*
X165839561Y-143101694I1396063J-548643D01*
G01*
X168177445Y-142695113D02*
G75*
G03*
X166795521Y-139768872I-1738453J968440D01*
G01*
X164802513Y-140594402D02*
G75*
G03*
X165894510Y-143640737I1636479J-1132271D01*
G01*
X143400000Y-73500000D02*
G75*
G03*
X143400000Y-73500000I-700000J0D01*
G01*
X117595955Y-71367362D02*
X117706264Y-71257053D01*
X119233614Y-69729703D02*
X119343923Y-69619394D01*
X121072776Y-71569095D02*
G75*
G03*
X119600630Y-70096719I-1499750J-27370D01*
G01*
X121518238Y-72016293D02*
G75*
G03*
X119343581Y-69619736I-1945212J419828D01*
G01*
X117596299Y-71367020D02*
G75*
G03*
X119992854Y-73541675I1976727J-229445D01*
G01*
X118073280Y-71624069D02*
G75*
G03*
X119545656Y-73096215I1499746J27604D01*
G01*
X191640922Y-117969063D02*
X191581223Y-118113188D01*
X190754627Y-120108768D02*
X190694928Y-120252893D01*
X187768871Y-118870521D02*
G75*
G03*
X190695114Y-120252446I1957802J356529D01*
G01*
X191640737Y-117969510D02*
G75*
G03*
X188594402Y-116877513I-1914064J-544482D01*
G01*
X188351559Y-119113208D02*
G75*
G03*
X190275097Y-119910140I1375114J599216D01*
G01*
X191101693Y-117914561D02*
G75*
G03*
X189178030Y-117117930I-1375020J-599431D01*
G01*
X162600000Y-76200000D02*
G75*
G03*
X162600000Y-76200000I-700000J0D01*
G01*
X157877653Y-103116259D02*
X159891478Y-100629392D01*
X159891478Y-100629392D02*
X162922347Y-103083741D01*
X182343736Y-71258614D02*
X182454045Y-71368923D01*
X180706077Y-69620955D02*
X180816386Y-69731264D01*
X180057146Y-73543238D02*
G75*
G03*
X182453703Y-71368581I419828J1945212D01*
G01*
X180504344Y-73097776D02*
G75*
G03*
X181976720Y-71625630I-27370J1499750D01*
G01*
X180706419Y-69621299D02*
G75*
G03*
X178531764Y-72017854I-229445J-1976727D01*
G01*
X180449370Y-70098280D02*
G75*
G03*
X178977224Y-71570656I27604J-1499746D01*
G01*
X133886812Y-60418777D02*
X134030937Y-60359078D01*
X131747107Y-61305072D02*
X131891232Y-61245373D01*
X134882071Y-62821970D02*
G75*
G03*
X134085439Y-60898306I-1396063J548643D01*
G01*
X131747555Y-61304887D02*
G75*
G03*
X133129479Y-64231128I1738453J-968440D01*
G01*
X132089860Y-61724903D02*
G75*
G03*
X132886792Y-63648441I1396148J-548424D01*
G01*
X135122487Y-63405598D02*
G75*
G03*
X134030490Y-60359263I-1636479J1132271D01*
G01*
X155110000Y-96890000D02*
X155110000Y-97840000D01*
X155110000Y-107110000D02*
X155110000Y-106160000D01*
X144890000Y-107110000D02*
X144890000Y-106160000D01*
X154160000Y-96890000D02*
X155110000Y-96890000D01*
X144890000Y-96890000D02*
X144890000Y-97840000D01*
X154160000Y-107110000D02*
X155110000Y-107110000D01*
X145840000Y-107110000D02*
X144890000Y-107110000D01*
X145840000Y-96890000D02*
X144890000Y-96890000D01*
X155110000Y-97840000D02*
X156450000Y-97840000D01*
X174000000Y-86900000D02*
G75*
G03*
X174000000Y-86900000I-700000J0D01*
G01*
X176000000Y-93800000D02*
G75*
G03*
X176000000Y-93800000I-700000J0D01*
G01*
X191656223Y-85986812D02*
X191715922Y-86130937D01*
X190769928Y-83847107D02*
X190829627Y-83991232D01*
X190350097Y-84189860D02*
G75*
G03*
X188426559Y-84986792I-548424J-1396148D01*
G01*
X190770113Y-83847555D02*
G75*
G03*
X187843872Y-85229479I-968440J-1738453D01*
G01*
X188669402Y-87222487D02*
G75*
G03*
X191715737Y-86130490I1132271J1636479D01*
G01*
X189253030Y-86982071D02*
G75*
G03*
X191176694Y-86185439I548643J1396063D01*
G01*
X123400000Y-112200000D02*
G75*
G03*
X123400000Y-112200000I-700000J0D01*
G01*
X138700000Y-130200000D02*
G75*
G03*
X138700000Y-130200000I-700000J0D01*
G01*
X131891232Y-142754627D02*
X131747107Y-142694928D01*
X134030937Y-143640922D02*
X133886812Y-143581223D01*
X133129479Y-139768871D02*
G75*
G03*
X131747554Y-142695114I356529J-1957802D01*
G01*
X132886792Y-140351559D02*
G75*
G03*
X132089860Y-142275097I599216J-1375114D01*
G01*
X134030490Y-143640737D02*
G75*
G03*
X135122487Y-140594402I-544482J1914064D01*
G01*
X134085439Y-143101693D02*
G75*
G03*
X134882070Y-141178030I-599431J1375020D01*
G01*
X178500000Y-106100000D02*
G75*
G03*
X178500000Y-106100000I-700000J0D01*
G01*
X165969063Y-60359078D02*
X166113188Y-60418777D01*
X168108768Y-61245373D02*
X168252893Y-61305072D01*
X166870521Y-64231129D02*
G75*
G03*
X168252446Y-61304886I-356529J1957802D01*
G01*
X165969510Y-60359263D02*
G75*
G03*
X164877513Y-63405598I544482J-1914064D01*
G01*
X167113208Y-63648441D02*
G75*
G03*
X167910140Y-61724903I-599216J1375114D01*
G01*
X165914561Y-60898307D02*
G75*
G03*
X165117930Y-62821970I599431J-1375020D01*
G01*
X105435000Y-100920000D02*
X105435000Y-100764000D01*
X105435000Y-103236000D02*
X105435000Y-103080000D01*
X105954039Y-103080000D02*
G75*
G03*
X108036130Y-103079837I1040961J1080000D01*
G01*
X108667335Y-100921392D02*
G75*
G03*
X105435000Y-100764484I-1672335J-1078608D01*
G01*
X105435000Y-103235516D02*
G75*
G03*
X108667335Y-103078608I1560000J1235516D01*
G01*
X108036130Y-100920163D02*
G75*
G03*
X105954039Y-100920000I-1041130J-1079837D01*
G01*
X174500000Y-111000000D02*
G75*
G03*
X174500000Y-111000000I-700000J0D01*
G01*
X160700000Y-129100000D02*
G75*
G03*
X160700000Y-129100000I-700000J0D01*
G01*
G36*
X154146541Y-125658333D02*
G01*
X154272238Y-125903711D01*
X154464802Y-126284868D01*
X154619243Y-126597265D01*
X154722216Y-126813748D01*
X154760375Y-126907166D01*
X154712058Y-126934998D01*
X154535633Y-126960735D01*
X154273789Y-126970666D01*
X153783579Y-126970666D01*
X153365913Y-126121790D01*
X152948246Y-125272914D01*
X151761057Y-125296290D01*
X150573869Y-125319666D01*
X150145673Y-126124000D01*
X149717477Y-126928333D01*
X149267026Y-126954284D01*
X148816574Y-126980235D01*
X148875001Y-126742617D01*
X148903443Y-126663104D01*
X149036938Y-126434274D01*
X149224047Y-126205096D01*
X149345144Y-126062089D01*
X149497872Y-125749424D01*
X149498883Y-125451702D01*
X149345333Y-125192666D01*
X149214990Y-125093080D01*
X148946000Y-125018068D01*
X148675721Y-125066643D01*
X148445626Y-125217592D01*
X148297190Y-125449699D01*
X148271884Y-125741751D01*
X148276778Y-125788809D01*
X148237487Y-126092064D01*
X148097675Y-126483833D01*
X147882875Y-126970666D01*
X147386437Y-126970666D01*
X147166136Y-126964005D01*
X146968412Y-126940972D01*
X146893625Y-126907166D01*
X146907460Y-126868668D01*
X146985360Y-126699574D01*
X147120223Y-126423385D01*
X147298704Y-126067254D01*
X147507458Y-125658333D01*
X148117666Y-124473000D01*
X153536333Y-124473000D01*
X154146541Y-125658333D01*
G37*
G36*
X152647333Y-130696000D02*
G01*
X152647333Y-130230333D01*
X152645483Y-130064849D01*
X152626670Y-129871290D01*
X152575433Y-129784624D01*
X152477080Y-129764666D01*
X152380506Y-129793864D01*
X152241208Y-129940674D01*
X152078442Y-130230333D01*
X152072470Y-130242501D01*
X151940808Y-130495051D01*
X151834739Y-130630753D01*
X151711675Y-130685704D01*
X151529029Y-130696000D01*
X151468900Y-130695057D01*
X151282917Y-130676865D01*
X151208000Y-130642806D01*
X151237581Y-130566570D01*
X151331993Y-130380851D01*
X151468745Y-130133877D01*
X151729490Y-129678142D01*
X151511078Y-129418575D01*
X151417143Y-129289884D01*
X151309120Y-128995833D01*
X151905558Y-128995833D01*
X152016031Y-129142840D01*
X152173197Y-129216359D01*
X152409515Y-129256666D01*
X152450768Y-129256274D01*
X152582578Y-129232085D01*
X152636796Y-129135423D01*
X152647333Y-128918000D01*
X152646523Y-128799912D01*
X152621886Y-128644780D01*
X152526021Y-128587548D01*
X152310280Y-128579333D01*
X152093770Y-128592900D01*
X151976606Y-128657020D01*
X151916795Y-128804173D01*
X151905558Y-128995833D01*
X151309120Y-128995833D01*
X151294222Y-128955278D01*
X151335410Y-128624598D01*
X151540154Y-128318820D01*
X151642467Y-128221887D01*
X151766816Y-128138540D01*
X151922926Y-128093434D01*
X152156646Y-128074916D01*
X152513820Y-128071333D01*
X153240000Y-128071333D01*
X153240000Y-130696000D01*
X152647333Y-130696000D01*
G37*
G36*
X150595571Y-117840608D02*
G01*
X148590592Y-121955273D01*
X146585614Y-126069938D01*
X146039307Y-126259691D01*
X146035673Y-126260953D01*
X145756283Y-126356741D01*
X145546204Y-126426470D01*
X145450666Y-126455123D01*
X145447064Y-126454311D01*
X145375979Y-126374465D01*
X145246249Y-126189622D01*
X145083069Y-125935400D01*
X144962288Y-125739004D01*
X144852035Y-125542605D01*
X144816227Y-125424742D01*
X144846060Y-125346348D01*
X144932729Y-125268355D01*
X145203193Y-125049212D01*
X145409947Y-124872534D01*
X145522886Y-124747661D01*
X145561171Y-124643998D01*
X145543967Y-124530948D01*
X145490435Y-124377917D01*
X145469277Y-124316353D01*
X145399668Y-124075250D01*
X145369716Y-123904763D01*
X145326055Y-123811996D01*
X145173435Y-123720519D01*
X144891902Y-123630674D01*
X144461562Y-123534345D01*
X144407985Y-123522721D01*
X144267948Y-123463302D01*
X144193981Y-123339119D01*
X144148674Y-123098001D01*
X144132538Y-122980188D01*
X144096672Y-122663377D01*
X144109271Y-122466883D01*
X144191867Y-122353581D01*
X144365987Y-122286344D01*
X144653164Y-122228044D01*
X144934257Y-122162875D01*
X145145007Y-122090583D01*
X145234315Y-122027957D01*
X145243063Y-121992519D01*
X145286121Y-121813136D01*
X145344071Y-121568111D01*
X145429840Y-121203222D01*
X144987205Y-120784597D01*
X144544571Y-120365972D01*
X144722452Y-119857475D01*
X144818999Y-119615690D01*
X144916038Y-119436823D01*
X144985000Y-119380003D01*
X145105808Y-119410987D01*
X145341946Y-119462583D01*
X145642088Y-119523563D01*
X146214509Y-119636098D01*
X146500644Y-119358765D01*
X146786780Y-119081431D01*
X146584390Y-118564995D01*
X146487564Y-118305663D01*
X146412859Y-118079306D01*
X146385606Y-117958779D01*
X146440904Y-117874359D01*
X146598941Y-117719673D01*
X146823152Y-117534102D01*
X147257091Y-117199205D01*
X147702919Y-117689784D01*
X148148746Y-118180363D01*
X148471873Y-118070522D01*
X148602639Y-118024709D01*
X148814898Y-117927178D01*
X148937141Y-117800647D01*
X149003006Y-117598454D01*
X149046132Y-117273939D01*
X149104811Y-116726000D01*
X150328883Y-116726000D01*
X150595571Y-117840608D01*
G37*
G36*
X151926649Y-117577390D02*
G01*
X152003698Y-117680595D01*
X152086434Y-117827172D01*
X152245530Y-118124011D01*
X151420126Y-119774505D01*
X151345510Y-119922702D01*
X151085733Y-120424083D01*
X150836381Y-120884724D01*
X150613237Y-121276678D01*
X150432081Y-121572001D01*
X150308694Y-121742743D01*
X150173539Y-121899214D01*
X150058924Y-122078714D01*
X150033456Y-122246479D01*
X150076917Y-122465557D01*
X150104402Y-122530241D01*
X150266128Y-122707951D01*
X150499174Y-122849134D01*
X150733407Y-122906666D01*
X150871664Y-122876411D01*
X151081546Y-122716575D01*
X151243422Y-122457527D01*
X151323781Y-122142635D01*
X151331947Y-122079589D01*
X151426268Y-121741431D01*
X151618939Y-121266838D01*
X151909615Y-120656689D01*
X152070191Y-120340489D01*
X152302996Y-119905811D01*
X152484308Y-119607186D01*
X152623219Y-119431934D01*
X152728825Y-119367373D01*
X152810219Y-119400821D01*
X152810373Y-119400991D01*
X152862749Y-119491250D01*
X152981568Y-119713936D01*
X153157844Y-120051358D01*
X153382592Y-120485823D01*
X153646825Y-120999640D01*
X153941558Y-121575116D01*
X154257805Y-122194560D01*
X154586580Y-122840280D01*
X154918898Y-123494582D01*
X155245772Y-124139777D01*
X155558217Y-124758170D01*
X155847247Y-125332071D01*
X156103876Y-125843788D01*
X156319118Y-126275627D01*
X156483988Y-126609898D01*
X156589499Y-126828908D01*
X156626666Y-126914966D01*
X156585306Y-126937857D01*
X156416274Y-126961500D01*
X156161302Y-126970666D01*
X155695938Y-126970666D01*
X154552636Y-124685271D01*
X154515959Y-124611916D01*
X154179544Y-123933862D01*
X153914465Y-123387498D01*
X153713587Y-122956417D01*
X153569771Y-122624209D01*
X153475881Y-122374468D01*
X153424781Y-122190786D01*
X153409333Y-122056756D01*
X153348418Y-121720079D01*
X153180897Y-121469940D01*
X152939126Y-121333427D01*
X152655502Y-121328590D01*
X152362418Y-121473478D01*
X152315444Y-121514294D01*
X152157730Y-121765623D01*
X152133843Y-122051136D01*
X152238669Y-122319693D01*
X152467093Y-122520150D01*
X152470661Y-122522043D01*
X152614590Y-122656680D01*
X152759503Y-122877662D01*
X152879188Y-123129970D01*
X152947428Y-123358584D01*
X152938009Y-123508487D01*
X152893766Y-123522593D01*
X152701401Y-123542362D01*
X152379366Y-123559264D01*
X151951607Y-123572422D01*
X151442071Y-123580959D01*
X150874703Y-123584000D01*
X150493679Y-123583490D01*
X149916125Y-123579491D01*
X149478958Y-123570642D01*
X149163469Y-123555895D01*
X148950949Y-123534206D01*
X148822691Y-123504529D01*
X148759986Y-123465819D01*
X148755260Y-123458606D01*
X148750523Y-123387984D01*
X148784814Y-123254658D01*
X148863764Y-123046146D01*
X148993003Y-122749969D01*
X149178160Y-122353645D01*
X149424868Y-121844694D01*
X149738755Y-121210634D01*
X150125452Y-120438986D01*
X150159600Y-120371126D01*
X150548067Y-119601027D01*
X150869699Y-118970891D01*
X151132556Y-118469986D01*
X151344695Y-118087579D01*
X151514174Y-117812938D01*
X151649051Y-117635332D01*
X151757384Y-117544026D01*
X151847231Y-117528290D01*
X151926649Y-117577390D01*
G37*
G36*
X149938000Y-130696000D02*
G01*
X148160000Y-130696000D01*
X148160000Y-130188000D01*
X149345333Y-130188000D01*
X149345333Y-129595333D01*
X148872545Y-129595333D01*
X148609413Y-129590806D01*
X148473064Y-129562120D01*
X148421819Y-129486540D01*
X148414000Y-129341333D01*
X148414000Y-129337449D01*
X148422299Y-129193922D01*
X148474890Y-129119549D01*
X148613452Y-129091598D01*
X148879666Y-129087333D01*
X148886788Y-129087333D01*
X149149920Y-129082806D01*
X149286269Y-129054120D01*
X149337514Y-128978540D01*
X149345333Y-128833333D01*
X149345333Y-128579333D01*
X148244666Y-128579333D01*
X148244666Y-128071333D01*
X149938000Y-128071333D01*
X149938000Y-130696000D01*
G37*
G36*
X146228034Y-128065222D02*
G01*
X146524935Y-128220232D01*
X146729278Y-128454877D01*
X146805333Y-128750384D01*
X146774838Y-129018305D01*
X146662242Y-129230966D01*
X146439668Y-129413423D01*
X146079252Y-129598211D01*
X145771976Y-129756384D01*
X145578581Y-129911048D01*
X145543087Y-130039436D01*
X145669258Y-130136608D01*
X145697315Y-130146641D01*
X146036123Y-130177082D01*
X146382000Y-130064517D01*
X146473350Y-130017759D01*
X146610988Y-129995015D01*
X146741833Y-130080639D01*
X146767793Y-130104893D01*
X146877391Y-130270353D01*
X146828017Y-130414849D01*
X146614833Y-130556497D01*
X146302069Y-130660301D01*
X145915017Y-130688679D01*
X145542216Y-130628723D01*
X145231285Y-130488820D01*
X145029843Y-130277356D01*
X144951305Y-130015310D01*
X144973268Y-129705309D01*
X145105087Y-129452924D01*
X145213155Y-129364346D01*
X145453955Y-129218978D01*
X145740087Y-129082713D01*
X145883154Y-129019346D01*
X146129501Y-128871889D01*
X146212666Y-128742961D01*
X146194627Y-128665911D01*
X146063496Y-128566578D01*
X145840074Y-128549084D01*
X145565699Y-128621210D01*
X145558810Y-128624084D01*
X145367318Y-128691223D01*
X145256829Y-128673062D01*
X145158117Y-128559042D01*
X145117578Y-128492361D01*
X145095010Y-128327123D01*
X145220743Y-128190392D01*
X145505291Y-128067276D01*
X145874306Y-128008623D01*
X146228034Y-128065222D01*
G37*
G36*
X156434433Y-129887660D02*
G01*
X156534494Y-130230455D01*
X156601325Y-130475166D01*
X156625832Y-130590166D01*
X156625792Y-130592694D01*
X156545860Y-130667841D01*
X156338744Y-130696000D01*
X156322568Y-130695961D01*
X156137311Y-130676193D01*
X156040364Y-130586696D01*
X155975734Y-130378500D01*
X155947510Y-130266079D01*
X155883228Y-130125200D01*
X155763082Y-130070313D01*
X155530378Y-130061000D01*
X155427649Y-130061951D01*
X155238993Y-130086094D01*
X155136861Y-130171847D01*
X155060847Y-130357333D01*
X154983808Y-130539453D01*
X154862264Y-130641664D01*
X154639849Y-130680616D01*
X154526742Y-130687163D01*
X154377472Y-130668092D01*
X154356325Y-130595949D01*
X154367452Y-130561790D01*
X154423762Y-130382588D01*
X154515492Y-130087153D01*
X154632853Y-129707066D01*
X154692161Y-129514207D01*
X155286014Y-129514207D01*
X155342278Y-129582134D01*
X155525880Y-129595333D01*
X155592167Y-129593927D01*
X155738636Y-129561026D01*
X155751689Y-129474345D01*
X155747379Y-129462512D01*
X155699150Y-129287256D01*
X155648366Y-129050077D01*
X155608537Y-128878365D01*
X155539710Y-128728547D01*
X155471914Y-128737278D01*
X155413400Y-128909496D01*
X155370041Y-129113463D01*
X155309247Y-129373789D01*
X155286014Y-129514207D01*
X154692161Y-129514207D01*
X154766057Y-129273907D01*
X155137576Y-128063481D01*
X155510819Y-128088573D01*
X155884062Y-128113666D01*
X156254530Y-129299000D01*
X156308975Y-129474345D01*
X156310236Y-129478407D01*
X156434433Y-129887660D01*
G37*
X109330072Y-120252893D02*
X109270373Y-120108768D01*
X108443777Y-118113188D02*
X108384078Y-117969063D01*
X111430598Y-116877513D02*
G75*
G03*
X108384263Y-117969510I-1132271J-1636479D01*
G01*
X109749903Y-119910140D02*
G75*
G03*
X111673441Y-119113208I548424J1396148D01*
G01*
X110846970Y-117117929D02*
G75*
G03*
X108923306Y-117914561I-548643J-1396063D01*
G01*
X109329887Y-120252445D02*
G75*
G03*
X112256128Y-118870521I968440J1738453D01*
G01*
X151800000Y-70800000D02*
G75*
G03*
X151800000Y-70800000I-700000J0D01*
G01*
X126200000Y-105000000D02*
G75*
G03*
X126200000Y-105000000I-700000J0D01*
G01*
X182404045Y-132627128D02*
X182293736Y-132737437D01*
X180766386Y-134264787D02*
X180656077Y-134375096D01*
X178927224Y-132425395D02*
G75*
G03*
X180399370Y-133897771I1499750J27370D01*
G01*
X178481762Y-131978197D02*
G75*
G03*
X180656419Y-134374754I1945212J-419828D01*
G01*
X182403701Y-132627470D02*
G75*
G03*
X180007146Y-130452815I-1976727J229445D01*
G01*
X181926720Y-132370421D02*
G75*
G03*
X180454344Y-130898275I-1499746J-27604D01*
G01*
X120100000Y-99800000D02*
G75*
G03*
X120100000Y-99800000I-700000J0D01*
G01*
X163104296Y-105384624D02*
X163288393Y-105157283D01*
X162311607Y-104742717D02*
X162495704Y-104515376D01*
%LPC*%
D12*
X166100000Y-111600000D03*
D13*
X168600000Y-111600000D03*
D14*
X113626129Y-92419901D03*
D15*
X115972783Y-93391917D03*
X114598145Y-90073247D03*
X116944799Y-91045263D03*
X115570161Y-87726593D03*
X117916815Y-88698609D03*
X116542177Y-85379939D03*
X118888831Y-86351955D03*
X117514193Y-83033285D03*
X119860847Y-84005301D03*
D16*
X182435828Y-83023390D03*
D17*
X180089174Y-83995406D03*
X183407844Y-85370044D03*
X181061190Y-86342060D03*
X184379860Y-87716698D03*
X182033206Y-88688714D03*
X185351876Y-90063352D03*
X183005222Y-91035368D03*
X186323892Y-92410006D03*
X183977237Y-93382022D03*
D18*
X132850000Y-119150000D03*
D19*
X172677639Y-72145228D03*
D20*
X170881588Y-73941279D03*
X174473690Y-73941279D03*
X172677639Y-75737330D03*
X176269741Y-75737330D03*
X174473690Y-77533382D03*
X178065793Y-77533382D03*
X176269741Y-79329433D03*
X179861844Y-79329433D03*
X178065793Y-81125484D03*
D21*
X159580099Y-65626129D03*
D22*
X158608083Y-67972783D03*
X161926753Y-66598145D03*
X160954737Y-68944799D03*
X164273407Y-67570161D03*
X163301391Y-69916815D03*
X166620061Y-68542177D03*
X165648045Y-70888831D03*
X168966715Y-69514193D03*
X167994699Y-71860847D03*
D18*
X167150000Y-119150000D03*
D23*
X112775000Y-107075000D03*
D24*
X115315000Y-107075000D03*
X112775000Y-104535000D03*
X115315000Y-104535000D03*
X112775000Y-101995000D03*
X115315000Y-101995000D03*
X112775000Y-99455000D03*
X115315000Y-99455000D03*
X112775000Y-96915000D03*
X115315000Y-96915000D03*
D25*
X168956709Y-134509699D03*
D26*
X167984693Y-132163045D03*
X166610055Y-135481715D03*
X165638039Y-133135061D03*
X164263401Y-136453731D03*
X163291385Y-134107077D03*
X161916747Y-137425747D03*
X160944731Y-135079093D03*
X159570093Y-138397763D03*
X158598077Y-136051108D03*
D27*
X117580987Y-120878001D03*
D28*
X119927641Y-119905985D03*
X116608971Y-118531347D03*
X118955625Y-117559331D03*
X115636955Y-116184693D03*
X117983609Y-115212677D03*
X114664939Y-113838039D03*
X117011593Y-112866023D03*
X113692923Y-111491385D03*
X116039578Y-110519369D03*
D29*
X131049983Y-69534333D03*
D30*
X132021999Y-71880987D03*
X133396637Y-68562317D03*
X134368653Y-70908971D03*
X135743291Y-67590301D03*
X136715307Y-69936955D03*
X138089945Y-66618285D03*
X139061961Y-68964939D03*
X140436599Y-65646269D03*
X141408615Y-67992924D03*
D23*
X144925000Y-64775000D03*
D24*
X144925000Y-67315000D03*
X147465000Y-64775000D03*
X147465000Y-67315000D03*
X150005000Y-64775000D03*
X150005000Y-67315000D03*
X152545000Y-64775000D03*
X152545000Y-67315000D03*
X155085000Y-64775000D03*
X155085000Y-67315000D03*
D23*
X155075000Y-139275000D03*
D24*
X155075000Y-136735000D03*
X152535000Y-139275000D03*
X152535000Y-136735000D03*
X149995000Y-139275000D03*
X149995000Y-136735000D03*
X147455000Y-139275000D03*
X147455000Y-136735000D03*
X144915000Y-139275000D03*
X144915000Y-136735000D03*
D31*
X127296051Y-131988154D03*
D32*
X129092102Y-130192103D03*
X125500000Y-130192103D03*
X127296051Y-128396052D03*
X123703949Y-128396052D03*
X125500000Y-126600000D03*
X121907897Y-126600000D03*
X123703949Y-124803949D03*
X120111846Y-124803949D03*
X121907897Y-123007898D03*
D12*
X147500000Y-82900000D03*
D13*
X150000000Y-82900000D03*
D18*
X132860000Y-84850000D03*
D23*
X143700000Y-112375000D03*
D24*
X143700000Y-114915000D03*
X143700000Y-117455000D03*
D33*
X120045228Y-79222362D03*
D34*
X121841279Y-81018413D03*
X121841279Y-77426311D03*
X123637330Y-79222362D03*
X123637330Y-75630260D03*
X125433382Y-77426311D03*
X125433382Y-73834208D03*
X127229433Y-75630260D03*
X127229433Y-72038157D03*
X129025484Y-73834208D03*
D35*
X140436599Y-138353731D03*
D36*
X141408615Y-136007077D03*
X138089945Y-137381715D03*
X139061961Y-135035061D03*
X135743291Y-136409699D03*
X136715307Y-134063045D03*
X133396637Y-135437683D03*
X134368653Y-133091029D03*
X131049983Y-134465667D03*
X132021999Y-132119013D03*
D37*
X179888154Y-124803949D03*
D38*
X178092103Y-123007898D03*
X178092103Y-126600000D03*
X176296052Y-124803949D03*
X176296052Y-128396051D03*
X174500000Y-126600000D03*
X174500000Y-130192103D03*
X172703949Y-128396051D03*
X172703949Y-131988154D03*
X170907898Y-130192103D03*
D39*
X186320065Y-111599234D03*
D40*
X183973411Y-110627218D03*
X185348049Y-113945888D03*
X183001395Y-112973872D03*
X184376033Y-116292542D03*
X182029379Y-115320526D03*
X183404017Y-118639196D03*
X181057363Y-117667180D03*
X182432001Y-120985850D03*
X180085347Y-120013834D03*
D23*
X187200000Y-96920000D03*
D24*
X184660000Y-96920000D03*
X187200000Y-99460000D03*
X184660000Y-99460000D03*
X187200000Y-102000000D03*
X184660000Y-102000000D03*
X187200000Y-104540000D03*
X184660000Y-104540000D03*
X187200000Y-107080000D03*
X184660000Y-107080000D03*
D18*
X167150000Y-84850000D03*
D41*
X118700000Y-133400000D03*
D42*
X120496051Y-131603949D03*
D43*
X125500000Y-102500000D03*
D44*
X150000000Y-146275000D03*
D42*
X150000000Y-143735000D03*
D43*
X132800000Y-78800000D03*
D45*
X161379712Y-100507211D03*
X162720288Y-101592789D03*
D44*
X150000000Y-57625000D03*
D42*
X150000000Y-60165000D03*
D43*
X122600000Y-89000000D03*
D44*
X194275000Y-102100000D03*
D42*
X191735000Y-102100000D03*
D46*
X109075000Y-85027984D03*
D42*
X111421654Y-86000000D03*
D43*
X169500000Y-126100000D03*
X151300000Y-134300000D03*
D47*
X166925000Y-142900000D03*
D42*
X165952984Y-140553346D03*
D43*
X142700000Y-73500000D03*
D48*
X118675000Y-70698439D03*
D42*
X120471051Y-72494490D03*
D49*
X190900000Y-119000000D03*
D42*
X188553346Y-118027984D03*
D43*
X161900000Y-76200000D03*
D50*
X160111528Y-101708316D03*
X161821249Y-103092821D03*
X160688472Y-104491684D03*
X158978751Y-103107179D03*
D51*
X181375000Y-70700000D03*
D42*
X179578949Y-72496051D03*
D52*
X133000000Y-61100000D03*
D42*
X133972016Y-63446654D03*
D53*
X155675000Y-98250000D03*
X155675000Y-98750000D03*
X155675000Y-99250000D03*
X155675000Y-99750000D03*
X155675000Y-100250000D03*
X155675000Y-100750000D03*
X155675000Y-101250000D03*
X155675000Y-101750000D03*
X155675000Y-102250000D03*
X155675000Y-102750000D03*
X155675000Y-103250000D03*
X155675000Y-103750000D03*
X155675000Y-104250000D03*
X155675000Y-104750000D03*
X155675000Y-105250000D03*
X155675000Y-105750000D03*
D54*
X153750000Y-107675000D03*
X153250000Y-107675000D03*
X152750000Y-107675000D03*
X152250000Y-107675000D03*
X151750000Y-107675000D03*
X151250000Y-107675000D03*
X150750000Y-107675000D03*
X150250000Y-107675000D03*
X149750000Y-107675000D03*
X149250000Y-107675000D03*
X148750000Y-107675000D03*
X148250000Y-107675000D03*
X147750000Y-107675000D03*
X147250000Y-107675000D03*
X146750000Y-107675000D03*
X146250000Y-107675000D03*
D53*
X144325000Y-105750000D03*
X144325000Y-105250000D03*
X144325000Y-104750000D03*
X144325000Y-104250000D03*
X144325000Y-103750000D03*
X144325000Y-103250000D03*
X144325000Y-102750000D03*
X144325000Y-102250000D03*
X144325000Y-101750000D03*
X144325000Y-101250000D03*
X144325000Y-100750000D03*
X144325000Y-100250000D03*
X144325000Y-99750000D03*
X144325000Y-99250000D03*
X144325000Y-98750000D03*
X144325000Y-98250000D03*
D54*
X146250000Y-96325000D03*
X146750000Y-96325000D03*
X147250000Y-96325000D03*
X147750000Y-96325000D03*
X148250000Y-96325000D03*
X148750000Y-96325000D03*
X149250000Y-96325000D03*
X149750000Y-96325000D03*
X150250000Y-96325000D03*
X150750000Y-96325000D03*
X151250000Y-96325000D03*
X151750000Y-96325000D03*
X152250000Y-96325000D03*
X152750000Y-96325000D03*
X153250000Y-96325000D03*
X153750000Y-96325000D03*
D43*
X173300000Y-86900000D03*
X175300000Y-93800000D03*
D55*
X190975000Y-85100000D03*
D42*
X188628346Y-86072016D03*
D43*
X122700000Y-112200000D03*
X138000000Y-130200000D03*
D56*
X133000000Y-142900000D03*
D42*
X133972016Y-140553346D03*
D43*
X177800000Y-106100000D03*
D57*
X167000000Y-61100000D03*
D42*
X166027984Y-63446654D03*
D44*
X105725000Y-102000000D03*
D42*
X108265000Y-102000000D03*
D43*
X173800000Y-111000000D03*
X160000000Y-129100000D03*
D58*
X109125000Y-119000000D03*
D42*
X111471654Y-118027984D03*
D43*
X151100000Y-70800000D03*
X125500000Y-105000000D03*
D59*
X181325000Y-133296051D03*
D42*
X179528949Y-131500000D03*
D43*
X119400000Y-99800000D03*
D60*
X162257211Y-105620288D03*
X163342789Y-104279712D03*
M02*
