G04 #@! TF.GenerationSoftware,KiCad,Pcbnew,7.0.7*
G04 #@! TF.CreationDate,2023-10-26T17:58:54+02:00*
G04 #@! TF.ProjectId,load,6c6f6164-2e6b-4696-9361-645f70636258,rev?*
G04 #@! TF.SameCoordinates,Original*
G04 #@! TF.FileFunction,Copper,L3,Inr*
G04 #@! TF.FilePolarity,Positive*
%FSLAX46Y46*%
G04 Gerber Fmt 4.6, Leading zero omitted, Abs format (unit mm)*
G04 Created by KiCad (PCBNEW 7.0.7) date 2023-10-26 17:58:54*
%MOMM*%
%LPD*%
G01*
G04 APERTURE LIST*
G04 Aperture macros list*
%AMRoundRect*
0 Rectangle with rounded corners*
0 $1 Rounding radius*
0 $2 $3 $4 $5 $6 $7 $8 $9 X,Y pos of 4 corners*
0 Add a 4 corners polygon primitive as box body*
4,1,4,$2,$3,$4,$5,$6,$7,$8,$9,$2,$3,0*
0 Add four circle primitives for the rounded corners*
1,1,$1+$1,$2,$3*
1,1,$1+$1,$4,$5*
1,1,$1+$1,$6,$7*
1,1,$1+$1,$8,$9*
0 Add four rect primitives between the rounded corners*
20,1,$1+$1,$2,$3,$4,$5,0*
20,1,$1+$1,$4,$5,$6,$7,0*
20,1,$1+$1,$6,$7,$8,$9,0*
20,1,$1+$1,$8,$9,$2,$3,0*%
G04 Aperture macros list end*
G04 #@! TA.AperFunction,ComponentPad*
%ADD10C,0.900000*%
G04 #@! TD*
G04 #@! TA.AperFunction,ComponentPad*
%ADD11C,8.600000*%
G04 #@! TD*
G04 #@! TA.AperFunction,ComponentPad*
%ADD12RoundRect,0.250000X-0.600000X-0.750000X0.600000X-0.750000X0.600000X0.750000X-0.600000X0.750000X0*%
G04 #@! TD*
G04 #@! TA.AperFunction,ComponentPad*
%ADD13O,1.700000X2.000000*%
G04 #@! TD*
G04 #@! TA.AperFunction,ComponentPad*
%ADD14RoundRect,0.250000X-0.600000X-0.725000X0.600000X-0.725000X0.600000X0.725000X-0.600000X0.725000X0*%
G04 #@! TD*
G04 #@! TA.AperFunction,ComponentPad*
%ADD15O,1.700000X1.950000*%
G04 #@! TD*
G04 #@! TA.AperFunction,ComponentPad*
%ADD16R,2.100000X2.100000*%
G04 #@! TD*
G04 #@! TA.AperFunction,ComponentPad*
%ADD17C,2.100000*%
G04 #@! TD*
G04 #@! TA.AperFunction,ComponentPad*
%ADD18R,4.500000X2.500000*%
G04 #@! TD*
G04 #@! TA.AperFunction,ComponentPad*
%ADD19O,4.500000X2.500000*%
G04 #@! TD*
G04 #@! TA.AperFunction,ViaPad*
%ADD20C,0.450000*%
G04 #@! TD*
G04 APERTURE END LIST*
D10*
X146775000Y-150000000D03*
X147719581Y-147719581D03*
X147719581Y-152280419D03*
X150000000Y-146775000D03*
D11*
X150000000Y-150000000D03*
D10*
X150000000Y-153225000D03*
X152280419Y-147719581D03*
X152280419Y-152280419D03*
X153225000Y-150000000D03*
D12*
X170000000Y-137000000D03*
D13*
X172500000Y-137000000D03*
D14*
X159000000Y-149500000D03*
D15*
X161500000Y-149500000D03*
X164000000Y-149500000D03*
X166500000Y-149500000D03*
X169000000Y-149500000D03*
X171500000Y-149500000D03*
X174000000Y-149500000D03*
X176500000Y-149500000D03*
X179000000Y-149500000D03*
X181500000Y-149500000D03*
D16*
X191000000Y-122000000D03*
D17*
X191000000Y-119460000D03*
D10*
X186775000Y-110000000D03*
X187719581Y-107719581D03*
X187719581Y-112280419D03*
X190000000Y-106775000D03*
D11*
X190000000Y-110000000D03*
D10*
X190000000Y-113225000D03*
X192280419Y-107719581D03*
X192280419Y-112280419D03*
X193225000Y-110000000D03*
D18*
X151020000Y-130450000D03*
D19*
X151020000Y-125000000D03*
X151020000Y-119550000D03*
D10*
X146775000Y-110000000D03*
X147719581Y-107719581D03*
X147719581Y-112280419D03*
X150000000Y-106775000D03*
D11*
X150000000Y-110000000D03*
D10*
X150000000Y-113225000D03*
X152280419Y-107719581D03*
X152280419Y-112280419D03*
X153225000Y-110000000D03*
X186775000Y-150000000D03*
X187719581Y-147719581D03*
X187719581Y-152280419D03*
X190000000Y-146775000D03*
D11*
X190000000Y-150000000D03*
D10*
X190000000Y-153225000D03*
X192280419Y-147719581D03*
X192280419Y-152280419D03*
X193225000Y-150000000D03*
D16*
X191000000Y-132500000D03*
D17*
X191000000Y-129960000D03*
D20*
X180500000Y-111250000D03*
X185500000Y-114750000D03*
X168750000Y-112500000D03*
X174000000Y-112500000D03*
X185500000Y-117750000D03*
X174750000Y-112500000D03*
X188000000Y-117250000D03*
X170500000Y-111000000D03*
X160300000Y-116100000D03*
X185500000Y-116250000D03*
X155500000Y-144400000D03*
X161250000Y-112500000D03*
X173250000Y-113250000D03*
X178000000Y-111000000D03*
X167250000Y-112500000D03*
X172500000Y-112500000D03*
X182200000Y-139100000D03*
X193000000Y-138500000D03*
X175500000Y-112500000D03*
X183500000Y-134750000D03*
X161250000Y-113250000D03*
X171750000Y-112500000D03*
X178000000Y-109500000D03*
X168000000Y-109500000D03*
X165500000Y-111000000D03*
X185750000Y-139250000D03*
X180500000Y-109750000D03*
X159500000Y-142000000D03*
X188000000Y-118750000D03*
X182500000Y-135750000D03*
X180500000Y-112750000D03*
X162000000Y-112500000D03*
X183000000Y-112250000D03*
X165500000Y-109500000D03*
X167750000Y-132000000D03*
X166500000Y-113250000D03*
X163500000Y-112500000D03*
X172500000Y-113250000D03*
X189500000Y-140500000D03*
X171000000Y-112500000D03*
X173000000Y-109500000D03*
X150500000Y-143250000D03*
X168000000Y-113250000D03*
X169500000Y-112500000D03*
X175500000Y-109500000D03*
X188000000Y-120250000D03*
X168000000Y-111000000D03*
X167750000Y-131000000D03*
X165000000Y-112500000D03*
X162750000Y-113250000D03*
X163000000Y-111000000D03*
X171750000Y-113250000D03*
X150500000Y-142500000D03*
X183000000Y-115250000D03*
X162000000Y-113250000D03*
X175500000Y-113250000D03*
X173000000Y-111000000D03*
X185000000Y-139250000D03*
X164250000Y-112500000D03*
X170250000Y-112500000D03*
X178000000Y-112500000D03*
X162750000Y-112500000D03*
X163500000Y-113250000D03*
X173250000Y-112500000D03*
X170250000Y-113250000D03*
X163000000Y-109500000D03*
X166500000Y-112500000D03*
X158750000Y-142000000D03*
X165750000Y-112500000D03*
X174000000Y-113250000D03*
X194000000Y-138500000D03*
X183000000Y-113750000D03*
X164250000Y-113250000D03*
X163250000Y-142250000D03*
X170500000Y-109500000D03*
X174750000Y-113250000D03*
X175500000Y-111000000D03*
X167250000Y-113250000D03*
X178600000Y-140300000D03*
X168000000Y-112500000D03*
X165750000Y-113250000D03*
X183500000Y-139750000D03*
X156250000Y-139000000D03*
X168750000Y-113250000D03*
X165000000Y-113250000D03*
X169500000Y-113250000D03*
X171000000Y-113250000D03*
X193600000Y-144000000D03*
X192900000Y-143300000D03*
X192900000Y-144000000D03*
X149100000Y-140800000D03*
X149800000Y-140800000D03*
X158600000Y-136200000D03*
X193600000Y-143300000D03*
X153400000Y-141900000D03*
X184300000Y-152500000D03*
X183600000Y-152500000D03*
X183600000Y-153200000D03*
X152700000Y-141900000D03*
X184300000Y-153200000D03*
X163000000Y-137700000D03*
X175200000Y-143800000D03*
X172400000Y-144600000D03*
X177600000Y-146900000D03*
X173500000Y-132200000D03*
X174100000Y-132200000D03*
X184100000Y-137900000D03*
X164400000Y-137400000D03*
X179000000Y-146300000D03*
X183600000Y-141400000D03*
X178500000Y-146900000D03*
X178100000Y-146300000D03*
X183600000Y-142000000D03*
X176250000Y-126250000D03*
X174250000Y-124500000D03*
X172750000Y-125250000D03*
X176250000Y-123250000D03*
X171250000Y-125250000D03*
X172000000Y-125250000D03*
X184500000Y-123250000D03*
X174250000Y-127500000D03*
X173500000Y-125250000D03*
X172750000Y-124500000D03*
X173500000Y-124500000D03*
X174250000Y-126000000D03*
X171250000Y-124500000D03*
X183750000Y-126250000D03*
X173750000Y-123250000D03*
X181250000Y-126250000D03*
X187000000Y-123250000D03*
X172000000Y-124500000D03*
X174250000Y-126750000D03*
X176250000Y-124750000D03*
X174250000Y-125250000D03*
X183750000Y-124750000D03*
X173500000Y-127500000D03*
X178750000Y-124750000D03*
X178750000Y-123250000D03*
X178750000Y-126250000D03*
X173500000Y-126750000D03*
X173500000Y-126000000D03*
X181250000Y-124750000D03*
X191500000Y-125250000D03*
X191500000Y-124500000D03*
X193000000Y-126750000D03*
X192250000Y-125250000D03*
X193000000Y-124500000D03*
X191500000Y-126000000D03*
X190000000Y-124500000D03*
X193000000Y-126000000D03*
X190750000Y-124500000D03*
X192250000Y-126750000D03*
X193000000Y-125250000D03*
X192250000Y-126000000D03*
X192250000Y-124500000D03*
X191500000Y-126750000D03*
X183400000Y-137100000D03*
X181400000Y-134400000D03*
X180700000Y-135200000D03*
X183100000Y-136400000D03*
X165400000Y-141300000D03*
X161500000Y-125250000D03*
X159000000Y-131250000D03*
X169500000Y-124500000D03*
X168750000Y-125250000D03*
X156500000Y-129750000D03*
X161500000Y-131250000D03*
X164000000Y-128250000D03*
X166500000Y-127500000D03*
X167250000Y-125250000D03*
X167250000Y-127500000D03*
X167250000Y-126000000D03*
X166500000Y-125250000D03*
X159000000Y-125250000D03*
X164000000Y-129750000D03*
X164000000Y-125250000D03*
X166500000Y-126750000D03*
X156500000Y-126750000D03*
X156500000Y-125250000D03*
X166500000Y-126000000D03*
X167250000Y-126750000D03*
X161500000Y-128250000D03*
X168000000Y-125250000D03*
X161500000Y-126750000D03*
X166500000Y-124500000D03*
X156500000Y-128250000D03*
X161500000Y-129750000D03*
X164000000Y-131250000D03*
X164000000Y-126750000D03*
X159000000Y-128250000D03*
X156500000Y-131250000D03*
X159000000Y-129750000D03*
X159000000Y-126750000D03*
X168750000Y-124500000D03*
X167250000Y-124500000D03*
X169500000Y-125250000D03*
X168000000Y-124500000D03*
X160300000Y-117400000D03*
X169250000Y-119750000D03*
X165500000Y-119750000D03*
X164000000Y-119750000D03*
X156500000Y-121250000D03*
X161000000Y-119750000D03*
X171500000Y-119750000D03*
X164750000Y-119750000D03*
X161750000Y-119750000D03*
X177500000Y-119750000D03*
X164000000Y-121250000D03*
X174500000Y-119750000D03*
X176750000Y-119750000D03*
X161500000Y-121250000D03*
X151500000Y-140800000D03*
X176000000Y-119750000D03*
X167750000Y-119750000D03*
X159000000Y-118250000D03*
X159000000Y-121250000D03*
X175250000Y-119750000D03*
X168500000Y-119750000D03*
X166250000Y-119750000D03*
X167000000Y-119750000D03*
X166500000Y-121250000D03*
X162500000Y-119750000D03*
X173750000Y-119750000D03*
X172250000Y-119750000D03*
X170750000Y-119750000D03*
X173000000Y-119750000D03*
X156500000Y-119750000D03*
X159000000Y-119750000D03*
X156500000Y-118250000D03*
X163250000Y-119750000D03*
X170000000Y-119750000D03*
G04 #@! TA.AperFunction,Conductor*
G36*
X188743039Y-122019685D02*
G01*
X188788794Y-122072489D01*
X188800000Y-122124000D01*
X188800000Y-127876000D01*
X188780315Y-127943039D01*
X188727511Y-127988794D01*
X188676000Y-128000000D01*
X170779500Y-128000000D01*
X170712461Y-127980315D01*
X170666706Y-127927511D01*
X170655500Y-127876000D01*
X170655500Y-124123737D01*
X170655499Y-124123727D01*
X170649719Y-124069697D01*
X170649718Y-124069694D01*
X170649718Y-124069690D01*
X170638621Y-124018418D01*
X170631499Y-123992292D01*
X170616116Y-123965146D01*
X170600000Y-123904014D01*
X170600000Y-122124000D01*
X170619685Y-122056961D01*
X170672489Y-122011206D01*
X170724000Y-122000000D01*
X188676000Y-122000000D01*
X188743039Y-122019685D01*
G37*
G04 #@! TD.AperFunction*
G04 #@! TA.AperFunction,Conductor*
G36*
X170276266Y-123999737D02*
G01*
X170343260Y-124019564D01*
X170388903Y-124072465D01*
X170400000Y-124123737D01*
X170400000Y-128176000D01*
X170380315Y-128243039D01*
X170327511Y-128288794D01*
X170276000Y-128300000D01*
X166400000Y-128300000D01*
X166400000Y-132976000D01*
X166380315Y-133043039D01*
X166327511Y-133088794D01*
X166276000Y-133100000D01*
X148124000Y-133100000D01*
X148056961Y-133080315D01*
X148011206Y-133027511D01*
X148000000Y-132976000D01*
X148000000Y-127124000D01*
X148019685Y-127056961D01*
X148072489Y-127011206D01*
X148124000Y-127000000D01*
X153999999Y-127000000D01*
X154000000Y-127000000D01*
X154036946Y-124088036D01*
X154057479Y-124021254D01*
X154110860Y-123976172D01*
X154161195Y-123965611D01*
X170276266Y-123999737D01*
G37*
G04 #@! TD.AperFunction*
G04 #@! TA.AperFunction,Conductor*
G36*
X178843039Y-116919685D02*
G01*
X178888794Y-116972489D01*
X178900000Y-117024000D01*
X178900000Y-120676000D01*
X178880315Y-120743039D01*
X178827511Y-120788794D01*
X178776000Y-120800000D01*
X169500000Y-120800000D01*
X169500000Y-122776000D01*
X169480315Y-122843039D01*
X169427511Y-122888794D01*
X169376000Y-122900000D01*
X148124000Y-122900000D01*
X148056961Y-122880315D01*
X148011206Y-122827511D01*
X148000000Y-122776000D01*
X148000000Y-117024000D01*
X148019685Y-116956961D01*
X148072489Y-116911206D01*
X148124000Y-116900000D01*
X178776000Y-116900000D01*
X178843039Y-116919685D01*
G37*
G04 #@! TD.AperFunction*
G04 #@! TA.AperFunction,Conductor*
G36*
X194642539Y-120919685D02*
G01*
X194688294Y-120972489D01*
X194699500Y-121024000D01*
X194699500Y-127476000D01*
X194679815Y-127543039D01*
X194627011Y-127588794D01*
X194575500Y-127600000D01*
X189424000Y-127600000D01*
X189356961Y-127580315D01*
X189311206Y-127527511D01*
X189300000Y-127476000D01*
X189300000Y-121024000D01*
X189319685Y-120956961D01*
X189372489Y-120911206D01*
X189424000Y-120900000D01*
X194575500Y-120900000D01*
X194642539Y-120919685D01*
G37*
G04 #@! TD.AperFunction*
G04 #@! TA.AperFunction,Conductor*
G36*
X190406905Y-105318265D02*
G01*
X190412257Y-105318734D01*
X190813381Y-105371543D01*
X190818697Y-105372481D01*
X191213680Y-105460047D01*
X191218892Y-105461443D01*
X191604745Y-105583102D01*
X191609826Y-105584951D01*
X191983612Y-105739778D01*
X191988482Y-105742049D01*
X192347350Y-105928864D01*
X192352028Y-105931566D01*
X192693241Y-106148942D01*
X192697674Y-106152046D01*
X193018634Y-106398327D01*
X193022779Y-106401806D01*
X193321051Y-106675122D01*
X193324877Y-106678948D01*
X193598193Y-106977220D01*
X193601672Y-106981365D01*
X193847953Y-107302325D01*
X193851057Y-107306758D01*
X194068433Y-107647971D01*
X194071139Y-107652657D01*
X194257941Y-108011499D01*
X194260228Y-108016403D01*
X194415048Y-108390174D01*
X194416899Y-108395259D01*
X194538552Y-108781092D01*
X194539952Y-108786319D01*
X194627518Y-109181302D01*
X194628458Y-109186631D01*
X194681263Y-109587724D01*
X194681735Y-109593115D01*
X194699500Y-110000000D01*
X194699500Y-120520500D01*
X194679815Y-120587539D01*
X194627011Y-120633294D01*
X194575500Y-120644500D01*
X189423997Y-120644500D01*
X189369687Y-120650338D01*
X189318183Y-120661543D01*
X189318182Y-120661543D01*
X189318176Y-120661545D01*
X189307177Y-120664562D01*
X189291806Y-120668779D01*
X189291796Y-120668783D01*
X189205181Y-120718105D01*
X189205172Y-120718111D01*
X189152371Y-120763864D01*
X189120743Y-120796640D01*
X189074534Y-120884977D01*
X189074533Y-120884977D01*
X189054851Y-120952009D01*
X189054848Y-120952021D01*
X189044500Y-121023998D01*
X189044500Y-121689768D01*
X189024815Y-121756807D01*
X188972011Y-121802562D01*
X188902853Y-121812506D01*
X188863025Y-121799644D01*
X188815020Y-121774533D01*
X188747990Y-121754851D01*
X188747978Y-121754848D01*
X188676001Y-121744500D01*
X188676000Y-121744500D01*
X170724000Y-121744500D01*
X170723997Y-121744500D01*
X170669687Y-121750338D01*
X170618183Y-121761543D01*
X170618182Y-121761543D01*
X170618176Y-121761545D01*
X170607177Y-121764562D01*
X170591806Y-121768779D01*
X170591796Y-121768783D01*
X170505181Y-121818105D01*
X170505172Y-121818111D01*
X170452371Y-121863864D01*
X170420743Y-121896640D01*
X170374534Y-121984977D01*
X170374533Y-121984977D01*
X170354851Y-122052009D01*
X170354848Y-122052021D01*
X170344500Y-122123998D01*
X170344500Y-123620118D01*
X170324815Y-123687157D01*
X170272011Y-123732912D01*
X170220237Y-123744118D01*
X154161737Y-123710111D01*
X154161735Y-123710111D01*
X154108734Y-123715555D01*
X154108724Y-123715557D01*
X154058410Y-123726113D01*
X154058411Y-123726113D01*
X154058399Y-123726116D01*
X154058395Y-123726117D01*
X154053925Y-123727295D01*
X154033255Y-123732742D01*
X153946006Y-123780970D01*
X153892623Y-123826054D01*
X153860588Y-123858421D01*
X153813261Y-123946167D01*
X153792731Y-124012937D01*
X153792729Y-124012948D01*
X153781467Y-124084792D01*
X153781466Y-124084799D01*
X153768490Y-125107604D01*
X153766205Y-125115035D01*
X153768138Y-125135273D01*
X153749275Y-126622073D01*
X153728742Y-126688857D01*
X153675361Y-126733939D01*
X153625285Y-126744500D01*
X152135467Y-126744500D01*
X152068428Y-126724815D01*
X152022673Y-126672011D01*
X152012729Y-126602853D01*
X152041754Y-126539297D01*
X152100532Y-126501523D01*
X152125227Y-126496924D01*
X152267813Y-126485109D01*
X152267816Y-126485108D01*
X152267821Y-126485108D01*
X152508881Y-126424063D01*
X152736607Y-126324173D01*
X152944785Y-126188164D01*
X153127738Y-126019744D01*
X153280474Y-125823509D01*
X153398828Y-125604810D01*
X153479571Y-125369614D01*
X153520500Y-125124335D01*
X153520500Y-125124318D01*
X153520570Y-125123481D01*
X153520697Y-125123149D01*
X153521344Y-125119277D01*
X153522140Y-125119409D01*
X153522285Y-125119033D01*
X153520500Y-125106031D01*
X153520500Y-124875665D01*
X153479570Y-124630383D01*
X153398830Y-124395197D01*
X153398827Y-124395188D01*
X153280475Y-124176493D01*
X153280474Y-124176491D01*
X153127738Y-123980256D01*
X152944785Y-123811836D01*
X152944782Y-123811833D01*
X152736606Y-123675826D01*
X152508881Y-123575936D01*
X152267824Y-123514892D01*
X152267813Y-123514890D01*
X152102548Y-123501197D01*
X152082067Y-123499500D01*
X149957933Y-123499500D01*
X149938521Y-123501108D01*
X149772186Y-123514890D01*
X149772175Y-123514892D01*
X149531118Y-123575936D01*
X149303393Y-123675826D01*
X149095217Y-123811833D01*
X148912261Y-123980257D01*
X148759524Y-124176493D01*
X148641172Y-124395188D01*
X148641169Y-124395197D01*
X148560429Y-124630383D01*
X148519500Y-124875665D01*
X148519500Y-125124334D01*
X148560429Y-125369616D01*
X148641169Y-125604802D01*
X148641172Y-125604811D01*
X148759524Y-125823506D01*
X148759526Y-125823509D01*
X148912262Y-126019744D01*
X149071744Y-126166557D01*
X149095217Y-126188166D01*
X149303393Y-126324173D01*
X149531118Y-126424063D01*
X149772175Y-126485107D01*
X149772179Y-126485108D01*
X149772181Y-126485108D01*
X149772186Y-126485109D01*
X149914773Y-126496924D01*
X149979958Y-126522077D01*
X150021196Y-126578479D01*
X150025394Y-126648222D01*
X149991220Y-126709164D01*
X149929524Y-126741956D01*
X149904533Y-126744500D01*
X148123997Y-126744500D01*
X148069687Y-126750338D01*
X148018183Y-126761543D01*
X148018182Y-126761543D01*
X148018176Y-126761545D01*
X148007177Y-126764562D01*
X147991806Y-126768779D01*
X147991796Y-126768783D01*
X147905181Y-126818105D01*
X147905172Y-126818111D01*
X147852371Y-126863864D01*
X147820743Y-126896640D01*
X147774534Y-126984977D01*
X147774533Y-126984977D01*
X147754851Y-127052009D01*
X147754848Y-127052021D01*
X147744500Y-127123998D01*
X147744500Y-132976002D01*
X147750338Y-133030312D01*
X147754183Y-133047985D01*
X147761545Y-133081824D01*
X147765212Y-133095191D01*
X147768779Y-133108193D01*
X147768783Y-133108203D01*
X147818105Y-133194818D01*
X147818110Y-133194825D01*
X147818112Y-133194828D01*
X147853903Y-133236133D01*
X147856645Y-133239297D01*
X147885670Y-133302853D01*
X147875726Y-133372011D01*
X147829971Y-133424815D01*
X147762932Y-133444500D01*
X145424500Y-133444500D01*
X145357461Y-133424815D01*
X145311706Y-133372011D01*
X145300500Y-133320500D01*
X145300500Y-122776002D01*
X147744500Y-122776002D01*
X147750338Y-122830312D01*
X147761543Y-122881817D01*
X147761545Y-122881824D01*
X147765212Y-122895191D01*
X147768779Y-122908193D01*
X147768783Y-122908203D01*
X147818105Y-122994818D01*
X147818111Y-122994827D01*
X147853905Y-123036136D01*
X147863867Y-123047632D01*
X147896641Y-123079257D01*
X147984976Y-123125465D01*
X147984977Y-123125465D01*
X147984977Y-123125466D01*
X148029218Y-123138456D01*
X148052015Y-123145150D01*
X148052019Y-123145150D01*
X148052021Y-123145151D01*
X148063652Y-123146823D01*
X148124000Y-123155500D01*
X148124001Y-123155500D01*
X169376000Y-123155500D01*
X169430313Y-123149661D01*
X169446440Y-123146152D01*
X169481817Y-123138457D01*
X169481817Y-123138456D01*
X169481824Y-123138455D01*
X169508198Y-123131219D01*
X169537074Y-123114775D01*
X169594818Y-123081894D01*
X169594821Y-123081891D01*
X169594828Y-123081888D01*
X169630938Y-123050597D01*
X169647629Y-123036136D01*
X169647632Y-123036133D01*
X169679257Y-123003359D01*
X169725465Y-122915024D01*
X169727470Y-122908198D01*
X169735216Y-122881817D01*
X169745150Y-122847985D01*
X169755500Y-122776000D01*
X169755500Y-121179499D01*
X169775185Y-121112461D01*
X169827989Y-121066706D01*
X169879500Y-121055500D01*
X178776000Y-121055500D01*
X178830313Y-121049661D01*
X178846440Y-121046152D01*
X178881817Y-121038457D01*
X178881817Y-121038456D01*
X178881824Y-121038455D01*
X178908198Y-121031219D01*
X178937074Y-121014775D01*
X178994818Y-120981894D01*
X178994821Y-120981891D01*
X178994828Y-120981888D01*
X179047632Y-120936133D01*
X179079257Y-120903359D01*
X179125465Y-120815024D01*
X179145150Y-120747985D01*
X179155500Y-120676000D01*
X179155500Y-117024000D01*
X179149661Y-116969687D01*
X179138455Y-116918176D01*
X179131219Y-116891802D01*
X179127332Y-116884976D01*
X179081894Y-116805181D01*
X179081888Y-116805172D01*
X179036136Y-116752371D01*
X179003359Y-116720743D01*
X178915022Y-116674534D01*
X178915022Y-116674533D01*
X178847990Y-116654851D01*
X178847978Y-116654848D01*
X178776001Y-116644500D01*
X178776000Y-116644500D01*
X148124000Y-116644500D01*
X148123997Y-116644500D01*
X148069687Y-116650338D01*
X148018183Y-116661543D01*
X148018182Y-116661543D01*
X148018176Y-116661545D01*
X148007177Y-116664562D01*
X147991806Y-116668779D01*
X147991796Y-116668783D01*
X147905181Y-116718105D01*
X147905172Y-116718111D01*
X147852371Y-116763864D01*
X147820743Y-116796640D01*
X147774534Y-116884977D01*
X147774533Y-116884977D01*
X147754851Y-116952009D01*
X147754848Y-116952021D01*
X147744500Y-117023998D01*
X147744500Y-122776002D01*
X145300500Y-122776002D01*
X145300500Y-110000000D01*
X145301716Y-109972156D01*
X145318265Y-109593092D01*
X145318734Y-109587743D01*
X145371543Y-109186614D01*
X145372481Y-109181302D01*
X145460047Y-108786319D01*
X145461441Y-108781112D01*
X145583104Y-108395247D01*
X145584951Y-108390174D01*
X145739782Y-108016378D01*
X145742045Y-108011526D01*
X145928870Y-107652639D01*
X145931566Y-107647971D01*
X146148942Y-107306758D01*
X146152035Y-107302340D01*
X146398339Y-106981349D01*
X146401798Y-106977228D01*
X146675133Y-106678936D01*
X146678936Y-106675133D01*
X146977228Y-106401798D01*
X146981349Y-106398339D01*
X147302340Y-106152035D01*
X147306750Y-106148947D01*
X147647971Y-105931566D01*
X147652639Y-105928870D01*
X148011526Y-105742045D01*
X148016378Y-105739782D01*
X148390181Y-105584948D01*
X148395247Y-105583104D01*
X148781112Y-105461441D01*
X148786319Y-105460047D01*
X149181302Y-105372481D01*
X149186614Y-105371543D01*
X149587743Y-105318734D01*
X149593092Y-105318265D01*
X150000000Y-105300500D01*
X150047595Y-105300500D01*
X189952405Y-105300500D01*
X190000000Y-105300500D01*
X190406905Y-105318265D01*
G37*
G04 #@! TD.AperFunction*
G04 #@! TA.AperFunction,Conductor*
G36*
X157443039Y-141619685D02*
G01*
X157488794Y-141672489D01*
X157500000Y-141723999D01*
X157500000Y-151100000D01*
X185485830Y-151100000D01*
X185552869Y-151119685D01*
X185598624Y-151172489D01*
X185606536Y-151195609D01*
X185618537Y-151246634D01*
X185739428Y-151607324D01*
X185752256Y-151645597D01*
X185752257Y-151645601D01*
X185922199Y-152030480D01*
X185922204Y-152030490D01*
X185922208Y-152030499D01*
X185922212Y-152030507D01*
X185922213Y-152030508D01*
X186126949Y-152398081D01*
X186126952Y-152398085D01*
X186126954Y-152398089D01*
X186364743Y-152745218D01*
X186364745Y-152745220D01*
X186364752Y-152745230D01*
X186593567Y-153020780D01*
X186633548Y-153068927D01*
X186931073Y-153366452D01*
X186931084Y-153366461D01*
X187254769Y-153635247D01*
X187254775Y-153635251D01*
X187254782Y-153635257D01*
X187601911Y-153873046D01*
X187969501Y-154077792D01*
X187969518Y-154077799D01*
X187969519Y-154077800D01*
X188354398Y-154247742D01*
X188354402Y-154247743D01*
X188354404Y-154247743D01*
X188354414Y-154247748D01*
X188753366Y-154381463D01*
X189065152Y-154454794D01*
X189125904Y-154489304D01*
X189158354Y-154551181D01*
X189152199Y-154620779D01*
X189109394Y-154676001D01*
X189043529Y-154699315D01*
X189036762Y-154699500D01*
X150963238Y-154699500D01*
X150896199Y-154679815D01*
X150850444Y-154627011D01*
X150840500Y-154557853D01*
X150869525Y-154494297D01*
X150928303Y-154456523D01*
X150934848Y-154454794D01*
X151246634Y-154381463D01*
X151645586Y-154247748D01*
X151645597Y-154247742D01*
X151645601Y-154247742D01*
X151882482Y-154143147D01*
X152030499Y-154077792D01*
X152398089Y-153873046D01*
X152745218Y-153635257D01*
X153068927Y-153366452D01*
X153366452Y-153068927D01*
X153635257Y-152745218D01*
X153873046Y-152398089D01*
X154077792Y-152030499D01*
X154143147Y-151882482D01*
X154247742Y-151645601D01*
X154247743Y-151645597D01*
X154247748Y-151645586D01*
X154381463Y-151246634D01*
X154477797Y-150837045D01*
X154535929Y-150420316D01*
X154555361Y-150000000D01*
X154535929Y-149579684D01*
X154477797Y-149162955D01*
X154381463Y-148753366D01*
X154247748Y-148354414D01*
X154247743Y-148354402D01*
X154247742Y-148354398D01*
X154077800Y-147969519D01*
X154077799Y-147969518D01*
X154077792Y-147969501D01*
X153873046Y-147601911D01*
X153635257Y-147254782D01*
X153635251Y-147254775D01*
X153635247Y-147254769D01*
X153366461Y-146931084D01*
X153366452Y-146931073D01*
X153068927Y-146633548D01*
X152863571Y-146463022D01*
X152745230Y-146364752D01*
X152745220Y-146364745D01*
X152745218Y-146364743D01*
X152398089Y-146126954D01*
X152398085Y-146126952D01*
X152398081Y-146126949D01*
X152030508Y-145922213D01*
X152030507Y-145922212D01*
X152030499Y-145922208D01*
X152030490Y-145922204D01*
X152030480Y-145922199D01*
X151645601Y-145752257D01*
X151645597Y-145752256D01*
X151645588Y-145752253D01*
X151645586Y-145752252D01*
X151246634Y-145618537D01*
X151246633Y-145618536D01*
X151246631Y-145618536D01*
X150837050Y-145522204D01*
X150837047Y-145522203D01*
X150837045Y-145522203D01*
X150609493Y-145490460D01*
X150420324Y-145464072D01*
X150420322Y-145464071D01*
X150420316Y-145464071D01*
X150000000Y-145444639D01*
X149579684Y-145464071D01*
X149579677Y-145464071D01*
X149579675Y-145464072D01*
X149162955Y-145522203D01*
X149162949Y-145522204D01*
X148753368Y-145618536D01*
X148354402Y-145752256D01*
X148354398Y-145752257D01*
X147969519Y-145922199D01*
X147969491Y-145922213D01*
X147601918Y-146126949D01*
X147601912Y-146126953D01*
X147254779Y-146364745D01*
X147254769Y-146364752D01*
X146931084Y-146633538D01*
X146931064Y-146633556D01*
X146633556Y-146931064D01*
X146633538Y-146931084D01*
X146364752Y-147254769D01*
X146364745Y-147254779D01*
X146126953Y-147601912D01*
X146126949Y-147601918D01*
X145922213Y-147969491D01*
X145922199Y-147969519D01*
X145752257Y-148354398D01*
X145752256Y-148354402D01*
X145618536Y-148753368D01*
X145545206Y-149065151D01*
X145510696Y-149125903D01*
X145448819Y-149158353D01*
X145379221Y-149152198D01*
X145323999Y-149109393D01*
X145300685Y-149043528D01*
X145300500Y-149036761D01*
X145300500Y-143249999D01*
X150019610Y-143249999D01*
X150039068Y-143385337D01*
X150039070Y-143385345D01*
X150095867Y-143509714D01*
X150095872Y-143509721D01*
X150185409Y-143613053D01*
X150185413Y-143613057D01*
X150199622Y-143622188D01*
X150300439Y-143686978D01*
X150366035Y-143706238D01*
X150431632Y-143725500D01*
X150431633Y-143725500D01*
X150568367Y-143725500D01*
X150699561Y-143686978D01*
X150814589Y-143613055D01*
X150904130Y-143509718D01*
X150960931Y-143385342D01*
X150980390Y-143250000D01*
X150960931Y-143114658D01*
X150948677Y-143087827D01*
X150908569Y-143000000D01*
X155000000Y-143000000D01*
X155000000Y-144750000D01*
X155128687Y-144750000D01*
X155195725Y-144769684D01*
X155249751Y-144804403D01*
X155300439Y-144836978D01*
X155366035Y-144856238D01*
X155431632Y-144875500D01*
X155431633Y-144875500D01*
X155568367Y-144875500D01*
X155699561Y-144836978D01*
X155767870Y-144793078D01*
X155804275Y-144769684D01*
X155871313Y-144750000D01*
X155999999Y-144750000D01*
X156000000Y-144750000D01*
X156000000Y-143000000D01*
X155000000Y-143000000D01*
X150908569Y-143000000D01*
X150904132Y-142990285D01*
X150904130Y-142990283D01*
X150904130Y-142990282D01*
X150874599Y-142956201D01*
X150845575Y-142892647D01*
X150855518Y-142823489D01*
X150874597Y-142793800D01*
X150904130Y-142759718D01*
X150960931Y-142635342D01*
X150980390Y-142500000D01*
X150960931Y-142364658D01*
X150928359Y-142293336D01*
X150904132Y-142240285D01*
X150904127Y-142240278D01*
X150814590Y-142136946D01*
X150814586Y-142136942D01*
X150699559Y-142063021D01*
X150568368Y-142024500D01*
X150568367Y-142024500D01*
X150431633Y-142024500D01*
X150431632Y-142024500D01*
X150300440Y-142063021D01*
X150185413Y-142136942D01*
X150185409Y-142136946D01*
X150095872Y-142240278D01*
X150095867Y-142240285D01*
X150039070Y-142364654D01*
X150039068Y-142364662D01*
X150019610Y-142500000D01*
X150039068Y-142635337D01*
X150039070Y-142635345D01*
X150095867Y-142759714D01*
X150095869Y-142759716D01*
X150095870Y-142759718D01*
X150121001Y-142788722D01*
X150125400Y-142793798D01*
X150154424Y-142857354D01*
X150144480Y-142926513D01*
X150125400Y-142956202D01*
X150095870Y-142990282D01*
X150095867Y-142990285D01*
X150039070Y-143114654D01*
X150039068Y-143114662D01*
X150019610Y-143249999D01*
X145300500Y-143249999D01*
X145300500Y-141724000D01*
X145320185Y-141656961D01*
X145372989Y-141611206D01*
X145424500Y-141600000D01*
X157376000Y-141600000D01*
X157443039Y-141619685D01*
G37*
G04 #@! TD.AperFunction*
G04 #@! TA.AperFunction,Conductor*
G36*
X163443039Y-137419685D02*
G01*
X163488794Y-137472489D01*
X163500000Y-137524000D01*
X163500000Y-138600000D01*
X174800000Y-138600000D01*
X175476000Y-138600000D01*
X175543039Y-138619685D01*
X175588794Y-138672489D01*
X175600000Y-138724000D01*
X175600000Y-144076000D01*
X175580315Y-144143039D01*
X175527511Y-144188794D01*
X175476000Y-144200000D01*
X174924000Y-144200000D01*
X174856961Y-144180315D01*
X174811206Y-144127511D01*
X174800000Y-144076000D01*
X174800000Y-139200000D01*
X162824000Y-139200000D01*
X162756961Y-139180315D01*
X162711206Y-139127511D01*
X162700000Y-139076000D01*
X162700000Y-137524000D01*
X162719685Y-137456961D01*
X162772489Y-137411206D01*
X162824000Y-137400000D01*
X163376000Y-137400000D01*
X163443039Y-137419685D01*
G37*
G04 #@! TD.AperFunction*
G04 #@! TA.AperFunction,Conductor*
G36*
X161743039Y-133719685D02*
G01*
X161788794Y-133772489D01*
X161800000Y-133824000D01*
X161800000Y-147600000D01*
X180200000Y-147600000D01*
X180200000Y-142824000D01*
X180219685Y-142756961D01*
X180272489Y-142711206D01*
X180324000Y-142700000D01*
X194575500Y-142700000D01*
X194642539Y-142719685D01*
X194688294Y-142772489D01*
X194699500Y-142824000D01*
X194699500Y-149036761D01*
X194679815Y-149103800D01*
X194627011Y-149149555D01*
X194557853Y-149159499D01*
X194494297Y-149130474D01*
X194456523Y-149071696D01*
X194454794Y-149065151D01*
X194408525Y-148868428D01*
X194381463Y-148753366D01*
X194247748Y-148354414D01*
X194247743Y-148354402D01*
X194247742Y-148354398D01*
X194077800Y-147969519D01*
X194077799Y-147969518D01*
X194077792Y-147969501D01*
X193873046Y-147601911D01*
X193635257Y-147254782D01*
X193635251Y-147254775D01*
X193635247Y-147254769D01*
X193366461Y-146931084D01*
X193366452Y-146931073D01*
X193068927Y-146633548D01*
X192863571Y-146463022D01*
X192745230Y-146364752D01*
X192745220Y-146364745D01*
X192745218Y-146364743D01*
X192398089Y-146126954D01*
X192398085Y-146126952D01*
X192398081Y-146126949D01*
X192030508Y-145922213D01*
X192030507Y-145922212D01*
X192030499Y-145922208D01*
X192030490Y-145922204D01*
X192030480Y-145922199D01*
X191645601Y-145752257D01*
X191645597Y-145752256D01*
X191645588Y-145752253D01*
X191645586Y-145752252D01*
X191246634Y-145618537D01*
X191246633Y-145618536D01*
X191246631Y-145618536D01*
X190837050Y-145522204D01*
X190837047Y-145522203D01*
X190837045Y-145522203D01*
X190609493Y-145490460D01*
X190420324Y-145464072D01*
X190420322Y-145464071D01*
X190420316Y-145464071D01*
X190000000Y-145444639D01*
X189579684Y-145464071D01*
X189579677Y-145464071D01*
X189579675Y-145464072D01*
X189162955Y-145522203D01*
X189162949Y-145522204D01*
X188753368Y-145618536D01*
X188354402Y-145752256D01*
X188354398Y-145752257D01*
X187969519Y-145922199D01*
X187969491Y-145922213D01*
X187601918Y-146126949D01*
X187601912Y-146126953D01*
X187254779Y-146364745D01*
X187254769Y-146364752D01*
X186931084Y-146633538D01*
X186931064Y-146633556D01*
X186633556Y-146931064D01*
X186633538Y-146931084D01*
X186364752Y-147254769D01*
X186364745Y-147254779D01*
X186126953Y-147601912D01*
X186126949Y-147601918D01*
X185922213Y-147969491D01*
X185922199Y-147969519D01*
X185752257Y-148354398D01*
X185752256Y-148354402D01*
X185618536Y-148753368D01*
X185522204Y-149162949D01*
X185522203Y-149162955D01*
X185507283Y-149269915D01*
X185464071Y-149579684D01*
X185444639Y-150000000D01*
X185464071Y-150420316D01*
X185464071Y-150420321D01*
X185464072Y-150420326D01*
X185487021Y-150584840D01*
X185476787Y-150653956D01*
X185430811Y-150706567D01*
X185364544Y-150725971D01*
X182227495Y-150734426D01*
X182160403Y-150714922D01*
X182114506Y-150662241D01*
X182104376Y-150593110D01*
X182133230Y-150529476D01*
X182155229Y-150509422D01*
X182223952Y-150460486D01*
X182262245Y-150420326D01*
X182368985Y-150308379D01*
X182391797Y-150272883D01*
X182482613Y-150131572D01*
X182560725Y-149936457D01*
X182600500Y-149730085D01*
X182600500Y-149322575D01*
X182585528Y-149165782D01*
X182526316Y-148964125D01*
X182430011Y-148777318D01*
X182430009Y-148777316D01*
X182430008Y-148777313D01*
X182300094Y-148612116D01*
X182300090Y-148612112D01*
X182141253Y-148474478D01*
X181959249Y-148369398D01*
X181959245Y-148369396D01*
X181959244Y-148369396D01*
X181760633Y-148300656D01*
X181552602Y-148270746D01*
X181552598Y-148270746D01*
X181342672Y-148280745D01*
X181138421Y-148330296D01*
X181138417Y-148330298D01*
X180947256Y-148417598D01*
X180947251Y-148417601D01*
X180776046Y-148539515D01*
X180776040Y-148539520D01*
X180631014Y-148691620D01*
X180517388Y-148868425D01*
X180439274Y-149063544D01*
X180419571Y-149165775D01*
X180399500Y-149269915D01*
X180399500Y-149677425D01*
X180414472Y-149834218D01*
X180473684Y-150035875D01*
X180523019Y-150131572D01*
X180569991Y-150222686D01*
X180699905Y-150387883D01*
X180699906Y-150387884D01*
X180699908Y-150387886D01*
X180840163Y-150509418D01*
X180853109Y-150520636D01*
X180890883Y-150579414D01*
X180890883Y-150649284D01*
X180853109Y-150708062D01*
X180789553Y-150737087D01*
X180772240Y-150738349D01*
X177208497Y-150747955D01*
X177141405Y-150728451D01*
X177095508Y-150675770D01*
X177085378Y-150606639D01*
X177114232Y-150543005D01*
X177136234Y-150522949D01*
X177223952Y-150460486D01*
X177262245Y-150420326D01*
X177368985Y-150308379D01*
X177391797Y-150272883D01*
X177482613Y-150131572D01*
X177560725Y-149936457D01*
X177600500Y-149730085D01*
X177600500Y-149322575D01*
X177585528Y-149165782D01*
X177526316Y-148964125D01*
X177430011Y-148777318D01*
X177430009Y-148777316D01*
X177430008Y-148777313D01*
X177300094Y-148612116D01*
X177300090Y-148612112D01*
X177141253Y-148474478D01*
X176959249Y-148369398D01*
X176959245Y-148369396D01*
X176959244Y-148369396D01*
X176760633Y-148300656D01*
X176552602Y-148270746D01*
X176552598Y-148270746D01*
X176342672Y-148280745D01*
X176138421Y-148330296D01*
X176138417Y-148330298D01*
X175947256Y-148417598D01*
X175947251Y-148417601D01*
X175776046Y-148539515D01*
X175776040Y-148539520D01*
X175631014Y-148691620D01*
X175517388Y-148868425D01*
X175439274Y-149063544D01*
X175419571Y-149165775D01*
X175399500Y-149269915D01*
X175399500Y-149677425D01*
X175414472Y-149834218D01*
X175473684Y-150035875D01*
X175523019Y-150131572D01*
X175569991Y-150222686D01*
X175699905Y-150387883D01*
X175699909Y-150387887D01*
X175858744Y-150525519D01*
X175860509Y-150526776D01*
X175861180Y-150527630D01*
X175863208Y-150529387D01*
X175862869Y-150529777D01*
X175903697Y-150581699D01*
X175910336Y-150651253D01*
X175878318Y-150713354D01*
X175817807Y-150748287D01*
X175788912Y-150751781D01*
X174698998Y-150754719D01*
X174631906Y-150735215D01*
X174586009Y-150682534D01*
X174575879Y-150613403D01*
X174604733Y-150549769D01*
X174626734Y-150529713D01*
X174723952Y-150460486D01*
X174762245Y-150420326D01*
X174868985Y-150308379D01*
X174891797Y-150272883D01*
X174982613Y-150131572D01*
X175060725Y-149936457D01*
X175100500Y-149730085D01*
X175100500Y-149322575D01*
X175085528Y-149165782D01*
X175026316Y-148964125D01*
X174930011Y-148777318D01*
X174930009Y-148777316D01*
X174930008Y-148777313D01*
X174800094Y-148612116D01*
X174800090Y-148612112D01*
X174641253Y-148474478D01*
X174459249Y-148369398D01*
X174459245Y-148369396D01*
X174459244Y-148369396D01*
X174260633Y-148300656D01*
X174052602Y-148270746D01*
X174052598Y-148270746D01*
X173842672Y-148280745D01*
X173638421Y-148330296D01*
X173638417Y-148330298D01*
X173447256Y-148417598D01*
X173447251Y-148417601D01*
X173276046Y-148539515D01*
X173276040Y-148539520D01*
X173131014Y-148691620D01*
X173017388Y-148868425D01*
X172939274Y-149063544D01*
X172919571Y-149165775D01*
X172899500Y-149269915D01*
X172899500Y-149677425D01*
X172914472Y-149834218D01*
X172973684Y-150035875D01*
X173023019Y-150131572D01*
X173069991Y-150222686D01*
X173199905Y-150387883D01*
X173199908Y-150387886D01*
X173358744Y-150525519D01*
X173358746Y-150525520D01*
X173358747Y-150525521D01*
X173361483Y-150527101D01*
X173362580Y-150528251D01*
X173363558Y-150528948D01*
X173363423Y-150529136D01*
X173409700Y-150577666D01*
X173422926Y-150646272D01*
X173396960Y-150711138D01*
X173340048Y-150751669D01*
X173299821Y-150758490D01*
X172189499Y-150761483D01*
X172122407Y-150741979D01*
X172076510Y-150689298D01*
X172066380Y-150620167D01*
X172095234Y-150556533D01*
X172117234Y-150536478D01*
X172223952Y-150460486D01*
X172262245Y-150420326D01*
X172368985Y-150308379D01*
X172391797Y-150272883D01*
X172482613Y-150131572D01*
X172560725Y-149936457D01*
X172600500Y-149730085D01*
X172600500Y-149322575D01*
X172585528Y-149165782D01*
X172526316Y-148964125D01*
X172430011Y-148777318D01*
X172430009Y-148777316D01*
X172430008Y-148777313D01*
X172300094Y-148612116D01*
X172300090Y-148612112D01*
X172141253Y-148474478D01*
X171959249Y-148369398D01*
X171959245Y-148369396D01*
X171959244Y-148369396D01*
X171760633Y-148300656D01*
X171552602Y-148270746D01*
X171552598Y-148270746D01*
X171342672Y-148280745D01*
X171138421Y-148330296D01*
X171138417Y-148330298D01*
X170947256Y-148417598D01*
X170947251Y-148417601D01*
X170776046Y-148539515D01*
X170776040Y-148539520D01*
X170631014Y-148691620D01*
X170517388Y-148868425D01*
X170439274Y-149063544D01*
X170419571Y-149165775D01*
X170399500Y-149269915D01*
X170399500Y-149677425D01*
X170414472Y-149834218D01*
X170473684Y-150035875D01*
X170523019Y-150131572D01*
X170569991Y-150222686D01*
X170699905Y-150387883D01*
X170699909Y-150387887D01*
X170858746Y-150525521D01*
X170873106Y-150533812D01*
X170921321Y-150584380D01*
X170934542Y-150652987D01*
X170908573Y-150717852D01*
X170851658Y-150758379D01*
X170811438Y-150765198D01*
X169680000Y-150768247D01*
X169612908Y-150748743D01*
X169567011Y-150696062D01*
X169556881Y-150626931D01*
X169585735Y-150563297D01*
X169607734Y-150543243D01*
X169723952Y-150460486D01*
X169762245Y-150420326D01*
X169868985Y-150308379D01*
X169891797Y-150272883D01*
X169982613Y-150131572D01*
X170060725Y-149936457D01*
X170100500Y-149730085D01*
X170100500Y-149322575D01*
X170085528Y-149165782D01*
X170026316Y-148964125D01*
X169930011Y-148777318D01*
X169930009Y-148777316D01*
X169930008Y-148777313D01*
X169800094Y-148612116D01*
X169800090Y-148612112D01*
X169641253Y-148474478D01*
X169459249Y-148369398D01*
X169459245Y-148369396D01*
X169459244Y-148369396D01*
X169260633Y-148300656D01*
X169052602Y-148270746D01*
X169052598Y-148270746D01*
X168842672Y-148280745D01*
X168638421Y-148330296D01*
X168638417Y-148330298D01*
X168447256Y-148417598D01*
X168447251Y-148417601D01*
X168276046Y-148539515D01*
X168276040Y-148539520D01*
X168131014Y-148691620D01*
X168017388Y-148868425D01*
X167939274Y-149063544D01*
X167919571Y-149165775D01*
X167899500Y-149269915D01*
X167899500Y-149677425D01*
X167914472Y-149834218D01*
X167973684Y-150035875D01*
X168023019Y-150131572D01*
X168069991Y-150222686D01*
X168199905Y-150387883D01*
X168199909Y-150387887D01*
X168358746Y-150525521D01*
X168384722Y-150540518D01*
X168432937Y-150591085D01*
X168446161Y-150659692D01*
X168420193Y-150724556D01*
X168363279Y-150765085D01*
X168323056Y-150771905D01*
X167170501Y-150775011D01*
X167103409Y-150755507D01*
X167057512Y-150702826D01*
X167047382Y-150633695D01*
X167076236Y-150570061D01*
X167098234Y-150550008D01*
X167223952Y-150460486D01*
X167262245Y-150420326D01*
X167368985Y-150308379D01*
X167391797Y-150272883D01*
X167482613Y-150131572D01*
X167560725Y-149936457D01*
X167600500Y-149730085D01*
X167600500Y-149322575D01*
X167585528Y-149165782D01*
X167526316Y-148964125D01*
X167430011Y-148777318D01*
X167430009Y-148777316D01*
X167430008Y-148777313D01*
X167300094Y-148612116D01*
X167300090Y-148612112D01*
X167141253Y-148474478D01*
X166959249Y-148369398D01*
X166959245Y-148369396D01*
X166959244Y-148369396D01*
X166760633Y-148300656D01*
X166552602Y-148270746D01*
X166552598Y-148270746D01*
X166342672Y-148280745D01*
X166138421Y-148330296D01*
X166138417Y-148330298D01*
X165947256Y-148417598D01*
X165947251Y-148417601D01*
X165776046Y-148539515D01*
X165776040Y-148539520D01*
X165631014Y-148691620D01*
X165517388Y-148868425D01*
X165439274Y-149063544D01*
X165419571Y-149165775D01*
X165399500Y-149269915D01*
X165399500Y-149677425D01*
X165414472Y-149834218D01*
X165473684Y-150035875D01*
X165523019Y-150131572D01*
X165569991Y-150222686D01*
X165699905Y-150387883D01*
X165699909Y-150387887D01*
X165858746Y-150525521D01*
X165896339Y-150547225D01*
X165944554Y-150597792D01*
X165957778Y-150666398D01*
X165931810Y-150731263D01*
X165874896Y-150771792D01*
X165834673Y-150778612D01*
X164661002Y-150781776D01*
X164593910Y-150762272D01*
X164548013Y-150709591D01*
X164537883Y-150640460D01*
X164566736Y-150576826D01*
X164588735Y-150556773D01*
X164723952Y-150460486D01*
X164762245Y-150420326D01*
X164868985Y-150308379D01*
X164891797Y-150272883D01*
X164982613Y-150131572D01*
X165060725Y-149936457D01*
X165100500Y-149730085D01*
X165100500Y-149322575D01*
X165085528Y-149165782D01*
X165026316Y-148964125D01*
X164930011Y-148777318D01*
X164930009Y-148777316D01*
X164930008Y-148777313D01*
X164800094Y-148612116D01*
X164800090Y-148612112D01*
X164641253Y-148474478D01*
X164459249Y-148369398D01*
X164459245Y-148369396D01*
X164459244Y-148369396D01*
X164260633Y-148300656D01*
X164052602Y-148270746D01*
X164052598Y-148270746D01*
X163842672Y-148280745D01*
X163638421Y-148330296D01*
X163638417Y-148330298D01*
X163447256Y-148417598D01*
X163447251Y-148417601D01*
X163276046Y-148539515D01*
X163276040Y-148539520D01*
X163131014Y-148691620D01*
X163017388Y-148868425D01*
X162939274Y-149063544D01*
X162919571Y-149165775D01*
X162899500Y-149269915D01*
X162899500Y-149677425D01*
X162914472Y-149834218D01*
X162973684Y-150035875D01*
X163023019Y-150131572D01*
X163069991Y-150222686D01*
X163199905Y-150387883D01*
X163199909Y-150387887D01*
X163358746Y-150525521D01*
X163407956Y-150553932D01*
X163456171Y-150604498D01*
X163469395Y-150673105D01*
X163443427Y-150737970D01*
X163386513Y-150778499D01*
X163346290Y-150785319D01*
X162151503Y-150788540D01*
X162084411Y-150769036D01*
X162038514Y-150716355D01*
X162028384Y-150647224D01*
X162057237Y-150583590D01*
X162079235Y-150563537D01*
X162223952Y-150460486D01*
X162262245Y-150420326D01*
X162368985Y-150308379D01*
X162391797Y-150272883D01*
X162482613Y-150131572D01*
X162560725Y-149936457D01*
X162600500Y-149730085D01*
X162600500Y-149322575D01*
X162585528Y-149165782D01*
X162526316Y-148964125D01*
X162430011Y-148777318D01*
X162430009Y-148777316D01*
X162430008Y-148777313D01*
X162300094Y-148612116D01*
X162300090Y-148612112D01*
X162141253Y-148474478D01*
X161959249Y-148369398D01*
X161959245Y-148369396D01*
X161959244Y-148369396D01*
X161760633Y-148300656D01*
X161552602Y-148270746D01*
X161552598Y-148270746D01*
X161342672Y-148280745D01*
X161138421Y-148330296D01*
X161138417Y-148330298D01*
X160947256Y-148417598D01*
X160947251Y-148417601D01*
X160776046Y-148539515D01*
X160776040Y-148539520D01*
X160631014Y-148691620D01*
X160517388Y-148868425D01*
X160439274Y-149063544D01*
X160419571Y-149165775D01*
X160399500Y-149269915D01*
X160399500Y-149677425D01*
X160414472Y-149834218D01*
X160473684Y-150035875D01*
X160523019Y-150131572D01*
X160569991Y-150222686D01*
X160699905Y-150387883D01*
X160699909Y-150387887D01*
X160858746Y-150525521D01*
X160919574Y-150560640D01*
X160967790Y-150611207D01*
X160981013Y-150679814D01*
X160955045Y-150744679D01*
X160898130Y-150785207D01*
X160857908Y-150792027D01*
X160045571Y-150794216D01*
X159978479Y-150774712D01*
X159932582Y-150722031D01*
X159922452Y-150652900D01*
X159951306Y-150589266D01*
X159957542Y-150582548D01*
X159957546Y-150582546D01*
X160043796Y-150467331D01*
X160094091Y-150332483D01*
X160100500Y-150272873D01*
X160100499Y-148727128D01*
X160094091Y-148667517D01*
X160073426Y-148612112D01*
X160043797Y-148532671D01*
X160043793Y-148532664D01*
X159957547Y-148417455D01*
X159957544Y-148417452D01*
X159842335Y-148331206D01*
X159842328Y-148331202D01*
X159707482Y-148280908D01*
X159707483Y-148280908D01*
X159647883Y-148274501D01*
X159647881Y-148274500D01*
X159647873Y-148274500D01*
X159647864Y-148274500D01*
X158352129Y-148274500D01*
X158352123Y-148274501D01*
X158292516Y-148280908D01*
X158157671Y-148331202D01*
X158157668Y-148331204D01*
X158098310Y-148375640D01*
X158032846Y-148400057D01*
X157964573Y-148385205D01*
X157915167Y-148335800D01*
X157900000Y-148276376D01*
X157900000Y-142000000D01*
X158269610Y-142000000D01*
X158289068Y-142135337D01*
X158289070Y-142135345D01*
X158345867Y-142259714D01*
X158345872Y-142259721D01*
X158435409Y-142363053D01*
X158435413Y-142363057D01*
X158495979Y-142401979D01*
X158550439Y-142436978D01*
X158616035Y-142456238D01*
X158681632Y-142475500D01*
X158681633Y-142475500D01*
X158818367Y-142475500D01*
X158949561Y-142436978D01*
X159057962Y-142367313D01*
X159125001Y-142347630D01*
X159192037Y-142367313D01*
X159300439Y-142436978D01*
X159300441Y-142436978D01*
X159300442Y-142436979D01*
X159431632Y-142475500D01*
X159431633Y-142475500D01*
X159568367Y-142475500D01*
X159699561Y-142436978D01*
X159814589Y-142363055D01*
X159904130Y-142259718D01*
X159960931Y-142135342D01*
X159980390Y-142000000D01*
X159960931Y-141864658D01*
X159948677Y-141837827D01*
X159904132Y-141740285D01*
X159904127Y-141740278D01*
X159814590Y-141636946D01*
X159814586Y-141636942D01*
X159699559Y-141563021D01*
X159568368Y-141524500D01*
X159568367Y-141524500D01*
X159431633Y-141524500D01*
X159431632Y-141524500D01*
X159300440Y-141563021D01*
X159192038Y-141632685D01*
X159124998Y-141652369D01*
X159057962Y-141632685D01*
X158949559Y-141563021D01*
X158818368Y-141524500D01*
X158818367Y-141524500D01*
X158681633Y-141524500D01*
X158681632Y-141524500D01*
X158550440Y-141563021D01*
X158435413Y-141636942D01*
X158435409Y-141636946D01*
X158345872Y-141740278D01*
X158345867Y-141740285D01*
X158289070Y-141864654D01*
X158289068Y-141864662D01*
X158269610Y-142000000D01*
X157900000Y-142000000D01*
X157900000Y-141300000D01*
X151967447Y-141300000D01*
X151900408Y-141280315D01*
X151854653Y-141227511D01*
X151844709Y-141158353D01*
X151873734Y-141094798D01*
X151904127Y-141059722D01*
X151904128Y-141059720D01*
X151904130Y-141059718D01*
X151960931Y-140935342D01*
X151980390Y-140800000D01*
X151960931Y-140664658D01*
X151947543Y-140635342D01*
X151904132Y-140540285D01*
X151904127Y-140540278D01*
X151814590Y-140436946D01*
X151814586Y-140436942D01*
X151723736Y-140378558D01*
X151699561Y-140363022D01*
X151699560Y-140363021D01*
X151699559Y-140363021D01*
X151568368Y-140324500D01*
X151568367Y-140324500D01*
X151431633Y-140324500D01*
X151431632Y-140324500D01*
X151300440Y-140363021D01*
X151185413Y-140436942D01*
X151185409Y-140436946D01*
X151095872Y-140540278D01*
X151095867Y-140540285D01*
X151039070Y-140664654D01*
X151039068Y-140664662D01*
X151019610Y-140800000D01*
X151039068Y-140935337D01*
X151039070Y-140935345D01*
X151095867Y-141059714D01*
X151095872Y-141059722D01*
X151126266Y-141094798D01*
X151155291Y-141158353D01*
X151145347Y-141227512D01*
X151099592Y-141280316D01*
X151032553Y-141300000D01*
X145424500Y-141300000D01*
X145357461Y-141280315D01*
X145311706Y-141227511D01*
X145300500Y-141176000D01*
X145300500Y-139000000D01*
X155769610Y-139000000D01*
X155789068Y-139135337D01*
X155789070Y-139135345D01*
X155845867Y-139259714D01*
X155845872Y-139259721D01*
X155935409Y-139363053D01*
X155935413Y-139363057D01*
X155972585Y-139386945D01*
X156050439Y-139436978D01*
X156113519Y-139455500D01*
X156181632Y-139475500D01*
X156181633Y-139475500D01*
X156318367Y-139475500D01*
X156449561Y-139436978D01*
X156564589Y-139363055D01*
X156654130Y-139259718D01*
X156710931Y-139135342D01*
X156730390Y-139000000D01*
X156710931Y-138864658D01*
X156698677Y-138837827D01*
X156654132Y-138740285D01*
X156654127Y-138740278D01*
X156564590Y-138636946D01*
X156564586Y-138636942D01*
X156449559Y-138563021D01*
X156318368Y-138524500D01*
X156318367Y-138524500D01*
X156181633Y-138524500D01*
X156181632Y-138524500D01*
X156050440Y-138563021D01*
X155935413Y-138636942D01*
X155935409Y-138636946D01*
X155845872Y-138740278D01*
X155845867Y-138740285D01*
X155789070Y-138864654D01*
X155789068Y-138864662D01*
X155769610Y-139000000D01*
X145300500Y-139000000D01*
X145300500Y-133824000D01*
X145320185Y-133756961D01*
X145372989Y-133711206D01*
X145424500Y-133700000D01*
X161676000Y-133700000D01*
X161743039Y-133719685D01*
G37*
G04 #@! TD.AperFunction*
G04 #@! TA.AperFunction,Conductor*
G36*
X189988490Y-128919685D02*
G01*
X190034245Y-128972489D01*
X190044189Y-129041647D01*
X190015164Y-129105203D01*
X190009132Y-129111681D01*
X189999954Y-129120858D01*
X189869432Y-129307265D01*
X189869431Y-129307267D01*
X189773261Y-129513502D01*
X189773258Y-129513511D01*
X189714366Y-129733302D01*
X189714364Y-129733313D01*
X189694532Y-129959998D01*
X189694532Y-129960001D01*
X189714364Y-130186686D01*
X189714366Y-130186697D01*
X189773258Y-130406488D01*
X189773261Y-130406497D01*
X189869431Y-130612732D01*
X189869432Y-130612734D01*
X189999954Y-130799141D01*
X190160857Y-130960044D01*
X190180680Y-130973924D01*
X190224306Y-131028500D01*
X190231500Y-131097999D01*
X190199978Y-131160354D01*
X190139749Y-131195768D01*
X190109558Y-131199500D01*
X189925323Y-131199500D01*
X189852264Y-131214032D01*
X189852260Y-131214033D01*
X189769399Y-131269399D01*
X189714033Y-131352260D01*
X189714032Y-131352264D01*
X189699500Y-131425321D01*
X189699500Y-133574678D01*
X189714032Y-133647735D01*
X189714033Y-133647739D01*
X189714034Y-133647740D01*
X189769399Y-133730601D01*
X189852259Y-133785965D01*
X189852260Y-133785966D01*
X189852264Y-133785967D01*
X189925321Y-133800499D01*
X189925324Y-133800500D01*
X189925326Y-133800500D01*
X192074676Y-133800500D01*
X192074677Y-133800499D01*
X192147740Y-133785966D01*
X192230601Y-133730601D01*
X192285966Y-133647740D01*
X192300500Y-133574674D01*
X192300500Y-131425326D01*
X192300500Y-131425325D01*
X192300500Y-131425323D01*
X192300499Y-131425321D01*
X192285967Y-131352264D01*
X192285966Y-131352260D01*
X192230601Y-131269399D01*
X192147740Y-131214034D01*
X192147739Y-131214033D01*
X192147735Y-131214032D01*
X192074677Y-131199500D01*
X192074674Y-131199500D01*
X191890442Y-131199500D01*
X191823403Y-131179815D01*
X191777648Y-131127011D01*
X191767704Y-131057853D01*
X191796729Y-130994297D01*
X191819320Y-130973924D01*
X191839139Y-130960047D01*
X192000047Y-130799139D01*
X192130568Y-130612734D01*
X192226739Y-130406496D01*
X192285635Y-130186692D01*
X192305468Y-129960000D01*
X192285635Y-129733308D01*
X192226739Y-129513504D01*
X192130568Y-129307266D01*
X192000047Y-129120861D01*
X192000045Y-129120858D01*
X191990868Y-129111681D01*
X191957383Y-129050358D01*
X191962367Y-128980666D01*
X192004239Y-128924733D01*
X192069703Y-128900316D01*
X192078549Y-128900000D01*
X194575500Y-128900000D01*
X194642539Y-128919685D01*
X194688294Y-128972489D01*
X194699500Y-129024000D01*
X194699500Y-138317033D01*
X194679815Y-138384072D01*
X194627011Y-138429827D01*
X194557853Y-138439771D01*
X194494297Y-138410746D01*
X194462706Y-138368545D01*
X194430102Y-138297152D01*
X194404130Y-138240282D01*
X194397202Y-138232287D01*
X194314590Y-138136946D01*
X194314586Y-138136942D01*
X194199559Y-138063021D01*
X194068368Y-138024500D01*
X194068367Y-138024500D01*
X193931633Y-138024500D01*
X193931632Y-138024500D01*
X193800440Y-138063021D01*
X193685413Y-138136942D01*
X193685413Y-138136943D01*
X193593713Y-138242771D01*
X193534935Y-138280545D01*
X193465065Y-138280545D01*
X193406287Y-138242771D01*
X193371698Y-138202853D01*
X193314589Y-138136945D01*
X193314586Y-138136943D01*
X193314586Y-138136942D01*
X193199559Y-138063021D01*
X193068368Y-138024500D01*
X193068367Y-138024500D01*
X192931633Y-138024500D01*
X192931632Y-138024500D01*
X192800440Y-138063021D01*
X192685413Y-138136942D01*
X192685409Y-138136946D01*
X192595872Y-138240278D01*
X192595867Y-138240285D01*
X192539070Y-138364654D01*
X192539068Y-138364662D01*
X192519610Y-138500000D01*
X192539068Y-138635337D01*
X192539070Y-138635345D01*
X192595867Y-138759714D01*
X192595872Y-138759721D01*
X192685409Y-138863053D01*
X192685413Y-138863057D01*
X192745979Y-138901979D01*
X192800439Y-138936978D01*
X192866035Y-138956238D01*
X192931632Y-138975500D01*
X192931633Y-138975500D01*
X193068367Y-138975500D01*
X193199561Y-138936978D01*
X193314589Y-138863055D01*
X193380049Y-138787508D01*
X193406287Y-138757229D01*
X193465065Y-138719454D01*
X193534934Y-138719454D01*
X193593713Y-138757228D01*
X193593713Y-138757229D01*
X193685409Y-138863053D01*
X193685413Y-138863057D01*
X193745979Y-138901979D01*
X193800439Y-138936978D01*
X193866036Y-138956238D01*
X193931632Y-138975500D01*
X193931633Y-138975500D01*
X194068367Y-138975500D01*
X194199561Y-138936978D01*
X194314589Y-138863055D01*
X194404130Y-138759718D01*
X194460931Y-138635342D01*
X194460931Y-138635341D01*
X194462706Y-138631455D01*
X194508460Y-138578651D01*
X194575500Y-138558966D01*
X194642539Y-138578650D01*
X194688294Y-138631454D01*
X194699500Y-138682966D01*
X194699500Y-142176089D01*
X194679815Y-142243128D01*
X194627011Y-142288883D01*
X194575526Y-142300089D01*
X179800000Y-142303230D01*
X179800000Y-147076000D01*
X179780315Y-147143039D01*
X179727511Y-147188794D01*
X179676000Y-147200000D01*
X162324000Y-147200000D01*
X162256961Y-147180315D01*
X162211206Y-147127511D01*
X162200000Y-147076000D01*
X162200000Y-142250000D01*
X162769610Y-142250000D01*
X162789068Y-142385337D01*
X162789070Y-142385345D01*
X162845867Y-142509714D01*
X162845872Y-142509721D01*
X162935409Y-142613053D01*
X162935413Y-142613057D01*
X162995979Y-142651979D01*
X163050439Y-142686978D01*
X163116036Y-142706238D01*
X163181632Y-142725500D01*
X163181633Y-142725500D01*
X163318367Y-142725500D01*
X163449561Y-142686978D01*
X163564589Y-142613055D01*
X163654130Y-142509718D01*
X163710931Y-142385342D01*
X163730390Y-142250000D01*
X163710931Y-142114658D01*
X163698677Y-142087827D01*
X163654132Y-141990285D01*
X163654127Y-141990278D01*
X163564590Y-141886946D01*
X163564586Y-141886942D01*
X163449559Y-141813021D01*
X163318368Y-141774500D01*
X163318367Y-141774500D01*
X163181633Y-141774500D01*
X163181632Y-141774500D01*
X163050440Y-141813021D01*
X162935413Y-141886942D01*
X162935409Y-141886946D01*
X162845872Y-141990278D01*
X162845867Y-141990285D01*
X162789070Y-142114654D01*
X162789068Y-142114662D01*
X162769610Y-142250000D01*
X162200000Y-142250000D01*
X162200000Y-141300000D01*
X164919610Y-141300000D01*
X164939068Y-141435337D01*
X164939070Y-141435345D01*
X164995867Y-141559714D01*
X164995872Y-141559721D01*
X165085409Y-141663053D01*
X165085413Y-141663057D01*
X165145979Y-141701979D01*
X165200439Y-141736978D01*
X165266035Y-141756238D01*
X165331632Y-141775500D01*
X165331633Y-141775500D01*
X165468367Y-141775500D01*
X165599561Y-141736978D01*
X165714589Y-141663055D01*
X165804130Y-141559718D01*
X165860931Y-141435342D01*
X165880390Y-141300000D01*
X165860931Y-141164658D01*
X165848677Y-141137827D01*
X165804132Y-141040285D01*
X165804127Y-141040278D01*
X165714590Y-140936946D01*
X165714586Y-140936942D01*
X165599559Y-140863021D01*
X165468368Y-140824500D01*
X165468367Y-140824500D01*
X165331633Y-140824500D01*
X165331632Y-140824500D01*
X165200440Y-140863021D01*
X165085413Y-140936942D01*
X165085409Y-140936946D01*
X164995872Y-141040278D01*
X164995867Y-141040285D01*
X164939070Y-141164654D01*
X164939068Y-141164662D01*
X164919610Y-141300000D01*
X162200000Y-141300000D01*
X162200000Y-139115206D01*
X162219685Y-139048167D01*
X162272489Y-139002412D01*
X162341647Y-138992468D01*
X162405203Y-139021493D01*
X162442977Y-139080271D01*
X162447290Y-139101952D01*
X162450338Y-139130313D01*
X162461543Y-139181817D01*
X162461545Y-139181824D01*
X162465212Y-139195191D01*
X162468779Y-139208193D01*
X162468783Y-139208203D01*
X162518105Y-139294818D01*
X162518111Y-139294827D01*
X162518112Y-139294828D01*
X162563867Y-139347632D01*
X162596641Y-139379257D01*
X162684976Y-139425465D01*
X162684977Y-139425465D01*
X162684977Y-139425466D01*
X162735105Y-139440184D01*
X162752015Y-139445150D01*
X162752019Y-139445150D01*
X162752021Y-139445151D01*
X162763652Y-139446823D01*
X162824000Y-139455500D01*
X174420500Y-139455500D01*
X174487539Y-139475185D01*
X174533294Y-139527989D01*
X174544500Y-139579500D01*
X174544500Y-144076002D01*
X174550338Y-144130312D01*
X174561543Y-144181817D01*
X174561545Y-144181824D01*
X174565212Y-144195191D01*
X174568779Y-144208193D01*
X174568783Y-144208203D01*
X174618105Y-144294818D01*
X174618111Y-144294827D01*
X174653905Y-144336136D01*
X174663867Y-144347632D01*
X174696641Y-144379257D01*
X174784976Y-144425465D01*
X174784977Y-144425465D01*
X174784977Y-144425466D01*
X174829218Y-144438456D01*
X174852015Y-144445150D01*
X174852019Y-144445150D01*
X174852021Y-144445151D01*
X174863652Y-144446823D01*
X174924000Y-144455500D01*
X174924001Y-144455500D01*
X175476000Y-144455500D01*
X175530313Y-144449661D01*
X175546440Y-144446152D01*
X175581817Y-144438457D01*
X175581817Y-144438456D01*
X175581824Y-144438455D01*
X175608198Y-144431219D01*
X175637074Y-144414775D01*
X175694818Y-144381894D01*
X175694821Y-144381891D01*
X175694828Y-144381888D01*
X175730938Y-144350597D01*
X175747629Y-144336136D01*
X175761088Y-144322188D01*
X175779257Y-144303359D01*
X175825465Y-144215024D01*
X175827470Y-144208198D01*
X175835216Y-144181817D01*
X175845150Y-144147985D01*
X175855500Y-144076000D01*
X175855500Y-140299999D01*
X178119610Y-140299999D01*
X178139068Y-140435337D01*
X178139070Y-140435345D01*
X178195867Y-140559714D01*
X178195872Y-140559721D01*
X178285409Y-140663053D01*
X178285413Y-140663057D01*
X178345979Y-140701979D01*
X178400439Y-140736978D01*
X178466035Y-140756238D01*
X178531632Y-140775500D01*
X178531633Y-140775500D01*
X178668367Y-140775500D01*
X178799561Y-140736978D01*
X178914589Y-140663055D01*
X179004130Y-140559718D01*
X179031402Y-140500000D01*
X189019610Y-140500000D01*
X189039068Y-140635337D01*
X189039070Y-140635345D01*
X189095867Y-140759714D01*
X189095872Y-140759721D01*
X189185409Y-140863053D01*
X189185413Y-140863057D01*
X189245979Y-140901979D01*
X189300439Y-140936978D01*
X189366035Y-140956238D01*
X189431632Y-140975500D01*
X189431633Y-140975500D01*
X189568367Y-140975500D01*
X189699561Y-140936978D01*
X189814589Y-140863055D01*
X189904130Y-140759718D01*
X189960931Y-140635342D01*
X189980390Y-140500000D01*
X189960931Y-140364658D01*
X189948677Y-140337827D01*
X189904132Y-140240285D01*
X189904127Y-140240278D01*
X189814590Y-140136946D01*
X189814586Y-140136942D01*
X189699559Y-140063021D01*
X189568368Y-140024500D01*
X189568367Y-140024500D01*
X189431633Y-140024500D01*
X189431632Y-140024500D01*
X189300440Y-140063021D01*
X189185413Y-140136942D01*
X189185409Y-140136946D01*
X189095872Y-140240278D01*
X189095867Y-140240285D01*
X189039070Y-140364654D01*
X189039068Y-140364662D01*
X189019610Y-140500000D01*
X179031402Y-140500000D01*
X179060931Y-140435342D01*
X179080390Y-140300000D01*
X179060931Y-140164658D01*
X179048273Y-140136942D01*
X179004132Y-140040285D01*
X179004127Y-140040278D01*
X178914590Y-139936946D01*
X178914586Y-139936942D01*
X178799559Y-139863021D01*
X178668368Y-139824500D01*
X178668367Y-139824500D01*
X178531633Y-139824500D01*
X178531632Y-139824500D01*
X178400440Y-139863021D01*
X178285413Y-139936942D01*
X178285409Y-139936946D01*
X178195872Y-140040278D01*
X178195867Y-140040285D01*
X178139070Y-140164654D01*
X178139068Y-140164662D01*
X178119610Y-140299999D01*
X175855500Y-140299999D01*
X175855500Y-139750000D01*
X183019610Y-139750000D01*
X183039068Y-139885337D01*
X183039070Y-139885345D01*
X183095867Y-140009714D01*
X183095872Y-140009721D01*
X183185409Y-140113053D01*
X183185413Y-140113057D01*
X183245979Y-140151979D01*
X183300439Y-140186978D01*
X183366035Y-140206238D01*
X183431632Y-140225500D01*
X183431633Y-140225500D01*
X183568367Y-140225500D01*
X183699561Y-140186978D01*
X183814589Y-140113055D01*
X183904130Y-140009718D01*
X183960931Y-139885342D01*
X183980390Y-139750000D01*
X183960931Y-139614658D01*
X183928359Y-139543336D01*
X183904132Y-139490285D01*
X183904127Y-139490278D01*
X183814590Y-139386946D01*
X183814586Y-139386942D01*
X183699559Y-139313021D01*
X183568368Y-139274500D01*
X183568367Y-139274500D01*
X183431633Y-139274500D01*
X183431632Y-139274500D01*
X183300440Y-139313021D01*
X183185413Y-139386942D01*
X183185409Y-139386946D01*
X183095872Y-139490278D01*
X183095867Y-139490285D01*
X183039070Y-139614654D01*
X183039068Y-139614662D01*
X183019610Y-139750000D01*
X175855500Y-139750000D01*
X175855500Y-139100000D01*
X181719610Y-139100000D01*
X181739068Y-139235337D01*
X181739070Y-139235345D01*
X181795867Y-139359714D01*
X181795872Y-139359721D01*
X181885409Y-139463053D01*
X181885413Y-139463057D01*
X181927782Y-139490285D01*
X182000439Y-139536978D01*
X182066035Y-139556238D01*
X182131632Y-139575500D01*
X182131633Y-139575500D01*
X182268367Y-139575500D01*
X182399561Y-139536978D01*
X182514589Y-139463055D01*
X182604130Y-139359718D01*
X182654237Y-139249999D01*
X184519610Y-139249999D01*
X184539068Y-139385337D01*
X184539070Y-139385345D01*
X184595867Y-139509714D01*
X184595872Y-139509721D01*
X184685409Y-139613053D01*
X184685413Y-139613057D01*
X184745979Y-139651979D01*
X184800439Y-139686978D01*
X184866036Y-139706238D01*
X184931632Y-139725500D01*
X184931633Y-139725500D01*
X185068367Y-139725500D01*
X185199561Y-139686978D01*
X185307962Y-139617313D01*
X185375001Y-139597630D01*
X185442037Y-139617313D01*
X185550439Y-139686978D01*
X185550441Y-139686978D01*
X185550442Y-139686979D01*
X185681632Y-139725500D01*
X185681633Y-139725500D01*
X185818367Y-139725500D01*
X185949561Y-139686978D01*
X186064589Y-139613055D01*
X186154130Y-139509718D01*
X186210931Y-139385342D01*
X186230390Y-139250000D01*
X186210931Y-139114658D01*
X186193276Y-139076000D01*
X186154132Y-138990285D01*
X186154127Y-138990278D01*
X186064590Y-138886946D01*
X186064586Y-138886942D01*
X185949559Y-138813021D01*
X185818368Y-138774500D01*
X185818367Y-138774500D01*
X185681633Y-138774500D01*
X185681632Y-138774500D01*
X185550440Y-138813021D01*
X185442038Y-138882685D01*
X185374998Y-138902369D01*
X185307962Y-138882685D01*
X185199559Y-138813021D01*
X185068368Y-138774500D01*
X185068367Y-138774500D01*
X184931633Y-138774500D01*
X184931632Y-138774500D01*
X184800440Y-138813021D01*
X184685413Y-138886942D01*
X184685409Y-138886946D01*
X184595872Y-138990278D01*
X184595867Y-138990285D01*
X184539070Y-139114654D01*
X184539068Y-139114662D01*
X184519610Y-139249999D01*
X182654237Y-139249999D01*
X182660931Y-139235342D01*
X182680390Y-139100000D01*
X182660931Y-138964658D01*
X182648290Y-138936978D01*
X182604132Y-138840285D01*
X182604127Y-138840278D01*
X182514590Y-138736946D01*
X182514586Y-138736942D01*
X182399559Y-138663021D01*
X182268368Y-138624500D01*
X182268367Y-138624500D01*
X182131633Y-138624500D01*
X182131632Y-138624500D01*
X182000440Y-138663021D01*
X181885413Y-138736942D01*
X181885409Y-138736946D01*
X181795872Y-138840278D01*
X181795867Y-138840285D01*
X181739070Y-138964654D01*
X181739068Y-138964662D01*
X181719610Y-139100000D01*
X175855500Y-139100000D01*
X175855500Y-138724000D01*
X175849661Y-138669687D01*
X175842190Y-138635345D01*
X175838457Y-138618183D01*
X175838456Y-138618182D01*
X175838455Y-138618176D01*
X175831219Y-138591802D01*
X175831216Y-138591796D01*
X175781894Y-138505181D01*
X175781888Y-138505172D01*
X175736136Y-138452371D01*
X175703359Y-138420743D01*
X175615022Y-138374534D01*
X175615022Y-138374533D01*
X175547990Y-138354851D01*
X175547978Y-138354848D01*
X175476001Y-138344500D01*
X175476000Y-138344500D01*
X173103588Y-138344500D01*
X173036549Y-138324815D01*
X172990794Y-138272011D01*
X172980850Y-138202853D01*
X173009875Y-138139297D01*
X173047906Y-138110827D01*
X173047632Y-138110353D01*
X173051603Y-138108060D01*
X173052076Y-138107706D01*
X173052746Y-138107399D01*
X173052753Y-138107396D01*
X173223952Y-137985486D01*
X173293179Y-137912883D01*
X173368985Y-137833379D01*
X173391797Y-137797883D01*
X173482613Y-137656572D01*
X173560725Y-137461457D01*
X173600500Y-137255085D01*
X173600500Y-136797575D01*
X173585528Y-136640782D01*
X173526316Y-136439125D01*
X173430011Y-136252318D01*
X173430009Y-136252316D01*
X173430008Y-136252313D01*
X173300094Y-136087116D01*
X173300090Y-136087112D01*
X173141253Y-135949478D01*
X172959249Y-135844398D01*
X172959245Y-135844396D01*
X172959244Y-135844396D01*
X172760633Y-135775656D01*
X172582190Y-135750000D01*
X182019610Y-135750000D01*
X182039068Y-135885337D01*
X182039070Y-135885345D01*
X182095867Y-136009714D01*
X182095872Y-136009721D01*
X182185409Y-136113053D01*
X182185413Y-136113057D01*
X182227782Y-136140285D01*
X182300439Y-136186978D01*
X182352018Y-136202123D01*
X182431632Y-136225500D01*
X182501596Y-136225500D01*
X182568635Y-136245185D01*
X182614390Y-136297989D01*
X182624333Y-136367145D01*
X182619610Y-136399999D01*
X182619610Y-136400000D01*
X182639068Y-136535337D01*
X182639070Y-136535345D01*
X182695867Y-136659714D01*
X182695872Y-136659721D01*
X182785409Y-136763053D01*
X182785411Y-136763055D01*
X182839126Y-136797575D01*
X182886385Y-136827946D01*
X182932140Y-136880750D01*
X182942084Y-136949908D01*
X182939446Y-136962032D01*
X182919610Y-137099999D01*
X182939068Y-137235337D01*
X182939070Y-137235345D01*
X182995867Y-137359714D01*
X182995872Y-137359721D01*
X183085409Y-137463053D01*
X183085413Y-137463057D01*
X183128563Y-137490787D01*
X183200439Y-137536978D01*
X183266035Y-137556238D01*
X183331632Y-137575500D01*
X183331633Y-137575500D01*
X183468367Y-137575500D01*
X183599561Y-137536978D01*
X183714589Y-137463055D01*
X183804130Y-137359718D01*
X183804359Y-137359218D01*
X183847905Y-137263864D01*
X183860931Y-137235342D01*
X183880390Y-137100000D01*
X183860931Y-136964658D01*
X183848677Y-136937827D01*
X183804132Y-136840285D01*
X183804127Y-136840278D01*
X183714590Y-136736946D01*
X183714586Y-136736942D01*
X183613615Y-136672054D01*
X183567859Y-136619251D01*
X183557915Y-136550092D01*
X183560554Y-136537962D01*
X183560931Y-136535342D01*
X183580390Y-136400000D01*
X183560931Y-136264658D01*
X183532375Y-136202129D01*
X183504132Y-136140285D01*
X183504127Y-136140278D01*
X183414590Y-136036946D01*
X183414586Y-136036942D01*
X183299559Y-135963021D01*
X183168368Y-135924500D01*
X183168367Y-135924500D01*
X183098405Y-135924500D01*
X183031366Y-135904815D01*
X182985611Y-135852011D01*
X182975667Y-135782855D01*
X182980390Y-135750002D01*
X182980390Y-135750000D01*
X182979778Y-135745746D01*
X182960931Y-135614658D01*
X182948677Y-135587827D01*
X182904132Y-135490285D01*
X182904127Y-135490278D01*
X182814590Y-135386946D01*
X182814586Y-135386942D01*
X182699559Y-135313021D01*
X182568368Y-135274500D01*
X182568367Y-135274500D01*
X182431633Y-135274500D01*
X182431632Y-135274500D01*
X182300440Y-135313021D01*
X182185413Y-135386942D01*
X182185409Y-135386946D01*
X182095872Y-135490278D01*
X182095867Y-135490285D01*
X182039070Y-135614654D01*
X182039068Y-135614662D01*
X182019610Y-135750000D01*
X172582190Y-135750000D01*
X172552602Y-135745746D01*
X172552598Y-135745746D01*
X172342672Y-135755745D01*
X172138421Y-135805296D01*
X172138417Y-135805298D01*
X171947256Y-135892598D01*
X171947251Y-135892601D01*
X171776046Y-136014515D01*
X171776040Y-136014520D01*
X171631014Y-136166620D01*
X171517388Y-136343425D01*
X171439274Y-136538544D01*
X171401036Y-136736945D01*
X171399500Y-136744915D01*
X171399500Y-137202425D01*
X171414472Y-137359218D01*
X171473684Y-137560875D01*
X171481224Y-137575500D01*
X171569991Y-137747686D01*
X171699905Y-137912883D01*
X171699909Y-137912887D01*
X171858746Y-138050521D01*
X171967158Y-138113113D01*
X172015374Y-138163680D01*
X172028596Y-138232287D01*
X172002628Y-138297152D01*
X171945714Y-138337680D01*
X171905158Y-138344500D01*
X171013573Y-138344500D01*
X170946534Y-138324815D01*
X170900779Y-138272011D01*
X170890835Y-138202853D01*
X170919860Y-138139297D01*
X170939261Y-138121234D01*
X170957546Y-138107546D01*
X171043796Y-137992331D01*
X171094091Y-137857483D01*
X171100500Y-137797873D01*
X171100499Y-136202128D01*
X171094091Y-136142517D01*
X171093257Y-136140282D01*
X171043797Y-136007671D01*
X171043793Y-136007664D01*
X170957547Y-135892455D01*
X170957544Y-135892452D01*
X170842335Y-135806206D01*
X170842328Y-135806202D01*
X170707482Y-135755908D01*
X170707483Y-135755908D01*
X170647883Y-135749501D01*
X170647881Y-135749500D01*
X170647873Y-135749500D01*
X170647864Y-135749500D01*
X169352129Y-135749500D01*
X169352123Y-135749501D01*
X169292516Y-135755908D01*
X169157671Y-135806202D01*
X169157664Y-135806206D01*
X169042455Y-135892452D01*
X169042452Y-135892455D01*
X168956206Y-136007664D01*
X168956202Y-136007671D01*
X168905908Y-136142517D01*
X168899501Y-136202116D01*
X168899501Y-136202123D01*
X168899500Y-136202135D01*
X168899500Y-137797870D01*
X168899501Y-137797876D01*
X168905908Y-137857483D01*
X168956202Y-137992328D01*
X168956206Y-137992335D01*
X169042452Y-138107544D01*
X169042453Y-138107544D01*
X169042454Y-138107546D01*
X169042668Y-138107706D01*
X169060739Y-138121234D01*
X169102609Y-138177168D01*
X169107593Y-138246860D01*
X169074107Y-138308182D01*
X169012783Y-138341667D01*
X168986427Y-138344500D01*
X163879500Y-138344500D01*
X163812461Y-138324815D01*
X163766706Y-138272011D01*
X163755500Y-138220500D01*
X163755500Y-137912883D01*
X163755500Y-137524000D01*
X163749661Y-137469687D01*
X163747870Y-137461455D01*
X163738457Y-137418183D01*
X163738456Y-137418182D01*
X163738455Y-137418176D01*
X163731219Y-137391802D01*
X163712951Y-137359721D01*
X163681894Y-137305181D01*
X163681888Y-137305172D01*
X163636136Y-137252371D01*
X163618491Y-137235345D01*
X163603359Y-137220743D01*
X163515024Y-137174535D01*
X163515023Y-137174534D01*
X163515022Y-137174534D01*
X163515022Y-137174533D01*
X163447990Y-137154851D01*
X163447978Y-137154848D01*
X163376001Y-137144500D01*
X163376000Y-137144500D01*
X162824000Y-137144500D01*
X162823997Y-137144500D01*
X162769687Y-137150338D01*
X162718183Y-137161543D01*
X162718182Y-137161543D01*
X162718176Y-137161545D01*
X162707177Y-137164562D01*
X162691806Y-137168779D01*
X162691796Y-137168783D01*
X162605181Y-137218105D01*
X162605172Y-137218111D01*
X162552371Y-137263864D01*
X162520743Y-137296640D01*
X162474534Y-137384977D01*
X162474533Y-137384977D01*
X162454851Y-137452009D01*
X162454848Y-137452019D01*
X162446738Y-137508434D01*
X162417713Y-137571990D01*
X162358935Y-137609764D01*
X162289065Y-137609764D01*
X162230287Y-137571990D01*
X162201262Y-137508434D01*
X162200000Y-137490787D01*
X162200000Y-135200000D01*
X180219610Y-135200000D01*
X180239068Y-135335337D01*
X180239070Y-135335345D01*
X180295867Y-135459714D01*
X180295872Y-135459721D01*
X180385409Y-135563053D01*
X180385413Y-135563057D01*
X180445979Y-135601979D01*
X180500439Y-135636978D01*
X180566035Y-135656238D01*
X180631632Y-135675500D01*
X180631633Y-135675500D01*
X180768367Y-135675500D01*
X180899561Y-135636978D01*
X181014589Y-135563055D01*
X181104130Y-135459718D01*
X181160931Y-135335342D01*
X181180390Y-135200000D01*
X181160931Y-135064658D01*
X181147526Y-135035306D01*
X181137582Y-134966151D01*
X181166606Y-134902595D01*
X181225383Y-134864819D01*
X181295253Y-134864818D01*
X181295254Y-134864819D01*
X181331630Y-134875499D01*
X181331632Y-134875500D01*
X181331633Y-134875500D01*
X181468367Y-134875500D01*
X181599561Y-134836978D01*
X181714589Y-134763055D01*
X181725901Y-134750000D01*
X183019610Y-134750000D01*
X183039068Y-134885337D01*
X183039070Y-134885345D01*
X183095867Y-135009714D01*
X183095872Y-135009721D01*
X183185409Y-135113053D01*
X183185413Y-135113057D01*
X183245979Y-135151979D01*
X183300439Y-135186978D01*
X183344788Y-135200000D01*
X183431632Y-135225500D01*
X183431633Y-135225500D01*
X183568367Y-135225500D01*
X183699561Y-135186978D01*
X183814589Y-135113055D01*
X183904130Y-135009718D01*
X183960931Y-134885342D01*
X183980390Y-134750000D01*
X183960931Y-134614658D01*
X183924710Y-134535345D01*
X183904132Y-134490285D01*
X183904127Y-134490278D01*
X183814590Y-134386946D01*
X183814586Y-134386942D01*
X183699559Y-134313021D01*
X183568368Y-134274500D01*
X183568367Y-134274500D01*
X183431633Y-134274500D01*
X183431632Y-134274500D01*
X183300440Y-134313021D01*
X183185413Y-134386942D01*
X183185409Y-134386946D01*
X183095872Y-134490278D01*
X183095867Y-134490285D01*
X183039070Y-134614654D01*
X183039068Y-134614662D01*
X183019610Y-134750000D01*
X181725901Y-134750000D01*
X181804130Y-134659718D01*
X181860931Y-134535342D01*
X181880390Y-134400000D01*
X181860931Y-134264658D01*
X181848677Y-134237827D01*
X181804132Y-134140285D01*
X181804127Y-134140278D01*
X181714590Y-134036946D01*
X181714586Y-134036942D01*
X181599559Y-133963021D01*
X181468368Y-133924500D01*
X181468367Y-133924500D01*
X181331633Y-133924500D01*
X181331632Y-133924500D01*
X181200440Y-133963021D01*
X181085413Y-134036942D01*
X181085409Y-134036946D01*
X180995872Y-134140278D01*
X180995867Y-134140285D01*
X180939070Y-134264654D01*
X180939068Y-134264662D01*
X180932115Y-134313022D01*
X180919610Y-134400000D01*
X180939069Y-134535342D01*
X180952473Y-134564693D01*
X180962417Y-134633849D01*
X180933392Y-134697405D01*
X180874614Y-134735180D01*
X180804747Y-134735181D01*
X180768368Y-134724500D01*
X180768367Y-134724500D01*
X180631633Y-134724500D01*
X180631632Y-134724500D01*
X180500440Y-134763021D01*
X180385413Y-134836942D01*
X180385409Y-134836946D01*
X180295872Y-134940278D01*
X180295867Y-134940285D01*
X180239070Y-135064654D01*
X180239068Y-135064662D01*
X180219610Y-135200000D01*
X162200000Y-135200000D01*
X162200000Y-133824000D01*
X162219685Y-133756961D01*
X162272489Y-133711206D01*
X162324000Y-133700000D01*
X167000000Y-133700000D01*
X167000000Y-132000000D01*
X167269610Y-132000000D01*
X167289068Y-132135337D01*
X167289070Y-132135345D01*
X167345867Y-132259714D01*
X167345872Y-132259721D01*
X167435409Y-132363053D01*
X167435413Y-132363057D01*
X167495979Y-132401979D01*
X167550439Y-132436978D01*
X167616035Y-132456238D01*
X167681632Y-132475500D01*
X167681633Y-132475500D01*
X167818367Y-132475500D01*
X167949561Y-132436978D01*
X168064589Y-132363055D01*
X168154130Y-132259718D01*
X168210931Y-132135342D01*
X168230390Y-132000000D01*
X168210931Y-131864658D01*
X168198677Y-131837827D01*
X168154132Y-131740285D01*
X168154127Y-131740278D01*
X168064590Y-131636946D01*
X168064591Y-131636946D01*
X168055899Y-131631360D01*
X168013813Y-131604313D01*
X167968060Y-131551513D01*
X167958116Y-131482355D01*
X167987140Y-131418799D01*
X168013809Y-131395688D01*
X168064589Y-131363055D01*
X168154130Y-131259718D01*
X168210931Y-131135342D01*
X168230390Y-131000000D01*
X168210931Y-130864658D01*
X168198677Y-130837827D01*
X168154132Y-130740285D01*
X168154127Y-130740278D01*
X168064590Y-130636946D01*
X168064586Y-130636942D01*
X167949559Y-130563021D01*
X167818368Y-130524500D01*
X167818367Y-130524500D01*
X167681633Y-130524500D01*
X167681632Y-130524500D01*
X167550440Y-130563021D01*
X167435413Y-130636942D01*
X167435409Y-130636946D01*
X167345872Y-130740278D01*
X167345867Y-130740285D01*
X167289070Y-130864654D01*
X167289068Y-130864662D01*
X167269610Y-130999999D01*
X167289068Y-131135337D01*
X167289070Y-131135345D01*
X167345867Y-131259714D01*
X167345872Y-131259721D01*
X167435409Y-131363053D01*
X167435411Y-131363055D01*
X167486184Y-131395684D01*
X167531939Y-131448488D01*
X167541883Y-131517646D01*
X167512859Y-131581202D01*
X167486185Y-131604314D01*
X167486182Y-131604317D01*
X167435410Y-131636945D01*
X167435409Y-131636946D01*
X167345872Y-131740278D01*
X167345867Y-131740285D01*
X167289070Y-131864654D01*
X167289068Y-131864662D01*
X167269610Y-132000000D01*
X167000000Y-132000000D01*
X167000000Y-129024000D01*
X167019685Y-128956961D01*
X167072489Y-128911206D01*
X167124000Y-128900000D01*
X189921451Y-128900000D01*
X189988490Y-128919685D01*
G37*
G04 #@! TD.AperFunction*
M02*
