G04 #@! TF.GenerationSoftware,KiCad,Pcbnew,7.0.7*
G04 #@! TF.CreationDate,2023-10-26T17:58:54+02:00*
G04 #@! TF.ProjectId,load,6c6f6164-2e6b-4696-9361-645f70636258,rev?*
G04 #@! TF.SameCoordinates,Original*
G04 #@! TF.FileFunction,Legend,Top*
G04 #@! TF.FilePolarity,Positive*
%FSLAX46Y46*%
G04 Gerber Fmt 4.6, Leading zero omitted, Abs format (unit mm)*
G04 Created by KiCad (PCBNEW 7.0.7) date 2023-10-26 17:58:54*
%MOMM*%
%LPD*%
G01*
G04 APERTURE LIST*
G04 Aperture macros list*
%AMRoundRect*
0 Rectangle with rounded corners*
0 $1 Rounding radius*
0 $2 $3 $4 $5 $6 $7 $8 $9 X,Y pos of 4 corners*
0 Add a 4 corners polygon primitive as box body*
4,1,4,$2,$3,$4,$5,$6,$7,$8,$9,$2,$3,0*
0 Add four circle primitives for the rounded corners*
1,1,$1+$1,$2,$3*
1,1,$1+$1,$4,$5*
1,1,$1+$1,$6,$7*
1,1,$1+$1,$8,$9*
0 Add four rect primitives between the rounded corners*
20,1,$1+$1,$2,$3,$4,$5,0*
20,1,$1+$1,$4,$5,$6,$7,0*
20,1,$1+$1,$6,$7,$8,$9,0*
20,1,$1+$1,$8,$9,$2,$3,0*%
G04 Aperture macros list end*
%ADD10C,0.150000*%
%ADD11C,0.120000*%
%ADD12C,0.250000*%
%ADD13C,0.500000*%
%ADD14RoundRect,0.140000X-0.140000X-0.170000X0.140000X-0.170000X0.140000X0.170000X-0.140000X0.170000X0*%
%ADD15RoundRect,0.135000X-0.135000X-0.185000X0.135000X-0.185000X0.135000X0.185000X-0.135000X0.185000X0*%
%ADD16RoundRect,0.250000X-0.475000X0.250000X-0.475000X-0.250000X0.475000X-0.250000X0.475000X0.250000X0*%
%ADD17RoundRect,0.135000X-0.185000X0.135000X-0.185000X-0.135000X0.185000X-0.135000X0.185000X0.135000X0*%
%ADD18C,0.900000*%
%ADD19C,8.600000*%
%ADD20RoundRect,0.135000X0.185000X-0.135000X0.185000X0.135000X-0.185000X0.135000X-0.185000X-0.135000X0*%
%ADD21RoundRect,0.150000X-0.150000X0.825000X-0.150000X-0.825000X0.150000X-0.825000X0.150000X0.825000X0*%
%ADD22RoundRect,0.250000X-0.262500X-0.450000X0.262500X-0.450000X0.262500X0.450000X-0.262500X0.450000X0*%
%ADD23RoundRect,0.250000X0.625000X-0.312500X0.625000X0.312500X-0.625000X0.312500X-0.625000X-0.312500X0*%
%ADD24RoundRect,0.140000X-0.170000X0.140000X-0.170000X-0.140000X0.170000X-0.140000X0.170000X0.140000X0*%
%ADD25RoundRect,0.140000X0.140000X0.170000X-0.140000X0.170000X-0.140000X-0.170000X0.140000X-0.170000X0*%
%ADD26RoundRect,0.250000X-0.375000X-0.625000X0.375000X-0.625000X0.375000X0.625000X-0.375000X0.625000X0*%
%ADD27RoundRect,0.250000X-0.600000X-0.750000X0.600000X-0.750000X0.600000X0.750000X-0.600000X0.750000X0*%
%ADD28O,1.700000X2.000000*%
%ADD29RoundRect,0.150000X-0.587500X-0.150000X0.587500X-0.150000X0.587500X0.150000X-0.587500X0.150000X0*%
%ADD30R,0.800000X0.300000*%
%ADD31R,0.300000X0.800000*%
%ADD32R,1.760000X1.760000*%
%ADD33RoundRect,0.218750X0.218750X0.256250X-0.218750X0.256250X-0.218750X-0.256250X0.218750X-0.256250X0*%
%ADD34RoundRect,0.250000X-0.600000X-0.725000X0.600000X-0.725000X0.600000X0.725000X-0.600000X0.725000X0*%
%ADD35O,1.700000X1.950000*%
%ADD36R,2.100000X2.100000*%
%ADD37C,2.100000*%
%ADD38RoundRect,0.140000X0.170000X-0.140000X0.170000X0.140000X-0.170000X0.140000X-0.170000X-0.140000X0*%
%ADD39RoundRect,0.250000X-0.250000X-0.475000X0.250000X-0.475000X0.250000X0.475000X-0.250000X0.475000X0*%
%ADD40R,4.500000X2.500000*%
%ADD41O,4.500000X2.500000*%
%ADD42RoundRect,0.250000X0.450000X-0.262500X0.450000X0.262500X-0.450000X0.262500X-0.450000X-0.262500X0*%
%ADD43RoundRect,0.062500X-0.287500X-0.062500X0.287500X-0.062500X0.287500X0.062500X-0.287500X0.062500X0*%
%ADD44R,0.800000X1.200000*%
%ADD45RoundRect,0.075000X0.075000X-0.650000X0.075000X0.650000X-0.075000X0.650000X-0.075000X-0.650000X0*%
%ADD46RoundRect,0.225000X0.250000X-0.225000X0.250000X0.225000X-0.250000X0.225000X-0.250000X-0.225000X0*%
%ADD47RoundRect,0.135000X0.135000X0.185000X-0.135000X0.185000X-0.135000X-0.185000X0.135000X-0.185000X0*%
%ADD48RoundRect,0.150000X-0.825000X-0.150000X0.825000X-0.150000X0.825000X0.150000X-0.825000X0.150000X0*%
G04 APERTURE END LIST*
D10*
X178682268Y-106577800D02*
X178777506Y-106530180D01*
X178777506Y-106530180D02*
X178967982Y-106530180D01*
X178967982Y-106530180D02*
X179063220Y-106577800D01*
X179063220Y-106577800D02*
X179110839Y-106673038D01*
X179110839Y-106673038D02*
X179110839Y-107053990D01*
X179110839Y-107053990D02*
X179063220Y-107149228D01*
X179063220Y-107149228D02*
X178967982Y-107196847D01*
X178967982Y-107196847D02*
X178777506Y-107196847D01*
X178777506Y-107196847D02*
X178682268Y-107149228D01*
X178682268Y-107149228D02*
X178634649Y-107053990D01*
X178634649Y-107053990D02*
X178634649Y-106958752D01*
X178634649Y-106958752D02*
X179110839Y-106863514D01*
X178063220Y-106530180D02*
X178158458Y-106577800D01*
X178158458Y-106577800D02*
X178206077Y-106673038D01*
X178206077Y-106673038D02*
X178206077Y-107530180D01*
X177301315Y-106577800D02*
X177396553Y-106530180D01*
X177396553Y-106530180D02*
X177587029Y-106530180D01*
X177587029Y-106530180D02*
X177682267Y-106577800D01*
X177682267Y-106577800D02*
X177729886Y-106673038D01*
X177729886Y-106673038D02*
X177729886Y-107053990D01*
X177729886Y-107053990D02*
X177682267Y-107149228D01*
X177682267Y-107149228D02*
X177587029Y-107196847D01*
X177587029Y-107196847D02*
X177396553Y-107196847D01*
X177396553Y-107196847D02*
X177301315Y-107149228D01*
X177301315Y-107149228D02*
X177253696Y-107053990D01*
X177253696Y-107053990D02*
X177253696Y-106958752D01*
X177253696Y-106958752D02*
X177729886Y-106863514D01*
X176396553Y-106577800D02*
X176491791Y-106530180D01*
X176491791Y-106530180D02*
X176682267Y-106530180D01*
X176682267Y-106530180D02*
X176777505Y-106577800D01*
X176777505Y-106577800D02*
X176825124Y-106625419D01*
X176825124Y-106625419D02*
X176872743Y-106720657D01*
X176872743Y-106720657D02*
X176872743Y-107006371D01*
X176872743Y-107006371D02*
X176825124Y-107101609D01*
X176825124Y-107101609D02*
X176777505Y-107149228D01*
X176777505Y-107149228D02*
X176682267Y-107196847D01*
X176682267Y-107196847D02*
X176491791Y-107196847D01*
X176491791Y-107196847D02*
X176396553Y-107149228D01*
X176110838Y-107196847D02*
X175729886Y-107196847D01*
X175967981Y-107530180D02*
X175967981Y-106673038D01*
X175967981Y-106673038D02*
X175920362Y-106577800D01*
X175920362Y-106577800D02*
X175825124Y-106530180D01*
X175825124Y-106530180D02*
X175729886Y-106530180D01*
X175396552Y-106530180D02*
X175396552Y-107196847D01*
X175396552Y-107006371D02*
X175348933Y-107101609D01*
X175348933Y-107101609D02*
X175301314Y-107149228D01*
X175301314Y-107149228D02*
X175206076Y-107196847D01*
X175206076Y-107196847D02*
X175110838Y-107196847D01*
X174634647Y-106530180D02*
X174729885Y-106577800D01*
X174729885Y-106577800D02*
X174777504Y-106625419D01*
X174777504Y-106625419D02*
X174825123Y-106720657D01*
X174825123Y-106720657D02*
X174825123Y-107006371D01*
X174825123Y-107006371D02*
X174777504Y-107101609D01*
X174777504Y-107101609D02*
X174729885Y-107149228D01*
X174729885Y-107149228D02*
X174634647Y-107196847D01*
X174634647Y-107196847D02*
X174491790Y-107196847D01*
X174491790Y-107196847D02*
X174396552Y-107149228D01*
X174396552Y-107149228D02*
X174348933Y-107101609D01*
X174348933Y-107101609D02*
X174301314Y-107006371D01*
X174301314Y-107006371D02*
X174301314Y-106720657D01*
X174301314Y-106720657D02*
X174348933Y-106625419D01*
X174348933Y-106625419D02*
X174396552Y-106577800D01*
X174396552Y-106577800D02*
X174491790Y-106530180D01*
X174491790Y-106530180D02*
X174634647Y-106530180D01*
X173872742Y-107196847D02*
X173872742Y-106530180D01*
X173872742Y-107101609D02*
X173825123Y-107149228D01*
X173825123Y-107149228D02*
X173729885Y-107196847D01*
X173729885Y-107196847D02*
X173587028Y-107196847D01*
X173587028Y-107196847D02*
X173491790Y-107149228D01*
X173491790Y-107149228D02*
X173444171Y-107053990D01*
X173444171Y-107053990D02*
X173444171Y-106530180D01*
X172967980Y-106530180D02*
X172967980Y-107196847D01*
X172967980Y-107530180D02*
X173015599Y-107482561D01*
X173015599Y-107482561D02*
X172967980Y-107434942D01*
X172967980Y-107434942D02*
X172920361Y-107482561D01*
X172920361Y-107482561D02*
X172967980Y-107530180D01*
X172967980Y-107530180D02*
X172967980Y-107434942D01*
X172063219Y-106577800D02*
X172158457Y-106530180D01*
X172158457Y-106530180D02*
X172348933Y-106530180D01*
X172348933Y-106530180D02*
X172444171Y-106577800D01*
X172444171Y-106577800D02*
X172491790Y-106625419D01*
X172491790Y-106625419D02*
X172539409Y-106720657D01*
X172539409Y-106720657D02*
X172539409Y-107006371D01*
X172539409Y-107006371D02*
X172491790Y-107101609D01*
X172491790Y-107101609D02*
X172444171Y-107149228D01*
X172444171Y-107149228D02*
X172348933Y-107196847D01*
X172348933Y-107196847D02*
X172158457Y-107196847D01*
X172158457Y-107196847D02*
X172063219Y-107149228D01*
X170729885Y-106530180D02*
X170825123Y-106577800D01*
X170825123Y-106577800D02*
X170872742Y-106673038D01*
X170872742Y-106673038D02*
X170872742Y-107530180D01*
X170206075Y-106530180D02*
X170301313Y-106577800D01*
X170301313Y-106577800D02*
X170348932Y-106625419D01*
X170348932Y-106625419D02*
X170396551Y-106720657D01*
X170396551Y-106720657D02*
X170396551Y-107006371D01*
X170396551Y-107006371D02*
X170348932Y-107101609D01*
X170348932Y-107101609D02*
X170301313Y-107149228D01*
X170301313Y-107149228D02*
X170206075Y-107196847D01*
X170206075Y-107196847D02*
X170063218Y-107196847D01*
X170063218Y-107196847D02*
X169967980Y-107149228D01*
X169967980Y-107149228D02*
X169920361Y-107101609D01*
X169920361Y-107101609D02*
X169872742Y-107006371D01*
X169872742Y-107006371D02*
X169872742Y-106720657D01*
X169872742Y-106720657D02*
X169920361Y-106625419D01*
X169920361Y-106625419D02*
X169967980Y-106577800D01*
X169967980Y-106577800D02*
X170063218Y-106530180D01*
X170063218Y-106530180D02*
X170206075Y-106530180D01*
X169015599Y-106530180D02*
X169015599Y-107053990D01*
X169015599Y-107053990D02*
X169063218Y-107149228D01*
X169063218Y-107149228D02*
X169158456Y-107196847D01*
X169158456Y-107196847D02*
X169348932Y-107196847D01*
X169348932Y-107196847D02*
X169444170Y-107149228D01*
X169015599Y-106577800D02*
X169110837Y-106530180D01*
X169110837Y-106530180D02*
X169348932Y-106530180D01*
X169348932Y-106530180D02*
X169444170Y-106577800D01*
X169444170Y-106577800D02*
X169491789Y-106673038D01*
X169491789Y-106673038D02*
X169491789Y-106768276D01*
X169491789Y-106768276D02*
X169444170Y-106863514D01*
X169444170Y-106863514D02*
X169348932Y-106911133D01*
X169348932Y-106911133D02*
X169110837Y-106911133D01*
X169110837Y-106911133D02*
X169015599Y-106958752D01*
X168110837Y-106530180D02*
X168110837Y-107530180D01*
X168110837Y-106577800D02*
X168206075Y-106530180D01*
X168206075Y-106530180D02*
X168396551Y-106530180D01*
X168396551Y-106530180D02*
X168491789Y-106577800D01*
X168491789Y-106577800D02*
X168539408Y-106625419D01*
X168539408Y-106625419D02*
X168587027Y-106720657D01*
X168587027Y-106720657D02*
X168587027Y-107006371D01*
X168587027Y-107006371D02*
X168539408Y-107101609D01*
X168539408Y-107101609D02*
X168491789Y-107149228D01*
X168491789Y-107149228D02*
X168396551Y-107196847D01*
X168396551Y-107196847D02*
X168206075Y-107196847D01*
X168206075Y-107196847D02*
X168110837Y-107149228D01*
X166872741Y-106530180D02*
X166872741Y-107530180D01*
X166872741Y-107530180D02*
X166491789Y-107530180D01*
X166491789Y-107530180D02*
X166396551Y-107482561D01*
X166396551Y-107482561D02*
X166348932Y-107434942D01*
X166348932Y-107434942D02*
X166301313Y-107339704D01*
X166301313Y-107339704D02*
X166301313Y-107196847D01*
X166301313Y-107196847D02*
X166348932Y-107101609D01*
X166348932Y-107101609D02*
X166396551Y-107053990D01*
X166396551Y-107053990D02*
X166491789Y-107006371D01*
X166491789Y-107006371D02*
X166872741Y-107006371D01*
X165301313Y-106625419D02*
X165348932Y-106577800D01*
X165348932Y-106577800D02*
X165491789Y-106530180D01*
X165491789Y-106530180D02*
X165587027Y-106530180D01*
X165587027Y-106530180D02*
X165729884Y-106577800D01*
X165729884Y-106577800D02*
X165825122Y-106673038D01*
X165825122Y-106673038D02*
X165872741Y-106768276D01*
X165872741Y-106768276D02*
X165920360Y-106958752D01*
X165920360Y-106958752D02*
X165920360Y-107101609D01*
X165920360Y-107101609D02*
X165872741Y-107292085D01*
X165872741Y-107292085D02*
X165825122Y-107387323D01*
X165825122Y-107387323D02*
X165729884Y-107482561D01*
X165729884Y-107482561D02*
X165587027Y-107530180D01*
X165587027Y-107530180D02*
X165491789Y-107530180D01*
X165491789Y-107530180D02*
X165348932Y-107482561D01*
X165348932Y-107482561D02*
X165301313Y-107434942D01*
X164539408Y-107053990D02*
X164396551Y-107006371D01*
X164396551Y-107006371D02*
X164348932Y-106958752D01*
X164348932Y-106958752D02*
X164301313Y-106863514D01*
X164301313Y-106863514D02*
X164301313Y-106720657D01*
X164301313Y-106720657D02*
X164348932Y-106625419D01*
X164348932Y-106625419D02*
X164396551Y-106577800D01*
X164396551Y-106577800D02*
X164491789Y-106530180D01*
X164491789Y-106530180D02*
X164872741Y-106530180D01*
X164872741Y-106530180D02*
X164872741Y-107530180D01*
X164872741Y-107530180D02*
X164539408Y-107530180D01*
X164539408Y-107530180D02*
X164444170Y-107482561D01*
X164444170Y-107482561D02*
X164396551Y-107434942D01*
X164396551Y-107434942D02*
X164348932Y-107339704D01*
X164348932Y-107339704D02*
X164348932Y-107244466D01*
X164348932Y-107244466D02*
X164396551Y-107149228D01*
X164396551Y-107149228D02*
X164444170Y-107101609D01*
X164444170Y-107101609D02*
X164539408Y-107053990D01*
X164539408Y-107053990D02*
X164872741Y-107053990D01*
X163253693Y-107530180D02*
X162920360Y-106530180D01*
X162920360Y-106530180D02*
X162587027Y-107530180D01*
X161729884Y-106530180D02*
X162301312Y-106530180D01*
X162015598Y-106530180D02*
X162015598Y-107530180D01*
X162015598Y-107530180D02*
X162110836Y-107387323D01*
X162110836Y-107387323D02*
X162206074Y-107292085D01*
X162206074Y-107292085D02*
X162301312Y-107244466D01*
X161301312Y-106625419D02*
X161253693Y-106577800D01*
X161253693Y-106577800D02*
X161301312Y-106530180D01*
X161301312Y-106530180D02*
X161348931Y-106577800D01*
X161348931Y-106577800D02*
X161301312Y-106625419D01*
X161301312Y-106625419D02*
X161301312Y-106530180D01*
X160634646Y-107530180D02*
X160539408Y-107530180D01*
X160539408Y-107530180D02*
X160444170Y-107482561D01*
X160444170Y-107482561D02*
X160396551Y-107434942D01*
X160396551Y-107434942D02*
X160348932Y-107339704D01*
X160348932Y-107339704D02*
X160301313Y-107149228D01*
X160301313Y-107149228D02*
X160301313Y-106911133D01*
X160301313Y-106911133D02*
X160348932Y-106720657D01*
X160348932Y-106720657D02*
X160396551Y-106625419D01*
X160396551Y-106625419D02*
X160444170Y-106577800D01*
X160444170Y-106577800D02*
X160539408Y-106530180D01*
X160539408Y-106530180D02*
X160634646Y-106530180D01*
X160634646Y-106530180D02*
X160729884Y-106577800D01*
X160729884Y-106577800D02*
X160777503Y-106625419D01*
X160777503Y-106625419D02*
X160825122Y-106720657D01*
X160825122Y-106720657D02*
X160872741Y-106911133D01*
X160872741Y-106911133D02*
X160872741Y-107149228D01*
X160872741Y-107149228D02*
X160825122Y-107339704D01*
X160825122Y-107339704D02*
X160777503Y-107434942D01*
X160777503Y-107434942D02*
X160729884Y-107482561D01*
X160729884Y-107482561D02*
X160634646Y-107530180D01*
X191738095Y-135454819D02*
X191738095Y-136264342D01*
X191738095Y-136264342D02*
X191785714Y-136359580D01*
X191785714Y-136359580D02*
X191833333Y-136407200D01*
X191833333Y-136407200D02*
X191928571Y-136454819D01*
X191928571Y-136454819D02*
X192119047Y-136454819D01*
X192119047Y-136454819D02*
X192214285Y-136407200D01*
X192214285Y-136407200D02*
X192261904Y-136359580D01*
X192261904Y-136359580D02*
X192309523Y-136264342D01*
X192309523Y-136264342D02*
X192309523Y-135454819D01*
X193309523Y-136454819D02*
X192738095Y-136454819D01*
X193023809Y-136454819D02*
X193023809Y-135454819D01*
X193023809Y-135454819D02*
X192928571Y-135597676D01*
X192928571Y-135597676D02*
X192833333Y-135692914D01*
X192833333Y-135692914D02*
X192738095Y-135740533D01*
X185931009Y-126333333D02*
X185931009Y-126666666D01*
X186454819Y-126666666D02*
X185454819Y-126666666D01*
X185454819Y-126666666D02*
X185454819Y-126190476D01*
X186454819Y-125285714D02*
X186454819Y-125857142D01*
X186454819Y-125571428D02*
X185454819Y-125571428D01*
X185454819Y-125571428D02*
X185597676Y-125666666D01*
X185597676Y-125666666D02*
X185692914Y-125761904D01*
X185692914Y-125761904D02*
X185740533Y-125857142D01*
X169607143Y-142354819D02*
X169607143Y-141354819D01*
X169607143Y-141354819D02*
X170178571Y-142354819D01*
X170178571Y-142354819D02*
X170178571Y-141354819D01*
X170511905Y-141354819D02*
X171083333Y-141354819D01*
X170797619Y-142354819D02*
X170797619Y-141354819D01*
X171988095Y-142259580D02*
X171940476Y-142307200D01*
X171940476Y-142307200D02*
X171797619Y-142354819D01*
X171797619Y-142354819D02*
X171702381Y-142354819D01*
X171702381Y-142354819D02*
X171559524Y-142307200D01*
X171559524Y-142307200D02*
X171464286Y-142211961D01*
X171464286Y-142211961D02*
X171416667Y-142116723D01*
X171416667Y-142116723D02*
X171369048Y-141926247D01*
X171369048Y-141926247D02*
X171369048Y-141783390D01*
X171369048Y-141783390D02*
X171416667Y-141592914D01*
X171416667Y-141592914D02*
X171464286Y-141497676D01*
X171464286Y-141497676D02*
X171559524Y-141402438D01*
X171559524Y-141402438D02*
X171702381Y-141354819D01*
X171702381Y-141354819D02*
X171797619Y-141354819D01*
X171797619Y-141354819D02*
X171940476Y-141402438D01*
X171940476Y-141402438D02*
X171988095Y-141450057D01*
X172940476Y-142354819D02*
X172369048Y-142354819D01*
X172654762Y-142354819D02*
X172654762Y-141354819D01*
X172654762Y-141354819D02*
X172559524Y-141497676D01*
X172559524Y-141497676D02*
X172464286Y-141592914D01*
X172464286Y-141592914D02*
X172369048Y-141640533D01*
X148467261Y-138150057D02*
X148372023Y-138102438D01*
X148372023Y-138102438D02*
X148276785Y-138007200D01*
X148276785Y-138007200D02*
X148133928Y-137864342D01*
X148133928Y-137864342D02*
X148038690Y-137816723D01*
X148038690Y-137816723D02*
X147943452Y-137816723D01*
X147991071Y-138054819D02*
X147895833Y-138007200D01*
X147895833Y-138007200D02*
X147800595Y-137911961D01*
X147800595Y-137911961D02*
X147752976Y-137721485D01*
X147752976Y-137721485D02*
X147752976Y-137388152D01*
X147752976Y-137388152D02*
X147800595Y-137197676D01*
X147800595Y-137197676D02*
X147895833Y-137102438D01*
X147895833Y-137102438D02*
X147991071Y-137054819D01*
X147991071Y-137054819D02*
X148181547Y-137054819D01*
X148181547Y-137054819D02*
X148276785Y-137102438D01*
X148276785Y-137102438D02*
X148372023Y-137197676D01*
X148372023Y-137197676D02*
X148419642Y-137388152D01*
X148419642Y-137388152D02*
X148419642Y-137721485D01*
X148419642Y-137721485D02*
X148372023Y-137911961D01*
X148372023Y-137911961D02*
X148276785Y-138007200D01*
X148276785Y-138007200D02*
X148181547Y-138054819D01*
X148181547Y-138054819D02*
X147991071Y-138054819D01*
X149372023Y-138054819D02*
X148800595Y-138054819D01*
X149086309Y-138054819D02*
X149086309Y-137054819D01*
X149086309Y-137054819D02*
X148991071Y-137197676D01*
X148991071Y-137197676D02*
X148895833Y-137292914D01*
X148895833Y-137292914D02*
X148800595Y-137340533D01*
X176554819Y-138461904D02*
X177364342Y-138461904D01*
X177364342Y-138461904D02*
X177459580Y-138414285D01*
X177459580Y-138414285D02*
X177507200Y-138366666D01*
X177507200Y-138366666D02*
X177554819Y-138271428D01*
X177554819Y-138271428D02*
X177554819Y-138080952D01*
X177554819Y-138080952D02*
X177507200Y-137985714D01*
X177507200Y-137985714D02*
X177459580Y-137938095D01*
X177459580Y-137938095D02*
X177364342Y-137890476D01*
X177364342Y-137890476D02*
X176554819Y-137890476D01*
X176554819Y-136938095D02*
X176554819Y-137414285D01*
X176554819Y-137414285D02*
X177031009Y-137461904D01*
X177031009Y-137461904D02*
X176983390Y-137414285D01*
X176983390Y-137414285D02*
X176935771Y-137319047D01*
X176935771Y-137319047D02*
X176935771Y-137080952D01*
X176935771Y-137080952D02*
X176983390Y-136985714D01*
X176983390Y-136985714D02*
X177031009Y-136938095D01*
X177031009Y-136938095D02*
X177126247Y-136890476D01*
X177126247Y-136890476D02*
X177364342Y-136890476D01*
X177364342Y-136890476D02*
X177459580Y-136938095D01*
X177459580Y-136938095D02*
X177507200Y-136985714D01*
X177507200Y-136985714D02*
X177554819Y-137080952D01*
X177554819Y-137080952D02*
X177554819Y-137319047D01*
X177554819Y-137319047D02*
X177507200Y-137414285D01*
X177507200Y-137414285D02*
X177459580Y-137461904D01*
X179033333Y-142254819D02*
X178557143Y-142254819D01*
X178557143Y-142254819D02*
X178557143Y-141254819D01*
X179890476Y-142254819D02*
X179319048Y-142254819D01*
X179604762Y-142254819D02*
X179604762Y-141254819D01*
X179604762Y-141254819D02*
X179509524Y-141397676D01*
X179509524Y-141397676D02*
X179414286Y-141492914D01*
X179414286Y-141492914D02*
X179319048Y-141540533D01*
X169916666Y-145404819D02*
X169916666Y-146119104D01*
X169916666Y-146119104D02*
X169869047Y-146261961D01*
X169869047Y-146261961D02*
X169773809Y-146357200D01*
X169773809Y-146357200D02*
X169630952Y-146404819D01*
X169630952Y-146404819D02*
X169535714Y-146404819D01*
X170297619Y-145404819D02*
X170916666Y-145404819D01*
X170916666Y-145404819D02*
X170583333Y-145785771D01*
X170583333Y-145785771D02*
X170726190Y-145785771D01*
X170726190Y-145785771D02*
X170821428Y-145833390D01*
X170821428Y-145833390D02*
X170869047Y-145881009D01*
X170869047Y-145881009D02*
X170916666Y-145976247D01*
X170916666Y-145976247D02*
X170916666Y-146214342D01*
X170916666Y-146214342D02*
X170869047Y-146309580D01*
X170869047Y-146309580D02*
X170821428Y-146357200D01*
X170821428Y-146357200D02*
X170726190Y-146404819D01*
X170726190Y-146404819D02*
X170440476Y-146404819D01*
X170440476Y-146404819D02*
X170345238Y-146357200D01*
X170345238Y-146357200D02*
X170297619Y-146309580D01*
X186084819Y-121063333D02*
X186799104Y-121063333D01*
X186799104Y-121063333D02*
X186941961Y-121110952D01*
X186941961Y-121110952D02*
X187037200Y-121206190D01*
X187037200Y-121206190D02*
X187084819Y-121349047D01*
X187084819Y-121349047D02*
X187084819Y-121444285D01*
X186180057Y-120634761D02*
X186132438Y-120587142D01*
X186132438Y-120587142D02*
X186084819Y-120491904D01*
X186084819Y-120491904D02*
X186084819Y-120253809D01*
X186084819Y-120253809D02*
X186132438Y-120158571D01*
X186132438Y-120158571D02*
X186180057Y-120110952D01*
X186180057Y-120110952D02*
X186275295Y-120063333D01*
X186275295Y-120063333D02*
X186370533Y-120063333D01*
X186370533Y-120063333D02*
X186513390Y-120110952D01*
X186513390Y-120110952D02*
X187084819Y-120682380D01*
X187084819Y-120682380D02*
X187084819Y-120063333D01*
X173354819Y-129761904D02*
X174164342Y-129761904D01*
X174164342Y-129761904D02*
X174259580Y-129714285D01*
X174259580Y-129714285D02*
X174307200Y-129666666D01*
X174307200Y-129666666D02*
X174354819Y-129571428D01*
X174354819Y-129571428D02*
X174354819Y-129380952D01*
X174354819Y-129380952D02*
X174307200Y-129285714D01*
X174307200Y-129285714D02*
X174259580Y-129238095D01*
X174259580Y-129238095D02*
X174164342Y-129190476D01*
X174164342Y-129190476D02*
X173354819Y-129190476D01*
X173354819Y-128809523D02*
X173354819Y-128190476D01*
X173354819Y-128190476D02*
X173735771Y-128523809D01*
X173735771Y-128523809D02*
X173735771Y-128380952D01*
X173735771Y-128380952D02*
X173783390Y-128285714D01*
X173783390Y-128285714D02*
X173831009Y-128238095D01*
X173831009Y-128238095D02*
X173926247Y-128190476D01*
X173926247Y-128190476D02*
X174164342Y-128190476D01*
X174164342Y-128190476D02*
X174259580Y-128238095D01*
X174259580Y-128238095D02*
X174307200Y-128285714D01*
X174307200Y-128285714D02*
X174354819Y-128380952D01*
X174354819Y-128380952D02*
X174354819Y-128666666D01*
X174354819Y-128666666D02*
X174307200Y-128761904D01*
X174307200Y-128761904D02*
X174259580Y-128809523D01*
X148120057Y-125095238D02*
X148072438Y-125190476D01*
X148072438Y-125190476D02*
X147977200Y-125285714D01*
X147977200Y-125285714D02*
X147834342Y-125428571D01*
X147834342Y-125428571D02*
X147786723Y-125523809D01*
X147786723Y-125523809D02*
X147786723Y-125619047D01*
X148024819Y-125571428D02*
X147977200Y-125666666D01*
X147977200Y-125666666D02*
X147881961Y-125761904D01*
X147881961Y-125761904D02*
X147691485Y-125809523D01*
X147691485Y-125809523D02*
X147358152Y-125809523D01*
X147358152Y-125809523D02*
X147167676Y-125761904D01*
X147167676Y-125761904D02*
X147072438Y-125666666D01*
X147072438Y-125666666D02*
X147024819Y-125571428D01*
X147024819Y-125571428D02*
X147024819Y-125380952D01*
X147024819Y-125380952D02*
X147072438Y-125285714D01*
X147072438Y-125285714D02*
X147167676Y-125190476D01*
X147167676Y-125190476D02*
X147358152Y-125142857D01*
X147358152Y-125142857D02*
X147691485Y-125142857D01*
X147691485Y-125142857D02*
X147881961Y-125190476D01*
X147881961Y-125190476D02*
X147977200Y-125285714D01*
X147977200Y-125285714D02*
X148024819Y-125380952D01*
X148024819Y-125380952D02*
X148024819Y-125571428D01*
X147120057Y-124761904D02*
X147072438Y-124714285D01*
X147072438Y-124714285D02*
X147024819Y-124619047D01*
X147024819Y-124619047D02*
X147024819Y-124380952D01*
X147024819Y-124380952D02*
X147072438Y-124285714D01*
X147072438Y-124285714D02*
X147120057Y-124238095D01*
X147120057Y-124238095D02*
X147215295Y-124190476D01*
X147215295Y-124190476D02*
X147310533Y-124190476D01*
X147310533Y-124190476D02*
X147453390Y-124238095D01*
X147453390Y-124238095D02*
X148024819Y-124809523D01*
X148024819Y-124809523D02*
X148024819Y-124190476D01*
X173438095Y-142804819D02*
X173438095Y-143614342D01*
X173438095Y-143614342D02*
X173485714Y-143709580D01*
X173485714Y-143709580D02*
X173533333Y-143757200D01*
X173533333Y-143757200D02*
X173628571Y-143804819D01*
X173628571Y-143804819D02*
X173819047Y-143804819D01*
X173819047Y-143804819D02*
X173914285Y-143757200D01*
X173914285Y-143757200D02*
X173961904Y-143709580D01*
X173961904Y-143709580D02*
X174009523Y-143614342D01*
X174009523Y-143614342D02*
X174009523Y-142804819D01*
X174438095Y-142900057D02*
X174485714Y-142852438D01*
X174485714Y-142852438D02*
X174580952Y-142804819D01*
X174580952Y-142804819D02*
X174819047Y-142804819D01*
X174819047Y-142804819D02*
X174914285Y-142852438D01*
X174914285Y-142852438D02*
X174961904Y-142900057D01*
X174961904Y-142900057D02*
X175009523Y-142995295D01*
X175009523Y-142995295D02*
X175009523Y-143090533D01*
X175009523Y-143090533D02*
X174961904Y-143233390D01*
X174961904Y-143233390D02*
X174390476Y-143804819D01*
X174390476Y-143804819D02*
X175009523Y-143804819D01*
X160504819Y-143261904D02*
X161314342Y-143261904D01*
X161314342Y-143261904D02*
X161409580Y-143214285D01*
X161409580Y-143214285D02*
X161457200Y-143166666D01*
X161457200Y-143166666D02*
X161504819Y-143071428D01*
X161504819Y-143071428D02*
X161504819Y-142880952D01*
X161504819Y-142880952D02*
X161457200Y-142785714D01*
X161457200Y-142785714D02*
X161409580Y-142738095D01*
X161409580Y-142738095D02*
X161314342Y-142690476D01*
X161314342Y-142690476D02*
X160504819Y-142690476D01*
X160504819Y-141785714D02*
X160504819Y-141976190D01*
X160504819Y-141976190D02*
X160552438Y-142071428D01*
X160552438Y-142071428D02*
X160600057Y-142119047D01*
X160600057Y-142119047D02*
X160742914Y-142214285D01*
X160742914Y-142214285D02*
X160933390Y-142261904D01*
X160933390Y-142261904D02*
X161314342Y-142261904D01*
X161314342Y-142261904D02*
X161409580Y-142214285D01*
X161409580Y-142214285D02*
X161457200Y-142166666D01*
X161457200Y-142166666D02*
X161504819Y-142071428D01*
X161504819Y-142071428D02*
X161504819Y-141880952D01*
X161504819Y-141880952D02*
X161457200Y-141785714D01*
X161457200Y-141785714D02*
X161409580Y-141738095D01*
X161409580Y-141738095D02*
X161314342Y-141690476D01*
X161314342Y-141690476D02*
X161076247Y-141690476D01*
X161076247Y-141690476D02*
X160981009Y-141738095D01*
X160981009Y-141738095D02*
X160933390Y-141785714D01*
X160933390Y-141785714D02*
X160885771Y-141880952D01*
X160885771Y-141880952D02*
X160885771Y-142071428D01*
X160885771Y-142071428D02*
X160933390Y-142166666D01*
X160933390Y-142166666D02*
X160981009Y-142214285D01*
X160981009Y-142214285D02*
X161076247Y-142261904D01*
X180929580Y-119042857D02*
X180977200Y-119090476D01*
X180977200Y-119090476D02*
X181024819Y-119233333D01*
X181024819Y-119233333D02*
X181024819Y-119328571D01*
X181024819Y-119328571D02*
X180977200Y-119471428D01*
X180977200Y-119471428D02*
X180881961Y-119566666D01*
X180881961Y-119566666D02*
X180786723Y-119614285D01*
X180786723Y-119614285D02*
X180596247Y-119661904D01*
X180596247Y-119661904D02*
X180453390Y-119661904D01*
X180453390Y-119661904D02*
X180262914Y-119614285D01*
X180262914Y-119614285D02*
X180167676Y-119566666D01*
X180167676Y-119566666D02*
X180072438Y-119471428D01*
X180072438Y-119471428D02*
X180024819Y-119328571D01*
X180024819Y-119328571D02*
X180024819Y-119233333D01*
X180024819Y-119233333D02*
X180072438Y-119090476D01*
X180072438Y-119090476D02*
X180120057Y-119042857D01*
X181024819Y-118090476D02*
X181024819Y-118661904D01*
X181024819Y-118376190D02*
X180024819Y-118376190D01*
X180024819Y-118376190D02*
X180167676Y-118471428D01*
X180167676Y-118471428D02*
X180262914Y-118566666D01*
X180262914Y-118566666D02*
X180310533Y-118661904D01*
X180358152Y-117233333D02*
X181024819Y-117233333D01*
X179977200Y-117471428D02*
X180691485Y-117709523D01*
X180691485Y-117709523D02*
X180691485Y-117090476D01*
X186084819Y-131073333D02*
X186799104Y-131073333D01*
X186799104Y-131073333D02*
X186941961Y-131120952D01*
X186941961Y-131120952D02*
X187037200Y-131216190D01*
X187037200Y-131216190D02*
X187084819Y-131359047D01*
X187084819Y-131359047D02*
X187084819Y-131454285D01*
X187084819Y-130073333D02*
X187084819Y-130644761D01*
X187084819Y-130359047D02*
X186084819Y-130359047D01*
X186084819Y-130359047D02*
X186227676Y-130454285D01*
X186227676Y-130454285D02*
X186322914Y-130549523D01*
X186322914Y-130549523D02*
X186370533Y-130644761D01*
X180804819Y-122066666D02*
X180328628Y-122399999D01*
X180804819Y-122638094D02*
X179804819Y-122638094D01*
X179804819Y-122638094D02*
X179804819Y-122257142D01*
X179804819Y-122257142D02*
X179852438Y-122161904D01*
X179852438Y-122161904D02*
X179900057Y-122114285D01*
X179900057Y-122114285D02*
X179995295Y-122066666D01*
X179995295Y-122066666D02*
X180138152Y-122066666D01*
X180138152Y-122066666D02*
X180233390Y-122114285D01*
X180233390Y-122114285D02*
X180281009Y-122161904D01*
X180281009Y-122161904D02*
X180328628Y-122257142D01*
X180328628Y-122257142D02*
X180328628Y-122638094D01*
X179804819Y-121209523D02*
X179804819Y-121399999D01*
X179804819Y-121399999D02*
X179852438Y-121495237D01*
X179852438Y-121495237D02*
X179900057Y-121542856D01*
X179900057Y-121542856D02*
X180042914Y-121638094D01*
X180042914Y-121638094D02*
X180233390Y-121685713D01*
X180233390Y-121685713D02*
X180614342Y-121685713D01*
X180614342Y-121685713D02*
X180709580Y-121638094D01*
X180709580Y-121638094D02*
X180757200Y-121590475D01*
X180757200Y-121590475D02*
X180804819Y-121495237D01*
X180804819Y-121495237D02*
X180804819Y-121304761D01*
X180804819Y-121304761D02*
X180757200Y-121209523D01*
X180757200Y-121209523D02*
X180709580Y-121161904D01*
X180709580Y-121161904D02*
X180614342Y-121114285D01*
X180614342Y-121114285D02*
X180376247Y-121114285D01*
X180376247Y-121114285D02*
X180281009Y-121161904D01*
X180281009Y-121161904D02*
X180233390Y-121209523D01*
X180233390Y-121209523D02*
X180185771Y-121304761D01*
X180185771Y-121304761D02*
X180185771Y-121495237D01*
X180185771Y-121495237D02*
X180233390Y-121590475D01*
X180233390Y-121590475D02*
X180281009Y-121638094D01*
X180281009Y-121638094D02*
X180376247Y-121685713D01*
X152238095Y-135054819D02*
X152238095Y-135864342D01*
X152238095Y-135864342D02*
X152285714Y-135959580D01*
X152285714Y-135959580D02*
X152333333Y-136007200D01*
X152333333Y-136007200D02*
X152428571Y-136054819D01*
X152428571Y-136054819D02*
X152619047Y-136054819D01*
X152619047Y-136054819D02*
X152714285Y-136007200D01*
X152714285Y-136007200D02*
X152761904Y-135959580D01*
X152761904Y-135959580D02*
X152809523Y-135864342D01*
X152809523Y-135864342D02*
X152809523Y-135054819D01*
X153714285Y-135388152D02*
X153714285Y-136054819D01*
X153476190Y-135007200D02*
X153238095Y-135721485D01*
X153238095Y-135721485D02*
X153857142Y-135721485D01*
D11*
X164392164Y-138140000D02*
X164607836Y-138140000D01*
X164392164Y-138860000D02*
X164607836Y-138860000D01*
X184346359Y-130320000D02*
X184653641Y-130320000D01*
X184346359Y-131080000D02*
X184653641Y-131080000D01*
X194235000Y-140238748D02*
X194235000Y-140761252D01*
X192765000Y-140238748D02*
X192765000Y-140761252D01*
X178246359Y-133090000D02*
X178553641Y-133090000D01*
X178246359Y-133850000D02*
X178553641Y-133850000D01*
X151880000Y-139346359D02*
X151880000Y-139653641D01*
X151120000Y-139346359D02*
X151120000Y-139653641D01*
X181735000Y-144238748D02*
X181735000Y-144761252D01*
X180265000Y-144238748D02*
X180265000Y-144761252D01*
X175620000Y-140573641D02*
X175620000Y-140266359D01*
X176380000Y-140573641D02*
X176380000Y-140266359D01*
X192060000Y-141000000D02*
X192060000Y-137550000D01*
X192060000Y-141000000D02*
X192060000Y-142950000D01*
X186940000Y-141000000D02*
X186940000Y-139050000D01*
X186940000Y-141000000D02*
X186940000Y-142950000D01*
X148110436Y-142015000D02*
X148564564Y-142015000D01*
X148110436Y-143485000D02*
X148564564Y-143485000D01*
X170800000Y-117264564D02*
X170800000Y-115810436D01*
X172620000Y-117264564D02*
X172620000Y-115810436D01*
X183660000Y-138292164D02*
X183660000Y-138507836D01*
X182940000Y-138292164D02*
X182940000Y-138507836D01*
X180207836Y-140660000D02*
X179992164Y-140660000D01*
X180207836Y-139940000D02*
X179992164Y-139940000D01*
X186235000Y-140738748D02*
X186235000Y-141261252D01*
X184765000Y-140738748D02*
X184765000Y-141261252D01*
X174090000Y-117264564D02*
X174090000Y-115810436D01*
X175910000Y-117264564D02*
X175910000Y-115810436D01*
X188397936Y-125090000D02*
X189602064Y-125090000D01*
X188397936Y-126910000D02*
X189602064Y-126910000D01*
X167150000Y-134250000D02*
X167150000Y-135500000D01*
X167440000Y-134540000D02*
X167440000Y-140510000D01*
X167440000Y-140510000D02*
X175060000Y-140510000D01*
X167450000Y-134550000D02*
X167450000Y-135300000D01*
X167450000Y-135300000D02*
X169250000Y-135300000D01*
X167450000Y-136800000D02*
X168200000Y-136800000D01*
X168200000Y-136800000D02*
X168200000Y-139750000D01*
X168200000Y-139750000D02*
X171250000Y-139750000D01*
X168400000Y-134250000D02*
X167150000Y-134250000D01*
X169250000Y-134550000D02*
X167450000Y-134550000D01*
X169250000Y-135300000D02*
X169250000Y-134550000D01*
X170750000Y-134550000D02*
X170750000Y-135300000D01*
X170750000Y-135300000D02*
X171750000Y-135300000D01*
X171750000Y-134550000D02*
X170750000Y-134550000D01*
X171750000Y-135300000D02*
X171750000Y-134550000D01*
X173250000Y-134550000D02*
X173250000Y-135300000D01*
X173250000Y-135300000D02*
X175050000Y-135300000D01*
X174300000Y-136800000D02*
X174300000Y-139750000D01*
X174300000Y-139750000D02*
X171250000Y-139750000D01*
X175050000Y-134550000D02*
X173250000Y-134550000D01*
X175050000Y-135300000D02*
X175050000Y-134550000D01*
X175050000Y-136800000D02*
X174300000Y-136800000D01*
X175060000Y-134540000D02*
X167440000Y-134540000D01*
X175060000Y-140510000D02*
X175060000Y-134540000D01*
X148562500Y-138440000D02*
X146887500Y-138440000D01*
X148562500Y-138440000D02*
X149212500Y-138440000D01*
X148562500Y-141560000D02*
X147912500Y-141560000D01*
X148562500Y-141560000D02*
X149212500Y-141560000D01*
D12*
X178675000Y-136000000D02*
G75*
G03*
X178675000Y-136000000I-125000J0D01*
G01*
D11*
X181862779Y-142210000D02*
X181537221Y-142210000D01*
X181862779Y-141190000D02*
X181537221Y-141190000D01*
X156150000Y-146750000D02*
X156150000Y-148000000D01*
X156440000Y-147040000D02*
X156440000Y-153010000D01*
X156440000Y-153010000D02*
X184060000Y-153010000D01*
X156450000Y-147050000D02*
X156450000Y-147800000D01*
X156450000Y-147800000D02*
X158250000Y-147800000D01*
X156450000Y-149300000D02*
X157200000Y-149300000D01*
X157200000Y-149300000D02*
X157200000Y-152250000D01*
X157200000Y-152250000D02*
X170250000Y-152250000D01*
X157400000Y-146750000D02*
X156150000Y-146750000D01*
X158250000Y-147050000D02*
X156450000Y-147050000D01*
X158250000Y-147800000D02*
X158250000Y-147050000D01*
X159750000Y-147050000D02*
X159750000Y-147800000D01*
X159750000Y-147800000D02*
X180750000Y-147800000D01*
X180750000Y-147050000D02*
X159750000Y-147050000D01*
X180750000Y-147800000D02*
X180750000Y-147050000D01*
X182250000Y-147050000D02*
X182250000Y-147800000D01*
X182250000Y-147800000D02*
X184050000Y-147800000D01*
X183300000Y-149300000D02*
X183300000Y-152250000D01*
X183300000Y-152250000D02*
X170250000Y-152250000D01*
X184050000Y-147050000D02*
X182250000Y-147050000D01*
X184050000Y-147800000D02*
X184050000Y-147050000D01*
X184050000Y-149300000D02*
X183300000Y-149300000D01*
X184060000Y-147040000D02*
X156440000Y-147040000D01*
X184060000Y-153010000D02*
X184060000Y-147040000D01*
X193970000Y-123860000D02*
X194610000Y-123860000D01*
X194610000Y-123860000D02*
X194610000Y-123460000D01*
X187630000Y-123620000D02*
X194370000Y-123620000D01*
X187630000Y-123620000D02*
X187630000Y-117840000D01*
X188750000Y-123620000D02*
X188750000Y-117840000D01*
X193850000Y-123620000D02*
X193850000Y-117840000D01*
X194370000Y-123620000D02*
X194370000Y-117840000D01*
X187630000Y-117840000D02*
X194370000Y-117840000D01*
X184336359Y-131320000D02*
X184643641Y-131320000D01*
X184336359Y-132080000D02*
X184643641Y-132080000D01*
X154360000Y-142892164D02*
X154360000Y-143107836D01*
X153640000Y-142892164D02*
X153640000Y-143107836D01*
X171540000Y-145657836D02*
X171540000Y-145442164D01*
X172260000Y-145657836D02*
X172260000Y-145442164D01*
X165846359Y-136620000D02*
X166153641Y-136620000D01*
X165846359Y-137380000D02*
X166153641Y-137380000D01*
X176707836Y-136020000D02*
X176492164Y-136020000D01*
X176707836Y-135300000D02*
X176492164Y-135300000D01*
X173060000Y-129000000D02*
X173060000Y-125550000D01*
X173060000Y-129000000D02*
X173060000Y-130950000D01*
X167940000Y-129000000D02*
X167940000Y-127050000D01*
X167940000Y-129000000D02*
X167940000Y-130950000D01*
X182092164Y-139940000D02*
X182307836Y-139940000D01*
X182092164Y-140660000D02*
X182307836Y-140660000D01*
X160860000Y-136392164D02*
X160860000Y-136607836D01*
X160140000Y-136392164D02*
X160140000Y-136607836D01*
X167510000Y-117264564D02*
X167510000Y-115810436D01*
X169330000Y-117264564D02*
X169330000Y-115810436D01*
X160930000Y-117264564D02*
X160930000Y-115810436D01*
X162750000Y-117264564D02*
X162750000Y-115810436D01*
X188738748Y-135265000D02*
X189261252Y-135265000D01*
X188738748Y-136735000D02*
X189261252Y-136735000D01*
X148569000Y-133070000D02*
X153840000Y-133070000D01*
X148569000Y-133070000D02*
X148569000Y-116930000D01*
X153840000Y-133070000D02*
X153840000Y-116930000D01*
X148569000Y-126804000D02*
X153840000Y-126804000D01*
X148569000Y-123195000D02*
X153840000Y-123195000D01*
X148569000Y-116930000D02*
X153840000Y-116930000D01*
X146265000Y-135227064D02*
X146265000Y-134772936D01*
X147735000Y-135227064D02*
X147735000Y-134772936D01*
X173200000Y-146410000D02*
X175200000Y-146410000D01*
X174200000Y-144190000D02*
X175200000Y-144190000D01*
X161890000Y-142500000D02*
X161890000Y-145425000D01*
X161890000Y-142500000D02*
X161890000Y-141000000D01*
X165110000Y-142500000D02*
X165110000Y-144000000D01*
X165110000Y-142500000D02*
X165110000Y-141000000D01*
X181490000Y-118540580D02*
X181490000Y-118259420D01*
X182510000Y-118540580D02*
X182510000Y-118259420D01*
X177360000Y-140312164D02*
X177360000Y-140527836D01*
X176640000Y-140312164D02*
X176640000Y-140527836D01*
X155120000Y-143153641D02*
X155120000Y-142846359D01*
X155880000Y-143153641D02*
X155880000Y-142846359D01*
X179735000Y-144238748D02*
X179735000Y-144761252D01*
X178265000Y-144238748D02*
X178265000Y-144761252D01*
X162607836Y-138860000D02*
X162392164Y-138860000D01*
X162607836Y-138140000D02*
X162392164Y-138140000D01*
X156143641Y-135880000D02*
X155836359Y-135880000D01*
X156143641Y-135120000D02*
X155836359Y-135120000D01*
X176446359Y-134320000D02*
X176753641Y-134320000D01*
X176446359Y-135080000D02*
X176753641Y-135080000D01*
X173640000Y-131087836D02*
X173640000Y-130872164D01*
X174360000Y-131087836D02*
X174360000Y-130872164D01*
X176412164Y-141560000D02*
X176627836Y-141560000D01*
X176412164Y-142280000D02*
X176627836Y-142280000D01*
X193970000Y-134360000D02*
X194610000Y-134360000D01*
X194610000Y-134360000D02*
X194610000Y-133960000D01*
X187630000Y-134120000D02*
X194370000Y-134120000D01*
X187630000Y-134120000D02*
X187630000Y-128340000D01*
X188750000Y-134120000D02*
X188750000Y-128340000D01*
X193850000Y-134120000D02*
X193850000Y-128340000D01*
X194370000Y-134120000D02*
X194370000Y-128340000D01*
X187630000Y-128340000D02*
X194370000Y-128340000D01*
X182610000Y-131353641D02*
X182610000Y-131046359D01*
X183370000Y-131353641D02*
X183370000Y-131046359D01*
X181265000Y-122127064D02*
X181265000Y-121672936D01*
X182735000Y-122127064D02*
X182735000Y-121672936D01*
X180567836Y-133820000D02*
X180352164Y-133820000D01*
X180567836Y-133100000D02*
X180352164Y-133100000D01*
X151140000Y-137407836D02*
X151140000Y-137192164D01*
X151860000Y-137407836D02*
X151860000Y-137192164D01*
X164220000Y-117264564D02*
X164220000Y-115810436D01*
X166040000Y-117264564D02*
X166040000Y-115810436D01*
X156000000Y-136440000D02*
X152550000Y-136440000D01*
X156000000Y-136440000D02*
X157950000Y-136440000D01*
X156000000Y-141560000D02*
X154050000Y-141560000D01*
X156000000Y-141560000D02*
X157950000Y-141560000D01*
%LPC*%
D13*
X160750000Y-109500000D02*
X178750000Y-109500000D01*
X154750000Y-129750000D02*
X165250000Y-129750000D01*
X154750000Y-128250000D02*
X165250000Y-128250000D01*
X159750000Y-119750000D02*
X177750000Y-119750000D01*
X154750000Y-125250000D02*
X167250000Y-125250000D01*
X154750000Y-119750000D02*
X159750000Y-119750000D01*
X154750000Y-118250000D02*
X159750000Y-118250000D01*
X174437500Y-126250000D02*
X185062500Y-126250000D01*
X159750000Y-121250000D02*
X168750000Y-121250000D01*
X154750000Y-121250000D02*
X159750000Y-121250000D01*
X172000000Y-123250000D02*
X179750000Y-123250000D01*
X160750000Y-111000000D02*
X178750000Y-111000000D01*
X180250000Y-111000000D02*
X188500000Y-119250000D01*
X180250000Y-109500000D02*
X188500000Y-117750000D01*
X160750000Y-112500000D02*
X178750000Y-112500000D01*
X154750000Y-126750000D02*
X166750000Y-126750000D01*
X183750000Y-123250000D02*
X187500000Y-123250000D01*
X174437500Y-124750000D02*
X185062500Y-124750000D01*
X154750000Y-131250000D02*
X165250000Y-131250000D01*
X180250000Y-112500000D02*
X188500000Y-120750000D01*
D14*
X164020000Y-138500000D03*
X164980000Y-138500000D03*
D15*
X183990000Y-130700000D03*
X185010000Y-130700000D03*
D16*
X193500000Y-139550000D03*
X193500000Y-141450000D03*
D15*
X177890000Y-133470000D03*
X178910000Y-133470000D03*
D17*
X151500000Y-138990000D03*
X151500000Y-140010000D03*
D16*
X181000000Y-143550000D03*
X181000000Y-145450000D03*
D18*
X146775000Y-150000000D03*
X147719581Y-147719581D03*
X147719581Y-152280419D03*
X150000000Y-146775000D03*
D19*
X150000000Y-150000000D03*
D18*
X150000000Y-153225000D03*
X152280419Y-147719581D03*
X152280419Y-152280419D03*
X153225000Y-150000000D03*
D20*
X176000000Y-140930000D03*
X176000000Y-139910000D03*
D21*
X191405000Y-138525000D03*
X190135000Y-138525000D03*
X188865000Y-138525000D03*
X187595000Y-138525000D03*
X187595000Y-143475000D03*
X188865000Y-143475000D03*
X190135000Y-143475000D03*
X191405000Y-143475000D03*
D22*
X147425000Y-142750000D03*
X149250000Y-142750000D03*
D23*
X171710000Y-118000000D03*
X171710000Y-115075000D03*
D24*
X183300000Y-137920000D03*
X183300000Y-138880000D03*
D25*
X180580000Y-140300000D03*
X179620000Y-140300000D03*
D16*
X185500000Y-140050000D03*
X185500000Y-141950000D03*
D23*
X175000000Y-118000000D03*
X175000000Y-115075000D03*
D26*
X187600000Y-126000000D03*
X190400000Y-126000000D03*
D27*
X170000000Y-137000000D03*
D28*
X172500000Y-137000000D03*
D29*
X147625000Y-139050000D03*
X147625000Y-140950000D03*
X149500000Y-140000000D03*
D30*
X178950000Y-136750000D03*
X178950000Y-137250000D03*
X178950000Y-137750000D03*
X178950000Y-138250000D03*
D31*
X179700000Y-139000000D03*
X180200000Y-139000000D03*
X180700000Y-139000000D03*
X181200000Y-139000000D03*
D30*
X181950000Y-138250000D03*
X181950000Y-137750000D03*
X181950000Y-137250000D03*
X181950000Y-136750000D03*
D31*
X181200000Y-136000000D03*
X180700000Y-136000000D03*
X180200000Y-136000000D03*
X179700000Y-136000000D03*
D32*
X180450000Y-137500000D03*
D33*
X182487500Y-141700000D03*
X180912500Y-141700000D03*
D34*
X159000000Y-149500000D03*
D35*
X161500000Y-149500000D03*
X164000000Y-149500000D03*
X166500000Y-149500000D03*
X169000000Y-149500000D03*
X171500000Y-149500000D03*
X174000000Y-149500000D03*
X176500000Y-149500000D03*
X179000000Y-149500000D03*
X181500000Y-149500000D03*
D36*
X191000000Y-122000000D03*
D37*
X191000000Y-119460000D03*
D15*
X183980000Y-131700000D03*
X185000000Y-131700000D03*
D24*
X154000000Y-142520000D03*
X154000000Y-143480000D03*
D38*
X171900000Y-146030000D03*
X171900000Y-145070000D03*
D15*
X165490000Y-137000000D03*
X166510000Y-137000000D03*
D25*
X177080000Y-135660000D03*
X176120000Y-135660000D03*
D21*
X172405000Y-126525000D03*
X171135000Y-126525000D03*
X169865000Y-126525000D03*
X168595000Y-126525000D03*
X168595000Y-131475000D03*
X169865000Y-131475000D03*
X171135000Y-131475000D03*
X172405000Y-131475000D03*
D14*
X181720000Y-140300000D03*
X182680000Y-140300000D03*
D24*
X160500000Y-136020000D03*
X160500000Y-136980000D03*
D23*
X168420000Y-118000000D03*
X168420000Y-115075000D03*
X161840000Y-118000000D03*
X161840000Y-115075000D03*
D18*
X186775000Y-110000000D03*
X187719581Y-107719581D03*
X187719581Y-112280419D03*
X190000000Y-106775000D03*
D19*
X190000000Y-110000000D03*
D18*
X190000000Y-113225000D03*
X192280419Y-107719581D03*
X192280419Y-112280419D03*
X193225000Y-110000000D03*
D39*
X188050000Y-136000000D03*
X189950000Y-136000000D03*
D40*
X151020000Y-130450000D03*
D41*
X151020000Y-125000000D03*
X151020000Y-119550000D03*
D42*
X147000000Y-135912500D03*
X147000000Y-134087500D03*
D43*
X173200000Y-144550000D03*
X173200000Y-145050000D03*
X173200000Y-145550000D03*
X173200000Y-146050000D03*
X175200000Y-146050000D03*
X175200000Y-145550000D03*
X175200000Y-145050000D03*
X175200000Y-144550000D03*
D44*
X174200000Y-145300000D03*
D45*
X162500000Y-144700000D03*
X163000000Y-144700000D03*
X163500000Y-144700000D03*
X164000000Y-144700000D03*
X164500000Y-144700000D03*
X164500000Y-140300000D03*
X164000000Y-140300000D03*
X163500000Y-140300000D03*
X163000000Y-140300000D03*
X162500000Y-140300000D03*
D46*
X182000000Y-119175000D03*
X182000000Y-117625000D03*
D24*
X177000000Y-139940000D03*
X177000000Y-140900000D03*
D18*
X146775000Y-110000000D03*
X147719581Y-107719581D03*
X147719581Y-112280419D03*
X150000000Y-106775000D03*
D19*
X150000000Y-110000000D03*
D18*
X150000000Y-113225000D03*
X152280419Y-107719581D03*
X152280419Y-112280419D03*
X153225000Y-110000000D03*
D20*
X155500000Y-143510000D03*
X155500000Y-142490000D03*
D16*
X179000000Y-143550000D03*
X179000000Y-145450000D03*
D25*
X162980000Y-138500000D03*
X162020000Y-138500000D03*
D47*
X156500000Y-135500000D03*
X155480000Y-135500000D03*
D15*
X176090000Y-134700000D03*
X177110000Y-134700000D03*
D38*
X174000000Y-131460000D03*
X174000000Y-130500000D03*
D14*
X176040000Y-141920000D03*
X177000000Y-141920000D03*
D18*
X186775000Y-150000000D03*
X187719581Y-147719581D03*
X187719581Y-152280419D03*
X190000000Y-146775000D03*
D19*
X190000000Y-150000000D03*
D18*
X190000000Y-153225000D03*
X192280419Y-147719581D03*
X192280419Y-152280419D03*
X193225000Y-150000000D03*
D36*
X191000000Y-132500000D03*
D37*
X191000000Y-129960000D03*
D20*
X182990000Y-131710000D03*
X182990000Y-130690000D03*
D42*
X182000000Y-122812500D03*
X182000000Y-120987500D03*
D25*
X180940000Y-133460000D03*
X179980000Y-133460000D03*
D38*
X151500000Y-137780000D03*
X151500000Y-136820000D03*
D23*
X165130000Y-118000000D03*
X165130000Y-115075000D03*
D48*
X153525000Y-137095000D03*
X153525000Y-138365000D03*
X153525000Y-139635000D03*
X153525000Y-140905000D03*
X158475000Y-140905000D03*
X158475000Y-139635000D03*
X158475000Y-138365000D03*
X158475000Y-137095000D03*
%LPD*%
M02*
