G04 #@! TF.GenerationSoftware,KiCad,Pcbnew,7.0.7*
G04 #@! TF.CreationDate,2023-10-26T17:58:54+02:00*
G04 #@! TF.ProjectId,load,6c6f6164-2e6b-4696-9361-645f70636258,rev?*
G04 #@! TF.SameCoordinates,Original*
G04 #@! TF.FileFunction,Legend,Bot*
G04 #@! TF.FilePolarity,Positive*
%FSLAX46Y46*%
G04 Gerber Fmt 4.6, Leading zero omitted, Abs format (unit mm)*
G04 Created by KiCad (PCBNEW 7.0.7) date 2023-10-26 17:58:54*
%MOMM*%
%LPD*%
G01*
G04 APERTURE LIST*
G04 Aperture macros list*
%AMRoundRect*
0 Rectangle with rounded corners*
0 $1 Rounding radius*
0 $2 $3 $4 $5 $6 $7 $8 $9 X,Y pos of 4 corners*
0 Add a 4 corners polygon primitive as box body*
4,1,4,$2,$3,$4,$5,$6,$7,$8,$9,$2,$3,0*
0 Add four circle primitives for the rounded corners*
1,1,$1+$1,$2,$3*
1,1,$1+$1,$4,$5*
1,1,$1+$1,$6,$7*
1,1,$1+$1,$8,$9*
0 Add four rect primitives between the rounded corners*
20,1,$1+$1,$2,$3,$4,$5,0*
20,1,$1+$1,$4,$5,$6,$7,0*
20,1,$1+$1,$6,$7,$8,$9,0*
20,1,$1+$1,$8,$9,$2,$3,0*%
G04 Aperture macros list end*
%ADD10C,0.500000*%
%ADD11C,0.900000*%
%ADD12C,8.600000*%
%ADD13RoundRect,0.250000X-0.600000X-0.750000X0.600000X-0.750000X0.600000X0.750000X-0.600000X0.750000X0*%
%ADD14O,1.700000X2.000000*%
%ADD15RoundRect,0.250000X-0.600000X-0.725000X0.600000X-0.725000X0.600000X0.725000X-0.600000X0.725000X0*%
%ADD16O,1.700000X1.950000*%
%ADD17R,2.100000X2.100000*%
%ADD18C,2.100000*%
%ADD19R,4.500000X2.500000*%
%ADD20O,4.500000X2.500000*%
G04 APERTURE END LIST*
%LPC*%
D10*
X154750000Y-129750000D02*
X165250000Y-129750000D01*
X160750000Y-112500000D02*
X178750000Y-112500000D01*
X174500000Y-124750000D02*
X185000000Y-124750000D01*
X154750000Y-128250000D02*
X161250000Y-128250000D01*
X172000000Y-123250000D02*
X179750000Y-123250000D01*
X180250000Y-112500000D02*
X188500000Y-120750000D01*
X159500000Y-118250000D02*
X159750000Y-118250000D01*
X168750000Y-121250000D02*
X154750000Y-121250000D01*
X154750000Y-118250000D02*
X159500000Y-118250000D01*
X161250000Y-128250000D02*
X165250000Y-128250000D01*
X160750000Y-111000000D02*
X178750000Y-111000000D01*
X154750000Y-125250000D02*
X167250000Y-125250000D01*
X154750000Y-131250000D02*
X165250000Y-131250000D01*
X154750000Y-129750000D02*
X154750000Y-129750000D01*
X180250000Y-111000000D02*
X188500000Y-119250000D01*
X154750000Y-119750000D02*
X177750000Y-119750000D01*
X180250000Y-109500000D02*
X188500000Y-117750000D01*
X183750000Y-123250000D02*
X187500000Y-123250000D01*
X160750000Y-109500000D02*
X178750000Y-109500000D01*
X174500000Y-126250000D02*
X185000000Y-126250000D01*
X154750000Y-126750000D02*
X166750000Y-126750000D01*
D11*
X146775000Y-150000000D03*
X147719581Y-147719581D03*
X147719581Y-152280419D03*
X150000000Y-146775000D03*
D12*
X150000000Y-150000000D03*
D11*
X150000000Y-153225000D03*
X152280419Y-147719581D03*
X152280419Y-152280419D03*
X153225000Y-150000000D03*
D13*
X170000000Y-137000000D03*
D14*
X172500000Y-137000000D03*
D15*
X159000000Y-149500000D03*
D16*
X161500000Y-149500000D03*
X164000000Y-149500000D03*
X166500000Y-149500000D03*
X169000000Y-149500000D03*
X171500000Y-149500000D03*
X174000000Y-149500000D03*
X176500000Y-149500000D03*
X179000000Y-149500000D03*
X181500000Y-149500000D03*
D17*
X191000000Y-122000000D03*
D18*
X191000000Y-119460000D03*
D11*
X186775000Y-110000000D03*
X187719581Y-107719581D03*
X187719581Y-112280419D03*
X190000000Y-106775000D03*
D12*
X190000000Y-110000000D03*
D11*
X190000000Y-113225000D03*
X192280419Y-107719581D03*
X192280419Y-112280419D03*
X193225000Y-110000000D03*
D19*
X151020000Y-130450000D03*
D20*
X151020000Y-125000000D03*
X151020000Y-119550000D03*
D11*
X146775000Y-110000000D03*
X147719581Y-107719581D03*
X147719581Y-112280419D03*
X150000000Y-106775000D03*
D12*
X150000000Y-110000000D03*
D11*
X150000000Y-113225000D03*
X152280419Y-107719581D03*
X152280419Y-112280419D03*
X153225000Y-110000000D03*
X186775000Y-150000000D03*
X187719581Y-147719581D03*
X187719581Y-152280419D03*
X190000000Y-146775000D03*
D12*
X190000000Y-150000000D03*
D11*
X190000000Y-153225000D03*
X192280419Y-147719581D03*
X192280419Y-152280419D03*
X193225000Y-150000000D03*
D17*
X191000000Y-132500000D03*
D18*
X191000000Y-129960000D03*
%LPD*%
M02*
