G04 #@! TF.GenerationSoftware,KiCad,Pcbnew,7.0.7*
G04 #@! TF.CreationDate,2023-10-26T17:58:54+02:00*
G04 #@! TF.ProjectId,load,6c6f6164-2e6b-4696-9361-645f70636258,rev?*
G04 #@! TF.SameCoordinates,Original*
G04 #@! TF.FileFunction,Copper,L1,Top*
G04 #@! TF.FilePolarity,Positive*
%FSLAX46Y46*%
G04 Gerber Fmt 4.6, Leading zero omitted, Abs format (unit mm)*
G04 Created by KiCad (PCBNEW 7.0.7) date 2023-10-26 17:58:54*
%MOMM*%
%LPD*%
G01*
G04 APERTURE LIST*
G04 Aperture macros list*
%AMRoundRect*
0 Rectangle with rounded corners*
0 $1 Rounding radius*
0 $2 $3 $4 $5 $6 $7 $8 $9 X,Y pos of 4 corners*
0 Add a 4 corners polygon primitive as box body*
4,1,4,$2,$3,$4,$5,$6,$7,$8,$9,$2,$3,0*
0 Add four circle primitives for the rounded corners*
1,1,$1+$1,$2,$3*
1,1,$1+$1,$4,$5*
1,1,$1+$1,$6,$7*
1,1,$1+$1,$8,$9*
0 Add four rect primitives between the rounded corners*
20,1,$1+$1,$2,$3,$4,$5,0*
20,1,$1+$1,$4,$5,$6,$7,0*
20,1,$1+$1,$6,$7,$8,$9,0*
20,1,$1+$1,$8,$9,$2,$3,0*%
G04 Aperture macros list end*
G04 #@! TA.AperFunction,SMDPad,CuDef*
%ADD10RoundRect,0.140000X-0.140000X-0.170000X0.140000X-0.170000X0.140000X0.170000X-0.140000X0.170000X0*%
G04 #@! TD*
G04 #@! TA.AperFunction,SMDPad,CuDef*
%ADD11RoundRect,0.135000X-0.135000X-0.185000X0.135000X-0.185000X0.135000X0.185000X-0.135000X0.185000X0*%
G04 #@! TD*
G04 #@! TA.AperFunction,SMDPad,CuDef*
%ADD12RoundRect,0.250000X-0.475000X0.250000X-0.475000X-0.250000X0.475000X-0.250000X0.475000X0.250000X0*%
G04 #@! TD*
G04 #@! TA.AperFunction,SMDPad,CuDef*
%ADD13RoundRect,0.135000X-0.185000X0.135000X-0.185000X-0.135000X0.185000X-0.135000X0.185000X0.135000X0*%
G04 #@! TD*
G04 #@! TA.AperFunction,ComponentPad*
%ADD14C,0.900000*%
G04 #@! TD*
G04 #@! TA.AperFunction,ComponentPad*
%ADD15C,8.600000*%
G04 #@! TD*
G04 #@! TA.AperFunction,SMDPad,CuDef*
%ADD16RoundRect,0.135000X0.185000X-0.135000X0.185000X0.135000X-0.185000X0.135000X-0.185000X-0.135000X0*%
G04 #@! TD*
G04 #@! TA.AperFunction,SMDPad,CuDef*
%ADD17RoundRect,0.150000X-0.150000X0.825000X-0.150000X-0.825000X0.150000X-0.825000X0.150000X0.825000X0*%
G04 #@! TD*
G04 #@! TA.AperFunction,SMDPad,CuDef*
%ADD18RoundRect,0.250000X-0.262500X-0.450000X0.262500X-0.450000X0.262500X0.450000X-0.262500X0.450000X0*%
G04 #@! TD*
G04 #@! TA.AperFunction,SMDPad,CuDef*
%ADD19RoundRect,0.250000X0.625000X-0.312500X0.625000X0.312500X-0.625000X0.312500X-0.625000X-0.312500X0*%
G04 #@! TD*
G04 #@! TA.AperFunction,SMDPad,CuDef*
%ADD20RoundRect,0.140000X-0.170000X0.140000X-0.170000X-0.140000X0.170000X-0.140000X0.170000X0.140000X0*%
G04 #@! TD*
G04 #@! TA.AperFunction,SMDPad,CuDef*
%ADD21RoundRect,0.140000X0.140000X0.170000X-0.140000X0.170000X-0.140000X-0.170000X0.140000X-0.170000X0*%
G04 #@! TD*
G04 #@! TA.AperFunction,SMDPad,CuDef*
%ADD22RoundRect,0.250000X-0.375000X-0.625000X0.375000X-0.625000X0.375000X0.625000X-0.375000X0.625000X0*%
G04 #@! TD*
G04 #@! TA.AperFunction,ComponentPad*
%ADD23RoundRect,0.250000X-0.600000X-0.750000X0.600000X-0.750000X0.600000X0.750000X-0.600000X0.750000X0*%
G04 #@! TD*
G04 #@! TA.AperFunction,ComponentPad*
%ADD24O,1.700000X2.000000*%
G04 #@! TD*
G04 #@! TA.AperFunction,SMDPad,CuDef*
%ADD25RoundRect,0.150000X-0.587500X-0.150000X0.587500X-0.150000X0.587500X0.150000X-0.587500X0.150000X0*%
G04 #@! TD*
G04 #@! TA.AperFunction,SMDPad,CuDef*
%ADD26R,0.800000X0.300000*%
G04 #@! TD*
G04 #@! TA.AperFunction,SMDPad,CuDef*
%ADD27R,0.300000X0.800000*%
G04 #@! TD*
G04 #@! TA.AperFunction,SMDPad,CuDef*
%ADD28R,1.760000X1.760000*%
G04 #@! TD*
G04 #@! TA.AperFunction,SMDPad,CuDef*
%ADD29RoundRect,0.218750X0.218750X0.256250X-0.218750X0.256250X-0.218750X-0.256250X0.218750X-0.256250X0*%
G04 #@! TD*
G04 #@! TA.AperFunction,ComponentPad*
%ADD30RoundRect,0.250000X-0.600000X-0.725000X0.600000X-0.725000X0.600000X0.725000X-0.600000X0.725000X0*%
G04 #@! TD*
G04 #@! TA.AperFunction,ComponentPad*
%ADD31O,1.700000X1.950000*%
G04 #@! TD*
G04 #@! TA.AperFunction,ComponentPad*
%ADD32R,2.100000X2.100000*%
G04 #@! TD*
G04 #@! TA.AperFunction,ComponentPad*
%ADD33C,2.100000*%
G04 #@! TD*
G04 #@! TA.AperFunction,SMDPad,CuDef*
%ADD34RoundRect,0.140000X0.170000X-0.140000X0.170000X0.140000X-0.170000X0.140000X-0.170000X-0.140000X0*%
G04 #@! TD*
G04 #@! TA.AperFunction,SMDPad,CuDef*
%ADD35RoundRect,0.250000X-0.250000X-0.475000X0.250000X-0.475000X0.250000X0.475000X-0.250000X0.475000X0*%
G04 #@! TD*
G04 #@! TA.AperFunction,ComponentPad*
%ADD36R,4.500000X2.500000*%
G04 #@! TD*
G04 #@! TA.AperFunction,ComponentPad*
%ADD37O,4.500000X2.500000*%
G04 #@! TD*
G04 #@! TA.AperFunction,SMDPad,CuDef*
%ADD38RoundRect,0.250000X0.450000X-0.262500X0.450000X0.262500X-0.450000X0.262500X-0.450000X-0.262500X0*%
G04 #@! TD*
G04 #@! TA.AperFunction,SMDPad,CuDef*
%ADD39RoundRect,0.062500X-0.287500X-0.062500X0.287500X-0.062500X0.287500X0.062500X-0.287500X0.062500X0*%
G04 #@! TD*
G04 #@! TA.AperFunction,SMDPad,CuDef*
%ADD40R,0.800000X1.200000*%
G04 #@! TD*
G04 #@! TA.AperFunction,SMDPad,CuDef*
%ADD41RoundRect,0.075000X0.075000X-0.650000X0.075000X0.650000X-0.075000X0.650000X-0.075000X-0.650000X0*%
G04 #@! TD*
G04 #@! TA.AperFunction,SMDPad,CuDef*
%ADD42RoundRect,0.225000X0.250000X-0.225000X0.250000X0.225000X-0.250000X0.225000X-0.250000X-0.225000X0*%
G04 #@! TD*
G04 #@! TA.AperFunction,SMDPad,CuDef*
%ADD43RoundRect,0.135000X0.135000X0.185000X-0.135000X0.185000X-0.135000X-0.185000X0.135000X-0.185000X0*%
G04 #@! TD*
G04 #@! TA.AperFunction,SMDPad,CuDef*
%ADD44RoundRect,0.150000X-0.825000X-0.150000X0.825000X-0.150000X0.825000X0.150000X-0.825000X0.150000X0*%
G04 #@! TD*
G04 #@! TA.AperFunction,ViaPad*
%ADD45C,0.450000*%
G04 #@! TD*
G04 #@! TA.AperFunction,Conductor*
%ADD46C,0.250000*%
G04 #@! TD*
G04 #@! TA.AperFunction,Conductor*
%ADD47C,1.000000*%
G04 #@! TD*
G04 #@! TA.AperFunction,Conductor*
%ADD48C,0.500000*%
G04 #@! TD*
G04 #@! TA.AperFunction,Conductor*
%ADD49C,0.200000*%
G04 #@! TD*
G04 APERTURE END LIST*
D10*
X164020000Y-138500000D03*
X164980000Y-138500000D03*
D11*
X183990000Y-130700000D03*
X185010000Y-130700000D03*
D12*
X193500000Y-139550000D03*
X193500000Y-141450000D03*
D11*
X177890000Y-133470000D03*
X178910000Y-133470000D03*
D13*
X151500000Y-138990000D03*
X151500000Y-140010000D03*
D12*
X181000000Y-143550000D03*
X181000000Y-145450000D03*
D14*
X146775000Y-150000000D03*
X147719581Y-147719581D03*
X147719581Y-152280419D03*
X150000000Y-146775000D03*
D15*
X150000000Y-150000000D03*
D14*
X150000000Y-153225000D03*
X152280419Y-147719581D03*
X152280419Y-152280419D03*
X153225000Y-150000000D03*
D16*
X176000000Y-140930000D03*
X176000000Y-139910000D03*
D17*
X191405000Y-138525000D03*
X190135000Y-138525000D03*
X188865000Y-138525000D03*
X187595000Y-138525000D03*
X187595000Y-143475000D03*
X188865000Y-143475000D03*
X190135000Y-143475000D03*
X191405000Y-143475000D03*
D18*
X147425000Y-142750000D03*
X149250000Y-142750000D03*
D19*
X171710000Y-118000000D03*
X171710000Y-115075000D03*
D20*
X183300000Y-137920000D03*
X183300000Y-138880000D03*
D21*
X180580000Y-140300000D03*
X179620000Y-140300000D03*
D12*
X185500000Y-140050000D03*
X185500000Y-141950000D03*
D19*
X175000000Y-118000000D03*
X175000000Y-115075000D03*
D22*
X187600000Y-126000000D03*
X190400000Y-126000000D03*
D23*
X170000000Y-137000000D03*
D24*
X172500000Y-137000000D03*
D25*
X147625000Y-139050000D03*
X147625000Y-140950000D03*
X149500000Y-140000000D03*
D26*
X178950000Y-136750000D03*
X178950000Y-137250000D03*
X178950000Y-137750000D03*
X178950000Y-138250000D03*
D27*
X179700000Y-139000000D03*
X180200000Y-139000000D03*
X180700000Y-139000000D03*
X181200000Y-139000000D03*
D26*
X181950000Y-138250000D03*
X181950000Y-137750000D03*
X181950000Y-137250000D03*
X181950000Y-136750000D03*
D27*
X181200000Y-136000000D03*
X180700000Y-136000000D03*
X180200000Y-136000000D03*
X179700000Y-136000000D03*
D28*
X180450000Y-137500000D03*
D29*
X182487500Y-141700000D03*
X180912500Y-141700000D03*
D30*
X159000000Y-149500000D03*
D31*
X161500000Y-149500000D03*
X164000000Y-149500000D03*
X166500000Y-149500000D03*
X169000000Y-149500000D03*
X171500000Y-149500000D03*
X174000000Y-149500000D03*
X176500000Y-149500000D03*
X179000000Y-149500000D03*
X181500000Y-149500000D03*
D32*
X191000000Y-122000000D03*
D33*
X191000000Y-119460000D03*
D11*
X183980000Y-131700000D03*
X185000000Y-131700000D03*
D20*
X154000000Y-142520000D03*
X154000000Y-143480000D03*
D34*
X171900000Y-146030000D03*
X171900000Y-145070000D03*
D11*
X165490000Y-137000000D03*
X166510000Y-137000000D03*
D21*
X177080000Y-135660000D03*
X176120000Y-135660000D03*
D17*
X172405000Y-126525000D03*
X171135000Y-126525000D03*
X169865000Y-126525000D03*
X168595000Y-126525000D03*
X168595000Y-131475000D03*
X169865000Y-131475000D03*
X171135000Y-131475000D03*
X172405000Y-131475000D03*
D10*
X181720000Y-140300000D03*
X182680000Y-140300000D03*
D20*
X160500000Y-136020000D03*
X160500000Y-136980000D03*
D19*
X168420000Y-118000000D03*
X168420000Y-115075000D03*
X161840000Y-118000000D03*
X161840000Y-115075000D03*
D14*
X186775000Y-110000000D03*
X187719581Y-107719581D03*
X187719581Y-112280419D03*
X190000000Y-106775000D03*
D15*
X190000000Y-110000000D03*
D14*
X190000000Y-113225000D03*
X192280419Y-107719581D03*
X192280419Y-112280419D03*
X193225000Y-110000000D03*
D35*
X188050000Y-136000000D03*
X189950000Y-136000000D03*
D36*
X151020000Y-130450000D03*
D37*
X151020000Y-125000000D03*
X151020000Y-119550000D03*
D38*
X147000000Y-135912500D03*
X147000000Y-134087500D03*
D39*
X173200000Y-144550000D03*
X173200000Y-145050000D03*
X173200000Y-145550000D03*
X173200000Y-146050000D03*
X175200000Y-146050000D03*
X175200000Y-145550000D03*
X175200000Y-145050000D03*
X175200000Y-144550000D03*
D40*
X174200000Y-145300000D03*
D41*
X162500000Y-144700000D03*
X163000000Y-144700000D03*
X163500000Y-144700000D03*
X164000000Y-144700000D03*
X164500000Y-144700000D03*
X164500000Y-140300000D03*
X164000000Y-140300000D03*
X163500000Y-140300000D03*
X163000000Y-140300000D03*
X162500000Y-140300000D03*
D42*
X182000000Y-119175000D03*
X182000000Y-117625000D03*
D20*
X177000000Y-139940000D03*
X177000000Y-140900000D03*
D14*
X146775000Y-110000000D03*
X147719581Y-107719581D03*
X147719581Y-112280419D03*
X150000000Y-106775000D03*
D15*
X150000000Y-110000000D03*
D14*
X150000000Y-113225000D03*
X152280419Y-107719581D03*
X152280419Y-112280419D03*
X153225000Y-110000000D03*
D16*
X155500000Y-143510000D03*
X155500000Y-142490000D03*
D12*
X179000000Y-143550000D03*
X179000000Y-145450000D03*
D21*
X162980000Y-138500000D03*
X162020000Y-138500000D03*
D43*
X156500000Y-135500000D03*
X155480000Y-135500000D03*
D11*
X176090000Y-134700000D03*
X177110000Y-134700000D03*
D34*
X174000000Y-131460000D03*
X174000000Y-130500000D03*
D10*
X176040000Y-141920000D03*
X177000000Y-141920000D03*
D14*
X186775000Y-150000000D03*
X187719581Y-147719581D03*
X187719581Y-152280419D03*
X190000000Y-146775000D03*
D15*
X190000000Y-150000000D03*
D14*
X190000000Y-153225000D03*
X192280419Y-147719581D03*
X192280419Y-152280419D03*
X193225000Y-150000000D03*
D32*
X191000000Y-132500000D03*
D33*
X191000000Y-129960000D03*
D16*
X182990000Y-131710000D03*
X182990000Y-130690000D03*
D38*
X182000000Y-122812500D03*
X182000000Y-120987500D03*
D21*
X180940000Y-133460000D03*
X179980000Y-133460000D03*
D34*
X151500000Y-137780000D03*
X151500000Y-136820000D03*
D19*
X165130000Y-118000000D03*
X165130000Y-115075000D03*
D44*
X153525000Y-137095000D03*
X153525000Y-138365000D03*
X153525000Y-139635000D03*
X153525000Y-140905000D03*
X158475000Y-140905000D03*
X158475000Y-139635000D03*
X158475000Y-138365000D03*
X158475000Y-137095000D03*
D45*
X180500000Y-111250000D03*
X185500000Y-114750000D03*
X168750000Y-112500000D03*
X174000000Y-112500000D03*
X185500000Y-117750000D03*
X174750000Y-112500000D03*
X188000000Y-117250000D03*
X170500000Y-111000000D03*
X160300000Y-116100000D03*
X185500000Y-116250000D03*
X155500000Y-144400000D03*
X161250000Y-112500000D03*
X173250000Y-113250000D03*
X178000000Y-111000000D03*
X167250000Y-112500000D03*
X172500000Y-112500000D03*
X182200000Y-139100000D03*
X193000000Y-138500000D03*
X175500000Y-112500000D03*
X183500000Y-134750000D03*
X161250000Y-113250000D03*
X171750000Y-112500000D03*
X178000000Y-109500000D03*
X168000000Y-109500000D03*
X165500000Y-111000000D03*
X185750000Y-139250000D03*
X180500000Y-109750000D03*
X159500000Y-142000000D03*
X188000000Y-118750000D03*
X182500000Y-135750000D03*
X180500000Y-112750000D03*
X162000000Y-112500000D03*
X183000000Y-112250000D03*
X165500000Y-109500000D03*
X167750000Y-132000000D03*
X166500000Y-113250000D03*
X163500000Y-112500000D03*
X172500000Y-113250000D03*
X189500000Y-140500000D03*
X171000000Y-112500000D03*
X173000000Y-109500000D03*
X150500000Y-143250000D03*
X168000000Y-113250000D03*
X169500000Y-112500000D03*
X175500000Y-109500000D03*
X188000000Y-120250000D03*
X168000000Y-111000000D03*
X167750000Y-131000000D03*
X165000000Y-112500000D03*
X162750000Y-113250000D03*
X163000000Y-111000000D03*
X171750000Y-113250000D03*
X150500000Y-142500000D03*
X183000000Y-115250000D03*
X162000000Y-113250000D03*
X175500000Y-113250000D03*
X173000000Y-111000000D03*
X185000000Y-139250000D03*
X164250000Y-112500000D03*
X170250000Y-112500000D03*
X178000000Y-112500000D03*
X162750000Y-112500000D03*
X163500000Y-113250000D03*
X173250000Y-112500000D03*
X170250000Y-113250000D03*
X163000000Y-109500000D03*
X166500000Y-112500000D03*
X158750000Y-142000000D03*
X165750000Y-112500000D03*
X174000000Y-113250000D03*
X194000000Y-138500000D03*
X183000000Y-113750000D03*
X164250000Y-113250000D03*
X163250000Y-142250000D03*
X170500000Y-109500000D03*
X174750000Y-113250000D03*
X175500000Y-111000000D03*
X167250000Y-113250000D03*
X178600000Y-140300000D03*
X168000000Y-112500000D03*
X165750000Y-113250000D03*
X183500000Y-139750000D03*
X156250000Y-139000000D03*
X168750000Y-113250000D03*
X165000000Y-113250000D03*
X169500000Y-113250000D03*
X171000000Y-113250000D03*
X193600000Y-144000000D03*
X192900000Y-143300000D03*
X192900000Y-144000000D03*
X149100000Y-140800000D03*
X149800000Y-140800000D03*
X158600000Y-136200000D03*
X193600000Y-143300000D03*
X153400000Y-141900000D03*
X184300000Y-152500000D03*
X183600000Y-152500000D03*
X183600000Y-153200000D03*
X152700000Y-141900000D03*
X184300000Y-153200000D03*
X163000000Y-137700000D03*
X175200000Y-143800000D03*
X172400000Y-144600000D03*
X177600000Y-146900000D03*
X173500000Y-132200000D03*
X174100000Y-132200000D03*
X184100000Y-137900000D03*
X164400000Y-137400000D03*
X179000000Y-146300000D03*
X183600000Y-141400000D03*
X178500000Y-146900000D03*
X178100000Y-146300000D03*
X183600000Y-142000000D03*
X176250000Y-126250000D03*
X174250000Y-124500000D03*
X172750000Y-125250000D03*
X176250000Y-123250000D03*
X171250000Y-125250000D03*
X172000000Y-125250000D03*
X184500000Y-123250000D03*
X174250000Y-127500000D03*
X173500000Y-125250000D03*
X172750000Y-124500000D03*
X173500000Y-124500000D03*
X174250000Y-126000000D03*
X171250000Y-124500000D03*
X183750000Y-126250000D03*
X173750000Y-123250000D03*
X181250000Y-126250000D03*
X187000000Y-123250000D03*
X172000000Y-124500000D03*
X174250000Y-126750000D03*
X176250000Y-124750000D03*
X174250000Y-125250000D03*
X183750000Y-124750000D03*
X173500000Y-127500000D03*
X178750000Y-124750000D03*
X178750000Y-123250000D03*
X178750000Y-126250000D03*
X173500000Y-126750000D03*
X173500000Y-126000000D03*
X181250000Y-124750000D03*
X191500000Y-125250000D03*
X191500000Y-124500000D03*
X193000000Y-126750000D03*
X192250000Y-125250000D03*
X193000000Y-124500000D03*
X191500000Y-126000000D03*
X190000000Y-124500000D03*
X193000000Y-126000000D03*
X190750000Y-124500000D03*
X192250000Y-126750000D03*
X193000000Y-125250000D03*
X192250000Y-126000000D03*
X192250000Y-124500000D03*
X191500000Y-126750000D03*
X183400000Y-137100000D03*
X181400000Y-134400000D03*
X180700000Y-135200000D03*
X183100000Y-136400000D03*
X165400000Y-141300000D03*
X161500000Y-125250000D03*
X159000000Y-131250000D03*
X169500000Y-124500000D03*
X168750000Y-125250000D03*
X156500000Y-129750000D03*
X161500000Y-131250000D03*
X164000000Y-128250000D03*
X166500000Y-127500000D03*
X167250000Y-125250000D03*
X167250000Y-127500000D03*
X167250000Y-126000000D03*
X166500000Y-125250000D03*
X159000000Y-125250000D03*
X164000000Y-129750000D03*
X164000000Y-125250000D03*
X166500000Y-126750000D03*
X156500000Y-126750000D03*
X156500000Y-125250000D03*
X166500000Y-126000000D03*
X167250000Y-126750000D03*
X161500000Y-128250000D03*
X168000000Y-125250000D03*
X161500000Y-126750000D03*
X166500000Y-124500000D03*
X156500000Y-128250000D03*
X161500000Y-129750000D03*
X164000000Y-131250000D03*
X164000000Y-126750000D03*
X159000000Y-128250000D03*
X156500000Y-131250000D03*
X159000000Y-129750000D03*
X159000000Y-126750000D03*
X168750000Y-124500000D03*
X167250000Y-124500000D03*
X169500000Y-125250000D03*
X168000000Y-124500000D03*
X160300000Y-117400000D03*
X169250000Y-119750000D03*
X165500000Y-119750000D03*
X164000000Y-119750000D03*
X156500000Y-121250000D03*
X161000000Y-119750000D03*
X171500000Y-119750000D03*
X164750000Y-119750000D03*
X161750000Y-119750000D03*
X177500000Y-119750000D03*
X164000000Y-121250000D03*
X174500000Y-119750000D03*
X176750000Y-119750000D03*
X161500000Y-121250000D03*
X151500000Y-140800000D03*
X176000000Y-119750000D03*
X167750000Y-119750000D03*
X159000000Y-118250000D03*
X159000000Y-121250000D03*
X175250000Y-119750000D03*
X168500000Y-119750000D03*
X166250000Y-119750000D03*
X167000000Y-119750000D03*
X166500000Y-121250000D03*
X162500000Y-119750000D03*
X173750000Y-119750000D03*
X172250000Y-119750000D03*
X170750000Y-119750000D03*
X173000000Y-119750000D03*
X156500000Y-119750000D03*
X159000000Y-119750000D03*
X156500000Y-118250000D03*
X163250000Y-119750000D03*
X170000000Y-119750000D03*
D46*
X180200000Y-139700000D02*
X179620000Y-140280000D01*
X180200000Y-139000000D02*
X180200000Y-139700000D01*
X179620000Y-140280000D02*
X179620000Y-140300000D01*
X180200000Y-137750000D02*
X180200000Y-139000000D01*
X180450000Y-137500000D02*
X180200000Y-137750000D01*
X173200000Y-145050000D02*
X173950000Y-145050000D01*
X155500000Y-144400000D02*
X155500000Y-143510000D01*
X173950000Y-145050000D02*
X174200000Y-145300000D01*
X175200000Y-145550000D02*
X174450000Y-145550000D01*
X174450000Y-145550000D02*
X174200000Y-145300000D01*
D47*
X181000000Y-146600000D02*
X181000000Y-145450000D01*
D48*
X158475000Y-136325000D02*
X158600000Y-136200000D01*
D47*
X179000000Y-148600000D02*
X181000000Y-146600000D01*
D48*
X160385000Y-137095000D02*
X160500000Y-136980000D01*
X158475000Y-137095000D02*
X158475000Y-136325000D01*
D47*
X179000000Y-149500000D02*
X179000000Y-148600000D01*
D48*
X158475000Y-137095000D02*
X160385000Y-137095000D01*
X186850000Y-141950000D02*
X185500000Y-141950000D01*
X187595000Y-143475000D02*
X187595000Y-142695000D01*
X187595000Y-142695000D02*
X186850000Y-141950000D01*
D46*
X163000000Y-140300000D02*
X163000000Y-138520000D01*
X162980000Y-137720000D02*
X163000000Y-137700000D01*
X162980000Y-138500000D02*
X162980000Y-137720000D01*
X163000000Y-138520000D02*
X162980000Y-138500000D01*
D48*
X187595000Y-138525000D02*
X187595000Y-136455000D01*
X187595000Y-136455000D02*
X188050000Y-136000000D01*
X190135000Y-136185000D02*
X189950000Y-136000000D01*
X190135000Y-138525000D02*
X190135000Y-136185000D01*
X164020000Y-137780000D02*
X164020000Y-138500000D01*
D46*
X171907609Y-145070000D02*
X171900000Y-145070000D01*
D48*
X172420000Y-131460000D02*
X172405000Y-131475000D01*
D46*
X163500000Y-139020000D02*
X163500000Y-140300000D01*
X172370000Y-144600000D02*
X171900000Y-145070000D01*
X173200000Y-145550000D02*
X172387609Y-145550000D01*
X172400000Y-144600000D02*
X172370000Y-144600000D01*
X172420000Y-144550000D02*
X172400000Y-144570000D01*
X164020000Y-138500000D02*
X163500000Y-139020000D01*
X181950000Y-137750000D02*
X183130000Y-137750000D01*
X183130000Y-137750000D02*
X183300000Y-137920000D01*
D48*
X164400000Y-137400000D02*
X164020000Y-137780000D01*
D46*
X173200000Y-144550000D02*
X172420000Y-144550000D01*
X172400000Y-144570000D02*
X172400000Y-144600000D01*
X172387609Y-145550000D02*
X171907609Y-145070000D01*
D48*
X164800000Y-137000000D02*
X164400000Y-137400000D01*
X165490000Y-137000000D02*
X164800000Y-137000000D01*
D46*
X151500000Y-138990000D02*
X151500000Y-138300000D01*
X155480000Y-137720000D02*
X154835000Y-138365000D01*
X151565000Y-138365000D02*
X151500000Y-138300000D01*
X151500000Y-138300000D02*
X151500000Y-137780000D01*
X155480000Y-135500000D02*
X155480000Y-137720000D01*
X154835000Y-138365000D02*
X153525000Y-138365000D01*
X153525000Y-138365000D02*
X151565000Y-138365000D01*
X147625000Y-139050000D02*
X148650000Y-139050000D01*
X151500000Y-136820000D02*
X152020000Y-136820000D01*
X152295000Y-137095000D02*
X153525000Y-137095000D01*
X148650000Y-139050000D02*
X150880000Y-136820000D01*
X152020000Y-136820000D02*
X152295000Y-137095000D01*
X150880000Y-136820000D02*
X151500000Y-136820000D01*
X172330000Y-140930000D02*
X176000000Y-140930000D01*
X170000000Y-138600000D02*
X172330000Y-140930000D01*
X176000000Y-140950000D02*
X176040000Y-140990000D01*
X176000000Y-140930000D02*
X176000000Y-141880000D01*
X166510000Y-137000000D02*
X170000000Y-137000000D01*
X170000000Y-137000000D02*
X170000000Y-138600000D01*
X177790000Y-139910000D02*
X178700000Y-139000000D01*
X176000000Y-139910000D02*
X177790000Y-139910000D01*
X179700000Y-139000000D02*
X178700000Y-139000000D01*
X178960000Y-133450000D02*
X178960000Y-127640000D01*
X176850000Y-138250000D02*
X175700000Y-137100000D01*
X178950000Y-138250000D02*
X176850000Y-138250000D01*
D49*
X171135000Y-132535000D02*
X171135000Y-131475000D01*
X175700000Y-137100000D02*
X171135000Y-132535000D01*
D46*
X181950000Y-137250000D02*
X183250000Y-137250000D01*
X183250000Y-137250000D02*
X183400000Y-137100000D01*
X181200000Y-136000000D02*
X181400000Y-135800000D01*
X164000000Y-149500000D02*
X164000000Y-144700000D01*
X181400000Y-135800000D02*
X181400000Y-134400000D01*
X164500000Y-144700000D02*
X164500000Y-145700000D01*
X166500000Y-147700000D02*
X166500000Y-149500000D01*
X164500000Y-145700000D02*
X166500000Y-147700000D01*
X180700000Y-136000000D02*
X180700000Y-135200000D01*
X169000000Y-146700000D02*
X164000000Y-141700000D01*
X169000000Y-149500000D02*
X169000000Y-146700000D01*
X164000000Y-141700000D02*
X164000000Y-140300000D01*
X181950000Y-136750000D02*
X182750000Y-136750000D01*
X182750000Y-136750000D02*
X183100000Y-136400000D01*
X164500000Y-140400000D02*
X165400000Y-141300000D01*
X164500000Y-140300000D02*
X164500000Y-140400000D01*
X185000000Y-131700000D02*
X188500000Y-131700000D01*
X188500000Y-131700000D02*
X189300000Y-132500000D01*
X189300000Y-132500000D02*
X191000000Y-132500000D01*
X189240000Y-129960000D02*
X188500000Y-130700000D01*
X188500000Y-130700000D02*
X185010000Y-130700000D01*
X191000000Y-129960000D02*
X189240000Y-129960000D01*
D48*
X145900000Y-140800000D02*
X145900000Y-137012500D01*
X145900000Y-137012500D02*
X147000000Y-135912500D01*
X146787500Y-142587500D02*
X145900000Y-141700000D01*
X147500000Y-142587500D02*
X146787500Y-142587500D01*
X147625000Y-140950000D02*
X146050000Y-140950000D01*
X146050000Y-140950000D02*
X145900000Y-140800000D01*
X145900000Y-141700000D02*
X145900000Y-140800000D01*
X147000000Y-134087500D02*
X147000000Y-126300000D01*
X148300000Y-125000000D02*
X151020000Y-125000000D01*
X147000000Y-126300000D02*
X148300000Y-125000000D01*
D46*
X151500000Y-140800000D02*
X151500000Y-140010000D01*
X155500000Y-140400000D02*
X155500000Y-142490000D01*
X154735000Y-139635000D02*
X155500000Y-140400000D01*
X153525000Y-139635000D02*
X154735000Y-139635000D01*
D47*
X182000000Y-119175000D02*
X182000000Y-120987500D01*
D46*
X156500000Y-137000000D02*
X156500000Y-135500000D01*
X157865000Y-138365000D02*
X156500000Y-137000000D01*
X158475000Y-138365000D02*
X157865000Y-138365000D01*
X160565000Y-138365000D02*
X158475000Y-138365000D01*
X162500000Y-140300000D02*
X160565000Y-138365000D01*
X162500000Y-142300000D02*
X159835000Y-139635000D01*
X159835000Y-139635000D02*
X158475000Y-139635000D01*
X162500000Y-144700000D02*
X162500000Y-142300000D01*
X180940000Y-132560000D02*
X180940000Y-133460000D01*
D49*
X178950000Y-135450000D02*
X178950000Y-136750000D01*
D46*
X183980000Y-131700000D02*
X183000000Y-131700000D01*
X182990000Y-131710000D02*
X181790000Y-131710000D01*
X183000000Y-131700000D02*
X182990000Y-131710000D01*
D49*
X180940000Y-133460000D02*
X178950000Y-135450000D01*
D46*
X181790000Y-131710000D02*
X180940000Y-132560000D01*
D49*
X178070000Y-135330000D02*
X178070000Y-137020000D01*
X178070000Y-137020000D02*
X178300000Y-137250000D01*
D46*
X182990000Y-130690000D02*
X181410000Y-130690000D01*
X181410000Y-130690000D02*
X179980000Y-132120000D01*
X183000000Y-130700000D02*
X182990000Y-130690000D01*
X179980000Y-132120000D02*
X179980000Y-133460000D01*
D49*
X179980000Y-133460000D02*
X179940000Y-133460000D01*
X178300000Y-137250000D02*
X178950000Y-137250000D01*
D46*
X183990000Y-130700000D02*
X183000000Y-130700000D01*
D49*
X180100000Y-133580000D02*
X179980000Y-133460000D01*
X179940000Y-133460000D02*
X178070000Y-135330000D01*
D46*
X177080000Y-136980000D02*
X177850000Y-137750000D01*
X177080000Y-133820000D02*
X177080000Y-135660000D01*
X177890000Y-133470000D02*
X177430000Y-133470000D01*
X177430000Y-133470000D02*
X177080000Y-133820000D01*
X177080000Y-135660000D02*
X177080000Y-136980000D01*
X177850000Y-137750000D02*
X178950000Y-137750000D01*
X181200000Y-139780000D02*
X181720000Y-140300000D01*
X181200000Y-139000000D02*
X181200000Y-139780000D01*
X180580000Y-140300000D02*
X180580000Y-141367500D01*
X180700000Y-140180000D02*
X180580000Y-140300000D01*
X180700000Y-139000000D02*
X180700000Y-140180000D01*
X180580000Y-141367500D02*
X180912500Y-141700000D01*
G04 #@! TA.AperFunction,Conductor*
G36*
X175543039Y-143519685D02*
G01*
X175588794Y-143572489D01*
X175600000Y-143624000D01*
X175600000Y-145050500D01*
X175580315Y-145117539D01*
X175527511Y-145163294D01*
X175476000Y-145174500D01*
X174974500Y-145174500D01*
X174907461Y-145154815D01*
X174861706Y-145102011D01*
X174850500Y-145050500D01*
X174850500Y-144675323D01*
X174835966Y-144602259D01*
X174820897Y-144579706D01*
X174800020Y-144513028D01*
X174800000Y-144510817D01*
X174800000Y-143624000D01*
X174819685Y-143556961D01*
X174872489Y-143511206D01*
X174924000Y-143500000D01*
X175476000Y-143500000D01*
X175543039Y-143519685D01*
G37*
G04 #@! TD.AperFunction*
G04 #@! TA.AperFunction,Conductor*
G36*
X179743039Y-144819685D02*
G01*
X179788794Y-144872489D01*
X179800000Y-144924000D01*
X179800000Y-146148637D01*
X179780315Y-146215676D01*
X179763681Y-146236318D01*
X177500000Y-148499999D01*
X177500000Y-150476000D01*
X177480315Y-150543039D01*
X177427511Y-150588794D01*
X177376000Y-150600000D01*
X175624000Y-150600000D01*
X175556961Y-150580315D01*
X175511206Y-150527511D01*
X175500000Y-150476000D01*
X175500000Y-148252791D01*
X175519685Y-148185752D01*
X175538052Y-148163411D01*
X178100000Y-145700000D01*
X178100000Y-144923999D01*
X178119685Y-144856961D01*
X178172489Y-144811206D01*
X178224000Y-144800000D01*
X179676000Y-144800000D01*
X179743039Y-144819685D01*
G37*
G04 #@! TD.AperFunction*
G04 #@! TA.AperFunction,Conductor*
G36*
X154543039Y-140519685D02*
G01*
X154588794Y-140572489D01*
X154600000Y-140624000D01*
X154600000Y-142676000D01*
X154580315Y-142743039D01*
X154527511Y-142788794D01*
X154476000Y-142800000D01*
X152524000Y-142800000D01*
X152456961Y-142780315D01*
X152411206Y-142727511D01*
X152400000Y-142676000D01*
X152400000Y-140624000D01*
X152419685Y-140556961D01*
X152472489Y-140511206D01*
X152524000Y-140500000D01*
X154476000Y-140500000D01*
X154543039Y-140519685D01*
G37*
G04 #@! TD.AperFunction*
G04 #@! TA.AperFunction,Conductor*
G36*
X194143039Y-140919685D02*
G01*
X194188794Y-140972489D01*
X194200000Y-141024000D01*
X194200000Y-144376000D01*
X194180315Y-144443039D01*
X194127511Y-144488794D01*
X194076000Y-144500000D01*
X191224000Y-144500000D01*
X191156961Y-144480315D01*
X191111206Y-144427511D01*
X191100000Y-144376000D01*
X191100000Y-141024000D01*
X191119685Y-140956961D01*
X191172489Y-140911206D01*
X191224000Y-140900000D01*
X194076000Y-140900000D01*
X194143039Y-140919685D01*
G37*
G04 #@! TD.AperFunction*
G04 #@! TA.AperFunction,Conductor*
G36*
X173043039Y-130519685D02*
G01*
X173088794Y-130572489D01*
X173100000Y-130624000D01*
X173100000Y-131100000D01*
X174276000Y-131100000D01*
X174343039Y-131119685D01*
X174388794Y-131172489D01*
X174400000Y-131224000D01*
X174400000Y-132376000D01*
X174380315Y-132443039D01*
X174327511Y-132488794D01*
X174276000Y-132500000D01*
X172224000Y-132500000D01*
X172156961Y-132480315D01*
X172111206Y-132427511D01*
X172100000Y-132376000D01*
X172100000Y-130624000D01*
X172119685Y-130556961D01*
X172172489Y-130511206D01*
X172224000Y-130500000D01*
X172976000Y-130500000D01*
X173043039Y-130519685D01*
G37*
G04 #@! TD.AperFunction*
G04 #@! TA.AperFunction,Conductor*
G36*
X187943039Y-141419685D02*
G01*
X187988794Y-141472489D01*
X188000000Y-141524000D01*
X188000000Y-144376000D01*
X187980315Y-144443039D01*
X187927511Y-144488794D01*
X187876000Y-144500000D01*
X186400000Y-144500000D01*
X186400000Y-146176000D01*
X186380315Y-146243039D01*
X186327511Y-146288794D01*
X186276000Y-146300000D01*
X184600000Y-146300000D01*
X184600000Y-153376000D01*
X184580315Y-153443039D01*
X184527511Y-153488794D01*
X184476000Y-153500000D01*
X183424000Y-153500000D01*
X183356961Y-153480315D01*
X183311206Y-153427511D01*
X183300000Y-153376000D01*
X183300000Y-145124000D01*
X183319685Y-145056961D01*
X183372489Y-145011206D01*
X183424000Y-145000000D01*
X184600000Y-145000000D01*
X184600000Y-141524000D01*
X184619685Y-141456961D01*
X184672489Y-141411206D01*
X184724000Y-141400000D01*
X187876000Y-141400000D01*
X187943039Y-141419685D01*
G37*
G04 #@! TD.AperFunction*
G04 #@! TA.AperFunction,Conductor*
G36*
X183943039Y-141119685D02*
G01*
X183988794Y-141172489D01*
X184000000Y-141224000D01*
X184000000Y-142176000D01*
X183980315Y-142243039D01*
X183927511Y-142288794D01*
X183876000Y-142300000D01*
X182124000Y-142300000D01*
X182056961Y-142280315D01*
X182011206Y-142227511D01*
X182000000Y-142176000D01*
X182000000Y-141224000D01*
X182019685Y-141156961D01*
X182072489Y-141111206D01*
X182124000Y-141100000D01*
X183876000Y-141100000D01*
X183943039Y-141119685D01*
G37*
G04 #@! TD.AperFunction*
G04 #@! TA.AperFunction,Conductor*
G36*
X150243039Y-139719685D02*
G01*
X150288794Y-139772489D01*
X150300000Y-139824000D01*
X150300000Y-141076000D01*
X150280315Y-141143039D01*
X150227511Y-141188794D01*
X150176000Y-141200000D01*
X148824000Y-141200000D01*
X148756961Y-141180315D01*
X148711206Y-141127511D01*
X148700000Y-141076000D01*
X148700000Y-139824000D01*
X148719685Y-139756961D01*
X148772489Y-139711206D01*
X148824000Y-139700000D01*
X150176000Y-139700000D01*
X150243039Y-139719685D01*
G37*
G04 #@! TD.AperFunction*
G04 #@! TA.AperFunction,Conductor*
G36*
X184643039Y-137419685D02*
G01*
X184688794Y-137472489D01*
X184700000Y-137524000D01*
X184700000Y-138276000D01*
X184680315Y-138343039D01*
X184627511Y-138388794D01*
X184576000Y-138400000D01*
X184300000Y-138400000D01*
X183692632Y-138400000D01*
X183636338Y-138386485D01*
X183592175Y-138363983D01*
X183592174Y-138363982D01*
X183592171Y-138363981D01*
X183500735Y-138349500D01*
X183324000Y-138349500D01*
X183256961Y-138329815D01*
X183211206Y-138277011D01*
X183200000Y-138225500D01*
X183200000Y-137744141D01*
X183219685Y-137677102D01*
X183272489Y-137631347D01*
X183308663Y-137621093D01*
X183358626Y-137614866D01*
X183358627Y-137614865D01*
X183358629Y-137614865D01*
X183366141Y-137612628D01*
X183373606Y-137610066D01*
X183373606Y-137610065D01*
X183373610Y-137610065D01*
X183409864Y-137590444D01*
X183459741Y-137577814D01*
X183459590Y-137576762D01*
X183468367Y-137575500D01*
X183599561Y-137536978D01*
X183714589Y-137463055D01*
X183732143Y-137442796D01*
X183790920Y-137405023D01*
X183825855Y-137400000D01*
X184576000Y-137400000D01*
X184643039Y-137419685D01*
G37*
G04 #@! TD.AperFunction*
G04 #@! TA.AperFunction,Conductor*
G36*
X156033327Y-135914356D02*
G01*
X156077676Y-135942855D01*
X156088177Y-135953355D01*
X156121665Y-136014676D01*
X156124500Y-136041040D01*
X156124500Y-136948196D01*
X156121862Y-136973634D01*
X156119633Y-136984268D01*
X156119633Y-136984269D01*
X156119633Y-136984271D01*
X156124023Y-137019491D01*
X156124500Y-137027167D01*
X156124500Y-137031116D01*
X156128342Y-137054141D01*
X156135134Y-137108627D01*
X156137373Y-137116147D01*
X156139934Y-137123608D01*
X156139935Y-137123610D01*
X156151240Y-137144500D01*
X156166055Y-137171877D01*
X156190174Y-137221211D01*
X156194742Y-137227609D01*
X156199582Y-137233827D01*
X156239971Y-137271009D01*
X157213181Y-138244218D01*
X157246666Y-138305541D01*
X157249500Y-138331898D01*
X157249500Y-138546517D01*
X157260089Y-138613375D01*
X157264354Y-138640304D01*
X157321950Y-138753342D01*
X157321952Y-138753344D01*
X157321954Y-138753347D01*
X157411652Y-138843045D01*
X157411654Y-138843046D01*
X157411658Y-138843050D01*
X157502851Y-138889515D01*
X157553647Y-138937490D01*
X157570442Y-139005311D01*
X157547904Y-139071446D01*
X157502852Y-139110484D01*
X157411658Y-139156950D01*
X157411657Y-139156950D01*
X157411657Y-139156951D01*
X157411652Y-139156954D01*
X157321954Y-139246652D01*
X157321951Y-139246657D01*
X157321950Y-139246658D01*
X157315407Y-139259499D01*
X157264352Y-139359698D01*
X157249500Y-139453475D01*
X157249500Y-139816517D01*
X157258868Y-139875664D01*
X157264354Y-139910304D01*
X157321950Y-140023342D01*
X157321952Y-140023344D01*
X157321954Y-140023347D01*
X157411652Y-140113045D01*
X157411654Y-140113046D01*
X157411658Y-140113050D01*
X157515927Y-140166178D01*
X157524698Y-140170647D01*
X157618475Y-140185499D01*
X157618481Y-140185500D01*
X159331518Y-140185499D01*
X159425304Y-140170646D01*
X159538342Y-140113050D01*
X159572496Y-140078895D01*
X159633816Y-140045410D01*
X159703508Y-140050393D01*
X159747858Y-140078895D01*
X162088181Y-142419218D01*
X162121666Y-142480541D01*
X162124500Y-142506899D01*
X162124500Y-143896736D01*
X162112882Y-143949141D01*
X162105742Y-143964452D01*
X162105740Y-143964458D01*
X162099500Y-144011860D01*
X162099500Y-145388132D01*
X162099501Y-145388138D01*
X162105741Y-145435545D01*
X162105742Y-145435547D01*
X162105742Y-145435548D01*
X162149718Y-145529854D01*
X162154253Y-145539579D01*
X162235421Y-145620747D01*
X162339455Y-145669259D01*
X162386861Y-145675500D01*
X162613138Y-145675499D01*
X162660545Y-145669259D01*
X162764579Y-145620747D01*
X162845747Y-145539579D01*
X162894259Y-145435545D01*
X162900500Y-145388139D01*
X162900499Y-144011862D01*
X162894259Y-143964455D01*
X162887118Y-143949141D01*
X162875500Y-143896736D01*
X162875500Y-142351804D01*
X162878139Y-142326359D01*
X162879063Y-142321950D01*
X162880367Y-142315732D01*
X162877343Y-142291470D01*
X162875977Y-142280506D01*
X162875500Y-142272830D01*
X162875500Y-142268889D01*
X162875498Y-142268876D01*
X162874743Y-142264354D01*
X162871657Y-142245859D01*
X162864866Y-142191374D01*
X162864864Y-142191370D01*
X162862622Y-142183840D01*
X162860065Y-142176392D01*
X162860065Y-142176390D01*
X162833944Y-142128122D01*
X162809826Y-142078789D01*
X162809824Y-142078787D01*
X162809824Y-142078786D01*
X162805252Y-142072383D01*
X162800422Y-142066177D01*
X162791182Y-142057671D01*
X162760029Y-142028991D01*
X162484576Y-141753538D01*
X162201226Y-141470187D01*
X162167741Y-141408864D01*
X162172725Y-141339172D01*
X162214597Y-141283239D01*
X162280061Y-141258822D01*
X162329935Y-141268026D01*
X162330350Y-141266605D01*
X162339454Y-141269259D01*
X162339455Y-141269259D01*
X162386861Y-141275500D01*
X162613138Y-141275499D01*
X162660545Y-141269259D01*
X162697595Y-141251981D01*
X162766672Y-141241490D01*
X162802404Y-141251981D01*
X162839455Y-141269259D01*
X162886861Y-141275500D01*
X163113138Y-141275499D01*
X163160545Y-141269259D01*
X163197595Y-141251981D01*
X163266672Y-141241490D01*
X163302404Y-141251981D01*
X163339455Y-141269259D01*
X163386861Y-141275500D01*
X163500500Y-141275499D01*
X163567539Y-141295183D01*
X163613294Y-141347987D01*
X163624500Y-141399499D01*
X163624500Y-141648196D01*
X163621862Y-141673634D01*
X163619633Y-141684268D01*
X163619633Y-141684269D01*
X163619633Y-141684271D01*
X163624023Y-141719491D01*
X163624500Y-141727167D01*
X163624500Y-141731116D01*
X163628342Y-141754141D01*
X163635134Y-141808627D01*
X163637373Y-141816147D01*
X163639934Y-141823608D01*
X163639935Y-141823610D01*
X163657575Y-141856206D01*
X163666055Y-141871877D01*
X163690174Y-141921211D01*
X163694742Y-141927609D01*
X163699582Y-141933827D01*
X163739971Y-141971009D01*
X168588181Y-146819218D01*
X168621666Y-146880541D01*
X168624500Y-146906899D01*
X168624500Y-148256964D01*
X168604815Y-148324003D01*
X168552013Y-148369758D01*
X168447240Y-148417607D01*
X168276052Y-148539509D01*
X168276040Y-148539520D01*
X168131014Y-148691620D01*
X168017388Y-148868425D01*
X167939274Y-149063544D01*
X167919570Y-149165782D01*
X167899500Y-149269915D01*
X167899500Y-149677425D01*
X167914472Y-149834218D01*
X167973684Y-150035875D01*
X168019008Y-150123791D01*
X168069991Y-150222686D01*
X168199905Y-150387883D01*
X168199909Y-150387887D01*
X168358746Y-150525521D01*
X168540750Y-150630601D01*
X168540752Y-150630601D01*
X168540756Y-150630604D01*
X168739367Y-150699344D01*
X168947398Y-150729254D01*
X169157330Y-150719254D01*
X169361576Y-150669704D01*
X169481308Y-150615024D01*
X169552743Y-150582401D01*
X169552746Y-150582399D01*
X169552753Y-150582396D01*
X169723952Y-150460486D01*
X169793179Y-150387883D01*
X169868985Y-150308379D01*
X169891797Y-150272883D01*
X169982613Y-150131572D01*
X170060725Y-149936457D01*
X170100500Y-149730085D01*
X170100500Y-149677425D01*
X170399500Y-149677425D01*
X170414472Y-149834218D01*
X170473684Y-150035875D01*
X170519008Y-150123791D01*
X170569991Y-150222686D01*
X170699905Y-150387883D01*
X170699909Y-150387887D01*
X170858746Y-150525521D01*
X171040750Y-150630601D01*
X171040752Y-150630601D01*
X171040756Y-150630604D01*
X171239367Y-150699344D01*
X171447398Y-150729254D01*
X171657330Y-150719254D01*
X171861576Y-150669704D01*
X171981308Y-150615024D01*
X172052743Y-150582401D01*
X172052746Y-150582399D01*
X172052753Y-150582396D01*
X172223952Y-150460486D01*
X172293179Y-150387883D01*
X172368985Y-150308379D01*
X172391797Y-150272883D01*
X172482613Y-150131572D01*
X172560725Y-149936457D01*
X172600500Y-149730085D01*
X172600500Y-149677425D01*
X172899500Y-149677425D01*
X172914472Y-149834218D01*
X172973684Y-150035875D01*
X173019008Y-150123791D01*
X173069991Y-150222686D01*
X173199905Y-150387883D01*
X173199909Y-150387887D01*
X173358746Y-150525521D01*
X173540750Y-150630601D01*
X173540752Y-150630601D01*
X173540756Y-150630604D01*
X173739367Y-150699344D01*
X173947398Y-150729254D01*
X174157330Y-150719254D01*
X174361576Y-150669704D01*
X174481308Y-150615024D01*
X174552743Y-150582401D01*
X174552746Y-150582399D01*
X174552753Y-150582396D01*
X174723952Y-150460486D01*
X174793179Y-150387883D01*
X174868985Y-150308379D01*
X174891797Y-150272883D01*
X174982613Y-150131572D01*
X175005383Y-150074694D01*
X175048573Y-150019775D01*
X175114600Y-149996922D01*
X175182500Y-150013395D01*
X175230715Y-150063962D01*
X175244500Y-150120782D01*
X175244500Y-150476002D01*
X175250338Y-150530312D01*
X175261543Y-150581817D01*
X175261545Y-150581824D01*
X175265212Y-150595191D01*
X175268779Y-150608193D01*
X175268783Y-150608203D01*
X175318105Y-150694818D01*
X175318111Y-150694827D01*
X175353905Y-150736136D01*
X175363867Y-150747632D01*
X175396641Y-150779257D01*
X175484976Y-150825465D01*
X175484977Y-150825465D01*
X175484977Y-150825466D01*
X175529218Y-150838456D01*
X175552015Y-150845150D01*
X175552019Y-150845150D01*
X175552021Y-150845151D01*
X175563652Y-150846823D01*
X175624000Y-150855500D01*
X175624001Y-150855500D01*
X177376000Y-150855500D01*
X177430313Y-150849661D01*
X177446440Y-150846152D01*
X177481817Y-150838457D01*
X177481817Y-150838456D01*
X177481824Y-150838455D01*
X177508198Y-150831219D01*
X177539546Y-150813368D01*
X177594818Y-150781894D01*
X177594821Y-150781891D01*
X177594828Y-150781888D01*
X177630938Y-150750597D01*
X177647629Y-150736136D01*
X177663919Y-150719254D01*
X177679257Y-150703359D01*
X177725465Y-150615024D01*
X177727470Y-150608198D01*
X177735216Y-150581817D01*
X177745150Y-150547985D01*
X177755500Y-150476000D01*
X177755500Y-150123791D01*
X177775185Y-150056752D01*
X177827989Y-150010997D01*
X177897147Y-150001053D01*
X177960703Y-150030078D01*
X177989714Y-150066970D01*
X178019008Y-150123791D01*
X178069990Y-150222684D01*
X178199905Y-150387883D01*
X178199909Y-150387887D01*
X178358746Y-150525521D01*
X178540750Y-150630601D01*
X178540752Y-150630601D01*
X178540756Y-150630604D01*
X178739367Y-150699344D01*
X178947398Y-150729254D01*
X179157330Y-150719254D01*
X179361576Y-150669704D01*
X179481308Y-150615024D01*
X179552743Y-150582401D01*
X179552746Y-150582399D01*
X179552753Y-150582396D01*
X179723952Y-150460486D01*
X179793179Y-150387883D01*
X179868985Y-150308379D01*
X179891797Y-150272883D01*
X179982613Y-150131572D01*
X180060725Y-149936457D01*
X180100500Y-149730085D01*
X180100500Y-149322575D01*
X180085528Y-149165782D01*
X180026316Y-148964125D01*
X179955863Y-148827465D01*
X179942642Y-148758860D01*
X179968610Y-148693995D01*
X179978391Y-148682974D01*
X181485638Y-147175727D01*
X181499267Y-147163950D01*
X181518530Y-147149610D01*
X181518532Y-147149606D01*
X181518534Y-147149606D01*
X181536663Y-147127999D01*
X181552113Y-147109585D01*
X181555767Y-147105599D01*
X181561589Y-147099778D01*
X181581928Y-147074054D01*
X181587162Y-147067815D01*
X181631302Y-147015214D01*
X181631304Y-147015209D01*
X181635272Y-147009179D01*
X181635323Y-147009212D01*
X181639372Y-147002856D01*
X181639320Y-147002824D01*
X181643112Y-146996675D01*
X181675575Y-146927058D01*
X181710036Y-146858440D01*
X181710040Y-146858433D01*
X181710042Y-146858421D01*
X181712509Y-146851646D01*
X181712567Y-146851667D01*
X181715043Y-146844546D01*
X181714986Y-146844527D01*
X181717255Y-146837678D01*
X181717255Y-146837676D01*
X181717257Y-146837673D01*
X181732788Y-146762449D01*
X181750500Y-146687721D01*
X181750500Y-146687718D01*
X181751339Y-146680548D01*
X181751397Y-146680554D01*
X181752164Y-146673056D01*
X181752104Y-146673051D01*
X181752733Y-146665860D01*
X181750500Y-146589103D01*
X181750500Y-146181034D01*
X181770185Y-146113995D01*
X181800185Y-146081770D01*
X181832546Y-146057546D01*
X181918796Y-145942331D01*
X181969091Y-145807483D01*
X181975500Y-145747873D01*
X181975499Y-145152128D01*
X181969091Y-145092517D01*
X181968843Y-145091853D01*
X181918797Y-144957671D01*
X181918793Y-144957664D01*
X181832547Y-144842455D01*
X181832544Y-144842452D01*
X181717335Y-144756206D01*
X181717328Y-144756202D01*
X181582482Y-144705908D01*
X181582483Y-144705908D01*
X181522883Y-144699501D01*
X181522881Y-144699500D01*
X181522873Y-144699500D01*
X181522865Y-144699500D01*
X181023649Y-144699500D01*
X181020048Y-144699395D01*
X180972739Y-144696640D01*
X180956067Y-144695669D01*
X180956061Y-144695669D01*
X180945012Y-144697617D01*
X180923487Y-144699500D01*
X180477129Y-144699500D01*
X180477123Y-144699501D01*
X180417516Y-144705908D01*
X180282671Y-144756202D01*
X180282668Y-144756204D01*
X180204675Y-144814590D01*
X180139210Y-144839007D01*
X180070937Y-144824155D01*
X180022610Y-144776683D01*
X179981891Y-144705177D01*
X179981888Y-144705172D01*
X179936136Y-144652371D01*
X179903359Y-144620743D01*
X179853799Y-144594818D01*
X179815024Y-144574535D01*
X179815023Y-144574534D01*
X179815022Y-144574534D01*
X179815022Y-144574533D01*
X179747990Y-144554851D01*
X179747978Y-144554848D01*
X179676001Y-144544500D01*
X179676000Y-144544500D01*
X178224000Y-144544500D01*
X178223997Y-144544500D01*
X178169687Y-144550338D01*
X178118183Y-144561543D01*
X178118182Y-144561543D01*
X178118176Y-144561545D01*
X178107177Y-144564562D01*
X178091806Y-144568779D01*
X178091796Y-144568783D01*
X178005181Y-144618105D01*
X178005172Y-144618111D01*
X177952371Y-144663864D01*
X177920743Y-144696640D01*
X177874535Y-144784975D01*
X177854849Y-144852011D01*
X177844500Y-144923998D01*
X177844500Y-145538430D01*
X177824815Y-145605469D01*
X177806445Y-145627813D01*
X175355575Y-147984418D01*
X175349270Y-147991233D01*
X175345432Y-147995383D01*
X175322320Y-148023495D01*
X175320743Y-148025432D01*
X175320741Y-148025435D01*
X175320740Y-148025435D01*
X175274534Y-148113767D01*
X175274533Y-148113768D01*
X175254851Y-148180800D01*
X175254848Y-148180812D01*
X175244500Y-148252789D01*
X175244499Y-148252792D01*
X175244499Y-148876208D01*
X175224814Y-148943248D01*
X175172010Y-148989002D01*
X175102852Y-148998946D01*
X175039296Y-148969921D01*
X175010285Y-148933030D01*
X174930011Y-148777318D01*
X174930007Y-148777313D01*
X174800094Y-148612116D01*
X174800090Y-148612112D01*
X174641253Y-148474478D01*
X174459249Y-148369398D01*
X174459245Y-148369396D01*
X174459244Y-148369396D01*
X174260633Y-148300656D01*
X174052602Y-148270746D01*
X174052598Y-148270746D01*
X173842672Y-148280745D01*
X173638421Y-148330296D01*
X173638417Y-148330298D01*
X173447256Y-148417598D01*
X173447251Y-148417601D01*
X173276046Y-148539515D01*
X173276040Y-148539520D01*
X173131014Y-148691620D01*
X173017388Y-148868425D01*
X172939274Y-149063544D01*
X172919570Y-149165782D01*
X172899500Y-149269915D01*
X172899500Y-149677425D01*
X172600500Y-149677425D01*
X172600500Y-149322575D01*
X172585528Y-149165782D01*
X172526316Y-148964125D01*
X172430011Y-148777318D01*
X172430009Y-148777315D01*
X172430008Y-148777313D01*
X172300094Y-148612116D01*
X172300090Y-148612112D01*
X172141253Y-148474478D01*
X171959249Y-148369398D01*
X171959245Y-148369396D01*
X171959244Y-148369396D01*
X171760633Y-148300656D01*
X171552602Y-148270746D01*
X171552598Y-148270746D01*
X171342672Y-148280745D01*
X171138421Y-148330296D01*
X171138417Y-148330298D01*
X170947256Y-148417598D01*
X170947251Y-148417601D01*
X170776046Y-148539515D01*
X170776040Y-148539520D01*
X170631014Y-148691620D01*
X170517388Y-148868425D01*
X170439274Y-149063544D01*
X170419570Y-149165782D01*
X170399500Y-149269915D01*
X170399500Y-149677425D01*
X170100500Y-149677425D01*
X170100500Y-149322575D01*
X170085528Y-149165782D01*
X170026316Y-148964125D01*
X169930011Y-148777318D01*
X169930009Y-148777315D01*
X169930008Y-148777313D01*
X169800094Y-148612116D01*
X169800090Y-148612112D01*
X169641253Y-148474478D01*
X169459249Y-148369399D01*
X169459247Y-148369398D01*
X169459244Y-148369396D01*
X169459240Y-148369394D01*
X169459231Y-148369390D01*
X169458928Y-148369286D01*
X169458796Y-148369192D01*
X169453867Y-148366941D01*
X169454301Y-148365990D01*
X169402019Y-148328750D01*
X169376060Y-148263882D01*
X169375500Y-148252111D01*
X169375500Y-146751803D01*
X169378139Y-146726358D01*
X169378177Y-146726175D01*
X169380367Y-146715732D01*
X169378325Y-146699353D01*
X169375977Y-146680507D01*
X169375500Y-146672831D01*
X169375500Y-146668889D01*
X169375498Y-146668876D01*
X169371657Y-146645859D01*
X169364866Y-146591376D01*
X169364866Y-146591374D01*
X169364864Y-146591370D01*
X169362622Y-146583840D01*
X169360065Y-146576392D01*
X169360065Y-146576390D01*
X169333944Y-146528122D01*
X169309826Y-146478789D01*
X169309824Y-146478787D01*
X169309824Y-146478786D01*
X169305267Y-146472404D01*
X169300415Y-146466169D01*
X169260029Y-146428992D01*
X168071776Y-145240739D01*
X171339500Y-145240739D01*
X171353981Y-145332170D01*
X171353981Y-145332171D01*
X171353982Y-145332174D01*
X171353983Y-145332175D01*
X171406654Y-145435548D01*
X171410142Y-145442392D01*
X171410145Y-145442396D01*
X171497603Y-145529854D01*
X171497605Y-145529855D01*
X171497609Y-145529859D01*
X171607825Y-145586017D01*
X171607826Y-145586017D01*
X171607828Y-145586018D01*
X171640687Y-145591222D01*
X171699265Y-145600500D01*
X171855708Y-145600499D01*
X171922748Y-145620183D01*
X171943390Y-145636818D01*
X172085458Y-145778886D01*
X172101587Y-145798747D01*
X172107525Y-145807836D01*
X172135538Y-145829639D01*
X172141300Y-145834728D01*
X172144092Y-145837520D01*
X172163095Y-145851088D01*
X172206420Y-145884809D01*
X172206422Y-145884809D01*
X172213344Y-145888555D01*
X172220407Y-145892008D01*
X172220410Y-145892010D01*
X172273021Y-145907673D01*
X172298985Y-145916586D01*
X172324948Y-145925500D01*
X172332710Y-145926795D01*
X172340520Y-145927768D01*
X172340521Y-145927769D01*
X172340521Y-145927768D01*
X172340522Y-145927769D01*
X172367949Y-145926634D01*
X172395378Y-145925500D01*
X172875821Y-145925500D01*
X173231114Y-145925500D01*
X173241104Y-145925500D01*
X173241116Y-145925499D01*
X173524180Y-145925499D01*
X173539372Y-145923499D01*
X173569760Y-145919499D01*
X173669799Y-145872850D01*
X173747850Y-145794799D01*
X173794499Y-145694760D01*
X173800500Y-145649179D01*
X173800499Y-145450822D01*
X173799591Y-145443927D01*
X173796376Y-145419498D01*
X173794499Y-145405240D01*
X173747850Y-145305201D01*
X173669799Y-145227150D01*
X173569760Y-145180501D01*
X173569758Y-145180500D01*
X173524188Y-145174501D01*
X173524185Y-145174500D01*
X173524179Y-145174500D01*
X173524172Y-145174500D01*
X172802894Y-145174500D01*
X172735855Y-145154815D01*
X172690100Y-145102011D01*
X172680156Y-145032853D01*
X172709158Y-144969324D01*
X172710024Y-144968324D01*
X172768791Y-144930533D01*
X172803760Y-144925500D01*
X173241104Y-144925500D01*
X173241116Y-144925499D01*
X173524180Y-144925499D01*
X173539372Y-144923499D01*
X173569760Y-144919499D01*
X173669799Y-144872850D01*
X173747850Y-144794799D01*
X173794499Y-144694760D01*
X173800500Y-144649179D01*
X173800499Y-144511971D01*
X174544500Y-144511971D01*
X174544530Y-144515345D01*
X174556191Y-144589369D01*
X174556192Y-144589373D01*
X174577065Y-144656040D01*
X174577068Y-144656048D01*
X174582856Y-144668144D01*
X174595000Y-144721663D01*
X174595000Y-145050500D01*
X174599145Y-145089060D01*
X174599500Y-145095690D01*
X174599500Y-145149179D01*
X174605500Y-145194756D01*
X174605502Y-145194763D01*
X174626939Y-145240734D01*
X174652150Y-145294799D01*
X174730201Y-145372850D01*
X174830240Y-145419499D01*
X174875821Y-145425500D01*
X174934332Y-145425499D01*
X174951982Y-145426761D01*
X174974498Y-145429999D01*
X174974499Y-145430000D01*
X174974500Y-145430000D01*
X175476000Y-145430000D01*
X175514564Y-145425854D01*
X175521197Y-145425499D01*
X175524180Y-145425499D01*
X175539372Y-145423499D01*
X175569760Y-145419499D01*
X175577113Y-145416069D01*
X175596713Y-145408870D01*
X175599006Y-145408240D01*
X175608198Y-145405719D01*
X175646199Y-145384078D01*
X175650652Y-145381777D01*
X175669799Y-145372850D01*
X175669802Y-145372846D01*
X175678686Y-145366627D01*
X175679158Y-145367301D01*
X175689447Y-145359451D01*
X175694828Y-145356388D01*
X175747632Y-145310633D01*
X175779257Y-145277859D01*
X175825465Y-145189524D01*
X175828115Y-145180501D01*
X175844705Y-145124000D01*
X175845150Y-145122485D01*
X175855500Y-145050500D01*
X175855500Y-143624000D01*
X175849661Y-143569687D01*
X175838455Y-143518176D01*
X175831219Y-143491802D01*
X175827332Y-143484976D01*
X175781894Y-143405181D01*
X175781888Y-143405172D01*
X175736136Y-143352371D01*
X175703359Y-143320743D01*
X175615022Y-143274534D01*
X175615022Y-143274533D01*
X175547990Y-143254851D01*
X175547978Y-143254848D01*
X175476001Y-143244500D01*
X175476000Y-143244500D01*
X174924000Y-143244500D01*
X174923997Y-143244500D01*
X174869687Y-143250338D01*
X174818183Y-143261543D01*
X174818182Y-143261543D01*
X174818176Y-143261545D01*
X174807177Y-143264562D01*
X174791806Y-143268779D01*
X174791796Y-143268783D01*
X174705181Y-143318105D01*
X174705172Y-143318111D01*
X174652371Y-143363864D01*
X174620743Y-143396640D01*
X174574534Y-143484977D01*
X174574533Y-143484977D01*
X174554851Y-143552009D01*
X174554848Y-143552021D01*
X174544500Y-143623998D01*
X174544500Y-144511971D01*
X173800499Y-144511971D01*
X173800499Y-144450822D01*
X173800126Y-144447990D01*
X173796342Y-144419239D01*
X173794499Y-144405240D01*
X173747850Y-144305201D01*
X173669799Y-144227150D01*
X173569760Y-144180501D01*
X173569758Y-144180500D01*
X173524188Y-144174501D01*
X173524185Y-144174500D01*
X173524179Y-144174500D01*
X173524172Y-144174500D01*
X172651669Y-144174500D01*
X172608209Y-144165045D01*
X172608070Y-144165520D01*
X172601433Y-144163571D01*
X172600154Y-144163293D01*
X172599557Y-144163020D01*
X172468368Y-144124500D01*
X172468367Y-144124500D01*
X172331633Y-144124500D01*
X172331632Y-144124500D01*
X172200440Y-144163021D01*
X172085413Y-144236942D01*
X172085409Y-144236946D01*
X171995872Y-144340278D01*
X171995869Y-144340283D01*
X171937993Y-144467012D01*
X171892238Y-144519816D01*
X171825200Y-144539500D01*
X171699260Y-144539500D01*
X171699260Y-144539501D01*
X171607829Y-144553981D01*
X171607828Y-144553981D01*
X171497607Y-144610142D01*
X171497603Y-144610145D01*
X171410145Y-144697603D01*
X171410142Y-144697608D01*
X171410141Y-144697609D01*
X171405912Y-144705909D01*
X171353981Y-144807827D01*
X171353981Y-144807828D01*
X171339500Y-144899264D01*
X171339500Y-145240739D01*
X168071776Y-145240739D01*
X164411819Y-141580781D01*
X164378334Y-141519458D01*
X164375500Y-141493100D01*
X164375500Y-141399499D01*
X164395185Y-141332460D01*
X164447989Y-141286705D01*
X164499497Y-141275499D01*
X164613138Y-141275499D01*
X164660545Y-141269259D01*
X164703028Y-141249448D01*
X164772104Y-141238957D01*
X164835888Y-141267476D01*
X164843113Y-141274150D01*
X164898930Y-141329967D01*
X164932415Y-141391290D01*
X164933987Y-141400000D01*
X164939068Y-141435338D01*
X164939069Y-141435343D01*
X164995869Y-141559716D01*
X164995872Y-141559721D01*
X165085409Y-141663053D01*
X165085413Y-141663057D01*
X165118424Y-141684271D01*
X165200439Y-141736978D01*
X165258891Y-141754141D01*
X165331632Y-141775500D01*
X165331633Y-141775500D01*
X165468367Y-141775500D01*
X165599561Y-141736978D01*
X165714589Y-141663055D01*
X165804130Y-141559718D01*
X165860931Y-141435342D01*
X165880390Y-141300000D01*
X165860931Y-141164658D01*
X165848677Y-141137827D01*
X165804132Y-141040285D01*
X165804127Y-141040278D01*
X165714590Y-140936946D01*
X165714586Y-140936942D01*
X165599559Y-140863020D01*
X165480569Y-140828082D01*
X165427823Y-140796786D01*
X164936818Y-140305780D01*
X164903333Y-140244457D01*
X164900499Y-140218099D01*
X164900499Y-139611867D01*
X164900499Y-139611862D01*
X164894259Y-139564455D01*
X164845747Y-139460421D01*
X164764579Y-139379253D01*
X164660545Y-139330741D01*
X164660543Y-139330740D01*
X164660544Y-139330740D01*
X164613140Y-139324500D01*
X164386868Y-139324500D01*
X164380761Y-139325304D01*
X164339455Y-139330741D01*
X164339453Y-139330742D01*
X164339451Y-139330742D01*
X164302403Y-139348018D01*
X164233325Y-139358509D01*
X164197596Y-139348018D01*
X164160545Y-139330741D01*
X164160541Y-139330740D01*
X164113140Y-139324500D01*
X164025899Y-139324500D01*
X163958860Y-139304815D01*
X163913105Y-139252011D01*
X163903161Y-139182853D01*
X163932186Y-139119297D01*
X163938218Y-139112819D01*
X163954219Y-139096818D01*
X164015542Y-139063333D01*
X164041900Y-139060499D01*
X164190739Y-139060499D01*
X164190739Y-139060498D01*
X164236454Y-139053257D01*
X164282170Y-139046018D01*
X164282171Y-139046018D01*
X164282172Y-139046017D01*
X164282175Y-139046017D01*
X164392391Y-138989859D01*
X164479859Y-138902391D01*
X164536017Y-138792175D01*
X164536017Y-138792173D01*
X164536018Y-138792172D01*
X164536018Y-138792171D01*
X164542167Y-138753347D01*
X164550500Y-138700735D01*
X164550499Y-138299266D01*
X164550499Y-138299264D01*
X164550499Y-138299260D01*
X164536017Y-138207826D01*
X164536017Y-138207824D01*
X164534014Y-138203893D01*
X164520500Y-138147600D01*
X164520500Y-138038675D01*
X164540185Y-137971636D01*
X164556819Y-137950994D01*
X164650331Y-137857483D01*
X164779221Y-137728593D01*
X164970995Y-137536818D01*
X165032318Y-137503334D01*
X165058676Y-137500500D01*
X165093940Y-137500500D01*
X165148400Y-137513100D01*
X165238035Y-137556919D01*
X165243482Y-137559582D01*
X165318418Y-137570500D01*
X165318423Y-137570500D01*
X165661577Y-137570500D01*
X165661582Y-137570500D01*
X165736518Y-137559582D01*
X165812593Y-137522391D01*
X165852099Y-137503078D01*
X165852102Y-137503076D01*
X165912319Y-137442860D01*
X165973642Y-137409375D01*
X166043334Y-137414359D01*
X166087681Y-137442860D01*
X166147897Y-137503076D01*
X166147900Y-137503078D01*
X166258035Y-137556919D01*
X166263482Y-137559582D01*
X166338418Y-137570500D01*
X166338423Y-137570500D01*
X166681577Y-137570500D01*
X166681582Y-137570500D01*
X166756518Y-137559582D01*
X166832593Y-137522391D01*
X166872099Y-137503078D01*
X166872102Y-137503076D01*
X166963360Y-137411819D01*
X167024683Y-137378334D01*
X167051041Y-137375500D01*
X168775501Y-137375500D01*
X168842540Y-137395185D01*
X168888295Y-137447989D01*
X168899501Y-137499500D01*
X168899501Y-137797876D01*
X168905908Y-137857483D01*
X168956202Y-137992328D01*
X168956206Y-137992335D01*
X169042452Y-138107544D01*
X169042455Y-138107547D01*
X169157664Y-138193793D01*
X169157671Y-138193797D01*
X169184740Y-138203893D01*
X169292517Y-138244091D01*
X169352127Y-138250500D01*
X169500500Y-138250499D01*
X169567539Y-138270183D01*
X169613294Y-138322987D01*
X169624500Y-138374499D01*
X169624500Y-138548196D01*
X169621862Y-138573634D01*
X169619633Y-138584268D01*
X169619633Y-138584269D01*
X169619633Y-138584271D01*
X169624023Y-138619491D01*
X169624500Y-138627167D01*
X169624500Y-138631116D01*
X169628342Y-138654141D01*
X169635134Y-138708627D01*
X169637373Y-138716147D01*
X169639934Y-138723608D01*
X169639935Y-138723610D01*
X169659728Y-138760185D01*
X169666055Y-138771877D01*
X169690174Y-138821211D01*
X169694742Y-138827609D01*
X169699582Y-138833827D01*
X169739971Y-138871009D01*
X172027849Y-141158886D01*
X172043977Y-141178745D01*
X172049916Y-141187836D01*
X172076055Y-141208181D01*
X172077929Y-141209639D01*
X172083691Y-141214728D01*
X172086483Y-141217520D01*
X172105486Y-141231088D01*
X172148811Y-141264809D01*
X172148813Y-141264809D01*
X172155735Y-141268555D01*
X172162798Y-141272008D01*
X172162801Y-141272010D01*
X172215412Y-141287673D01*
X172237288Y-141295183D01*
X172267339Y-141305500D01*
X172275101Y-141306795D01*
X172282911Y-141307768D01*
X172282912Y-141307769D01*
X172282912Y-141307768D01*
X172282913Y-141307769D01*
X172310340Y-141306634D01*
X172337769Y-141305500D01*
X175458960Y-141305500D01*
X175525999Y-141325185D01*
X175546641Y-141341819D01*
X175565130Y-141360308D01*
X175598615Y-141421631D01*
X175593631Y-141491323D01*
X175584272Y-141508761D01*
X175584572Y-141508914D01*
X175580142Y-141517607D01*
X175580141Y-141517609D01*
X175566459Y-141544462D01*
X175523981Y-141627827D01*
X175523981Y-141627828D01*
X175509500Y-141719264D01*
X175509500Y-142120739D01*
X175523981Y-142212170D01*
X175523981Y-142212171D01*
X175523982Y-142212174D01*
X175523983Y-142212175D01*
X175579918Y-142321954D01*
X175580142Y-142322392D01*
X175580145Y-142322396D01*
X175667603Y-142409854D01*
X175667605Y-142409855D01*
X175667609Y-142409859D01*
X175777825Y-142466017D01*
X175777826Y-142466017D01*
X175777828Y-142466018D01*
X175812947Y-142471579D01*
X175869265Y-142480500D01*
X176210734Y-142480499D01*
X176210739Y-142480499D01*
X176210739Y-142480498D01*
X176276843Y-142470029D01*
X176302170Y-142466018D01*
X176302171Y-142466018D01*
X176302172Y-142466017D01*
X176302175Y-142466017D01*
X176412391Y-142409859D01*
X176499859Y-142322391D01*
X176556017Y-142212175D01*
X176556017Y-142212173D01*
X176556018Y-142212172D01*
X176556018Y-142212171D01*
X176560567Y-142183447D01*
X176570500Y-142120735D01*
X176570499Y-141719266D01*
X176570499Y-141719264D01*
X176570499Y-141719260D01*
X176556018Y-141627829D01*
X176556018Y-141627828D01*
X176556017Y-141627826D01*
X176556017Y-141627825D01*
X176499859Y-141517609D01*
X176499857Y-141517607D01*
X176499854Y-141517603D01*
X176476395Y-141494144D01*
X176442910Y-141432821D01*
X176447894Y-141363129D01*
X176476393Y-141318784D01*
X176503076Y-141292102D01*
X176559582Y-141176518D01*
X176570500Y-141101582D01*
X176570500Y-140758418D01*
X176559582Y-140683482D01*
X176552394Y-140668779D01*
X176525332Y-140613421D01*
X176513572Y-140544548D01*
X176540916Y-140480251D01*
X176598680Y-140440944D01*
X176668525Y-140439106D01*
X176693025Y-140448476D01*
X176707825Y-140456017D01*
X176707826Y-140456017D01*
X176707828Y-140456018D01*
X176742947Y-140461579D01*
X176799265Y-140470500D01*
X177200734Y-140470499D01*
X177200739Y-140470499D01*
X177200739Y-140470498D01*
X177247604Y-140463076D01*
X177292170Y-140456018D01*
X177292171Y-140456018D01*
X177292172Y-140456017D01*
X177292175Y-140456017D01*
X177402391Y-140399859D01*
X177439174Y-140363076D01*
X177480432Y-140321819D01*
X177541755Y-140288334D01*
X177568113Y-140285500D01*
X177738196Y-140285500D01*
X177763641Y-140288139D01*
X177767440Y-140288935D01*
X177774268Y-140290367D01*
X177795225Y-140287754D01*
X177809492Y-140285977D01*
X177817168Y-140285500D01*
X177821112Y-140285500D01*
X177821114Y-140285500D01*
X177821116Y-140285499D01*
X177821122Y-140285499D01*
X177836487Y-140282934D01*
X177844140Y-140281657D01*
X177898626Y-140274866D01*
X177898627Y-140274865D01*
X177898629Y-140274865D01*
X177906141Y-140272628D01*
X177913606Y-140270066D01*
X177913606Y-140270065D01*
X177913610Y-140270065D01*
X177961877Y-140243944D01*
X178011211Y-140219826D01*
X178011213Y-140219823D01*
X178017594Y-140215268D01*
X178023819Y-140210422D01*
X178023826Y-140210419D01*
X178061008Y-140170028D01*
X178420895Y-139810141D01*
X178819218Y-139411819D01*
X178880541Y-139378334D01*
X178906899Y-139375500D01*
X179187954Y-139375500D01*
X179254993Y-139395185D01*
X179300748Y-139447989D01*
X179309571Y-139475307D01*
X179314032Y-139497737D01*
X179314033Y-139497739D01*
X179325443Y-139514815D01*
X179369399Y-139580601D01*
X179416193Y-139611867D01*
X179452260Y-139635966D01*
X179452264Y-139635967D01*
X179525321Y-139650499D01*
X179525324Y-139650500D01*
X179525326Y-139650500D01*
X179874676Y-139650500D01*
X179874677Y-139650499D01*
X179947740Y-139635966D01*
X180030601Y-139580601D01*
X180085966Y-139497740D01*
X180085966Y-139497739D01*
X180092751Y-139487585D01*
X180093984Y-139488409D01*
X180129278Y-139444610D01*
X180195571Y-139422544D01*
X180263271Y-139439822D01*
X180310883Y-139490958D01*
X180314560Y-139499009D01*
X180315060Y-139500216D01*
X180324500Y-139547672D01*
X180324500Y-139674594D01*
X180304815Y-139741633D01*
X180256797Y-139785078D01*
X180207608Y-139810141D01*
X180207603Y-139810145D01*
X180120145Y-139897603D01*
X180120143Y-139897607D01*
X180120141Y-139897609D01*
X180113674Y-139910302D01*
X180063981Y-140007827D01*
X180063981Y-140007828D01*
X180049500Y-140099264D01*
X180049500Y-140500739D01*
X180063981Y-140592170D01*
X180063981Y-140592171D01*
X180063982Y-140592174D01*
X180063983Y-140592175D01*
X180110506Y-140683482D01*
X180120142Y-140702392D01*
X180120144Y-140702395D01*
X180168180Y-140750430D01*
X180201666Y-140811753D01*
X180204500Y-140838112D01*
X180204500Y-141315696D01*
X180201862Y-141341134D01*
X180199633Y-141351768D01*
X180199633Y-141351769D01*
X180199633Y-141351771D01*
X180204023Y-141386991D01*
X180204500Y-141394667D01*
X180204500Y-141398616D01*
X180208342Y-141421641D01*
X180215134Y-141476127D01*
X180217371Y-141483641D01*
X180217777Y-141484823D01*
X180217845Y-141485236D01*
X180218065Y-141485972D01*
X180217973Y-141485999D01*
X180219277Y-141493811D01*
X180221585Y-141500993D01*
X180221612Y-141501154D01*
X180220533Y-141501334D01*
X180224500Y-141525099D01*
X180224500Y-142001144D01*
X180230509Y-142057024D01*
X180277662Y-142183447D01*
X180277664Y-142183450D01*
X180358528Y-142291472D01*
X180466549Y-142372335D01*
X180466552Y-142372337D01*
X180592246Y-142419218D01*
X180592978Y-142419491D01*
X180622318Y-142422645D01*
X180648855Y-142425499D01*
X180648870Y-142425500D01*
X181176130Y-142425500D01*
X181176144Y-142425499D01*
X181198023Y-142423146D01*
X181232022Y-142419491D01*
X181358450Y-142372336D01*
X181466472Y-142291472D01*
X181534014Y-142201245D01*
X181589947Y-142159374D01*
X181659639Y-142154390D01*
X181720962Y-142187875D01*
X181754447Y-142249197D01*
X181761545Y-142281824D01*
X181764192Y-142291471D01*
X181768779Y-142308193D01*
X181768783Y-142308203D01*
X181818105Y-142394818D01*
X181818111Y-142394827D01*
X181844688Y-142425499D01*
X181863867Y-142447632D01*
X181896641Y-142479257D01*
X181984976Y-142525465D01*
X181984977Y-142525465D01*
X181984977Y-142525466D01*
X182029218Y-142538456D01*
X182052015Y-142545150D01*
X182052019Y-142545150D01*
X182052021Y-142545151D01*
X182063652Y-142546823D01*
X182124000Y-142555500D01*
X182124001Y-142555500D01*
X183876000Y-142555500D01*
X183930313Y-142549661D01*
X183946440Y-142546152D01*
X183981817Y-142538457D01*
X183981817Y-142538456D01*
X183981824Y-142538455D01*
X184008198Y-142531219D01*
X184058017Y-142502850D01*
X184094818Y-142481894D01*
X184094819Y-142481892D01*
X184094828Y-142481888D01*
X184139297Y-142443354D01*
X184202853Y-142414330D01*
X184272011Y-142424274D01*
X184324815Y-142470029D01*
X184344500Y-142537068D01*
X184344500Y-144620500D01*
X184324815Y-144687539D01*
X184272011Y-144733294D01*
X184220500Y-144744500D01*
X183423997Y-144744500D01*
X183369687Y-144750338D01*
X183318183Y-144761543D01*
X183318182Y-144761543D01*
X183318176Y-144761545D01*
X183307177Y-144764562D01*
X183291806Y-144768779D01*
X183291796Y-144768783D01*
X183205181Y-144818105D01*
X183205172Y-144818111D01*
X183152371Y-144863864D01*
X183120743Y-144896640D01*
X183074534Y-144984977D01*
X183074533Y-144984977D01*
X183054851Y-145052009D01*
X183054848Y-145052021D01*
X183044500Y-145123998D01*
X183044500Y-153376002D01*
X183050338Y-153430312D01*
X183061543Y-153481817D01*
X183061545Y-153481824D01*
X183065212Y-153495191D01*
X183068779Y-153508193D01*
X183068783Y-153508203D01*
X183118105Y-153594818D01*
X183118111Y-153594827D01*
X183153905Y-153636136D01*
X183163867Y-153647632D01*
X183196641Y-153679257D01*
X183284976Y-153725465D01*
X183284977Y-153725465D01*
X183284977Y-153725466D01*
X183329218Y-153738456D01*
X183352015Y-153745150D01*
X183352019Y-153745150D01*
X183352021Y-153745151D01*
X183363652Y-153746823D01*
X183424000Y-153755500D01*
X183424001Y-153755500D01*
X184476000Y-153755500D01*
X184530313Y-153749661D01*
X184546440Y-153746152D01*
X184581817Y-153738457D01*
X184581817Y-153738456D01*
X184581824Y-153738455D01*
X184608198Y-153731219D01*
X184637074Y-153714775D01*
X184694818Y-153681894D01*
X184694821Y-153681891D01*
X184694828Y-153681888D01*
X184730938Y-153650597D01*
X184747629Y-153636136D01*
X184747632Y-153636133D01*
X184779257Y-153603359D01*
X184825465Y-153515024D01*
X184827470Y-153508198D01*
X184835216Y-153481817D01*
X184845150Y-153447985D01*
X184855500Y-153376000D01*
X184855500Y-146679499D01*
X184875185Y-146612461D01*
X184927989Y-146566706D01*
X184979500Y-146555500D01*
X186276000Y-146555500D01*
X186330313Y-146549661D01*
X186346440Y-146546152D01*
X186381817Y-146538457D01*
X186381817Y-146538456D01*
X186381824Y-146538455D01*
X186408198Y-146531219D01*
X186437074Y-146514775D01*
X186494818Y-146481894D01*
X186494821Y-146481891D01*
X186494828Y-146481888D01*
X186547632Y-146436133D01*
X186579257Y-146403359D01*
X186625465Y-146315024D01*
X186626299Y-146312186D01*
X186634821Y-146283161D01*
X186645150Y-146247985D01*
X186655500Y-146176000D01*
X186655500Y-144879499D01*
X186675185Y-144812461D01*
X186727989Y-144766706D01*
X186779500Y-144755500D01*
X187876000Y-144755500D01*
X187930313Y-144749661D01*
X187946440Y-144746152D01*
X187981817Y-144738457D01*
X187981817Y-144738456D01*
X187981824Y-144738455D01*
X188008198Y-144731219D01*
X188062144Y-144700500D01*
X188094818Y-144681894D01*
X188094821Y-144681891D01*
X188094828Y-144681888D01*
X188132584Y-144649172D01*
X188147629Y-144636136D01*
X188147632Y-144636133D01*
X188179257Y-144603359D01*
X188194695Y-144573845D01*
X188243206Y-144523570D01*
X188311203Y-144507501D01*
X188377093Y-144530744D01*
X188392249Y-144543642D01*
X188476652Y-144628045D01*
X188476654Y-144628046D01*
X188476658Y-144628050D01*
X188589694Y-144685645D01*
X188589698Y-144685647D01*
X188683475Y-144700499D01*
X188683481Y-144700500D01*
X189046518Y-144700499D01*
X189140304Y-144685646D01*
X189253342Y-144628050D01*
X189343050Y-144538342D01*
X189389516Y-144447145D01*
X189437490Y-144396352D01*
X189505311Y-144379557D01*
X189571445Y-144402094D01*
X189610482Y-144447145D01*
X189653079Y-144530744D01*
X189656951Y-144538343D01*
X189656954Y-144538347D01*
X189746652Y-144628045D01*
X189746654Y-144628046D01*
X189746658Y-144628050D01*
X189859694Y-144685645D01*
X189859698Y-144685647D01*
X189953475Y-144700499D01*
X189953481Y-144700500D01*
X190316518Y-144700499D01*
X190410304Y-144685646D01*
X190523342Y-144628050D01*
X190613050Y-144538342D01*
X190639297Y-144486828D01*
X190687271Y-144436034D01*
X190755092Y-144419239D01*
X190821226Y-144441776D01*
X190864678Y-144496491D01*
X190868028Y-144506380D01*
X190868783Y-144508203D01*
X190918105Y-144594818D01*
X190918111Y-144594827D01*
X190953905Y-144636136D01*
X190963867Y-144647632D01*
X190996641Y-144679257D01*
X191084976Y-144725465D01*
X191084977Y-144725465D01*
X191084977Y-144725466D01*
X191129218Y-144738456D01*
X191152015Y-144745150D01*
X191152019Y-144745150D01*
X191152021Y-144745151D01*
X191163652Y-144746823D01*
X191224000Y-144755500D01*
X191224001Y-144755500D01*
X194076000Y-144755500D01*
X194130313Y-144749661D01*
X194146440Y-144746152D01*
X194181817Y-144738457D01*
X194181817Y-144738456D01*
X194181824Y-144738455D01*
X194208198Y-144731219D01*
X194262144Y-144700500D01*
X194294818Y-144681894D01*
X194294821Y-144681891D01*
X194294828Y-144681888D01*
X194332584Y-144649172D01*
X194347629Y-144636136D01*
X194347632Y-144636133D01*
X194379257Y-144603359D01*
X194425465Y-144515024D01*
X194426362Y-144511971D01*
X194440254Y-144464658D01*
X194445150Y-144447985D01*
X194452761Y-144395043D01*
X194481787Y-144331487D01*
X194540564Y-144293712D01*
X194610434Y-144293712D01*
X194669212Y-144331486D01*
X194698238Y-144395041D01*
X194699500Y-144412689D01*
X194699500Y-150000000D01*
X194681735Y-150406884D01*
X194681263Y-150412275D01*
X194628458Y-150813368D01*
X194627518Y-150818697D01*
X194539952Y-151213680D01*
X194538552Y-151218907D01*
X194416899Y-151604740D01*
X194415048Y-151609825D01*
X194260228Y-151983596D01*
X194257941Y-151988500D01*
X194071139Y-152347342D01*
X194068433Y-152352028D01*
X193851057Y-152693241D01*
X193847953Y-152697674D01*
X193601672Y-153018634D01*
X193598193Y-153022779D01*
X193324877Y-153321051D01*
X193321051Y-153324877D01*
X193022779Y-153598193D01*
X193018634Y-153601672D01*
X192697674Y-153847953D01*
X192693241Y-153851057D01*
X192352028Y-154068433D01*
X192347342Y-154071139D01*
X191988500Y-154257941D01*
X191983596Y-154260228D01*
X191609825Y-154415048D01*
X191604740Y-154416899D01*
X191218907Y-154538552D01*
X191213680Y-154539952D01*
X190818697Y-154627518D01*
X190813368Y-154628458D01*
X190412275Y-154681263D01*
X190406884Y-154681735D01*
X190000000Y-154699500D01*
X150000000Y-154699500D01*
X149593115Y-154681735D01*
X149587724Y-154681263D01*
X149186631Y-154628458D01*
X149181302Y-154627518D01*
X148786319Y-154539952D01*
X148781092Y-154538552D01*
X148395259Y-154416899D01*
X148390174Y-154415048D01*
X148134577Y-154309177D01*
X148016397Y-154260225D01*
X148011507Y-154257945D01*
X147652657Y-154071139D01*
X147647971Y-154068433D01*
X147306758Y-153851057D01*
X147302325Y-153847953D01*
X147181838Y-153755500D01*
X146981363Y-153601671D01*
X146977220Y-153598193D01*
X146678948Y-153324877D01*
X146675122Y-153321051D01*
X146401806Y-153022779D01*
X146398327Y-153018634D01*
X146152046Y-152697674D01*
X146148942Y-152693241D01*
X145931566Y-152352028D01*
X145928860Y-152347342D01*
X145742049Y-151988482D01*
X145739778Y-151983612D01*
X145584951Y-151609825D01*
X145583100Y-151604740D01*
X145554401Y-151513718D01*
X145461443Y-151218892D01*
X145460047Y-151213680D01*
X145372481Y-150818697D01*
X145371543Y-150813381D01*
X145318734Y-150412257D01*
X145318265Y-150406905D01*
X145312413Y-150272870D01*
X157899500Y-150272870D01*
X157899501Y-150272876D01*
X157905908Y-150332483D01*
X157956202Y-150467328D01*
X157956206Y-150467335D01*
X158042452Y-150582544D01*
X158042455Y-150582547D01*
X158157664Y-150668793D01*
X158157671Y-150668797D01*
X158292517Y-150719091D01*
X158292516Y-150719091D01*
X158299444Y-150719835D01*
X158352127Y-150725500D01*
X159647872Y-150725499D01*
X159707483Y-150719091D01*
X159842331Y-150668796D01*
X159957546Y-150582546D01*
X160043796Y-150467331D01*
X160094091Y-150332483D01*
X160100500Y-150272873D01*
X160100500Y-149677425D01*
X160399500Y-149677425D01*
X160414472Y-149834218D01*
X160473684Y-150035875D01*
X160519008Y-150123791D01*
X160569991Y-150222686D01*
X160699905Y-150387883D01*
X160699909Y-150387887D01*
X160858746Y-150525521D01*
X161040750Y-150630601D01*
X161040752Y-150630601D01*
X161040756Y-150630604D01*
X161239367Y-150699344D01*
X161447398Y-150729254D01*
X161657330Y-150719254D01*
X161861576Y-150669704D01*
X161981308Y-150615024D01*
X162052743Y-150582401D01*
X162052746Y-150582399D01*
X162052753Y-150582396D01*
X162223952Y-150460486D01*
X162293179Y-150387883D01*
X162368985Y-150308379D01*
X162391797Y-150272883D01*
X162482613Y-150131572D01*
X162560725Y-149936457D01*
X162600500Y-149730085D01*
X162600500Y-149677425D01*
X162899500Y-149677425D01*
X162914472Y-149834218D01*
X162973684Y-150035875D01*
X163019008Y-150123791D01*
X163069991Y-150222686D01*
X163199905Y-150387883D01*
X163199909Y-150387887D01*
X163358746Y-150525521D01*
X163540750Y-150630601D01*
X163540752Y-150630601D01*
X163540756Y-150630604D01*
X163739367Y-150699344D01*
X163947398Y-150729254D01*
X164157330Y-150719254D01*
X164361576Y-150669704D01*
X164481308Y-150615024D01*
X164552743Y-150582401D01*
X164552746Y-150582399D01*
X164552753Y-150582396D01*
X164723952Y-150460486D01*
X164793179Y-150387883D01*
X164868985Y-150308379D01*
X164891797Y-150272883D01*
X164982613Y-150131572D01*
X165060725Y-149936457D01*
X165100500Y-149730085D01*
X165100500Y-149322575D01*
X165085528Y-149165782D01*
X165026316Y-148964125D01*
X164930011Y-148777318D01*
X164930009Y-148777315D01*
X164930008Y-148777313D01*
X164800094Y-148612116D01*
X164800090Y-148612112D01*
X164641253Y-148474478D01*
X164459249Y-148369399D01*
X164459247Y-148369398D01*
X164459244Y-148369396D01*
X164459240Y-148369394D01*
X164459231Y-148369390D01*
X164458928Y-148369286D01*
X164458796Y-148369192D01*
X164453867Y-148366941D01*
X164454301Y-148365990D01*
X164402019Y-148328750D01*
X164376060Y-148263882D01*
X164375500Y-148252111D01*
X164375500Y-146405899D01*
X164395185Y-146338860D01*
X164447989Y-146293105D01*
X164517147Y-146283161D01*
X164580703Y-146312186D01*
X164587181Y-146318218D01*
X166088181Y-147819218D01*
X166121666Y-147880541D01*
X166124500Y-147906899D01*
X166124500Y-148256964D01*
X166104815Y-148324003D01*
X166052013Y-148369758D01*
X165947240Y-148417607D01*
X165776052Y-148539509D01*
X165776040Y-148539520D01*
X165631014Y-148691620D01*
X165517388Y-148868425D01*
X165439274Y-149063544D01*
X165419570Y-149165782D01*
X165399500Y-149269915D01*
X165399500Y-149677425D01*
X165414472Y-149834218D01*
X165473684Y-150035875D01*
X165519008Y-150123791D01*
X165569991Y-150222686D01*
X165699905Y-150387883D01*
X165699909Y-150387887D01*
X165858746Y-150525521D01*
X166040750Y-150630601D01*
X166040752Y-150630601D01*
X166040756Y-150630604D01*
X166239367Y-150699344D01*
X166447398Y-150729254D01*
X166657330Y-150719254D01*
X166861576Y-150669704D01*
X166981308Y-150615024D01*
X167052743Y-150582401D01*
X167052746Y-150582399D01*
X167052753Y-150582396D01*
X167223952Y-150460486D01*
X167293179Y-150387883D01*
X167368985Y-150308379D01*
X167391797Y-150272883D01*
X167482613Y-150131572D01*
X167560725Y-149936457D01*
X167600500Y-149730085D01*
X167600500Y-149322575D01*
X167585528Y-149165782D01*
X167526316Y-148964125D01*
X167430011Y-148777318D01*
X167430009Y-148777315D01*
X167430008Y-148777313D01*
X167300094Y-148612116D01*
X167300090Y-148612112D01*
X167141253Y-148474478D01*
X166959249Y-148369399D01*
X166959247Y-148369398D01*
X166959244Y-148369396D01*
X166959240Y-148369394D01*
X166959231Y-148369390D01*
X166958928Y-148369286D01*
X166958796Y-148369192D01*
X166953867Y-148366941D01*
X166954301Y-148365990D01*
X166902019Y-148328750D01*
X166876060Y-148263882D01*
X166875500Y-148252111D01*
X166875500Y-147751804D01*
X166878139Y-147726359D01*
X166878785Y-147723275D01*
X166880367Y-147715732D01*
X166878498Y-147700740D01*
X166875977Y-147680506D01*
X166875500Y-147672830D01*
X166875500Y-147668889D01*
X166875498Y-147668876D01*
X166871657Y-147645859D01*
X166864866Y-147591376D01*
X166864866Y-147591374D01*
X166864864Y-147591370D01*
X166862622Y-147583840D01*
X166860065Y-147576392D01*
X166860065Y-147576390D01*
X166833944Y-147528122D01*
X166809826Y-147478789D01*
X166809824Y-147478787D01*
X166809824Y-147478786D01*
X166805276Y-147472416D01*
X166800420Y-147466176D01*
X166800419Y-147466174D01*
X166760029Y-147428992D01*
X164915051Y-145584013D01*
X164881566Y-145522690D01*
X164886550Y-145452998D01*
X164890350Y-145443927D01*
X164891066Y-145442392D01*
X164894259Y-145435545D01*
X164900500Y-145388139D01*
X164900499Y-144011862D01*
X164894259Y-143964455D01*
X164845747Y-143860421D01*
X164764579Y-143779253D01*
X164660545Y-143730741D01*
X164660543Y-143730740D01*
X164660544Y-143730740D01*
X164613140Y-143724500D01*
X164386868Y-143724500D01*
X164376341Y-143725885D01*
X164339455Y-143730741D01*
X164339453Y-143730742D01*
X164339451Y-143730742D01*
X164302403Y-143748018D01*
X164233325Y-143758509D01*
X164197596Y-143748018D01*
X164160545Y-143730741D01*
X164160541Y-143730740D01*
X164113140Y-143724500D01*
X163886867Y-143724500D01*
X163871839Y-143726478D01*
X163839455Y-143730741D01*
X163839453Y-143730742D01*
X163839451Y-143730742D01*
X163735420Y-143779253D01*
X163654253Y-143860420D01*
X163605740Y-143964456D01*
X163599500Y-144011860D01*
X163599500Y-145388132D01*
X163599501Y-145388138D01*
X163605741Y-145435545D01*
X163605741Y-145435546D01*
X163605742Y-145435548D01*
X163612881Y-145450857D01*
X163624500Y-145503264D01*
X163624500Y-148256964D01*
X163604815Y-148324003D01*
X163552013Y-148369758D01*
X163447240Y-148417607D01*
X163276052Y-148539509D01*
X163276040Y-148539520D01*
X163131014Y-148691620D01*
X163017388Y-148868425D01*
X162939274Y-149063544D01*
X162919570Y-149165782D01*
X162899500Y-149269915D01*
X162899500Y-149677425D01*
X162600500Y-149677425D01*
X162600500Y-149322575D01*
X162585528Y-149165782D01*
X162526316Y-148964125D01*
X162430011Y-148777318D01*
X162430009Y-148777315D01*
X162430008Y-148777313D01*
X162300094Y-148612116D01*
X162300090Y-148612112D01*
X162141253Y-148474478D01*
X161959249Y-148369398D01*
X161959245Y-148369396D01*
X161959244Y-148369396D01*
X161760633Y-148300656D01*
X161552602Y-148270746D01*
X161552598Y-148270746D01*
X161342672Y-148280745D01*
X161138421Y-148330296D01*
X161138417Y-148330298D01*
X160947256Y-148417598D01*
X160947251Y-148417601D01*
X160776046Y-148539515D01*
X160776040Y-148539520D01*
X160631014Y-148691620D01*
X160517388Y-148868425D01*
X160439274Y-149063544D01*
X160419570Y-149165782D01*
X160399500Y-149269915D01*
X160399500Y-149677425D01*
X160100500Y-149677425D01*
X160100499Y-148727128D01*
X160094091Y-148667517D01*
X160073426Y-148612112D01*
X160043797Y-148532671D01*
X160043793Y-148532664D01*
X159957547Y-148417455D01*
X159957544Y-148417452D01*
X159842335Y-148331206D01*
X159842328Y-148331202D01*
X159707482Y-148280908D01*
X159707483Y-148280908D01*
X159647883Y-148274501D01*
X159647881Y-148274500D01*
X159647873Y-148274500D01*
X159647864Y-148274500D01*
X158352129Y-148274500D01*
X158352123Y-148274501D01*
X158292516Y-148280908D01*
X158157671Y-148331202D01*
X158157664Y-148331206D01*
X158042455Y-148417452D01*
X158042452Y-148417455D01*
X157956206Y-148532664D01*
X157956202Y-148532671D01*
X157905908Y-148667517D01*
X157903062Y-148693995D01*
X157899501Y-148727123D01*
X157899500Y-148727135D01*
X157899500Y-150272870D01*
X145312413Y-150272870D01*
X145300500Y-150000000D01*
X145300500Y-149952405D01*
X145300500Y-149952404D01*
X145300500Y-142106834D01*
X145320185Y-142039795D01*
X145372989Y-141994040D01*
X145442147Y-141984096D01*
X145505703Y-142013121D01*
X145518219Y-142025638D01*
X145520780Y-142028594D01*
X145531886Y-142039700D01*
X145534896Y-142042932D01*
X145560415Y-142072383D01*
X145568871Y-142082142D01*
X145568874Y-142082145D01*
X145572928Y-142084750D01*
X145593571Y-142101385D01*
X146386114Y-142893928D01*
X146402746Y-142914566D01*
X146405354Y-142918625D01*
X146405357Y-142918628D01*
X146444567Y-142952603D01*
X146447783Y-142955597D01*
X146458907Y-142966721D01*
X146458912Y-142966724D01*
X146458917Y-142966729D01*
X146471479Y-142976133D01*
X146474927Y-142978911D01*
X146499266Y-143000000D01*
X146514127Y-143012877D01*
X146518510Y-143014879D01*
X146541307Y-143028405D01*
X146545169Y-143031296D01*
X146545170Y-143031296D01*
X146545171Y-143031297D01*
X146552690Y-143034101D01*
X146581332Y-143044783D01*
X146637265Y-143086651D01*
X146661684Y-143152115D01*
X146662000Y-143160964D01*
X146662000Y-143247869D01*
X146662001Y-143247876D01*
X146668408Y-143307483D01*
X146718702Y-143442328D01*
X146718706Y-143442335D01*
X146804952Y-143557544D01*
X146804955Y-143557547D01*
X146920164Y-143643793D01*
X146920171Y-143643797D01*
X146965118Y-143660561D01*
X147055017Y-143694091D01*
X147114627Y-143700500D01*
X147735372Y-143700499D01*
X147794983Y-143694091D01*
X147929831Y-143643796D01*
X148045046Y-143557546D01*
X148131296Y-143442331D01*
X148181591Y-143307483D01*
X148188000Y-143247873D01*
X148187999Y-142252128D01*
X148181591Y-142192517D01*
X148181165Y-142191376D01*
X148131297Y-142057671D01*
X148131293Y-142057664D01*
X148045047Y-141942455D01*
X148045044Y-141942452D01*
X147929835Y-141856206D01*
X147929828Y-141856202D01*
X147794986Y-141805910D01*
X147794985Y-141805909D01*
X147794983Y-141805909D01*
X147735373Y-141799500D01*
X147735363Y-141799500D01*
X147114629Y-141799500D01*
X147114623Y-141799501D01*
X147055016Y-141805908D01*
X146920171Y-141856202D01*
X146920163Y-141856207D01*
X146916877Y-141858667D01*
X146913033Y-141860100D01*
X146912386Y-141860454D01*
X146912335Y-141860360D01*
X146851411Y-141883081D01*
X146783139Y-141868225D01*
X146754891Y-141847077D01*
X146569995Y-141662181D01*
X146536510Y-141600858D01*
X146541494Y-141531166D01*
X146583366Y-141475233D01*
X146648830Y-141450816D01*
X146657676Y-141450500D01*
X146813448Y-141450500D01*
X146869742Y-141464015D01*
X146912198Y-141485647D01*
X147005975Y-141500499D01*
X147005981Y-141500500D01*
X148244018Y-141500499D01*
X148337804Y-141485646D01*
X148450842Y-141428050D01*
X148468526Y-141410365D01*
X148529844Y-141376881D01*
X148599536Y-141381862D01*
X148613668Y-141388164D01*
X148684976Y-141425465D01*
X148684978Y-141425465D01*
X148684979Y-141425466D01*
X148704572Y-141431219D01*
X148752015Y-141445150D01*
X148752019Y-141445150D01*
X148752021Y-141445151D01*
X148763652Y-141446823D01*
X148824000Y-141455500D01*
X148824001Y-141455500D01*
X150176000Y-141455500D01*
X150230313Y-141449661D01*
X150246440Y-141446152D01*
X150281817Y-141438457D01*
X150281817Y-141438456D01*
X150281824Y-141438455D01*
X150308198Y-141431219D01*
X150363022Y-141400000D01*
X150394818Y-141381894D01*
X150394821Y-141381891D01*
X150394828Y-141381888D01*
X150433952Y-141347987D01*
X150447629Y-141336136D01*
X150458196Y-141325185D01*
X150479257Y-141303359D01*
X150525465Y-141215024D01*
X150527047Y-141209639D01*
X150537354Y-141174534D01*
X150545150Y-141147985D01*
X150555500Y-141076000D01*
X150555500Y-139824000D01*
X150549661Y-139769687D01*
X150546244Y-139753981D01*
X150538457Y-139718183D01*
X150538456Y-139718182D01*
X150538455Y-139718176D01*
X150531219Y-139691802D01*
X150523387Y-139678048D01*
X150481894Y-139605181D01*
X150481888Y-139605172D01*
X150436136Y-139552371D01*
X150431499Y-139547897D01*
X150403359Y-139520743D01*
X150315024Y-139474535D01*
X150315023Y-139474534D01*
X150315022Y-139474534D01*
X150315022Y-139474533D01*
X150247990Y-139454851D01*
X150247978Y-139454848D01*
X150176001Y-139444500D01*
X150176000Y-139444500D01*
X149085898Y-139444500D01*
X149018859Y-139424815D01*
X148973104Y-139372011D01*
X148963160Y-139302853D01*
X148992185Y-139239297D01*
X148998217Y-139232819D01*
X149856537Y-138374499D01*
X150729441Y-137501594D01*
X150790762Y-137468111D01*
X150860454Y-137473095D01*
X150916387Y-137514967D01*
X150940804Y-137580431D01*
X150939777Y-137604405D01*
X150939882Y-137604414D01*
X150939651Y-137607338D01*
X150939595Y-137608662D01*
X150939500Y-137609259D01*
X150939500Y-137950739D01*
X150953981Y-138042170D01*
X150953981Y-138042171D01*
X150953982Y-138042174D01*
X150953983Y-138042175D01*
X151010141Y-138152391D01*
X151086344Y-138228594D01*
X151119828Y-138289915D01*
X151121709Y-138300930D01*
X151124023Y-138319486D01*
X151124500Y-138327166D01*
X151124500Y-138448959D01*
X151104815Y-138515998D01*
X151088181Y-138536640D01*
X150996923Y-138627897D01*
X150996921Y-138627900D01*
X150940419Y-138743478D01*
X150940418Y-138743480D01*
X150940418Y-138743482D01*
X150929500Y-138818418D01*
X150929500Y-139161582D01*
X150940418Y-139236518D01*
X150940418Y-139236519D01*
X150940419Y-139236521D01*
X150996921Y-139352099D01*
X150996923Y-139352102D01*
X151057140Y-139412319D01*
X151090625Y-139473642D01*
X151085641Y-139543334D01*
X151057140Y-139587681D01*
X150996923Y-139647897D01*
X150996921Y-139647900D01*
X150940419Y-139763478D01*
X150940418Y-139763480D01*
X150940418Y-139763482D01*
X150929500Y-139838418D01*
X150929500Y-140181582D01*
X150940418Y-140256518D01*
X150940418Y-140256519D01*
X150940419Y-140256521D01*
X150996921Y-140372099D01*
X150996923Y-140372101D01*
X150996924Y-140372102D01*
X151056698Y-140431876D01*
X151090182Y-140493197D01*
X151085198Y-140562889D01*
X151081811Y-140571067D01*
X151039068Y-140664660D01*
X151039068Y-140664662D01*
X151019610Y-140800000D01*
X151039068Y-140935337D01*
X151039070Y-140935345D01*
X151095867Y-141059714D01*
X151095872Y-141059721D01*
X151185409Y-141163053D01*
X151185413Y-141163057D01*
X151242033Y-141199443D01*
X151300439Y-141236978D01*
X151351538Y-141251982D01*
X151431632Y-141275500D01*
X151431633Y-141275500D01*
X151568367Y-141275500D01*
X151699561Y-141236978D01*
X151814589Y-141163055D01*
X151904130Y-141059718D01*
X151907704Y-141051890D01*
X151953459Y-140999085D01*
X152020498Y-140979399D01*
X152087537Y-140999082D01*
X152133293Y-141051885D01*
X152144500Y-141103399D01*
X152144500Y-142676002D01*
X152150338Y-142730312D01*
X152154183Y-142747985D01*
X152161545Y-142781824D01*
X152165212Y-142795191D01*
X152168779Y-142808193D01*
X152168783Y-142808203D01*
X152218105Y-142894818D01*
X152218111Y-142894827D01*
X152253905Y-142936136D01*
X152263867Y-142947632D01*
X152296641Y-142979257D01*
X152384976Y-143025465D01*
X152384977Y-143025465D01*
X152384977Y-143025466D01*
X152429218Y-143038456D01*
X152452015Y-143045150D01*
X152452019Y-143045150D01*
X152452021Y-143045151D01*
X152463652Y-143046823D01*
X152524000Y-143055500D01*
X152524001Y-143055500D01*
X154476000Y-143055500D01*
X154530313Y-143049661D01*
X154546440Y-143046152D01*
X154581817Y-143038457D01*
X154581817Y-143038456D01*
X154581824Y-143038455D01*
X154608198Y-143031219D01*
X154684116Y-142987988D01*
X154694818Y-142981894D01*
X154694821Y-142981891D01*
X154694828Y-142981888D01*
X154730938Y-142950597D01*
X154747629Y-142936136D01*
X154785416Y-142896976D01*
X154787678Y-142899159D01*
X154830579Y-142865821D01*
X154900170Y-142859581D01*
X154962086Y-142891955D01*
X154996671Y-142952665D01*
X155000000Y-142981203D01*
X155000000Y-143000000D01*
X155000000Y-144750000D01*
X155999999Y-144750000D01*
X156000000Y-144750000D01*
X156000000Y-143000000D01*
X156000000Y-142987988D01*
X155980963Y-142953125D01*
X155985947Y-142883433D01*
X156001214Y-142854711D01*
X156003078Y-142852100D01*
X156053976Y-142747985D01*
X156059582Y-142736518D01*
X156070500Y-142661582D01*
X156070500Y-142318418D01*
X156059582Y-142243482D01*
X156044277Y-142212175D01*
X156003078Y-142127900D01*
X156003076Y-142127897D01*
X155911819Y-142036640D01*
X155878334Y-141975317D01*
X155875500Y-141948959D01*
X155875500Y-140451803D01*
X155878139Y-140426358D01*
X155879472Y-140420000D01*
X155880367Y-140415731D01*
X155876069Y-140381250D01*
X155875977Y-140380508D01*
X155875500Y-140372832D01*
X155875500Y-140368889D01*
X155875499Y-140368883D01*
X155871655Y-140345846D01*
X155864865Y-140291373D01*
X155862617Y-140283827D01*
X155860065Y-140276390D01*
X155833942Y-140228119D01*
X155829886Y-140219823D01*
X155809826Y-140178788D01*
X155809823Y-140178785D01*
X155809823Y-140178784D01*
X155805267Y-140172402D01*
X155800423Y-140166178D01*
X155789933Y-140156521D01*
X155760041Y-140129003D01*
X155037149Y-139406111D01*
X155021022Y-139386252D01*
X155015086Y-139377167D01*
X155015083Y-139377163D01*
X154987074Y-139355363D01*
X154981310Y-139350272D01*
X154978515Y-139347477D01*
X154959505Y-139333906D01*
X154916189Y-139300190D01*
X154909274Y-139296448D01*
X154902200Y-139292990D01*
X154849596Y-139277329D01*
X154797658Y-139259499D01*
X154789923Y-139258208D01*
X154782085Y-139257231D01*
X154746680Y-139258696D01*
X154678884Y-139241799D01*
X154653878Y-139222486D01*
X154588342Y-139156950D01*
X154585599Y-139155552D01*
X154497147Y-139110483D01*
X154446352Y-139062509D01*
X154429557Y-138994687D01*
X154452095Y-138928553D01*
X154497145Y-138889517D01*
X154588342Y-138843050D01*
X154654574Y-138776817D01*
X154715895Y-138743334D01*
X154742254Y-138740500D01*
X154783196Y-138740500D01*
X154808641Y-138743139D01*
X154812440Y-138743935D01*
X154819268Y-138745367D01*
X154840225Y-138742754D01*
X154854492Y-138740977D01*
X154862168Y-138740500D01*
X154866112Y-138740500D01*
X154866114Y-138740500D01*
X154866116Y-138740499D01*
X154866122Y-138740499D01*
X154881487Y-138737934D01*
X154889140Y-138736657D01*
X154943626Y-138729866D01*
X154943627Y-138729865D01*
X154943629Y-138729865D01*
X154951141Y-138727628D01*
X154958606Y-138725066D01*
X154958606Y-138725065D01*
X154958610Y-138725065D01*
X155006877Y-138698944D01*
X155056211Y-138674826D01*
X155056213Y-138674823D01*
X155062594Y-138670268D01*
X155068819Y-138665422D01*
X155068826Y-138665419D01*
X155106008Y-138625028D01*
X155708889Y-138022146D01*
X155728746Y-138006022D01*
X155737836Y-138000084D01*
X155759651Y-137972054D01*
X155764719Y-137966316D01*
X155767520Y-137963517D01*
X155781088Y-137944513D01*
X155814809Y-137901189D01*
X155814810Y-137901183D01*
X155818542Y-137894289D01*
X155822003Y-137887207D01*
X155822010Y-137887199D01*
X155837670Y-137834596D01*
X155855500Y-137782660D01*
X155855500Y-137782655D01*
X155856790Y-137774924D01*
X155857768Y-137767085D01*
X155855500Y-137712244D01*
X155855500Y-136041040D01*
X155875185Y-135974001D01*
X155891815Y-135953363D01*
X155896733Y-135948444D01*
X155902315Y-135942862D01*
X155963635Y-135909375D01*
X156033327Y-135914356D01*
G37*
G04 #@! TD.AperFunction*
G04 #@! TA.AperFunction,Conductor*
G36*
X189233584Y-127798582D02*
G01*
X189284976Y-127825465D01*
X189284977Y-127825466D01*
X189335105Y-127840184D01*
X189352015Y-127845150D01*
X189352019Y-127845150D01*
X189352021Y-127845151D01*
X189363652Y-127846823D01*
X189424000Y-127855500D01*
X189424001Y-127855500D01*
X194575500Y-127855500D01*
X194642539Y-127875185D01*
X194688294Y-127927989D01*
X194699500Y-127979500D01*
X194699500Y-140980142D01*
X194679815Y-141047181D01*
X194627011Y-141092936D01*
X194557853Y-141102880D01*
X194494297Y-141073855D01*
X194456523Y-141015077D01*
X194452210Y-140993397D01*
X194452151Y-140992848D01*
X194449661Y-140969687D01*
X194441677Y-140932987D01*
X194438457Y-140918183D01*
X194438456Y-140918182D01*
X194438455Y-140918176D01*
X194431219Y-140891802D01*
X194431216Y-140891796D01*
X194381894Y-140805181D01*
X194381888Y-140805172D01*
X194336136Y-140752371D01*
X194334124Y-140750430D01*
X194303359Y-140720743D01*
X194215024Y-140674535D01*
X194215023Y-140674534D01*
X194215022Y-140674534D01*
X194215022Y-140674533D01*
X194147990Y-140654851D01*
X194147978Y-140654848D01*
X194076001Y-140644500D01*
X194076000Y-140644500D01*
X191224000Y-140644500D01*
X191223997Y-140644500D01*
X191169687Y-140650338D01*
X191118183Y-140661543D01*
X191118182Y-140661543D01*
X191118176Y-140661545D01*
X191108481Y-140664205D01*
X191091806Y-140668779D01*
X191091796Y-140668783D01*
X191005181Y-140718105D01*
X191005172Y-140718111D01*
X190952371Y-140763864D01*
X190920743Y-140796640D01*
X190874534Y-140884977D01*
X190874533Y-140884977D01*
X190854851Y-140952009D01*
X190854848Y-140952021D01*
X190844500Y-141023998D01*
X190844500Y-142349407D01*
X190824815Y-142416446D01*
X190772011Y-142462201D01*
X190702853Y-142472145D01*
X190639297Y-142443120D01*
X190620100Y-142418592D01*
X190618783Y-142419550D01*
X190613051Y-142411660D01*
X190613050Y-142411658D01*
X190613047Y-142411655D01*
X190613045Y-142411652D01*
X190523347Y-142321954D01*
X190523344Y-142321952D01*
X190523342Y-142321950D01*
X190434507Y-142276686D01*
X190410301Y-142264352D01*
X190316524Y-142249500D01*
X189953482Y-142249500D01*
X189872519Y-142262323D01*
X189859696Y-142264354D01*
X189746658Y-142321950D01*
X189746657Y-142321950D01*
X189746657Y-142321951D01*
X189746652Y-142321954D01*
X189656954Y-142411652D01*
X189656949Y-142411659D01*
X189610483Y-142502852D01*
X189562508Y-142553648D01*
X189494687Y-142570442D01*
X189428552Y-142547904D01*
X189389516Y-142502852D01*
X189343050Y-142411658D01*
X189343047Y-142411655D01*
X189343045Y-142411652D01*
X189253347Y-142321954D01*
X189253344Y-142321952D01*
X189253342Y-142321950D01*
X189164507Y-142276686D01*
X189140301Y-142264352D01*
X189046524Y-142249500D01*
X188683482Y-142249500D01*
X188602519Y-142262323D01*
X188589696Y-142264354D01*
X188476658Y-142321950D01*
X188476657Y-142321950D01*
X188476657Y-142321951D01*
X188476652Y-142321954D01*
X188467181Y-142331426D01*
X188405858Y-142364911D01*
X188336166Y-142359927D01*
X188280233Y-142318055D01*
X188255816Y-142252591D01*
X188255500Y-142243745D01*
X188255500Y-141524000D01*
X188249661Y-141469687D01*
X188246575Y-141455500D01*
X188238457Y-141418183D01*
X188238456Y-141418182D01*
X188238455Y-141418176D01*
X188231219Y-141391802D01*
X188231216Y-141391796D01*
X188181894Y-141305181D01*
X188181888Y-141305172D01*
X188136136Y-141252371D01*
X188103359Y-141220743D01*
X188015022Y-141174534D01*
X188015022Y-141174533D01*
X187947990Y-141154851D01*
X187947978Y-141154848D01*
X187876001Y-141144500D01*
X187876000Y-141144500D01*
X184724000Y-141144500D01*
X184723997Y-141144500D01*
X184669687Y-141150338D01*
X184618183Y-141161543D01*
X184618182Y-141161543D01*
X184618176Y-141161545D01*
X184607177Y-141164562D01*
X184591806Y-141168779D01*
X184591796Y-141168783D01*
X184505181Y-141218105D01*
X184505167Y-141218115D01*
X184455350Y-141261282D01*
X184391794Y-141290307D01*
X184322636Y-141280363D01*
X184269832Y-141234608D01*
X184250858Y-141180821D01*
X184249661Y-141169688D01*
X184247889Y-141161544D01*
X184238455Y-141118176D01*
X184231219Y-141091802D01*
X184231216Y-141091796D01*
X184181894Y-141005181D01*
X184181888Y-141005172D01*
X184136136Y-140952371D01*
X184120146Y-140936942D01*
X184103359Y-140920743D01*
X184015024Y-140874535D01*
X184015023Y-140874534D01*
X184015022Y-140874534D01*
X184015022Y-140874533D01*
X183947990Y-140854851D01*
X183947978Y-140854848D01*
X183876001Y-140844500D01*
X183876000Y-140844500D01*
X182309800Y-140844500D01*
X182242761Y-140824815D01*
X182197006Y-140772011D01*
X182187062Y-140702853D01*
X182199313Y-140664209D01*
X182236017Y-140592175D01*
X182250500Y-140500735D01*
X182250499Y-140099266D01*
X182250499Y-140099264D01*
X182250499Y-140099260D01*
X182236018Y-140007829D01*
X182236018Y-140007828D01*
X182236017Y-140007826D01*
X182236017Y-140007825D01*
X182179859Y-139897609D01*
X182179857Y-139897607D01*
X182179854Y-139897603D01*
X182092396Y-139810145D01*
X182092393Y-139810143D01*
X182092391Y-139810141D01*
X181982175Y-139753983D01*
X181982174Y-139753982D01*
X181982171Y-139753981D01*
X181890735Y-139739500D01*
X181741900Y-139739500D01*
X181674861Y-139719815D01*
X181654219Y-139703181D01*
X181611819Y-139660781D01*
X181578334Y-139599458D01*
X181575500Y-139573105D01*
X181575500Y-139563867D01*
X181575499Y-139547671D01*
X181584943Y-139500208D01*
X181585962Y-139497745D01*
X181585966Y-139497740D01*
X181600500Y-139424674D01*
X181600500Y-139381517D01*
X187044500Y-139381517D01*
X187054493Y-139444610D01*
X187059354Y-139475304D01*
X187116950Y-139588342D01*
X187116952Y-139588344D01*
X187116954Y-139588347D01*
X187206652Y-139678045D01*
X187206654Y-139678046D01*
X187206658Y-139678050D01*
X187319694Y-139735645D01*
X187319698Y-139735647D01*
X187413475Y-139750499D01*
X187413481Y-139750500D01*
X187776518Y-139750499D01*
X187870304Y-139735646D01*
X187983342Y-139678050D01*
X188073050Y-139588342D01*
X188130646Y-139475304D01*
X188130646Y-139475302D01*
X188130647Y-139475301D01*
X188141605Y-139406111D01*
X188145500Y-139381519D01*
X188145499Y-137668482D01*
X188130646Y-137574696D01*
X188130645Y-137574694D01*
X188130645Y-137574692D01*
X188109015Y-137532241D01*
X188095500Y-137475947D01*
X188095500Y-137099499D01*
X188115185Y-137032460D01*
X188167989Y-136986705D01*
X188219500Y-136975499D01*
X188347871Y-136975499D01*
X188347872Y-136975499D01*
X188407483Y-136969091D01*
X188542331Y-136918796D01*
X188657546Y-136832546D01*
X188743796Y-136717331D01*
X188794091Y-136582483D01*
X188800500Y-136522873D01*
X188800500Y-136522870D01*
X189199500Y-136522870D01*
X189199501Y-136522876D01*
X189205908Y-136582483D01*
X189256202Y-136717328D01*
X189256206Y-136717335D01*
X189342452Y-136832544D01*
X189342455Y-136832547D01*
X189457664Y-136918793D01*
X189457671Y-136918797D01*
X189553833Y-136954663D01*
X189609767Y-136996534D01*
X189634184Y-137061998D01*
X189634500Y-137070845D01*
X189634500Y-137475948D01*
X189620985Y-137532242D01*
X189599352Y-137574698D01*
X189584500Y-137668475D01*
X189584500Y-139381517D01*
X189594493Y-139444610D01*
X189599354Y-139475304D01*
X189656950Y-139588342D01*
X189656952Y-139588344D01*
X189656954Y-139588347D01*
X189746652Y-139678045D01*
X189746654Y-139678046D01*
X189746658Y-139678050D01*
X189859694Y-139735645D01*
X189859698Y-139735647D01*
X189953475Y-139750499D01*
X189953481Y-139750500D01*
X190316518Y-139750499D01*
X190410304Y-139735646D01*
X190523342Y-139678050D01*
X190613050Y-139588342D01*
X190659516Y-139497145D01*
X190707490Y-139446352D01*
X190775311Y-139429557D01*
X190841445Y-139452094D01*
X190880482Y-139497145D01*
X190926950Y-139588342D01*
X190926951Y-139588343D01*
X190926954Y-139588347D01*
X191016652Y-139678045D01*
X191016654Y-139678046D01*
X191016658Y-139678050D01*
X191129694Y-139735645D01*
X191129698Y-139735647D01*
X191223475Y-139750499D01*
X191223481Y-139750500D01*
X191586518Y-139750499D01*
X191680304Y-139735646D01*
X191793342Y-139678050D01*
X191883050Y-139588342D01*
X191940646Y-139475304D01*
X191940646Y-139475302D01*
X191940647Y-139475301D01*
X191951605Y-139406111D01*
X191955500Y-139381519D01*
X191955499Y-137668482D01*
X191940646Y-137574696D01*
X191883050Y-137461658D01*
X191883046Y-137461654D01*
X191883045Y-137461652D01*
X191793347Y-137371954D01*
X191793344Y-137371952D01*
X191793342Y-137371950D01*
X191691662Y-137320141D01*
X191680301Y-137314352D01*
X191586524Y-137299500D01*
X191223482Y-137299500D01*
X191142519Y-137312323D01*
X191129696Y-137314354D01*
X191016658Y-137371950D01*
X191016657Y-137371950D01*
X191016657Y-137371951D01*
X191016652Y-137371954D01*
X190926954Y-137461652D01*
X190926949Y-137461659D01*
X190880484Y-137552851D01*
X190832510Y-137603646D01*
X190764688Y-137620441D01*
X190698554Y-137597903D01*
X190659515Y-137552849D01*
X190649015Y-137532241D01*
X190635500Y-137475947D01*
X190635500Y-136761946D01*
X190643318Y-136718613D01*
X190675662Y-136631893D01*
X190694091Y-136582483D01*
X190700500Y-136522873D01*
X190700499Y-135477128D01*
X190694091Y-135417517D01*
X190687160Y-135398935D01*
X190643797Y-135282671D01*
X190643793Y-135282664D01*
X190557547Y-135167455D01*
X190557544Y-135167452D01*
X190442335Y-135081206D01*
X190442328Y-135081202D01*
X190307486Y-135030910D01*
X190307485Y-135030909D01*
X190307483Y-135030909D01*
X190247873Y-135024500D01*
X190247863Y-135024500D01*
X189652129Y-135024500D01*
X189652123Y-135024501D01*
X189592516Y-135030908D01*
X189457671Y-135081202D01*
X189457664Y-135081206D01*
X189342455Y-135167452D01*
X189342452Y-135167455D01*
X189256206Y-135282664D01*
X189256202Y-135282671D01*
X189205908Y-135417517D01*
X189199709Y-135475182D01*
X189199501Y-135477123D01*
X189199500Y-135477135D01*
X189199500Y-136522870D01*
X188800500Y-136522870D01*
X188800499Y-135477128D01*
X188794091Y-135417517D01*
X188787160Y-135398935D01*
X188743797Y-135282671D01*
X188743793Y-135282664D01*
X188657547Y-135167455D01*
X188657544Y-135167452D01*
X188542335Y-135081206D01*
X188542328Y-135081202D01*
X188407486Y-135030910D01*
X188407485Y-135030909D01*
X188407483Y-135030909D01*
X188347873Y-135024500D01*
X188347863Y-135024500D01*
X187752129Y-135024500D01*
X187752123Y-135024501D01*
X187692516Y-135030908D01*
X187557671Y-135081202D01*
X187557664Y-135081206D01*
X187442455Y-135167452D01*
X187442452Y-135167455D01*
X187356206Y-135282664D01*
X187356202Y-135282671D01*
X187305908Y-135417517D01*
X187299709Y-135475182D01*
X187299501Y-135477123D01*
X187299500Y-135477135D01*
X187299500Y-135985489D01*
X187279815Y-136052528D01*
X187269212Y-136066692D01*
X187229905Y-136112054D01*
X187226892Y-136115291D01*
X187215781Y-136126402D01*
X187206354Y-136138996D01*
X187203587Y-136142428D01*
X187190375Y-136157676D01*
X187169623Y-136181626D01*
X187169617Y-136181636D01*
X187167615Y-136186020D01*
X187154100Y-136208799D01*
X187151206Y-136212664D01*
X187151200Y-136212675D01*
X187133078Y-136261264D01*
X187131385Y-136265353D01*
X187109835Y-136312543D01*
X187109833Y-136312550D01*
X187109146Y-136317327D01*
X187102598Y-136342986D01*
X187100910Y-136347513D01*
X187100909Y-136347517D01*
X187097207Y-136399260D01*
X187096734Y-136403656D01*
X187094500Y-136419199D01*
X187094500Y-136434904D01*
X187094342Y-136439329D01*
X187090641Y-136491069D01*
X187090641Y-136491073D01*
X187091666Y-136495785D01*
X187094500Y-136522143D01*
X187094500Y-137475948D01*
X187080985Y-137532242D01*
X187059352Y-137574698D01*
X187044500Y-137668475D01*
X187044500Y-139381517D01*
X181600500Y-139381517D01*
X181600500Y-138575326D01*
X181600500Y-138575325D01*
X181600500Y-138575323D01*
X181600499Y-138575321D01*
X181585967Y-138502264D01*
X181585966Y-138502260D01*
X181530601Y-138419399D01*
X181468045Y-138377601D01*
X181425546Y-138326749D01*
X181395869Y-138345082D01*
X181363063Y-138349500D01*
X181025326Y-138349500D01*
X180974190Y-138359671D01*
X180925810Y-138359671D01*
X180874674Y-138349500D01*
X180525326Y-138349500D01*
X180525323Y-138349500D01*
X180452264Y-138364032D01*
X180452260Y-138364033D01*
X180375950Y-138415022D01*
X180369399Y-138419399D01*
X180315878Y-138499501D01*
X180307249Y-138512415D01*
X180306016Y-138511591D01*
X180270719Y-138555391D01*
X180204424Y-138577455D01*
X180136725Y-138560175D01*
X180089115Y-138509037D01*
X180086137Y-138502516D01*
X180085966Y-138502260D01*
X180030601Y-138419399D01*
X179947740Y-138364034D01*
X179947739Y-138364033D01*
X179947735Y-138364032D01*
X179874677Y-138349500D01*
X179874674Y-138349500D01*
X179724500Y-138349500D01*
X179657461Y-138329815D01*
X179611706Y-138277011D01*
X179600500Y-138225500D01*
X179600500Y-138075326D01*
X179596813Y-138056792D01*
X179590328Y-138024188D01*
X179590328Y-137975811D01*
X179600500Y-137924674D01*
X179600500Y-137575326D01*
X179600500Y-137575325D01*
X179600500Y-137575323D01*
X179600499Y-137575321D01*
X179590329Y-137524190D01*
X179590329Y-137475807D01*
X179600500Y-137424676D01*
X179600500Y-137075326D01*
X179596286Y-137054141D01*
X179590328Y-137024188D01*
X179590328Y-136975810D01*
X179600500Y-136924674D01*
X179600500Y-136575326D01*
X179600500Y-136575323D01*
X179600499Y-136575321D01*
X179585967Y-136502264D01*
X179585966Y-136502260D01*
X179582945Y-136497739D01*
X179530601Y-136419399D01*
X179463404Y-136374500D01*
X179447739Y-136364033D01*
X179447736Y-136364032D01*
X179400308Y-136354598D01*
X179338397Y-136322212D01*
X179303823Y-136261496D01*
X179300500Y-136232981D01*
X179300500Y-135646543D01*
X179320185Y-135579504D01*
X179336814Y-135558867D01*
X180096070Y-134799611D01*
X180157392Y-134766127D01*
X180227084Y-134771111D01*
X180283017Y-134812983D01*
X180307434Y-134878447D01*
X180296545Y-134938804D01*
X180239068Y-135064660D01*
X180239068Y-135064662D01*
X180219610Y-135200000D01*
X180239068Y-135335337D01*
X180239068Y-135335339D01*
X180297782Y-135463905D01*
X180307725Y-135533064D01*
X180306605Y-135539606D01*
X180299500Y-135575326D01*
X180299500Y-136424678D01*
X180314032Y-136497735D01*
X180314033Y-136497739D01*
X180325456Y-136514835D01*
X180369399Y-136580601D01*
X180446164Y-136631893D01*
X180452260Y-136635966D01*
X180452264Y-136635967D01*
X180525321Y-136650499D01*
X180525324Y-136650500D01*
X180525326Y-136650500D01*
X180874674Y-136650500D01*
X180925811Y-136640328D01*
X180974189Y-136640328D01*
X181013006Y-136648049D01*
X181025325Y-136650500D01*
X181025326Y-136650500D01*
X181175500Y-136650500D01*
X181242539Y-136670185D01*
X181288294Y-136722989D01*
X181299500Y-136774500D01*
X181299500Y-136924673D01*
X181309671Y-136975810D01*
X181309671Y-137024190D01*
X181303714Y-137054140D01*
X181299500Y-137075326D01*
X181299500Y-137424674D01*
X181301035Y-137432390D01*
X181309671Y-137475809D01*
X181309671Y-137524188D01*
X181299500Y-137575325D01*
X181299500Y-137924678D01*
X181314032Y-137997735D01*
X181314033Y-137997739D01*
X181314034Y-137997740D01*
X181369399Y-138080601D01*
X181431954Y-138122398D01*
X181474453Y-138173250D01*
X181504131Y-138154918D01*
X181536937Y-138150500D01*
X182374676Y-138150500D01*
X182411206Y-138143233D01*
X182447740Y-138135966D01*
X182447743Y-138135963D01*
X182450222Y-138134938D01*
X182497673Y-138125500D01*
X182649119Y-138125500D01*
X182716158Y-138145185D01*
X182759601Y-138193202D01*
X182810141Y-138292391D01*
X182810142Y-138292392D01*
X182810145Y-138292396D01*
X182897603Y-138379854D01*
X182897605Y-138379855D01*
X182897609Y-138379859D01*
X182991784Y-138427843D01*
X183029200Y-138457124D01*
X183055937Y-138487981D01*
X183063867Y-138497132D01*
X183096641Y-138528757D01*
X183184976Y-138574965D01*
X183184977Y-138574965D01*
X183184977Y-138574966D01*
X183227290Y-138587390D01*
X183252015Y-138594650D01*
X183252019Y-138594650D01*
X183252021Y-138594651D01*
X183263652Y-138596323D01*
X183324000Y-138605000D01*
X183470870Y-138605000D01*
X183490243Y-138606522D01*
X183494743Y-138607235D01*
X183518277Y-138613375D01*
X183520340Y-138614136D01*
X183520344Y-138614138D01*
X183576693Y-138634926D01*
X183632987Y-138648441D01*
X183692632Y-138655500D01*
X183692635Y-138655500D01*
X184576000Y-138655500D01*
X184630313Y-138649661D01*
X184650888Y-138645185D01*
X184681817Y-138638457D01*
X184681817Y-138638456D01*
X184681824Y-138638455D01*
X184708198Y-138631219D01*
X184772417Y-138594650D01*
X184794818Y-138581894D01*
X184794821Y-138581891D01*
X184794828Y-138581888D01*
X184835648Y-138546517D01*
X184847629Y-138536136D01*
X184864135Y-138519030D01*
X184879257Y-138503359D01*
X184925465Y-138415024D01*
X184945150Y-138347985D01*
X184955500Y-138276000D01*
X184955500Y-137524000D01*
X184949661Y-137469687D01*
X184945684Y-137451407D01*
X184938457Y-137418183D01*
X184938456Y-137418182D01*
X184938455Y-137418176D01*
X184931219Y-137391802D01*
X184929078Y-137388042D01*
X184881894Y-137305181D01*
X184881888Y-137305172D01*
X184836136Y-137252371D01*
X184834723Y-137251008D01*
X184803359Y-137220743D01*
X184715024Y-137174535D01*
X184715023Y-137174534D01*
X184715022Y-137174534D01*
X184715022Y-137174533D01*
X184647990Y-137154851D01*
X184647978Y-137154848D01*
X184576001Y-137144500D01*
X184576000Y-137144500D01*
X183994235Y-137144500D01*
X183927196Y-137124815D01*
X183881441Y-137072011D01*
X183871497Y-137038147D01*
X183868815Y-137019491D01*
X183860931Y-136964658D01*
X183839987Y-136918797D01*
X183804132Y-136840285D01*
X183804127Y-136840278D01*
X183714590Y-136736946D01*
X183714586Y-136736942D01*
X183613615Y-136672054D01*
X183567859Y-136619251D01*
X183557915Y-136550092D01*
X183560554Y-136537962D01*
X183561901Y-136528593D01*
X183580390Y-136400000D01*
X183560931Y-136264658D01*
X183539402Y-136217517D01*
X183504132Y-136140285D01*
X183504127Y-136140278D01*
X183414590Y-136036946D01*
X183414586Y-136036942D01*
X183316127Y-135973668D01*
X183299561Y-135963022D01*
X183299560Y-135963021D01*
X183299559Y-135963021D01*
X183168368Y-135924500D01*
X183168367Y-135924500D01*
X183031633Y-135924500D01*
X183031632Y-135924500D01*
X182900440Y-135963021D01*
X182785413Y-136036942D01*
X182785409Y-136036946D01*
X182695872Y-136140278D01*
X182695869Y-136140283D01*
X182639069Y-136264656D01*
X182639068Y-136264661D01*
X182638567Y-136268148D01*
X182637103Y-136271353D01*
X182636569Y-136273172D01*
X182636307Y-136273095D01*
X182609541Y-136331704D01*
X182550763Y-136369477D01*
X182515829Y-136374500D01*
X182497673Y-136374500D01*
X182450222Y-136365062D01*
X182447738Y-136364033D01*
X182374676Y-136349500D01*
X182374674Y-136349500D01*
X181724499Y-136349500D01*
X181657460Y-136329815D01*
X181611705Y-136277011D01*
X181600499Y-136225500D01*
X181600499Y-136184649D01*
X181620184Y-136117610D01*
X181650393Y-136087173D01*
X181650275Y-136087045D01*
X181653129Y-136084417D01*
X181656682Y-136080837D01*
X181657836Y-136080084D01*
X181679651Y-136052054D01*
X181684719Y-136046316D01*
X181687520Y-136043517D01*
X181701088Y-136024513D01*
X181734809Y-135981189D01*
X181734810Y-135981183D01*
X181738542Y-135974289D01*
X181742003Y-135967207D01*
X181742010Y-135967199D01*
X181757670Y-135914596D01*
X181775500Y-135862660D01*
X181775500Y-135862655D01*
X181776790Y-135854924D01*
X181777768Y-135847085D01*
X181775500Y-135792244D01*
X181775500Y-134739008D01*
X181795185Y-134671969D01*
X181802761Y-134661847D01*
X181804127Y-134659720D01*
X181804130Y-134659718D01*
X181860931Y-134535342D01*
X181880390Y-134400000D01*
X181860931Y-134264658D01*
X181829998Y-134196924D01*
X181804132Y-134140285D01*
X181804127Y-134140278D01*
X181714590Y-134036946D01*
X181714586Y-134036942D01*
X181599559Y-133963020D01*
X181524648Y-133941025D01*
X181465870Y-133903251D01*
X181436845Y-133839695D01*
X181446789Y-133770536D01*
X181449099Y-133765752D01*
X181449435Y-133765092D01*
X181456017Y-133752175D01*
X181470500Y-133660735D01*
X181470499Y-133259266D01*
X181470499Y-133259265D01*
X181470499Y-133259260D01*
X181456018Y-133167829D01*
X181456018Y-133167828D01*
X181456017Y-133167826D01*
X181456017Y-133167825D01*
X181399859Y-133057609D01*
X181399857Y-133057607D01*
X181399854Y-133057603D01*
X181351819Y-133009568D01*
X181318334Y-132948245D01*
X181315500Y-132921887D01*
X181315500Y-132766898D01*
X181335185Y-132699859D01*
X181351819Y-132679217D01*
X181909218Y-132121819D01*
X181970541Y-132088334D01*
X181996899Y-132085500D01*
X182448960Y-132085500D01*
X182515999Y-132105185D01*
X182536642Y-132121820D01*
X182577897Y-132163076D01*
X182577900Y-132163078D01*
X182688656Y-132217222D01*
X182693482Y-132219582D01*
X182768418Y-132230500D01*
X182768423Y-132230500D01*
X183211577Y-132230500D01*
X183211582Y-132230500D01*
X183286518Y-132219582D01*
X183341993Y-132192461D01*
X183402095Y-132163080D01*
X183402096Y-132163078D01*
X183402102Y-132163076D01*
X183402310Y-132162867D01*
X183402670Y-132162671D01*
X183410463Y-132157107D01*
X183411134Y-132158047D01*
X183463625Y-132129377D01*
X183533317Y-132134352D01*
X183577680Y-132162859D01*
X183617897Y-132203076D01*
X183617900Y-132203078D01*
X183728656Y-132257222D01*
X183733482Y-132259582D01*
X183808418Y-132270500D01*
X183808423Y-132270500D01*
X184151577Y-132270500D01*
X184151582Y-132270500D01*
X184226518Y-132259582D01*
X184308343Y-132219580D01*
X184342099Y-132203078D01*
X184342100Y-132203076D01*
X184342102Y-132203076D01*
X184402320Y-132142857D01*
X184463641Y-132109374D01*
X184533333Y-132114358D01*
X184577679Y-132142857D01*
X184637898Y-132203076D01*
X184637900Y-132203078D01*
X184748656Y-132257222D01*
X184753482Y-132259582D01*
X184828418Y-132270500D01*
X184828423Y-132270500D01*
X185171577Y-132270500D01*
X185171582Y-132270500D01*
X185246518Y-132259582D01*
X185328343Y-132219580D01*
X185362099Y-132203078D01*
X185362102Y-132203076D01*
X185453360Y-132111819D01*
X185514683Y-132078334D01*
X185541041Y-132075500D01*
X188293101Y-132075500D01*
X188360140Y-132095185D01*
X188380782Y-132111819D01*
X188997850Y-132728888D01*
X189013975Y-132748744D01*
X189019913Y-132757832D01*
X189019916Y-132757836D01*
X189047925Y-132779636D01*
X189053687Y-132784725D01*
X189056482Y-132787520D01*
X189075495Y-132801094D01*
X189118811Y-132834809D01*
X189118818Y-132834811D01*
X189125720Y-132838547D01*
X189132796Y-132842006D01*
X189132801Y-132842010D01*
X189185402Y-132857670D01*
X189185403Y-132857670D01*
X189237338Y-132875500D01*
X189245072Y-132876790D01*
X189252910Y-132877767D01*
X189252912Y-132877768D01*
X189252913Y-132877767D01*
X189252914Y-132877768D01*
X189307756Y-132875500D01*
X189575500Y-132875500D01*
X189642539Y-132895185D01*
X189688294Y-132947989D01*
X189699500Y-132999500D01*
X189699500Y-133574678D01*
X189714032Y-133647735D01*
X189714033Y-133647739D01*
X189722717Y-133660735D01*
X189769399Y-133730601D01*
X189839043Y-133777135D01*
X189852260Y-133785966D01*
X189852264Y-133785967D01*
X189925321Y-133800499D01*
X189925324Y-133800500D01*
X189925326Y-133800500D01*
X192074676Y-133800500D01*
X192074677Y-133800499D01*
X192147740Y-133785966D01*
X192230601Y-133730601D01*
X192285966Y-133647740D01*
X192300500Y-133574674D01*
X192300500Y-131425326D01*
X192300500Y-131425325D01*
X192300500Y-131425323D01*
X192300499Y-131425321D01*
X192285967Y-131352264D01*
X192285966Y-131352260D01*
X192284414Y-131349937D01*
X192230601Y-131269399D01*
X192175235Y-131232405D01*
X192147739Y-131214033D01*
X192147735Y-131214032D01*
X192074677Y-131199500D01*
X192074674Y-131199500D01*
X191890442Y-131199500D01*
X191823403Y-131179815D01*
X191777648Y-131127011D01*
X191767704Y-131057853D01*
X191796729Y-130994297D01*
X191819320Y-130973924D01*
X191839139Y-130960047D01*
X192000047Y-130799139D01*
X192130568Y-130612734D01*
X192226739Y-130406496D01*
X192285635Y-130186692D01*
X192305468Y-129960000D01*
X192285635Y-129733308D01*
X192226739Y-129513504D01*
X192130568Y-129307266D01*
X192000047Y-129120861D01*
X192000045Y-129120858D01*
X191839141Y-128959954D01*
X191652734Y-128829432D01*
X191652732Y-128829431D01*
X191446497Y-128733261D01*
X191446488Y-128733258D01*
X191226697Y-128674366D01*
X191226693Y-128674365D01*
X191226692Y-128674365D01*
X191226691Y-128674364D01*
X191226686Y-128674364D01*
X191000002Y-128654532D01*
X190999998Y-128654532D01*
X190773313Y-128674364D01*
X190773302Y-128674366D01*
X190553511Y-128733258D01*
X190553502Y-128733261D01*
X190347267Y-128829431D01*
X190347265Y-128829432D01*
X190160858Y-128959954D01*
X189999954Y-129120858D01*
X189869432Y-129307265D01*
X189869431Y-129307267D01*
X189827260Y-129397702D01*
X189773539Y-129512906D01*
X189727369Y-129565344D01*
X189661159Y-129584500D01*
X189291804Y-129584500D01*
X189266359Y-129581861D01*
X189255733Y-129579633D01*
X189255730Y-129579633D01*
X189220508Y-129584023D01*
X189212832Y-129584500D01*
X189208886Y-129584500D01*
X189191615Y-129587381D01*
X189185858Y-129588342D01*
X189131370Y-129595134D01*
X189123857Y-129597371D01*
X189116387Y-129599936D01*
X189068122Y-129626055D01*
X189018792Y-129650171D01*
X189012375Y-129654753D01*
X189006175Y-129659579D01*
X188968992Y-129699970D01*
X188380781Y-130288181D01*
X188319458Y-130321666D01*
X188293100Y-130324500D01*
X185551041Y-130324500D01*
X185484002Y-130304815D01*
X185463360Y-130288181D01*
X185372102Y-130196923D01*
X185372099Y-130196921D01*
X185256521Y-130140419D01*
X185256519Y-130140418D01*
X185256518Y-130140418D01*
X185181582Y-130129500D01*
X184838418Y-130129500D01*
X184763482Y-130140418D01*
X184763480Y-130140418D01*
X184763478Y-130140419D01*
X184647900Y-130196921D01*
X184647897Y-130196923D01*
X184587681Y-130257140D01*
X184526358Y-130290625D01*
X184456666Y-130285641D01*
X184412319Y-130257140D01*
X184352102Y-130196923D01*
X184352099Y-130196921D01*
X184236521Y-130140419D01*
X184236519Y-130140418D01*
X184236518Y-130140418D01*
X184161582Y-130129500D01*
X183818418Y-130129500D01*
X183743482Y-130140418D01*
X183743480Y-130140418D01*
X183743478Y-130140419D01*
X183627900Y-130196921D01*
X183627896Y-130196924D01*
X183582679Y-130242141D01*
X183521356Y-130275625D01*
X183451664Y-130270640D01*
X183407316Y-130242138D01*
X183402102Y-130236924D01*
X183402100Y-130236923D01*
X183402098Y-130236921D01*
X183286521Y-130180419D01*
X183286519Y-130180418D01*
X183286518Y-130180418D01*
X183211582Y-130169500D01*
X182768418Y-130169500D01*
X182693482Y-130180418D01*
X182693480Y-130180418D01*
X182693478Y-130180419D01*
X182577900Y-130236921D01*
X182577897Y-130236923D01*
X182536642Y-130278180D01*
X182475319Y-130311666D01*
X182448960Y-130314500D01*
X181461804Y-130314500D01*
X181436357Y-130311861D01*
X181433713Y-130311306D01*
X181425729Y-130309632D01*
X181390509Y-130314023D01*
X181382832Y-130314500D01*
X181378886Y-130314500D01*
X181361606Y-130317383D01*
X181355846Y-130318344D01*
X181301368Y-130325135D01*
X181293844Y-130327375D01*
X181286392Y-130329934D01*
X181286390Y-130329934D01*
X181286390Y-130329935D01*
X181244936Y-130352368D01*
X181238119Y-130356057D01*
X181188790Y-130380172D01*
X181182398Y-130384735D01*
X181176174Y-130389580D01*
X181139003Y-130429958D01*
X179751108Y-131817852D01*
X179731254Y-131833976D01*
X179722165Y-131839914D01*
X179722164Y-131839915D01*
X179700363Y-131867923D01*
X179695286Y-131873674D01*
X179692484Y-131876477D01*
X179692474Y-131876488D01*
X179678905Y-131895495D01*
X179645192Y-131938808D01*
X179641447Y-131945729D01*
X179637988Y-131952804D01*
X179622329Y-132005403D01*
X179604500Y-132057338D01*
X179603207Y-132065084D01*
X179602232Y-132072911D01*
X179602232Y-132072912D01*
X179603153Y-132095185D01*
X179604499Y-132127756D01*
X179604499Y-132921886D01*
X179584814Y-132988925D01*
X179568184Y-133009563D01*
X179547185Y-133030564D01*
X179485864Y-133064052D01*
X179416172Y-133059071D01*
X179360236Y-133017202D01*
X179335816Y-132951739D01*
X179335500Y-132942887D01*
X179335500Y-128379500D01*
X179355185Y-128312461D01*
X179407989Y-128266706D01*
X179459500Y-128255500D01*
X188676000Y-128255500D01*
X188730313Y-128249661D01*
X188751049Y-128245150D01*
X188781817Y-128238457D01*
X188781817Y-128238456D01*
X188781824Y-128238455D01*
X188808198Y-128231219D01*
X188837074Y-128214775D01*
X188894818Y-128181894D01*
X188894821Y-128181891D01*
X188894828Y-128181888D01*
X188947632Y-128136133D01*
X188979257Y-128103359D01*
X189025465Y-128015024D01*
X189045150Y-127947985D01*
X189053370Y-127890810D01*
X189082394Y-127827256D01*
X189141172Y-127789480D01*
X189211041Y-127789479D01*
X189233584Y-127798582D01*
G37*
G04 #@! TD.AperFunction*
G04 #@! TA.AperFunction,Conductor*
G36*
X190406905Y-105318265D02*
G01*
X190412257Y-105318734D01*
X190813381Y-105371543D01*
X190818697Y-105372481D01*
X191213680Y-105460047D01*
X191218892Y-105461443D01*
X191604745Y-105583102D01*
X191609826Y-105584951D01*
X191983612Y-105739778D01*
X191988482Y-105742049D01*
X192347350Y-105928864D01*
X192352028Y-105931566D01*
X192693241Y-106148942D01*
X192697674Y-106152046D01*
X193018634Y-106398327D01*
X193022779Y-106401806D01*
X193321051Y-106675122D01*
X193324877Y-106678948D01*
X193598193Y-106977220D01*
X193601672Y-106981365D01*
X193847953Y-107302325D01*
X193851057Y-107306758D01*
X194068433Y-107647971D01*
X194071139Y-107652657D01*
X194257941Y-108011499D01*
X194260228Y-108016403D01*
X194415048Y-108390174D01*
X194416899Y-108395259D01*
X194538552Y-108781092D01*
X194539952Y-108786319D01*
X194627518Y-109181302D01*
X194628458Y-109186631D01*
X194681263Y-109587724D01*
X194681735Y-109593115D01*
X194699500Y-110000000D01*
X194699500Y-120520500D01*
X194679815Y-120587539D01*
X194627011Y-120633294D01*
X194575500Y-120644500D01*
X189423997Y-120644500D01*
X189369687Y-120650338D01*
X189318183Y-120661543D01*
X189318182Y-120661543D01*
X189318176Y-120661545D01*
X189307177Y-120664562D01*
X189291806Y-120668779D01*
X189291796Y-120668783D01*
X189205181Y-120718105D01*
X189205172Y-120718111D01*
X189152371Y-120763864D01*
X189120743Y-120796640D01*
X189074534Y-120884977D01*
X189074533Y-120884977D01*
X189054851Y-120952009D01*
X189054848Y-120952021D01*
X189044500Y-121023998D01*
X189044500Y-121689768D01*
X189024815Y-121756807D01*
X188972011Y-121802562D01*
X188902853Y-121812506D01*
X188863025Y-121799644D01*
X188815020Y-121774533D01*
X188747990Y-121754851D01*
X188747978Y-121754848D01*
X188676001Y-121744500D01*
X188676000Y-121744500D01*
X182952745Y-121744500D01*
X182885706Y-121724815D01*
X182839951Y-121672011D01*
X182830007Y-121602853D01*
X182853478Y-121546189D01*
X182857882Y-121540305D01*
X182893796Y-121492331D01*
X182944091Y-121357483D01*
X182950500Y-121297873D01*
X182950499Y-120677128D01*
X182944091Y-120617517D01*
X182893796Y-120482669D01*
X182893795Y-120482668D01*
X182893793Y-120482664D01*
X182807548Y-120367457D01*
X182807546Y-120367454D01*
X182807542Y-120367451D01*
X182807540Y-120367449D01*
X182800187Y-120361944D01*
X182758317Y-120306009D01*
X182750500Y-120262679D01*
X182750500Y-119131298D01*
X182750500Y-119131297D01*
X182750500Y-119131291D01*
X182735241Y-119000745D01*
X182734954Y-118999958D01*
X182732977Y-118994523D01*
X182725499Y-118952114D01*
X182725499Y-118904518D01*
X182725498Y-118904509D01*
X182719412Y-118847885D01*
X182701588Y-118800100D01*
X182671628Y-118719774D01*
X182589687Y-118610313D01*
X182523911Y-118561074D01*
X182480228Y-118528373D01*
X182480226Y-118528372D01*
X182352114Y-118480588D01*
X182352112Y-118480587D01*
X182352110Y-118480587D01*
X182295501Y-118474500D01*
X182295485Y-118474500D01*
X182295107Y-118474500D01*
X182294889Y-118474468D01*
X182292178Y-118474323D01*
X182292187Y-118474144D01*
X182292182Y-118474144D01*
X182292189Y-118474072D01*
X182259543Y-118469291D01*
X182131211Y-118430870D01*
X182131205Y-118430869D01*
X181956066Y-118420669D01*
X181956065Y-118420669D01*
X181898473Y-118430824D01*
X181783287Y-118451135D01*
X181752623Y-118464361D01*
X181707786Y-118473627D01*
X181707812Y-118474117D01*
X181707816Y-118474146D01*
X181707814Y-118474146D01*
X181707824Y-118474324D01*
X181704507Y-118474501D01*
X181647885Y-118480587D01*
X181519773Y-118528372D01*
X181410313Y-118610313D01*
X181328373Y-118719771D01*
X181280587Y-118847889D01*
X181274500Y-118904498D01*
X181274500Y-118967301D01*
X181271158Y-118995897D01*
X181249500Y-119087280D01*
X181249500Y-120262679D01*
X181229815Y-120329718D01*
X181199813Y-120361944D01*
X181192459Y-120367449D01*
X181192451Y-120367457D01*
X181106206Y-120482664D01*
X181106202Y-120482671D01*
X181055910Y-120617513D01*
X181055909Y-120617517D01*
X181049500Y-120677127D01*
X181049500Y-120677134D01*
X181049500Y-120677135D01*
X181049500Y-121297870D01*
X181049501Y-121297876D01*
X181055908Y-121357483D01*
X181106202Y-121492328D01*
X181106204Y-121492331D01*
X181146522Y-121546189D01*
X181170939Y-121611653D01*
X181156087Y-121679926D01*
X181106682Y-121729332D01*
X181047255Y-121744500D01*
X170723997Y-121744500D01*
X170669687Y-121750338D01*
X170618183Y-121761543D01*
X170618182Y-121761543D01*
X170618176Y-121761545D01*
X170607177Y-121764562D01*
X170591806Y-121768779D01*
X170591796Y-121768783D01*
X170505181Y-121818105D01*
X170505172Y-121818111D01*
X170452371Y-121863864D01*
X170420743Y-121896640D01*
X170374534Y-121984977D01*
X170374533Y-121984977D01*
X170354851Y-122052009D01*
X170354848Y-122052021D01*
X170344500Y-122123998D01*
X170344500Y-123620118D01*
X170324815Y-123687157D01*
X170272011Y-123732912D01*
X170220237Y-123744118D01*
X154161737Y-123710111D01*
X154161735Y-123710111D01*
X154108734Y-123715555D01*
X154108724Y-123715557D01*
X154058410Y-123726113D01*
X154058411Y-123726113D01*
X154058399Y-123726116D01*
X154058395Y-123726117D01*
X154053925Y-123727295D01*
X154033255Y-123732742D01*
X153946006Y-123780970D01*
X153892623Y-123826054D01*
X153860588Y-123858421D01*
X153813261Y-123946167D01*
X153792731Y-124012937D01*
X153792729Y-124012948D01*
X153781467Y-124084792D01*
X153781466Y-124084799D01*
X153768490Y-125107604D01*
X153766205Y-125115035D01*
X153768138Y-125135273D01*
X153749275Y-126622073D01*
X153728742Y-126688857D01*
X153675361Y-126733939D01*
X153625285Y-126744500D01*
X152135467Y-126744500D01*
X152068428Y-126724815D01*
X152022673Y-126672011D01*
X152012729Y-126602853D01*
X152041754Y-126539297D01*
X152100532Y-126501523D01*
X152125227Y-126496924D01*
X152267813Y-126485109D01*
X152267816Y-126485108D01*
X152267821Y-126485108D01*
X152508881Y-126424063D01*
X152736607Y-126324173D01*
X152944785Y-126188164D01*
X153127738Y-126019744D01*
X153280474Y-125823509D01*
X153398828Y-125604810D01*
X153479571Y-125369614D01*
X153520500Y-125124335D01*
X153520500Y-125124318D01*
X153520570Y-125123481D01*
X153520697Y-125123149D01*
X153521344Y-125119277D01*
X153522140Y-125119409D01*
X153522285Y-125119033D01*
X153520500Y-125106031D01*
X153520500Y-124875665D01*
X153488541Y-124684143D01*
X153479571Y-124630386D01*
X153398828Y-124395190D01*
X153280474Y-124176491D01*
X153127738Y-123980256D01*
X152944785Y-123811836D01*
X152944782Y-123811833D01*
X152736606Y-123675826D01*
X152508881Y-123575936D01*
X152267824Y-123514892D01*
X152267813Y-123514890D01*
X152102548Y-123501197D01*
X152082067Y-123499500D01*
X149957933Y-123499500D01*
X149938521Y-123501108D01*
X149772186Y-123514890D01*
X149772175Y-123514892D01*
X149531118Y-123575936D01*
X149303393Y-123675826D01*
X149095217Y-123811833D01*
X148912261Y-123980257D01*
X148759524Y-124176493D01*
X148641172Y-124395188D01*
X148641167Y-124395200D01*
X148634109Y-124415762D01*
X148593724Y-124472778D01*
X148528924Y-124498909D01*
X148516828Y-124499500D01*
X148367143Y-124499500D01*
X148340785Y-124496666D01*
X148336074Y-124495641D01*
X148336070Y-124495641D01*
X148297552Y-124498396D01*
X148284328Y-124499342D01*
X148279906Y-124499500D01*
X148264199Y-124499500D01*
X148248656Y-124501734D01*
X148244260Y-124502207D01*
X148192517Y-124505909D01*
X148192513Y-124505910D01*
X148187986Y-124507598D01*
X148162327Y-124514146D01*
X148157550Y-124514833D01*
X148157543Y-124514835D01*
X148110353Y-124536385D01*
X148106264Y-124538078D01*
X148057675Y-124556200D01*
X148057664Y-124556206D01*
X148053799Y-124559100D01*
X148031020Y-124572615D01*
X148026636Y-124574617D01*
X148026626Y-124574623D01*
X148002676Y-124595375D01*
X147987428Y-124608587D01*
X147983996Y-124611354D01*
X147971402Y-124620781D01*
X147960291Y-124631892D01*
X147957055Y-124634905D01*
X147917861Y-124668867D01*
X147917854Y-124668876D01*
X147915243Y-124672938D01*
X147898616Y-124693568D01*
X146693568Y-125898616D01*
X146672938Y-125915243D01*
X146668876Y-125917854D01*
X146668867Y-125917861D01*
X146634905Y-125957055D01*
X146631892Y-125960291D01*
X146620781Y-125971402D01*
X146611354Y-125983996D01*
X146608587Y-125987428D01*
X146595375Y-126002676D01*
X146574623Y-126026626D01*
X146574617Y-126026636D01*
X146572615Y-126031020D01*
X146559100Y-126053799D01*
X146556206Y-126057664D01*
X146556200Y-126057675D01*
X146538078Y-126106264D01*
X146536385Y-126110353D01*
X146514835Y-126157543D01*
X146514833Y-126157550D01*
X146514146Y-126162327D01*
X146507598Y-126187986D01*
X146505910Y-126192513D01*
X146505909Y-126192517D01*
X146502207Y-126244260D01*
X146501734Y-126248656D01*
X146499500Y-126264199D01*
X146499500Y-126279904D01*
X146499342Y-126284329D01*
X146495641Y-126336069D01*
X146495641Y-126336073D01*
X146496666Y-126340785D01*
X146499500Y-126367143D01*
X146499500Y-133223560D01*
X146479815Y-133290599D01*
X146427011Y-133336354D01*
X146418833Y-133339742D01*
X146307671Y-133381202D01*
X146307664Y-133381206D01*
X146192455Y-133467452D01*
X146192452Y-133467455D01*
X146106206Y-133582664D01*
X146106202Y-133582671D01*
X146060427Y-133705403D01*
X146055909Y-133717517D01*
X146049500Y-133777127D01*
X146049500Y-133777134D01*
X146049500Y-133777135D01*
X146049500Y-134397870D01*
X146049501Y-134397876D01*
X146055908Y-134457483D01*
X146106202Y-134592328D01*
X146106206Y-134592335D01*
X146192452Y-134707544D01*
X146192455Y-134707547D01*
X146307664Y-134793793D01*
X146307671Y-134793797D01*
X146442517Y-134844091D01*
X146442516Y-134844091D01*
X146449444Y-134844835D01*
X146502127Y-134850500D01*
X147497872Y-134850499D01*
X147557483Y-134844091D01*
X147692331Y-134793796D01*
X147807546Y-134707546D01*
X147893796Y-134592331D01*
X147944091Y-134457483D01*
X147950500Y-134397873D01*
X147950499Y-133777128D01*
X147944091Y-133717517D01*
X147917540Y-133646331D01*
X147893797Y-133582671D01*
X147893793Y-133582664D01*
X147844549Y-133516883D01*
X147820131Y-133451419D01*
X147834982Y-133383146D01*
X147884387Y-133333740D01*
X147952660Y-133318888D01*
X147978776Y-133324953D01*
X147979130Y-133323749D01*
X148013157Y-133333740D01*
X148052015Y-133345150D01*
X148052019Y-133345150D01*
X148052021Y-133345151D01*
X148063652Y-133346823D01*
X148124000Y-133355500D01*
X148124001Y-133355500D01*
X166276000Y-133355500D01*
X166330313Y-133349661D01*
X166346440Y-133346152D01*
X166381817Y-133338457D01*
X166381817Y-133338456D01*
X166381824Y-133338455D01*
X166408198Y-133331219D01*
X166479531Y-133290599D01*
X166494818Y-133281894D01*
X166494821Y-133281891D01*
X166494828Y-133281888D01*
X166533454Y-133248418D01*
X166547629Y-133236136D01*
X166559765Y-133223559D01*
X166579257Y-133203359D01*
X166625465Y-133115024D01*
X166626960Y-133109935D01*
X166640950Y-133062287D01*
X166645150Y-133047985D01*
X166655500Y-132976000D01*
X166655500Y-128679500D01*
X166675185Y-128612461D01*
X166727989Y-128566706D01*
X166779500Y-128555500D01*
X170276000Y-128555500D01*
X170330313Y-128549661D01*
X170346440Y-128546152D01*
X170381817Y-128538457D01*
X170381817Y-128538456D01*
X170381824Y-128538455D01*
X170408198Y-128531219D01*
X170437074Y-128514775D01*
X170494818Y-128481894D01*
X170494821Y-128481891D01*
X170494828Y-128481888D01*
X170547632Y-128436133D01*
X170579257Y-128403359D01*
X170624528Y-128316814D01*
X170673044Y-128266536D01*
X170741041Y-128250469D01*
X170752044Y-128251552D01*
X170779500Y-128255500D01*
X178460500Y-128255500D01*
X178527539Y-128275185D01*
X178573294Y-128327989D01*
X178584500Y-128379500D01*
X178584500Y-132878958D01*
X178564815Y-132945997D01*
X178548181Y-132966639D01*
X178487681Y-133027139D01*
X178426358Y-133060624D01*
X178356666Y-133055640D01*
X178312319Y-133027140D01*
X178252099Y-132966921D01*
X178136521Y-132910419D01*
X178136519Y-132910418D01*
X178136518Y-132910418D01*
X178061582Y-132899500D01*
X177718418Y-132899500D01*
X177643482Y-132910418D01*
X177643480Y-132910418D01*
X177643478Y-132910419D01*
X177527900Y-132966921D01*
X177495322Y-132999500D01*
X177436924Y-133057898D01*
X177436923Y-133057899D01*
X177429660Y-133065163D01*
X177426784Y-133062287D01*
X177387478Y-133092929D01*
X177357222Y-133100664D01*
X177321376Y-133105133D01*
X177313857Y-133107371D01*
X177306387Y-133109936D01*
X177258122Y-133136055D01*
X177208792Y-133160171D01*
X177202375Y-133164753D01*
X177196175Y-133169579D01*
X177158993Y-133209969D01*
X176851108Y-133517852D01*
X176831254Y-133533976D01*
X176822165Y-133539914D01*
X176822164Y-133539915D01*
X176800363Y-133567923D01*
X176795286Y-133573674D01*
X176792484Y-133576477D01*
X176792474Y-133576488D01*
X176778905Y-133595495D01*
X176745192Y-133638808D01*
X176741447Y-133645729D01*
X176737988Y-133652804D01*
X176722329Y-133705403D01*
X176704500Y-133757338D01*
X176703206Y-133765092D01*
X176702231Y-133772911D01*
X176704500Y-133827755D01*
X176704500Y-134188959D01*
X176684815Y-134255998D01*
X176668181Y-134276640D01*
X176656923Y-134287897D01*
X176656921Y-134287900D01*
X176600419Y-134403478D01*
X176600418Y-134403480D01*
X176600418Y-134403482D01*
X176589500Y-134478418D01*
X176589500Y-134921582D01*
X176600418Y-134996517D01*
X176600418Y-134996518D01*
X176653739Y-135105588D01*
X176665498Y-135174461D01*
X176638154Y-135238758D01*
X176630022Y-135247727D01*
X176620143Y-135257605D01*
X176620142Y-135257608D01*
X176563981Y-135367827D01*
X176563981Y-135367828D01*
X176549500Y-135459264D01*
X176549500Y-135860739D01*
X176563981Y-135952170D01*
X176563981Y-135952171D01*
X176563982Y-135952174D01*
X176563983Y-135952175D01*
X176614656Y-136051627D01*
X176620142Y-136062392D01*
X176620144Y-136062395D01*
X176668180Y-136110430D01*
X176701666Y-136171753D01*
X176704500Y-136198112D01*
X176704500Y-136928196D01*
X176701862Y-136953634D01*
X176699633Y-136964268D01*
X176699633Y-136964269D01*
X176699633Y-136964271D01*
X176704023Y-136999491D01*
X176704500Y-137007167D01*
X176704500Y-137011116D01*
X176708342Y-137034141D01*
X176715134Y-137088627D01*
X176717373Y-137096147D01*
X176719934Y-137103608D01*
X176719935Y-137103610D01*
X176742063Y-137144500D01*
X176746055Y-137151877D01*
X176770174Y-137201211D01*
X176774742Y-137207609D01*
X176779582Y-137213827D01*
X176819971Y-137251009D01*
X177231782Y-137662819D01*
X177265267Y-137724142D01*
X177260283Y-137793833D01*
X177218412Y-137849767D01*
X177152947Y-137874184D01*
X177144101Y-137874500D01*
X177056899Y-137874500D01*
X176989860Y-137854815D01*
X176969218Y-137838181D01*
X175943521Y-136812482D01*
X175943519Y-136812481D01*
X175867203Y-136757992D01*
X175859323Y-136754140D01*
X175826102Y-136730420D01*
X172052017Y-132956335D01*
X172018532Y-132895012D01*
X172023516Y-132825320D01*
X172065388Y-132769387D01*
X172130852Y-132744970D01*
X172157341Y-132745915D01*
X172224000Y-132755500D01*
X172224002Y-132755500D01*
X174276000Y-132755500D01*
X174330313Y-132749661D01*
X174351049Y-132745150D01*
X174381817Y-132738457D01*
X174381817Y-132738456D01*
X174381824Y-132738455D01*
X174408198Y-132731219D01*
X174462144Y-132700500D01*
X174494818Y-132681894D01*
X174494821Y-132681891D01*
X174494828Y-132681888D01*
X174530938Y-132650597D01*
X174547629Y-132636136D01*
X174547632Y-132636133D01*
X174579257Y-132603359D01*
X174625465Y-132515024D01*
X174626086Y-132512912D01*
X174635214Y-132481824D01*
X174645150Y-132447985D01*
X174655500Y-132376000D01*
X174655500Y-131224000D01*
X174649661Y-131169687D01*
X174638455Y-131118176D01*
X174631219Y-131091802D01*
X174631216Y-131091796D01*
X174581894Y-131005181D01*
X174581888Y-131005172D01*
X174536136Y-130952371D01*
X174503359Y-130920743D01*
X174415022Y-130874534D01*
X174415022Y-130874533D01*
X174347990Y-130854851D01*
X174347978Y-130854848D01*
X174276001Y-130844500D01*
X174276000Y-130844500D01*
X173479500Y-130844500D01*
X173412461Y-130824815D01*
X173366706Y-130772011D01*
X173355500Y-130720500D01*
X173355500Y-130624000D01*
X173349661Y-130569687D01*
X173339874Y-130524698D01*
X173338457Y-130518183D01*
X173338456Y-130518182D01*
X173338455Y-130518176D01*
X173331219Y-130491802D01*
X173327332Y-130484976D01*
X173281894Y-130405181D01*
X173281888Y-130405172D01*
X173236136Y-130352371D01*
X173203359Y-130320743D01*
X173115022Y-130274534D01*
X173115022Y-130274533D01*
X173047990Y-130254851D01*
X173047978Y-130254848D01*
X172976001Y-130244500D01*
X172976000Y-130244500D01*
X172224000Y-130244500D01*
X172223997Y-130244500D01*
X172169687Y-130250338D01*
X172118183Y-130261543D01*
X172118182Y-130261543D01*
X172118176Y-130261545D01*
X172107945Y-130264352D01*
X172091806Y-130268779D01*
X172091796Y-130268783D01*
X172005181Y-130318105D01*
X172005172Y-130318111D01*
X171952371Y-130363864D01*
X171920744Y-130396639D01*
X171872321Y-130489208D01*
X171823804Y-130539486D01*
X171755807Y-130555553D01*
X171689918Y-130532307D01*
X171651962Y-130488027D01*
X171613050Y-130411658D01*
X171613046Y-130411654D01*
X171613045Y-130411652D01*
X171523347Y-130321954D01*
X171523344Y-130321952D01*
X171523342Y-130321950D01*
X171437439Y-130278180D01*
X171410301Y-130264352D01*
X171316524Y-130249500D01*
X170953482Y-130249500D01*
X170872519Y-130262323D01*
X170859696Y-130264354D01*
X170746658Y-130321950D01*
X170746657Y-130321950D01*
X170746657Y-130321951D01*
X170746652Y-130321954D01*
X170656954Y-130411652D01*
X170656949Y-130411659D01*
X170610483Y-130502852D01*
X170562508Y-130553648D01*
X170494687Y-130570442D01*
X170428552Y-130547904D01*
X170389516Y-130502852D01*
X170343050Y-130411658D01*
X170343047Y-130411655D01*
X170343045Y-130411652D01*
X170253347Y-130321954D01*
X170253344Y-130321952D01*
X170253342Y-130321950D01*
X170167439Y-130278180D01*
X170140301Y-130264352D01*
X170046524Y-130249500D01*
X169683482Y-130249500D01*
X169602519Y-130262323D01*
X169589696Y-130264354D01*
X169476658Y-130321950D01*
X169476657Y-130321950D01*
X169476657Y-130321951D01*
X169476652Y-130321954D01*
X169386954Y-130411652D01*
X169386951Y-130411657D01*
X169386950Y-130411658D01*
X169377626Y-130429958D01*
X169329352Y-130524698D01*
X169314500Y-130618475D01*
X169314500Y-132331517D01*
X169321546Y-132376001D01*
X169329354Y-132425304D01*
X169386950Y-132538342D01*
X169386952Y-132538344D01*
X169386954Y-132538347D01*
X169476652Y-132628045D01*
X169476654Y-132628046D01*
X169476658Y-132628050D01*
X169589694Y-132685645D01*
X169589698Y-132685647D01*
X169683475Y-132700499D01*
X169683481Y-132700500D01*
X170046518Y-132700499D01*
X170140304Y-132685646D01*
X170253342Y-132628050D01*
X170343050Y-132538342D01*
X170389516Y-132447145D01*
X170437490Y-132396352D01*
X170505311Y-132379557D01*
X170571445Y-132402094D01*
X170610482Y-132447145D01*
X170656950Y-132538342D01*
X170656951Y-132538343D01*
X170656954Y-132538347D01*
X170746652Y-132628045D01*
X170746654Y-132628046D01*
X170746658Y-132628050D01*
X170767725Y-132638784D01*
X170818520Y-132686758D01*
X170820476Y-132690236D01*
X170823291Y-132695437D01*
X170845801Y-132741482D01*
X170850065Y-132747455D01*
X170854580Y-132753256D01*
X170854581Y-132753257D01*
X170854582Y-132753258D01*
X170859551Y-132757832D01*
X170892275Y-132787958D01*
X175341725Y-137237406D01*
X175365444Y-137270625D01*
X175365713Y-137271175D01*
X175390174Y-137321212D01*
X176547849Y-138478886D01*
X176563977Y-138498745D01*
X176569916Y-138507836D01*
X176596794Y-138528756D01*
X176597929Y-138529639D01*
X176603691Y-138534728D01*
X176606483Y-138537520D01*
X176625486Y-138551088D01*
X176668811Y-138584809D01*
X176668813Y-138584809D01*
X176675735Y-138588555D01*
X176682798Y-138592008D01*
X176682801Y-138592010D01*
X176735412Y-138607673D01*
X176754244Y-138614138D01*
X176787339Y-138625500D01*
X176795101Y-138626795D01*
X176802911Y-138627768D01*
X176802912Y-138627769D01*
X176802912Y-138627768D01*
X176802913Y-138627769D01*
X176830340Y-138626634D01*
X176857769Y-138625500D01*
X178244098Y-138625500D01*
X178311137Y-138645185D01*
X178356892Y-138697989D01*
X178366836Y-138767147D01*
X178337811Y-138830703D01*
X178331779Y-138837181D01*
X177670781Y-139498181D01*
X177609458Y-139531666D01*
X177583100Y-139534500D01*
X177508113Y-139534500D01*
X177441074Y-139514815D01*
X177420432Y-139498181D01*
X177402396Y-139480145D01*
X177402393Y-139480143D01*
X177402391Y-139480141D01*
X177292175Y-139423983D01*
X177292174Y-139423982D01*
X177292171Y-139423981D01*
X177200735Y-139409500D01*
X176799260Y-139409500D01*
X176799260Y-139409501D01*
X176707829Y-139423981D01*
X176707828Y-139423981D01*
X176597607Y-139480142D01*
X176589710Y-139485880D01*
X176587437Y-139482751D01*
X176542655Y-139507125D01*
X176472970Y-139502045D01*
X176428780Y-139473602D01*
X176412101Y-139456922D01*
X176412099Y-139456921D01*
X176296521Y-139400419D01*
X176296519Y-139400418D01*
X176296518Y-139400418D01*
X176221582Y-139389500D01*
X175778418Y-139389500D01*
X175703482Y-139400418D01*
X175703480Y-139400418D01*
X175703478Y-139400419D01*
X175587900Y-139456921D01*
X175587897Y-139456923D01*
X175496923Y-139547897D01*
X175496921Y-139547900D01*
X175440419Y-139663478D01*
X175440418Y-139663480D01*
X175440418Y-139663482D01*
X175429500Y-139738418D01*
X175429500Y-140081582D01*
X175440418Y-140156518D01*
X175440418Y-140156519D01*
X175440419Y-140156521D01*
X175496921Y-140272099D01*
X175496923Y-140272102D01*
X175557140Y-140332319D01*
X175590625Y-140393642D01*
X175585641Y-140463334D01*
X175557144Y-140507677D01*
X175546645Y-140518177D01*
X175485324Y-140551665D01*
X175458960Y-140554500D01*
X172536899Y-140554500D01*
X172469860Y-140534815D01*
X172449218Y-140518181D01*
X170411819Y-138480781D01*
X170378334Y-138419458D01*
X170375500Y-138393100D01*
X170375500Y-138374499D01*
X170395185Y-138307460D01*
X170447989Y-138261705D01*
X170499500Y-138250499D01*
X170647871Y-138250499D01*
X170647872Y-138250499D01*
X170707483Y-138244091D01*
X170842331Y-138193796D01*
X170957546Y-138107546D01*
X171043796Y-137992331D01*
X171094091Y-137857483D01*
X171100500Y-137797873D01*
X171100499Y-136202128D01*
X171094091Y-136142517D01*
X171093257Y-136140282D01*
X171043797Y-136007671D01*
X171043793Y-136007664D01*
X170957547Y-135892455D01*
X170957544Y-135892452D01*
X170842335Y-135806206D01*
X170842328Y-135806202D01*
X170707482Y-135755908D01*
X170707483Y-135755908D01*
X170647883Y-135749501D01*
X170647881Y-135749500D01*
X170647873Y-135749500D01*
X170647864Y-135749500D01*
X169352129Y-135749500D01*
X169352123Y-135749501D01*
X169292516Y-135755908D01*
X169157671Y-135806202D01*
X169157664Y-135806206D01*
X169042455Y-135892452D01*
X169042452Y-135892455D01*
X168956206Y-136007664D01*
X168956202Y-136007671D01*
X168905908Y-136142517D01*
X168899929Y-136198135D01*
X168899501Y-136202123D01*
X168899500Y-136202135D01*
X168899500Y-136500500D01*
X168879815Y-136567539D01*
X168827011Y-136613294D01*
X168775500Y-136624500D01*
X167051041Y-136624500D01*
X166984002Y-136604815D01*
X166963360Y-136588181D01*
X166872102Y-136496923D01*
X166872099Y-136496921D01*
X166756521Y-136440419D01*
X166756519Y-136440418D01*
X166756518Y-136440418D01*
X166681582Y-136429500D01*
X166338418Y-136429500D01*
X166263482Y-136440418D01*
X166263480Y-136440418D01*
X166263478Y-136440419D01*
X166147900Y-136496921D01*
X166147897Y-136496923D01*
X166087681Y-136557140D01*
X166026358Y-136590625D01*
X165956666Y-136585641D01*
X165912319Y-136557140D01*
X165852102Y-136496923D01*
X165852099Y-136496921D01*
X165736521Y-136440419D01*
X165736519Y-136440418D01*
X165736518Y-136440418D01*
X165661582Y-136429500D01*
X165318418Y-136429500D01*
X165243482Y-136440418D01*
X165243480Y-136440418D01*
X165243478Y-136440419D01*
X165148400Y-136486900D01*
X165093940Y-136499500D01*
X164867138Y-136499500D01*
X164840781Y-136496666D01*
X164836076Y-136495642D01*
X164836068Y-136495642D01*
X164791357Y-136498840D01*
X164784337Y-136499342D01*
X164779915Y-136499500D01*
X164764199Y-136499500D01*
X164748646Y-136501736D01*
X164744250Y-136502208D01*
X164692517Y-136505909D01*
X164692514Y-136505910D01*
X164687996Y-136507595D01*
X164662320Y-136514148D01*
X164657541Y-136514835D01*
X164610355Y-136536384D01*
X164606267Y-136538077D01*
X164557668Y-136556205D01*
X164557667Y-136556206D01*
X164553802Y-136559099D01*
X164531020Y-136572616D01*
X164526631Y-136574620D01*
X164526630Y-136574621D01*
X164526628Y-136574622D01*
X164526627Y-136574623D01*
X164525816Y-136575326D01*
X164487417Y-136608597D01*
X164483973Y-136611372D01*
X164471406Y-136620780D01*
X164471402Y-136620783D01*
X164471403Y-136620783D01*
X164460290Y-136631893D01*
X164457056Y-136634904D01*
X164417862Y-136668866D01*
X164417850Y-136668880D01*
X164415240Y-136672941D01*
X164398616Y-136693569D01*
X164071407Y-137020779D01*
X163713569Y-137378615D01*
X163692941Y-137395240D01*
X163688880Y-137397850D01*
X163688867Y-137397861D01*
X163654905Y-137437055D01*
X163651892Y-137440291D01*
X163640781Y-137451403D01*
X163631353Y-137463997D01*
X163628576Y-137467442D01*
X163616069Y-137481876D01*
X163557289Y-137519648D01*
X163487420Y-137519646D01*
X163428643Y-137481870D01*
X163409566Y-137452185D01*
X163404130Y-137440282D01*
X163403763Y-137439859D01*
X163314590Y-137336946D01*
X163314586Y-137336942D01*
X163211989Y-137271009D01*
X163199561Y-137263022D01*
X163199560Y-137263021D01*
X163199559Y-137263021D01*
X163068368Y-137224500D01*
X163068367Y-137224500D01*
X162931633Y-137224500D01*
X162931632Y-137224500D01*
X162800440Y-137263021D01*
X162685413Y-137336942D01*
X162685409Y-137336946D01*
X162595872Y-137440278D01*
X162595867Y-137440285D01*
X162539070Y-137564654D01*
X162539068Y-137564662D01*
X162519610Y-137700000D01*
X162539068Y-137835337D01*
X162539068Y-137835339D01*
X162539068Y-137835340D01*
X162539069Y-137835342D01*
X162565706Y-137893668D01*
X162579593Y-137924077D01*
X162589536Y-137993236D01*
X162560510Y-138056792D01*
X162554480Y-138063268D01*
X162520145Y-138097603D01*
X162520142Y-138097608D01*
X162520141Y-138097609D01*
X162510642Y-138116252D01*
X162463981Y-138207827D01*
X162463981Y-138207828D01*
X162449500Y-138299264D01*
X162449500Y-138700739D01*
X162463981Y-138792170D01*
X162463981Y-138792171D01*
X162463982Y-138792174D01*
X162463983Y-138792175D01*
X162520141Y-138902391D01*
X162588182Y-138970432D01*
X162621666Y-139031753D01*
X162624500Y-139058112D01*
X162624500Y-139200500D01*
X162604815Y-139267539D01*
X162552011Y-139313294D01*
X162500501Y-139324500D01*
X162386867Y-139324500D01*
X162371839Y-139326478D01*
X162339455Y-139330741D01*
X162339453Y-139330742D01*
X162339450Y-139330742D01*
X162228774Y-139382352D01*
X162159696Y-139392844D01*
X162095912Y-139364324D01*
X162088688Y-139357651D01*
X161507856Y-138776819D01*
X160867149Y-138136111D01*
X160851022Y-138116252D01*
X160845086Y-138107167D01*
X160845083Y-138107163D01*
X160817074Y-138085363D01*
X160811310Y-138080272D01*
X160808515Y-138077477D01*
X160789505Y-138063906D01*
X160788685Y-138063268D01*
X160780365Y-138056792D01*
X160746189Y-138030190D01*
X160739274Y-138026448D01*
X160732200Y-138022990D01*
X160679596Y-138007329D01*
X160627658Y-137989499D01*
X160619923Y-137988208D01*
X160612085Y-137987231D01*
X160557244Y-137989500D01*
X159692254Y-137989500D01*
X159625215Y-137969815D01*
X159604577Y-137953185D01*
X159538342Y-137886950D01*
X159447148Y-137840484D01*
X159396353Y-137792510D01*
X159379558Y-137724689D01*
X159402096Y-137658554D01*
X159447150Y-137619515D01*
X159467758Y-137609015D01*
X159524052Y-137595500D01*
X160317857Y-137595500D01*
X160344215Y-137598334D01*
X160348927Y-137599359D01*
X160400671Y-137595657D01*
X160405094Y-137595500D01*
X160420799Y-137595500D01*
X160436342Y-137593264D01*
X160440740Y-137592791D01*
X160492483Y-137589091D01*
X160496992Y-137587408D01*
X160522685Y-137580850D01*
X160527457Y-137580165D01*
X160574646Y-137558613D01*
X160578728Y-137556922D01*
X160607638Y-137546140D01*
X160627329Y-137538797D01*
X160627329Y-137538796D01*
X160627331Y-137538796D01*
X160629972Y-137536819D01*
X160631191Y-137535907D01*
X160653955Y-137522394D01*
X160655725Y-137521586D01*
X160697550Y-137510749D01*
X160700721Y-137510499D01*
X160700734Y-137510499D01*
X160756949Y-137501596D01*
X160792170Y-137496018D01*
X160792171Y-137496018D01*
X160792172Y-137496017D01*
X160792175Y-137496017D01*
X160902391Y-137439859D01*
X160989859Y-137352391D01*
X161046017Y-137242175D01*
X161046017Y-137242173D01*
X161046018Y-137242172D01*
X161046018Y-137242171D01*
X161051492Y-137207609D01*
X161060500Y-137150735D01*
X161060499Y-136809266D01*
X161060499Y-136809265D01*
X161060499Y-136809260D01*
X161046018Y-136717829D01*
X161046018Y-136717828D01*
X161046017Y-136717826D01*
X161046017Y-136717825D01*
X160989859Y-136607609D01*
X160989857Y-136607607D01*
X160989854Y-136607603D01*
X160902396Y-136520145D01*
X160902393Y-136520143D01*
X160902391Y-136520141D01*
X160792175Y-136463983D01*
X160792174Y-136463982D01*
X160792171Y-136463981D01*
X160700735Y-136449500D01*
X160299260Y-136449500D01*
X160299260Y-136449501D01*
X160207829Y-136463981D01*
X160207828Y-136463981D01*
X160097607Y-136520142D01*
X160097604Y-136520144D01*
X160059570Y-136558180D01*
X159998247Y-136591666D01*
X159971888Y-136594500D01*
X159524052Y-136594500D01*
X159467758Y-136580985D01*
X159425301Y-136559352D01*
X159331524Y-136544500D01*
X159331519Y-136544500D01*
X159184283Y-136544500D01*
X159117244Y-136524815D01*
X159071489Y-136472011D01*
X159061545Y-136402853D01*
X159068101Y-136377168D01*
X159094089Y-136307489D01*
X159094089Y-136307488D01*
X159094091Y-136307483D01*
X159104359Y-136163927D01*
X159073766Y-136023294D01*
X159043136Y-135967199D01*
X159004794Y-135896981D01*
X159004788Y-135896974D01*
X158903025Y-135795211D01*
X158903018Y-135795205D01*
X158776706Y-135726234D01*
X158776702Y-135726233D01*
X158636074Y-135695641D01*
X158636069Y-135695641D01*
X158521228Y-135703855D01*
X158492517Y-135705909D01*
X158492515Y-135705909D01*
X158492513Y-135705910D01*
X158357671Y-135756202D01*
X158357668Y-135756204D01*
X158271412Y-135820775D01*
X158271399Y-135820786D01*
X158168565Y-135923618D01*
X158147938Y-135940243D01*
X158143875Y-135942854D01*
X158143867Y-135942861D01*
X158109905Y-135982055D01*
X158106892Y-135985291D01*
X158095781Y-135996402D01*
X158086354Y-136008996D01*
X158083587Y-136012428D01*
X158073117Y-136024513D01*
X158049623Y-136051626D01*
X158049617Y-136051636D01*
X158047615Y-136056020D01*
X158034100Y-136078799D01*
X158031206Y-136082664D01*
X158031200Y-136082675D01*
X158013078Y-136131264D01*
X158011385Y-136135353D01*
X157989835Y-136182543D01*
X157989833Y-136182550D01*
X157989146Y-136187327D01*
X157982598Y-136212986D01*
X157980910Y-136217513D01*
X157980909Y-136217517D01*
X157977207Y-136269260D01*
X157976734Y-136273656D01*
X157974500Y-136289199D01*
X157974500Y-136304904D01*
X157974342Y-136309329D01*
X157970641Y-136361069D01*
X157970641Y-136361073D01*
X157971666Y-136365785D01*
X157974500Y-136392143D01*
X157974500Y-136420500D01*
X157954815Y-136487539D01*
X157902011Y-136533294D01*
X157850501Y-136544500D01*
X157618482Y-136544500D01*
X157544573Y-136556206D01*
X157524696Y-136559354D01*
X157411658Y-136616950D01*
X157411657Y-136616951D01*
X157411652Y-136616954D01*
X157321954Y-136706652D01*
X157321951Y-136706657D01*
X157321950Y-136706658D01*
X157305406Y-136739127D01*
X157264352Y-136819698D01*
X157249500Y-136913475D01*
X157249500Y-136919100D01*
X157229815Y-136986139D01*
X157177011Y-137031894D01*
X157107853Y-137041838D01*
X157044297Y-137012813D01*
X157037819Y-137006781D01*
X156911819Y-136880781D01*
X156878334Y-136819458D01*
X156875500Y-136793100D01*
X156875500Y-136041040D01*
X156895185Y-135974001D01*
X156911819Y-135953359D01*
X156932136Y-135933042D01*
X156953076Y-135912102D01*
X156953079Y-135912095D01*
X156953081Y-135912093D01*
X156997723Y-135820775D01*
X157009582Y-135796518D01*
X157020500Y-135721582D01*
X157020500Y-135278418D01*
X157009582Y-135203482D01*
X157006151Y-135196463D01*
X156953078Y-135087900D01*
X156953076Y-135087897D01*
X156862102Y-134996923D01*
X156862099Y-134996921D01*
X156746521Y-134940419D01*
X156746519Y-134940418D01*
X156746518Y-134940418D01*
X156671582Y-134929500D01*
X156328418Y-134929500D01*
X156253482Y-134940418D01*
X156253480Y-134940418D01*
X156253478Y-134940419D01*
X156137900Y-134996921D01*
X156137897Y-134996923D01*
X156077681Y-135057140D01*
X156016358Y-135090625D01*
X155946666Y-135085641D01*
X155902319Y-135057140D01*
X155842102Y-134996923D01*
X155842099Y-134996921D01*
X155726521Y-134940419D01*
X155726519Y-134940418D01*
X155726518Y-134940418D01*
X155651582Y-134929500D01*
X155308418Y-134929500D01*
X155233482Y-134940418D01*
X155233480Y-134940418D01*
X155233478Y-134940419D01*
X155117900Y-134996921D01*
X155117897Y-134996923D01*
X155026923Y-135087897D01*
X155026921Y-135087900D01*
X154970419Y-135203478D01*
X154970418Y-135203480D01*
X154970418Y-135203482D01*
X154959500Y-135278418D01*
X154959500Y-135721582D01*
X154970418Y-135796518D01*
X154970418Y-135796519D01*
X154970419Y-135796521D01*
X155026921Y-135912099D01*
X155026923Y-135912102D01*
X155068180Y-135953358D01*
X155101666Y-136014681D01*
X155104500Y-136041040D01*
X155104500Y-137513099D01*
X155084815Y-137580138D01*
X155068181Y-137600780D01*
X154772858Y-137896103D01*
X154711535Y-137929588D01*
X154641843Y-137924604D01*
X154597496Y-137896103D01*
X154588347Y-137886954D01*
X154588343Y-137886951D01*
X154588342Y-137886950D01*
X154563908Y-137874500D01*
X154497147Y-137840483D01*
X154446352Y-137792509D01*
X154429557Y-137724687D01*
X154452095Y-137658553D01*
X154497145Y-137619517D01*
X154588342Y-137573050D01*
X154678050Y-137483342D01*
X154735646Y-137370304D01*
X154735646Y-137370302D01*
X154735647Y-137370301D01*
X154750499Y-137276524D01*
X154750500Y-137276519D01*
X154750499Y-136913482D01*
X154735646Y-136819696D01*
X154678050Y-136706658D01*
X154678046Y-136706654D01*
X154678045Y-136706652D01*
X154588347Y-136616954D01*
X154588344Y-136616952D01*
X154588342Y-136616950D01*
X154491368Y-136567539D01*
X154475301Y-136559352D01*
X154381524Y-136544500D01*
X152668482Y-136544500D01*
X152574695Y-136559354D01*
X152466627Y-136614417D01*
X152397958Y-136627313D01*
X152333217Y-136601036D01*
X152322652Y-136591613D01*
X152322148Y-136591109D01*
X152306022Y-136571252D01*
X152300085Y-136562166D01*
X152300083Y-136562163D01*
X152272074Y-136540363D01*
X152266310Y-136535272D01*
X152263515Y-136532477D01*
X152246239Y-136520144D01*
X152244504Y-136518905D01*
X152229973Y-136507595D01*
X152201189Y-136485190D01*
X152194274Y-136481448D01*
X152187200Y-136477990D01*
X152134596Y-136462329D01*
X152082658Y-136444499D01*
X152074923Y-136443208D01*
X152067083Y-136442231D01*
X152042104Y-136443264D01*
X151974309Y-136426365D01*
X151949302Y-136407051D01*
X151902396Y-136360145D01*
X151902393Y-136360143D01*
X151902391Y-136360141D01*
X151792175Y-136303983D01*
X151792174Y-136303982D01*
X151792171Y-136303981D01*
X151700735Y-136289500D01*
X151299260Y-136289500D01*
X151299260Y-136289501D01*
X151207829Y-136303981D01*
X151207828Y-136303981D01*
X151097607Y-136360142D01*
X151097604Y-136360144D01*
X151049570Y-136408180D01*
X150988247Y-136441666D01*
X150961888Y-136444500D01*
X150931804Y-136444500D01*
X150906359Y-136441861D01*
X150895733Y-136439633D01*
X150895730Y-136439633D01*
X150860508Y-136444023D01*
X150852832Y-136444500D01*
X150848886Y-136444500D01*
X150831615Y-136447381D01*
X150825858Y-136448342D01*
X150771370Y-136455134D01*
X150763857Y-136457371D01*
X150756387Y-136459936D01*
X150708122Y-136486055D01*
X150658792Y-136510171D01*
X150652375Y-136514753D01*
X150646175Y-136519579D01*
X150608992Y-136559970D01*
X148610389Y-138558572D01*
X148549066Y-138592057D01*
X148479374Y-138587073D01*
X148457921Y-138575557D01*
X148337801Y-138514352D01*
X148244024Y-138499500D01*
X147005982Y-138499500D01*
X146929642Y-138511591D01*
X146912196Y-138514354D01*
X146799158Y-138571950D01*
X146799157Y-138571951D01*
X146799152Y-138571954D01*
X146709454Y-138661652D01*
X146709451Y-138661657D01*
X146709450Y-138661658D01*
X146705063Y-138670268D01*
X146651852Y-138774698D01*
X146651852Y-138774699D01*
X146646973Y-138805508D01*
X146617043Y-138868643D01*
X146557732Y-138905574D01*
X146487869Y-138904576D01*
X146429637Y-138865966D01*
X146401523Y-138802002D01*
X146400500Y-138786110D01*
X146400500Y-137271175D01*
X146420185Y-137204136D01*
X146436815Y-137183498D01*
X146908495Y-136711817D01*
X146969818Y-136678333D01*
X146996176Y-136675499D01*
X147497871Y-136675499D01*
X147497872Y-136675499D01*
X147557483Y-136669091D01*
X147692331Y-136618796D01*
X147807546Y-136532546D01*
X147893796Y-136417331D01*
X147944091Y-136282483D01*
X147950500Y-136222873D01*
X147950499Y-135602128D01*
X147944091Y-135542517D01*
X147943005Y-135539606D01*
X147893797Y-135407671D01*
X147893793Y-135407664D01*
X147807547Y-135292455D01*
X147807544Y-135292452D01*
X147692335Y-135206206D01*
X147692328Y-135206202D01*
X147557482Y-135155908D01*
X147557483Y-135155908D01*
X147497883Y-135149501D01*
X147497881Y-135149500D01*
X147497873Y-135149500D01*
X147497864Y-135149500D01*
X146502129Y-135149500D01*
X146502123Y-135149501D01*
X146442516Y-135155908D01*
X146307671Y-135206202D01*
X146307664Y-135206206D01*
X146192455Y-135292452D01*
X146192452Y-135292455D01*
X146106206Y-135407664D01*
X146106202Y-135407671D01*
X146055908Y-135542517D01*
X146049501Y-135602116D01*
X146049501Y-135602123D01*
X146049500Y-135602135D01*
X146049500Y-136103822D01*
X146029815Y-136170861D01*
X146013181Y-136191503D01*
X145593568Y-136611116D01*
X145572938Y-136627743D01*
X145568876Y-136630354D01*
X145568867Y-136630361D01*
X145534905Y-136669555D01*
X145531892Y-136672791D01*
X145520780Y-136683904D01*
X145518214Y-136686866D01*
X145459437Y-136724642D01*
X145389567Y-136724643D01*
X145330788Y-136686869D01*
X145301762Y-136623314D01*
X145300500Y-136605665D01*
X145300500Y-122776002D01*
X147744500Y-122776002D01*
X147750338Y-122830312D01*
X147761543Y-122881817D01*
X147761545Y-122881824D01*
X147765212Y-122895191D01*
X147768779Y-122908193D01*
X147768783Y-122908203D01*
X147818105Y-122994818D01*
X147818111Y-122994827D01*
X147853905Y-123036136D01*
X147863867Y-123047632D01*
X147896641Y-123079257D01*
X147984976Y-123125465D01*
X147984977Y-123125465D01*
X147984977Y-123125466D01*
X148029218Y-123138456D01*
X148052015Y-123145150D01*
X148052019Y-123145150D01*
X148052021Y-123145151D01*
X148063652Y-123146823D01*
X148124000Y-123155500D01*
X148124001Y-123155500D01*
X169376000Y-123155500D01*
X169430313Y-123149661D01*
X169446440Y-123146152D01*
X169481817Y-123138457D01*
X169481817Y-123138456D01*
X169481824Y-123138455D01*
X169508198Y-123131219D01*
X169537074Y-123114775D01*
X169594818Y-123081894D01*
X169594821Y-123081891D01*
X169594828Y-123081888D01*
X169630938Y-123050597D01*
X169647629Y-123036136D01*
X169647632Y-123036133D01*
X169679257Y-123003359D01*
X169725465Y-122915024D01*
X169727470Y-122908198D01*
X169735216Y-122881817D01*
X169745150Y-122847985D01*
X169755500Y-122776000D01*
X169755500Y-121179499D01*
X169775185Y-121112461D01*
X169827989Y-121066706D01*
X169879500Y-121055500D01*
X178776000Y-121055500D01*
X178830313Y-121049661D01*
X178846440Y-121046152D01*
X178881817Y-121038457D01*
X178881817Y-121038456D01*
X178881824Y-121038455D01*
X178908198Y-121031219D01*
X178937074Y-121014775D01*
X178994818Y-120981894D01*
X178994821Y-120981891D01*
X178994828Y-120981888D01*
X179047632Y-120936133D01*
X179079257Y-120903359D01*
X179125465Y-120815024D01*
X179145150Y-120747985D01*
X179155500Y-120676000D01*
X179155500Y-117024000D01*
X179149661Y-116969687D01*
X179138455Y-116918176D01*
X179131219Y-116891802D01*
X179127332Y-116884976D01*
X179081894Y-116805181D01*
X179081888Y-116805172D01*
X179036136Y-116752371D01*
X179003359Y-116720743D01*
X178915022Y-116674534D01*
X178915022Y-116674533D01*
X178847990Y-116654851D01*
X178847978Y-116654848D01*
X178776001Y-116644500D01*
X178776000Y-116644500D01*
X148124000Y-116644500D01*
X148123997Y-116644500D01*
X148069687Y-116650338D01*
X148018183Y-116661543D01*
X148018182Y-116661543D01*
X148018176Y-116661545D01*
X148007177Y-116664562D01*
X147991806Y-116668779D01*
X147991796Y-116668783D01*
X147905181Y-116718105D01*
X147905172Y-116718111D01*
X147852371Y-116763864D01*
X147820743Y-116796640D01*
X147774534Y-116884977D01*
X147774533Y-116884977D01*
X147754851Y-116952009D01*
X147754848Y-116952021D01*
X147744500Y-117023998D01*
X147744500Y-122776002D01*
X145300500Y-122776002D01*
X145300500Y-110000000D01*
X145301716Y-109972156D01*
X145318265Y-109593092D01*
X145318734Y-109587743D01*
X145371543Y-109186614D01*
X145372481Y-109181302D01*
X145460047Y-108786319D01*
X145461441Y-108781112D01*
X145583104Y-108395247D01*
X145584951Y-108390174D01*
X145739782Y-108016378D01*
X145742045Y-108011526D01*
X145928870Y-107652639D01*
X145931566Y-107647971D01*
X146148942Y-107306758D01*
X146152035Y-107302340D01*
X146398339Y-106981349D01*
X146401798Y-106977228D01*
X146675133Y-106678936D01*
X146678936Y-106675133D01*
X146977228Y-106401798D01*
X146981349Y-106398339D01*
X147302340Y-106152035D01*
X147306750Y-106148947D01*
X147647971Y-105931566D01*
X147652639Y-105928870D01*
X148011526Y-105742045D01*
X148016378Y-105739782D01*
X148390181Y-105584948D01*
X148395247Y-105583104D01*
X148781112Y-105461441D01*
X148786319Y-105460047D01*
X149181302Y-105372481D01*
X149186614Y-105371543D01*
X149587743Y-105318734D01*
X149593092Y-105318265D01*
X150000000Y-105300500D01*
X150047595Y-105300500D01*
X189952405Y-105300500D01*
X190000000Y-105300500D01*
X190406905Y-105318265D01*
G37*
G04 #@! TD.AperFunction*
G04 #@! TA.AperFunction,Conductor*
G36*
X188743039Y-122019685D02*
G01*
X188788794Y-122072489D01*
X188800000Y-122124000D01*
X188800000Y-127876000D01*
X188780315Y-127943039D01*
X188727511Y-127988794D01*
X188676000Y-128000000D01*
X170779500Y-128000000D01*
X170712461Y-127980315D01*
X170666706Y-127927511D01*
X170655500Y-127876000D01*
X170655500Y-124123737D01*
X170655499Y-124123727D01*
X170649719Y-124069697D01*
X170649718Y-124069694D01*
X170649718Y-124069690D01*
X170638621Y-124018418D01*
X170631499Y-123992292D01*
X170616116Y-123965146D01*
X170600000Y-123904014D01*
X170600000Y-122124000D01*
X170619685Y-122056961D01*
X170672489Y-122011206D01*
X170724000Y-122000000D01*
X188676000Y-122000000D01*
X188743039Y-122019685D01*
G37*
G04 #@! TD.AperFunction*
G04 #@! TA.AperFunction,Conductor*
G36*
X170276266Y-123999737D02*
G01*
X170343260Y-124019564D01*
X170388903Y-124072465D01*
X170400000Y-124123737D01*
X170400000Y-128176000D01*
X170380315Y-128243039D01*
X170327511Y-128288794D01*
X170276000Y-128300000D01*
X166400000Y-128300000D01*
X166400000Y-132976000D01*
X166380315Y-133043039D01*
X166327511Y-133088794D01*
X166276000Y-133100000D01*
X148124000Y-133100000D01*
X148056961Y-133080315D01*
X148011206Y-133027511D01*
X148000000Y-132976000D01*
X148000000Y-127124000D01*
X148019685Y-127056961D01*
X148072489Y-127011206D01*
X148124000Y-127000000D01*
X153999999Y-127000000D01*
X154000000Y-127000000D01*
X154036946Y-124088036D01*
X154057479Y-124021254D01*
X154110860Y-123976172D01*
X154161195Y-123965611D01*
X170276266Y-123999737D01*
G37*
G04 #@! TD.AperFunction*
G04 #@! TA.AperFunction,Conductor*
G36*
X178843039Y-116919685D02*
G01*
X178888794Y-116972489D01*
X178900000Y-117024000D01*
X178900000Y-120676000D01*
X178880315Y-120743039D01*
X178827511Y-120788794D01*
X178776000Y-120800000D01*
X169500000Y-120800000D01*
X169500000Y-122776000D01*
X169480315Y-122843039D01*
X169427511Y-122888794D01*
X169376000Y-122900000D01*
X148124000Y-122900000D01*
X148056961Y-122880315D01*
X148011206Y-122827511D01*
X148000000Y-122776000D01*
X148000000Y-117024000D01*
X148019685Y-116956961D01*
X148072489Y-116911206D01*
X148124000Y-116900000D01*
X178776000Y-116900000D01*
X178843039Y-116919685D01*
G37*
G04 #@! TD.AperFunction*
G04 #@! TA.AperFunction,Conductor*
G36*
X194642539Y-120919685D02*
G01*
X194688294Y-120972489D01*
X194699500Y-121024000D01*
X194699500Y-127476000D01*
X194679815Y-127543039D01*
X194627011Y-127588794D01*
X194575500Y-127600000D01*
X189424000Y-127600000D01*
X189356961Y-127580315D01*
X189311206Y-127527511D01*
X189300000Y-127476000D01*
X189300000Y-121024000D01*
X189319685Y-120956961D01*
X189372489Y-120911206D01*
X189424000Y-120900000D01*
X194575500Y-120900000D01*
X194642539Y-120919685D01*
G37*
G04 #@! TD.AperFunction*
M02*
