G04 #@! TF.GenerationSoftware,KiCad,Pcbnew,7.0.7*
G04 #@! TF.CreationDate,2023-10-26T17:58:54+02:00*
G04 #@! TF.ProjectId,load,6c6f6164-2e6b-4696-9361-645f70636258,rev?*
G04 #@! TF.SameCoordinates,Original*
G04 #@! TF.FileFunction,Copper,L4,Bot*
G04 #@! TF.FilePolarity,Positive*
%FSLAX46Y46*%
G04 Gerber Fmt 4.6, Leading zero omitted, Abs format (unit mm)*
G04 Created by KiCad (PCBNEW 7.0.7) date 2023-10-26 17:58:54*
%MOMM*%
%LPD*%
G01*
G04 APERTURE LIST*
G04 Aperture macros list*
%AMRoundRect*
0 Rectangle with rounded corners*
0 $1 Rounding radius*
0 $2 $3 $4 $5 $6 $7 $8 $9 X,Y pos of 4 corners*
0 Add a 4 corners polygon primitive as box body*
4,1,4,$2,$3,$4,$5,$6,$7,$8,$9,$2,$3,0*
0 Add four circle primitives for the rounded corners*
1,1,$1+$1,$2,$3*
1,1,$1+$1,$4,$5*
1,1,$1+$1,$6,$7*
1,1,$1+$1,$8,$9*
0 Add four rect primitives between the rounded corners*
20,1,$1+$1,$2,$3,$4,$5,0*
20,1,$1+$1,$4,$5,$6,$7,0*
20,1,$1+$1,$6,$7,$8,$9,0*
20,1,$1+$1,$8,$9,$2,$3,0*%
G04 Aperture macros list end*
G04 #@! TA.AperFunction,ComponentPad*
%ADD10C,0.900000*%
G04 #@! TD*
G04 #@! TA.AperFunction,ComponentPad*
%ADD11C,8.600000*%
G04 #@! TD*
G04 #@! TA.AperFunction,ComponentPad*
%ADD12RoundRect,0.250000X-0.600000X-0.750000X0.600000X-0.750000X0.600000X0.750000X-0.600000X0.750000X0*%
G04 #@! TD*
G04 #@! TA.AperFunction,ComponentPad*
%ADD13O,1.700000X2.000000*%
G04 #@! TD*
G04 #@! TA.AperFunction,ComponentPad*
%ADD14RoundRect,0.250000X-0.600000X-0.725000X0.600000X-0.725000X0.600000X0.725000X-0.600000X0.725000X0*%
G04 #@! TD*
G04 #@! TA.AperFunction,ComponentPad*
%ADD15O,1.700000X1.950000*%
G04 #@! TD*
G04 #@! TA.AperFunction,ComponentPad*
%ADD16R,2.100000X2.100000*%
G04 #@! TD*
G04 #@! TA.AperFunction,ComponentPad*
%ADD17C,2.100000*%
G04 #@! TD*
G04 #@! TA.AperFunction,ComponentPad*
%ADD18R,4.500000X2.500000*%
G04 #@! TD*
G04 #@! TA.AperFunction,ComponentPad*
%ADD19O,4.500000X2.500000*%
G04 #@! TD*
G04 #@! TA.AperFunction,ViaPad*
%ADD20C,0.450000*%
G04 #@! TD*
G04 #@! TA.AperFunction,Conductor*
%ADD21C,0.250000*%
G04 #@! TD*
G04 APERTURE END LIST*
D10*
X146775000Y-150000000D03*
X147719581Y-147719581D03*
X147719581Y-152280419D03*
X150000000Y-146775000D03*
D11*
X150000000Y-150000000D03*
D10*
X150000000Y-153225000D03*
X152280419Y-147719581D03*
X152280419Y-152280419D03*
X153225000Y-150000000D03*
D12*
X170000000Y-137000000D03*
D13*
X172500000Y-137000000D03*
D14*
X159000000Y-149500000D03*
D15*
X161500000Y-149500000D03*
X164000000Y-149500000D03*
X166500000Y-149500000D03*
X169000000Y-149500000D03*
X171500000Y-149500000D03*
X174000000Y-149500000D03*
X176500000Y-149500000D03*
X179000000Y-149500000D03*
X181500000Y-149500000D03*
D16*
X191000000Y-122000000D03*
D17*
X191000000Y-119460000D03*
D10*
X186775000Y-110000000D03*
X187719581Y-107719581D03*
X187719581Y-112280419D03*
X190000000Y-106775000D03*
D11*
X190000000Y-110000000D03*
D10*
X190000000Y-113225000D03*
X192280419Y-107719581D03*
X192280419Y-112280419D03*
X193225000Y-110000000D03*
D18*
X151020000Y-130450000D03*
D19*
X151020000Y-125000000D03*
X151020000Y-119550000D03*
D10*
X146775000Y-110000000D03*
X147719581Y-107719581D03*
X147719581Y-112280419D03*
X150000000Y-106775000D03*
D11*
X150000000Y-110000000D03*
D10*
X150000000Y-113225000D03*
X152280419Y-107719581D03*
X152280419Y-112280419D03*
X153225000Y-110000000D03*
X186775000Y-150000000D03*
X187719581Y-147719581D03*
X187719581Y-152280419D03*
X190000000Y-146775000D03*
D11*
X190000000Y-150000000D03*
D10*
X190000000Y-153225000D03*
X192280419Y-147719581D03*
X192280419Y-152280419D03*
X193225000Y-150000000D03*
D16*
X191000000Y-132500000D03*
D17*
X191000000Y-129960000D03*
D20*
X180500000Y-111250000D03*
X185500000Y-114750000D03*
X168750000Y-112500000D03*
X174000000Y-112500000D03*
X185500000Y-117750000D03*
X174750000Y-112500000D03*
X188000000Y-117250000D03*
X170500000Y-111000000D03*
X160300000Y-116100000D03*
X185500000Y-116250000D03*
X155500000Y-144400000D03*
X161250000Y-112500000D03*
X173250000Y-113250000D03*
X178000000Y-111000000D03*
X167250000Y-112500000D03*
X172500000Y-112500000D03*
X182200000Y-139100000D03*
X193000000Y-138500000D03*
X175500000Y-112500000D03*
X183500000Y-134750000D03*
X161250000Y-113250000D03*
X171750000Y-112500000D03*
X178000000Y-109500000D03*
X168000000Y-109500000D03*
X165500000Y-111000000D03*
X185750000Y-139250000D03*
X180500000Y-109750000D03*
X159500000Y-142000000D03*
X188000000Y-118750000D03*
X182500000Y-135750000D03*
X180500000Y-112750000D03*
X162000000Y-112500000D03*
X183000000Y-112250000D03*
X165500000Y-109500000D03*
X167750000Y-132000000D03*
X166500000Y-113250000D03*
X163500000Y-112500000D03*
X172500000Y-113250000D03*
X189500000Y-140500000D03*
X171000000Y-112500000D03*
X173000000Y-109500000D03*
X150500000Y-143250000D03*
X168000000Y-113250000D03*
X169500000Y-112500000D03*
X175500000Y-109500000D03*
X188000000Y-120250000D03*
X168000000Y-111000000D03*
X167750000Y-131000000D03*
X165000000Y-112500000D03*
X162750000Y-113250000D03*
X163000000Y-111000000D03*
X171750000Y-113250000D03*
X150500000Y-142500000D03*
X183000000Y-115250000D03*
X162000000Y-113250000D03*
X175500000Y-113250000D03*
X173000000Y-111000000D03*
X185000000Y-139250000D03*
X164250000Y-112500000D03*
X170250000Y-112500000D03*
X178000000Y-112500000D03*
X162750000Y-112500000D03*
X163500000Y-113250000D03*
X173250000Y-112500000D03*
X170250000Y-113250000D03*
X163000000Y-109500000D03*
X166500000Y-112500000D03*
X158750000Y-142000000D03*
X165750000Y-112500000D03*
X174000000Y-113250000D03*
X194000000Y-138500000D03*
X183000000Y-113750000D03*
X164250000Y-113250000D03*
X163250000Y-142250000D03*
X170500000Y-109500000D03*
X174750000Y-113250000D03*
X175500000Y-111000000D03*
X167250000Y-113250000D03*
X178600000Y-140300000D03*
X168000000Y-112500000D03*
X165750000Y-113250000D03*
X183500000Y-139750000D03*
X156250000Y-139000000D03*
X168750000Y-113250000D03*
X165000000Y-113250000D03*
X169500000Y-113250000D03*
X171000000Y-113250000D03*
X193600000Y-144000000D03*
X192900000Y-143300000D03*
X192900000Y-144000000D03*
X149100000Y-140800000D03*
X149800000Y-140800000D03*
X158600000Y-136200000D03*
X193600000Y-143300000D03*
X153400000Y-141900000D03*
X184300000Y-152500000D03*
X183600000Y-152500000D03*
X183600000Y-153200000D03*
X152700000Y-141900000D03*
X184300000Y-153200000D03*
X163000000Y-137700000D03*
X175200000Y-143800000D03*
X172400000Y-144600000D03*
X177600000Y-146900000D03*
X173500000Y-132200000D03*
X174100000Y-132200000D03*
X184100000Y-137900000D03*
X164400000Y-137400000D03*
X179000000Y-146300000D03*
X183600000Y-141400000D03*
X178500000Y-146900000D03*
X178100000Y-146300000D03*
X183600000Y-142000000D03*
X176250000Y-126250000D03*
X174250000Y-124500000D03*
X172750000Y-125250000D03*
X176250000Y-123250000D03*
X171250000Y-125250000D03*
X172000000Y-125250000D03*
X184500000Y-123250000D03*
X174250000Y-127500000D03*
X173500000Y-125250000D03*
X172750000Y-124500000D03*
X173500000Y-124500000D03*
X174250000Y-126000000D03*
X171250000Y-124500000D03*
X183750000Y-126250000D03*
X173750000Y-123250000D03*
X181250000Y-126250000D03*
X187000000Y-123250000D03*
X172000000Y-124500000D03*
X174250000Y-126750000D03*
X176250000Y-124750000D03*
X174250000Y-125250000D03*
X183750000Y-124750000D03*
X173500000Y-127500000D03*
X178750000Y-124750000D03*
X178750000Y-123250000D03*
X178750000Y-126250000D03*
X173500000Y-126750000D03*
X173500000Y-126000000D03*
X181250000Y-124750000D03*
X191500000Y-125250000D03*
X191500000Y-124500000D03*
X193000000Y-126750000D03*
X192250000Y-125250000D03*
X193000000Y-124500000D03*
X191500000Y-126000000D03*
X190000000Y-124500000D03*
X193000000Y-126000000D03*
X190750000Y-124500000D03*
X192250000Y-126750000D03*
X193000000Y-125250000D03*
X192250000Y-126000000D03*
X192250000Y-124500000D03*
X191500000Y-126750000D03*
X183400000Y-137100000D03*
X181400000Y-134400000D03*
X180700000Y-135200000D03*
X183100000Y-136400000D03*
X165400000Y-141300000D03*
X161500000Y-125250000D03*
X159000000Y-131250000D03*
X169500000Y-124500000D03*
X168750000Y-125250000D03*
X156500000Y-129750000D03*
X161500000Y-131250000D03*
X164000000Y-128250000D03*
X166500000Y-127500000D03*
X167250000Y-125250000D03*
X167250000Y-127500000D03*
X167250000Y-126000000D03*
X166500000Y-125250000D03*
X159000000Y-125250000D03*
X164000000Y-129750000D03*
X164000000Y-125250000D03*
X166500000Y-126750000D03*
X156500000Y-126750000D03*
X156500000Y-125250000D03*
X166500000Y-126000000D03*
X167250000Y-126750000D03*
X161500000Y-128250000D03*
X168000000Y-125250000D03*
X161500000Y-126750000D03*
X166500000Y-124500000D03*
X156500000Y-128250000D03*
X161500000Y-129750000D03*
X164000000Y-131250000D03*
X164000000Y-126750000D03*
X159000000Y-128250000D03*
X156500000Y-131250000D03*
X159000000Y-129750000D03*
X159000000Y-126750000D03*
X168750000Y-124500000D03*
X167250000Y-124500000D03*
X169500000Y-125250000D03*
X168000000Y-124500000D03*
X160300000Y-117400000D03*
X169250000Y-119750000D03*
X165500000Y-119750000D03*
X164000000Y-119750000D03*
X156500000Y-121250000D03*
X161000000Y-119750000D03*
X171500000Y-119750000D03*
X164750000Y-119750000D03*
X161750000Y-119750000D03*
X177500000Y-119750000D03*
X164000000Y-121250000D03*
X174500000Y-119750000D03*
X176750000Y-119750000D03*
X161500000Y-121250000D03*
X151500000Y-140800000D03*
X176000000Y-119750000D03*
X167750000Y-119750000D03*
X159000000Y-118250000D03*
X159000000Y-121250000D03*
X175250000Y-119750000D03*
X168500000Y-119750000D03*
X166250000Y-119750000D03*
X167000000Y-119750000D03*
X166500000Y-121250000D03*
X162500000Y-119750000D03*
X173750000Y-119750000D03*
X172250000Y-119750000D03*
X170750000Y-119750000D03*
X173000000Y-119750000D03*
X156500000Y-119750000D03*
X159000000Y-119750000D03*
X156500000Y-118250000D03*
X163250000Y-119750000D03*
X170000000Y-119750000D03*
D21*
X155500000Y-141800000D02*
X155500000Y-144400000D01*
X159500000Y-115300000D02*
X148000000Y-115300000D01*
X150400000Y-136900000D02*
X150400000Y-140800000D01*
X150400000Y-140800000D02*
X150950000Y-141350000D01*
X148000000Y-115300000D02*
X146600000Y-116700000D01*
X150950000Y-141350000D02*
X155050000Y-141350000D01*
X155050000Y-141350000D02*
X155500000Y-141800000D01*
X146600000Y-133100000D02*
X150400000Y-136900000D01*
X160300000Y-116100000D02*
X159500000Y-115300000D01*
X146600000Y-116700000D02*
X146600000Y-133100000D01*
X182100000Y-137100000D02*
X183400000Y-137100000D01*
X181600000Y-137600000D02*
X182100000Y-137100000D01*
X181600000Y-142900000D02*
X181600000Y-137600000D01*
X171500000Y-147100000D02*
X174200000Y-144400000D01*
X174200000Y-144400000D02*
X180100000Y-144400000D01*
X180100000Y-144400000D02*
X181600000Y-142900000D01*
X171500000Y-149500000D02*
X171500000Y-147100000D01*
X169900000Y-141200000D02*
X178877818Y-141200000D01*
X179500000Y-140577818D02*
X179500000Y-135600000D01*
X179500000Y-135600000D02*
X180700000Y-134400000D01*
X180700000Y-134400000D02*
X181400000Y-134400000D01*
X178877818Y-141200000D02*
X179500000Y-140577818D01*
X164000000Y-147100000D02*
X169900000Y-141200000D01*
X164000000Y-149500000D02*
X164000000Y-147100000D01*
X180200000Y-141200000D02*
X180200000Y-135700000D01*
X179400000Y-142000000D02*
X180200000Y-141200000D01*
X180200000Y-135700000D02*
X180700000Y-135200000D01*
X166500000Y-147100000D02*
X171600000Y-142000000D01*
X166500000Y-149500000D02*
X166500000Y-147100000D01*
X171600000Y-142000000D02*
X179400000Y-142000000D01*
X172900000Y-143200000D02*
X179700000Y-143200000D01*
X180900000Y-142000000D02*
X180900000Y-137000000D01*
X180900000Y-137000000D02*
X181500000Y-136400000D01*
X179700000Y-143200000D02*
X180900000Y-142000000D01*
X169000000Y-149500000D02*
X169000000Y-147100000D01*
X169000000Y-147100000D02*
X172900000Y-143200000D01*
X181500000Y-136400000D02*
X183100000Y-136400000D01*
X165400000Y-141300000D02*
X159000000Y-147700000D01*
X159000000Y-147700000D02*
X159000000Y-149500000D01*
X151500000Y-136100000D02*
X151500000Y-140800000D01*
X147400000Y-117000000D02*
X147400000Y-132000000D01*
X160300000Y-117400000D02*
X159100000Y-116200000D01*
X147400000Y-132000000D02*
X151500000Y-136100000D01*
X148200000Y-116200000D02*
X147400000Y-117000000D01*
X159100000Y-116200000D02*
X148200000Y-116200000D01*
G04 #@! TA.AperFunction,Conductor*
G36*
X190406905Y-105318265D02*
G01*
X190412257Y-105318734D01*
X190813381Y-105371543D01*
X190818697Y-105372481D01*
X191213680Y-105460047D01*
X191218892Y-105461443D01*
X191604745Y-105583102D01*
X191609826Y-105584951D01*
X191983612Y-105739778D01*
X191988482Y-105742049D01*
X192347350Y-105928864D01*
X192352028Y-105931566D01*
X192693241Y-106148942D01*
X192697674Y-106152046D01*
X193018634Y-106398327D01*
X193022779Y-106401806D01*
X193321051Y-106675122D01*
X193324877Y-106678948D01*
X193598193Y-106977220D01*
X193601672Y-106981365D01*
X193847953Y-107302325D01*
X193851057Y-107306758D01*
X194068433Y-107647971D01*
X194071139Y-107652657D01*
X194257941Y-108011499D01*
X194260228Y-108016403D01*
X194415048Y-108390174D01*
X194416899Y-108395259D01*
X194538552Y-108781092D01*
X194539952Y-108786319D01*
X194627518Y-109181302D01*
X194628458Y-109186631D01*
X194681263Y-109587724D01*
X194681735Y-109593115D01*
X194699500Y-110000000D01*
X194699500Y-120520500D01*
X194679815Y-120587539D01*
X194627011Y-120633294D01*
X194575500Y-120644500D01*
X189423997Y-120644500D01*
X189369687Y-120650338D01*
X189318183Y-120661543D01*
X189318182Y-120661543D01*
X189318176Y-120661545D01*
X189307177Y-120664562D01*
X189291806Y-120668779D01*
X189291796Y-120668783D01*
X189205181Y-120718105D01*
X189205172Y-120718111D01*
X189152371Y-120763864D01*
X189120743Y-120796640D01*
X189074534Y-120884977D01*
X189074533Y-120884977D01*
X189054851Y-120952009D01*
X189054848Y-120952021D01*
X189044500Y-121023998D01*
X189044500Y-121689768D01*
X189024815Y-121756807D01*
X188972011Y-121802562D01*
X188902853Y-121812506D01*
X188863025Y-121799644D01*
X188815020Y-121774533D01*
X188747990Y-121754851D01*
X188747978Y-121754848D01*
X188676001Y-121744500D01*
X188676000Y-121744500D01*
X170724000Y-121744500D01*
X170723997Y-121744500D01*
X170669687Y-121750338D01*
X170618183Y-121761543D01*
X170618182Y-121761543D01*
X170618176Y-121761545D01*
X170607177Y-121764562D01*
X170591806Y-121768779D01*
X170591796Y-121768783D01*
X170505181Y-121818105D01*
X170505172Y-121818111D01*
X170452371Y-121863864D01*
X170420743Y-121896640D01*
X170374534Y-121984977D01*
X170374533Y-121984977D01*
X170354851Y-122052009D01*
X170354848Y-122052021D01*
X170344500Y-122123998D01*
X170344500Y-123620118D01*
X170324815Y-123687157D01*
X170272011Y-123732912D01*
X170220237Y-123744118D01*
X154161737Y-123710111D01*
X154161735Y-123710111D01*
X154108734Y-123715555D01*
X154108724Y-123715557D01*
X154058410Y-123726113D01*
X154058411Y-123726113D01*
X154058399Y-123726116D01*
X154058395Y-123726117D01*
X154053925Y-123727295D01*
X154033255Y-123732742D01*
X153946006Y-123780970D01*
X153892623Y-123826054D01*
X153860588Y-123858421D01*
X153813261Y-123946167D01*
X153792731Y-124012937D01*
X153792729Y-124012948D01*
X153781467Y-124084792D01*
X153781466Y-124084799D01*
X153768490Y-125107604D01*
X153766205Y-125115035D01*
X153768138Y-125135273D01*
X153749275Y-126622073D01*
X153728742Y-126688857D01*
X153675361Y-126733939D01*
X153625285Y-126744500D01*
X152135467Y-126744500D01*
X152068428Y-126724815D01*
X152022673Y-126672011D01*
X152012729Y-126602853D01*
X152041754Y-126539297D01*
X152100532Y-126501523D01*
X152125227Y-126496924D01*
X152267813Y-126485109D01*
X152267816Y-126485108D01*
X152267821Y-126485108D01*
X152508881Y-126424063D01*
X152736607Y-126324173D01*
X152944785Y-126188164D01*
X153127738Y-126019744D01*
X153280474Y-125823509D01*
X153398828Y-125604810D01*
X153479571Y-125369614D01*
X153520500Y-125124335D01*
X153520500Y-125124318D01*
X153520570Y-125123481D01*
X153520697Y-125123149D01*
X153521344Y-125119277D01*
X153522140Y-125119409D01*
X153522285Y-125119033D01*
X153520500Y-125106031D01*
X153520500Y-124875665D01*
X153479570Y-124630383D01*
X153398830Y-124395197D01*
X153398827Y-124395188D01*
X153280475Y-124176493D01*
X153280474Y-124176491D01*
X153127738Y-123980256D01*
X152944785Y-123811836D01*
X152944782Y-123811833D01*
X152736606Y-123675826D01*
X152508881Y-123575936D01*
X152267824Y-123514892D01*
X152267813Y-123514890D01*
X152102548Y-123501197D01*
X152082067Y-123499500D01*
X149957933Y-123499500D01*
X149938521Y-123501108D01*
X149772186Y-123514890D01*
X149772175Y-123514892D01*
X149531118Y-123575936D01*
X149303393Y-123675826D01*
X149095217Y-123811833D01*
X148912261Y-123980257D01*
X148759524Y-124176493D01*
X148641172Y-124395188D01*
X148641169Y-124395197D01*
X148560429Y-124630383D01*
X148519500Y-124875665D01*
X148519500Y-125124334D01*
X148560429Y-125369616D01*
X148641169Y-125604802D01*
X148641172Y-125604811D01*
X148759524Y-125823506D01*
X148759526Y-125823509D01*
X148912262Y-126019744D01*
X149071744Y-126166557D01*
X149095217Y-126188166D01*
X149303393Y-126324173D01*
X149531118Y-126424063D01*
X149772175Y-126485107D01*
X149772179Y-126485108D01*
X149772181Y-126485108D01*
X149772186Y-126485109D01*
X149914773Y-126496924D01*
X149979958Y-126522077D01*
X150021196Y-126578479D01*
X150025394Y-126648222D01*
X149991220Y-126709164D01*
X149929524Y-126741956D01*
X149904533Y-126744500D01*
X148124000Y-126744500D01*
X148056961Y-126724815D01*
X148011206Y-126672011D01*
X148000000Y-126620500D01*
X147999999Y-123279500D01*
X148019684Y-123212461D01*
X148072488Y-123166706D01*
X148123999Y-123155500D01*
X169376000Y-123155500D01*
X169430313Y-123149661D01*
X169451049Y-123145150D01*
X169481817Y-123138457D01*
X169481817Y-123138456D01*
X169481824Y-123138455D01*
X169508198Y-123131219D01*
X169537074Y-123114775D01*
X169594818Y-123081894D01*
X169594821Y-123081891D01*
X169594828Y-123081888D01*
X169647632Y-123036133D01*
X169679257Y-123003359D01*
X169725465Y-122915024D01*
X169745150Y-122847985D01*
X169755500Y-122776000D01*
X169755500Y-121179499D01*
X169775185Y-121112461D01*
X169827989Y-121066706D01*
X169879500Y-121055500D01*
X178776000Y-121055500D01*
X178830313Y-121049661D01*
X178846440Y-121046152D01*
X178881817Y-121038457D01*
X178881817Y-121038456D01*
X178881824Y-121038455D01*
X178908198Y-121031219D01*
X178937074Y-121014775D01*
X178994818Y-120981894D01*
X178994821Y-120981891D01*
X178994828Y-120981888D01*
X179047632Y-120936133D01*
X179079257Y-120903359D01*
X179125465Y-120815024D01*
X179145150Y-120747985D01*
X179155500Y-120676000D01*
X179155500Y-117024000D01*
X179149661Y-116969687D01*
X179138455Y-116918176D01*
X179131219Y-116891802D01*
X179131216Y-116891796D01*
X179081894Y-116805181D01*
X179081888Y-116805172D01*
X179036136Y-116752371D01*
X179003359Y-116720743D01*
X178915022Y-116674534D01*
X178915022Y-116674533D01*
X178847990Y-116654851D01*
X178847978Y-116654848D01*
X178776001Y-116644500D01*
X178776000Y-116644500D01*
X160624000Y-116644500D01*
X160556961Y-116624815D01*
X160511206Y-116572011D01*
X160500000Y-116520500D01*
X160500000Y-114750000D01*
X146000000Y-114750000D01*
X146000000Y-133250000D01*
X149647142Y-137140285D01*
X149716463Y-137214227D01*
X149747953Y-137276598D01*
X149750000Y-137299036D01*
X149750000Y-140226281D01*
X149730315Y-140293320D01*
X149677511Y-140339075D01*
X149660935Y-140345258D01*
X149600440Y-140363020D01*
X149600440Y-140363021D01*
X149517038Y-140416619D01*
X149449998Y-140436303D01*
X149382962Y-140416619D01*
X149320740Y-140376632D01*
X149299561Y-140363022D01*
X149299560Y-140363021D01*
X149299559Y-140363021D01*
X149168368Y-140324500D01*
X149168367Y-140324500D01*
X149031633Y-140324500D01*
X149031632Y-140324500D01*
X148900440Y-140363021D01*
X148785413Y-140436942D01*
X148785409Y-140436946D01*
X148695872Y-140540278D01*
X148695867Y-140540285D01*
X148639070Y-140664654D01*
X148639068Y-140664662D01*
X148619610Y-140800000D01*
X148639068Y-140935337D01*
X148639070Y-140935345D01*
X148695867Y-141059714D01*
X148695872Y-141059721D01*
X148785409Y-141163053D01*
X148785413Y-141163057D01*
X148842898Y-141199999D01*
X148900439Y-141236978D01*
X148960934Y-141254741D01*
X149031632Y-141275500D01*
X149031633Y-141275500D01*
X149168367Y-141275500D01*
X149299561Y-141236978D01*
X149382963Y-141183379D01*
X149450001Y-141163696D01*
X149517036Y-141183379D01*
X149600439Y-141236978D01*
X149613619Y-141240848D01*
X149660934Y-141254741D01*
X149719712Y-141292514D01*
X149748738Y-141356070D01*
X149750000Y-141373718D01*
X149750000Y-141750000D01*
X152098073Y-141750000D01*
X152165112Y-141769685D01*
X152210867Y-141822489D01*
X152220811Y-141891647D01*
X152219610Y-141899999D01*
X152239068Y-142035337D01*
X152239070Y-142035345D01*
X152295867Y-142159714D01*
X152295872Y-142159721D01*
X152385409Y-142263053D01*
X152385413Y-142263057D01*
X152443547Y-142300416D01*
X152500439Y-142336978D01*
X152566035Y-142356238D01*
X152631632Y-142375500D01*
X152631633Y-142375500D01*
X152768367Y-142375500D01*
X152899561Y-142336978D01*
X152982963Y-142283379D01*
X153050001Y-142263696D01*
X153117036Y-142283379D01*
X153200439Y-142336978D01*
X153200441Y-142336978D01*
X153200442Y-142336979D01*
X153331632Y-142375500D01*
X153331633Y-142375500D01*
X153468367Y-142375500D01*
X153599561Y-142336978D01*
X153714589Y-142263055D01*
X153804130Y-142159718D01*
X153860931Y-142035342D01*
X153880390Y-141900000D01*
X153879189Y-141891646D01*
X153889133Y-141822488D01*
X153934888Y-141769684D01*
X154001927Y-141750000D01*
X154876000Y-141750000D01*
X154943039Y-141769685D01*
X154988794Y-141822489D01*
X155000000Y-141874000D01*
X155000000Y-144750000D01*
X156000000Y-144750000D01*
X156000000Y-141000000D01*
X152374000Y-141000000D01*
X152306961Y-140980315D01*
X152261206Y-140927511D01*
X152250000Y-140876000D01*
X152250000Y-137700000D01*
X162519610Y-137700000D01*
X162539068Y-137835337D01*
X162539070Y-137835345D01*
X162595867Y-137959714D01*
X162595872Y-137959721D01*
X162685409Y-138063053D01*
X162685413Y-138063057D01*
X162745979Y-138101979D01*
X162800439Y-138136978D01*
X162866035Y-138156238D01*
X162931632Y-138175500D01*
X162931633Y-138175500D01*
X163068367Y-138175500D01*
X163199561Y-138136978D01*
X163314589Y-138063055D01*
X163404130Y-137959718D01*
X163460931Y-137835342D01*
X163480390Y-137700000D01*
X163460931Y-137564658D01*
X163420214Y-137475500D01*
X163404132Y-137440285D01*
X163404127Y-137440278D01*
X163369226Y-137400000D01*
X163919610Y-137400000D01*
X163939068Y-137535337D01*
X163939070Y-137535345D01*
X163995867Y-137659714D01*
X163995872Y-137659721D01*
X164085409Y-137763053D01*
X164085413Y-137763057D01*
X164139594Y-137797876D01*
X164200439Y-137836978D01*
X164266036Y-137856238D01*
X164331632Y-137875500D01*
X164331633Y-137875500D01*
X164468367Y-137875500D01*
X164599561Y-137836978D01*
X164660415Y-137797870D01*
X168899500Y-137797870D01*
X168899501Y-137797876D01*
X168905908Y-137857483D01*
X168956202Y-137992328D01*
X168956206Y-137992335D01*
X169042452Y-138107544D01*
X169042455Y-138107547D01*
X169157664Y-138193793D01*
X169157671Y-138193797D01*
X169292517Y-138244091D01*
X169292516Y-138244091D01*
X169299444Y-138244835D01*
X169352127Y-138250500D01*
X170647872Y-138250499D01*
X170707483Y-138244091D01*
X170842331Y-138193796D01*
X170957546Y-138107546D01*
X171043796Y-137992331D01*
X171094091Y-137857483D01*
X171100500Y-137797873D01*
X171100499Y-136202128D01*
X171094091Y-136142517D01*
X171093257Y-136140282D01*
X171043797Y-136007671D01*
X171043793Y-136007664D01*
X170957547Y-135892455D01*
X170957544Y-135892452D01*
X170842335Y-135806206D01*
X170842328Y-135806202D01*
X170707482Y-135755908D01*
X170707483Y-135755908D01*
X170647883Y-135749501D01*
X170647881Y-135749500D01*
X170647873Y-135749500D01*
X170647864Y-135749500D01*
X169352129Y-135749500D01*
X169352123Y-135749501D01*
X169292516Y-135755908D01*
X169157671Y-135806202D01*
X169157664Y-135806206D01*
X169042455Y-135892452D01*
X169042452Y-135892455D01*
X168956206Y-136007664D01*
X168956202Y-136007671D01*
X168905908Y-136142517D01*
X168899501Y-136202116D01*
X168899501Y-136202123D01*
X168899500Y-136202135D01*
X168899500Y-137797870D01*
X164660415Y-137797870D01*
X164714589Y-137763055D01*
X164804130Y-137659718D01*
X164860931Y-137535342D01*
X164880390Y-137400000D01*
X164860931Y-137264658D01*
X164811097Y-137155537D01*
X164804132Y-137140285D01*
X164804127Y-137140278D01*
X164714590Y-137036946D01*
X164714586Y-137036942D01*
X164602113Y-136964662D01*
X164599561Y-136963022D01*
X164599560Y-136963021D01*
X164599559Y-136963021D01*
X164468368Y-136924500D01*
X164468367Y-136924500D01*
X164331633Y-136924500D01*
X164331632Y-136924500D01*
X164200440Y-136963021D01*
X164085413Y-137036942D01*
X164085409Y-137036946D01*
X163995872Y-137140278D01*
X163995867Y-137140285D01*
X163939070Y-137264654D01*
X163939068Y-137264662D01*
X163919610Y-137400000D01*
X163369226Y-137400000D01*
X163314590Y-137336946D01*
X163314586Y-137336942D01*
X163202113Y-137264662D01*
X163199561Y-137263022D01*
X163199560Y-137263021D01*
X163199559Y-137263021D01*
X163068368Y-137224500D01*
X163068367Y-137224500D01*
X162931633Y-137224500D01*
X162931632Y-137224500D01*
X162800440Y-137263021D01*
X162685413Y-137336942D01*
X162685409Y-137336946D01*
X162595872Y-137440278D01*
X162595867Y-137440285D01*
X162539070Y-137564654D01*
X162539068Y-137564662D01*
X162519610Y-137700000D01*
X152250000Y-137700000D01*
X152250000Y-136200000D01*
X158119610Y-136200000D01*
X158139068Y-136335337D01*
X158139070Y-136335345D01*
X158195867Y-136459714D01*
X158195872Y-136459721D01*
X158285409Y-136563053D01*
X158285413Y-136563057D01*
X158345979Y-136601979D01*
X158400439Y-136636978D01*
X158466035Y-136656238D01*
X158531632Y-136675500D01*
X158531633Y-136675500D01*
X158668367Y-136675500D01*
X158799561Y-136636978D01*
X158914589Y-136563055D01*
X159004130Y-136459718D01*
X159060931Y-136335342D01*
X159080390Y-136200000D01*
X159060931Y-136064658D01*
X159042591Y-136024500D01*
X159004132Y-135940285D01*
X159004127Y-135940278D01*
X158914590Y-135836946D01*
X158914586Y-135836942D01*
X158799559Y-135763021D01*
X158668368Y-135724500D01*
X158668367Y-135724500D01*
X158531633Y-135724500D01*
X158531632Y-135724500D01*
X158400440Y-135763021D01*
X158285413Y-135836942D01*
X158285409Y-135836946D01*
X158195872Y-135940278D01*
X158195867Y-135940285D01*
X158139070Y-136064654D01*
X158139068Y-136064662D01*
X158119610Y-136200000D01*
X152250000Y-136200000D01*
X152250000Y-136000000D01*
X149817181Y-133567181D01*
X149783696Y-133505858D01*
X149788680Y-133436166D01*
X149830552Y-133380233D01*
X149896016Y-133355816D01*
X149904862Y-133355500D01*
X166276000Y-133355500D01*
X166330313Y-133349661D01*
X166346440Y-133346152D01*
X166381817Y-133338457D01*
X166381817Y-133338456D01*
X166381824Y-133338455D01*
X166408198Y-133331219D01*
X166437074Y-133314775D01*
X166494818Y-133281894D01*
X166494821Y-133281891D01*
X166494828Y-133281888D01*
X166547632Y-133236133D01*
X166579257Y-133203359D01*
X166625465Y-133115024D01*
X166645150Y-133047985D01*
X166655500Y-132976000D01*
X166655500Y-132200000D01*
X173019610Y-132200000D01*
X173039068Y-132335337D01*
X173039070Y-132335345D01*
X173095867Y-132459714D01*
X173095872Y-132459721D01*
X173185409Y-132563053D01*
X173185413Y-132563057D01*
X173236409Y-132595829D01*
X173300439Y-132636978D01*
X173366035Y-132656238D01*
X173431632Y-132675500D01*
X173431633Y-132675500D01*
X173568367Y-132675500D01*
X173699561Y-132636978D01*
X173732960Y-132615513D01*
X173799998Y-132595829D01*
X173867037Y-132615513D01*
X173892173Y-132631666D01*
X173900439Y-132636978D01*
X174031632Y-132675500D01*
X174031633Y-132675500D01*
X174168367Y-132675500D01*
X174299561Y-132636978D01*
X174414589Y-132563055D01*
X174504130Y-132459718D01*
X174560931Y-132335342D01*
X174580390Y-132200000D01*
X174560931Y-132064658D01*
X174548677Y-132037827D01*
X174504132Y-131940285D01*
X174504127Y-131940278D01*
X174414590Y-131836946D01*
X174414586Y-131836942D01*
X174299559Y-131763021D01*
X174168368Y-131724500D01*
X174168367Y-131724500D01*
X174031633Y-131724500D01*
X174031632Y-131724500D01*
X173900441Y-131763020D01*
X173900434Y-131763024D01*
X173867038Y-131784486D01*
X173799998Y-131804170D01*
X173732962Y-131784486D01*
X173699565Y-131763024D01*
X173699558Y-131763020D01*
X173568368Y-131724500D01*
X173568367Y-131724500D01*
X173431633Y-131724500D01*
X173431632Y-131724500D01*
X173300440Y-131763021D01*
X173185413Y-131836942D01*
X173185409Y-131836946D01*
X173095872Y-131940278D01*
X173095867Y-131940285D01*
X173039070Y-132064654D01*
X173039068Y-132064662D01*
X173019610Y-132200000D01*
X166655500Y-132200000D01*
X166655500Y-129960001D01*
X189694532Y-129960001D01*
X189714364Y-130186686D01*
X189714366Y-130186697D01*
X189773258Y-130406488D01*
X189773261Y-130406497D01*
X189869431Y-130612732D01*
X189869432Y-130612734D01*
X189999954Y-130799141D01*
X190160857Y-130960044D01*
X190180680Y-130973924D01*
X190224306Y-131028500D01*
X190231500Y-131097999D01*
X190199978Y-131160354D01*
X190139749Y-131195768D01*
X190109558Y-131199500D01*
X189925323Y-131199500D01*
X189852264Y-131214032D01*
X189852260Y-131214033D01*
X189769399Y-131269399D01*
X189714033Y-131352260D01*
X189714032Y-131352264D01*
X189699500Y-131425321D01*
X189699500Y-133574678D01*
X189714032Y-133647735D01*
X189714033Y-133647739D01*
X189714034Y-133647740D01*
X189769399Y-133730601D01*
X189852259Y-133785965D01*
X189852260Y-133785966D01*
X189852264Y-133785967D01*
X189925321Y-133800499D01*
X189925324Y-133800500D01*
X189925326Y-133800500D01*
X192074676Y-133800500D01*
X192074677Y-133800499D01*
X192147740Y-133785966D01*
X192230601Y-133730601D01*
X192285966Y-133647740D01*
X192300500Y-133574674D01*
X192300500Y-131425326D01*
X192300500Y-131425325D01*
X192300500Y-131425323D01*
X192300499Y-131425321D01*
X192285967Y-131352264D01*
X192285966Y-131352260D01*
X192230601Y-131269399D01*
X192147740Y-131214034D01*
X192147739Y-131214033D01*
X192147735Y-131214032D01*
X192074677Y-131199500D01*
X192074674Y-131199500D01*
X191890442Y-131199500D01*
X191823403Y-131179815D01*
X191777648Y-131127011D01*
X191767704Y-131057853D01*
X191796729Y-130994297D01*
X191819320Y-130973924D01*
X191839139Y-130960047D01*
X192000047Y-130799139D01*
X192130568Y-130612734D01*
X192226739Y-130406496D01*
X192285635Y-130186692D01*
X192305468Y-129960000D01*
X192285635Y-129733308D01*
X192226739Y-129513504D01*
X192130568Y-129307266D01*
X192000047Y-129120861D01*
X192000045Y-129120858D01*
X191839141Y-128959954D01*
X191652734Y-128829432D01*
X191652732Y-128829431D01*
X191446497Y-128733261D01*
X191446488Y-128733258D01*
X191226697Y-128674366D01*
X191226693Y-128674365D01*
X191226692Y-128674365D01*
X191226691Y-128674364D01*
X191226686Y-128674364D01*
X191000002Y-128654532D01*
X190999998Y-128654532D01*
X190773313Y-128674364D01*
X190773302Y-128674366D01*
X190553511Y-128733258D01*
X190553502Y-128733261D01*
X190347267Y-128829431D01*
X190347265Y-128829432D01*
X190160858Y-128959954D01*
X189999954Y-129120858D01*
X189869432Y-129307265D01*
X189869431Y-129307267D01*
X189773261Y-129513502D01*
X189773258Y-129513511D01*
X189714366Y-129733302D01*
X189714364Y-129733313D01*
X189694532Y-129959998D01*
X189694532Y-129960001D01*
X166655500Y-129960001D01*
X166655500Y-128679500D01*
X166675185Y-128612461D01*
X166727989Y-128566706D01*
X166779500Y-128555500D01*
X170276000Y-128555500D01*
X170330313Y-128549661D01*
X170346440Y-128546152D01*
X170381817Y-128538457D01*
X170381817Y-128538456D01*
X170381824Y-128538455D01*
X170408198Y-128531219D01*
X170437074Y-128514775D01*
X170494818Y-128481894D01*
X170494821Y-128481891D01*
X170494828Y-128481888D01*
X170547632Y-128436133D01*
X170579257Y-128403359D01*
X170624528Y-128316814D01*
X170673044Y-128266536D01*
X170741041Y-128250469D01*
X170752044Y-128251552D01*
X170779500Y-128255500D01*
X170779501Y-128255500D01*
X188676000Y-128255500D01*
X188730313Y-128249661D01*
X188751049Y-128245150D01*
X188781817Y-128238457D01*
X188781817Y-128238456D01*
X188781824Y-128238455D01*
X188808198Y-128231219D01*
X188837074Y-128214775D01*
X188894818Y-128181894D01*
X188894821Y-128181891D01*
X188894828Y-128181888D01*
X188947632Y-128136133D01*
X188979257Y-128103359D01*
X189025465Y-128015024D01*
X189045150Y-127947985D01*
X189053370Y-127890810D01*
X189082394Y-127827256D01*
X189141172Y-127789480D01*
X189211041Y-127789479D01*
X189233584Y-127798582D01*
X189284976Y-127825465D01*
X189284977Y-127825466D01*
X189335105Y-127840184D01*
X189352015Y-127845150D01*
X189352019Y-127845150D01*
X189352021Y-127845151D01*
X189363652Y-127846823D01*
X189424000Y-127855500D01*
X189424001Y-127855500D01*
X194575500Y-127855500D01*
X194642539Y-127875185D01*
X194688294Y-127927989D01*
X194699500Y-127979500D01*
X194699500Y-150000000D01*
X194681735Y-150406884D01*
X194681263Y-150412275D01*
X194628458Y-150813368D01*
X194627518Y-150818697D01*
X194539952Y-151213680D01*
X194538552Y-151218907D01*
X194416899Y-151604740D01*
X194415048Y-151609825D01*
X194260228Y-151983596D01*
X194257941Y-151988500D01*
X194071139Y-152347342D01*
X194068433Y-152352028D01*
X193851057Y-152693241D01*
X193847953Y-152697674D01*
X193601672Y-153018634D01*
X193598193Y-153022779D01*
X193324877Y-153321051D01*
X193321051Y-153324877D01*
X193022779Y-153598193D01*
X193018634Y-153601672D01*
X192697674Y-153847953D01*
X192693241Y-153851057D01*
X192352028Y-154068433D01*
X192347342Y-154071139D01*
X191988500Y-154257941D01*
X191983596Y-154260228D01*
X191609825Y-154415048D01*
X191604740Y-154416899D01*
X191218907Y-154538552D01*
X191213680Y-154539952D01*
X190818697Y-154627518D01*
X190813368Y-154628458D01*
X190412275Y-154681263D01*
X190406884Y-154681735D01*
X190000000Y-154699500D01*
X150000000Y-154699500D01*
X149593115Y-154681735D01*
X149587724Y-154681263D01*
X149186631Y-154628458D01*
X149181302Y-154627518D01*
X148786319Y-154539952D01*
X148781092Y-154538552D01*
X148395259Y-154416899D01*
X148390174Y-154415048D01*
X148134577Y-154309177D01*
X148016397Y-154260225D01*
X148011507Y-154257945D01*
X147652657Y-154071139D01*
X147647971Y-154068433D01*
X147306758Y-153851057D01*
X147302325Y-153847953D01*
X146981365Y-153601672D01*
X146977220Y-153598193D01*
X146678948Y-153324877D01*
X146675122Y-153321051D01*
X146564198Y-153199999D01*
X183119610Y-153199999D01*
X183139068Y-153335337D01*
X183139070Y-153335345D01*
X183195867Y-153459714D01*
X183195872Y-153459721D01*
X183285409Y-153563053D01*
X183285413Y-153563057D01*
X183342940Y-153600026D01*
X183400439Y-153636978D01*
X183466036Y-153656238D01*
X183531632Y-153675500D01*
X183531633Y-153675500D01*
X183668367Y-153675500D01*
X183799561Y-153636978D01*
X183882963Y-153583379D01*
X183950001Y-153563696D01*
X184017036Y-153583379D01*
X184100439Y-153636978D01*
X184100441Y-153636978D01*
X184100442Y-153636979D01*
X184231632Y-153675500D01*
X184231633Y-153675500D01*
X184368367Y-153675500D01*
X184499561Y-153636978D01*
X184614589Y-153563055D01*
X184704130Y-153459718D01*
X184760931Y-153335342D01*
X184780390Y-153200000D01*
X184760931Y-153064658D01*
X184704130Y-152940282D01*
X184696262Y-152931201D01*
X184667238Y-152867651D01*
X184677179Y-152798492D01*
X184696259Y-152768801D01*
X184704130Y-152759718D01*
X184760931Y-152635342D01*
X184780390Y-152500000D01*
X184760931Y-152364658D01*
X184745081Y-152329952D01*
X184704132Y-152240285D01*
X184704127Y-152240278D01*
X184614590Y-152136946D01*
X184614586Y-152136942D01*
X184499559Y-152063021D01*
X184368368Y-152024500D01*
X184368367Y-152024500D01*
X184231633Y-152024500D01*
X184231632Y-152024500D01*
X184100440Y-152063021D01*
X184017038Y-152116619D01*
X183949998Y-152136303D01*
X183882962Y-152116619D01*
X183799559Y-152063021D01*
X183668368Y-152024500D01*
X183668367Y-152024500D01*
X183531633Y-152024500D01*
X183531632Y-152024500D01*
X183400440Y-152063021D01*
X183285413Y-152136942D01*
X183285409Y-152136946D01*
X183195872Y-152240278D01*
X183195867Y-152240285D01*
X183139070Y-152364654D01*
X183139068Y-152364662D01*
X183119610Y-152500000D01*
X183139068Y-152635337D01*
X183139070Y-152635345D01*
X183195867Y-152759712D01*
X183195871Y-152759719D01*
X183203740Y-152768801D01*
X183232763Y-152832358D01*
X183222816Y-152901516D01*
X183203740Y-152931199D01*
X183195871Y-152940280D01*
X183195867Y-152940287D01*
X183139070Y-153064654D01*
X183139068Y-153064662D01*
X183119610Y-153199999D01*
X146564198Y-153199999D01*
X146401806Y-153022779D01*
X146398327Y-153018634D01*
X146338209Y-152940287D01*
X146152043Y-152697669D01*
X146148942Y-152693241D01*
X145931566Y-152352028D01*
X145928860Y-152347342D01*
X145742049Y-151988482D01*
X145739778Y-151983612D01*
X145584951Y-151609825D01*
X145583100Y-151604740D01*
X145554401Y-151513718D01*
X145461443Y-151218892D01*
X145460047Y-151213680D01*
X145372481Y-150818697D01*
X145371543Y-150813381D01*
X145318734Y-150412257D01*
X145318265Y-150406905D01*
X145312413Y-150272870D01*
X157899500Y-150272870D01*
X157899501Y-150272876D01*
X157905908Y-150332483D01*
X157956202Y-150467328D01*
X157956206Y-150467335D01*
X158042452Y-150582544D01*
X158042455Y-150582547D01*
X158157664Y-150668793D01*
X158157671Y-150668797D01*
X158292517Y-150719091D01*
X158292516Y-150719091D01*
X158299444Y-150719835D01*
X158352127Y-150725500D01*
X159647872Y-150725499D01*
X159707483Y-150719091D01*
X159842331Y-150668796D01*
X159957546Y-150582546D01*
X160043796Y-150467331D01*
X160094091Y-150332483D01*
X160100500Y-150272873D01*
X160100500Y-149677425D01*
X160399500Y-149677425D01*
X160414472Y-149834218D01*
X160473684Y-150035875D01*
X160523019Y-150131572D01*
X160569991Y-150222686D01*
X160699905Y-150387883D01*
X160699909Y-150387887D01*
X160858746Y-150525521D01*
X161040750Y-150630601D01*
X161040752Y-150630601D01*
X161040756Y-150630604D01*
X161239367Y-150699344D01*
X161447398Y-150729254D01*
X161657330Y-150719254D01*
X161861576Y-150669704D01*
X161947199Y-150630601D01*
X162052743Y-150582401D01*
X162052746Y-150582399D01*
X162052753Y-150582396D01*
X162223952Y-150460486D01*
X162293179Y-150387883D01*
X162368985Y-150308379D01*
X162391797Y-150272883D01*
X162482613Y-150131572D01*
X162560725Y-149936457D01*
X162600500Y-149730085D01*
X162600500Y-149677425D01*
X162899500Y-149677425D01*
X162914472Y-149834218D01*
X162973684Y-150035875D01*
X163023019Y-150131572D01*
X163069991Y-150222686D01*
X163199905Y-150387883D01*
X163199909Y-150387887D01*
X163358746Y-150525521D01*
X163540750Y-150630601D01*
X163540752Y-150630601D01*
X163540756Y-150630604D01*
X163739367Y-150699344D01*
X163947398Y-150729254D01*
X164157330Y-150719254D01*
X164361576Y-150669704D01*
X164447199Y-150630601D01*
X164552743Y-150582401D01*
X164552746Y-150582399D01*
X164552753Y-150582396D01*
X164723952Y-150460486D01*
X164793179Y-150387883D01*
X164868985Y-150308379D01*
X164891797Y-150272883D01*
X164982613Y-150131572D01*
X165060725Y-149936457D01*
X165100500Y-149730085D01*
X165100500Y-149322575D01*
X165085528Y-149165782D01*
X165026316Y-148964125D01*
X164930011Y-148777318D01*
X164930009Y-148777316D01*
X164930008Y-148777313D01*
X164800094Y-148612116D01*
X164800090Y-148612112D01*
X164641253Y-148474478D01*
X164459249Y-148369399D01*
X164459247Y-148369398D01*
X164459244Y-148369396D01*
X164459240Y-148369394D01*
X164459231Y-148369390D01*
X164458928Y-148369286D01*
X164458796Y-148369192D01*
X164453867Y-148366941D01*
X164454301Y-148365990D01*
X164402019Y-148328750D01*
X164376060Y-148263882D01*
X164375500Y-148252111D01*
X164375500Y-147306899D01*
X164395185Y-147239860D01*
X164411819Y-147219218D01*
X170019219Y-141611819D01*
X170080542Y-141578334D01*
X170106900Y-141575500D01*
X171194099Y-141575500D01*
X171261138Y-141595185D01*
X171306893Y-141647989D01*
X171316837Y-141717147D01*
X171287812Y-141780703D01*
X171281780Y-141787181D01*
X166271108Y-146797852D01*
X166251254Y-146813976D01*
X166242165Y-146819914D01*
X166242164Y-146819915D01*
X166220363Y-146847923D01*
X166215286Y-146853674D01*
X166212484Y-146856477D01*
X166212474Y-146856488D01*
X166198905Y-146875495D01*
X166165192Y-146918808D01*
X166161447Y-146925729D01*
X166157988Y-146932804D01*
X166142329Y-146985403D01*
X166124500Y-147037338D01*
X166123206Y-147045092D01*
X166122231Y-147052911D01*
X166124500Y-147107755D01*
X166124500Y-148256964D01*
X166104815Y-148324003D01*
X166052013Y-148369758D01*
X165947240Y-148417607D01*
X165776052Y-148539509D01*
X165776040Y-148539520D01*
X165631014Y-148691620D01*
X165517388Y-148868425D01*
X165439274Y-149063544D01*
X165419570Y-149165782D01*
X165399500Y-149269915D01*
X165399500Y-149677425D01*
X165414472Y-149834218D01*
X165473684Y-150035875D01*
X165523019Y-150131572D01*
X165569991Y-150222686D01*
X165699905Y-150387883D01*
X165699909Y-150387887D01*
X165858746Y-150525521D01*
X166040750Y-150630601D01*
X166040752Y-150630601D01*
X166040756Y-150630604D01*
X166239367Y-150699344D01*
X166447398Y-150729254D01*
X166657330Y-150719254D01*
X166861576Y-150669704D01*
X166947199Y-150630601D01*
X167052743Y-150582401D01*
X167052746Y-150582399D01*
X167052753Y-150582396D01*
X167223952Y-150460486D01*
X167293179Y-150387883D01*
X167368985Y-150308379D01*
X167391797Y-150272883D01*
X167482613Y-150131572D01*
X167560725Y-149936457D01*
X167600500Y-149730085D01*
X167600500Y-149322575D01*
X167585528Y-149165782D01*
X167526316Y-148964125D01*
X167430011Y-148777318D01*
X167430009Y-148777316D01*
X167430008Y-148777313D01*
X167300094Y-148612116D01*
X167300090Y-148612112D01*
X167141253Y-148474478D01*
X166959249Y-148369399D01*
X166959247Y-148369398D01*
X166959244Y-148369396D01*
X166959240Y-148369394D01*
X166959231Y-148369390D01*
X166958928Y-148369286D01*
X166958796Y-148369192D01*
X166953867Y-148366941D01*
X166954301Y-148365990D01*
X166902019Y-148328750D01*
X166876060Y-148263882D01*
X166875500Y-148252111D01*
X166875500Y-147306899D01*
X166895185Y-147239860D01*
X166911819Y-147219218D01*
X171719218Y-142411819D01*
X171780541Y-142378334D01*
X171806899Y-142375500D01*
X179348196Y-142375500D01*
X179373641Y-142378139D01*
X179377440Y-142378935D01*
X179384268Y-142380367D01*
X179405225Y-142377754D01*
X179419492Y-142375977D01*
X179427168Y-142375500D01*
X179431112Y-142375500D01*
X179431114Y-142375500D01*
X179431116Y-142375499D01*
X179431122Y-142375499D01*
X179446487Y-142372934D01*
X179454140Y-142371657D01*
X179508626Y-142364866D01*
X179508627Y-142364865D01*
X179508629Y-142364865D01*
X179516141Y-142362628D01*
X179523606Y-142360066D01*
X179523606Y-142360065D01*
X179523610Y-142360065D01*
X179571877Y-142333944D01*
X179621211Y-142309826D01*
X179621213Y-142309823D01*
X179627594Y-142305268D01*
X179633819Y-142300422D01*
X179633826Y-142300419D01*
X179671007Y-142260029D01*
X180312820Y-141618215D01*
X180374142Y-141584732D01*
X180443834Y-141589716D01*
X180499767Y-141631588D01*
X180524184Y-141697052D01*
X180524500Y-141705899D01*
X180524499Y-141793101D01*
X180504814Y-141860141D01*
X180488180Y-141880781D01*
X179580781Y-142788181D01*
X179519458Y-142821666D01*
X179493100Y-142824500D01*
X172951804Y-142824500D01*
X172926359Y-142821861D01*
X172915733Y-142819633D01*
X172915730Y-142819633D01*
X172880508Y-142824023D01*
X172872832Y-142824500D01*
X172868886Y-142824500D01*
X172851615Y-142827381D01*
X172845858Y-142828342D01*
X172791370Y-142835134D01*
X172783857Y-142837371D01*
X172776387Y-142839936D01*
X172728122Y-142866055D01*
X172678792Y-142890171D01*
X172672375Y-142894753D01*
X172666175Y-142899579D01*
X172628991Y-142939971D01*
X168771108Y-146797852D01*
X168751254Y-146813976D01*
X168742165Y-146819914D01*
X168742164Y-146819915D01*
X168720363Y-146847923D01*
X168715286Y-146853674D01*
X168712484Y-146856477D01*
X168712474Y-146856488D01*
X168698905Y-146875495D01*
X168665192Y-146918808D01*
X168661447Y-146925729D01*
X168657988Y-146932804D01*
X168642329Y-146985403D01*
X168624500Y-147037338D01*
X168623206Y-147045092D01*
X168622231Y-147052911D01*
X168624500Y-147107755D01*
X168624499Y-148256964D01*
X168604814Y-148324004D01*
X168552012Y-148369758D01*
X168447240Y-148417607D01*
X168276052Y-148539509D01*
X168276040Y-148539520D01*
X168131014Y-148691620D01*
X168017388Y-148868425D01*
X167939274Y-149063544D01*
X167919570Y-149165782D01*
X167899500Y-149269915D01*
X167899500Y-149677425D01*
X167914472Y-149834218D01*
X167973684Y-150035875D01*
X168023019Y-150131572D01*
X168069991Y-150222686D01*
X168199905Y-150387883D01*
X168199909Y-150387887D01*
X168358746Y-150525521D01*
X168540750Y-150630601D01*
X168540752Y-150630601D01*
X168540756Y-150630604D01*
X168739367Y-150699344D01*
X168947398Y-150729254D01*
X169157330Y-150719254D01*
X169361576Y-150669704D01*
X169447199Y-150630601D01*
X169552743Y-150582401D01*
X169552746Y-150582399D01*
X169552753Y-150582396D01*
X169723952Y-150460486D01*
X169793179Y-150387883D01*
X169868985Y-150308379D01*
X169891797Y-150272883D01*
X169982613Y-150131572D01*
X170060725Y-149936457D01*
X170100500Y-149730085D01*
X170100500Y-149322575D01*
X170085528Y-149165782D01*
X170026316Y-148964125D01*
X169930011Y-148777318D01*
X169930009Y-148777316D01*
X169930008Y-148777313D01*
X169800094Y-148612116D01*
X169800090Y-148612112D01*
X169641253Y-148474478D01*
X169459249Y-148369399D01*
X169459247Y-148369398D01*
X169459244Y-148369396D01*
X169459240Y-148369394D01*
X169459231Y-148369390D01*
X169458928Y-148369286D01*
X169458796Y-148369192D01*
X169453867Y-148366941D01*
X169454301Y-148365990D01*
X169402019Y-148328750D01*
X169376060Y-148263882D01*
X169375500Y-148252111D01*
X169375500Y-147306898D01*
X169395185Y-147239859D01*
X169411814Y-147219222D01*
X171799214Y-144831821D01*
X171860535Y-144798338D01*
X171930227Y-144803322D01*
X171986160Y-144845194D01*
X171991209Y-144852465D01*
X171995872Y-144859721D01*
X172085409Y-144963053D01*
X172085413Y-144963057D01*
X172145979Y-145001979D01*
X172200439Y-145036978D01*
X172266036Y-145056238D01*
X172331632Y-145075500D01*
X172331633Y-145075500D01*
X172468367Y-145075500D01*
X172599561Y-145036978D01*
X172714589Y-144963055D01*
X172804130Y-144859718D01*
X172860931Y-144735342D01*
X172880390Y-144600000D01*
X172860931Y-144464658D01*
X172848290Y-144436978D01*
X172804132Y-144340285D01*
X172804127Y-144340278D01*
X172714590Y-144236946D01*
X172714586Y-144236942D01*
X172648928Y-144194748D01*
X172603172Y-144141945D01*
X172593228Y-144072787D01*
X172622252Y-144009230D01*
X172628285Y-144002751D01*
X172642856Y-143988181D01*
X173019218Y-143611819D01*
X173080542Y-143578334D01*
X173106900Y-143575500D01*
X174608784Y-143575500D01*
X174675823Y-143595185D01*
X174721578Y-143647989D01*
X174731522Y-143717146D01*
X174719610Y-143799999D01*
X174719610Y-143800000D01*
X174731522Y-143882854D01*
X174721578Y-143952012D01*
X174675823Y-144004816D01*
X174608784Y-144024500D01*
X174251803Y-144024500D01*
X174226358Y-144021861D01*
X174215732Y-144019633D01*
X174215729Y-144019633D01*
X174180507Y-144024023D01*
X174172831Y-144024500D01*
X174168886Y-144024500D01*
X174157371Y-144026421D01*
X174145856Y-144028342D01*
X174127696Y-144030606D01*
X174091375Y-144035134D01*
X174091371Y-144035135D01*
X174083842Y-144037377D01*
X174076383Y-144039937D01*
X174028118Y-144066058D01*
X173978791Y-144090172D01*
X173972384Y-144094746D01*
X173966175Y-144099579D01*
X173949186Y-144118033D01*
X173928991Y-144139970D01*
X173257142Y-144811819D01*
X171271108Y-146797852D01*
X171251254Y-146813976D01*
X171242165Y-146819914D01*
X171242164Y-146819915D01*
X171220363Y-146847923D01*
X171215286Y-146853674D01*
X171212484Y-146856477D01*
X171212474Y-146856488D01*
X171198905Y-146875495D01*
X171165192Y-146918808D01*
X171161447Y-146925729D01*
X171157988Y-146932804D01*
X171142329Y-146985403D01*
X171124500Y-147037338D01*
X171123206Y-147045092D01*
X171122231Y-147052911D01*
X171124500Y-147107755D01*
X171124500Y-148256964D01*
X171104815Y-148324003D01*
X171052013Y-148369758D01*
X170947240Y-148417607D01*
X170776052Y-148539509D01*
X170776040Y-148539520D01*
X170631014Y-148691620D01*
X170517388Y-148868425D01*
X170439274Y-149063544D01*
X170419570Y-149165782D01*
X170399500Y-149269915D01*
X170399500Y-149677425D01*
X170414472Y-149834218D01*
X170473684Y-150035875D01*
X170523019Y-150131572D01*
X170569991Y-150222686D01*
X170699905Y-150387883D01*
X170699909Y-150387887D01*
X170858746Y-150525521D01*
X171040750Y-150630601D01*
X171040752Y-150630601D01*
X171040756Y-150630604D01*
X171239367Y-150699344D01*
X171447398Y-150729254D01*
X171657330Y-150719254D01*
X171861576Y-150669704D01*
X171947199Y-150630601D01*
X172052743Y-150582401D01*
X172052746Y-150582399D01*
X172052753Y-150582396D01*
X172223952Y-150460486D01*
X172293179Y-150387883D01*
X172368985Y-150308379D01*
X172391797Y-150272883D01*
X172482613Y-150131572D01*
X172560725Y-149936457D01*
X172600500Y-149730085D01*
X172600500Y-149677425D01*
X172899500Y-149677425D01*
X172914472Y-149834218D01*
X172973684Y-150035875D01*
X173023019Y-150131572D01*
X173069991Y-150222686D01*
X173199905Y-150387883D01*
X173199909Y-150387887D01*
X173358746Y-150525521D01*
X173540750Y-150630601D01*
X173540752Y-150630601D01*
X173540756Y-150630604D01*
X173739367Y-150699344D01*
X173947398Y-150729254D01*
X174157330Y-150719254D01*
X174361576Y-150669704D01*
X174447199Y-150630601D01*
X174552743Y-150582401D01*
X174552746Y-150582399D01*
X174552753Y-150582396D01*
X174723952Y-150460486D01*
X174793179Y-150387883D01*
X174868985Y-150308379D01*
X174891797Y-150272883D01*
X174982613Y-150131572D01*
X175060725Y-149936457D01*
X175100500Y-149730085D01*
X175100500Y-149677425D01*
X175399500Y-149677425D01*
X175414472Y-149834218D01*
X175473684Y-150035875D01*
X175523019Y-150131572D01*
X175569991Y-150222686D01*
X175699905Y-150387883D01*
X175699909Y-150387887D01*
X175858746Y-150525521D01*
X176040750Y-150630601D01*
X176040752Y-150630601D01*
X176040756Y-150630604D01*
X176239367Y-150699344D01*
X176447398Y-150729254D01*
X176657330Y-150719254D01*
X176861576Y-150669704D01*
X176947199Y-150630601D01*
X177052743Y-150582401D01*
X177052746Y-150582399D01*
X177052753Y-150582396D01*
X177223952Y-150460486D01*
X177293179Y-150387883D01*
X177368985Y-150308379D01*
X177391797Y-150272883D01*
X177482613Y-150131572D01*
X177560725Y-149936457D01*
X177600500Y-149730085D01*
X177600500Y-149677425D01*
X177899500Y-149677425D01*
X177914472Y-149834218D01*
X177973684Y-150035875D01*
X178023019Y-150131572D01*
X178069991Y-150222686D01*
X178199905Y-150387883D01*
X178199909Y-150387887D01*
X178358746Y-150525521D01*
X178540750Y-150630601D01*
X178540752Y-150630601D01*
X178540756Y-150630604D01*
X178739367Y-150699344D01*
X178947398Y-150729254D01*
X179157330Y-150719254D01*
X179361576Y-150669704D01*
X179447199Y-150630601D01*
X179552743Y-150582401D01*
X179552746Y-150582399D01*
X179552753Y-150582396D01*
X179723952Y-150460486D01*
X179793179Y-150387883D01*
X179868985Y-150308379D01*
X179891797Y-150272883D01*
X179982613Y-150131572D01*
X180060725Y-149936457D01*
X180100500Y-149730085D01*
X180100500Y-149322575D01*
X180085528Y-149165782D01*
X180026316Y-148964125D01*
X179930011Y-148777318D01*
X179930009Y-148777316D01*
X179930008Y-148777313D01*
X179800094Y-148612116D01*
X179800090Y-148612112D01*
X179641253Y-148474478D01*
X179459249Y-148369398D01*
X179459245Y-148369396D01*
X179459244Y-148369396D01*
X179260633Y-148300656D01*
X179052602Y-148270746D01*
X179052598Y-148270746D01*
X178842672Y-148280745D01*
X178638421Y-148330296D01*
X178638417Y-148330298D01*
X178447256Y-148417598D01*
X178447251Y-148417601D01*
X178276046Y-148539515D01*
X178276040Y-148539520D01*
X178131014Y-148691620D01*
X178017388Y-148868425D01*
X177939274Y-149063544D01*
X177919570Y-149165782D01*
X177899500Y-149269915D01*
X177899500Y-149677425D01*
X177600500Y-149677425D01*
X177600500Y-149322575D01*
X177585528Y-149165782D01*
X177526316Y-148964125D01*
X177430011Y-148777318D01*
X177430009Y-148777316D01*
X177430008Y-148777313D01*
X177300094Y-148612116D01*
X177300090Y-148612112D01*
X177141253Y-148474478D01*
X176959249Y-148369398D01*
X176959245Y-148369396D01*
X176959244Y-148369396D01*
X176760633Y-148300656D01*
X176552602Y-148270746D01*
X176552598Y-148270746D01*
X176342672Y-148280745D01*
X176138421Y-148330296D01*
X176138417Y-148330298D01*
X175947256Y-148417598D01*
X175947251Y-148417601D01*
X175776046Y-148539515D01*
X175776040Y-148539520D01*
X175631014Y-148691620D01*
X175517388Y-148868425D01*
X175439274Y-149063544D01*
X175419570Y-149165782D01*
X175399500Y-149269915D01*
X175399500Y-149677425D01*
X175100500Y-149677425D01*
X175100500Y-149322575D01*
X175085528Y-149165782D01*
X175026316Y-148964125D01*
X174930011Y-148777318D01*
X174930009Y-148777316D01*
X174930008Y-148777313D01*
X174800094Y-148612116D01*
X174800090Y-148612112D01*
X174641253Y-148474478D01*
X174459249Y-148369398D01*
X174459245Y-148369396D01*
X174459244Y-148369396D01*
X174260633Y-148300656D01*
X174052602Y-148270746D01*
X174052598Y-148270746D01*
X173842672Y-148280745D01*
X173638421Y-148330296D01*
X173638417Y-148330298D01*
X173447256Y-148417598D01*
X173447251Y-148417601D01*
X173276046Y-148539515D01*
X173276040Y-148539520D01*
X173131014Y-148691620D01*
X173017388Y-148868425D01*
X172939274Y-149063544D01*
X172919570Y-149165782D01*
X172899500Y-149269915D01*
X172899500Y-149677425D01*
X172600500Y-149677425D01*
X172600500Y-149322575D01*
X172585528Y-149165782D01*
X172526316Y-148964125D01*
X172430011Y-148777318D01*
X172430009Y-148777316D01*
X172430008Y-148777313D01*
X172300094Y-148612116D01*
X172300090Y-148612112D01*
X172141253Y-148474478D01*
X171959249Y-148369399D01*
X171959247Y-148369398D01*
X171959244Y-148369396D01*
X171959240Y-148369394D01*
X171959231Y-148369390D01*
X171958928Y-148369286D01*
X171958796Y-148369192D01*
X171953867Y-148366941D01*
X171954301Y-148365990D01*
X171902019Y-148328750D01*
X171876060Y-148263882D01*
X171875500Y-148252111D01*
X171875500Y-147306899D01*
X171895185Y-147239860D01*
X171911819Y-147219218D01*
X172231037Y-146900000D01*
X177119610Y-146900000D01*
X177139068Y-147035337D01*
X177139070Y-147035345D01*
X177195867Y-147159714D01*
X177195872Y-147159721D01*
X177285409Y-147263053D01*
X177285413Y-147263057D01*
X177345979Y-147301979D01*
X177400439Y-147336978D01*
X177466036Y-147356238D01*
X177531632Y-147375500D01*
X177531633Y-147375500D01*
X177668367Y-147375500D01*
X177799561Y-147336978D01*
X177914589Y-147263055D01*
X177956289Y-147214930D01*
X178015064Y-147177157D01*
X178084934Y-147177157D01*
X178143709Y-147214928D01*
X178185411Y-147263055D01*
X178185414Y-147263057D01*
X178185413Y-147263057D01*
X178245979Y-147301979D01*
X178300439Y-147336978D01*
X178366035Y-147356238D01*
X178431632Y-147375500D01*
X178431633Y-147375500D01*
X178568367Y-147375500D01*
X178699561Y-147336978D01*
X178814589Y-147263055D01*
X178904130Y-147159718D01*
X178960931Y-147035342D01*
X178980390Y-146900000D01*
X178980390Y-146899999D01*
X178980390Y-146894157D01*
X179000075Y-146827118D01*
X179052879Y-146781363D01*
X179069452Y-146775181D01*
X179199558Y-146736979D01*
X179199559Y-146736979D01*
X179314586Y-146663057D01*
X179314586Y-146663056D01*
X179314589Y-146663055D01*
X179404130Y-146559718D01*
X179460931Y-146435342D01*
X179480390Y-146300000D01*
X179460931Y-146164658D01*
X179448677Y-146137827D01*
X179404132Y-146040285D01*
X179404127Y-146040278D01*
X179314590Y-145936946D01*
X179314586Y-145936942D01*
X179199559Y-145863021D01*
X179068368Y-145824500D01*
X179068367Y-145824500D01*
X178931633Y-145824500D01*
X178931632Y-145824500D01*
X178800440Y-145863021D01*
X178685413Y-145936942D01*
X178685413Y-145936943D01*
X178643713Y-145985068D01*
X178584935Y-146022842D01*
X178515065Y-146022842D01*
X178456287Y-145985068D01*
X178414589Y-145936945D01*
X178414586Y-145936943D01*
X178414586Y-145936942D01*
X178299559Y-145863021D01*
X178168368Y-145824500D01*
X178168367Y-145824500D01*
X178031633Y-145824500D01*
X178031632Y-145824500D01*
X177900440Y-145863021D01*
X177785413Y-145936942D01*
X177785409Y-145936946D01*
X177695872Y-146040278D01*
X177695867Y-146040285D01*
X177639070Y-146164654D01*
X177639068Y-146164662D01*
X177619610Y-146300000D01*
X177619610Y-146305842D01*
X177599925Y-146372881D01*
X177547121Y-146418636D01*
X177530545Y-146424819D01*
X177400440Y-146463021D01*
X177285413Y-146536942D01*
X177285409Y-146536946D01*
X177195872Y-146640278D01*
X177195867Y-146640285D01*
X177139070Y-146764654D01*
X177139068Y-146764662D01*
X177119610Y-146900000D01*
X172231037Y-146900000D01*
X174319218Y-144811819D01*
X174380541Y-144778334D01*
X174406899Y-144775500D01*
X180048196Y-144775500D01*
X180073641Y-144778139D01*
X180077440Y-144778935D01*
X180084268Y-144780367D01*
X180105225Y-144777754D01*
X180119492Y-144775977D01*
X180127168Y-144775500D01*
X180131112Y-144775500D01*
X180131114Y-144775500D01*
X180131116Y-144775499D01*
X180131122Y-144775499D01*
X180146487Y-144772934D01*
X180154140Y-144771657D01*
X180208626Y-144764866D01*
X180208627Y-144764865D01*
X180208629Y-144764865D01*
X180216141Y-144762628D01*
X180223606Y-144760066D01*
X180223606Y-144760065D01*
X180223610Y-144760065D01*
X180271877Y-144733944D01*
X180321211Y-144709826D01*
X180321213Y-144709823D01*
X180327594Y-144705268D01*
X180333819Y-144700422D01*
X180333826Y-144700419D01*
X180371008Y-144660028D01*
X181031036Y-144000000D01*
X192419610Y-144000000D01*
X192420937Y-144009230D01*
X192439068Y-144135337D01*
X192439070Y-144135345D01*
X192495867Y-144259714D01*
X192495872Y-144259721D01*
X192585409Y-144363053D01*
X192585413Y-144363057D01*
X192645979Y-144401979D01*
X192700439Y-144436978D01*
X192766035Y-144456238D01*
X192831632Y-144475500D01*
X192831633Y-144475500D01*
X192968367Y-144475500D01*
X193099561Y-144436978D01*
X193182963Y-144383379D01*
X193250001Y-144363696D01*
X193317036Y-144383379D01*
X193400439Y-144436978D01*
X193400441Y-144436978D01*
X193400442Y-144436979D01*
X193531632Y-144475500D01*
X193531633Y-144475500D01*
X193668367Y-144475500D01*
X193799561Y-144436978D01*
X193914589Y-144363055D01*
X194004130Y-144259718D01*
X194060931Y-144135342D01*
X194080390Y-144000000D01*
X194060931Y-143864658D01*
X194004130Y-143740282D01*
X193996262Y-143731201D01*
X193967238Y-143667651D01*
X193977179Y-143598492D01*
X193996259Y-143568801D01*
X194004130Y-143559718D01*
X194060931Y-143435342D01*
X194080390Y-143300000D01*
X194060931Y-143164658D01*
X194016422Y-143067197D01*
X194004132Y-143040285D01*
X194004127Y-143040278D01*
X193914590Y-142936946D01*
X193914586Y-142936942D01*
X193823736Y-142878558D01*
X193799561Y-142863022D01*
X193799560Y-142863021D01*
X193799559Y-142863021D01*
X193668368Y-142824500D01*
X193668367Y-142824500D01*
X193531633Y-142824500D01*
X193531632Y-142824500D01*
X193400440Y-142863021D01*
X193317038Y-142916619D01*
X193249998Y-142936303D01*
X193182962Y-142916619D01*
X193120740Y-142876632D01*
X193099561Y-142863022D01*
X193099560Y-142863021D01*
X193099559Y-142863021D01*
X192968368Y-142824500D01*
X192968367Y-142824500D01*
X192831633Y-142824500D01*
X192831632Y-142824500D01*
X192700440Y-142863021D01*
X192585413Y-142936942D01*
X192585409Y-142936946D01*
X192495872Y-143040278D01*
X192495867Y-143040285D01*
X192439070Y-143164654D01*
X192439068Y-143164662D01*
X192419610Y-143299999D01*
X192439068Y-143435337D01*
X192439070Y-143435345D01*
X192473085Y-143509826D01*
X192495870Y-143559718D01*
X192498391Y-143562628D01*
X192503737Y-143568797D01*
X192532762Y-143632353D01*
X192522818Y-143701511D01*
X192503743Y-143731195D01*
X192495871Y-143740280D01*
X192495867Y-143740287D01*
X192439070Y-143864654D01*
X192439068Y-143864662D01*
X192421309Y-143988181D01*
X192419610Y-144000000D01*
X181031036Y-144000000D01*
X181828889Y-143202146D01*
X181848746Y-143186022D01*
X181857836Y-143180084D01*
X181879638Y-143152071D01*
X181884733Y-143146303D01*
X181887519Y-143143518D01*
X181887528Y-143143506D01*
X181901086Y-143124516D01*
X181934807Y-143081192D01*
X181938547Y-143074278D01*
X181942006Y-143067203D01*
X181942010Y-143067199D01*
X181950023Y-143040285D01*
X181957672Y-143014593D01*
X181975500Y-142962661D01*
X181976791Y-142954924D01*
X181977768Y-142947086D01*
X181975500Y-142892244D01*
X181975500Y-141999999D01*
X183119610Y-141999999D01*
X183139068Y-142135337D01*
X183139070Y-142135345D01*
X183195867Y-142259714D01*
X183195872Y-142259721D01*
X183285409Y-142363053D01*
X183285413Y-142363057D01*
X183326895Y-142389715D01*
X183400439Y-142436978D01*
X183466036Y-142456238D01*
X183531632Y-142475500D01*
X183531633Y-142475500D01*
X183668367Y-142475500D01*
X183799561Y-142436978D01*
X183914589Y-142363055D01*
X184004130Y-142259718D01*
X184060931Y-142135342D01*
X184080390Y-142000000D01*
X184060931Y-141864658D01*
X184009257Y-141751510D01*
X183999314Y-141682353D01*
X184009258Y-141648489D01*
X184060931Y-141535342D01*
X184080390Y-141400000D01*
X184060931Y-141264658D01*
X184031402Y-141199999D01*
X184004132Y-141140285D01*
X184004127Y-141140278D01*
X183914590Y-141036946D01*
X183914586Y-141036942D01*
X183799559Y-140963021D01*
X183668368Y-140924500D01*
X183668367Y-140924500D01*
X183531633Y-140924500D01*
X183531632Y-140924500D01*
X183400440Y-140963021D01*
X183285413Y-141036942D01*
X183285409Y-141036946D01*
X183195872Y-141140278D01*
X183195867Y-141140285D01*
X183139070Y-141264654D01*
X183139068Y-141264662D01*
X183119610Y-141399999D01*
X183139068Y-141535337D01*
X183139068Y-141535339D01*
X183139068Y-141535340D01*
X183139069Y-141535342D01*
X183190742Y-141648489D01*
X183200685Y-141717648D01*
X183190742Y-141751510D01*
X183182442Y-141769685D01*
X183139068Y-141864660D01*
X183139068Y-141864662D01*
X183119610Y-141999999D01*
X181975500Y-141999999D01*
X181975500Y-137806899D01*
X181995185Y-137739860D01*
X182011819Y-137719218D01*
X182219219Y-137511819D01*
X182280542Y-137478334D01*
X182306900Y-137475500D01*
X183068367Y-137475500D01*
X183135405Y-137495184D01*
X183200439Y-137536978D01*
X183266035Y-137556238D01*
X183331632Y-137575500D01*
X183331633Y-137575500D01*
X183468367Y-137575500D01*
X183504744Y-137564819D01*
X183574614Y-137564819D01*
X183633392Y-137602593D01*
X183662417Y-137666149D01*
X183652474Y-137735304D01*
X183640444Y-137761645D01*
X183639068Y-137764660D01*
X183639068Y-137764662D01*
X183619610Y-137899999D01*
X183639068Y-138035337D01*
X183639070Y-138035345D01*
X183695867Y-138159714D01*
X183695872Y-138159721D01*
X183785409Y-138263053D01*
X183785413Y-138263057D01*
X183845979Y-138301979D01*
X183900439Y-138336978D01*
X183966035Y-138356238D01*
X184031632Y-138375500D01*
X184031633Y-138375500D01*
X184168367Y-138375500D01*
X184299561Y-138336978D01*
X184414589Y-138263055D01*
X184504130Y-138159718D01*
X184560931Y-138035342D01*
X184580390Y-137900000D01*
X184560931Y-137764658D01*
X184540179Y-137719218D01*
X184504132Y-137640285D01*
X184504127Y-137640278D01*
X184414590Y-137536946D01*
X184414586Y-137536942D01*
X184299559Y-137463021D01*
X184168368Y-137424500D01*
X184168367Y-137424500D01*
X184031633Y-137424500D01*
X184031632Y-137424500D01*
X183995252Y-137435181D01*
X183925382Y-137435179D01*
X183866605Y-137397403D01*
X183837582Y-137333847D01*
X183847526Y-137264694D01*
X183860931Y-137235342D01*
X183880390Y-137100000D01*
X183860931Y-136964658D01*
X183842591Y-136924500D01*
X183804132Y-136840285D01*
X183804127Y-136840278D01*
X183714590Y-136736946D01*
X183714586Y-136736942D01*
X183613615Y-136672054D01*
X183567859Y-136619251D01*
X183557915Y-136550092D01*
X183560554Y-136537962D01*
X183560931Y-136535342D01*
X183580390Y-136400000D01*
X183560931Y-136264658D01*
X183532375Y-136202129D01*
X183504132Y-136140285D01*
X183504127Y-136140278D01*
X183414590Y-136036946D01*
X183414586Y-136036942D01*
X183299559Y-135963021D01*
X183168368Y-135924500D01*
X183168367Y-135924500D01*
X183031633Y-135924500D01*
X183031632Y-135924500D01*
X182900440Y-135963021D01*
X182835405Y-136004816D01*
X182768367Y-136024500D01*
X181551804Y-136024500D01*
X181526359Y-136021861D01*
X181515733Y-136019633D01*
X181515730Y-136019633D01*
X181480508Y-136024023D01*
X181472832Y-136024500D01*
X181468886Y-136024500D01*
X181451615Y-136027381D01*
X181445858Y-136028342D01*
X181391370Y-136035134D01*
X181383857Y-136037371D01*
X181376387Y-136039936D01*
X181328122Y-136066055D01*
X181278792Y-136090171D01*
X181272375Y-136094753D01*
X181266175Y-136099579D01*
X181228992Y-136139970D01*
X180787181Y-136581780D01*
X180725858Y-136615265D01*
X180656166Y-136610281D01*
X180600233Y-136568409D01*
X180575816Y-136502945D01*
X180575500Y-136494099D01*
X180575500Y-135906899D01*
X180595185Y-135839860D01*
X180611813Y-135819224D01*
X180727829Y-135703207D01*
X180780569Y-135671917D01*
X180899558Y-135636979D01*
X180899559Y-135636979D01*
X181014586Y-135563057D01*
X181014586Y-135563056D01*
X181014589Y-135563055D01*
X181104130Y-135459718D01*
X181160931Y-135335342D01*
X181180390Y-135200000D01*
X181160931Y-135064658D01*
X181147526Y-135035306D01*
X181137582Y-134966151D01*
X181166606Y-134902595D01*
X181225383Y-134864819D01*
X181295253Y-134864818D01*
X181295254Y-134864819D01*
X181331630Y-134875499D01*
X181331632Y-134875500D01*
X181331633Y-134875500D01*
X181468367Y-134875500D01*
X181599561Y-134836978D01*
X181714589Y-134763055D01*
X181804130Y-134659718D01*
X181860931Y-134535342D01*
X181880390Y-134400000D01*
X181860931Y-134264658D01*
X181848677Y-134237827D01*
X181804132Y-134140285D01*
X181804127Y-134140278D01*
X181714590Y-134036946D01*
X181714586Y-134036942D01*
X181599559Y-133963021D01*
X181468368Y-133924500D01*
X181468367Y-133924500D01*
X181331633Y-133924500D01*
X181331632Y-133924500D01*
X181200440Y-133963021D01*
X181135405Y-134004816D01*
X181068367Y-134024500D01*
X180751804Y-134024500D01*
X180726359Y-134021861D01*
X180715733Y-134019633D01*
X180715729Y-134019633D01*
X180680509Y-134024023D01*
X180672833Y-134024500D01*
X180668886Y-134024500D01*
X180661205Y-134025781D01*
X180645844Y-134028344D01*
X180591373Y-134035134D01*
X180583844Y-134037375D01*
X180576388Y-134039935D01*
X180528114Y-134066060D01*
X180478791Y-134090172D01*
X180472381Y-134094748D01*
X180466175Y-134099579D01*
X180428992Y-134139970D01*
X179271108Y-135297852D01*
X179251254Y-135313976D01*
X179242165Y-135319914D01*
X179242164Y-135319915D01*
X179220363Y-135347923D01*
X179215286Y-135353674D01*
X179212484Y-135356477D01*
X179212474Y-135356488D01*
X179198905Y-135375495D01*
X179165192Y-135418808D01*
X179161447Y-135425729D01*
X179157988Y-135432804D01*
X179142329Y-135485403D01*
X179124500Y-135537338D01*
X179123206Y-135545092D01*
X179122231Y-135552911D01*
X179124500Y-135607755D01*
X179124499Y-140370918D01*
X179104814Y-140437957D01*
X179088180Y-140458599D01*
X178758599Y-140788181D01*
X178697276Y-140821666D01*
X178670918Y-140824500D01*
X169951804Y-140824500D01*
X169926359Y-140821861D01*
X169915733Y-140819633D01*
X169915730Y-140819633D01*
X169880508Y-140824023D01*
X169872832Y-140824500D01*
X169868886Y-140824500D01*
X169851615Y-140827381D01*
X169845858Y-140828342D01*
X169791370Y-140835134D01*
X169783857Y-140837371D01*
X169776387Y-140839936D01*
X169728122Y-140866055D01*
X169678792Y-140890171D01*
X169672375Y-140894753D01*
X169666175Y-140899579D01*
X169628991Y-140939971D01*
X163771108Y-146797852D01*
X163751254Y-146813976D01*
X163742165Y-146819914D01*
X163742164Y-146819915D01*
X163720363Y-146847923D01*
X163715286Y-146853674D01*
X163712484Y-146856477D01*
X163712474Y-146856488D01*
X163698905Y-146875495D01*
X163665192Y-146918808D01*
X163661447Y-146925729D01*
X163657988Y-146932804D01*
X163642329Y-146985403D01*
X163624500Y-147037338D01*
X163623206Y-147045092D01*
X163622231Y-147052911D01*
X163624500Y-147107755D01*
X163624500Y-148256964D01*
X163604815Y-148324003D01*
X163552013Y-148369758D01*
X163447240Y-148417607D01*
X163276052Y-148539509D01*
X163276040Y-148539520D01*
X163131014Y-148691620D01*
X163017388Y-148868425D01*
X162939274Y-149063544D01*
X162919570Y-149165782D01*
X162899500Y-149269915D01*
X162899500Y-149677425D01*
X162600500Y-149677425D01*
X162600500Y-149322575D01*
X162585528Y-149165782D01*
X162526316Y-148964125D01*
X162430011Y-148777318D01*
X162430009Y-148777316D01*
X162430008Y-148777313D01*
X162300094Y-148612116D01*
X162300090Y-148612112D01*
X162141253Y-148474478D01*
X161959249Y-148369398D01*
X161959245Y-148369396D01*
X161959244Y-148369396D01*
X161760633Y-148300656D01*
X161552602Y-148270746D01*
X161552598Y-148270746D01*
X161342672Y-148280745D01*
X161138421Y-148330296D01*
X161138417Y-148330298D01*
X160947256Y-148417598D01*
X160947251Y-148417601D01*
X160776046Y-148539515D01*
X160776040Y-148539520D01*
X160631014Y-148691620D01*
X160517388Y-148868425D01*
X160439274Y-149063544D01*
X160419570Y-149165782D01*
X160399500Y-149269915D01*
X160399500Y-149677425D01*
X160100500Y-149677425D01*
X160100499Y-148727128D01*
X160094091Y-148667517D01*
X160073426Y-148612112D01*
X160043797Y-148532671D01*
X160043793Y-148532664D01*
X159957547Y-148417455D01*
X159957544Y-148417452D01*
X159842335Y-148331206D01*
X159842328Y-148331202D01*
X159707482Y-148280908D01*
X159707483Y-148280908D01*
X159647883Y-148274501D01*
X159647881Y-148274500D01*
X159647873Y-148274500D01*
X159647865Y-148274500D01*
X159499500Y-148274500D01*
X159432461Y-148254815D01*
X159386706Y-148202011D01*
X159375500Y-148150500D01*
X159375500Y-147906899D01*
X159395185Y-147839860D01*
X159411819Y-147819218D01*
X162399214Y-144831823D01*
X165427827Y-141803210D01*
X165480571Y-141771916D01*
X165599558Y-141736979D01*
X165599559Y-141736979D01*
X165647922Y-141705899D01*
X165714589Y-141663055D01*
X165804130Y-141559718D01*
X165860931Y-141435342D01*
X165880390Y-141300000D01*
X165860931Y-141164658D01*
X165848677Y-141137827D01*
X165804132Y-141040285D01*
X165804127Y-141040278D01*
X165714590Y-140936946D01*
X165714586Y-140936942D01*
X165619755Y-140876000D01*
X165599561Y-140863022D01*
X165599560Y-140863021D01*
X165599559Y-140863021D01*
X165468368Y-140824500D01*
X165468367Y-140824500D01*
X165331633Y-140824500D01*
X165331632Y-140824500D01*
X165200440Y-140863021D01*
X165085413Y-140936942D01*
X165085409Y-140936946D01*
X164995872Y-141040278D01*
X164995869Y-141040283D01*
X164939069Y-141164656D01*
X164939068Y-141164660D01*
X164933987Y-141199999D01*
X164904961Y-141263554D01*
X164898930Y-141270031D01*
X158771108Y-147397852D01*
X158751254Y-147413976D01*
X158742165Y-147419914D01*
X158742164Y-147419915D01*
X158720363Y-147447923D01*
X158715286Y-147453674D01*
X158712484Y-147456477D01*
X158712474Y-147456488D01*
X158698905Y-147475495D01*
X158665192Y-147518808D01*
X158661447Y-147525729D01*
X158657988Y-147532804D01*
X158642329Y-147585403D01*
X158624500Y-147637338D01*
X158623206Y-147645092D01*
X158622231Y-147652911D01*
X158624500Y-147707755D01*
X158624500Y-148150500D01*
X158604815Y-148217539D01*
X158552011Y-148263294D01*
X158500501Y-148274500D01*
X158352130Y-148274500D01*
X158352123Y-148274501D01*
X158292516Y-148280908D01*
X158157671Y-148331202D01*
X158157664Y-148331206D01*
X158042455Y-148417452D01*
X158042452Y-148417455D01*
X157956206Y-148532664D01*
X157956202Y-148532671D01*
X157905908Y-148667517D01*
X157903317Y-148691622D01*
X157899501Y-148727123D01*
X157899500Y-148727135D01*
X157899500Y-150272870D01*
X145312413Y-150272870D01*
X145300500Y-150000000D01*
X145300500Y-149952405D01*
X145300500Y-149952404D01*
X145300500Y-110000000D01*
X145318265Y-109593092D01*
X145318734Y-109587743D01*
X145371543Y-109186614D01*
X145372481Y-109181302D01*
X145460047Y-108786319D01*
X145461441Y-108781112D01*
X145583104Y-108395247D01*
X145584951Y-108390174D01*
X145739782Y-108016378D01*
X145742045Y-108011526D01*
X145928870Y-107652639D01*
X145931566Y-107647971D01*
X146148942Y-107306758D01*
X146152035Y-107302340D01*
X146398339Y-106981349D01*
X146401798Y-106977228D01*
X146675133Y-106678936D01*
X146678936Y-106675133D01*
X146977228Y-106401798D01*
X146981349Y-106398339D01*
X147302340Y-106152035D01*
X147306750Y-106148947D01*
X147647971Y-105931566D01*
X147652639Y-105928870D01*
X148011526Y-105742045D01*
X148016378Y-105739782D01*
X148390181Y-105584948D01*
X148395247Y-105583104D01*
X148781112Y-105461441D01*
X148786319Y-105460047D01*
X149181302Y-105372481D01*
X149186614Y-105371543D01*
X149587743Y-105318734D01*
X149593092Y-105318265D01*
X150000000Y-105300500D01*
X150047595Y-105300500D01*
X189952405Y-105300500D01*
X190000000Y-105300500D01*
X190406905Y-105318265D01*
G37*
G04 #@! TD.AperFunction*
G04 #@! TA.AperFunction,Conductor*
G36*
X188743039Y-122019685D02*
G01*
X188788794Y-122072489D01*
X188800000Y-122124000D01*
X188800000Y-127876000D01*
X188780315Y-127943039D01*
X188727511Y-127988794D01*
X188676000Y-128000000D01*
X170779500Y-128000000D01*
X170712461Y-127980315D01*
X170666706Y-127927511D01*
X170655500Y-127876000D01*
X170655500Y-124123737D01*
X170655499Y-124123727D01*
X170649719Y-124069697D01*
X170649718Y-124069694D01*
X170649718Y-124069690D01*
X170638621Y-124018418D01*
X170631499Y-123992292D01*
X170616116Y-123965146D01*
X170600000Y-123904014D01*
X170600000Y-122124000D01*
X170619685Y-122056961D01*
X170672489Y-122011206D01*
X170724000Y-122000000D01*
X188676000Y-122000000D01*
X188743039Y-122019685D01*
G37*
G04 #@! TD.AperFunction*
G04 #@! TA.AperFunction,Conductor*
G36*
X170276266Y-123999737D02*
G01*
X170343260Y-124019564D01*
X170388903Y-124072465D01*
X170400000Y-124123737D01*
X170400000Y-128176000D01*
X170380315Y-128243039D01*
X170327511Y-128288794D01*
X170276000Y-128300000D01*
X166400000Y-128300000D01*
X166400000Y-132976000D01*
X166380315Y-133043039D01*
X166327511Y-133088794D01*
X166276000Y-133100000D01*
X149401362Y-133100000D01*
X149334323Y-133080315D01*
X149313681Y-133063681D01*
X148036319Y-131786318D01*
X148002834Y-131724995D01*
X148000000Y-131698637D01*
X148000000Y-127124000D01*
X148019685Y-127056961D01*
X148072489Y-127011206D01*
X148124000Y-127000000D01*
X153999999Y-127000000D01*
X154000000Y-127000000D01*
X154036946Y-124088036D01*
X154057479Y-124021254D01*
X154110860Y-123976172D01*
X154161195Y-123965611D01*
X170276266Y-123999737D01*
G37*
G04 #@! TD.AperFunction*
G04 #@! TA.AperFunction,Conductor*
G36*
X158943039Y-116919685D02*
G01*
X158988794Y-116972489D01*
X159000000Y-117024000D01*
X159000000Y-117750000D01*
X160500000Y-117750000D01*
X160500000Y-117024000D01*
X160519685Y-116956961D01*
X160572489Y-116911206D01*
X160624000Y-116900000D01*
X178776000Y-116900000D01*
X178843039Y-116919685D01*
X178888794Y-116972489D01*
X178900000Y-117024000D01*
X178900000Y-120676000D01*
X178880315Y-120743039D01*
X178827511Y-120788794D01*
X178776000Y-120800000D01*
X169500000Y-120800000D01*
X169500000Y-122776000D01*
X169480315Y-122843039D01*
X169427511Y-122888794D01*
X169376000Y-122900000D01*
X148124000Y-122900000D01*
X148056961Y-122880315D01*
X148011206Y-122827511D01*
X148000000Y-122776000D01*
X148000000Y-117024000D01*
X148019685Y-116956961D01*
X148072489Y-116911206D01*
X148124000Y-116900000D01*
X158876000Y-116900000D01*
X158943039Y-116919685D01*
G37*
G04 #@! TD.AperFunction*
G04 #@! TA.AperFunction,Conductor*
G36*
X194642539Y-120919685D02*
G01*
X194688294Y-120972489D01*
X194699500Y-121024000D01*
X194699500Y-127476000D01*
X194679815Y-127543039D01*
X194627011Y-127588794D01*
X194575500Y-127600000D01*
X189424000Y-127600000D01*
X189356961Y-127580315D01*
X189311206Y-127527511D01*
X189300000Y-127476000D01*
X189300000Y-121024000D01*
X189319685Y-120956961D01*
X189372489Y-120911206D01*
X189424000Y-120900000D01*
X194575500Y-120900000D01*
X194642539Y-120919685D01*
G37*
G04 #@! TD.AperFunction*
M02*
