M48
; DRILL file {KiCad 7.0.7} date Thu Oct 26 17:58:58 2023
; FORMAT={-:-/ absolute / metric / decimal}
; #@! TF.CreationDate,2023-10-26T17:58:58+02:00
; #@! TF.GenerationSoftware,Kicad,Pcbnew,7.0.7
; #@! TF.FileFunction,Plated,1,4,PTH
FMAT,2
METRIC
; #@! TA.AperFunction,Plated,PTH,ViaDrill
T1C0.300
; #@! TA.AperFunction,Plated,PTH,ComponentDrill
T2C0.600
; #@! TA.AperFunction,Plated,PTH,ComponentDrill
T3C0.950
; #@! TA.AperFunction,Plated,PTH,ComponentDrill
T4C1.000
; #@! TA.AperFunction,Plated,PTH,ComponentDrill
T5C1.100
; #@! TA.AperFunction,Plated,PTH,ComponentDrill
T6C1.500
; #@! TA.AperFunction,Plated,PTH,ComponentDrill
T7C4.300
%
G90
G05
T1
X149.1Y-140.8
X149.8Y-140.8
X150.5Y-142.5
X150.5Y-143.25
X151.5Y-140.8
X152.7Y-141.9
X153.4Y-141.9
X155.5Y-144.4
X156.25Y-139.0
X156.5Y-118.25
X156.5Y-119.75
X156.5Y-121.25
X156.5Y-125.25
X156.5Y-126.75
X156.5Y-128.25
X156.5Y-129.75
X156.5Y-131.25
X158.6Y-136.2
X158.75Y-142.0
X159.0Y-118.25
X159.0Y-119.75
X159.0Y-121.25
X159.0Y-125.25
X159.0Y-126.75
X159.0Y-128.25
X159.0Y-129.75
X159.0Y-131.25
X159.5Y-142.0
X160.3Y-116.1
X160.3Y-117.4
X161.0Y-119.75
X161.25Y-112.5
X161.25Y-113.25
X161.5Y-121.25
X161.5Y-125.25
X161.5Y-126.75
X161.5Y-128.25
X161.5Y-129.75
X161.5Y-131.25
X161.75Y-119.75
X162.0Y-112.5
X162.0Y-113.25
X162.5Y-119.75
X162.75Y-112.5
X162.75Y-113.25
X163.0Y-109.5
X163.0Y-111.0
X163.0Y-137.7
X163.25Y-119.75
X163.25Y-142.25
X163.5Y-112.5
X163.5Y-113.25
X164.0Y-119.75
X164.0Y-121.25
X164.0Y-125.25
X164.0Y-126.75
X164.0Y-128.25
X164.0Y-129.75
X164.0Y-131.25
X164.25Y-112.5
X164.25Y-113.25
X164.4Y-137.4
X164.75Y-119.75
X165.0Y-112.5
X165.0Y-113.25
X165.4Y-141.3
X165.5Y-109.5
X165.5Y-111.0
X165.5Y-119.75
X165.75Y-112.5
X165.75Y-113.25
X166.25Y-119.75
X166.5Y-112.5
X166.5Y-113.25
X166.5Y-121.25
X166.5Y-124.5
X166.5Y-125.25
X166.5Y-126.0
X166.5Y-126.75
X166.5Y-127.5
X167.0Y-119.75
X167.25Y-112.5
X167.25Y-113.25
X167.25Y-124.5
X167.25Y-125.25
X167.25Y-126.0
X167.25Y-126.75
X167.25Y-127.5
X167.75Y-119.75
X167.75Y-131.0
X167.75Y-132.0
X168.0Y-109.5
X168.0Y-111.0
X168.0Y-112.5
X168.0Y-113.25
X168.0Y-124.5
X168.0Y-125.25
X168.5Y-119.75
X168.75Y-112.5
X168.75Y-113.25
X168.75Y-124.5
X168.75Y-125.25
X169.25Y-119.75
X169.5Y-112.5
X169.5Y-113.25
X169.5Y-124.5
X169.5Y-125.25
X170.0Y-119.75
X170.25Y-112.5
X170.25Y-113.25
X170.5Y-109.5
X170.5Y-111.0
X170.75Y-119.75
X171.0Y-112.5
X171.0Y-113.25
X171.25Y-124.5
X171.25Y-125.25
X171.5Y-119.75
X171.75Y-112.5
X171.75Y-113.25
X172.0Y-124.5
X172.0Y-125.25
X172.25Y-119.75
X172.4Y-144.6
X172.5Y-112.5
X172.5Y-113.25
X172.75Y-124.5
X172.75Y-125.25
X173.0Y-109.5
X173.0Y-111.0
X173.0Y-119.75
X173.25Y-112.5
X173.25Y-113.25
X173.5Y-124.5
X173.5Y-125.25
X173.5Y-126.0
X173.5Y-126.75
X173.5Y-127.5
X173.5Y-132.2
X173.75Y-119.75
X173.75Y-123.25
X174.0Y-112.5
X174.0Y-113.25
X174.1Y-132.2
X174.25Y-124.5
X174.25Y-125.25
X174.25Y-126.0
X174.25Y-126.75
X174.25Y-127.5
X174.5Y-119.75
X174.75Y-112.5
X174.75Y-113.25
X175.2Y-143.8
X175.25Y-119.75
X175.5Y-109.5
X175.5Y-111.0
X175.5Y-112.5
X175.5Y-113.25
X176.0Y-119.75
X176.25Y-123.25
X176.25Y-124.75
X176.25Y-126.25
X176.75Y-119.75
X177.5Y-119.75
X177.6Y-146.9
X178.0Y-109.5
X178.0Y-111.0
X178.0Y-112.5
X178.1Y-146.3
X178.5Y-146.9
X178.6Y-140.3
X178.75Y-123.25
X178.75Y-124.75
X178.75Y-126.25
X179.0Y-146.3
X180.5Y-109.75
X180.5Y-111.25
X180.5Y-112.75
X180.7Y-135.2
X181.25Y-124.75
X181.25Y-126.25
X181.4Y-134.4
X182.2Y-139.1
X182.5Y-135.75
X183.0Y-112.25
X183.0Y-113.75
X183.0Y-115.25
X183.1Y-136.4
X183.4Y-137.1
X183.5Y-134.75
X183.5Y-139.75
X183.6Y-141.4
X183.6Y-142.0
X183.6Y-152.5
X183.6Y-153.2
X183.75Y-124.75
X183.75Y-126.25
X184.1Y-137.9
X184.3Y-152.5
X184.3Y-153.2
X184.5Y-123.25
X185.0Y-139.25
X185.5Y-114.75
X185.5Y-116.25
X185.5Y-117.75
X185.75Y-139.25
X187.0Y-123.25
X188.0Y-117.25
X188.0Y-118.75
X188.0Y-120.25
X189.5Y-140.5
X190.0Y-124.5
X190.75Y-124.5
X191.5Y-124.5
X191.5Y-125.25
X191.5Y-126.0
X191.5Y-126.75
X192.25Y-124.5
X192.25Y-125.25
X192.25Y-126.0
X192.25Y-126.75
X192.9Y-143.3
X192.9Y-144.0
X193.0Y-124.5
X193.0Y-125.25
X193.0Y-126.0
X193.0Y-126.75
X193.0Y-138.5
X193.6Y-143.3
X193.6Y-144.0
X194.0Y-138.5
T2
X146.775Y-110.0
X146.775Y-150.0
X147.72Y-107.72
X147.72Y-112.28
X147.72Y-147.72
X147.72Y-152.28
X150.0Y-106.775
X150.0Y-113.225
X150.0Y-146.775
X150.0Y-153.225
X152.28Y-107.72
X152.28Y-112.28
X152.28Y-147.72
X152.28Y-152.28
X153.225Y-110.0
X153.225Y-150.0
X186.775Y-110.0
X186.775Y-150.0
X187.72Y-107.72
X187.72Y-112.28
X187.72Y-147.72
X187.72Y-152.28
X190.0Y-106.775
X190.0Y-113.225
X190.0Y-146.775
X190.0Y-153.225
X192.28Y-107.72
X192.28Y-112.28
X192.28Y-147.72
X192.28Y-152.28
X193.225Y-110.0
X193.225Y-150.0
T3
X159.0Y-149.5
X161.5Y-149.5
X164.0Y-149.5
X166.5Y-149.5
X169.0Y-149.5
X171.5Y-149.5
X174.0Y-149.5
X176.5Y-149.5
X179.0Y-149.5
X181.5Y-149.5
T4
X170.0Y-137.0
X172.5Y-137.0
T5
X191.0Y-119.46
X191.0Y-122.0
X191.0Y-129.96
X191.0Y-132.5
T6
X151.02Y-119.55
X151.02Y-125.0
X151.02Y-130.45
T7
X150.0Y-110.0
X150.0Y-150.0
X190.0Y-110.0
X190.0Y-150.0
T0
M30
