<?xml version="1.0" encoding="UTF-8" standalone="no"?>
<svg
   version="1.1"
   x="0px"
   y="0px"
   viewBox="0 0 1000 1000"
   enable-background="new 0 0 1000 1000"
   xml:space="preserve"
   id="svg834"
   sodipodi:docname="help copy.svg"
   inkscape:version="1.1-dev (9017afb, 2021-01-01)"
   xmlns:inkscape="http://www.inkscape.org/namespaces/inkscape"
   xmlns:sodipodi="http://sodipodi.sourceforge.net/DTD/sodipodi-0.dtd"
   xmlns="http://www.w3.org/2000/svg"
   xmlns:svg="http://www.w3.org/2000/svg"><defs
   id="defs838"><rect
     x="413.10976"
     y="446.64634"
     width="60.97561"
     height="88.414634"
     id="rect4109" /></defs><sodipodi:namedview
   id="namedview836"
   pagecolor="#ffffff"
   bordercolor="#111111"
   borderopacity="1"
   objecttolerance="10.0"
   gridtolerance="10.0"
   guidetolerance="10.0"
   inkscape:pageshadow="0"
   inkscape:pageopacity="0"
   inkscape:pagecheckerboard="1"
   showgrid="false"
   inkscape:zoom="0.46467596"
   inkscape:cx="652.0673"
   inkscape:cy="559.5297"
   inkscape:window-width="1680"
   inkscape:window-height="928"
   inkscape:window-x="0"
   inkscape:window-y="25"
   inkscape:window-maximized="1"
   inkscape:current-layer="svg834" />
	<metadata
   id="metadata824">
		Svg Vector Icons : http://www.onlinewebfonts.com/icon
	</metadata>
	<g
   id="g832"><g
   aria-label="+"
   id="text1585"
   style="font-size:1200px;line-height:1.25;font-family:'SF Pro Rounded';-inkscape-font-specification:'SF Pro Rounded';fill:#ffffff"><path
     d="m 496.84166,805.48303 c 28.71094,0 47.46094,-21.67969 47.46094,-50.39062 V 549.42834 h 193.94531 c 28.71094,0 50.39062,-18.75 50.39062,-47.46093 0,-28.71094 -21.67968,-47.46094 -50.39062,-47.46094 H 544.3026 v -206.25 c 0,-28.71094 -18.75,-50.39063 -47.46094,-50.39063 -28.71094,0 -47.46094,21.67969 -47.46094,50.39063 v 206.25 H 254.84947 c -28.71094,0 -50.39062,18.75 -50.39062,47.46094 0,28.71093 21.67968,47.46093 50.39062,47.46093 h 194.53125 v 205.66407 c 0,28.71093 18.75,50.39062 47.46094,50.39062 z"
     id="path10083" /></g>
		<path
   fill="white"
   d="M500.1,9.9C229.4,9.9,10,229.1,10,499.8c0,270.7,219.4,490.3,490.1,490.3S990,770.5,990,499.8C990,229.1,770.7,9.9,500.1,9.9z M500.3,879.2c-209.5,0-379.6-169.9-379.6-379.5c0-209.4,170-379,379.6-379c209.2,0,379,169.6,379,379C879.2,709.4,709.5,879.2,500.3,879.2z"
   id="path826" />
		
		
	<text
   xml:space="preserve"
   id="text4107"
   style="fill:black;fill-opacity:1;line-height:1.25;stroke:none;font-family:sans-serif;font-style:normal;font-weight:normal;font-size:40px;white-space:pre;shape-inside:url(#rect4109)" /></g>
</svg>
