<?xml version="1.0" encoding="UTF-8" standalone="no"?>
<svg
   width="135.90686mm"
   height="134.1304mm"
   viewBox="0 0 135.90686 134.1304"
   version="1.1"
   id="svg5"
   xmlns="http://www.w3.org/2000/svg"
   xmlns:svg="http://www.w3.org/2000/svg">
  <g
     id="layer1"
     transform="translate(-0.11221055,-0.166174)">
    <path
       d="m 122.54375,11.336664 c -7.73341,-7.40829 -16.25642,-11.17049 -25.360001,-11.17049 -14.23598,0 -24.64009,9.19649 -27.47335,12.02975 -3.99444,3.97121 -60.5212284,60.41489 -60.5212284,60.41489 -0.9057145,0.90572 -1.5327485,2.02045 -1.8810995,3.22806 -1.738154,12.70684 -6.90781094,48.779066 -7.04715094,49.266756 -0.38837197,2.61792 -0.09289,5.41107 1.81142894,7.31539 2.653379,2.18254 4.311151,1.96283 7.2689415,1.74176 0.5109167,-0.16256 37.9891424,-4.66981 49.5925264,-6.48914 1.114726,-0.34834 2.159781,-0.95216 2.995826,-1.7882 5.411066,-5.36462 52.741357,-51.171966 61.194697,-59.903986 8.73202,-9.0107 13.07481,-18.39298 12.88902,-27.86815 -0.13934,-9.33583 -4.69114,-18.34653 -13.46961,-26.77664 z m -72.365176,75.64947 c -7.431507,-7.47795 -14.979131,-11.72784 -20.808219,-14.09664 25.058111,-25.08133 10.590787,-10.48445 38.087364,-37.98103 3.57641,0.85927 12.09942,3.69253 20.85466,12.54067 8.82492,8.91781 11.193704,19.08968 11.611724,21.34236 C 72.032739,96.566754 88.184279,80.815284 62.370889,105.12367 60.02532,99.666144 56.263119,93.117134 50.178574,86.986134 Z M 19.73262,84.872804 c 3.901541,1.04506 11.983305,4.04088 20.274079,12.37811 6.363227,6.409676 9.359053,13.492836 10.706014,17.812396 -12.145415,2.21029 -23.113271,3.61595 -37.027955,5.77619 2.547141,-13.58956 4.077474,-24.579536 6.047862,-35.966696 z m 93.10372,-28.99355 c -0.27868,0.3019 -0.76637,0.78959 -1.34695,1.37018 -2.25268,-5.78264 -6.17745,-13.21415 -13.005131,-20.08829 -6.96704,-7.01348 -14.02697,-11.14726 -19.69349,-13.60895 0.48769,-0.48769 0.85927,-0.85926 0.99861,-0.9986 0.81282,-0.81283 8.17465,-7.84953 17.37114,-7.84953 5.294941,0 10.473771,2.41524 15.443591,7.15282 5.87554,5.6433 8.91781,11.21693 9.0107,16.55832 0.11612,5.45752 -2.85648,11.33305 -8.77847,17.46405 z"
       style="stroke-width:0.232234"
       fill="white"/>
  </g>
</svg>
