<?xml version="1.0" encoding="UTF-8" standalone="no"?>
<!DOCTYPE svg PUBLIC "-//W3C//DTD SVG 1.1//EN" "http://www.w3.org/Graphics/SVG/1.1/DTD/svg11.dtd">
<svg version="1.1" xmlns="http://www.w3.org/2000/svg" xmlns:xlink="http://www.w3.org/1999/xlink" preserveAspectRatio="xMidYMid meet" viewBox="75.40780683546598 32.0959162493036 434.0065747813342 575.808167501393" width="434" height="576"><defs><path d="M497.82 297.5C501.56 299.93 504.39 303.31 506.32 307.64C509.21 314.14 510.35 314.94 508.56 325.28C507.36 332.16 503.78 337.84 497.82 342.3C268.57 498.97 141.21 586.01 115.73 603.42C111.25 606.62 106.13 607.9 101.01 607.9C97.17 607.9 92.69 606.62 88.85 604.7C80.53 600.22 75.41 591.9 75.41 582.3C75.41 529.82 75.41 109.97 75.41 57.49C75.41 47.89 80.53 39.57 88.85 35.09C97.17 30.61 107.41 31.25 115.09 36.37C140.61 53.78 268.18 140.82 497.82 297.5Z" id="b1kfAMY8qm"></path></defs><g><use xlink:href="#b1kfAMY8qm" opacity="1" fill="#ffffff" fill-opacity="1"></use></g></svg>