<?xml version="1.0" encoding="UTF-8" standalone="no"?>
<svg
   viewBox="-140 -125  280 250"
   version="1.0"
   xmlns="http://www.w3.org/2000/svg"
   xmlns:svg="http://www.w3.org/2000/svg">
  <path
     d="m -140,-120 5,-5 h 32.58343 l 5.66518,4.95556 a 37.5,37.5 0 0 0 73.502777,0 L -17.583429,-125 h 35.166852 l 5.665184,4.95556 a 37.5,37.5 0 0 0 73.50278,0 L 102.41657,-125 H 135 l 5,5 v 239.99999 l -5,5 h -32.58343 l -5.665183,-4.95556 a 37.5,37.5 0 0 0 -73.50278,0 l -5.665184,4.95556 h -35.166852 l -5.665184,-4.95556 a 37.5,37.5 0 0 0 -73.502777,0 l -5.66518,4.95556 H -135 l -5,-5 z"
     id="ID_159-7"
     style="fill:none;stroke:#000000;stroke-opacity:1" />
</svg>
