<?xml version="1.0" encoding="UTF-8" standalone="no"?>
<svg
   viewBox="-140 -125 250 280"
   version="1.0"
   xmlns="http://www.w3.org/2000/svg"
   xmlns:svg="http://www.w3.org/2000/svg">
  <path
     d="m 105.49999,-124.5 5,5 v 32.58342 l -4.95556,5.665185 a 37.5,37.5 0 0 0 0,73.502777 l 4.95556,5.665184 v 35.166852 l -4.95556,5.665184 a 37.5,37.5 0 0 0 0,73.502778 l 4.95556,5.66518 V 150.5 l -5,5 H -134.5 l -5,-5 v -32.58343 l 4.95556,-5.66519 a 37.5,37.5 0 0 0 0,-73.502778 L -139.5,33.083418 V -2.083434 l 4.95556,-5.665184 a 37.5,37.5 0 0 0 0,-73.502777 L -139.5,-86.91657 V -119.5 l 5,-5 z"
     id="ID_159-7"
     style="fill:none;stroke:#000000;stroke-opacity:1" />
</svg>
