<?xml version="1.0" encoding="UTF-8" standalone="no"?>
<svg viewBox="-140 -125 321 291" version="1.0" width="321" height="291" xmlns="http://www.w3.org/2000/svg" xmlns:svg="http://www.w3.org/2000/svg">
	<path d="m -119.5,-99.5 5,-5 h 32.58343 l 5.66518,4.95556 a 37.5,37.5 0 0 0 73.502777,0 L 2.916571,-104.5 h 35.166852 l 5.665184,4.95556 a 37.5,37.5 0 0 0 73.502783,0 L 122.91657,-104.5 H 155.5 l 5,5 v 239.99999 l -5,5 h -32.58343 l -5.66518,-4.95556 a 37.5,37.5 0 0 0 -73.502783,0 l -5.665184,4.95556 H 2.916571 l -5.665184,-4.95556 a 37.5,37.5 0 0 0 -73.502777,0 l -5.66518,4.95556 H -114.5 l -5,-5 z" id="ID_159-7" style="fill:none;stroke:#000000;stroke-opacity:1" />
	<rect style="fill:none;stroke:#000000;stroke-width:1;stroke-linejoin:miter;stroke-miterlimit:4;stroke-dasharray:none" id="rect853" width="29.20812" height="44.208122" x="-54.189899" y="-64.5" />
	<rect style="fill:none;stroke:#000000;stroke-width:1;stroke-linejoin:miter;stroke-miterlimit:4;stroke-dasharray:none" id="rect853-0" width="29.20812" height="44.208122" x="64.626907" y="-64.288231" />
	<rect style="fill:none;stroke:#000000;stroke-width:1;stroke-linejoin:miter;stroke-miterlimit:4;stroke-dasharray:none" id="rect853-5" width="29.20812" height="44.208122" x="-54.157101" y="59.956108" />
	<rect style="fill:none;stroke:#000000;stroke-width:1;stroke-linejoin:miter;stroke-miterlimit:4;stroke-dasharray:none" id="rect853-0-5" width="29.20812" height="44.208122" x="64.659714" y="60.167877" />
	<text xml:space="preserve" id="text5775" style="font-style:normal;font-weight:normal;font-size:10px;line-height:1.25;font-family:sans-serif;white-space:pre;shape-inside:url(#rect5777);fill:#000000;fill-opacity:1;stroke:none" transform="translate(23.529442,42.769263)" x="7.9711914" y="0">
		<tspan x="-71.882812" y="-82.087634">
			NW
		</tspan>
	</text>
	<text xml:space="preserve" id="text5775-5" style="font-style:normal;font-weight:normal;font-size:10px;line-height:1.25;font-family:sans-serif;text-align:center;white-space:pre;shape-inside:url(#rect5777-0);fill:#000000;fill-opacity:1;stroke:none" transform="translate(137.4301,43.592061)" x="6.1352539" y="0">
		<tspan x="-65.178711" y="-82.087634">
			NE
		</tspan>
	</text>
	<text xml:space="preserve" id="text5775-2" style="font-style:normal;font-weight:normal;font-size:10px;line-height:1.25;font-family:sans-serif;white-space:pre;shape-inside:url(#rect5777-9);fill:#000000;fill-opacity:1;stroke:none" transform="translate(40.777519,167.56567)" x="7.9711914" y="0">
		<tspan x="-88.494141" y="-82.087634">
			SW
		</tspan>
	</text>
	<text xml:space="preserve" id="text5775-2-7" style="font-style:normal;font-weight:normal;font-size:10px;line-height:1.25;font-family:sans-serif;white-space:pre;shape-inside:url(#rect5777-9-1);fill:#000000;fill-opacity:1;stroke:none" transform="translate(159.52986,167.88708)" x="7.9711914" y="0">
		<tspan x="-86.716797" y="-82.087634">
			SE
		</tspan>
	</text>
</svg>
