<?xml version="1.0" encoding="UTF-8" standalone="no"?>
<!DOCTYPE svg PUBLIC "-//W3C//DTD SVG 1.1//EN" "http://www.w3.org/Graphics/SVG/1.1/DTD/svg11.dtd">
<svg version="1.1" xmlns="http://www.w3.org/2000/svg" xmlns:xlink="http://www.w3.org/1999/xlink" preserveAspectRatio="xMidYMid meet" viewBox="0 0 14 16" width="14" height="16"><defs><path d="M5 0C5.67 0 6 0.33 6 1C6 9.4 6 14.07 6 15C6 15.67 5.67 16 5 16C2.6 16 1.27 16 1 16C0.33 16 0 15.67 0 15C0 6.6 0 1.93 0 1C0 0.33 0.33 0 1 0C3.4 0 4.73 0 5 0Z" id="a5P2KZ0ZTw"></path><path d="M13 0C13.67 0 14 0.33 14 1C14 9.4 14 14.07 14 15C14 15.67 13.67 16 13 16C10.6 16 9.27 16 9 16C8.33 16 8 15.67 8 15C8 6.6 8 1.93 8 1C8 0.33 8.33 0 9 0C11.4 0 12.73 0 13 0Z" id="c1fEguqMPS"></path></defs><g><g><use xlink:href="#a5P2KZ0ZTw" opacity="1" fill="#fff" fill-opacity="1"></use><g><use xlink:href="#a5P2KZ0ZTw" opacity="1" fill-opacity="0" stroke="#fff" stroke-width="1" stroke-opacity="0"></use></g></g><g><use xlink:href="#c1fEguqMPS" opacity="1" fill="#fff" fill-opacity="1"></use><g><use xlink:href="#c1fEguqMPS" opacity="1" fill-opacity="0" stroke="#fff" stroke-width="1" stroke-opacity="0"></use></g></g></g></svg>