<?xml version="1.0" encoding="iso-8859-1"?>
<!-- Generator: Adobe Illustrator 19.0.0, SVG Export Plug-In . SVG Version: 6.00 Build 0)  -->
<svg version="1.1" id="Capa_1" xmlns="http://www.w3.org/2000/svg" xmlns:xlink="http://www.w3.org/1999/xlink" x="0px" y="0px"
	 viewBox="0 0 469.336 469.336" style="enable-background:new 0 0 469.336 469.336;" xml:space="preserve">
<g>
	<path fill="white" d="M459.95,137.237L331.971,9.089c-12.063-12.12-33.219-12.11-45.26-0.01l-42.656,42.713
		c-6.052,6.039-9.385,14.091-9.385,22.665c0,8.574,3.333,16.626,9.375,22.655l127.99,128.159
		c6.031,6.06,14.073,9.398,22.635,9.398s16.604-3.338,22.625-9.387l42.656-42.713c6.052-6.039,9.385-14.092,9.385-22.665
		C469.336,151.329,466.002,143.276,459.95,137.237z"/>
	<path fill="white" d="M235.127,118.543c-3.5-3.51-8.938-4.135-13.115-1.552c-31.146,19.094-79.938,41.854-135.521,41.854
		c-4.76,0-8.948,3.156-10.26,7.74L0.408,431.97c-1.344,4.729,0.708,9.76,4.979,12.198c4.26,2.406,9.656,1.646,13.031-1.948
		l126.885-134.344c4.26-4.521,6.271-10.885,5.51-17.469c-1.469-12.875,4.427-24.615,15.76-31.396
		c9.958-5.938,23.177-5.646,32.979,0.698c8.49,5.531,13.74,13.979,14.76,23.781c1.01,9.656-2.344,19.125-9.198,25.979
		c-6.865,6.865-16.365,10.125-26.219,9.031c-6.719-0.792-12.885,1.229-17.427,5.531L27.117,450.918
		c-3.573,3.375-4.375,8.75-1.948,13.031c1.938,3.396,5.51,5.385,9.271,5.385c0.969,0,1.958-0.135,2.927-0.406l265.385-75.823
		c4.583-1.313,7.74-5.5,7.74-10.26c0-55.583,22.76-104.375,41.854-135.521c2.573-4.198,1.938-9.625-1.552-13.115L235.127,118.543z
		"/>
</g>
</svg>
