M48
; DRILL file {KiCad (6.0.10)} date Tue Aug 29 00:03:16 2023
; FORMAT={-:-/ absolute / inch / decimal}
; #@! TF.CreationDate,2023-08-29T00:03:16+02:00
; #@! TF.GenerationSoftware,Kicad,Pcbnew,(6.0.10)
; #@! TF.FileFunction,Plated,1,4,PTH
FMAT,2
INCH
; #@! TA.AperFunction,Plated,PTH,ComponentDrill
T1C0.0118
; #@! TA.AperFunction,Plated,PTH,ViaDrill
T2C0.0157
; #@! TA.AperFunction,Plated,PTH,ComponentDrill
T3C0.0295
; #@! TA.AperFunction,Plated,PTH,ComponentDrill
T4C0.0315
; #@! TA.AperFunction,Plated,PTH,ComponentDrill
T5C0.0354
; #@! TA.AperFunction,Plated,PTH,ComponentDrill
T6C0.0394
; #@! TA.AperFunction,Plated,PTH,ComponentDrill
T7C0.0433
%
G90
G05
T1
X4.8425Y-3.7673
X4.8425Y-3.9248
X5.0Y-3.7673
X5.0Y-3.9248
T2
X4.4587Y-4.4331
X4.4593Y-4.7681
X4.5305Y-4.626
X4.8425Y-3.6417
X4.8425Y-4.0528
X4.9252Y-3.7402
X4.9252Y-4.7795
X4.9984Y-4.0528
X5.0Y-3.6378
X5.0472Y-3.9429
X5.0866Y-5.2756
X5.249Y-4.8386
X5.312Y-4.626
X5.3839Y-4.4311
X5.3848Y-4.7638
T3
X4.7539Y-5.0394
X4.8039Y-5.0394
X4.8539Y-5.0394
X4.9894Y-5.0394
X5.0394Y-5.0394
X5.0894Y-5.0394
T4
X4.5866Y-3.7967
X4.5866Y-3.8967
X4.7213Y-3.7787
X4.7213Y-3.915
X5.1213Y-3.7787
X5.1213Y-3.915
T5
X4.2717Y-3.6116
X4.2717Y-3.7116
X4.4177Y-5.0394
X4.5177Y-5.0394
X5.3248Y-5.0394
X5.4248Y-5.0394
X5.5709Y-3.6116
X5.5709Y-3.7116
T6
X3.9858Y-3.7457
X3.9858Y-3.8457
X3.9858Y-3.9457
X3.9858Y-4.0457
X3.9858Y-4.1457
X3.9858Y-4.2457
X3.9858Y-4.3457
X3.9858Y-4.4457
X3.9858Y-4.6457
X3.9858Y-4.7457
X3.9858Y-4.8457
X3.9858Y-4.9457
X3.9858Y-5.0457
X3.9858Y-5.1457
X4.4746Y-3.4006
X4.5746Y-3.4006
X4.6746Y-3.4006
X4.7746Y-3.4006
X4.7933Y-4.3898
X4.8746Y-3.4006
X4.9746Y-3.4006
X5.0492Y-4.3898
X5.0746Y-3.4006
X5.1746Y-3.4006
X5.2746Y-3.4006
X5.3746Y-3.4006
X5.8858Y-3.3858
X5.8858Y-3.4858
X5.8858Y-3.5858
X5.8858Y-3.6858
X5.8858Y-3.7858
X5.8858Y-3.8858
X5.8858Y-3.9858
X5.8858Y-4.0858
X5.8858Y-4.1858
X5.8858Y-4.2858
X5.8858Y-4.4457
X5.8858Y-4.5457
X5.8858Y-4.6457
X5.8858Y-4.7457
X5.8858Y-4.8457
X5.8858Y-4.9457
X5.8858Y-5.0457
X5.8858Y-5.1457
T7
X4.2815Y-4.0846
X4.2815Y-4.3406
X4.4587Y-4.0846
X4.4587Y-4.3406
X5.3839Y-4.0846
X5.3839Y-4.3406
X5.561Y-4.0846
X5.561Y-4.3406
T0
M30
