%TF.GenerationSoftware,KiCad,Pcbnew,(6.0.10)*%
%TF.CreationDate,2023-08-29T00:03:06+02:00*%
%TF.ProjectId,Rentree ARES,52656e74-7265-4652-9041-5245532e6b69,rev?*%
%TF.SameCoordinates,Original*%
%TF.FileFunction,Soldermask,Top*%
%TF.FilePolarity,Negative*%
%FSLAX46Y46*%
G04 Gerber Fmt 4.6, Leading zero omitted, Abs format (unit mm)*
G04 Created by KiCad (PCBNEW (6.0.10)) date 2023-08-29 00:03:06*
%MOMM*%
%LPD*%
G01*
G04 APERTURE LIST*
G04 Aperture macros list*
%AMRoundRect*
0 Rectangle with rounded corners*
0 $1 Rounding radius*
0 $2 $3 $4 $5 $6 $7 $8 $9 X,Y pos of 4 corners*
0 Add a 4 corners polygon primitive as box body*
4,1,4,$2,$3,$4,$5,$6,$7,$8,$9,$2,$3,0*
0 Add four circle primitives for the rounded corners*
1,1,$1+$1,$2,$3*
1,1,$1+$1,$4,$5*
1,1,$1+$1,$6,$7*
1,1,$1+$1,$8,$9*
0 Add four rect primitives between the rounded corners*
20,1,$1+$1,$2,$3,$4,$5,0*
20,1,$1+$1,$4,$5,$6,$7,0*
20,1,$1+$1,$6,$7,$8,$9,0*
20,1,$1+$1,$8,$9,$2,$3,0*%
G04 Aperture macros list end*
%ADD10C,1.600000*%
%ADD11O,1.600000X1.600000*%
%ADD12R,1.600000X1.600000*%
%ADD13RoundRect,0.250000X0.325000X0.650000X-0.325000X0.650000X-0.325000X-0.650000X0.325000X-0.650000X0*%
%ADD14C,1.800000*%
%ADD15R,1.800000X1.800000*%
%ADD16R,1.700000X1.700000*%
%ADD17O,1.700000X1.700000*%
%ADD18RoundRect,0.250000X-0.450000X0.262500X-0.450000X-0.262500X0.450000X-0.262500X0.450000X0.262500X0*%
%ADD19RoundRect,0.250000X-0.262500X-0.450000X0.262500X-0.450000X0.262500X0.450000X-0.262500X0.450000X0*%
%ADD20RoundRect,0.250000X0.262500X0.450000X-0.262500X0.450000X-0.262500X-0.450000X0.262500X-0.450000X0*%
%ADD21C,1.500000*%
%ADD22C,2.000000*%
%ADD23O,1.050000X1.500000*%
%ADD24R,1.050000X1.500000*%
G04 APERTURE END LIST*
%TO.C,F1*%
G36*
X124000000Y-133500000D02*
G01*
X126000000Y-133500000D01*
X126000000Y-134500000D01*
X124000000Y-134500000D01*
X124000000Y-133500000D01*
G37*
%TD*%
D10*
%TO.C,R2*%
X119920000Y-99440000D03*
D11*
X130080000Y-99440000D03*
%TD*%
%TO.C,A1*%
X149500000Y-86000000D03*
X149500000Y-88540000D03*
X149500000Y-91080000D03*
X149500000Y-93620000D03*
X149500000Y-96160000D03*
X149500000Y-98700000D03*
X149500000Y-101240000D03*
X149500000Y-103780000D03*
X149500000Y-106320000D03*
X149500000Y-108860000D03*
X149500000Y-112920000D03*
X149500000Y-115460000D03*
X149500000Y-118000000D03*
X149500000Y-120540000D03*
X149500000Y-123080000D03*
X149500000Y-125620000D03*
X149500000Y-128160000D03*
X149500000Y-130700000D03*
X101240000Y-130700000D03*
X101240000Y-128160000D03*
X101240000Y-125620000D03*
X101240000Y-123080000D03*
X101240000Y-120540000D03*
X101240000Y-118000000D03*
X101240000Y-112920000D03*
X101240000Y-110380000D03*
X101240000Y-107840000D03*
X101240000Y-105300000D03*
X101240000Y-102760000D03*
X101240000Y-100220000D03*
X101240000Y-97680000D03*
D12*
X101240000Y-95140000D03*
%TD*%
D13*
%TO.C,C1*%
X123525000Y-121360000D03*
X126475000Y-121360000D03*
%TD*%
%TO.C,C2*%
X126475000Y-124110000D03*
X123525000Y-124110000D03*
%TD*%
D14*
%TO.C,D1*%
X112210000Y-128000000D03*
D15*
X114750000Y-128000000D03*
%TD*%
D14*
%TO.C,D2*%
X137790000Y-128000000D03*
D15*
X135250000Y-128000000D03*
%TD*%
%TO.C,D3*%
X108500000Y-94275000D03*
D14*
X108500000Y-91735000D03*
%TD*%
D15*
%TO.C,D4*%
X141500000Y-94275000D03*
D14*
X141500000Y-91735000D03*
%TD*%
D16*
%TO.C,J1*%
X113655000Y-86375000D03*
D17*
X116195000Y-86375000D03*
X118735000Y-86375000D03*
X121275000Y-86375000D03*
X123815000Y-86375000D03*
X126355000Y-86375000D03*
X128895000Y-86375000D03*
X131435000Y-86375000D03*
X133975000Y-86375000D03*
X136515000Y-86375000D03*
%TD*%
D12*
%TO.C,LS1*%
X121750000Y-111500000D03*
D10*
X128250000Y-111500000D03*
%TD*%
D11*
%TO.C,R1*%
X116500000Y-98975000D03*
D10*
X116500000Y-96435000D03*
%TD*%
D18*
%TO.C,R4*%
X111750000Y-122912500D03*
X111750000Y-121087500D03*
%TD*%
%TO.C,R5*%
X114750000Y-122912500D03*
X114750000Y-121087500D03*
%TD*%
%TO.C,R6*%
X135250000Y-122912500D03*
X135250000Y-121087500D03*
%TD*%
%TO.C,R7*%
X138250000Y-122912500D03*
X138250000Y-121087500D03*
%TD*%
D19*
%TO.C,R8*%
X110325000Y-98750000D03*
X108500000Y-98750000D03*
%TD*%
D20*
%TO.C,R9*%
X141500000Y-98750000D03*
X139675000Y-98750000D03*
%TD*%
D19*
%TO.C,R10*%
X134925000Y-114500000D03*
X136750000Y-114500000D03*
%TD*%
D20*
%TO.C,R11*%
X115075000Y-114500000D03*
X113250000Y-114500000D03*
%TD*%
D21*
%TO.C,TP1*%
X123000000Y-102940000D03*
%TD*%
%TO.C,TP2*%
X127000000Y-102940000D03*
%TD*%
%TO.C,TP3*%
X127000000Y-92400000D03*
%TD*%
%TO.C,TP4*%
X123000000Y-92500000D03*
%TD*%
D11*
%TO.C,R3*%
X130080000Y-95980000D03*
D10*
X119920000Y-95980000D03*
%TD*%
D22*
%TO.C,SW1*%
X113250000Y-103750000D03*
X113250000Y-110250000D03*
X108750000Y-103750000D03*
X108750000Y-110250000D03*
%TD*%
%TO.C,SW2*%
X141250000Y-103750000D03*
X141250000Y-110250000D03*
X136750000Y-103750000D03*
X136750000Y-110250000D03*
%TD*%
D23*
%TO.C,Q1*%
X120750000Y-128000000D03*
X122020000Y-128000000D03*
D24*
X123290000Y-128000000D03*
%TD*%
D23*
%TO.C,Q2*%
X126730000Y-128000000D03*
X128000000Y-128000000D03*
D24*
X129270000Y-128000000D03*
%TD*%
M02*
