%TF.GenerationSoftware,KiCad,Pcbnew,(6.0.10)*%
%TF.CreationDate,2023-08-29T00:03:05+02:00*%
%TF.ProjectId,Rentree ARES,52656e74-7265-4652-9041-5245532e6b69,rev?*%
%TF.SameCoordinates,Original*%
%TF.FileFunction,Copper,L3,Inr*%
%TF.FilePolarity,Positive*%
%FSLAX46Y46*%
G04 Gerber Fmt 4.6, Leading zero omitted, Abs format (unit mm)*
G04 Created by KiCad (PCBNEW (6.0.10)) date 2023-08-29 00:03:05*
%MOMM*%
%LPD*%
G01*
G04 APERTURE LIST*
%TA.AperFunction,ComponentPad*%
%ADD10C,1.000000*%
%TD*%
%TA.AperFunction,ComponentPad*%
%ADD11C,1.600000*%
%TD*%
%TA.AperFunction,ComponentPad*%
%ADD12O,1.600000X1.600000*%
%TD*%
%TA.AperFunction,ComponentPad*%
%ADD13R,1.600000X1.600000*%
%TD*%
%TA.AperFunction,ComponentPad*%
%ADD14C,1.800000*%
%TD*%
%TA.AperFunction,ComponentPad*%
%ADD15R,1.800000X1.800000*%
%TD*%
%TA.AperFunction,ComponentPad*%
%ADD16R,1.700000X1.700000*%
%TD*%
%TA.AperFunction,ComponentPad*%
%ADD17O,1.700000X1.700000*%
%TD*%
%TA.AperFunction,ComponentPad*%
%ADD18C,2.000000*%
%TD*%
%TA.AperFunction,ComponentPad*%
%ADD19O,1.050000X1.500000*%
%TD*%
%TA.AperFunction,ComponentPad*%
%ADD20R,1.050000X1.500000*%
%TD*%
%TA.AperFunction,ViaPad*%
%ADD21C,0.800000*%
%TD*%
%TA.AperFunction,Conductor*%
%ADD22C,0.250000*%
%TD*%
G04 APERTURE END LIST*
D10*
%TO.N,/Simon un peu plus dur/SW0*%
%TO.C,F2*%
X123000000Y-99690000D03*
%TO.N,Net-(F2-Pad2)*%
X123000000Y-95690000D03*
%TD*%
%TO.N,/Simon un peu plus dur/SW1*%
%TO.C,F3*%
X127000000Y-99690000D03*
%TO.N,Net-(F3-Pad2)*%
X127000000Y-95690000D03*
%TD*%
D11*
%TO.N,Net-(R1-Pad2)*%
%TO.C,R2*%
X119920000Y-99440000D03*
D12*
%TO.N,/S1*%
X130080000Y-99440000D03*
%TD*%
%TO.N,unconnected-(A1-Pad32)*%
%TO.C,A1*%
X149500000Y-86000000D03*
%TO.N,unconnected-(A1-Pad31)*%
X149500000Y-88540000D03*
%TO.N,unconnected-(A1-Pad30)*%
X149500000Y-91080000D03*
%TO.N,GND*%
X149500000Y-93620000D03*
%TO.N,/RST*%
X149500000Y-96160000D03*
%TO.N,/Simon un peu plus dur/LED1*%
X149500000Y-98700000D03*
%TO.N,unconnected-(A1-Pad26)*%
X149500000Y-101240000D03*
%TO.N,/BUZZER*%
X149500000Y-103780000D03*
%TO.N,/Simon un peu plus dur/SW1*%
X149500000Y-106320000D03*
%TO.N,/Simon un peu plus dur/SW0*%
X149500000Y-108860000D03*
%TO.N,unconnected-(A1-Pad22)*%
X149500000Y-112920000D03*
%TO.N,unconnected-(A1-Pad21)*%
X149500000Y-115460000D03*
%TO.N,unconnected-(A1-Pad20)*%
X149500000Y-118000000D03*
%TO.N,unconnected-(A1-Pad19)*%
X149500000Y-120540000D03*
%TO.N,unconnected-(A1-Pad18)*%
X149500000Y-123080000D03*
%TO.N,unconnected-(A1-Pad17)*%
X149500000Y-125620000D03*
%TO.N,unconnected-(A1-Pad16)*%
X149500000Y-128160000D03*
%TO.N,unconnected-(A1-Pad15)*%
X149500000Y-130700000D03*
%TO.N,unconnected-(A1-Pad14)*%
X101240000Y-130700000D03*
%TO.N,unconnected-(A1-Pad13)*%
X101240000Y-128160000D03*
%TO.N,unconnected-(A1-Pad12)*%
X101240000Y-125620000D03*
%TO.N,unconnected-(A1-Pad11)*%
X101240000Y-123080000D03*
%TO.N,unconnected-(A1-Pad10)*%
X101240000Y-120540000D03*
%TO.N,/Simon un peu plus dur/LED0*%
X101240000Y-118000000D03*
%TO.N,unconnected-(A1-Pad8)*%
X101240000Y-112920000D03*
%TO.N,GND*%
X101240000Y-110380000D03*
X101240000Y-107840000D03*
%TO.N,unconnected-(A1-Pad5)*%
X101240000Y-105300000D03*
%TO.N,+3.3V*%
X101240000Y-102760000D03*
%TO.N,unconnected-(A1-Pad3)*%
X101240000Y-100220000D03*
%TO.N,unconnected-(A1-Pad2)*%
X101240000Y-97680000D03*
D13*
%TO.N,unconnected-(A1-Pad1)*%
X101240000Y-95140000D03*
%TD*%
D14*
%TO.N,Net-(D1-Pad2)*%
%TO.C,D1*%
X112210000Y-128000000D03*
D15*
%TO.N,Net-(C1-Pad2)*%
X114750000Y-128000000D03*
%TD*%
D14*
%TO.N,Net-(D2-Pad2)*%
%TO.C,D2*%
X137790000Y-128000000D03*
D15*
%TO.N,/OSC*%
X135250000Y-128000000D03*
%TD*%
%TO.N,Net-(D3-Pad1)*%
%TO.C,D3*%
X108500000Y-94275000D03*
D14*
%TO.N,+3.3V*%
X108500000Y-91735000D03*
%TD*%
D15*
%TO.N,Net-(D4-Pad1)*%
%TO.C,D4*%
X141500000Y-94275000D03*
D14*
%TO.N,+3.3V*%
X141500000Y-91735000D03*
%TD*%
D16*
%TO.N,+3.3V*%
%TO.C,J1*%
X113655000Y-86375000D03*
D17*
%TO.N,/S1*%
X116195000Y-86375000D03*
%TO.N,/OSC*%
X118735000Y-86375000D03*
%TO.N,/BUZZER*%
X121275000Y-86375000D03*
%TO.N,/Simon un peu plus dur/LED0*%
X123815000Y-86375000D03*
%TO.N,/Simon un peu plus dur/LED1*%
X126355000Y-86375000D03*
%TO.N,Net-(F2-Pad2)*%
X128895000Y-86375000D03*
%TO.N,Net-(F3-Pad2)*%
X131435000Y-86375000D03*
%TO.N,/RST*%
X133975000Y-86375000D03*
%TO.N,GND*%
X136515000Y-86375000D03*
%TD*%
D13*
%TO.N,+3.3V*%
%TO.C,LS1*%
X121750000Y-111500000D03*
D11*
%TO.N,/BUZZER*%
X128250000Y-111500000D03*
%TD*%
D12*
%TO.N,Net-(R1-Pad2)*%
%TO.C,R1*%
X116500000Y-98975000D03*
D11*
%TO.N,+3.3V*%
X116500000Y-96435000D03*
%TD*%
D12*
%TO.N,GND*%
%TO.C,R3*%
X130080000Y-95980000D03*
D11*
%TO.N,/S1*%
X119920000Y-95980000D03*
%TD*%
D18*
%TO.N,/Simon un peu plus dur/SW0*%
%TO.C,SW1*%
X113250000Y-103750000D03*
X113250000Y-110250000D03*
%TO.N,GND*%
X108750000Y-103750000D03*
X108750000Y-110250000D03*
%TD*%
%TO.N,GND*%
%TO.C,SW2*%
X141250000Y-103750000D03*
X141250000Y-110250000D03*
%TO.N,/Simon un peu plus dur/SW1*%
X136750000Y-103750000D03*
X136750000Y-110250000D03*
%TD*%
D19*
%TO.N,Net-(C1-Pad2)*%
%TO.C,Q1*%
X120750000Y-128000000D03*
%TO.N,Net-(C2-Pad2)*%
X122020000Y-128000000D03*
D20*
%TO.N,GND*%
X123290000Y-128000000D03*
%TD*%
D19*
%TO.N,/OSC*%
%TO.C,Q2*%
X126730000Y-128000000D03*
%TO.N,Net-(C1-Pad1)*%
X128000000Y-128000000D03*
D20*
%TO.N,GND*%
X129270000Y-128000000D03*
%TD*%
D21*
%TO.N,GND*%
X129200000Y-134000000D03*
%TO.N,/BUZZER*%
X128200000Y-100150500D03*
X125100000Y-95000000D03*
%TO.N,/OSC*%
X125100000Y-121400000D03*
%TO.N,Net-(C2-Pad2)*%
X133325000Y-122900000D03*
%TO.N,/Simon un peu plus dur/SW1*%
X136750000Y-112550000D03*
%TO.N,/Simon un peu plus dur/SW0*%
X113250000Y-112600000D03*
%TO.N,Net-(F3-Pad2)*%
X127000000Y-92400000D03*
%TO.N,+3.3V*%
X134925000Y-117500000D03*
X115075000Y-117500000D03*
X136775000Y-121000000D03*
X113265000Y-121110000D03*
%TO.N,Net-(F2-Pad2)*%
X123000000Y-92500000D03*
%TO.N,/Simon un peu plus dur/SW0*%
X123000000Y-102940000D03*
%TO.N,/Simon un peu plus dur/SW1*%
X126960000Y-102940000D03*
%TD*%
D22*
%TO.N,/BUZZER*%
X128200000Y-99700000D02*
X128200000Y-100150500D01*
X127000000Y-96750000D02*
X127000000Y-98500000D01*
X126750000Y-96500000D02*
X127000000Y-96750000D01*
X124250000Y-98750000D02*
X126500000Y-96500000D01*
X123250000Y-98750000D02*
X124250000Y-98750000D01*
X123000000Y-98500000D02*
X123250000Y-98750000D01*
X126500000Y-96500000D02*
X126750000Y-96500000D01*
X123000000Y-96750000D02*
X123000000Y-98500000D01*
X127000000Y-98500000D02*
X128200000Y-99700000D01*
X123750000Y-96500000D02*
X123250000Y-96500000D01*
X125100000Y-95150000D02*
X123750000Y-96500000D01*
X123250000Y-96500000D02*
X123000000Y-96750000D01*
%TD*%
%TA.AperFunction,Conductor*%
%TO.N,+3.3V*%
G36*
X148970018Y-82510000D02*
G01*
X148984852Y-82512310D01*
X148984855Y-82512310D01*
X148993724Y-82513691D01*
X149011033Y-82511428D01*
X149013656Y-82511085D01*
X149035810Y-82510156D01*
X149362472Y-82525258D01*
X149374060Y-82526332D01*
X149727672Y-82575659D01*
X149739112Y-82577798D01*
X150086665Y-82659541D01*
X150097841Y-82662721D01*
X150267111Y-82719455D01*
X150436372Y-82776186D01*
X150447224Y-82780390D01*
X150773840Y-82924605D01*
X150784245Y-82929785D01*
X151096177Y-83103530D01*
X151106053Y-83109645D01*
X151134557Y-83129171D01*
X151400610Y-83311422D01*
X151409898Y-83318436D01*
X151684581Y-83546530D01*
X151693181Y-83554371D01*
X151945629Y-83806819D01*
X151953470Y-83815419D01*
X152181564Y-84090102D01*
X152188578Y-84099390D01*
X152390354Y-84393946D01*
X152396470Y-84403823D01*
X152570215Y-84715755D01*
X152575395Y-84726160D01*
X152719610Y-85052776D01*
X152723814Y-85063628D01*
X152749124Y-85139142D01*
X152835766Y-85397644D01*
X152837276Y-85402150D01*
X152840459Y-85413335D01*
X152914112Y-85726492D01*
X152922202Y-85760888D01*
X152924341Y-85772328D01*
X152973668Y-86125940D01*
X152974742Y-86137529D01*
X152989502Y-86456785D01*
X152988136Y-86481989D01*
X152987690Y-86484850D01*
X152987690Y-86484856D01*
X152986309Y-86493724D01*
X152987473Y-86502626D01*
X152987473Y-86502628D01*
X152990436Y-86525283D01*
X152991500Y-86541621D01*
X152991500Y-133700633D01*
X152990000Y-133720018D01*
X152986309Y-133743724D01*
X152987473Y-133752625D01*
X152988915Y-133763656D01*
X152989844Y-133785810D01*
X152974742Y-134112471D01*
X152973668Y-134124060D01*
X152924341Y-134477672D01*
X152922202Y-134489112D01*
X152850540Y-134793803D01*
X152840461Y-134836656D01*
X152837276Y-134847850D01*
X152723814Y-135186372D01*
X152719610Y-135197224D01*
X152575395Y-135523840D01*
X152570215Y-135534245D01*
X152396470Y-135846177D01*
X152390354Y-135856054D01*
X152188578Y-136150610D01*
X152181564Y-136159898D01*
X151953470Y-136434581D01*
X151945629Y-136443181D01*
X151693181Y-136695629D01*
X151684581Y-136703470D01*
X151409898Y-136931564D01*
X151400610Y-136938578D01*
X151178930Y-137090433D01*
X151106054Y-137140354D01*
X151096177Y-137146470D01*
X150784245Y-137320215D01*
X150773840Y-137325395D01*
X150447224Y-137469610D01*
X150436372Y-137473814D01*
X150267111Y-137530545D01*
X150097841Y-137587279D01*
X150086665Y-137590459D01*
X149754150Y-137668665D01*
X149739112Y-137672202D01*
X149727672Y-137674341D01*
X149374060Y-137723668D01*
X149362471Y-137724742D01*
X149043215Y-137739502D01*
X149018011Y-137738136D01*
X149015150Y-137737690D01*
X149015144Y-137737690D01*
X149006276Y-137736309D01*
X148997374Y-137737473D01*
X148997372Y-137737473D01*
X148983900Y-137739235D01*
X148974714Y-137740436D01*
X148958379Y-137741500D01*
X101055666Y-137741500D01*
X101033817Y-137739591D01*
X101025295Y-137738090D01*
X101025292Y-137738090D01*
X101016455Y-137736534D01*
X101007535Y-137737521D01*
X101007532Y-137737521D01*
X100996485Y-137738744D01*
X100974314Y-137739235D01*
X100639530Y-137717101D01*
X100627973Y-137715797D01*
X100267031Y-137658135D01*
X100255637Y-137655770D01*
X99901546Y-137565047D01*
X99890442Y-137561649D01*
X99546222Y-137438638D01*
X99535464Y-137434223D01*
X99204065Y-137279978D01*
X99193778Y-137274600D01*
X98878019Y-137090431D01*
X98868251Y-137084111D01*
X98570855Y-136871611D01*
X98561708Y-136864415D01*
X98375523Y-136703470D01*
X98285177Y-136625371D01*
X98276737Y-136617365D01*
X98023447Y-136353832D01*
X98015778Y-136345077D01*
X97787885Y-136059298D01*
X97781057Y-136049873D01*
X97580510Y-135744295D01*
X97574580Y-135734281D01*
X97403074Y-135411485D01*
X97398094Y-135400966D01*
X97257105Y-135063727D01*
X97253119Y-135052799D01*
X97195477Y-134868794D01*
X97143852Y-134704000D01*
X97140889Y-134692745D01*
X97108541Y-134541852D01*
X97064267Y-134335332D01*
X97062357Y-134323857D01*
X97024489Y-134006565D01*
X97023706Y-134000000D01*
X128286496Y-134000000D01*
X128287186Y-134006565D01*
X128298929Y-134118289D01*
X128306458Y-134189928D01*
X128365473Y-134371556D01*
X128460960Y-134536944D01*
X128588747Y-134678866D01*
X128743248Y-134791118D01*
X128749276Y-134793802D01*
X128749278Y-134793803D01*
X128911681Y-134866109D01*
X128917712Y-134868794D01*
X129011112Y-134888647D01*
X129098056Y-134907128D01*
X129098061Y-134907128D01*
X129104513Y-134908500D01*
X129295487Y-134908500D01*
X129301939Y-134907128D01*
X129301944Y-134907128D01*
X129388888Y-134888647D01*
X129482288Y-134868794D01*
X129488319Y-134866109D01*
X129650722Y-134793803D01*
X129650724Y-134793802D01*
X129656752Y-134791118D01*
X129811253Y-134678866D01*
X129939040Y-134536944D01*
X130034527Y-134371556D01*
X130093542Y-134189928D01*
X130101072Y-134118289D01*
X130112814Y-134006565D01*
X130113504Y-134000000D01*
X130093542Y-133810072D01*
X130034527Y-133628444D01*
X130030426Y-133621340D01*
X129942341Y-133468774D01*
X129939040Y-133463056D01*
X129811253Y-133321134D01*
X129656752Y-133208882D01*
X129650724Y-133206198D01*
X129650722Y-133206197D01*
X129488319Y-133133891D01*
X129488318Y-133133891D01*
X129482288Y-133131206D01*
X129388888Y-133111353D01*
X129301944Y-133092872D01*
X129301939Y-133092872D01*
X129295487Y-133091500D01*
X129104513Y-133091500D01*
X129098061Y-133092872D01*
X129098056Y-133092872D01*
X129011112Y-133111353D01*
X128917712Y-133131206D01*
X128911682Y-133133891D01*
X128911681Y-133133891D01*
X128749278Y-133206197D01*
X128749276Y-133206198D01*
X128743248Y-133208882D01*
X128588747Y-133321134D01*
X128460960Y-133463056D01*
X128457659Y-133468774D01*
X128369575Y-133621340D01*
X128365473Y-133628444D01*
X128306458Y-133810072D01*
X128286496Y-134000000D01*
X97023706Y-134000000D01*
X97019041Y-133960910D01*
X97018197Y-133949309D01*
X97009543Y-133621340D01*
X97011407Y-133596172D01*
X97011910Y-133593313D01*
X97011910Y-133593310D01*
X97013466Y-133584472D01*
X97009265Y-133546510D01*
X97008500Y-133532651D01*
X97008500Y-130700000D01*
X99926502Y-130700000D01*
X99946457Y-130928087D01*
X100005716Y-131149243D01*
X100008039Y-131154224D01*
X100008039Y-131154225D01*
X100100151Y-131351762D01*
X100100154Y-131351767D01*
X100102477Y-131356749D01*
X100233802Y-131544300D01*
X100395700Y-131706198D01*
X100400208Y-131709355D01*
X100400211Y-131709357D01*
X100478389Y-131764098D01*
X100583251Y-131837523D01*
X100588233Y-131839846D01*
X100588238Y-131839849D01*
X100785775Y-131931961D01*
X100790757Y-131934284D01*
X100796065Y-131935706D01*
X100796067Y-131935707D01*
X101006598Y-131992119D01*
X101006600Y-131992119D01*
X101011913Y-131993543D01*
X101240000Y-132013498D01*
X101468087Y-131993543D01*
X101473400Y-131992119D01*
X101473402Y-131992119D01*
X101683933Y-131935707D01*
X101683935Y-131935706D01*
X101689243Y-131934284D01*
X101694225Y-131931961D01*
X101891762Y-131839849D01*
X101891767Y-131839846D01*
X101896749Y-131837523D01*
X102001611Y-131764098D01*
X102079789Y-131709357D01*
X102079792Y-131709355D01*
X102084300Y-131706198D01*
X102246198Y-131544300D01*
X102377523Y-131356749D01*
X102379846Y-131351767D01*
X102379849Y-131351762D01*
X102471961Y-131154225D01*
X102471961Y-131154224D01*
X102474284Y-131149243D01*
X102533543Y-130928087D01*
X102553498Y-130700000D01*
X148186502Y-130700000D01*
X148206457Y-130928087D01*
X148265716Y-131149243D01*
X148268039Y-131154224D01*
X148268039Y-131154225D01*
X148360151Y-131351762D01*
X148360154Y-131351767D01*
X148362477Y-131356749D01*
X148493802Y-131544300D01*
X148655700Y-131706198D01*
X148660208Y-131709355D01*
X148660211Y-131709357D01*
X148738389Y-131764098D01*
X148843251Y-131837523D01*
X148848233Y-131839846D01*
X148848238Y-131839849D01*
X149045775Y-131931961D01*
X149050757Y-131934284D01*
X149056065Y-131935706D01*
X149056067Y-131935707D01*
X149266598Y-131992119D01*
X149266600Y-131992119D01*
X149271913Y-131993543D01*
X149500000Y-132013498D01*
X149728087Y-131993543D01*
X149733400Y-131992119D01*
X149733402Y-131992119D01*
X149943933Y-131935707D01*
X149943935Y-131935706D01*
X149949243Y-131934284D01*
X149954225Y-131931961D01*
X150151762Y-131839849D01*
X150151767Y-131839846D01*
X150156749Y-131837523D01*
X150261611Y-131764098D01*
X150339789Y-131709357D01*
X150339792Y-131709355D01*
X150344300Y-131706198D01*
X150506198Y-131544300D01*
X150637523Y-131356749D01*
X150639846Y-131351767D01*
X150639849Y-131351762D01*
X150731961Y-131154225D01*
X150731961Y-131154224D01*
X150734284Y-131149243D01*
X150793543Y-130928087D01*
X150813498Y-130700000D01*
X150793543Y-130471913D01*
X150734284Y-130250757D01*
X150731961Y-130245775D01*
X150639849Y-130048238D01*
X150639846Y-130048233D01*
X150637523Y-130043251D01*
X150506198Y-129855700D01*
X150344300Y-129693802D01*
X150339792Y-129690645D01*
X150339789Y-129690643D01*
X150261611Y-129635902D01*
X150156749Y-129562477D01*
X150151767Y-129560154D01*
X150151762Y-129560151D01*
X150117543Y-129544195D01*
X150064258Y-129497278D01*
X150044797Y-129429001D01*
X150065339Y-129361041D01*
X150117543Y-129315805D01*
X150151762Y-129299849D01*
X150151767Y-129299846D01*
X150156749Y-129297523D01*
X150290646Y-129203767D01*
X150339789Y-129169357D01*
X150339792Y-129169355D01*
X150344300Y-129166198D01*
X150506198Y-129004300D01*
X150509410Y-128999714D01*
X150612518Y-128852460D01*
X150637523Y-128816749D01*
X150639846Y-128811767D01*
X150639849Y-128811762D01*
X150731961Y-128614225D01*
X150731961Y-128614224D01*
X150734284Y-128609243D01*
X150759449Y-128515329D01*
X150792119Y-128393402D01*
X150792119Y-128393400D01*
X150793543Y-128388087D01*
X150813498Y-128160000D01*
X150793543Y-127931913D01*
X150748592Y-127764156D01*
X150735707Y-127716067D01*
X150735706Y-127716065D01*
X150734284Y-127710757D01*
X150731961Y-127705775D01*
X150639849Y-127508238D01*
X150639846Y-127508233D01*
X150637523Y-127503251D01*
X150506198Y-127315700D01*
X150344300Y-127153802D01*
X150339792Y-127150645D01*
X150339789Y-127150643D01*
X150261611Y-127095902D01*
X150156749Y-127022477D01*
X150151767Y-127020154D01*
X150151762Y-127020151D01*
X150117543Y-127004195D01*
X150064258Y-126957278D01*
X150044797Y-126889001D01*
X150065339Y-126821041D01*
X150117543Y-126775805D01*
X150151762Y-126759849D01*
X150151767Y-126759846D01*
X150156749Y-126757523D01*
X150315687Y-126646233D01*
X150339789Y-126629357D01*
X150339792Y-126629355D01*
X150344300Y-126626198D01*
X150506198Y-126464300D01*
X150637523Y-126276749D01*
X150639846Y-126271767D01*
X150639849Y-126271762D01*
X150731961Y-126074225D01*
X150731961Y-126074224D01*
X150734284Y-126069243D01*
X150793543Y-125848087D01*
X150813498Y-125620000D01*
X150793543Y-125391913D01*
X150734284Y-125170757D01*
X150731961Y-125165775D01*
X150639849Y-124968238D01*
X150639846Y-124968233D01*
X150637523Y-124963251D01*
X150506198Y-124775700D01*
X150344300Y-124613802D01*
X150339792Y-124610645D01*
X150339789Y-124610643D01*
X150261611Y-124555902D01*
X150156749Y-124482477D01*
X150151767Y-124480154D01*
X150151762Y-124480151D01*
X150117543Y-124464195D01*
X150064258Y-124417278D01*
X150044797Y-124349001D01*
X150065339Y-124281041D01*
X150117543Y-124235805D01*
X150151762Y-124219849D01*
X150151767Y-124219846D01*
X150156749Y-124217523D01*
X150261611Y-124144098D01*
X150339789Y-124089357D01*
X150339792Y-124089355D01*
X150344300Y-124086198D01*
X150506198Y-123924300D01*
X150637523Y-123736749D01*
X150639846Y-123731767D01*
X150639849Y-123731762D01*
X150731961Y-123534225D01*
X150731961Y-123534224D01*
X150734284Y-123529243D01*
X150793543Y-123308087D01*
X150813498Y-123080000D01*
X150793543Y-122851913D01*
X150755537Y-122710072D01*
X150735707Y-122636067D01*
X150735706Y-122636065D01*
X150734284Y-122630757D01*
X150686575Y-122528444D01*
X150639849Y-122428238D01*
X150639846Y-122428233D01*
X150637523Y-122423251D01*
X150556213Y-122307128D01*
X150509357Y-122240211D01*
X150509355Y-122240208D01*
X150506198Y-122235700D01*
X150344300Y-122073802D01*
X150339792Y-122070645D01*
X150339789Y-122070643D01*
X150226761Y-121991500D01*
X150156749Y-121942477D01*
X150151767Y-121940154D01*
X150151762Y-121940151D01*
X150117543Y-121924195D01*
X150064258Y-121877278D01*
X150044797Y-121809001D01*
X150065339Y-121741041D01*
X150117543Y-121695805D01*
X150151762Y-121679849D01*
X150151767Y-121679846D01*
X150156749Y-121677523D01*
X150291220Y-121583365D01*
X150339789Y-121549357D01*
X150339792Y-121549355D01*
X150344300Y-121546198D01*
X150506198Y-121384300D01*
X150637523Y-121196749D01*
X150639846Y-121191767D01*
X150639849Y-121191762D01*
X150731961Y-120994225D01*
X150731961Y-120994224D01*
X150734284Y-120989243D01*
X150793543Y-120768087D01*
X150813498Y-120540000D01*
X150793543Y-120311913D01*
X150734284Y-120090757D01*
X150731961Y-120085775D01*
X150639849Y-119888238D01*
X150639846Y-119888233D01*
X150637523Y-119883251D01*
X150506198Y-119695700D01*
X150344300Y-119533802D01*
X150339792Y-119530645D01*
X150339789Y-119530643D01*
X150261611Y-119475902D01*
X150156749Y-119402477D01*
X150151767Y-119400154D01*
X150151762Y-119400151D01*
X150117543Y-119384195D01*
X150064258Y-119337278D01*
X150044797Y-119269001D01*
X150065339Y-119201041D01*
X150117543Y-119155805D01*
X150151762Y-119139849D01*
X150151767Y-119139846D01*
X150156749Y-119137523D01*
X150261611Y-119064098D01*
X150339789Y-119009357D01*
X150339792Y-119009355D01*
X150344300Y-119006198D01*
X150506198Y-118844300D01*
X150637523Y-118656749D01*
X150639846Y-118651767D01*
X150639849Y-118651762D01*
X150731961Y-118454225D01*
X150731961Y-118454224D01*
X150734284Y-118449243D01*
X150793543Y-118228087D01*
X150813498Y-118000000D01*
X150793543Y-117771913D01*
X150734284Y-117550757D01*
X150731961Y-117545775D01*
X150639849Y-117348238D01*
X150639846Y-117348233D01*
X150637523Y-117343251D01*
X150506198Y-117155700D01*
X150344300Y-116993802D01*
X150339792Y-116990645D01*
X150339789Y-116990643D01*
X150261611Y-116935902D01*
X150156749Y-116862477D01*
X150151767Y-116860154D01*
X150151762Y-116860151D01*
X150117543Y-116844195D01*
X150064258Y-116797278D01*
X150044797Y-116729001D01*
X150065339Y-116661041D01*
X150117543Y-116615805D01*
X150151762Y-116599849D01*
X150151767Y-116599846D01*
X150156749Y-116597523D01*
X150261611Y-116524098D01*
X150339789Y-116469357D01*
X150339792Y-116469355D01*
X150344300Y-116466198D01*
X150506198Y-116304300D01*
X150637523Y-116116749D01*
X150639846Y-116111767D01*
X150639849Y-116111762D01*
X150731961Y-115914225D01*
X150731961Y-115914224D01*
X150734284Y-115909243D01*
X150767096Y-115786790D01*
X150792119Y-115693402D01*
X150792119Y-115693400D01*
X150793543Y-115688087D01*
X150813498Y-115460000D01*
X150793543Y-115231913D01*
X150734284Y-115010757D01*
X150731961Y-115005775D01*
X150639849Y-114808238D01*
X150639846Y-114808233D01*
X150637523Y-114803251D01*
X150506198Y-114615700D01*
X150344300Y-114453802D01*
X150339792Y-114450645D01*
X150339789Y-114450643D01*
X150261611Y-114395902D01*
X150156749Y-114322477D01*
X150151767Y-114320154D01*
X150151762Y-114320151D01*
X150117543Y-114304195D01*
X150064258Y-114257278D01*
X150044797Y-114189001D01*
X150065339Y-114121041D01*
X150117543Y-114075805D01*
X150151762Y-114059849D01*
X150151767Y-114059846D01*
X150156749Y-114057523D01*
X150261611Y-113984098D01*
X150339789Y-113929357D01*
X150339792Y-113929355D01*
X150344300Y-113926198D01*
X150506198Y-113764300D01*
X150637523Y-113576749D01*
X150639846Y-113571767D01*
X150639849Y-113571762D01*
X150731961Y-113374225D01*
X150731961Y-113374224D01*
X150734284Y-113369243D01*
X150793543Y-113148087D01*
X150813498Y-112920000D01*
X150793543Y-112691913D01*
X150734284Y-112470757D01*
X150652328Y-112295000D01*
X150639849Y-112268238D01*
X150639846Y-112268233D01*
X150637523Y-112263251D01*
X150506198Y-112075700D01*
X150344300Y-111913802D01*
X150339792Y-111910645D01*
X150339789Y-111910643D01*
X150261611Y-111855902D01*
X150156749Y-111782477D01*
X150151767Y-111780154D01*
X150151762Y-111780151D01*
X149954225Y-111688039D01*
X149954224Y-111688039D01*
X149949243Y-111685716D01*
X149943935Y-111684294D01*
X149943933Y-111684293D01*
X149733402Y-111627881D01*
X149733400Y-111627881D01*
X149728087Y-111626457D01*
X149500000Y-111606502D01*
X149271913Y-111626457D01*
X149266600Y-111627881D01*
X149266598Y-111627881D01*
X149056067Y-111684293D01*
X149056065Y-111684294D01*
X149050757Y-111685716D01*
X149045776Y-111688039D01*
X149045775Y-111688039D01*
X148848238Y-111780151D01*
X148848233Y-111780154D01*
X148843251Y-111782477D01*
X148738389Y-111855902D01*
X148660211Y-111910643D01*
X148660208Y-111910645D01*
X148655700Y-111913802D01*
X148493802Y-112075700D01*
X148362477Y-112263251D01*
X148360154Y-112268233D01*
X148360151Y-112268238D01*
X148347672Y-112295000D01*
X148265716Y-112470757D01*
X148206457Y-112691913D01*
X148186502Y-112920000D01*
X148206457Y-113148087D01*
X148265716Y-113369243D01*
X148268039Y-113374224D01*
X148268039Y-113374225D01*
X148360151Y-113571762D01*
X148360154Y-113571767D01*
X148362477Y-113576749D01*
X148493802Y-113764300D01*
X148655700Y-113926198D01*
X148660208Y-113929355D01*
X148660211Y-113929357D01*
X148738389Y-113984098D01*
X148843251Y-114057523D01*
X148848233Y-114059846D01*
X148848238Y-114059849D01*
X148882457Y-114075805D01*
X148935742Y-114122722D01*
X148955203Y-114190999D01*
X148934661Y-114258959D01*
X148882457Y-114304195D01*
X148848238Y-114320151D01*
X148848233Y-114320154D01*
X148843251Y-114322477D01*
X148738389Y-114395902D01*
X148660211Y-114450643D01*
X148660208Y-114450645D01*
X148655700Y-114453802D01*
X148493802Y-114615700D01*
X148362477Y-114803251D01*
X148360154Y-114808233D01*
X148360151Y-114808238D01*
X148268039Y-115005775D01*
X148265716Y-115010757D01*
X148206457Y-115231913D01*
X148186502Y-115460000D01*
X148206457Y-115688087D01*
X148207881Y-115693400D01*
X148207881Y-115693402D01*
X148232905Y-115786790D01*
X148265716Y-115909243D01*
X148268039Y-115914224D01*
X148268039Y-115914225D01*
X148360151Y-116111762D01*
X148360154Y-116111767D01*
X148362477Y-116116749D01*
X148493802Y-116304300D01*
X148655700Y-116466198D01*
X148660208Y-116469355D01*
X148660211Y-116469357D01*
X148738389Y-116524098D01*
X148843251Y-116597523D01*
X148848233Y-116599846D01*
X148848238Y-116599849D01*
X148882457Y-116615805D01*
X148935742Y-116662722D01*
X148955203Y-116730999D01*
X148934661Y-116798959D01*
X148882457Y-116844195D01*
X148848238Y-116860151D01*
X148848233Y-116860154D01*
X148843251Y-116862477D01*
X148738389Y-116935902D01*
X148660211Y-116990643D01*
X148660208Y-116990645D01*
X148655700Y-116993802D01*
X148493802Y-117155700D01*
X148362477Y-117343251D01*
X148360154Y-117348233D01*
X148360151Y-117348238D01*
X148268039Y-117545775D01*
X148265716Y-117550757D01*
X148206457Y-117771913D01*
X148186502Y-118000000D01*
X148206457Y-118228087D01*
X148265716Y-118449243D01*
X148268039Y-118454224D01*
X148268039Y-118454225D01*
X148360151Y-118651762D01*
X148360154Y-118651767D01*
X148362477Y-118656749D01*
X148493802Y-118844300D01*
X148655700Y-119006198D01*
X148660208Y-119009355D01*
X148660211Y-119009357D01*
X148738389Y-119064098D01*
X148843251Y-119137523D01*
X148848233Y-119139846D01*
X148848238Y-119139849D01*
X148882457Y-119155805D01*
X148935742Y-119202722D01*
X148955203Y-119270999D01*
X148934661Y-119338959D01*
X148882457Y-119384195D01*
X148848238Y-119400151D01*
X148848233Y-119400154D01*
X148843251Y-119402477D01*
X148738389Y-119475902D01*
X148660211Y-119530643D01*
X148660208Y-119530645D01*
X148655700Y-119533802D01*
X148493802Y-119695700D01*
X148362477Y-119883251D01*
X148360154Y-119888233D01*
X148360151Y-119888238D01*
X148268039Y-120085775D01*
X148265716Y-120090757D01*
X148206457Y-120311913D01*
X148186502Y-120540000D01*
X148206457Y-120768087D01*
X148265716Y-120989243D01*
X148268039Y-120994224D01*
X148268039Y-120994225D01*
X148360151Y-121191762D01*
X148360154Y-121191767D01*
X148362477Y-121196749D01*
X148493802Y-121384300D01*
X148655700Y-121546198D01*
X148660208Y-121549355D01*
X148660211Y-121549357D01*
X148708780Y-121583365D01*
X148843251Y-121677523D01*
X148848233Y-121679846D01*
X148848238Y-121679849D01*
X148882457Y-121695805D01*
X148935742Y-121742722D01*
X148955203Y-121810999D01*
X148934661Y-121878959D01*
X148882457Y-121924195D01*
X148848238Y-121940151D01*
X148848233Y-121940154D01*
X148843251Y-121942477D01*
X148773239Y-121991500D01*
X148660211Y-122070643D01*
X148660208Y-122070645D01*
X148655700Y-122073802D01*
X148493802Y-122235700D01*
X148490645Y-122240208D01*
X148490643Y-122240211D01*
X148443787Y-122307128D01*
X148362477Y-122423251D01*
X148360154Y-122428233D01*
X148360151Y-122428238D01*
X148313425Y-122528444D01*
X148265716Y-122630757D01*
X148264294Y-122636065D01*
X148264293Y-122636067D01*
X148244463Y-122710072D01*
X148206457Y-122851913D01*
X148186502Y-123080000D01*
X148206457Y-123308087D01*
X148265716Y-123529243D01*
X148268039Y-123534224D01*
X148268039Y-123534225D01*
X148360151Y-123731762D01*
X148360154Y-123731767D01*
X148362477Y-123736749D01*
X148493802Y-123924300D01*
X148655700Y-124086198D01*
X148660208Y-124089355D01*
X148660211Y-124089357D01*
X148738389Y-124144098D01*
X148843251Y-124217523D01*
X148848233Y-124219846D01*
X148848238Y-124219849D01*
X148882457Y-124235805D01*
X148935742Y-124282722D01*
X148955203Y-124350999D01*
X148934661Y-124418959D01*
X148882457Y-124464195D01*
X148848238Y-124480151D01*
X148848233Y-124480154D01*
X148843251Y-124482477D01*
X148738389Y-124555902D01*
X148660211Y-124610643D01*
X148660208Y-124610645D01*
X148655700Y-124613802D01*
X148493802Y-124775700D01*
X148362477Y-124963251D01*
X148360154Y-124968233D01*
X148360151Y-124968238D01*
X148268039Y-125165775D01*
X148265716Y-125170757D01*
X148206457Y-125391913D01*
X148186502Y-125620000D01*
X148206457Y-125848087D01*
X148265716Y-126069243D01*
X148268039Y-126074224D01*
X148268039Y-126074225D01*
X148360151Y-126271762D01*
X148360154Y-126271767D01*
X148362477Y-126276749D01*
X148493802Y-126464300D01*
X148655700Y-126626198D01*
X148660208Y-126629355D01*
X148660211Y-126629357D01*
X148684313Y-126646233D01*
X148843251Y-126757523D01*
X148848233Y-126759846D01*
X148848238Y-126759849D01*
X148882457Y-126775805D01*
X148935742Y-126822722D01*
X148955203Y-126890999D01*
X148934661Y-126958959D01*
X148882457Y-127004195D01*
X148848238Y-127020151D01*
X148848233Y-127020154D01*
X148843251Y-127022477D01*
X148738389Y-127095902D01*
X148660211Y-127150643D01*
X148660208Y-127150645D01*
X148655700Y-127153802D01*
X148493802Y-127315700D01*
X148362477Y-127503251D01*
X148360154Y-127508233D01*
X148360151Y-127508238D01*
X148268039Y-127705775D01*
X148265716Y-127710757D01*
X148264294Y-127716065D01*
X148264293Y-127716067D01*
X148251408Y-127764156D01*
X148206457Y-127931913D01*
X148186502Y-128160000D01*
X148206457Y-128388087D01*
X148207881Y-128393400D01*
X148207881Y-128393402D01*
X148240552Y-128515329D01*
X148265716Y-128609243D01*
X148268039Y-128614224D01*
X148268039Y-128614225D01*
X148360151Y-128811762D01*
X148360154Y-128811767D01*
X148362477Y-128816749D01*
X148387482Y-128852460D01*
X148490591Y-128999714D01*
X148493802Y-129004300D01*
X148655700Y-129166198D01*
X148660208Y-129169355D01*
X148660211Y-129169357D01*
X148709354Y-129203767D01*
X148843251Y-129297523D01*
X148848233Y-129299846D01*
X148848238Y-129299849D01*
X148882457Y-129315805D01*
X148935742Y-129362722D01*
X148955203Y-129430999D01*
X148934661Y-129498959D01*
X148882457Y-129544195D01*
X148848238Y-129560151D01*
X148848233Y-129560154D01*
X148843251Y-129562477D01*
X148738389Y-129635902D01*
X148660211Y-129690643D01*
X148660208Y-129690645D01*
X148655700Y-129693802D01*
X148493802Y-129855700D01*
X148362477Y-130043251D01*
X148360154Y-130048233D01*
X148360151Y-130048238D01*
X148268039Y-130245775D01*
X148265716Y-130250757D01*
X148206457Y-130471913D01*
X148186502Y-130700000D01*
X102553498Y-130700000D01*
X102533543Y-130471913D01*
X102474284Y-130250757D01*
X102471961Y-130245775D01*
X102379849Y-130048238D01*
X102379846Y-130048233D01*
X102377523Y-130043251D01*
X102246198Y-129855700D01*
X102084300Y-129693802D01*
X102079792Y-129690645D01*
X102079789Y-129690643D01*
X102001611Y-129635902D01*
X101896749Y-129562477D01*
X101891767Y-129560154D01*
X101891762Y-129560151D01*
X101857543Y-129544195D01*
X101804258Y-129497278D01*
X101784797Y-129429001D01*
X101805339Y-129361041D01*
X101857543Y-129315805D01*
X101891762Y-129299849D01*
X101891767Y-129299846D01*
X101896749Y-129297523D01*
X102030646Y-129203767D01*
X102079789Y-129169357D01*
X102079792Y-129169355D01*
X102084300Y-129166198D01*
X102246198Y-129004300D01*
X102249410Y-128999714D01*
X102352518Y-128852460D01*
X102377523Y-128816749D01*
X102379846Y-128811767D01*
X102379849Y-128811762D01*
X102471961Y-128614225D01*
X102471961Y-128614224D01*
X102474284Y-128609243D01*
X102499449Y-128515329D01*
X102532119Y-128393402D01*
X102532119Y-128393400D01*
X102533543Y-128388087D01*
X102553498Y-128160000D01*
X102536479Y-127965469D01*
X110797095Y-127965469D01*
X110797392Y-127970622D01*
X110797392Y-127970625D01*
X110803067Y-128069041D01*
X110810427Y-128196697D01*
X110811564Y-128201743D01*
X110811565Y-128201749D01*
X110843741Y-128344523D01*
X110861346Y-128422642D01*
X110863288Y-128427424D01*
X110863289Y-128427428D01*
X110946540Y-128632450D01*
X110948484Y-128637237D01*
X111069501Y-128834719D01*
X111221147Y-129009784D01*
X111399349Y-129157730D01*
X111599322Y-129274584D01*
X111604147Y-129276426D01*
X111604148Y-129276427D01*
X111659393Y-129297523D01*
X111815694Y-129357209D01*
X111820760Y-129358240D01*
X111820761Y-129358240D01*
X111842791Y-129362722D01*
X112042656Y-129403385D01*
X112172089Y-129408131D01*
X112268949Y-129411683D01*
X112268953Y-129411683D01*
X112274113Y-129411872D01*
X112279233Y-129411216D01*
X112279235Y-129411216D01*
X112353166Y-129401745D01*
X112503847Y-129382442D01*
X112508795Y-129380957D01*
X112508802Y-129380956D01*
X112720747Y-129317369D01*
X112725690Y-129315886D01*
X112806236Y-129276427D01*
X112929049Y-129216262D01*
X112929052Y-129216260D01*
X112933684Y-129213991D01*
X113122243Y-129079494D01*
X113167309Y-129034585D01*
X113229681Y-129000669D01*
X113300487Y-129005857D01*
X113357249Y-129048503D01*
X113374231Y-129079607D01*
X113388865Y-129118642D01*
X113399385Y-129146705D01*
X113486739Y-129263261D01*
X113603295Y-129350615D01*
X113739684Y-129401745D01*
X113801866Y-129408500D01*
X115698134Y-129408500D01*
X115760316Y-129401745D01*
X115896705Y-129350615D01*
X116013261Y-129263261D01*
X116100615Y-129146705D01*
X116151745Y-129010316D01*
X116158500Y-128948134D01*
X116158500Y-128276004D01*
X119716500Y-128276004D01*
X119731277Y-128426713D01*
X119789858Y-128620742D01*
X119885010Y-128799698D01*
X119888904Y-128804472D01*
X119888905Y-128804474D01*
X119916756Y-128838622D01*
X120013110Y-128956763D01*
X120017857Y-128960690D01*
X120017859Y-128960692D01*
X120164528Y-129082027D01*
X120164531Y-129082029D01*
X120169278Y-129085956D01*
X120347565Y-129182356D01*
X120416733Y-129203767D01*
X120535293Y-129240468D01*
X120535296Y-129240469D01*
X120541180Y-129242290D01*
X120547305Y-129242934D01*
X120547306Y-129242934D01*
X120736622Y-129262832D01*
X120736623Y-129262832D01*
X120742750Y-129263476D01*
X120826014Y-129255898D01*
X120938457Y-129245665D01*
X120938460Y-129245664D01*
X120944596Y-129245106D01*
X120950502Y-129243368D01*
X120950506Y-129243367D01*
X121133120Y-129189620D01*
X121133119Y-129189620D01*
X121139029Y-129187881D01*
X121144486Y-129185028D01*
X121144489Y-129185027D01*
X121281765Y-129113261D01*
X121318460Y-129094077D01*
X121318462Y-129094077D01*
X121318645Y-129093981D01*
X121318663Y-129094016D01*
X121384441Y-129074111D01*
X121445409Y-129089271D01*
X121617565Y-129182356D01*
X121686733Y-129203767D01*
X121805293Y-129240468D01*
X121805296Y-129240469D01*
X121811180Y-129242290D01*
X121817305Y-129242934D01*
X121817306Y-129242934D01*
X122006622Y-129262832D01*
X122006623Y-129262832D01*
X122012750Y-129263476D01*
X122096014Y-129255898D01*
X122208457Y-129245665D01*
X122208460Y-129245664D01*
X122214596Y-129245106D01*
X122220502Y-129243368D01*
X122220506Y-129243367D01*
X122403121Y-129189620D01*
X122403123Y-129189619D01*
X122406111Y-129188740D01*
X122409029Y-129187881D01*
X122409282Y-129188740D01*
X122474662Y-129182286D01*
X122511406Y-129195452D01*
X122518295Y-129200615D01*
X122526696Y-129203764D01*
X122526699Y-129203766D01*
X122553975Y-129213991D01*
X122654684Y-129251745D01*
X122716866Y-129258500D01*
X123863134Y-129258500D01*
X123925316Y-129251745D01*
X124061705Y-129200615D01*
X124178261Y-129113261D01*
X124265615Y-128996705D01*
X124316745Y-128860316D01*
X124323500Y-128798134D01*
X124323500Y-128276004D01*
X125696500Y-128276004D01*
X125711277Y-128426713D01*
X125769858Y-128620742D01*
X125865010Y-128799698D01*
X125868904Y-128804472D01*
X125868905Y-128804474D01*
X125896756Y-128838622D01*
X125993110Y-128956763D01*
X125997857Y-128960690D01*
X125997859Y-128960692D01*
X126144528Y-129082027D01*
X126144531Y-129082029D01*
X126149278Y-129085956D01*
X126327565Y-129182356D01*
X126396733Y-129203767D01*
X126515293Y-129240468D01*
X126515296Y-129240469D01*
X126521180Y-129242290D01*
X126527305Y-129242934D01*
X126527306Y-129242934D01*
X126716622Y-129262832D01*
X126716623Y-129262832D01*
X126722750Y-129263476D01*
X126806014Y-129255898D01*
X126918457Y-129245665D01*
X126918460Y-129245664D01*
X126924596Y-129245106D01*
X126930502Y-129243368D01*
X126930506Y-129243367D01*
X127113120Y-129189620D01*
X127113119Y-129189620D01*
X127119029Y-129187881D01*
X127124486Y-129185028D01*
X127124489Y-129185027D01*
X127261765Y-129113261D01*
X127298460Y-129094077D01*
X127298462Y-129094077D01*
X127298645Y-129093981D01*
X127298663Y-129094016D01*
X127364441Y-129074111D01*
X127425409Y-129089271D01*
X127597565Y-129182356D01*
X127666733Y-129203767D01*
X127785293Y-129240468D01*
X127785296Y-129240469D01*
X127791180Y-129242290D01*
X127797305Y-129242934D01*
X127797306Y-129242934D01*
X127986622Y-129262832D01*
X127986623Y-129262832D01*
X127992750Y-129263476D01*
X128076014Y-129255898D01*
X128188457Y-129245665D01*
X128188460Y-129245664D01*
X128194596Y-129245106D01*
X128200502Y-129243368D01*
X128200506Y-129243367D01*
X128383121Y-129189620D01*
X128383123Y-129189619D01*
X128386111Y-129188740D01*
X128389029Y-129187881D01*
X128389282Y-129188740D01*
X128454662Y-129182286D01*
X128491406Y-129195452D01*
X128498295Y-129200615D01*
X128506696Y-129203764D01*
X128506699Y-129203766D01*
X128533975Y-129213991D01*
X128634684Y-129251745D01*
X128696866Y-129258500D01*
X129843134Y-129258500D01*
X129905316Y-129251745D01*
X130041705Y-129200615D01*
X130158261Y-129113261D01*
X130245615Y-128996705D01*
X130263823Y-128948134D01*
X133841500Y-128948134D01*
X133848255Y-129010316D01*
X133899385Y-129146705D01*
X133986739Y-129263261D01*
X134103295Y-129350615D01*
X134239684Y-129401745D01*
X134301866Y-129408500D01*
X136198134Y-129408500D01*
X136260316Y-129401745D01*
X136396705Y-129350615D01*
X136513261Y-129263261D01*
X136600615Y-129146705D01*
X136625180Y-129081178D01*
X136667822Y-129024414D01*
X136734383Y-128999714D01*
X136803732Y-129014921D01*
X136823647Y-129028464D01*
X136917137Y-129106081D01*
X136979349Y-129157730D01*
X137179322Y-129274584D01*
X137184147Y-129276426D01*
X137184148Y-129276427D01*
X137239393Y-129297523D01*
X137395694Y-129357209D01*
X137400760Y-129358240D01*
X137400761Y-129358240D01*
X137422791Y-129362722D01*
X137622656Y-129403385D01*
X137752089Y-129408131D01*
X137848949Y-129411683D01*
X137848953Y-129411683D01*
X137854113Y-129411872D01*
X137859233Y-129411216D01*
X137859235Y-129411216D01*
X137933166Y-129401745D01*
X138083847Y-129382442D01*
X138088795Y-129380957D01*
X138088802Y-129380956D01*
X138300747Y-129317369D01*
X138305690Y-129315886D01*
X138386236Y-129276427D01*
X138509049Y-129216262D01*
X138509052Y-129216260D01*
X138513684Y-129213991D01*
X138702243Y-129079494D01*
X138866303Y-128916005D01*
X139001458Y-128727917D01*
X139048641Y-128632450D01*
X139101784Y-128524922D01*
X139101785Y-128524920D01*
X139104078Y-128520280D01*
X139171408Y-128298671D01*
X139201640Y-128069041D01*
X139203327Y-128000000D01*
X139197032Y-127923434D01*
X139184773Y-127774318D01*
X139184772Y-127774312D01*
X139184349Y-127769167D01*
X139156137Y-127656850D01*
X139129184Y-127549544D01*
X139129183Y-127549540D01*
X139127925Y-127544533D01*
X139125866Y-127539797D01*
X139037630Y-127336868D01*
X139037628Y-127336865D01*
X139035570Y-127332131D01*
X138909764Y-127137665D01*
X138753887Y-126966358D01*
X138749836Y-126963159D01*
X138749832Y-126963155D01*
X138576177Y-126826011D01*
X138576172Y-126826008D01*
X138572123Y-126822810D01*
X138567607Y-126820317D01*
X138567604Y-126820315D01*
X138373879Y-126713373D01*
X138373875Y-126713371D01*
X138369355Y-126710876D01*
X138364486Y-126709152D01*
X138364482Y-126709150D01*
X138155903Y-126635288D01*
X138155899Y-126635287D01*
X138151028Y-126633562D01*
X138145935Y-126632655D01*
X138145932Y-126632654D01*
X137928095Y-126593851D01*
X137928089Y-126593850D01*
X137923006Y-126592945D01*
X137850096Y-126592054D01*
X137696581Y-126590179D01*
X137696579Y-126590179D01*
X137691411Y-126590116D01*
X137462464Y-126625150D01*
X137242314Y-126697106D01*
X137237726Y-126699494D01*
X137237722Y-126699496D01*
X137125894Y-126757710D01*
X137036872Y-126804052D01*
X137032739Y-126807155D01*
X137032736Y-126807157D01*
X136855790Y-126940012D01*
X136851655Y-126943117D01*
X136838122Y-126957278D01*
X136834170Y-126961414D01*
X136772646Y-126996844D01*
X136701733Y-126993387D01*
X136643947Y-126952141D01*
X136625094Y-126918592D01*
X136603768Y-126861705D01*
X136603767Y-126861703D01*
X136600615Y-126853295D01*
X136513261Y-126736739D01*
X136396705Y-126649385D01*
X136260316Y-126598255D01*
X136198134Y-126591500D01*
X134301866Y-126591500D01*
X134239684Y-126598255D01*
X134103295Y-126649385D01*
X133986739Y-126736739D01*
X133899385Y-126853295D01*
X133848255Y-126989684D01*
X133841500Y-127051866D01*
X133841500Y-128948134D01*
X130263823Y-128948134D01*
X130296745Y-128860316D01*
X130303500Y-128798134D01*
X130303500Y-127201866D01*
X130296745Y-127139684D01*
X130245615Y-127003295D01*
X130158261Y-126886739D01*
X130041705Y-126799385D01*
X129905316Y-126748255D01*
X129843134Y-126741500D01*
X128696866Y-126741500D01*
X128634684Y-126748255D01*
X128618466Y-126754335D01*
X128506704Y-126796232D01*
X128506701Y-126796234D01*
X128498295Y-126799385D01*
X128491106Y-126804773D01*
X128490863Y-126804906D01*
X128421506Y-126820076D01*
X128393092Y-126814752D01*
X128384587Y-126812119D01*
X128208820Y-126757710D01*
X128202695Y-126757066D01*
X128202694Y-126757066D01*
X128013378Y-126737168D01*
X128013377Y-126737168D01*
X128007250Y-126736524D01*
X127925995Y-126743919D01*
X127811543Y-126754335D01*
X127811540Y-126754336D01*
X127805404Y-126754894D01*
X127799498Y-126756632D01*
X127799494Y-126756633D01*
X127664950Y-126796232D01*
X127610971Y-126812119D01*
X127605514Y-126814972D01*
X127605511Y-126814973D01*
X127545953Y-126846109D01*
X127431540Y-126905923D01*
X127431538Y-126905923D01*
X127431355Y-126906019D01*
X127431337Y-126905984D01*
X127365559Y-126925889D01*
X127304591Y-126910729D01*
X127295815Y-126905984D01*
X127132435Y-126817644D01*
X127035627Y-126787677D01*
X126944707Y-126759532D01*
X126944704Y-126759531D01*
X126938820Y-126757710D01*
X126932695Y-126757066D01*
X126932694Y-126757066D01*
X126743378Y-126737168D01*
X126743377Y-126737168D01*
X126737250Y-126736524D01*
X126655995Y-126743919D01*
X126541543Y-126754335D01*
X126541540Y-126754336D01*
X126535404Y-126754894D01*
X126529498Y-126756632D01*
X126529494Y-126756633D01*
X126394950Y-126796232D01*
X126340971Y-126812119D01*
X126335514Y-126814972D01*
X126335511Y-126814973D01*
X126275953Y-126846109D01*
X126161355Y-126906019D01*
X126003399Y-127033019D01*
X125873119Y-127188281D01*
X125870155Y-127193673D01*
X125870152Y-127193677D01*
X125778444Y-127360494D01*
X125775477Y-127365891D01*
X125714193Y-127559084D01*
X125696500Y-127716817D01*
X125696500Y-128276004D01*
X124323500Y-128276004D01*
X124323500Y-127201866D01*
X124316745Y-127139684D01*
X124265615Y-127003295D01*
X124178261Y-126886739D01*
X124061705Y-126799385D01*
X123925316Y-126748255D01*
X123863134Y-126741500D01*
X122716866Y-126741500D01*
X122654684Y-126748255D01*
X122638466Y-126754335D01*
X122526704Y-126796232D01*
X122526701Y-126796234D01*
X122518295Y-126799385D01*
X122511106Y-126804773D01*
X122510863Y-126804906D01*
X122441506Y-126820076D01*
X122413092Y-126814752D01*
X122404587Y-126812119D01*
X122228820Y-126757710D01*
X122222695Y-126757066D01*
X122222694Y-126757066D01*
X122033378Y-126737168D01*
X122033377Y-126737168D01*
X122027250Y-126736524D01*
X121945995Y-126743919D01*
X121831543Y-126754335D01*
X121831540Y-126754336D01*
X121825404Y-126754894D01*
X121819498Y-126756632D01*
X121819494Y-126756633D01*
X121684950Y-126796232D01*
X121630971Y-126812119D01*
X121625514Y-126814972D01*
X121625511Y-126814973D01*
X121565953Y-126846109D01*
X121451540Y-126905923D01*
X121451538Y-126905923D01*
X121451355Y-126906019D01*
X121451337Y-126905984D01*
X121385559Y-126925889D01*
X121324591Y-126910729D01*
X121315815Y-126905984D01*
X121152435Y-126817644D01*
X121055627Y-126787677D01*
X120964707Y-126759532D01*
X120964704Y-126759531D01*
X120958820Y-126757710D01*
X120952695Y-126757066D01*
X120952694Y-126757066D01*
X120763378Y-126737168D01*
X120763377Y-126737168D01*
X120757250Y-126736524D01*
X120675995Y-126743919D01*
X120561543Y-126754335D01*
X120561540Y-126754336D01*
X120555404Y-126754894D01*
X120549498Y-126756632D01*
X120549494Y-126756633D01*
X120414950Y-126796232D01*
X120360971Y-126812119D01*
X120355514Y-126814972D01*
X120355511Y-126814973D01*
X120295953Y-126846109D01*
X120181355Y-126906019D01*
X120023399Y-127033019D01*
X119893119Y-127188281D01*
X119890155Y-127193673D01*
X119890152Y-127193677D01*
X119798444Y-127360494D01*
X119795477Y-127365891D01*
X119734193Y-127559084D01*
X119716500Y-127716817D01*
X119716500Y-128276004D01*
X116158500Y-128276004D01*
X116158500Y-127051866D01*
X116151745Y-126989684D01*
X116100615Y-126853295D01*
X116013261Y-126736739D01*
X115896705Y-126649385D01*
X115760316Y-126598255D01*
X115698134Y-126591500D01*
X113801866Y-126591500D01*
X113739684Y-126598255D01*
X113603295Y-126649385D01*
X113486739Y-126736739D01*
X113399385Y-126853295D01*
X113396233Y-126861703D01*
X113396232Y-126861705D01*
X113375538Y-126916906D01*
X113332897Y-126973671D01*
X113266335Y-126998371D01*
X113196986Y-126983164D01*
X113174167Y-126966666D01*
X113173887Y-126966358D01*
X113107646Y-126914044D01*
X112996177Y-126826011D01*
X112996172Y-126826008D01*
X112992123Y-126822810D01*
X112987607Y-126820317D01*
X112987604Y-126820315D01*
X112793879Y-126713373D01*
X112793875Y-126713371D01*
X112789355Y-126710876D01*
X112784486Y-126709152D01*
X112784482Y-126709150D01*
X112575903Y-126635288D01*
X112575899Y-126635287D01*
X112571028Y-126633562D01*
X112565935Y-126632655D01*
X112565932Y-126632654D01*
X112348095Y-126593851D01*
X112348089Y-126593850D01*
X112343006Y-126592945D01*
X112270096Y-126592054D01*
X112116581Y-126590179D01*
X112116579Y-126590179D01*
X112111411Y-126590116D01*
X111882464Y-126625150D01*
X111662314Y-126697106D01*
X111657726Y-126699494D01*
X111657722Y-126699496D01*
X111545894Y-126757710D01*
X111456872Y-126804052D01*
X111452739Y-126807155D01*
X111452736Y-126807157D01*
X111275790Y-126940012D01*
X111271655Y-126943117D01*
X111111639Y-127110564D01*
X111108725Y-127114836D01*
X111108724Y-127114837D01*
X111093152Y-127137665D01*
X110981119Y-127301899D01*
X110883602Y-127511981D01*
X110821707Y-127735169D01*
X110797095Y-127965469D01*
X102536479Y-127965469D01*
X102533543Y-127931913D01*
X102488592Y-127764156D01*
X102475707Y-127716067D01*
X102475706Y-127716065D01*
X102474284Y-127710757D01*
X102471961Y-127705775D01*
X102379849Y-127508238D01*
X102379846Y-127508233D01*
X102377523Y-127503251D01*
X102246198Y-127315700D01*
X102084300Y-127153802D01*
X102079792Y-127150645D01*
X102079789Y-127150643D01*
X102001611Y-127095902D01*
X101896749Y-127022477D01*
X101891767Y-127020154D01*
X101891762Y-127020151D01*
X101857543Y-127004195D01*
X101804258Y-126957278D01*
X101784797Y-126889001D01*
X101805339Y-126821041D01*
X101857543Y-126775805D01*
X101891762Y-126759849D01*
X101891767Y-126759846D01*
X101896749Y-126757523D01*
X102055687Y-126646233D01*
X102079789Y-126629357D01*
X102079792Y-126629355D01*
X102084300Y-126626198D01*
X102246198Y-126464300D01*
X102377523Y-126276749D01*
X102379846Y-126271767D01*
X102379849Y-126271762D01*
X102471961Y-126074225D01*
X102471961Y-126074224D01*
X102474284Y-126069243D01*
X102533543Y-125848087D01*
X102553498Y-125620000D01*
X102533543Y-125391913D01*
X102474284Y-125170757D01*
X102471961Y-125165775D01*
X102379849Y-124968238D01*
X102379846Y-124968233D01*
X102377523Y-124963251D01*
X102246198Y-124775700D01*
X102084300Y-124613802D01*
X102079792Y-124610645D01*
X102079789Y-124610643D01*
X102001611Y-124555902D01*
X101896749Y-124482477D01*
X101891767Y-124480154D01*
X101891762Y-124480151D01*
X101857543Y-124464195D01*
X101804258Y-124417278D01*
X101784797Y-124349001D01*
X101805339Y-124281041D01*
X101857543Y-124235805D01*
X101891762Y-124219849D01*
X101891767Y-124219846D01*
X101896749Y-124217523D01*
X102001611Y-124144098D01*
X102079789Y-124089357D01*
X102079792Y-124089355D01*
X102084300Y-124086198D01*
X102246198Y-123924300D01*
X102377523Y-123736749D01*
X102379846Y-123731767D01*
X102379849Y-123731762D01*
X102471961Y-123534225D01*
X102471961Y-123534224D01*
X102474284Y-123529243D01*
X102533543Y-123308087D01*
X102553498Y-123080000D01*
X102537750Y-122900000D01*
X132411496Y-122900000D01*
X132412186Y-122906565D01*
X132430415Y-123080000D01*
X132431458Y-123089928D01*
X132490473Y-123271556D01*
X132585960Y-123436944D01*
X132713747Y-123578866D01*
X132868248Y-123691118D01*
X132874276Y-123693802D01*
X132874278Y-123693803D01*
X133036681Y-123766109D01*
X133042712Y-123768794D01*
X133136113Y-123788647D01*
X133223056Y-123807128D01*
X133223061Y-123807128D01*
X133229513Y-123808500D01*
X133420487Y-123808500D01*
X133426939Y-123807128D01*
X133426944Y-123807128D01*
X133513887Y-123788647D01*
X133607288Y-123768794D01*
X133613319Y-123766109D01*
X133775722Y-123693803D01*
X133775724Y-123693802D01*
X133781752Y-123691118D01*
X133936253Y-123578866D01*
X134064040Y-123436944D01*
X134159527Y-123271556D01*
X134218542Y-123089928D01*
X134219586Y-123080000D01*
X134237814Y-122906565D01*
X134238504Y-122900000D01*
X134218542Y-122710072D01*
X134159527Y-122528444D01*
X134064040Y-122363056D01*
X133945860Y-122231803D01*
X133940675Y-122226045D01*
X133940674Y-122226044D01*
X133936253Y-122221134D01*
X133781752Y-122108882D01*
X133775724Y-122106198D01*
X133775722Y-122106197D01*
X133613319Y-122033891D01*
X133613318Y-122033891D01*
X133607288Y-122031206D01*
X133513888Y-122011353D01*
X133426944Y-121992872D01*
X133426939Y-121992872D01*
X133420487Y-121991500D01*
X133229513Y-121991500D01*
X133223061Y-121992872D01*
X133223056Y-121992872D01*
X133136112Y-122011353D01*
X133042712Y-122031206D01*
X133036682Y-122033891D01*
X133036681Y-122033891D01*
X132874278Y-122106197D01*
X132874276Y-122106198D01*
X132868248Y-122108882D01*
X132713747Y-122221134D01*
X132709326Y-122226044D01*
X132709325Y-122226045D01*
X132704141Y-122231803D01*
X132585960Y-122363056D01*
X132490473Y-122528444D01*
X132431458Y-122710072D01*
X132411496Y-122900000D01*
X102537750Y-122900000D01*
X102533543Y-122851913D01*
X102495537Y-122710072D01*
X102475707Y-122636067D01*
X102475706Y-122636065D01*
X102474284Y-122630757D01*
X102426575Y-122528444D01*
X102379849Y-122428238D01*
X102379846Y-122428233D01*
X102377523Y-122423251D01*
X102296213Y-122307128D01*
X102249357Y-122240211D01*
X102249355Y-122240208D01*
X102246198Y-122235700D01*
X102084300Y-122073802D01*
X102079792Y-122070645D01*
X102079789Y-122070643D01*
X101966761Y-121991500D01*
X101896749Y-121942477D01*
X101891767Y-121940154D01*
X101891762Y-121940151D01*
X101857543Y-121924195D01*
X101804258Y-121877278D01*
X101784797Y-121809001D01*
X101805339Y-121741041D01*
X101857543Y-121695805D01*
X101891762Y-121679849D01*
X101891767Y-121679846D01*
X101896749Y-121677523D01*
X102031220Y-121583365D01*
X102079789Y-121549357D01*
X102079792Y-121549355D01*
X102084300Y-121546198D01*
X102230498Y-121400000D01*
X124186496Y-121400000D01*
X124206458Y-121589928D01*
X124265473Y-121771556D01*
X124360960Y-121936944D01*
X124365378Y-121941851D01*
X124365379Y-121941852D01*
X124410082Y-121991500D01*
X124488747Y-122078866D01*
X124643248Y-122191118D01*
X124649276Y-122193802D01*
X124649278Y-122193803D01*
X124734628Y-122231803D01*
X124817712Y-122268794D01*
X124911112Y-122288647D01*
X124998056Y-122307128D01*
X124998061Y-122307128D01*
X125004513Y-122308500D01*
X125195487Y-122308500D01*
X125201939Y-122307128D01*
X125201944Y-122307128D01*
X125288888Y-122288647D01*
X125382288Y-122268794D01*
X125465372Y-122231803D01*
X125550722Y-122193803D01*
X125550724Y-122193802D01*
X125556752Y-122191118D01*
X125711253Y-122078866D01*
X125789918Y-121991500D01*
X125834621Y-121941852D01*
X125834622Y-121941851D01*
X125839040Y-121936944D01*
X125934527Y-121771556D01*
X125993542Y-121589928D01*
X126013504Y-121400000D01*
X125993542Y-121210072D01*
X125934527Y-121028444D01*
X125839040Y-120863056D01*
X125748596Y-120762607D01*
X125715675Y-120726045D01*
X125715674Y-120726044D01*
X125711253Y-120721134D01*
X125556752Y-120608882D01*
X125550724Y-120606198D01*
X125550722Y-120606197D01*
X125388319Y-120533891D01*
X125388318Y-120533891D01*
X125382288Y-120531206D01*
X125288887Y-120511353D01*
X125201944Y-120492872D01*
X125201939Y-120492872D01*
X125195487Y-120491500D01*
X125004513Y-120491500D01*
X124998061Y-120492872D01*
X124998056Y-120492872D01*
X124911113Y-120511353D01*
X124817712Y-120531206D01*
X124811682Y-120533891D01*
X124811681Y-120533891D01*
X124649278Y-120606197D01*
X124649276Y-120606198D01*
X124643248Y-120608882D01*
X124488747Y-120721134D01*
X124484326Y-120726044D01*
X124484325Y-120726045D01*
X124451405Y-120762607D01*
X124360960Y-120863056D01*
X124265473Y-121028444D01*
X124206458Y-121210072D01*
X124186496Y-121400000D01*
X102230498Y-121400000D01*
X102246198Y-121384300D01*
X102377523Y-121196749D01*
X102379846Y-121191767D01*
X102379849Y-121191762D01*
X102471961Y-120994225D01*
X102471961Y-120994224D01*
X102474284Y-120989243D01*
X102533543Y-120768087D01*
X102553498Y-120540000D01*
X102533543Y-120311913D01*
X102474284Y-120090757D01*
X102471961Y-120085775D01*
X102379849Y-119888238D01*
X102379846Y-119888233D01*
X102377523Y-119883251D01*
X102246198Y-119695700D01*
X102084300Y-119533802D01*
X102079792Y-119530645D01*
X102079789Y-119530643D01*
X102001611Y-119475902D01*
X101896749Y-119402477D01*
X101891767Y-119400154D01*
X101891762Y-119400151D01*
X101857543Y-119384195D01*
X101804258Y-119337278D01*
X101784797Y-119269001D01*
X101805339Y-119201041D01*
X101857543Y-119155805D01*
X101891762Y-119139849D01*
X101891767Y-119139846D01*
X101896749Y-119137523D01*
X102001611Y-119064098D01*
X102079789Y-119009357D01*
X102079792Y-119009355D01*
X102084300Y-119006198D01*
X102246198Y-118844300D01*
X102377523Y-118656749D01*
X102379846Y-118651767D01*
X102379849Y-118651762D01*
X102471961Y-118454225D01*
X102471961Y-118454224D01*
X102474284Y-118449243D01*
X102533543Y-118228087D01*
X102553498Y-118000000D01*
X102533543Y-117771913D01*
X102474284Y-117550757D01*
X102471961Y-117545775D01*
X102379849Y-117348238D01*
X102379846Y-117348233D01*
X102377523Y-117343251D01*
X102246198Y-117155700D01*
X102084300Y-116993802D01*
X102079792Y-116990645D01*
X102079789Y-116990643D01*
X102001611Y-116935902D01*
X101896749Y-116862477D01*
X101891767Y-116860154D01*
X101891762Y-116860151D01*
X101694225Y-116768039D01*
X101694224Y-116768039D01*
X101689243Y-116765716D01*
X101683935Y-116764294D01*
X101683933Y-116764293D01*
X101473402Y-116707881D01*
X101473400Y-116707881D01*
X101468087Y-116706457D01*
X101240000Y-116686502D01*
X101011913Y-116706457D01*
X101006600Y-116707881D01*
X101006598Y-116707881D01*
X100796067Y-116764293D01*
X100796065Y-116764294D01*
X100790757Y-116765716D01*
X100785776Y-116768039D01*
X100785775Y-116768039D01*
X100588238Y-116860151D01*
X100588233Y-116860154D01*
X100583251Y-116862477D01*
X100478389Y-116935902D01*
X100400211Y-116990643D01*
X100400208Y-116990645D01*
X100395700Y-116993802D01*
X100233802Y-117155700D01*
X100102477Y-117343251D01*
X100100154Y-117348233D01*
X100100151Y-117348238D01*
X100008039Y-117545775D01*
X100005716Y-117550757D01*
X99946457Y-117771913D01*
X99926502Y-118000000D01*
X99946457Y-118228087D01*
X100005716Y-118449243D01*
X100008039Y-118454224D01*
X100008039Y-118454225D01*
X100100151Y-118651762D01*
X100100154Y-118651767D01*
X100102477Y-118656749D01*
X100233802Y-118844300D01*
X100395700Y-119006198D01*
X100400208Y-119009355D01*
X100400211Y-119009357D01*
X100478389Y-119064098D01*
X100583251Y-119137523D01*
X100588233Y-119139846D01*
X100588238Y-119139849D01*
X100622457Y-119155805D01*
X100675742Y-119202722D01*
X100695203Y-119270999D01*
X100674661Y-119338959D01*
X100622457Y-119384195D01*
X100588238Y-119400151D01*
X100588233Y-119400154D01*
X100583251Y-119402477D01*
X100478389Y-119475902D01*
X100400211Y-119530643D01*
X100400208Y-119530645D01*
X100395700Y-119533802D01*
X100233802Y-119695700D01*
X100102477Y-119883251D01*
X100100154Y-119888233D01*
X100100151Y-119888238D01*
X100008039Y-120085775D01*
X100005716Y-120090757D01*
X99946457Y-120311913D01*
X99926502Y-120540000D01*
X99946457Y-120768087D01*
X100005716Y-120989243D01*
X100008039Y-120994224D01*
X100008039Y-120994225D01*
X100100151Y-121191762D01*
X100100154Y-121191767D01*
X100102477Y-121196749D01*
X100233802Y-121384300D01*
X100395700Y-121546198D01*
X100400208Y-121549355D01*
X100400211Y-121549357D01*
X100448780Y-121583365D01*
X100583251Y-121677523D01*
X100588233Y-121679846D01*
X100588238Y-121679849D01*
X100622457Y-121695805D01*
X100675742Y-121742722D01*
X100695203Y-121810999D01*
X100674661Y-121878959D01*
X100622457Y-121924195D01*
X100588238Y-121940151D01*
X100588233Y-121940154D01*
X100583251Y-121942477D01*
X100513239Y-121991500D01*
X100400211Y-122070643D01*
X100400208Y-122070645D01*
X100395700Y-122073802D01*
X100233802Y-122235700D01*
X100230645Y-122240208D01*
X100230643Y-122240211D01*
X100183787Y-122307128D01*
X100102477Y-122423251D01*
X100100154Y-122428233D01*
X100100151Y-122428238D01*
X100053425Y-122528444D01*
X100005716Y-122630757D01*
X100004294Y-122636065D01*
X100004293Y-122636067D01*
X99984463Y-122710072D01*
X99946457Y-122851913D01*
X99926502Y-123080000D01*
X99946457Y-123308087D01*
X100005716Y-123529243D01*
X100008039Y-123534224D01*
X100008039Y-123534225D01*
X100100151Y-123731762D01*
X100100154Y-123731767D01*
X100102477Y-123736749D01*
X100233802Y-123924300D01*
X100395700Y-124086198D01*
X100400208Y-124089355D01*
X100400211Y-124089357D01*
X100478389Y-124144098D01*
X100583251Y-124217523D01*
X100588233Y-124219846D01*
X100588238Y-124219849D01*
X100622457Y-124235805D01*
X100675742Y-124282722D01*
X100695203Y-124350999D01*
X100674661Y-124418959D01*
X100622457Y-124464195D01*
X100588238Y-124480151D01*
X100588233Y-124480154D01*
X100583251Y-124482477D01*
X100478389Y-124555902D01*
X100400211Y-124610643D01*
X100400208Y-124610645D01*
X100395700Y-124613802D01*
X100233802Y-124775700D01*
X100102477Y-124963251D01*
X100100154Y-124968233D01*
X100100151Y-124968238D01*
X100008039Y-125165775D01*
X100005716Y-125170757D01*
X99946457Y-125391913D01*
X99926502Y-125620000D01*
X99946457Y-125848087D01*
X100005716Y-126069243D01*
X100008039Y-126074224D01*
X100008039Y-126074225D01*
X100100151Y-126271762D01*
X100100154Y-126271767D01*
X100102477Y-126276749D01*
X100233802Y-126464300D01*
X100395700Y-126626198D01*
X100400208Y-126629355D01*
X100400211Y-126629357D01*
X100424313Y-126646233D01*
X100583251Y-126757523D01*
X100588233Y-126759846D01*
X100588238Y-126759849D01*
X100622457Y-126775805D01*
X100675742Y-126822722D01*
X100695203Y-126890999D01*
X100674661Y-126958959D01*
X100622457Y-127004195D01*
X100588238Y-127020151D01*
X100588233Y-127020154D01*
X100583251Y-127022477D01*
X100478389Y-127095902D01*
X100400211Y-127150643D01*
X100400208Y-127150645D01*
X100395700Y-127153802D01*
X100233802Y-127315700D01*
X100102477Y-127503251D01*
X100100154Y-127508233D01*
X100100151Y-127508238D01*
X100008039Y-127705775D01*
X100005716Y-127710757D01*
X100004294Y-127716065D01*
X100004293Y-127716067D01*
X99991408Y-127764156D01*
X99946457Y-127931913D01*
X99926502Y-128160000D01*
X99946457Y-128388087D01*
X99947881Y-128393400D01*
X99947881Y-128393402D01*
X99980552Y-128515329D01*
X100005716Y-128609243D01*
X100008039Y-128614224D01*
X100008039Y-128614225D01*
X100100151Y-128811762D01*
X100100154Y-128811767D01*
X100102477Y-128816749D01*
X100127482Y-128852460D01*
X100230591Y-128999714D01*
X100233802Y-129004300D01*
X100395700Y-129166198D01*
X100400208Y-129169355D01*
X100400211Y-129169357D01*
X100449354Y-129203767D01*
X100583251Y-129297523D01*
X100588233Y-129299846D01*
X100588238Y-129299849D01*
X100622457Y-129315805D01*
X100675742Y-129362722D01*
X100695203Y-129430999D01*
X100674661Y-129498959D01*
X100622457Y-129544195D01*
X100588238Y-129560151D01*
X100588233Y-129560154D01*
X100583251Y-129562477D01*
X100478389Y-129635902D01*
X100400211Y-129690643D01*
X100400208Y-129690645D01*
X100395700Y-129693802D01*
X100233802Y-129855700D01*
X100102477Y-130043251D01*
X100100154Y-130048233D01*
X100100151Y-130048238D01*
X100008039Y-130245775D01*
X100005716Y-130250757D01*
X99946457Y-130471913D01*
X99926502Y-130700000D01*
X97008500Y-130700000D01*
X97008500Y-112920000D01*
X99926502Y-112920000D01*
X99946457Y-113148087D01*
X100005716Y-113369243D01*
X100008039Y-113374224D01*
X100008039Y-113374225D01*
X100100151Y-113571762D01*
X100100154Y-113571767D01*
X100102477Y-113576749D01*
X100233802Y-113764300D01*
X100395700Y-113926198D01*
X100400208Y-113929355D01*
X100400211Y-113929357D01*
X100478389Y-113984098D01*
X100583251Y-114057523D01*
X100588233Y-114059846D01*
X100588238Y-114059849D01*
X100785775Y-114151961D01*
X100790757Y-114154284D01*
X100796065Y-114155706D01*
X100796067Y-114155707D01*
X101006598Y-114212119D01*
X101006600Y-114212119D01*
X101011913Y-114213543D01*
X101240000Y-114233498D01*
X101468087Y-114213543D01*
X101473400Y-114212119D01*
X101473402Y-114212119D01*
X101683933Y-114155707D01*
X101683935Y-114155706D01*
X101689243Y-114154284D01*
X101694225Y-114151961D01*
X101891762Y-114059849D01*
X101891767Y-114059846D01*
X101896749Y-114057523D01*
X102001611Y-113984098D01*
X102079789Y-113929357D01*
X102079792Y-113929355D01*
X102084300Y-113926198D01*
X102246198Y-113764300D01*
X102377523Y-113576749D01*
X102379846Y-113571767D01*
X102379849Y-113571762D01*
X102471961Y-113374225D01*
X102471961Y-113374224D01*
X102474284Y-113369243D01*
X102533543Y-113148087D01*
X102553498Y-112920000D01*
X102533543Y-112691913D01*
X102474284Y-112470757D01*
X102392328Y-112295000D01*
X102379849Y-112268238D01*
X102379846Y-112268233D01*
X102377523Y-112263251D01*
X102246198Y-112075700D01*
X102084300Y-111913802D01*
X102079792Y-111910645D01*
X102079789Y-111910643D01*
X102001611Y-111855902D01*
X101896749Y-111782477D01*
X101891767Y-111780154D01*
X101891762Y-111780151D01*
X101857543Y-111764195D01*
X101804258Y-111717278D01*
X101784797Y-111649001D01*
X101805339Y-111581041D01*
X101857543Y-111535805D01*
X101891762Y-111519849D01*
X101891767Y-111519846D01*
X101896749Y-111517523D01*
X102001611Y-111444098D01*
X102079789Y-111389357D01*
X102079792Y-111389355D01*
X102084300Y-111386198D01*
X102246198Y-111224300D01*
X102303003Y-111143175D01*
X102374366Y-111041257D01*
X102377523Y-111036749D01*
X102379846Y-111031767D01*
X102379849Y-111031762D01*
X102471961Y-110834225D01*
X102471961Y-110834224D01*
X102474284Y-110829243D01*
X102504201Y-110717594D01*
X102532119Y-110613402D01*
X102532119Y-110613400D01*
X102533543Y-110608087D01*
X102553498Y-110380000D01*
X102542124Y-110250000D01*
X107236835Y-110250000D01*
X107255465Y-110486711D01*
X107256619Y-110491518D01*
X107256620Y-110491524D01*
X107283289Y-110602607D01*
X107310895Y-110717594D01*
X107312788Y-110722165D01*
X107312789Y-110722167D01*
X107354942Y-110823933D01*
X107401760Y-110936963D01*
X107404346Y-110941183D01*
X107523241Y-111135202D01*
X107523245Y-111135208D01*
X107525824Y-111139416D01*
X107680031Y-111319969D01*
X107860584Y-111474176D01*
X107864792Y-111476755D01*
X107864798Y-111476759D01*
X108034971Y-111581041D01*
X108063037Y-111598240D01*
X108067607Y-111600133D01*
X108067611Y-111600135D01*
X108274224Y-111685716D01*
X108282406Y-111689105D01*
X108362609Y-111708360D01*
X108508476Y-111743380D01*
X108508482Y-111743381D01*
X108513289Y-111744535D01*
X108750000Y-111763165D01*
X108986711Y-111744535D01*
X108991518Y-111743381D01*
X108991524Y-111743380D01*
X109137391Y-111708360D01*
X109217594Y-111689105D01*
X109225776Y-111685716D01*
X109432389Y-111600135D01*
X109432393Y-111600133D01*
X109436963Y-111598240D01*
X109465029Y-111581041D01*
X109635202Y-111476759D01*
X109635208Y-111476755D01*
X109639416Y-111474176D01*
X109819969Y-111319969D01*
X109974176Y-111139416D01*
X109976755Y-111135208D01*
X109976759Y-111135202D01*
X110095654Y-110941183D01*
X110098240Y-110936963D01*
X110145059Y-110823933D01*
X110187211Y-110722167D01*
X110187212Y-110722165D01*
X110189105Y-110717594D01*
X110237981Y-110514010D01*
X110273333Y-110452441D01*
X110336360Y-110419758D01*
X110407051Y-110426338D01*
X110462962Y-110470093D01*
X110486500Y-110543424D01*
X110486500Y-115574000D01*
X110498234Y-115683149D01*
X110498952Y-115686449D01*
X110498952Y-115686450D01*
X110505961Y-115718669D01*
X110509620Y-115735491D01*
X110544290Y-115839657D01*
X110623308Y-115962612D01*
X110669801Y-116016268D01*
X110673194Y-116019208D01*
X110773450Y-116106081D01*
X110773453Y-116106083D01*
X110780261Y-116111982D01*
X110913210Y-116172698D01*
X110936964Y-116179673D01*
X110977008Y-116191431D01*
X110977012Y-116191432D01*
X110981331Y-116192700D01*
X110985780Y-116193340D01*
X110985786Y-116193341D01*
X111121553Y-116212861D01*
X111121558Y-116212861D01*
X111126000Y-116213500D01*
X124560500Y-116213500D01*
X124563846Y-116213140D01*
X124563851Y-116213140D01*
X124666285Y-116202128D01*
X124666292Y-116202127D01*
X124669649Y-116201766D01*
X124672950Y-116201048D01*
X124718710Y-116191094D01*
X124718715Y-116191093D01*
X124721991Y-116190380D01*
X124826157Y-116155710D01*
X124832789Y-116151448D01*
X124832791Y-116151447D01*
X124872073Y-116126202D01*
X124940194Y-116106201D01*
X124992534Y-116117587D01*
X125113210Y-116172698D01*
X125136964Y-116179673D01*
X125177008Y-116191431D01*
X125177012Y-116191432D01*
X125181331Y-116192700D01*
X125185780Y-116193340D01*
X125185786Y-116193341D01*
X125321553Y-116212861D01*
X125321558Y-116212861D01*
X125326000Y-116213500D01*
X138574000Y-116213500D01*
X138577346Y-116213140D01*
X138577351Y-116213140D01*
X138679785Y-116202128D01*
X138679792Y-116202127D01*
X138683149Y-116201766D01*
X138686450Y-116201048D01*
X138732210Y-116191094D01*
X138732215Y-116191093D01*
X138735491Y-116190380D01*
X138839657Y-116155710D01*
X138962612Y-116076692D01*
X139016268Y-116030199D01*
X139071888Y-115966010D01*
X139106081Y-115926550D01*
X139106083Y-115926547D01*
X139111982Y-115919739D01*
X139172698Y-115786790D01*
X139192700Y-115718669D01*
X139197333Y-115686450D01*
X139212861Y-115578447D01*
X139212861Y-115578442D01*
X139213500Y-115574000D01*
X139213500Y-110250000D01*
X139736835Y-110250000D01*
X139755465Y-110486711D01*
X139756619Y-110491518D01*
X139756620Y-110491524D01*
X139783289Y-110602607D01*
X139810895Y-110717594D01*
X139812788Y-110722165D01*
X139812789Y-110722167D01*
X139854942Y-110823933D01*
X139901760Y-110936963D01*
X139904346Y-110941183D01*
X140023241Y-111135202D01*
X140023245Y-111135208D01*
X140025824Y-111139416D01*
X140180031Y-111319969D01*
X140360584Y-111474176D01*
X140364792Y-111476755D01*
X140364798Y-111476759D01*
X140534971Y-111581041D01*
X140563037Y-111598240D01*
X140567607Y-111600133D01*
X140567611Y-111600135D01*
X140774224Y-111685716D01*
X140782406Y-111689105D01*
X140862609Y-111708360D01*
X141008476Y-111743380D01*
X141008482Y-111743381D01*
X141013289Y-111744535D01*
X141250000Y-111763165D01*
X141486711Y-111744535D01*
X141491518Y-111743381D01*
X141491524Y-111743380D01*
X141637391Y-111708360D01*
X141717594Y-111689105D01*
X141725776Y-111685716D01*
X141932389Y-111600135D01*
X141932393Y-111600133D01*
X141936963Y-111598240D01*
X141965029Y-111581041D01*
X142135202Y-111476759D01*
X142135208Y-111476755D01*
X142139416Y-111474176D01*
X142319969Y-111319969D01*
X142474176Y-111139416D01*
X142476755Y-111135208D01*
X142476759Y-111135202D01*
X142595654Y-110941183D01*
X142598240Y-110936963D01*
X142645059Y-110823933D01*
X142687211Y-110722167D01*
X142687212Y-110722165D01*
X142689105Y-110717594D01*
X142716711Y-110602607D01*
X142743380Y-110491524D01*
X142743381Y-110491518D01*
X142744535Y-110486711D01*
X142763165Y-110250000D01*
X142744535Y-110013289D01*
X142741309Y-109999849D01*
X142690260Y-109787218D01*
X142689105Y-109782406D01*
X142666668Y-109728238D01*
X142600135Y-109567611D01*
X142600133Y-109567607D01*
X142598240Y-109563037D01*
X142569875Y-109516749D01*
X142476759Y-109364798D01*
X142476755Y-109364792D01*
X142474176Y-109360584D01*
X142319969Y-109180031D01*
X142139416Y-109025824D01*
X142135208Y-109023245D01*
X142135202Y-109023241D01*
X141941183Y-108904346D01*
X141936963Y-108901760D01*
X141932393Y-108899867D01*
X141932389Y-108899865D01*
X141836145Y-108860000D01*
X148186502Y-108860000D01*
X148206457Y-109088087D01*
X148207881Y-109093400D01*
X148207881Y-109093402D01*
X148212329Y-109110000D01*
X148265716Y-109309243D01*
X148268039Y-109314224D01*
X148268039Y-109314225D01*
X148360151Y-109511762D01*
X148360154Y-109511767D01*
X148362477Y-109516749D01*
X148493802Y-109704300D01*
X148655700Y-109866198D01*
X148660208Y-109869355D01*
X148660211Y-109869357D01*
X148738389Y-109924098D01*
X148843251Y-109997523D01*
X148848233Y-109999846D01*
X148848238Y-109999849D01*
X149045775Y-110091961D01*
X149050757Y-110094284D01*
X149056065Y-110095706D01*
X149056067Y-110095707D01*
X149266598Y-110152119D01*
X149266600Y-110152119D01*
X149271913Y-110153543D01*
X149500000Y-110173498D01*
X149728087Y-110153543D01*
X149733400Y-110152119D01*
X149733402Y-110152119D01*
X149943933Y-110095707D01*
X149943935Y-110095706D01*
X149949243Y-110094284D01*
X149954225Y-110091961D01*
X150151762Y-109999849D01*
X150151767Y-109999846D01*
X150156749Y-109997523D01*
X150261611Y-109924098D01*
X150339789Y-109869357D01*
X150339792Y-109869355D01*
X150344300Y-109866198D01*
X150506198Y-109704300D01*
X150637523Y-109516749D01*
X150639846Y-109511767D01*
X150639849Y-109511762D01*
X150731961Y-109314225D01*
X150731961Y-109314224D01*
X150734284Y-109309243D01*
X150787672Y-109110000D01*
X150792119Y-109093402D01*
X150792119Y-109093400D01*
X150793543Y-109088087D01*
X150813498Y-108860000D01*
X150793543Y-108631913D01*
X150757326Y-108496749D01*
X150735707Y-108416067D01*
X150735706Y-108416065D01*
X150734284Y-108410757D01*
X150679945Y-108294225D01*
X150639849Y-108208238D01*
X150639846Y-108208233D01*
X150637523Y-108203251D01*
X150564098Y-108098389D01*
X150509357Y-108020211D01*
X150509355Y-108020208D01*
X150506198Y-108015700D01*
X150344300Y-107853802D01*
X150339792Y-107850645D01*
X150339789Y-107850643D01*
X150261611Y-107795902D01*
X150156749Y-107722477D01*
X150151767Y-107720154D01*
X150151762Y-107720151D01*
X150117543Y-107704195D01*
X150064258Y-107657278D01*
X150044797Y-107589001D01*
X150065339Y-107521041D01*
X150117543Y-107475805D01*
X150151762Y-107459849D01*
X150151767Y-107459846D01*
X150156749Y-107457523D01*
X150261611Y-107384098D01*
X150339789Y-107329357D01*
X150339792Y-107329355D01*
X150344300Y-107326198D01*
X150506198Y-107164300D01*
X150637523Y-106976749D01*
X150639846Y-106971767D01*
X150639849Y-106971762D01*
X150731961Y-106774225D01*
X150731961Y-106774224D01*
X150734284Y-106769243D01*
X150787672Y-106570000D01*
X150792119Y-106553402D01*
X150792119Y-106553400D01*
X150793543Y-106548087D01*
X150813498Y-106320000D01*
X150793543Y-106091913D01*
X150757326Y-105956749D01*
X150735707Y-105876067D01*
X150735706Y-105876065D01*
X150734284Y-105870757D01*
X150679945Y-105754225D01*
X150639849Y-105668238D01*
X150639846Y-105668233D01*
X150637523Y-105663251D01*
X150564098Y-105558389D01*
X150509357Y-105480211D01*
X150509355Y-105480208D01*
X150506198Y-105475700D01*
X150344300Y-105313802D01*
X150339792Y-105310645D01*
X150339789Y-105310643D01*
X150167864Y-105190260D01*
X150156749Y-105182477D01*
X150151767Y-105180154D01*
X150151762Y-105180151D01*
X150117543Y-105164195D01*
X150064258Y-105117278D01*
X150044797Y-105049001D01*
X150065339Y-104981041D01*
X150117543Y-104935805D01*
X150151762Y-104919849D01*
X150151767Y-104919846D01*
X150156749Y-104917523D01*
X150296070Y-104819969D01*
X150339789Y-104789357D01*
X150339792Y-104789355D01*
X150344300Y-104786198D01*
X150506198Y-104624300D01*
X150637523Y-104436749D01*
X150639846Y-104431767D01*
X150639849Y-104431762D01*
X150731961Y-104234225D01*
X150731961Y-104234224D01*
X150734284Y-104229243D01*
X150737406Y-104217594D01*
X150792119Y-104013402D01*
X150792119Y-104013400D01*
X150793543Y-104008087D01*
X150813498Y-103780000D01*
X150793543Y-103551913D01*
X150792119Y-103546598D01*
X150735707Y-103336067D01*
X150735706Y-103336065D01*
X150734284Y-103330757D01*
X150711738Y-103282406D01*
X150639849Y-103128238D01*
X150639846Y-103128233D01*
X150637523Y-103123251D01*
X150506198Y-102935700D01*
X150344300Y-102773802D01*
X150339792Y-102770645D01*
X150339789Y-102770643D01*
X150261611Y-102715902D01*
X150156749Y-102642477D01*
X150151767Y-102640154D01*
X150151762Y-102640151D01*
X150117543Y-102624195D01*
X150064258Y-102577278D01*
X150044797Y-102509001D01*
X150065339Y-102441041D01*
X150117543Y-102395805D01*
X150151762Y-102379849D01*
X150151767Y-102379846D01*
X150156749Y-102377523D01*
X150329416Y-102256620D01*
X150339789Y-102249357D01*
X150339792Y-102249355D01*
X150344300Y-102246198D01*
X150506198Y-102084300D01*
X150637523Y-101896749D01*
X150639846Y-101891767D01*
X150639849Y-101891762D01*
X150731961Y-101694225D01*
X150731961Y-101694224D01*
X150734284Y-101689243D01*
X150793543Y-101468087D01*
X150813498Y-101240000D01*
X150793543Y-101011913D01*
X150757326Y-100876749D01*
X150735707Y-100796067D01*
X150735706Y-100796065D01*
X150734284Y-100790757D01*
X150679945Y-100674225D01*
X150639849Y-100588238D01*
X150639846Y-100588233D01*
X150637523Y-100583251D01*
X150564098Y-100478389D01*
X150509357Y-100400211D01*
X150509355Y-100400208D01*
X150506198Y-100395700D01*
X150344300Y-100233802D01*
X150339792Y-100230645D01*
X150339789Y-100230643D01*
X150261611Y-100175902D01*
X150156749Y-100102477D01*
X150151767Y-100100154D01*
X150151762Y-100100151D01*
X150117543Y-100084195D01*
X150064258Y-100037278D01*
X150044797Y-99969001D01*
X150065339Y-99901041D01*
X150117543Y-99855805D01*
X150151762Y-99839849D01*
X150151767Y-99839846D01*
X150156749Y-99837523D01*
X150261611Y-99764098D01*
X150339789Y-99709357D01*
X150339792Y-99709355D01*
X150344300Y-99706198D01*
X150506198Y-99544300D01*
X150637523Y-99356749D01*
X150639846Y-99351767D01*
X150639849Y-99351762D01*
X150731961Y-99154225D01*
X150731961Y-99154224D01*
X150734284Y-99149243D01*
X150787672Y-98950000D01*
X150792119Y-98933402D01*
X150792119Y-98933400D01*
X150793543Y-98928087D01*
X150813498Y-98700000D01*
X150793543Y-98471913D01*
X150757326Y-98336749D01*
X150735707Y-98256067D01*
X150735706Y-98256065D01*
X150734284Y-98250757D01*
X150679945Y-98134225D01*
X150639849Y-98048238D01*
X150639846Y-98048233D01*
X150637523Y-98043251D01*
X150564098Y-97938389D01*
X150509357Y-97860211D01*
X150509355Y-97860208D01*
X150506198Y-97855700D01*
X150344300Y-97693802D01*
X150339792Y-97690645D01*
X150339789Y-97690643D01*
X150261611Y-97635902D01*
X150156749Y-97562477D01*
X150151767Y-97560154D01*
X150151762Y-97560151D01*
X150117543Y-97544195D01*
X150064258Y-97497278D01*
X150044797Y-97429001D01*
X150065339Y-97361041D01*
X150117543Y-97315805D01*
X150151762Y-97299849D01*
X150151767Y-97299846D01*
X150156749Y-97297523D01*
X150283788Y-97208569D01*
X150339789Y-97169357D01*
X150339792Y-97169355D01*
X150344300Y-97166198D01*
X150506198Y-97004300D01*
X150523031Y-96980261D01*
X150564098Y-96921611D01*
X150637523Y-96816749D01*
X150639846Y-96811767D01*
X150639849Y-96811762D01*
X150731961Y-96614225D01*
X150731961Y-96614224D01*
X150734284Y-96609243D01*
X150736903Y-96599471D01*
X150792119Y-96393402D01*
X150792119Y-96393400D01*
X150793543Y-96388087D01*
X150813498Y-96160000D01*
X150793543Y-95931913D01*
X150753773Y-95783489D01*
X150735707Y-95716067D01*
X150735706Y-95716065D01*
X150734284Y-95710757D01*
X150694582Y-95625615D01*
X150639849Y-95508238D01*
X150639846Y-95508233D01*
X150637523Y-95503251D01*
X150564098Y-95398389D01*
X150509357Y-95320211D01*
X150509355Y-95320208D01*
X150506198Y-95315700D01*
X150344300Y-95153802D01*
X150339792Y-95150645D01*
X150339789Y-95150643D01*
X150261611Y-95095902D01*
X150156749Y-95022477D01*
X150151767Y-95020154D01*
X150151762Y-95020151D01*
X150117543Y-95004195D01*
X150064258Y-94957278D01*
X150044797Y-94889001D01*
X150065339Y-94821041D01*
X150117543Y-94775805D01*
X150151762Y-94759849D01*
X150151767Y-94759846D01*
X150156749Y-94757523D01*
X150261611Y-94684098D01*
X150339789Y-94629357D01*
X150339792Y-94629355D01*
X150344300Y-94626198D01*
X150506198Y-94464300D01*
X150637523Y-94276749D01*
X150639846Y-94271767D01*
X150639849Y-94271762D01*
X150731961Y-94074225D01*
X150731961Y-94074224D01*
X150734284Y-94069243D01*
X150760513Y-93971358D01*
X150792119Y-93853402D01*
X150792119Y-93853400D01*
X150793543Y-93848087D01*
X150813498Y-93620000D01*
X150793543Y-93391913D01*
X150776114Y-93326866D01*
X150735707Y-93176067D01*
X150735706Y-93176065D01*
X150734284Y-93170757D01*
X150731961Y-93165775D01*
X150639849Y-92968238D01*
X150639846Y-92968233D01*
X150637523Y-92963251D01*
X150506198Y-92775700D01*
X150344300Y-92613802D01*
X150339792Y-92610645D01*
X150339789Y-92610643D01*
X150224964Y-92530242D01*
X150156749Y-92482477D01*
X150151767Y-92480154D01*
X150151762Y-92480151D01*
X150117543Y-92464195D01*
X150064258Y-92417278D01*
X150044797Y-92349001D01*
X150065339Y-92281041D01*
X150117543Y-92235805D01*
X150151762Y-92219849D01*
X150151767Y-92219846D01*
X150156749Y-92217523D01*
X150319176Y-92103790D01*
X150339789Y-92089357D01*
X150339792Y-92089355D01*
X150344300Y-92086198D01*
X150506198Y-91924300D01*
X150637523Y-91736749D01*
X150639846Y-91731767D01*
X150639849Y-91731762D01*
X150731961Y-91534225D01*
X150731961Y-91534224D01*
X150734284Y-91529243D01*
X150793543Y-91308087D01*
X150813498Y-91080000D01*
X150793543Y-90851913D01*
X150734284Y-90630757D01*
X150714365Y-90588040D01*
X150639849Y-90428238D01*
X150639846Y-90428233D01*
X150637523Y-90423251D01*
X150506198Y-90235700D01*
X150344300Y-90073802D01*
X150339792Y-90070645D01*
X150339789Y-90070643D01*
X150261611Y-90015902D01*
X150156749Y-89942477D01*
X150151767Y-89940154D01*
X150151762Y-89940151D01*
X150117543Y-89924195D01*
X150064258Y-89877278D01*
X150044797Y-89809001D01*
X150065339Y-89741041D01*
X150117543Y-89695805D01*
X150151762Y-89679849D01*
X150151767Y-89679846D01*
X150156749Y-89677523D01*
X150261611Y-89604098D01*
X150339789Y-89549357D01*
X150339792Y-89549355D01*
X150344300Y-89546198D01*
X150506198Y-89384300D01*
X150637523Y-89196749D01*
X150639846Y-89191767D01*
X150639849Y-89191762D01*
X150731961Y-88994225D01*
X150731961Y-88994224D01*
X150734284Y-88989243D01*
X150793543Y-88768087D01*
X150813498Y-88540000D01*
X150793543Y-88311913D01*
X150734284Y-88090757D01*
X150731961Y-88085775D01*
X150639849Y-87888238D01*
X150639846Y-87888233D01*
X150637523Y-87883251D01*
X150534944Y-87736753D01*
X150509357Y-87700211D01*
X150509355Y-87700208D01*
X150506198Y-87695700D01*
X150344300Y-87533802D01*
X150339792Y-87530645D01*
X150339789Y-87530643D01*
X150243262Y-87463054D01*
X150156749Y-87402477D01*
X150151767Y-87400154D01*
X150151762Y-87400151D01*
X150117543Y-87384195D01*
X150064258Y-87337278D01*
X150044797Y-87269001D01*
X150065339Y-87201041D01*
X150117543Y-87155805D01*
X150151762Y-87139849D01*
X150151767Y-87139846D01*
X150156749Y-87137523D01*
X150285798Y-87047162D01*
X150339789Y-87009357D01*
X150339792Y-87009355D01*
X150344300Y-87006198D01*
X150506198Y-86844300D01*
X150637523Y-86656749D01*
X150639846Y-86651767D01*
X150639849Y-86651762D01*
X150731961Y-86454225D01*
X150731961Y-86454224D01*
X150734284Y-86449243D01*
X150754178Y-86375000D01*
X150792119Y-86233402D01*
X150792119Y-86233400D01*
X150793543Y-86228087D01*
X150813498Y-86000000D01*
X150793543Y-85771913D01*
X150783810Y-85735590D01*
X150735707Y-85556067D01*
X150735706Y-85556065D01*
X150734284Y-85550757D01*
X150699376Y-85475895D01*
X150639849Y-85348238D01*
X150639846Y-85348233D01*
X150637523Y-85343251D01*
X150515704Y-85169276D01*
X150509357Y-85160211D01*
X150509355Y-85160208D01*
X150506198Y-85155700D01*
X150344300Y-84993802D01*
X150339792Y-84990645D01*
X150339789Y-84990643D01*
X150197321Y-84890886D01*
X150156749Y-84862477D01*
X150151767Y-84860154D01*
X150151762Y-84860151D01*
X149954225Y-84768039D01*
X149954224Y-84768039D01*
X149949243Y-84765716D01*
X149943935Y-84764294D01*
X149943933Y-84764293D01*
X149733402Y-84707881D01*
X149733400Y-84707881D01*
X149728087Y-84706457D01*
X149500000Y-84686502D01*
X149271913Y-84706457D01*
X149266600Y-84707881D01*
X149266598Y-84707881D01*
X149056067Y-84764293D01*
X149056065Y-84764294D01*
X149050757Y-84765716D01*
X149045776Y-84768039D01*
X149045775Y-84768039D01*
X148848238Y-84860151D01*
X148848233Y-84860154D01*
X148843251Y-84862477D01*
X148802679Y-84890886D01*
X148660211Y-84990643D01*
X148660208Y-84990645D01*
X148655700Y-84993802D01*
X148493802Y-85155700D01*
X148490645Y-85160208D01*
X148490643Y-85160211D01*
X148484296Y-85169276D01*
X148362477Y-85343251D01*
X148360154Y-85348233D01*
X148360151Y-85348238D01*
X148300624Y-85475895D01*
X148265716Y-85550757D01*
X148264294Y-85556065D01*
X148264293Y-85556067D01*
X148216190Y-85735590D01*
X148206457Y-85771913D01*
X148186502Y-86000000D01*
X148206457Y-86228087D01*
X148207881Y-86233400D01*
X148207881Y-86233402D01*
X148245823Y-86375000D01*
X148265716Y-86449243D01*
X148268039Y-86454224D01*
X148268039Y-86454225D01*
X148360151Y-86651762D01*
X148360154Y-86651767D01*
X148362477Y-86656749D01*
X148493802Y-86844300D01*
X148655700Y-87006198D01*
X148660208Y-87009355D01*
X148660211Y-87009357D01*
X148714202Y-87047162D01*
X148843251Y-87137523D01*
X148848233Y-87139846D01*
X148848238Y-87139849D01*
X148882457Y-87155805D01*
X148935742Y-87202722D01*
X148955203Y-87270999D01*
X148934661Y-87338959D01*
X148882457Y-87384195D01*
X148848238Y-87400151D01*
X148848233Y-87400154D01*
X148843251Y-87402477D01*
X148756738Y-87463054D01*
X148660211Y-87530643D01*
X148660208Y-87530645D01*
X148655700Y-87533802D01*
X148493802Y-87695700D01*
X148490645Y-87700208D01*
X148490643Y-87700211D01*
X148465056Y-87736753D01*
X148362477Y-87883251D01*
X148360154Y-87888233D01*
X148360151Y-87888238D01*
X148268039Y-88085775D01*
X148265716Y-88090757D01*
X148206457Y-88311913D01*
X148186502Y-88540000D01*
X148206457Y-88768087D01*
X148265716Y-88989243D01*
X148268039Y-88994224D01*
X148268039Y-88994225D01*
X148360151Y-89191762D01*
X148360154Y-89191767D01*
X148362477Y-89196749D01*
X148493802Y-89384300D01*
X148655700Y-89546198D01*
X148660208Y-89549355D01*
X148660211Y-89549357D01*
X148738389Y-89604098D01*
X148843251Y-89677523D01*
X148848233Y-89679846D01*
X148848238Y-89679849D01*
X148882457Y-89695805D01*
X148935742Y-89742722D01*
X148955203Y-89810999D01*
X148934661Y-89878959D01*
X148882457Y-89924195D01*
X148848238Y-89940151D01*
X148848233Y-89940154D01*
X148843251Y-89942477D01*
X148738389Y-90015902D01*
X148660211Y-90070643D01*
X148660208Y-90070645D01*
X148655700Y-90073802D01*
X148493802Y-90235700D01*
X148362477Y-90423251D01*
X148360154Y-90428233D01*
X148360151Y-90428238D01*
X148285635Y-90588040D01*
X148265716Y-90630757D01*
X148206457Y-90851913D01*
X148186502Y-91080000D01*
X148206457Y-91308087D01*
X148265716Y-91529243D01*
X148268039Y-91534224D01*
X148268039Y-91534225D01*
X148360151Y-91731762D01*
X148360154Y-91731767D01*
X148362477Y-91736749D01*
X148493802Y-91924300D01*
X148655700Y-92086198D01*
X148660208Y-92089355D01*
X148660211Y-92089357D01*
X148680824Y-92103790D01*
X148843251Y-92217523D01*
X148848233Y-92219846D01*
X148848238Y-92219849D01*
X148882457Y-92235805D01*
X148935742Y-92282722D01*
X148955203Y-92350999D01*
X148934661Y-92418959D01*
X148882457Y-92464195D01*
X148848238Y-92480151D01*
X148848233Y-92480154D01*
X148843251Y-92482477D01*
X148775036Y-92530242D01*
X148660211Y-92610643D01*
X148660208Y-92610645D01*
X148655700Y-92613802D01*
X148493802Y-92775700D01*
X148362477Y-92963251D01*
X148360154Y-92968233D01*
X148360151Y-92968238D01*
X148268039Y-93165775D01*
X148265716Y-93170757D01*
X148264294Y-93176065D01*
X148264293Y-93176067D01*
X148223886Y-93326866D01*
X148206457Y-93391913D01*
X148186502Y-93620000D01*
X148206457Y-93848087D01*
X148207881Y-93853400D01*
X148207881Y-93853402D01*
X148239488Y-93971358D01*
X148265716Y-94069243D01*
X148268039Y-94074224D01*
X148268039Y-94074225D01*
X148360151Y-94271762D01*
X148360154Y-94271767D01*
X148362477Y-94276749D01*
X148493802Y-94464300D01*
X148655700Y-94626198D01*
X148660208Y-94629355D01*
X148660211Y-94629357D01*
X148738389Y-94684098D01*
X148843251Y-94757523D01*
X148848233Y-94759846D01*
X148848238Y-94759849D01*
X148882457Y-94775805D01*
X148935742Y-94822722D01*
X148955203Y-94890999D01*
X148934661Y-94958959D01*
X148882457Y-95004195D01*
X148848238Y-95020151D01*
X148848233Y-95020154D01*
X148843251Y-95022477D01*
X148738389Y-95095902D01*
X148660211Y-95150643D01*
X148660208Y-95150645D01*
X148655700Y-95153802D01*
X148493802Y-95315700D01*
X148490645Y-95320208D01*
X148490643Y-95320211D01*
X148435902Y-95398389D01*
X148362477Y-95503251D01*
X148360154Y-95508233D01*
X148360151Y-95508238D01*
X148305418Y-95625615D01*
X148265716Y-95710757D01*
X148264294Y-95716065D01*
X148264293Y-95716067D01*
X148246227Y-95783489D01*
X148206457Y-95931913D01*
X148186502Y-96160000D01*
X148206457Y-96388087D01*
X148207881Y-96393400D01*
X148207881Y-96393402D01*
X148263098Y-96599471D01*
X148265716Y-96609243D01*
X148268039Y-96614224D01*
X148268039Y-96614225D01*
X148360151Y-96811762D01*
X148360154Y-96811767D01*
X148362477Y-96816749D01*
X148435902Y-96921611D01*
X148476970Y-96980261D01*
X148493802Y-97004300D01*
X148655700Y-97166198D01*
X148660208Y-97169355D01*
X148660211Y-97169357D01*
X148716212Y-97208569D01*
X148843251Y-97297523D01*
X148848233Y-97299846D01*
X148848238Y-97299849D01*
X148882457Y-97315805D01*
X148935742Y-97362722D01*
X148955203Y-97430999D01*
X148934661Y-97498959D01*
X148882457Y-97544195D01*
X148848238Y-97560151D01*
X148848233Y-97560154D01*
X148843251Y-97562477D01*
X148738389Y-97635902D01*
X148660211Y-97690643D01*
X148660208Y-97690645D01*
X148655700Y-97693802D01*
X148493802Y-97855700D01*
X148490645Y-97860208D01*
X148490643Y-97860211D01*
X148435902Y-97938389D01*
X148362477Y-98043251D01*
X148360154Y-98048233D01*
X148360151Y-98048238D01*
X148320055Y-98134225D01*
X148265716Y-98250757D01*
X148264294Y-98256065D01*
X148264293Y-98256067D01*
X148242674Y-98336749D01*
X148206457Y-98471913D01*
X148186502Y-98700000D01*
X148206457Y-98928087D01*
X148207881Y-98933400D01*
X148207881Y-98933402D01*
X148212329Y-98950000D01*
X148265716Y-99149243D01*
X148268039Y-99154224D01*
X148268039Y-99154225D01*
X148360151Y-99351762D01*
X148360154Y-99351767D01*
X148362477Y-99356749D01*
X148493802Y-99544300D01*
X148655700Y-99706198D01*
X148660208Y-99709355D01*
X148660211Y-99709357D01*
X148738389Y-99764098D01*
X148843251Y-99837523D01*
X148848233Y-99839846D01*
X148848238Y-99839849D01*
X148882457Y-99855805D01*
X148935742Y-99902722D01*
X148955203Y-99970999D01*
X148934661Y-100038959D01*
X148882457Y-100084195D01*
X148848238Y-100100151D01*
X148848233Y-100100154D01*
X148843251Y-100102477D01*
X148738389Y-100175902D01*
X148660211Y-100230643D01*
X148660208Y-100230645D01*
X148655700Y-100233802D01*
X148493802Y-100395700D01*
X148490645Y-100400208D01*
X148490643Y-100400211D01*
X148435902Y-100478389D01*
X148362477Y-100583251D01*
X148360154Y-100588233D01*
X148360151Y-100588238D01*
X148320055Y-100674225D01*
X148265716Y-100790757D01*
X148264294Y-100796065D01*
X148264293Y-100796067D01*
X148242674Y-100876749D01*
X148206457Y-101011913D01*
X148186502Y-101240000D01*
X148206457Y-101468087D01*
X148265716Y-101689243D01*
X148268039Y-101694224D01*
X148268039Y-101694225D01*
X148360151Y-101891762D01*
X148360154Y-101891767D01*
X148362477Y-101896749D01*
X148493802Y-102084300D01*
X148655700Y-102246198D01*
X148660208Y-102249355D01*
X148660211Y-102249357D01*
X148670584Y-102256620D01*
X148843251Y-102377523D01*
X148848233Y-102379846D01*
X148848238Y-102379849D01*
X148882457Y-102395805D01*
X148935742Y-102442722D01*
X148955203Y-102510999D01*
X148934661Y-102578959D01*
X148882457Y-102624195D01*
X148848238Y-102640151D01*
X148848233Y-102640154D01*
X148843251Y-102642477D01*
X148738389Y-102715902D01*
X148660211Y-102770643D01*
X148660208Y-102770645D01*
X148655700Y-102773802D01*
X148493802Y-102935700D01*
X148362477Y-103123251D01*
X148360154Y-103128233D01*
X148360151Y-103128238D01*
X148288262Y-103282406D01*
X148265716Y-103330757D01*
X148264294Y-103336065D01*
X148264293Y-103336067D01*
X148207881Y-103546598D01*
X148206457Y-103551913D01*
X148186502Y-103780000D01*
X148206457Y-104008087D01*
X148207881Y-104013400D01*
X148207881Y-104013402D01*
X148262595Y-104217594D01*
X148265716Y-104229243D01*
X148268039Y-104234224D01*
X148268039Y-104234225D01*
X148360151Y-104431762D01*
X148360154Y-104431767D01*
X148362477Y-104436749D01*
X148493802Y-104624300D01*
X148655700Y-104786198D01*
X148660208Y-104789355D01*
X148660211Y-104789357D01*
X148703930Y-104819969D01*
X148843251Y-104917523D01*
X148848233Y-104919846D01*
X148848238Y-104919849D01*
X148882457Y-104935805D01*
X148935742Y-104982722D01*
X148955203Y-105050999D01*
X148934661Y-105118959D01*
X148882457Y-105164195D01*
X148848238Y-105180151D01*
X148848233Y-105180154D01*
X148843251Y-105182477D01*
X148832136Y-105190260D01*
X148660211Y-105310643D01*
X148660208Y-105310645D01*
X148655700Y-105313802D01*
X148493802Y-105475700D01*
X148490645Y-105480208D01*
X148490643Y-105480211D01*
X148435902Y-105558389D01*
X148362477Y-105663251D01*
X148360154Y-105668233D01*
X148360151Y-105668238D01*
X148320055Y-105754225D01*
X148265716Y-105870757D01*
X148264294Y-105876065D01*
X148264293Y-105876067D01*
X148242674Y-105956749D01*
X148206457Y-106091913D01*
X148186502Y-106320000D01*
X148206457Y-106548087D01*
X148207881Y-106553400D01*
X148207881Y-106553402D01*
X148212329Y-106570000D01*
X148265716Y-106769243D01*
X148268039Y-106774224D01*
X148268039Y-106774225D01*
X148360151Y-106971762D01*
X148360154Y-106971767D01*
X148362477Y-106976749D01*
X148493802Y-107164300D01*
X148655700Y-107326198D01*
X148660208Y-107329355D01*
X148660211Y-107329357D01*
X148738389Y-107384098D01*
X148843251Y-107457523D01*
X148848233Y-107459846D01*
X148848238Y-107459849D01*
X148882457Y-107475805D01*
X148935742Y-107522722D01*
X148955203Y-107590999D01*
X148934661Y-107658959D01*
X148882457Y-107704195D01*
X148848238Y-107720151D01*
X148848233Y-107720154D01*
X148843251Y-107722477D01*
X148738389Y-107795902D01*
X148660211Y-107850643D01*
X148660208Y-107850645D01*
X148655700Y-107853802D01*
X148493802Y-108015700D01*
X148490645Y-108020208D01*
X148490643Y-108020211D01*
X148435902Y-108098389D01*
X148362477Y-108203251D01*
X148360154Y-108208233D01*
X148360151Y-108208238D01*
X148320055Y-108294225D01*
X148265716Y-108410757D01*
X148264294Y-108416065D01*
X148264293Y-108416067D01*
X148242674Y-108496749D01*
X148206457Y-108631913D01*
X148186502Y-108860000D01*
X141836145Y-108860000D01*
X141722167Y-108812789D01*
X141722165Y-108812788D01*
X141717594Y-108810895D01*
X141637391Y-108791640D01*
X141491524Y-108756620D01*
X141491518Y-108756619D01*
X141486711Y-108755465D01*
X141250000Y-108736835D01*
X141013289Y-108755465D01*
X141008482Y-108756619D01*
X141008476Y-108756620D01*
X140862609Y-108791640D01*
X140782406Y-108810895D01*
X140777835Y-108812788D01*
X140777833Y-108812789D01*
X140567611Y-108899865D01*
X140567607Y-108899867D01*
X140563037Y-108901760D01*
X140558817Y-108904346D01*
X140364798Y-109023241D01*
X140364792Y-109023245D01*
X140360584Y-109025824D01*
X140180031Y-109180031D01*
X140025824Y-109360584D01*
X140023245Y-109364792D01*
X140023241Y-109364798D01*
X139930125Y-109516749D01*
X139901760Y-109563037D01*
X139899867Y-109567607D01*
X139899865Y-109567611D01*
X139833332Y-109728238D01*
X139810895Y-109782406D01*
X139809740Y-109787218D01*
X139758692Y-109999849D01*
X139755465Y-110013289D01*
X139736835Y-110250000D01*
X139213500Y-110250000D01*
X139213500Y-103750000D01*
X139736835Y-103750000D01*
X139755465Y-103986711D01*
X139756619Y-103991518D01*
X139756620Y-103991524D01*
X139774432Y-104065716D01*
X139810895Y-104217594D01*
X139812788Y-104222165D01*
X139812789Y-104222167D01*
X139899606Y-104431762D01*
X139901760Y-104436963D01*
X139904346Y-104441183D01*
X140023241Y-104635202D01*
X140023245Y-104635208D01*
X140025824Y-104639416D01*
X140180031Y-104819969D01*
X140360584Y-104974176D01*
X140364792Y-104976755D01*
X140364798Y-104976759D01*
X140485947Y-105050999D01*
X140563037Y-105098240D01*
X140567607Y-105100133D01*
X140567611Y-105100135D01*
X140766404Y-105182477D01*
X140782406Y-105189105D01*
X140862609Y-105208360D01*
X141008476Y-105243380D01*
X141008482Y-105243381D01*
X141013289Y-105244535D01*
X141250000Y-105263165D01*
X141486711Y-105244535D01*
X141491518Y-105243381D01*
X141491524Y-105243380D01*
X141637391Y-105208360D01*
X141717594Y-105189105D01*
X141733596Y-105182477D01*
X141932389Y-105100135D01*
X141932393Y-105100133D01*
X141936963Y-105098240D01*
X142014053Y-105050999D01*
X142135202Y-104976759D01*
X142135208Y-104976755D01*
X142139416Y-104974176D01*
X142319969Y-104819969D01*
X142474176Y-104639416D01*
X142476755Y-104635208D01*
X142476759Y-104635202D01*
X142595654Y-104441183D01*
X142598240Y-104436963D01*
X142600395Y-104431762D01*
X142687211Y-104222167D01*
X142687212Y-104222165D01*
X142689105Y-104217594D01*
X142725568Y-104065716D01*
X142743380Y-103991524D01*
X142743381Y-103991518D01*
X142744535Y-103986711D01*
X142763165Y-103750000D01*
X142744535Y-103513289D01*
X142737982Y-103485990D01*
X142690260Y-103287218D01*
X142689105Y-103282406D01*
X142687211Y-103277833D01*
X142600135Y-103067611D01*
X142600133Y-103067607D01*
X142598240Y-103063037D01*
X142578912Y-103031497D01*
X142476759Y-102864798D01*
X142476755Y-102864792D01*
X142474176Y-102860584D01*
X142319969Y-102680031D01*
X142139416Y-102525824D01*
X142135208Y-102523245D01*
X142135202Y-102523241D01*
X141941183Y-102404346D01*
X141936963Y-102401760D01*
X141932393Y-102399867D01*
X141932389Y-102399865D01*
X141722167Y-102312789D01*
X141722165Y-102312788D01*
X141717594Y-102310895D01*
X141637391Y-102291640D01*
X141491524Y-102256620D01*
X141491518Y-102256619D01*
X141486711Y-102255465D01*
X141250000Y-102236835D01*
X141013289Y-102255465D01*
X141008482Y-102256619D01*
X141008476Y-102256620D01*
X140862609Y-102291640D01*
X140782406Y-102310895D01*
X140777835Y-102312788D01*
X140777833Y-102312789D01*
X140567611Y-102399865D01*
X140567607Y-102399867D01*
X140563037Y-102401760D01*
X140558817Y-102404346D01*
X140364798Y-102523241D01*
X140364792Y-102523245D01*
X140360584Y-102525824D01*
X140180031Y-102680031D01*
X140025824Y-102860584D01*
X140023245Y-102864792D01*
X140023241Y-102864798D01*
X139921088Y-103031497D01*
X139901760Y-103063037D01*
X139899867Y-103067607D01*
X139899865Y-103067611D01*
X139812789Y-103277833D01*
X139810895Y-103282406D01*
X139809740Y-103287218D01*
X139762019Y-103485990D01*
X139755465Y-103513289D01*
X139736835Y-103750000D01*
X139213500Y-103750000D01*
X139213500Y-97826000D01*
X139201766Y-97716851D01*
X139190380Y-97664509D01*
X139155710Y-97560343D01*
X139076692Y-97437388D01*
X139070291Y-97430000D01*
X139033139Y-97387125D01*
X139030199Y-97383732D01*
X138997044Y-97355003D01*
X138926550Y-97293919D01*
X138926547Y-97293917D01*
X138919739Y-97288018D01*
X138786790Y-97227302D01*
X138763036Y-97220327D01*
X138722992Y-97208569D01*
X138722988Y-97208568D01*
X138718669Y-97207300D01*
X138714220Y-97206660D01*
X138714214Y-97206659D01*
X138578447Y-97187139D01*
X138578442Y-97187139D01*
X138574000Y-97186500D01*
X137439500Y-97186500D01*
X137371379Y-97166498D01*
X137324886Y-97112842D01*
X137313500Y-97060500D01*
X137313500Y-95223134D01*
X140091500Y-95223134D01*
X140098255Y-95285316D01*
X140149385Y-95421705D01*
X140236739Y-95538261D01*
X140353295Y-95625615D01*
X140489684Y-95676745D01*
X140551866Y-95683500D01*
X142448134Y-95683500D01*
X142510316Y-95676745D01*
X142646705Y-95625615D01*
X142763261Y-95538261D01*
X142850615Y-95421705D01*
X142901745Y-95285316D01*
X142908500Y-95223134D01*
X142908500Y-93326866D01*
X142901745Y-93264684D01*
X142850615Y-93128295D01*
X142763261Y-93011739D01*
X142646705Y-92924385D01*
X142510316Y-92873255D01*
X142448134Y-92866500D01*
X142324480Y-92866500D01*
X142256359Y-92846498D01*
X142235384Y-92829595D01*
X141512811Y-92107021D01*
X141498868Y-92099408D01*
X141497034Y-92099539D01*
X141490420Y-92103790D01*
X140764616Y-92829595D01*
X140702303Y-92863620D01*
X140675520Y-92866500D01*
X140551866Y-92866500D01*
X140489684Y-92873255D01*
X140353295Y-92924385D01*
X140236739Y-93011739D01*
X140149385Y-93128295D01*
X140098255Y-93264684D01*
X140091500Y-93326866D01*
X140091500Y-95223134D01*
X137313500Y-95223134D01*
X137313500Y-91705638D01*
X140087893Y-91705638D01*
X140100627Y-91926468D01*
X140102061Y-91936670D01*
X140150685Y-92152439D01*
X140153773Y-92162292D01*
X140236986Y-92367220D01*
X140241634Y-92376421D01*
X140330097Y-92520781D01*
X140340553Y-92530242D01*
X140349331Y-92526458D01*
X141127979Y-91747811D01*
X141134356Y-91736132D01*
X141864408Y-91736132D01*
X141864539Y-91737966D01*
X141868790Y-91744580D01*
X142646307Y-92522096D01*
X142658313Y-92528652D01*
X142670052Y-92519684D01*
X142708010Y-92466859D01*
X142713321Y-92458020D01*
X142811318Y-92259737D01*
X142815117Y-92250142D01*
X142879415Y-92038517D01*
X142881594Y-92028436D01*
X142910702Y-91807338D01*
X142911221Y-91800663D01*
X142912744Y-91738364D01*
X142912550Y-91731646D01*
X142894279Y-91509400D01*
X142892596Y-91499238D01*
X142838710Y-91284708D01*
X142835389Y-91274953D01*
X142747193Y-91072118D01*
X142742315Y-91063020D01*
X142669224Y-90950038D01*
X142658538Y-90940835D01*
X142648973Y-90945238D01*
X141872021Y-91722189D01*
X141864408Y-91736132D01*
X141134356Y-91736132D01*
X141135592Y-91733868D01*
X141135461Y-91732034D01*
X141131210Y-91725420D01*
X140353862Y-90948073D01*
X140342330Y-90941776D01*
X140330048Y-90951399D01*
X140274467Y-91032877D01*
X140269379Y-91041833D01*
X140176252Y-91242459D01*
X140172689Y-91252146D01*
X140113581Y-91465280D01*
X140111650Y-91475400D01*
X140088145Y-91695349D01*
X140087893Y-91705638D01*
X137313500Y-91705638D01*
X137313500Y-90575711D01*
X140705508Y-90575711D01*
X140712251Y-90588040D01*
X141487189Y-91362979D01*
X141501132Y-91370592D01*
X141502966Y-91370461D01*
X141509580Y-91366210D01*
X142288994Y-90586795D01*
X142296011Y-90573944D01*
X142288237Y-90563274D01*
X142285902Y-90561430D01*
X142277320Y-90555729D01*
X142083678Y-90448833D01*
X142074272Y-90444606D01*
X141865772Y-90370772D01*
X141855809Y-90368140D01*
X141638047Y-90329350D01*
X141627796Y-90328381D01*
X141406616Y-90325679D01*
X141396332Y-90326399D01*
X141177693Y-90359855D01*
X141167666Y-90362244D01*
X140957426Y-90430961D01*
X140947916Y-90434958D01*
X140751725Y-90537089D01*
X140743007Y-90542578D01*
X140713961Y-90564386D01*
X140705508Y-90575711D01*
X137313500Y-90575711D01*
X137313500Y-87851336D01*
X137297450Y-87736564D01*
X137294405Y-87714794D01*
X137294404Y-87714790D01*
X137293799Y-87710463D01*
X137274833Y-87643982D01*
X137268577Y-87629855D01*
X137259284Y-87559473D01*
X137289519Y-87495237D01*
X137310619Y-87476261D01*
X137320085Y-87469509D01*
X137394860Y-87416173D01*
X137405887Y-87405185D01*
X137505704Y-87305716D01*
X137553096Y-87258489D01*
X137592168Y-87204115D01*
X137680435Y-87081277D01*
X137683453Y-87077077D01*
X137718484Y-87006198D01*
X137780136Y-86881453D01*
X137780137Y-86881451D01*
X137782430Y-86876811D01*
X137847370Y-86663069D01*
X137876529Y-86441590D01*
X137878156Y-86375000D01*
X137859852Y-86152361D01*
X137805431Y-85935702D01*
X137716354Y-85730840D01*
X137609746Y-85566049D01*
X137597822Y-85547617D01*
X137597820Y-85547614D01*
X137595014Y-85543277D01*
X137444670Y-85378051D01*
X137440619Y-85374852D01*
X137440615Y-85374848D01*
X137305299Y-85267982D01*
X137264236Y-85210065D01*
X137261004Y-85139142D01*
X137268779Y-85116754D01*
X137270827Y-85112269D01*
X137270827Y-85112268D01*
X137272698Y-85108172D01*
X137285777Y-85063628D01*
X137291431Y-85044374D01*
X137291432Y-85044370D01*
X137292700Y-85040051D01*
X137294067Y-85030548D01*
X137312861Y-84899829D01*
X137312861Y-84899824D01*
X137313500Y-84895382D01*
X137313500Y-83726000D01*
X137301766Y-83616851D01*
X137301048Y-83613550D01*
X137291094Y-83567790D01*
X137291093Y-83567785D01*
X137290380Y-83564509D01*
X137255710Y-83460343D01*
X137176692Y-83337388D01*
X137154193Y-83311422D01*
X137133139Y-83287125D01*
X137130199Y-83283732D01*
X137120933Y-83275703D01*
X137026550Y-83193919D01*
X137026547Y-83193917D01*
X137019739Y-83188018D01*
X136886790Y-83127302D01*
X136863036Y-83120327D01*
X136822992Y-83108569D01*
X136822988Y-83108568D01*
X136818669Y-83107300D01*
X136814220Y-83106660D01*
X136814214Y-83106659D01*
X136678447Y-83087139D01*
X136678442Y-83087139D01*
X136674000Y-83086500D01*
X130626000Y-83086500D01*
X130622654Y-83086860D01*
X130622649Y-83086860D01*
X130520215Y-83097872D01*
X130520208Y-83097873D01*
X130516851Y-83098234D01*
X130513551Y-83098952D01*
X130513550Y-83098952D01*
X130467790Y-83108906D01*
X130467785Y-83108907D01*
X130464509Y-83109620D01*
X130360343Y-83144290D01*
X130237388Y-83223308D01*
X130233991Y-83226251D01*
X130233989Y-83226253D01*
X130231441Y-83228461D01*
X130230411Y-83228931D01*
X130230385Y-83228951D01*
X130230381Y-83228945D01*
X130166861Y-83257955D01*
X130096586Y-83247852D01*
X130066415Y-83228462D01*
X130026554Y-83193922D01*
X130026549Y-83193918D01*
X130019739Y-83188018D01*
X129886790Y-83127302D01*
X129863036Y-83120327D01*
X129822992Y-83108569D01*
X129822988Y-83108568D01*
X129818669Y-83107300D01*
X129814220Y-83106660D01*
X129814214Y-83106659D01*
X129678447Y-83087139D01*
X129678442Y-83087139D01*
X129674000Y-83086500D01*
X117826000Y-83086500D01*
X117822654Y-83086860D01*
X117822649Y-83086860D01*
X117720215Y-83097872D01*
X117720208Y-83097873D01*
X117716851Y-83098234D01*
X117713551Y-83098952D01*
X117713550Y-83098952D01*
X117667790Y-83108906D01*
X117667785Y-83108907D01*
X117664509Y-83109620D01*
X117560343Y-83144290D01*
X117437388Y-83223308D01*
X117433993Y-83226250D01*
X117433990Y-83226252D01*
X117397403Y-83257955D01*
X117383732Y-83269801D01*
X117380792Y-83273194D01*
X117293919Y-83373450D01*
X117293917Y-83373453D01*
X117288018Y-83380261D01*
X117227302Y-83513210D01*
X117207300Y-83581331D01*
X117206660Y-83585780D01*
X117206659Y-83585786D01*
X117202193Y-83616851D01*
X117186500Y-83726000D01*
X117186500Y-85166817D01*
X117166498Y-85234938D01*
X117112842Y-85281431D01*
X117042568Y-85291535D01*
X116982407Y-85265698D01*
X116953415Y-85242801D01*
X116953413Y-85242800D01*
X116949359Y-85239598D01*
X116940918Y-85234938D01*
X116821970Y-85169276D01*
X116753789Y-85131638D01*
X116748920Y-85129914D01*
X116748916Y-85129912D01*
X116548087Y-85058795D01*
X116548083Y-85058794D01*
X116543212Y-85057069D01*
X116538119Y-85056162D01*
X116538116Y-85056161D01*
X116328373Y-85018800D01*
X116328367Y-85018799D01*
X116323284Y-85017894D01*
X116249452Y-85016992D01*
X116105081Y-85015228D01*
X116105079Y-85015228D01*
X116099911Y-85015165D01*
X115879091Y-85048955D01*
X115666756Y-85118357D01*
X115468607Y-85221507D01*
X115464474Y-85224610D01*
X115464471Y-85224612D01*
X115294100Y-85352530D01*
X115289965Y-85355635D01*
X115286393Y-85359373D01*
X115208898Y-85440466D01*
X115147374Y-85475895D01*
X115076462Y-85472438D01*
X115018676Y-85431192D01*
X114999823Y-85397644D01*
X114958324Y-85286946D01*
X114949786Y-85271351D01*
X114873285Y-85169276D01*
X114860724Y-85156715D01*
X114758649Y-85080214D01*
X114743054Y-85071676D01*
X114622606Y-85026522D01*
X114607351Y-85022895D01*
X114556486Y-85017369D01*
X114549672Y-85017000D01*
X113927115Y-85017000D01*
X113911876Y-85021475D01*
X113910671Y-85022865D01*
X113909000Y-85030548D01*
X113909000Y-87714884D01*
X113913475Y-87730123D01*
X113914865Y-87731328D01*
X113922548Y-87732999D01*
X114549669Y-87732999D01*
X114556490Y-87732629D01*
X114607352Y-87727105D01*
X114622604Y-87723479D01*
X114743054Y-87678324D01*
X114758649Y-87669786D01*
X114860724Y-87593285D01*
X114873285Y-87580724D01*
X114949786Y-87478649D01*
X114958324Y-87463054D01*
X114999225Y-87353952D01*
X115041867Y-87297188D01*
X115108428Y-87272488D01*
X115177777Y-87287696D01*
X115212444Y-87315684D01*
X115237865Y-87345031D01*
X115237869Y-87345035D01*
X115241250Y-87348938D01*
X115309000Y-87405185D01*
X115394612Y-87476261D01*
X115413126Y-87491632D01*
X115606000Y-87604338D01*
X115814692Y-87684030D01*
X115819760Y-87685061D01*
X115819763Y-87685062D01*
X115927017Y-87706883D01*
X116033597Y-87728567D01*
X116038772Y-87728757D01*
X116038774Y-87728757D01*
X116251673Y-87736564D01*
X116251677Y-87736564D01*
X116256837Y-87736753D01*
X116261957Y-87736097D01*
X116261959Y-87736097D01*
X116473288Y-87709025D01*
X116473289Y-87709025D01*
X116478416Y-87708368D01*
X116483366Y-87706883D01*
X116687429Y-87645661D01*
X116687434Y-87645659D01*
X116692384Y-87644174D01*
X116892994Y-87545896D01*
X116973703Y-87488327D01*
X116987332Y-87478606D01*
X117054405Y-87455332D01*
X117123414Y-87472016D01*
X117172448Y-87523360D01*
X117186500Y-87581185D01*
X117186500Y-95114121D01*
X117166498Y-95182242D01*
X117112842Y-95228735D01*
X117042568Y-95238839D01*
X117007251Y-95228316D01*
X116954058Y-95203512D01*
X116943761Y-95199764D01*
X116733312Y-95143375D01*
X116722519Y-95141472D01*
X116505475Y-95122483D01*
X116494525Y-95122483D01*
X116277481Y-95141472D01*
X116266688Y-95143375D01*
X116056239Y-95199764D01*
X116045947Y-95203510D01*
X115848489Y-95295586D01*
X115838994Y-95301069D01*
X115786952Y-95337509D01*
X115778576Y-95347988D01*
X115785644Y-95361434D01*
X116770115Y-96345905D01*
X116804141Y-96408217D01*
X116799076Y-96479032D01*
X116770115Y-96524095D01*
X116589095Y-96705115D01*
X116526783Y-96739141D01*
X116455968Y-96734076D01*
X116410905Y-96705115D01*
X115425713Y-95719923D01*
X115413938Y-95713493D01*
X115401923Y-95722789D01*
X115366069Y-95773994D01*
X115360586Y-95783489D01*
X115268510Y-95980947D01*
X115264764Y-95991239D01*
X115208375Y-96201688D01*
X115206472Y-96212481D01*
X115187483Y-96429525D01*
X115187483Y-96440475D01*
X115197023Y-96549519D01*
X115183034Y-96619123D01*
X115133634Y-96670116D01*
X115071502Y-96686500D01*
X111126000Y-96686500D01*
X111122654Y-96686860D01*
X111122649Y-96686860D01*
X111020215Y-96697872D01*
X111020208Y-96697873D01*
X111016851Y-96698234D01*
X111013551Y-96698952D01*
X111013550Y-96698952D01*
X110967790Y-96708906D01*
X110967785Y-96708907D01*
X110964509Y-96709620D01*
X110860343Y-96744290D01*
X110737388Y-96823308D01*
X110733993Y-96826250D01*
X110733990Y-96826252D01*
X110717881Y-96840211D01*
X110683732Y-96869801D01*
X110680792Y-96873194D01*
X110593919Y-96973450D01*
X110593917Y-96973453D01*
X110588018Y-96980261D01*
X110527302Y-97113210D01*
X110526034Y-97117529D01*
X110512888Y-97162301D01*
X110507300Y-97181331D01*
X110506660Y-97185780D01*
X110506659Y-97185786D01*
X110487139Y-97321553D01*
X110486500Y-97326000D01*
X110486500Y-103456576D01*
X110466498Y-103524697D01*
X110412842Y-103571190D01*
X110342568Y-103581294D01*
X110277988Y-103551800D01*
X110237981Y-103485990D01*
X110190260Y-103287218D01*
X110189105Y-103282406D01*
X110187211Y-103277833D01*
X110100135Y-103067611D01*
X110100133Y-103067607D01*
X110098240Y-103063037D01*
X110078912Y-103031497D01*
X109976759Y-102864798D01*
X109976755Y-102864792D01*
X109974176Y-102860584D01*
X109819969Y-102680031D01*
X109639416Y-102525824D01*
X109635208Y-102523245D01*
X109635202Y-102523241D01*
X109441183Y-102404346D01*
X109436963Y-102401760D01*
X109432393Y-102399867D01*
X109432389Y-102399865D01*
X109222167Y-102312789D01*
X109222165Y-102312788D01*
X109217594Y-102310895D01*
X109137391Y-102291640D01*
X108991524Y-102256620D01*
X108991518Y-102256619D01*
X108986711Y-102255465D01*
X108750000Y-102236835D01*
X108513289Y-102255465D01*
X108508482Y-102256619D01*
X108508476Y-102256620D01*
X108362609Y-102291640D01*
X108282406Y-102310895D01*
X108277835Y-102312788D01*
X108277833Y-102312789D01*
X108067611Y-102399865D01*
X108067607Y-102399867D01*
X108063037Y-102401760D01*
X108058817Y-102404346D01*
X107864798Y-102523241D01*
X107864792Y-102523245D01*
X107860584Y-102525824D01*
X107680031Y-102680031D01*
X107525824Y-102860584D01*
X107523245Y-102864792D01*
X107523241Y-102864798D01*
X107421088Y-103031497D01*
X107401760Y-103063037D01*
X107399867Y-103067607D01*
X107399865Y-103067611D01*
X107312789Y-103277833D01*
X107310895Y-103282406D01*
X107309740Y-103287218D01*
X107262019Y-103485990D01*
X107255465Y-103513289D01*
X107236835Y-103750000D01*
X107255465Y-103986711D01*
X107256619Y-103991518D01*
X107256620Y-103991524D01*
X107274432Y-104065716D01*
X107310895Y-104217594D01*
X107312788Y-104222165D01*
X107312789Y-104222167D01*
X107399606Y-104431762D01*
X107401760Y-104436963D01*
X107404346Y-104441183D01*
X107523241Y-104635202D01*
X107523245Y-104635208D01*
X107525824Y-104639416D01*
X107680031Y-104819969D01*
X107860584Y-104974176D01*
X107864792Y-104976755D01*
X107864798Y-104976759D01*
X107985947Y-105050999D01*
X108063037Y-105098240D01*
X108067607Y-105100133D01*
X108067611Y-105100135D01*
X108266404Y-105182477D01*
X108282406Y-105189105D01*
X108362609Y-105208360D01*
X108508476Y-105243380D01*
X108508482Y-105243381D01*
X108513289Y-105244535D01*
X108750000Y-105263165D01*
X108986711Y-105244535D01*
X108991518Y-105243381D01*
X108991524Y-105243380D01*
X109137391Y-105208360D01*
X109217594Y-105189105D01*
X109233596Y-105182477D01*
X109432389Y-105100135D01*
X109432393Y-105100133D01*
X109436963Y-105098240D01*
X109514053Y-105050999D01*
X109635202Y-104976759D01*
X109635208Y-104976755D01*
X109639416Y-104974176D01*
X109819969Y-104819969D01*
X109974176Y-104639416D01*
X109976755Y-104635208D01*
X109976759Y-104635202D01*
X110095654Y-104441183D01*
X110098240Y-104436963D01*
X110100395Y-104431762D01*
X110187211Y-104222167D01*
X110187212Y-104222165D01*
X110189105Y-104217594D01*
X110237981Y-104014010D01*
X110273333Y-103952441D01*
X110336360Y-103919758D01*
X110407051Y-103926338D01*
X110462962Y-103970093D01*
X110486500Y-104043424D01*
X110486500Y-109956576D01*
X110466498Y-110024697D01*
X110412842Y-110071190D01*
X110342568Y-110081294D01*
X110277988Y-110051800D01*
X110237981Y-109985990D01*
X110209980Y-109869357D01*
X110189105Y-109782406D01*
X110166668Y-109728238D01*
X110100135Y-109567611D01*
X110100133Y-109567607D01*
X110098240Y-109563037D01*
X110069875Y-109516749D01*
X109976759Y-109364798D01*
X109976755Y-109364792D01*
X109974176Y-109360584D01*
X109819969Y-109180031D01*
X109639416Y-109025824D01*
X109635208Y-109023245D01*
X109635202Y-109023241D01*
X109441183Y-108904346D01*
X109436963Y-108901760D01*
X109432393Y-108899867D01*
X109432389Y-108899865D01*
X109222167Y-108812789D01*
X109222165Y-108812788D01*
X109217594Y-108810895D01*
X109137391Y-108791640D01*
X108991524Y-108756620D01*
X108991518Y-108756619D01*
X108986711Y-108755465D01*
X108750000Y-108736835D01*
X108513289Y-108755465D01*
X108508482Y-108756619D01*
X108508476Y-108756620D01*
X108362609Y-108791640D01*
X108282406Y-108810895D01*
X108277835Y-108812788D01*
X108277833Y-108812789D01*
X108067611Y-108899865D01*
X108067607Y-108899867D01*
X108063037Y-108901760D01*
X108058817Y-108904346D01*
X107864798Y-109023241D01*
X107864792Y-109023245D01*
X107860584Y-109025824D01*
X107680031Y-109180031D01*
X107525824Y-109360584D01*
X107523245Y-109364792D01*
X107523241Y-109364798D01*
X107430125Y-109516749D01*
X107401760Y-109563037D01*
X107399867Y-109567607D01*
X107399865Y-109567611D01*
X107333332Y-109728238D01*
X107310895Y-109782406D01*
X107309740Y-109787218D01*
X107258692Y-109999849D01*
X107255465Y-110013289D01*
X107236835Y-110250000D01*
X102542124Y-110250000D01*
X102533543Y-110151913D01*
X102506718Y-110051800D01*
X102475707Y-109936067D01*
X102475706Y-109936065D01*
X102474284Y-109930757D01*
X102442363Y-109862301D01*
X102379849Y-109728238D01*
X102379846Y-109728233D01*
X102377523Y-109723251D01*
X102304098Y-109618389D01*
X102249357Y-109540211D01*
X102249355Y-109540208D01*
X102246198Y-109535700D01*
X102084300Y-109373802D01*
X102079792Y-109370645D01*
X102079789Y-109370643D01*
X101984517Y-109303933D01*
X101896749Y-109242477D01*
X101891767Y-109240154D01*
X101891762Y-109240151D01*
X101857543Y-109224195D01*
X101804258Y-109177278D01*
X101784797Y-109109001D01*
X101805339Y-109041041D01*
X101857543Y-108995805D01*
X101891762Y-108979849D01*
X101891767Y-108979846D01*
X101896749Y-108977523D01*
X102072408Y-108854525D01*
X102079789Y-108849357D01*
X102079792Y-108849355D01*
X102084300Y-108846198D01*
X102246198Y-108684300D01*
X102286602Y-108626598D01*
X102374366Y-108501257D01*
X102377523Y-108496749D01*
X102379846Y-108491767D01*
X102379849Y-108491762D01*
X102471961Y-108294225D01*
X102471961Y-108294224D01*
X102474284Y-108289243D01*
X102495990Y-108208238D01*
X102532119Y-108073402D01*
X102532119Y-108073400D01*
X102533543Y-108068087D01*
X102553498Y-107840000D01*
X102533543Y-107611913D01*
X102527939Y-107590999D01*
X102475707Y-107396067D01*
X102475706Y-107396065D01*
X102474284Y-107390757D01*
X102442363Y-107322301D01*
X102379849Y-107188238D01*
X102379846Y-107188233D01*
X102377523Y-107183251D01*
X102246198Y-106995700D01*
X102084300Y-106833802D01*
X102079792Y-106830645D01*
X102079789Y-106830643D01*
X101984517Y-106763933D01*
X101896749Y-106702477D01*
X101891767Y-106700154D01*
X101891762Y-106700151D01*
X101857543Y-106684195D01*
X101804258Y-106637278D01*
X101784797Y-106569001D01*
X101805339Y-106501041D01*
X101857543Y-106455805D01*
X101891762Y-106439849D01*
X101891767Y-106439846D01*
X101896749Y-106437523D01*
X102072408Y-106314525D01*
X102079789Y-106309357D01*
X102079792Y-106309355D01*
X102084300Y-106306198D01*
X102246198Y-106144300D01*
X102286602Y-106086598D01*
X102374366Y-105961257D01*
X102377523Y-105956749D01*
X102379846Y-105951767D01*
X102379849Y-105951762D01*
X102471961Y-105754225D01*
X102471961Y-105754224D01*
X102474284Y-105749243D01*
X102495990Y-105668238D01*
X102532119Y-105533402D01*
X102532119Y-105533400D01*
X102533543Y-105528087D01*
X102553498Y-105300000D01*
X102533543Y-105071913D01*
X102527939Y-105050999D01*
X102475707Y-104856067D01*
X102475706Y-104856065D01*
X102474284Y-104850757D01*
X102461423Y-104823177D01*
X102379849Y-104648238D01*
X102379846Y-104648233D01*
X102377523Y-104643251D01*
X102246198Y-104455700D01*
X102084300Y-104293802D01*
X102079792Y-104290645D01*
X102079789Y-104290643D01*
X101968592Y-104212782D01*
X101896749Y-104162477D01*
X101891767Y-104160154D01*
X101891762Y-104160151D01*
X101856951Y-104143919D01*
X101803666Y-104097002D01*
X101784205Y-104028725D01*
X101804747Y-103960765D01*
X101856951Y-103915529D01*
X101891511Y-103899414D01*
X101901007Y-103893931D01*
X102079467Y-103768972D01*
X102087875Y-103761916D01*
X102241916Y-103607875D01*
X102248972Y-103599467D01*
X102373931Y-103421007D01*
X102379414Y-103411511D01*
X102471490Y-103214053D01*
X102475236Y-103203761D01*
X102521394Y-103031497D01*
X102521058Y-103017401D01*
X102513116Y-103014000D01*
X99972033Y-103014000D01*
X99958502Y-103017973D01*
X99957273Y-103026522D01*
X100004764Y-103203761D01*
X100008510Y-103214053D01*
X100100586Y-103411511D01*
X100106069Y-103421007D01*
X100231028Y-103599467D01*
X100238084Y-103607875D01*
X100392125Y-103761916D01*
X100400533Y-103768972D01*
X100578993Y-103893931D01*
X100588489Y-103899414D01*
X100623049Y-103915529D01*
X100676334Y-103962446D01*
X100695795Y-104030723D01*
X100675253Y-104098683D01*
X100623049Y-104143919D01*
X100588238Y-104160151D01*
X100588233Y-104160154D01*
X100583251Y-104162477D01*
X100511408Y-104212782D01*
X100400211Y-104290643D01*
X100400208Y-104290645D01*
X100395700Y-104293802D01*
X100233802Y-104455700D01*
X100102477Y-104643251D01*
X100100154Y-104648233D01*
X100100151Y-104648238D01*
X100018577Y-104823177D01*
X100005716Y-104850757D01*
X100004294Y-104856065D01*
X100004293Y-104856067D01*
X99952061Y-105050999D01*
X99946457Y-105071913D01*
X99926502Y-105300000D01*
X99946457Y-105528087D01*
X99947881Y-105533400D01*
X99947881Y-105533402D01*
X99984011Y-105668238D01*
X100005716Y-105749243D01*
X100008039Y-105754224D01*
X100008039Y-105754225D01*
X100100151Y-105951762D01*
X100100154Y-105951767D01*
X100102477Y-105956749D01*
X100105634Y-105961257D01*
X100193399Y-106086598D01*
X100233802Y-106144300D01*
X100395700Y-106306198D01*
X100400208Y-106309355D01*
X100400211Y-106309357D01*
X100407592Y-106314525D01*
X100583251Y-106437523D01*
X100588233Y-106439846D01*
X100588238Y-106439849D01*
X100622457Y-106455805D01*
X100675742Y-106502722D01*
X100695203Y-106570999D01*
X100674661Y-106638959D01*
X100622457Y-106684195D01*
X100588238Y-106700151D01*
X100588233Y-106700154D01*
X100583251Y-106702477D01*
X100495483Y-106763933D01*
X100400211Y-106830643D01*
X100400208Y-106830645D01*
X100395700Y-106833802D01*
X100233802Y-106995700D01*
X100102477Y-107183251D01*
X100100154Y-107188233D01*
X100100151Y-107188238D01*
X100037637Y-107322301D01*
X100005716Y-107390757D01*
X100004294Y-107396065D01*
X100004293Y-107396067D01*
X99952061Y-107590999D01*
X99946457Y-107611913D01*
X99926502Y-107840000D01*
X99946457Y-108068087D01*
X99947881Y-108073400D01*
X99947881Y-108073402D01*
X99984011Y-108208238D01*
X100005716Y-108289243D01*
X100008039Y-108294224D01*
X100008039Y-108294225D01*
X100100151Y-108491762D01*
X100100154Y-108491767D01*
X100102477Y-108496749D01*
X100105634Y-108501257D01*
X100193399Y-108626598D01*
X100233802Y-108684300D01*
X100395700Y-108846198D01*
X100400208Y-108849355D01*
X100400211Y-108849357D01*
X100407592Y-108854525D01*
X100583251Y-108977523D01*
X100588233Y-108979846D01*
X100588238Y-108979849D01*
X100622457Y-108995805D01*
X100675742Y-109042722D01*
X100695203Y-109110999D01*
X100674661Y-109178959D01*
X100622457Y-109224195D01*
X100588238Y-109240151D01*
X100588233Y-109240154D01*
X100583251Y-109242477D01*
X100495483Y-109303933D01*
X100400211Y-109370643D01*
X100400208Y-109370645D01*
X100395700Y-109373802D01*
X100233802Y-109535700D01*
X100230645Y-109540208D01*
X100230643Y-109540211D01*
X100175902Y-109618389D01*
X100102477Y-109723251D01*
X100100154Y-109728233D01*
X100100151Y-109728238D01*
X100037637Y-109862301D01*
X100005716Y-109930757D01*
X100004294Y-109936065D01*
X100004293Y-109936067D01*
X99973282Y-110051800D01*
X99946457Y-110151913D01*
X99926502Y-110380000D01*
X99946457Y-110608087D01*
X99947881Y-110613400D01*
X99947881Y-110613402D01*
X99975800Y-110717594D01*
X100005716Y-110829243D01*
X100008039Y-110834224D01*
X100008039Y-110834225D01*
X100100151Y-111031762D01*
X100100154Y-111031767D01*
X100102477Y-111036749D01*
X100105634Y-111041257D01*
X100176998Y-111143175D01*
X100233802Y-111224300D01*
X100395700Y-111386198D01*
X100400208Y-111389355D01*
X100400211Y-111389357D01*
X100478389Y-111444098D01*
X100583251Y-111517523D01*
X100588233Y-111519846D01*
X100588238Y-111519849D01*
X100622457Y-111535805D01*
X100675742Y-111582722D01*
X100695203Y-111650999D01*
X100674661Y-111718959D01*
X100622457Y-111764195D01*
X100588238Y-111780151D01*
X100588233Y-111780154D01*
X100583251Y-111782477D01*
X100478389Y-111855902D01*
X100400211Y-111910643D01*
X100400208Y-111910645D01*
X100395700Y-111913802D01*
X100233802Y-112075700D01*
X100102477Y-112263251D01*
X100100154Y-112268233D01*
X100100151Y-112268238D01*
X100087672Y-112295000D01*
X100005716Y-112470757D01*
X99946457Y-112691913D01*
X99926502Y-112920000D01*
X97008500Y-112920000D01*
X97008500Y-100220000D01*
X99926502Y-100220000D01*
X99946457Y-100448087D01*
X99947881Y-100453400D01*
X99947881Y-100453402D01*
X99984011Y-100588238D01*
X100005716Y-100669243D01*
X100008039Y-100674224D01*
X100008039Y-100674225D01*
X100100151Y-100871762D01*
X100100154Y-100871767D01*
X100102477Y-100876749D01*
X100105634Y-100881257D01*
X100193399Y-101006598D01*
X100233802Y-101064300D01*
X100395700Y-101226198D01*
X100400208Y-101229355D01*
X100400211Y-101229357D01*
X100407592Y-101234525D01*
X100583251Y-101357523D01*
X100588233Y-101359846D01*
X100588238Y-101359849D01*
X100623049Y-101376081D01*
X100676334Y-101422998D01*
X100695795Y-101491275D01*
X100675253Y-101559235D01*
X100623049Y-101604471D01*
X100588489Y-101620586D01*
X100578993Y-101626069D01*
X100400533Y-101751028D01*
X100392125Y-101758084D01*
X100238084Y-101912125D01*
X100231028Y-101920533D01*
X100106069Y-102098993D01*
X100100586Y-102108489D01*
X100008510Y-102305947D01*
X100004764Y-102316239D01*
X99958606Y-102488503D01*
X99958942Y-102502599D01*
X99966884Y-102506000D01*
X102507967Y-102506000D01*
X102521498Y-102502027D01*
X102522727Y-102493478D01*
X102475236Y-102316239D01*
X102471490Y-102305947D01*
X102379414Y-102108489D01*
X102373931Y-102098993D01*
X102248972Y-101920533D01*
X102241916Y-101912125D01*
X102087875Y-101758084D01*
X102079467Y-101751028D01*
X101901007Y-101626069D01*
X101891511Y-101620586D01*
X101856951Y-101604471D01*
X101803666Y-101557554D01*
X101784205Y-101489277D01*
X101804747Y-101421317D01*
X101856951Y-101376081D01*
X101891762Y-101359849D01*
X101891767Y-101359846D01*
X101896749Y-101357523D01*
X102072408Y-101234525D01*
X102079789Y-101229357D01*
X102079792Y-101229355D01*
X102084300Y-101226198D01*
X102246198Y-101064300D01*
X102286602Y-101006598D01*
X102374366Y-100881257D01*
X102377523Y-100876749D01*
X102379846Y-100871767D01*
X102379849Y-100871762D01*
X102471961Y-100674225D01*
X102471961Y-100674224D01*
X102474284Y-100669243D01*
X102495990Y-100588238D01*
X102532119Y-100453402D01*
X102532119Y-100453400D01*
X102533543Y-100448087D01*
X102553498Y-100220000D01*
X102533543Y-99991913D01*
X102527939Y-99970999D01*
X102475707Y-99776067D01*
X102475706Y-99776065D01*
X102474284Y-99770757D01*
X102442363Y-99702301D01*
X102379849Y-99568238D01*
X102379846Y-99568233D01*
X102377523Y-99563251D01*
X102246198Y-99375700D01*
X102084300Y-99213802D01*
X102079792Y-99210645D01*
X102079789Y-99210643D01*
X101984517Y-99143933D01*
X101896749Y-99082477D01*
X101891767Y-99080154D01*
X101891762Y-99080151D01*
X101857543Y-99064195D01*
X101804258Y-99017278D01*
X101784797Y-98949001D01*
X101805339Y-98881041D01*
X101857543Y-98835805D01*
X101891762Y-98819849D01*
X101891767Y-98819846D01*
X101896749Y-98817523D01*
X102072408Y-98694525D01*
X102079789Y-98689357D01*
X102079792Y-98689355D01*
X102084300Y-98686198D01*
X102246198Y-98524300D01*
X102286602Y-98466598D01*
X102374366Y-98341257D01*
X102377523Y-98336749D01*
X102379846Y-98331767D01*
X102379849Y-98331762D01*
X102471961Y-98134225D01*
X102471961Y-98134224D01*
X102474284Y-98129243D01*
X102495990Y-98048238D01*
X102532119Y-97913402D01*
X102532119Y-97913400D01*
X102533543Y-97908087D01*
X102553498Y-97680000D01*
X102533543Y-97451913D01*
X102532119Y-97446598D01*
X102475707Y-97236067D01*
X102475706Y-97236065D01*
X102474284Y-97230757D01*
X102462464Y-97205408D01*
X102379849Y-97028238D01*
X102379846Y-97028233D01*
X102377523Y-97023251D01*
X102246198Y-96835700D01*
X102084300Y-96673802D01*
X102079789Y-96670643D01*
X102075576Y-96667108D01*
X102076527Y-96665974D01*
X102036529Y-96615929D01*
X102029224Y-96545310D01*
X102061258Y-96481951D01*
X102122462Y-96445970D01*
X102139517Y-96442918D01*
X102150316Y-96441745D01*
X102286705Y-96390615D01*
X102403261Y-96303261D01*
X102490615Y-96186705D01*
X102541745Y-96050316D01*
X102548500Y-95988134D01*
X102548500Y-95223134D01*
X107091500Y-95223134D01*
X107098255Y-95285316D01*
X107149385Y-95421705D01*
X107236739Y-95538261D01*
X107353295Y-95625615D01*
X107489684Y-95676745D01*
X107551866Y-95683500D01*
X109448134Y-95683500D01*
X109510316Y-95676745D01*
X109646705Y-95625615D01*
X109763261Y-95538261D01*
X109850615Y-95421705D01*
X109901745Y-95285316D01*
X109908500Y-95223134D01*
X109908500Y-93326866D01*
X109901745Y-93264684D01*
X109850615Y-93128295D01*
X109763261Y-93011739D01*
X109646705Y-92924385D01*
X109510316Y-92873255D01*
X109448134Y-92866500D01*
X109324480Y-92866500D01*
X109256359Y-92846498D01*
X109235384Y-92829595D01*
X108512811Y-92107021D01*
X108498868Y-92099408D01*
X108497034Y-92099539D01*
X108490420Y-92103790D01*
X107764616Y-92829595D01*
X107702303Y-92863620D01*
X107675520Y-92866500D01*
X107551866Y-92866500D01*
X107489684Y-92873255D01*
X107353295Y-92924385D01*
X107236739Y-93011739D01*
X107149385Y-93128295D01*
X107098255Y-93264684D01*
X107091500Y-93326866D01*
X107091500Y-95223134D01*
X102548500Y-95223134D01*
X102548500Y-94291866D01*
X102541745Y-94229684D01*
X102490615Y-94093295D01*
X102403261Y-93976739D01*
X102286705Y-93889385D01*
X102150316Y-93838255D01*
X102088134Y-93831500D01*
X100391866Y-93831500D01*
X100329684Y-93838255D01*
X100193295Y-93889385D01*
X100076739Y-93976739D01*
X99989385Y-94093295D01*
X99938255Y-94229684D01*
X99931500Y-94291866D01*
X99931500Y-95988134D01*
X99938255Y-96050316D01*
X99989385Y-96186705D01*
X100076739Y-96303261D01*
X100193295Y-96390615D01*
X100329684Y-96441745D01*
X100340474Y-96442917D01*
X100342606Y-96443803D01*
X100345222Y-96444425D01*
X100345121Y-96444848D01*
X100406035Y-96470155D01*
X100446463Y-96528517D01*
X100448922Y-96599471D01*
X100412629Y-96660490D01*
X100403969Y-96667489D01*
X100400207Y-96670646D01*
X100395700Y-96673802D01*
X100233802Y-96835700D01*
X100102477Y-97023251D01*
X100100154Y-97028233D01*
X100100151Y-97028238D01*
X100017536Y-97205408D01*
X100005716Y-97230757D01*
X100004294Y-97236065D01*
X100004293Y-97236067D01*
X99947881Y-97446598D01*
X99946457Y-97451913D01*
X99926502Y-97680000D01*
X99946457Y-97908087D01*
X99947881Y-97913400D01*
X99947881Y-97913402D01*
X99984011Y-98048238D01*
X100005716Y-98129243D01*
X100008039Y-98134224D01*
X100008039Y-98134225D01*
X100100151Y-98331762D01*
X100100154Y-98331767D01*
X100102477Y-98336749D01*
X100105634Y-98341257D01*
X100193399Y-98466598D01*
X100233802Y-98524300D01*
X100395700Y-98686198D01*
X100400208Y-98689355D01*
X100400211Y-98689357D01*
X100407592Y-98694525D01*
X100583251Y-98817523D01*
X100588233Y-98819846D01*
X100588238Y-98819849D01*
X100622457Y-98835805D01*
X100675742Y-98882722D01*
X100695203Y-98950999D01*
X100674661Y-99018959D01*
X100622457Y-99064195D01*
X100588238Y-99080151D01*
X100588233Y-99080154D01*
X100583251Y-99082477D01*
X100495483Y-99143933D01*
X100400211Y-99210643D01*
X100400208Y-99210645D01*
X100395700Y-99213802D01*
X100233802Y-99375700D01*
X100102477Y-99563251D01*
X100100154Y-99568233D01*
X100100151Y-99568238D01*
X100037637Y-99702301D01*
X100005716Y-99770757D01*
X100004294Y-99776065D01*
X100004293Y-99776067D01*
X99952061Y-99970999D01*
X99946457Y-99991913D01*
X99926502Y-100220000D01*
X97008500Y-100220000D01*
X97008500Y-91705638D01*
X107087893Y-91705638D01*
X107100627Y-91926468D01*
X107102061Y-91936670D01*
X107150685Y-92152439D01*
X107153773Y-92162292D01*
X107236986Y-92367220D01*
X107241634Y-92376421D01*
X107330097Y-92520781D01*
X107340553Y-92530242D01*
X107349331Y-92526458D01*
X108127979Y-91747811D01*
X108134356Y-91736132D01*
X108864408Y-91736132D01*
X108864539Y-91737966D01*
X108868790Y-91744580D01*
X109646307Y-92522096D01*
X109658313Y-92528652D01*
X109670052Y-92519684D01*
X109708010Y-92466859D01*
X109713321Y-92458020D01*
X109811318Y-92259737D01*
X109815117Y-92250142D01*
X109879415Y-92038517D01*
X109881594Y-92028436D01*
X109910702Y-91807338D01*
X109911221Y-91800663D01*
X109912744Y-91738364D01*
X109912550Y-91731646D01*
X109894279Y-91509400D01*
X109892596Y-91499238D01*
X109838710Y-91284708D01*
X109835389Y-91274953D01*
X109747193Y-91072118D01*
X109742315Y-91063020D01*
X109669224Y-90950038D01*
X109658538Y-90940835D01*
X109648973Y-90945238D01*
X108872021Y-91722189D01*
X108864408Y-91736132D01*
X108134356Y-91736132D01*
X108135592Y-91733868D01*
X108135461Y-91732034D01*
X108131210Y-91725420D01*
X107353862Y-90948073D01*
X107342330Y-90941776D01*
X107330048Y-90951399D01*
X107274467Y-91032877D01*
X107269379Y-91041833D01*
X107176252Y-91242459D01*
X107172689Y-91252146D01*
X107113581Y-91465280D01*
X107111650Y-91475400D01*
X107088145Y-91695349D01*
X107087893Y-91705638D01*
X97008500Y-91705638D01*
X97008500Y-90575711D01*
X107705508Y-90575711D01*
X107712251Y-90588040D01*
X108487189Y-91362979D01*
X108501132Y-91370592D01*
X108502966Y-91370461D01*
X108509580Y-91366210D01*
X109288994Y-90586795D01*
X109296011Y-90573944D01*
X109288237Y-90563274D01*
X109285902Y-90561430D01*
X109277320Y-90555729D01*
X109083678Y-90448833D01*
X109074272Y-90444606D01*
X108865772Y-90370772D01*
X108855809Y-90368140D01*
X108638047Y-90329350D01*
X108627796Y-90328381D01*
X108406616Y-90325679D01*
X108396332Y-90326399D01*
X108177693Y-90359855D01*
X108167666Y-90362244D01*
X107957426Y-90430961D01*
X107947916Y-90434958D01*
X107751725Y-90537089D01*
X107743007Y-90542578D01*
X107713961Y-90564386D01*
X107705508Y-90575711D01*
X97008500Y-90575711D01*
X97008500Y-87269669D01*
X112297001Y-87269669D01*
X112297371Y-87276490D01*
X112302895Y-87327352D01*
X112306521Y-87342604D01*
X112351676Y-87463054D01*
X112360214Y-87478649D01*
X112436715Y-87580724D01*
X112449276Y-87593285D01*
X112551351Y-87669786D01*
X112566946Y-87678324D01*
X112687394Y-87723478D01*
X112702649Y-87727105D01*
X112753514Y-87732631D01*
X112760328Y-87733000D01*
X113382885Y-87733000D01*
X113398124Y-87728525D01*
X113399329Y-87727135D01*
X113401000Y-87719452D01*
X113401000Y-86647115D01*
X113396525Y-86631876D01*
X113395135Y-86630671D01*
X113387452Y-86629000D01*
X112315116Y-86629000D01*
X112299877Y-86633475D01*
X112298672Y-86634865D01*
X112297001Y-86642548D01*
X112297001Y-87269669D01*
X97008500Y-87269669D01*
X97008500Y-86553250D01*
X97010246Y-86532345D01*
X97012770Y-86517344D01*
X97012770Y-86517341D01*
X97013576Y-86512552D01*
X97013729Y-86500000D01*
X97011464Y-86484183D01*
X97010326Y-86460508D01*
X97025258Y-86137529D01*
X97026332Y-86125940D01*
X97029548Y-86102885D01*
X112297000Y-86102885D01*
X112301475Y-86118124D01*
X112302865Y-86119329D01*
X112310548Y-86121000D01*
X113382885Y-86121000D01*
X113398124Y-86116525D01*
X113399329Y-86115135D01*
X113401000Y-86107452D01*
X113401000Y-85035116D01*
X113396525Y-85019877D01*
X113395135Y-85018672D01*
X113387452Y-85017001D01*
X112760331Y-85017001D01*
X112753510Y-85017371D01*
X112702648Y-85022895D01*
X112687396Y-85026521D01*
X112566946Y-85071676D01*
X112551351Y-85080214D01*
X112449276Y-85156715D01*
X112436715Y-85169276D01*
X112360214Y-85271351D01*
X112351676Y-85286946D01*
X112306522Y-85407394D01*
X112302895Y-85422649D01*
X112297369Y-85473514D01*
X112297000Y-85480328D01*
X112297000Y-86102885D01*
X97029548Y-86102885D01*
X97075659Y-85772328D01*
X97077798Y-85760888D01*
X97085888Y-85726492D01*
X97159541Y-85413335D01*
X97162724Y-85402150D01*
X97164235Y-85397644D01*
X97250876Y-85139142D01*
X97276186Y-85063628D01*
X97280390Y-85052776D01*
X97424605Y-84726160D01*
X97429785Y-84715755D01*
X97603530Y-84403823D01*
X97609646Y-84393946D01*
X97811422Y-84099390D01*
X97818436Y-84090102D01*
X98046530Y-83815419D01*
X98054371Y-83806819D01*
X98306819Y-83554371D01*
X98315419Y-83546530D01*
X98590102Y-83318436D01*
X98599390Y-83311422D01*
X98865443Y-83129171D01*
X98893947Y-83109645D01*
X98903823Y-83103530D01*
X99215755Y-82929785D01*
X99226160Y-82924605D01*
X99552776Y-82780390D01*
X99563628Y-82776186D01*
X99732889Y-82719455D01*
X99902159Y-82662721D01*
X99913335Y-82659541D01*
X100260888Y-82577798D01*
X100272328Y-82575659D01*
X100625940Y-82526332D01*
X100637529Y-82525258D01*
X100956785Y-82510498D01*
X100981989Y-82511864D01*
X100984850Y-82512310D01*
X100984856Y-82512310D01*
X100993724Y-82513691D01*
X101002626Y-82512527D01*
X101002628Y-82512527D01*
X101020757Y-82510156D01*
X101025286Y-82509564D01*
X101041621Y-82508500D01*
X148950633Y-82508500D01*
X148970018Y-82510000D01*
G37*
%TD.AperFunction*%
%TD*%
%TA.AperFunction,Conductor*%
%TO.N,/Simon un peu plus dur/SW0*%
G36*
X115440805Y-97220002D02*
G01*
X115475897Y-97253729D01*
X115488721Y-97272043D01*
X115493802Y-97279300D01*
X115655700Y-97441198D01*
X115660208Y-97444355D01*
X115660211Y-97444357D01*
X115737617Y-97498557D01*
X115843251Y-97572523D01*
X115848233Y-97574846D01*
X115848238Y-97574849D01*
X115882457Y-97590805D01*
X115935742Y-97637722D01*
X115955203Y-97705999D01*
X115934661Y-97773959D01*
X115882457Y-97819195D01*
X115848238Y-97835151D01*
X115848233Y-97835154D01*
X115843251Y-97837477D01*
X115738389Y-97910902D01*
X115660211Y-97965643D01*
X115660208Y-97965645D01*
X115655700Y-97968802D01*
X115493802Y-98130700D01*
X115490645Y-98135208D01*
X115490643Y-98135211D01*
X115455497Y-98185405D01*
X115362477Y-98318251D01*
X115360154Y-98323233D01*
X115360151Y-98323238D01*
X115269303Y-98518065D01*
X115265716Y-98525757D01*
X115264294Y-98531065D01*
X115264293Y-98531067D01*
X115219051Y-98699912D01*
X115206457Y-98746913D01*
X115186502Y-98975000D01*
X115206457Y-99203087D01*
X115207881Y-99208400D01*
X115207881Y-99208402D01*
X115254949Y-99384059D01*
X115265716Y-99424243D01*
X115268039Y-99429224D01*
X115268039Y-99429225D01*
X115360151Y-99626762D01*
X115360154Y-99626767D01*
X115362477Y-99631749D01*
X115401189Y-99687035D01*
X115482545Y-99803223D01*
X115493802Y-99819300D01*
X115655700Y-99981198D01*
X115660208Y-99984355D01*
X115660211Y-99984357D01*
X115706472Y-100016749D01*
X115843251Y-100112523D01*
X115848233Y-100114846D01*
X115848238Y-100114849D01*
X116021128Y-100195468D01*
X116050757Y-100209284D01*
X116056065Y-100210706D01*
X116056067Y-100210707D01*
X116266598Y-100267119D01*
X116266600Y-100267119D01*
X116271913Y-100268543D01*
X116500000Y-100288498D01*
X116728087Y-100268543D01*
X116733400Y-100267119D01*
X116733402Y-100267119D01*
X116943933Y-100210707D01*
X116943935Y-100210706D01*
X116949243Y-100209284D01*
X116978872Y-100195468D01*
X117151762Y-100114849D01*
X117151767Y-100114846D01*
X117156749Y-100112523D01*
X117293528Y-100016749D01*
X117339789Y-99984357D01*
X117339792Y-99984355D01*
X117344300Y-99981198D01*
X117506198Y-99819300D01*
X117517456Y-99803223D01*
X117598811Y-99687035D01*
X117637523Y-99631749D01*
X117639846Y-99626767D01*
X117639849Y-99626762D01*
X117726937Y-99440000D01*
X118606502Y-99440000D01*
X118626457Y-99668087D01*
X118627881Y-99673400D01*
X118627881Y-99673402D01*
X118644409Y-99735083D01*
X118685716Y-99889243D01*
X118688039Y-99894224D01*
X118688039Y-99894225D01*
X118780151Y-100091762D01*
X118780154Y-100091767D01*
X118782477Y-100096749D01*
X118825729Y-100158519D01*
X118902769Y-100268543D01*
X118913802Y-100284300D01*
X119075700Y-100446198D01*
X119080208Y-100449355D01*
X119080211Y-100449357D01*
X119144634Y-100494466D01*
X119263251Y-100577523D01*
X119268233Y-100579846D01*
X119268238Y-100579849D01*
X119379117Y-100631552D01*
X119470757Y-100674284D01*
X119476065Y-100675706D01*
X119476067Y-100675707D01*
X119686598Y-100732119D01*
X119686600Y-100732119D01*
X119691913Y-100733543D01*
X119920000Y-100753498D01*
X120148087Y-100733543D01*
X120153400Y-100732119D01*
X120153402Y-100732119D01*
X120363933Y-100675707D01*
X120363935Y-100675706D01*
X120369243Y-100674284D01*
X120460883Y-100631552D01*
X120571762Y-100579849D01*
X120571767Y-100579846D01*
X120576749Y-100577523D01*
X120603014Y-100559132D01*
X122495698Y-100559132D01*
X122500607Y-100565690D01*
X122589118Y-100615157D01*
X122600357Y-100620067D01*
X122776641Y-100677345D01*
X122788615Y-100679978D01*
X122972676Y-100701926D01*
X122984925Y-100702183D01*
X123169742Y-100687962D01*
X123181822Y-100685831D01*
X123360345Y-100635986D01*
X123371778Y-100631552D01*
X123495507Y-100569052D01*
X123505791Y-100559407D01*
X123503553Y-100552763D01*
X123012812Y-100062022D01*
X122998868Y-100054408D01*
X122997035Y-100054539D01*
X122990420Y-100058790D01*
X122502458Y-100546752D01*
X122495698Y-100559132D01*
X120603014Y-100559132D01*
X120695366Y-100494466D01*
X120759789Y-100449357D01*
X120759792Y-100449355D01*
X120764300Y-100446198D01*
X120926198Y-100284300D01*
X120937232Y-100268543D01*
X121014271Y-100158519D01*
X121057523Y-100096749D01*
X121059846Y-100091767D01*
X121059849Y-100091762D01*
X121151961Y-99894225D01*
X121151961Y-99894224D01*
X121154284Y-99889243D01*
X121195592Y-99735083D01*
X121209815Y-99682002D01*
X121987738Y-99682002D01*
X122003248Y-99866705D01*
X122005461Y-99878764D01*
X122056554Y-100056945D01*
X122061066Y-100068342D01*
X122121148Y-100185250D01*
X122130865Y-100195468D01*
X122137666Y-100193124D01*
X122627978Y-99702812D01*
X122635592Y-99688868D01*
X122635461Y-99687035D01*
X122631210Y-99680420D01*
X122143121Y-99192331D01*
X122130741Y-99185571D01*
X122124353Y-99190353D01*
X122071997Y-99285586D01*
X122067166Y-99296858D01*
X122011120Y-99473538D01*
X122008570Y-99485532D01*
X121987909Y-99669733D01*
X121987738Y-99682002D01*
X121209815Y-99682002D01*
X121212119Y-99673402D01*
X121212119Y-99673400D01*
X121213543Y-99668087D01*
X121233498Y-99440000D01*
X121213543Y-99211913D01*
X121212069Y-99206413D01*
X121155707Y-98996067D01*
X121155706Y-98996065D01*
X121154284Y-98990757D01*
X121151961Y-98985775D01*
X121059849Y-98788238D01*
X121059846Y-98788233D01*
X121057523Y-98783251D01*
X120949418Y-98628861D01*
X120929357Y-98600211D01*
X120929355Y-98600208D01*
X120926198Y-98595700D01*
X120764300Y-98433802D01*
X120759792Y-98430645D01*
X120759789Y-98430643D01*
X120681611Y-98375902D01*
X120576749Y-98302477D01*
X120571767Y-98300154D01*
X120571762Y-98300151D01*
X120374225Y-98208039D01*
X120374224Y-98208039D01*
X120369243Y-98205716D01*
X120363935Y-98204294D01*
X120363933Y-98204293D01*
X120153402Y-98147881D01*
X120153400Y-98147881D01*
X120148087Y-98146457D01*
X119920000Y-98126502D01*
X119691913Y-98146457D01*
X119686600Y-98147881D01*
X119686598Y-98147881D01*
X119476067Y-98204293D01*
X119476065Y-98204294D01*
X119470757Y-98205716D01*
X119465776Y-98208039D01*
X119465775Y-98208039D01*
X119268238Y-98300151D01*
X119268233Y-98300154D01*
X119263251Y-98302477D01*
X119158389Y-98375902D01*
X119080211Y-98430643D01*
X119080208Y-98430645D01*
X119075700Y-98433802D01*
X118913802Y-98595700D01*
X118910645Y-98600208D01*
X118910643Y-98600211D01*
X118890582Y-98628861D01*
X118782477Y-98783251D01*
X118780154Y-98788233D01*
X118780151Y-98788238D01*
X118688039Y-98985775D01*
X118685716Y-98990757D01*
X118684294Y-98996065D01*
X118684293Y-98996067D01*
X118627931Y-99206413D01*
X118626457Y-99211913D01*
X118606502Y-99440000D01*
X117726937Y-99440000D01*
X117731961Y-99429225D01*
X117731961Y-99429224D01*
X117734284Y-99424243D01*
X117745052Y-99384059D01*
X117792119Y-99208402D01*
X117792119Y-99208400D01*
X117793543Y-99203087D01*
X117813498Y-98975000D01*
X117793543Y-98746913D01*
X117780949Y-98699912D01*
X117735707Y-98531067D01*
X117735706Y-98531065D01*
X117734284Y-98525757D01*
X117730697Y-98518065D01*
X117639849Y-98323238D01*
X117639846Y-98323233D01*
X117637523Y-98318251D01*
X117544503Y-98185405D01*
X117509357Y-98135211D01*
X117509355Y-98135208D01*
X117506198Y-98130700D01*
X117344300Y-97968802D01*
X117339792Y-97965645D01*
X117339789Y-97965643D01*
X117261611Y-97910902D01*
X117156749Y-97837477D01*
X117151767Y-97835154D01*
X117151762Y-97835151D01*
X117117543Y-97819195D01*
X117064258Y-97772278D01*
X117044797Y-97704001D01*
X117065339Y-97636041D01*
X117117543Y-97590805D01*
X117151762Y-97574849D01*
X117151767Y-97574846D01*
X117156749Y-97572523D01*
X117229982Y-97521245D01*
X117297255Y-97498557D01*
X117366115Y-97515842D01*
X117384763Y-97529232D01*
X117480261Y-97611982D01*
X117613210Y-97672698D01*
X117636964Y-97679673D01*
X117677008Y-97691431D01*
X117677012Y-97691432D01*
X117681331Y-97692700D01*
X117685780Y-97693340D01*
X117685786Y-97693341D01*
X117821553Y-97712861D01*
X117821558Y-97712861D01*
X117826000Y-97713500D01*
X118985312Y-97713500D01*
X119003638Y-97713173D01*
X119004108Y-97713156D01*
X119004155Y-97713155D01*
X119008656Y-97712994D01*
X119012627Y-97712852D01*
X119013126Y-97712825D01*
X119013132Y-97712825D01*
X119025882Y-97712142D01*
X119025885Y-97712142D01*
X119030936Y-97711871D01*
X119109265Y-97694831D01*
X119169346Y-97681761D01*
X119169350Y-97681760D01*
X119173753Y-97680802D01*
X119177972Y-97679228D01*
X119177980Y-97679226D01*
X119206638Y-97668536D01*
X119240273Y-97655991D01*
X119368550Y-97585946D01*
X119471899Y-97482598D01*
X119486861Y-97462612D01*
X119511745Y-97429370D01*
X119514446Y-97425762D01*
X119520270Y-97415096D01*
X119562731Y-97337336D01*
X119612933Y-97287134D01*
X119682307Y-97272043D01*
X119689744Y-97272962D01*
X119691913Y-97273543D01*
X119697386Y-97274022D01*
X119697387Y-97274022D01*
X119914525Y-97293019D01*
X119920000Y-97293498D01*
X119925475Y-97293019D01*
X120148087Y-97273543D01*
X120148229Y-97275164D01*
X120211377Y-97282201D01*
X120266485Y-97326963D01*
X120272223Y-97337086D01*
X120272978Y-97339657D01*
X120351996Y-97462612D01*
X120398489Y-97516268D01*
X120401882Y-97519208D01*
X120502138Y-97606081D01*
X120502141Y-97606083D01*
X120508949Y-97611982D01*
X120641898Y-97672698D01*
X120665652Y-97679673D01*
X120705696Y-97691431D01*
X120705700Y-97691432D01*
X120710019Y-97692700D01*
X120714468Y-97693340D01*
X120714474Y-97693341D01*
X120850241Y-97712861D01*
X120850246Y-97712861D01*
X120854688Y-97713500D01*
X122240500Y-97713500D01*
X122308621Y-97733502D01*
X122355114Y-97787158D01*
X122366500Y-97839500D01*
X122366500Y-98421233D01*
X122365973Y-98432416D01*
X122364298Y-98439909D01*
X122364547Y-98447835D01*
X122364547Y-98447836D01*
X122366438Y-98507986D01*
X122366500Y-98511945D01*
X122366500Y-98539856D01*
X122366997Y-98543790D01*
X122366997Y-98543791D01*
X122367005Y-98543856D01*
X122367938Y-98555693D01*
X122369327Y-98599889D01*
X122374978Y-98619339D01*
X122378987Y-98638700D01*
X122381526Y-98658797D01*
X122384445Y-98666168D01*
X122384445Y-98666170D01*
X122397804Y-98699912D01*
X122401649Y-98711142D01*
X122413982Y-98753593D01*
X122418015Y-98760412D01*
X122418017Y-98760417D01*
X122424293Y-98771028D01*
X122432988Y-98788776D01*
X122440448Y-98807617D01*
X122445110Y-98814033D01*
X122445110Y-98814034D01*
X122466436Y-98843387D01*
X122472952Y-98853307D01*
X122495458Y-98891362D01*
X122509779Y-98905683D01*
X122522619Y-98920716D01*
X122534528Y-98937107D01*
X122540634Y-98942158D01*
X122568605Y-98965298D01*
X122577384Y-98973288D01*
X122746343Y-99142247D01*
X122753887Y-99150537D01*
X122758000Y-99157018D01*
X122763777Y-99162443D01*
X122807667Y-99203658D01*
X122810509Y-99206413D01*
X122830230Y-99226134D01*
X122833425Y-99228612D01*
X122842447Y-99236318D01*
X122874679Y-99266586D01*
X122881628Y-99270406D01*
X122892432Y-99276346D01*
X122908956Y-99287199D01*
X122924959Y-99299613D01*
X122947926Y-99309552D01*
X122965530Y-99317170D01*
X122976182Y-99322389D01*
X122994703Y-99332570D01*
X123023102Y-99353892D01*
X123856661Y-100187451D01*
X123869041Y-100194211D01*
X123875775Y-100189170D01*
X123922262Y-100107337D01*
X123927256Y-100096121D01*
X123985759Y-99920253D01*
X123988479Y-99908281D01*
X124012039Y-99721784D01*
X124012531Y-99714757D01*
X124012828Y-99693523D01*
X124012533Y-99686496D01*
X123996384Y-99521796D01*
X124009643Y-99452048D01*
X124058506Y-99400541D01*
X124121783Y-99383500D01*
X124171233Y-99383500D01*
X124182416Y-99384027D01*
X124189909Y-99385702D01*
X124197835Y-99385453D01*
X124197836Y-99385453D01*
X124257986Y-99383562D01*
X124261945Y-99383500D01*
X124289856Y-99383500D01*
X124293791Y-99383003D01*
X124293856Y-99382995D01*
X124305693Y-99382062D01*
X124337951Y-99381048D01*
X124341970Y-99380922D01*
X124349889Y-99380673D01*
X124369343Y-99375021D01*
X124388700Y-99371013D01*
X124400930Y-99369468D01*
X124400931Y-99369468D01*
X124408797Y-99368474D01*
X124416168Y-99365555D01*
X124416170Y-99365555D01*
X124449912Y-99352196D01*
X124461142Y-99348351D01*
X124495976Y-99338231D01*
X124495977Y-99338231D01*
X124503593Y-99336018D01*
X124510421Y-99331980D01*
X124510460Y-99331963D01*
X124580922Y-99323267D01*
X124644900Y-99354046D01*
X124682082Y-99414528D01*
X124686500Y-99447601D01*
X124686500Y-115574000D01*
X124666498Y-115642121D01*
X124612842Y-115688614D01*
X124560500Y-115700000D01*
X111126000Y-115700000D01*
X111057879Y-115679998D01*
X111011386Y-115626342D01*
X111000000Y-115574000D01*
X111000000Y-112348134D01*
X120441500Y-112348134D01*
X120448255Y-112410316D01*
X120499385Y-112546705D01*
X120586739Y-112663261D01*
X120703295Y-112750615D01*
X120839684Y-112801745D01*
X120901866Y-112808500D01*
X122598134Y-112808500D01*
X122660316Y-112801745D01*
X122796705Y-112750615D01*
X122913261Y-112663261D01*
X123000615Y-112546705D01*
X123051745Y-112410316D01*
X123058500Y-112348134D01*
X123058500Y-110651866D01*
X123051745Y-110589684D01*
X123000615Y-110453295D01*
X122913261Y-110336739D01*
X122796705Y-110249385D01*
X122660316Y-110198255D01*
X122598134Y-110191500D01*
X120901866Y-110191500D01*
X120839684Y-110198255D01*
X120703295Y-110249385D01*
X120586739Y-110336739D01*
X120499385Y-110453295D01*
X120448255Y-110589684D01*
X120441500Y-110651866D01*
X120441500Y-112348134D01*
X111000000Y-112348134D01*
X111000000Y-111482670D01*
X112382160Y-111482670D01*
X112387887Y-111490320D01*
X112559042Y-111595205D01*
X112567837Y-111599687D01*
X112777988Y-111686734D01*
X112787373Y-111689783D01*
X113008554Y-111742885D01*
X113018301Y-111744428D01*
X113245070Y-111762275D01*
X113254930Y-111762275D01*
X113481699Y-111744428D01*
X113491446Y-111742885D01*
X113712627Y-111689783D01*
X113722012Y-111686734D01*
X113932163Y-111599687D01*
X113940958Y-111595205D01*
X114108445Y-111492568D01*
X114117907Y-111482110D01*
X114114124Y-111473334D01*
X113262812Y-110622022D01*
X113248868Y-110614408D01*
X113247035Y-110614539D01*
X113240420Y-110618790D01*
X112388920Y-111470290D01*
X112382160Y-111482670D01*
X111000000Y-111482670D01*
X111000000Y-110254930D01*
X111737725Y-110254930D01*
X111755572Y-110481699D01*
X111757115Y-110491446D01*
X111810217Y-110712627D01*
X111813266Y-110722012D01*
X111900313Y-110932163D01*
X111904795Y-110940958D01*
X112007432Y-111108445D01*
X112017890Y-111117907D01*
X112026666Y-111114124D01*
X112877978Y-110262812D01*
X112884356Y-110251132D01*
X113614408Y-110251132D01*
X113614539Y-110252965D01*
X113618790Y-110259580D01*
X114470290Y-111111080D01*
X114482670Y-111117840D01*
X114490320Y-111112113D01*
X114595205Y-110940958D01*
X114599687Y-110932163D01*
X114686734Y-110722012D01*
X114689783Y-110712627D01*
X114742885Y-110491446D01*
X114744428Y-110481699D01*
X114762275Y-110254930D01*
X114762275Y-110245070D01*
X114744428Y-110018301D01*
X114742885Y-110008554D01*
X114689783Y-109787373D01*
X114686734Y-109777988D01*
X114599687Y-109567837D01*
X114595205Y-109559042D01*
X114492568Y-109391555D01*
X114482110Y-109382093D01*
X114473334Y-109385876D01*
X113622022Y-110237188D01*
X113614408Y-110251132D01*
X112884356Y-110251132D01*
X112885592Y-110248868D01*
X112885461Y-110247035D01*
X112881210Y-110240420D01*
X112029710Y-109388920D01*
X112017330Y-109382160D01*
X112009680Y-109387887D01*
X111904795Y-109559042D01*
X111900313Y-109567837D01*
X111813266Y-109777988D01*
X111810217Y-109787373D01*
X111757115Y-110008554D01*
X111755572Y-110018301D01*
X111737725Y-110245070D01*
X111737725Y-110254930D01*
X111000000Y-110254930D01*
X111000000Y-109017890D01*
X112382093Y-109017890D01*
X112385876Y-109026666D01*
X113237188Y-109877978D01*
X113251132Y-109885592D01*
X113252965Y-109885461D01*
X113259580Y-109881210D01*
X114111080Y-109029710D01*
X114117840Y-109017330D01*
X114112113Y-109009680D01*
X113940958Y-108904795D01*
X113932163Y-108900313D01*
X113722012Y-108813266D01*
X113712627Y-108810217D01*
X113491446Y-108757115D01*
X113481699Y-108755572D01*
X113254930Y-108737725D01*
X113245070Y-108737725D01*
X113018301Y-108755572D01*
X113008554Y-108757115D01*
X112787373Y-108810217D01*
X112777988Y-108813266D01*
X112567837Y-108900313D01*
X112559042Y-108904795D01*
X112391555Y-109007432D01*
X112382093Y-109017890D01*
X111000000Y-109017890D01*
X111000000Y-104982670D01*
X112382160Y-104982670D01*
X112387887Y-104990320D01*
X112559042Y-105095205D01*
X112567837Y-105099687D01*
X112777988Y-105186734D01*
X112787373Y-105189783D01*
X113008554Y-105242885D01*
X113018301Y-105244428D01*
X113245070Y-105262275D01*
X113254930Y-105262275D01*
X113481699Y-105244428D01*
X113491446Y-105242885D01*
X113712627Y-105189783D01*
X113722012Y-105186734D01*
X113932163Y-105099687D01*
X113940958Y-105095205D01*
X114108445Y-104992568D01*
X114117907Y-104982110D01*
X114114124Y-104973334D01*
X113262812Y-104122022D01*
X113248868Y-104114408D01*
X113247035Y-104114539D01*
X113240420Y-104118790D01*
X112388920Y-104970290D01*
X112382160Y-104982670D01*
X111000000Y-104982670D01*
X111000000Y-103754930D01*
X111737725Y-103754930D01*
X111755572Y-103981699D01*
X111757115Y-103991446D01*
X111810217Y-104212627D01*
X111813266Y-104222012D01*
X111900313Y-104432163D01*
X111904795Y-104440958D01*
X112007432Y-104608445D01*
X112017890Y-104617907D01*
X112026666Y-104614124D01*
X112877978Y-103762812D01*
X112884356Y-103751132D01*
X113614408Y-103751132D01*
X113614539Y-103752965D01*
X113618790Y-103759580D01*
X114470290Y-104611080D01*
X114482670Y-104617840D01*
X114490320Y-104612113D01*
X114595205Y-104440958D01*
X114599687Y-104432163D01*
X114686734Y-104222012D01*
X114689783Y-104212627D01*
X114742885Y-103991446D01*
X114744428Y-103981699D01*
X114762275Y-103754930D01*
X114762275Y-103745070D01*
X114744428Y-103518301D01*
X114742885Y-103508554D01*
X114689783Y-103287373D01*
X114686734Y-103277988D01*
X114599687Y-103067837D01*
X114595205Y-103059042D01*
X114492568Y-102891555D01*
X114482110Y-102882093D01*
X114473334Y-102885876D01*
X113622022Y-103737188D01*
X113614408Y-103751132D01*
X112884356Y-103751132D01*
X112885592Y-103748868D01*
X112885461Y-103747035D01*
X112881210Y-103740420D01*
X112029710Y-102888920D01*
X112017330Y-102882160D01*
X112009680Y-102887887D01*
X111904795Y-103059042D01*
X111900313Y-103067837D01*
X111813266Y-103277988D01*
X111810217Y-103287373D01*
X111757115Y-103508554D01*
X111755572Y-103518301D01*
X111737725Y-103745070D01*
X111737725Y-103754930D01*
X111000000Y-103754930D01*
X111000000Y-102517890D01*
X112382093Y-102517890D01*
X112385876Y-102526666D01*
X113237188Y-103377978D01*
X113251132Y-103385592D01*
X113252965Y-103385461D01*
X113259580Y-103381210D01*
X114111080Y-102529710D01*
X114117840Y-102517330D01*
X114112113Y-102509680D01*
X113940958Y-102404795D01*
X113932163Y-102400313D01*
X113722012Y-102313266D01*
X113712627Y-102310217D01*
X113491446Y-102257115D01*
X113481699Y-102255572D01*
X113254930Y-102237725D01*
X113245070Y-102237725D01*
X113018301Y-102255572D01*
X113008554Y-102257115D01*
X112787373Y-102310217D01*
X112777988Y-102313266D01*
X112567837Y-102400313D01*
X112559042Y-102404795D01*
X112391555Y-102507432D01*
X112382093Y-102517890D01*
X111000000Y-102517890D01*
X111000000Y-97326000D01*
X111020002Y-97257879D01*
X111073658Y-97211386D01*
X111126000Y-97200000D01*
X115372684Y-97200000D01*
X115440805Y-97220002D01*
G37*
%TD.AperFunction*%
%TD*%
%TA.AperFunction,Conductor*%
%TO.N,Net-(F2-Pad2)*%
G36*
X129742121Y-83620002D02*
G01*
X129788614Y-83673658D01*
X129800000Y-83726000D01*
X129800000Y-85109850D01*
X129779998Y-85177971D01*
X129726342Y-85224464D01*
X129656068Y-85234568D01*
X129613106Y-85220158D01*
X129458117Y-85134599D01*
X129448705Y-85130369D01*
X129247959Y-85059280D01*
X129237988Y-85056646D01*
X129166837Y-85043972D01*
X129153540Y-85045432D01*
X129149000Y-85059989D01*
X129149000Y-87711632D01*
X129143930Y-87711632D01*
X129143792Y-87747707D01*
X129112957Y-87800005D01*
X125835267Y-91139540D01*
X124500000Y-92500000D01*
X124500000Y-94260270D01*
X124479998Y-94328391D01*
X124467636Y-94344580D01*
X124360960Y-94463056D01*
X124265473Y-94628444D01*
X124206458Y-94810072D01*
X124205768Y-94816633D01*
X124205768Y-94816635D01*
X124189249Y-94973802D01*
X124186496Y-95000000D01*
X124187186Y-95006565D01*
X124196154Y-95091890D01*
X124183382Y-95161729D01*
X124159939Y-95194156D01*
X124096299Y-95257796D01*
X124033987Y-95291822D01*
X123963172Y-95286757D01*
X123906336Y-95244210D01*
X123895953Y-95227855D01*
X123878563Y-95195150D01*
X123868702Y-95185067D01*
X123861575Y-95187635D01*
X123213240Y-95835970D01*
X123149807Y-95868292D01*
X123150108Y-95869328D01*
X123132744Y-95874372D01*
X123130658Y-95874978D01*
X123111306Y-95878986D01*
X123099068Y-95880532D01*
X123099066Y-95880533D01*
X123091203Y-95881526D01*
X123050086Y-95897806D01*
X123038885Y-95901641D01*
X122996406Y-95913982D01*
X122989587Y-95918015D01*
X122989582Y-95918017D01*
X122978971Y-95924293D01*
X122961221Y-95932990D01*
X122942383Y-95940448D01*
X122935967Y-95945109D01*
X122935966Y-95945110D01*
X122906625Y-95966428D01*
X122896701Y-95972947D01*
X122865460Y-95991422D01*
X122865455Y-95991426D01*
X122858637Y-95995458D01*
X122844313Y-96009782D01*
X122829281Y-96022621D01*
X122812893Y-96034528D01*
X122794348Y-96056945D01*
X122784712Y-96068593D01*
X122776722Y-96077373D01*
X122607747Y-96246348D01*
X122599461Y-96253888D01*
X122592982Y-96258000D01*
X122587557Y-96263777D01*
X122546357Y-96307651D01*
X122543602Y-96310493D01*
X122523865Y-96330230D01*
X122521385Y-96333427D01*
X122513682Y-96342447D01*
X122483414Y-96374679D01*
X122479595Y-96381625D01*
X122479593Y-96381628D01*
X122473652Y-96392434D01*
X122462801Y-96408953D01*
X122450386Y-96424959D01*
X122447241Y-96432228D01*
X122447238Y-96432232D01*
X122432826Y-96465537D01*
X122427609Y-96476187D01*
X122406305Y-96514940D01*
X122404334Y-96522615D01*
X122404334Y-96522616D01*
X122401267Y-96534562D01*
X122394863Y-96553266D01*
X122386819Y-96571855D01*
X122385580Y-96579678D01*
X122385577Y-96579688D01*
X122379901Y-96615524D01*
X122377495Y-96627144D01*
X122375029Y-96636749D01*
X122366500Y-96669970D01*
X122366500Y-96690224D01*
X122364949Y-96709934D01*
X122361780Y-96729943D01*
X122362526Y-96737835D01*
X122365941Y-96773961D01*
X122366500Y-96785819D01*
X122366500Y-97074000D01*
X122346498Y-97142121D01*
X122292842Y-97188614D01*
X122240500Y-97200000D01*
X120854688Y-97200000D01*
X120786567Y-97179998D01*
X120740074Y-97126342D01*
X120729970Y-97056068D01*
X120759464Y-96991488D01*
X120765593Y-96984905D01*
X120926198Y-96824300D01*
X120936148Y-96810091D01*
X121013068Y-96700237D01*
X121057523Y-96636749D01*
X121059846Y-96631767D01*
X121059849Y-96631762D01*
X121151961Y-96434225D01*
X121151961Y-96434224D01*
X121154284Y-96429243D01*
X121161821Y-96401117D01*
X121212119Y-96213402D01*
X121212119Y-96213400D01*
X121213543Y-96208087D01*
X121233498Y-95980000D01*
X121213543Y-95751913D01*
X121212119Y-95746598D01*
X121194810Y-95682002D01*
X121987738Y-95682002D01*
X122003248Y-95866705D01*
X122005461Y-95878764D01*
X122056554Y-96056945D01*
X122061066Y-96068342D01*
X122121148Y-96185250D01*
X122130865Y-96195468D01*
X122137666Y-96193124D01*
X122627978Y-95702812D01*
X122635592Y-95688868D01*
X122635461Y-95687035D01*
X122631210Y-95680420D01*
X122143121Y-95192331D01*
X122130741Y-95185571D01*
X122124353Y-95190353D01*
X122071997Y-95285586D01*
X122067166Y-95296858D01*
X122011120Y-95473538D01*
X122008570Y-95485532D01*
X121987909Y-95669733D01*
X121987738Y-95682002D01*
X121194810Y-95682002D01*
X121155707Y-95536067D01*
X121155706Y-95536065D01*
X121154284Y-95530757D01*
X121151961Y-95525775D01*
X121059849Y-95328238D01*
X121059846Y-95328233D01*
X121057523Y-95323251D01*
X120971723Y-95200716D01*
X120929357Y-95140211D01*
X120929355Y-95140208D01*
X120926198Y-95135700D01*
X120764300Y-94973802D01*
X120759792Y-94970645D01*
X120759789Y-94970643D01*
X120681611Y-94915902D01*
X120576749Y-94842477D01*
X120571767Y-94840154D01*
X120571762Y-94840151D01*
X120530909Y-94821101D01*
X122494820Y-94821101D01*
X122497274Y-94828064D01*
X122987188Y-95317978D01*
X123001132Y-95325592D01*
X123002965Y-95325461D01*
X123009580Y-95321210D01*
X123497834Y-94832956D01*
X123504594Y-94820576D01*
X123499935Y-94814353D01*
X123397924Y-94759196D01*
X123386619Y-94754444D01*
X123209554Y-94699633D01*
X123197541Y-94697167D01*
X123013199Y-94677792D01*
X123000931Y-94677707D01*
X122816345Y-94694505D01*
X122804296Y-94696803D01*
X122626483Y-94749137D01*
X122615108Y-94753732D01*
X122504969Y-94811312D01*
X122494820Y-94821101D01*
X120530909Y-94821101D01*
X120374225Y-94748039D01*
X120374224Y-94748039D01*
X120369243Y-94745716D01*
X120363935Y-94744294D01*
X120363933Y-94744293D01*
X120153402Y-94687881D01*
X120153400Y-94687881D01*
X120148087Y-94686457D01*
X119920000Y-94666502D01*
X119691913Y-94686457D01*
X119686600Y-94687881D01*
X119686598Y-94687881D01*
X119476067Y-94744293D01*
X119476065Y-94744294D01*
X119470757Y-94745716D01*
X119465776Y-94748039D01*
X119465775Y-94748039D01*
X119268238Y-94840151D01*
X119268233Y-94840154D01*
X119263251Y-94842477D01*
X119158389Y-94915902D01*
X119080211Y-94970643D01*
X119080208Y-94970645D01*
X119075700Y-94973802D01*
X118913802Y-95135700D01*
X118910645Y-95140208D01*
X118910643Y-95140211D01*
X118868277Y-95200716D01*
X118782477Y-95323251D01*
X118780154Y-95328233D01*
X118780151Y-95328238D01*
X118688039Y-95525775D01*
X118685716Y-95530757D01*
X118684294Y-95536065D01*
X118684293Y-95536067D01*
X118627881Y-95746598D01*
X118626457Y-95751913D01*
X118606502Y-95980000D01*
X118626457Y-96208087D01*
X118627881Y-96213400D01*
X118627881Y-96213402D01*
X118678180Y-96401117D01*
X118685716Y-96429243D01*
X118688039Y-96434224D01*
X118688039Y-96434225D01*
X118780151Y-96631762D01*
X118780154Y-96631767D01*
X118782477Y-96636749D01*
X118826932Y-96700237D01*
X118903853Y-96810091D01*
X118913802Y-96824300D01*
X119074407Y-96984905D01*
X119108433Y-97047217D01*
X119103368Y-97118032D01*
X119060821Y-97174868D01*
X118994301Y-97199679D01*
X118985312Y-97200000D01*
X117826000Y-97200000D01*
X117757879Y-97179998D01*
X117711386Y-97126342D01*
X117700000Y-97074000D01*
X117700000Y-96985699D01*
X117711805Y-96932450D01*
X117731958Y-96889232D01*
X117731959Y-96889228D01*
X117734284Y-96884243D01*
X117793543Y-96663087D01*
X117813498Y-96435000D01*
X117793543Y-96206913D01*
X117787739Y-96185250D01*
X117746104Y-96029870D01*
X117734284Y-95985757D01*
X117731600Y-95980000D01*
X117711805Y-95937550D01*
X117700000Y-95884301D01*
X117700000Y-87549854D01*
X117720002Y-87481733D01*
X117773658Y-87435240D01*
X117843932Y-87425136D01*
X117906485Y-87452910D01*
X117941203Y-87481733D01*
X117953126Y-87491632D01*
X118146000Y-87604338D01*
X118354692Y-87684030D01*
X118359760Y-87685061D01*
X118359763Y-87685062D01*
X118454862Y-87704410D01*
X118573597Y-87728567D01*
X118578772Y-87728757D01*
X118578774Y-87728757D01*
X118791673Y-87736564D01*
X118791677Y-87736564D01*
X118796837Y-87736753D01*
X118801957Y-87736097D01*
X118801959Y-87736097D01*
X119013288Y-87709025D01*
X119013289Y-87709025D01*
X119018416Y-87708368D01*
X119031609Y-87704410D01*
X119227429Y-87645661D01*
X119227434Y-87645659D01*
X119232384Y-87644174D01*
X119432994Y-87545896D01*
X119614860Y-87416173D01*
X119773096Y-87258489D01*
X119903453Y-87077077D01*
X119904776Y-87078028D01*
X119951645Y-87034857D01*
X120021580Y-87022625D01*
X120087026Y-87050144D01*
X120114875Y-87081994D01*
X120174987Y-87180088D01*
X120321250Y-87348938D01*
X120493126Y-87491632D01*
X120686000Y-87604338D01*
X120894692Y-87684030D01*
X120899760Y-87685061D01*
X120899763Y-87685062D01*
X120994862Y-87704410D01*
X121113597Y-87728567D01*
X121118772Y-87728757D01*
X121118774Y-87728757D01*
X121331673Y-87736564D01*
X121331677Y-87736564D01*
X121336837Y-87736753D01*
X121341957Y-87736097D01*
X121341959Y-87736097D01*
X121553288Y-87709025D01*
X121553289Y-87709025D01*
X121558416Y-87708368D01*
X121571609Y-87704410D01*
X121767429Y-87645661D01*
X121767434Y-87645659D01*
X121772384Y-87644174D01*
X121972994Y-87545896D01*
X122154860Y-87416173D01*
X122313096Y-87258489D01*
X122443453Y-87077077D01*
X122444776Y-87078028D01*
X122491645Y-87034857D01*
X122561580Y-87022625D01*
X122627026Y-87050144D01*
X122654875Y-87081994D01*
X122714987Y-87180088D01*
X122861250Y-87348938D01*
X123033126Y-87491632D01*
X123226000Y-87604338D01*
X123434692Y-87684030D01*
X123439760Y-87685061D01*
X123439763Y-87685062D01*
X123534862Y-87704410D01*
X123653597Y-87728567D01*
X123658772Y-87728757D01*
X123658774Y-87728757D01*
X123871673Y-87736564D01*
X123871677Y-87736564D01*
X123876837Y-87736753D01*
X123881957Y-87736097D01*
X123881959Y-87736097D01*
X124093288Y-87709025D01*
X124093289Y-87709025D01*
X124098416Y-87708368D01*
X124111609Y-87704410D01*
X124307429Y-87645661D01*
X124307434Y-87645659D01*
X124312384Y-87644174D01*
X124512994Y-87545896D01*
X124694860Y-87416173D01*
X124853096Y-87258489D01*
X124983453Y-87077077D01*
X124984776Y-87078028D01*
X125031645Y-87034857D01*
X125101580Y-87022625D01*
X125167026Y-87050144D01*
X125194875Y-87081994D01*
X125254987Y-87180088D01*
X125401250Y-87348938D01*
X125573126Y-87491632D01*
X125766000Y-87604338D01*
X125974692Y-87684030D01*
X125979760Y-87685061D01*
X125979763Y-87685062D01*
X126074862Y-87704410D01*
X126193597Y-87728567D01*
X126198772Y-87728757D01*
X126198774Y-87728757D01*
X126411673Y-87736564D01*
X126411677Y-87736564D01*
X126416837Y-87736753D01*
X126421957Y-87736097D01*
X126421959Y-87736097D01*
X126633288Y-87709025D01*
X126633289Y-87709025D01*
X126638416Y-87708368D01*
X126651609Y-87704410D01*
X126847429Y-87645661D01*
X126847434Y-87645659D01*
X126852384Y-87644174D01*
X127052994Y-87545896D01*
X127234860Y-87416173D01*
X127393096Y-87258489D01*
X127523453Y-87077077D01*
X127524640Y-87077930D01*
X127571960Y-87034362D01*
X127641897Y-87022145D01*
X127707338Y-87049678D01*
X127735166Y-87081511D01*
X127792694Y-87175388D01*
X127798777Y-87183699D01*
X127938213Y-87344667D01*
X127945580Y-87351883D01*
X128109434Y-87487916D01*
X128117881Y-87493831D01*
X128301756Y-87601279D01*
X128311042Y-87605729D01*
X128510001Y-87681703D01*
X128519899Y-87684579D01*
X128623250Y-87705606D01*
X128637299Y-87704410D01*
X128641000Y-87694065D01*
X128641000Y-85058102D01*
X128637082Y-85044758D01*
X128622806Y-85042771D01*
X128584324Y-85048660D01*
X128574288Y-85051051D01*
X128371868Y-85117212D01*
X128362359Y-85121209D01*
X128173463Y-85219542D01*
X128164738Y-85225036D01*
X127994433Y-85352905D01*
X127986726Y-85359748D01*
X127839590Y-85513717D01*
X127833109Y-85521722D01*
X127728498Y-85675074D01*
X127673587Y-85720076D01*
X127603062Y-85728247D01*
X127539315Y-85696993D01*
X127518618Y-85672509D01*
X127437822Y-85547617D01*
X127437820Y-85547614D01*
X127435014Y-85543277D01*
X127284670Y-85378051D01*
X127280619Y-85374852D01*
X127280615Y-85374848D01*
X127113414Y-85242800D01*
X127113410Y-85242798D01*
X127109359Y-85239598D01*
X127073028Y-85219542D01*
X126997721Y-85177971D01*
X126913789Y-85131638D01*
X126908920Y-85129914D01*
X126908916Y-85129912D01*
X126708087Y-85058795D01*
X126708083Y-85058794D01*
X126703212Y-85057069D01*
X126698119Y-85056162D01*
X126698116Y-85056161D01*
X126488373Y-85018800D01*
X126488367Y-85018799D01*
X126483284Y-85017894D01*
X126409452Y-85016992D01*
X126265081Y-85015228D01*
X126265079Y-85015228D01*
X126259911Y-85015165D01*
X126039091Y-85048955D01*
X125826756Y-85118357D01*
X125628607Y-85221507D01*
X125624474Y-85224610D01*
X125624471Y-85224612D01*
X125454100Y-85352530D01*
X125449965Y-85355635D01*
X125295629Y-85517138D01*
X125188201Y-85674621D01*
X125133293Y-85719621D01*
X125062768Y-85727792D01*
X124999021Y-85696538D01*
X124978324Y-85672054D01*
X124897822Y-85547617D01*
X124897820Y-85547614D01*
X124895014Y-85543277D01*
X124744670Y-85378051D01*
X124740619Y-85374852D01*
X124740615Y-85374848D01*
X124573414Y-85242800D01*
X124573410Y-85242798D01*
X124569359Y-85239598D01*
X124533028Y-85219542D01*
X124457721Y-85177971D01*
X124373789Y-85131638D01*
X124368920Y-85129914D01*
X124368916Y-85129912D01*
X124168087Y-85058795D01*
X124168083Y-85058794D01*
X124163212Y-85057069D01*
X124158119Y-85056162D01*
X124158116Y-85056161D01*
X123948373Y-85018800D01*
X123948367Y-85018799D01*
X123943284Y-85017894D01*
X123869452Y-85016992D01*
X123725081Y-85015228D01*
X123725079Y-85015228D01*
X123719911Y-85015165D01*
X123499091Y-85048955D01*
X123286756Y-85118357D01*
X123088607Y-85221507D01*
X123084474Y-85224610D01*
X123084471Y-85224612D01*
X122914100Y-85352530D01*
X122909965Y-85355635D01*
X122755629Y-85517138D01*
X122648201Y-85674621D01*
X122593293Y-85719621D01*
X122522768Y-85727792D01*
X122459021Y-85696538D01*
X122438324Y-85672054D01*
X122357822Y-85547617D01*
X122357820Y-85547614D01*
X122355014Y-85543277D01*
X122204670Y-85378051D01*
X122200619Y-85374852D01*
X122200615Y-85374848D01*
X122033414Y-85242800D01*
X122033410Y-85242798D01*
X122029359Y-85239598D01*
X121993028Y-85219542D01*
X121917721Y-85177971D01*
X121833789Y-85131638D01*
X121828920Y-85129914D01*
X121828916Y-85129912D01*
X121628087Y-85058795D01*
X121628083Y-85058794D01*
X121623212Y-85057069D01*
X121618119Y-85056162D01*
X121618116Y-85056161D01*
X121408373Y-85018800D01*
X121408367Y-85018799D01*
X121403284Y-85017894D01*
X121329452Y-85016992D01*
X121185081Y-85015228D01*
X121185079Y-85015228D01*
X121179911Y-85015165D01*
X120959091Y-85048955D01*
X120746756Y-85118357D01*
X120548607Y-85221507D01*
X120544474Y-85224610D01*
X120544471Y-85224612D01*
X120374100Y-85352530D01*
X120369965Y-85355635D01*
X120215629Y-85517138D01*
X120108201Y-85674621D01*
X120053293Y-85719621D01*
X119982768Y-85727792D01*
X119919021Y-85696538D01*
X119898324Y-85672054D01*
X119817822Y-85547617D01*
X119817820Y-85547614D01*
X119815014Y-85543277D01*
X119664670Y-85378051D01*
X119660619Y-85374852D01*
X119660615Y-85374848D01*
X119493414Y-85242800D01*
X119493410Y-85242798D01*
X119489359Y-85239598D01*
X119453028Y-85219542D01*
X119377721Y-85177971D01*
X119293789Y-85131638D01*
X119288920Y-85129914D01*
X119288916Y-85129912D01*
X119088087Y-85058795D01*
X119088083Y-85058794D01*
X119083212Y-85057069D01*
X119078119Y-85056162D01*
X119078116Y-85056161D01*
X118868373Y-85018800D01*
X118868367Y-85018799D01*
X118863284Y-85017894D01*
X118789452Y-85016992D01*
X118645081Y-85015228D01*
X118645079Y-85015228D01*
X118639911Y-85015165D01*
X118419091Y-85048955D01*
X118206756Y-85118357D01*
X118008607Y-85221507D01*
X118004474Y-85224610D01*
X118004471Y-85224612D01*
X117901653Y-85301810D01*
X117835168Y-85326716D01*
X117765772Y-85311724D01*
X117715499Y-85261593D01*
X117700000Y-85201050D01*
X117700000Y-83726000D01*
X117720002Y-83657879D01*
X117773658Y-83611386D01*
X117826000Y-83600000D01*
X129674000Y-83600000D01*
X129742121Y-83620002D01*
G37*
%TD.AperFunction*%
%TD*%
%TA.AperFunction,Conductor*%
%TO.N,/Simon un peu plus dur/SW1*%
G36*
X130929709Y-97701282D02*
G01*
X131010241Y-97712861D01*
X131010246Y-97712861D01*
X131014688Y-97713500D01*
X136674000Y-97713500D01*
X136677346Y-97713140D01*
X136677351Y-97713140D01*
X136779794Y-97702127D01*
X136779800Y-97702126D01*
X136783149Y-97701766D01*
X136784338Y-97701507D01*
X136803059Y-97700000D01*
X138574000Y-97700000D01*
X138642121Y-97720002D01*
X138688614Y-97773658D01*
X138700000Y-97826000D01*
X138700000Y-115574000D01*
X138679998Y-115642121D01*
X138626342Y-115688614D01*
X138574000Y-115700000D01*
X125326000Y-115700000D01*
X125257879Y-115679998D01*
X125211386Y-115626342D01*
X125200000Y-115574000D01*
X125200000Y-111500000D01*
X126936502Y-111500000D01*
X126956457Y-111728087D01*
X126957881Y-111733400D01*
X126957881Y-111733402D01*
X126960836Y-111744428D01*
X127015716Y-111949243D01*
X127018039Y-111954224D01*
X127018039Y-111954225D01*
X127110151Y-112151762D01*
X127110154Y-112151767D01*
X127112477Y-112156749D01*
X127243802Y-112344300D01*
X127405700Y-112506198D01*
X127410208Y-112509355D01*
X127410211Y-112509357D01*
X127488389Y-112564098D01*
X127593251Y-112637523D01*
X127598233Y-112639846D01*
X127598238Y-112639849D01*
X127795775Y-112731961D01*
X127800757Y-112734284D01*
X127806065Y-112735706D01*
X127806067Y-112735707D01*
X128016598Y-112792119D01*
X128016600Y-112792119D01*
X128021913Y-112793543D01*
X128250000Y-112813498D01*
X128478087Y-112793543D01*
X128483400Y-112792119D01*
X128483402Y-112792119D01*
X128693933Y-112735707D01*
X128693935Y-112735706D01*
X128699243Y-112734284D01*
X128704225Y-112731961D01*
X128901762Y-112639849D01*
X128901767Y-112639846D01*
X128906749Y-112637523D01*
X129011611Y-112564098D01*
X129089789Y-112509357D01*
X129089792Y-112509355D01*
X129094300Y-112506198D01*
X129256198Y-112344300D01*
X129387523Y-112156749D01*
X129389846Y-112151767D01*
X129389849Y-112151762D01*
X129481961Y-111954225D01*
X129481961Y-111954224D01*
X129484284Y-111949243D01*
X129539165Y-111744428D01*
X129542119Y-111733402D01*
X129542119Y-111733400D01*
X129543543Y-111728087D01*
X129563498Y-111500000D01*
X129561982Y-111482670D01*
X135882160Y-111482670D01*
X135887887Y-111490320D01*
X136059042Y-111595205D01*
X136067837Y-111599687D01*
X136277988Y-111686734D01*
X136287373Y-111689783D01*
X136508554Y-111742885D01*
X136518301Y-111744428D01*
X136745070Y-111762275D01*
X136754930Y-111762275D01*
X136981699Y-111744428D01*
X136991446Y-111742885D01*
X137212627Y-111689783D01*
X137222012Y-111686734D01*
X137432163Y-111599687D01*
X137440958Y-111595205D01*
X137608445Y-111492568D01*
X137617907Y-111482110D01*
X137614124Y-111473334D01*
X136762812Y-110622022D01*
X136748868Y-110614408D01*
X136747035Y-110614539D01*
X136740420Y-110618790D01*
X135888920Y-111470290D01*
X135882160Y-111482670D01*
X129561982Y-111482670D01*
X129543543Y-111271913D01*
X129501263Y-111114124D01*
X129485707Y-111056067D01*
X129485706Y-111056065D01*
X129484284Y-111050757D01*
X129481961Y-111045775D01*
X129389849Y-110848238D01*
X129389846Y-110848233D01*
X129387523Y-110843251D01*
X129256198Y-110655700D01*
X129094300Y-110493802D01*
X129089792Y-110490645D01*
X129089789Y-110490643D01*
X129011611Y-110435902D01*
X128906749Y-110362477D01*
X128901767Y-110360154D01*
X128901762Y-110360151D01*
X128704225Y-110268039D01*
X128704224Y-110268039D01*
X128699243Y-110265716D01*
X128693935Y-110264294D01*
X128693933Y-110264293D01*
X128658990Y-110254930D01*
X135237725Y-110254930D01*
X135255572Y-110481699D01*
X135257115Y-110491446D01*
X135310217Y-110712627D01*
X135313266Y-110722012D01*
X135400313Y-110932163D01*
X135404795Y-110940958D01*
X135507432Y-111108445D01*
X135517890Y-111117907D01*
X135526666Y-111114124D01*
X136377978Y-110262812D01*
X136384356Y-110251132D01*
X137114408Y-110251132D01*
X137114539Y-110252965D01*
X137118790Y-110259580D01*
X137970290Y-111111080D01*
X137982670Y-111117840D01*
X137990320Y-111112113D01*
X138095205Y-110940958D01*
X138099687Y-110932163D01*
X138186734Y-110722012D01*
X138189783Y-110712627D01*
X138242885Y-110491446D01*
X138244428Y-110481699D01*
X138262275Y-110254930D01*
X138262275Y-110245070D01*
X138244428Y-110018301D01*
X138242885Y-110008554D01*
X138189783Y-109787373D01*
X138186734Y-109777988D01*
X138099687Y-109567837D01*
X138095205Y-109559042D01*
X137992568Y-109391555D01*
X137982110Y-109382093D01*
X137973334Y-109385876D01*
X137122022Y-110237188D01*
X137114408Y-110251132D01*
X136384356Y-110251132D01*
X136385592Y-110248868D01*
X136385461Y-110247035D01*
X136381210Y-110240420D01*
X135529710Y-109388920D01*
X135517330Y-109382160D01*
X135509680Y-109387887D01*
X135404795Y-109559042D01*
X135400313Y-109567837D01*
X135313266Y-109777988D01*
X135310217Y-109787373D01*
X135257115Y-110008554D01*
X135255572Y-110018301D01*
X135237725Y-110245070D01*
X135237725Y-110254930D01*
X128658990Y-110254930D01*
X128483402Y-110207881D01*
X128483400Y-110207881D01*
X128478087Y-110206457D01*
X128250000Y-110186502D01*
X128021913Y-110206457D01*
X128016600Y-110207881D01*
X128016598Y-110207881D01*
X127806067Y-110264293D01*
X127806065Y-110264294D01*
X127800757Y-110265716D01*
X127795776Y-110268039D01*
X127795775Y-110268039D01*
X127598238Y-110360151D01*
X127598233Y-110360154D01*
X127593251Y-110362477D01*
X127488389Y-110435902D01*
X127410211Y-110490643D01*
X127410208Y-110490645D01*
X127405700Y-110493802D01*
X127243802Y-110655700D01*
X127112477Y-110843251D01*
X127110154Y-110848233D01*
X127110151Y-110848238D01*
X127018039Y-111045775D01*
X127015716Y-111050757D01*
X127014294Y-111056065D01*
X127014293Y-111056067D01*
X126998737Y-111114124D01*
X126956457Y-111271913D01*
X126936502Y-111500000D01*
X125200000Y-111500000D01*
X125200000Y-109017890D01*
X135882093Y-109017890D01*
X135885876Y-109026666D01*
X136737188Y-109877978D01*
X136751132Y-109885592D01*
X136752965Y-109885461D01*
X136759580Y-109881210D01*
X137611080Y-109029710D01*
X137617840Y-109017330D01*
X137612113Y-109009680D01*
X137440958Y-108904795D01*
X137432163Y-108900313D01*
X137222012Y-108813266D01*
X137212627Y-108810217D01*
X136991446Y-108757115D01*
X136981699Y-108755572D01*
X136754930Y-108737725D01*
X136745070Y-108737725D01*
X136518301Y-108755572D01*
X136508554Y-108757115D01*
X136287373Y-108810217D01*
X136277988Y-108813266D01*
X136067837Y-108900313D01*
X136059042Y-108904795D01*
X135891555Y-109007432D01*
X135882093Y-109017890D01*
X125200000Y-109017890D01*
X125200000Y-104982670D01*
X135882160Y-104982670D01*
X135887887Y-104990320D01*
X136059042Y-105095205D01*
X136067837Y-105099687D01*
X136277988Y-105186734D01*
X136287373Y-105189783D01*
X136508554Y-105242885D01*
X136518301Y-105244428D01*
X136745070Y-105262275D01*
X136754930Y-105262275D01*
X136981699Y-105244428D01*
X136991446Y-105242885D01*
X137212627Y-105189783D01*
X137222012Y-105186734D01*
X137432163Y-105099687D01*
X137440958Y-105095205D01*
X137608445Y-104992568D01*
X137617907Y-104982110D01*
X137614124Y-104973334D01*
X136762812Y-104122022D01*
X136748868Y-104114408D01*
X136747035Y-104114539D01*
X136740420Y-104118790D01*
X135888920Y-104970290D01*
X135882160Y-104982670D01*
X125200000Y-104982670D01*
X125200000Y-103754930D01*
X135237725Y-103754930D01*
X135255572Y-103981699D01*
X135257115Y-103991446D01*
X135310217Y-104212627D01*
X135313266Y-104222012D01*
X135400313Y-104432163D01*
X135404795Y-104440958D01*
X135507432Y-104608445D01*
X135517890Y-104617907D01*
X135526666Y-104614124D01*
X136377978Y-103762812D01*
X136384356Y-103751132D01*
X137114408Y-103751132D01*
X137114539Y-103752965D01*
X137118790Y-103759580D01*
X137970290Y-104611080D01*
X137982670Y-104617840D01*
X137990320Y-104612113D01*
X138095205Y-104440958D01*
X138099687Y-104432163D01*
X138186734Y-104222012D01*
X138189783Y-104212627D01*
X138242885Y-103991446D01*
X138244428Y-103981699D01*
X138262275Y-103754930D01*
X138262275Y-103745070D01*
X138244428Y-103518301D01*
X138242885Y-103508554D01*
X138189783Y-103287373D01*
X138186734Y-103277988D01*
X138099687Y-103067837D01*
X138095205Y-103059042D01*
X137992568Y-102891555D01*
X137982110Y-102882093D01*
X137973334Y-102885876D01*
X137122022Y-103737188D01*
X137114408Y-103751132D01*
X136384356Y-103751132D01*
X136385592Y-103748868D01*
X136385461Y-103747035D01*
X136381210Y-103740420D01*
X135529710Y-102888920D01*
X135517330Y-102882160D01*
X135509680Y-102887887D01*
X135404795Y-103059042D01*
X135400313Y-103067837D01*
X135313266Y-103277988D01*
X135310217Y-103287373D01*
X135257115Y-103508554D01*
X135255572Y-103518301D01*
X135237725Y-103745070D01*
X135237725Y-103754930D01*
X125200000Y-103754930D01*
X125200000Y-102517890D01*
X135882093Y-102517890D01*
X135885876Y-102526666D01*
X136737188Y-103377978D01*
X136751132Y-103385592D01*
X136752965Y-103385461D01*
X136759580Y-103381210D01*
X137611080Y-102529710D01*
X137617840Y-102517330D01*
X137612113Y-102509680D01*
X137440958Y-102404795D01*
X137432163Y-102400313D01*
X137222012Y-102313266D01*
X137212627Y-102310217D01*
X136991446Y-102257115D01*
X136981699Y-102255572D01*
X136754930Y-102237725D01*
X136745070Y-102237725D01*
X136518301Y-102255572D01*
X136508554Y-102257115D01*
X136287373Y-102310217D01*
X136277988Y-102313266D01*
X136067837Y-102400313D01*
X136059042Y-102404795D01*
X135891555Y-102507432D01*
X135882093Y-102517890D01*
X125200000Y-102517890D01*
X125200000Y-99682002D01*
X125987738Y-99682002D01*
X126003248Y-99866705D01*
X126005461Y-99878764D01*
X126056554Y-100056945D01*
X126061066Y-100068342D01*
X126121148Y-100185250D01*
X126130865Y-100195468D01*
X126137666Y-100193124D01*
X126627978Y-99702812D01*
X126635592Y-99688868D01*
X126635461Y-99687035D01*
X126631210Y-99680420D01*
X126143121Y-99192331D01*
X126130741Y-99185571D01*
X126124353Y-99190353D01*
X126071997Y-99285586D01*
X126067166Y-99296858D01*
X126011120Y-99473538D01*
X126008570Y-99485532D01*
X125987909Y-99669733D01*
X125987738Y-99682002D01*
X125200000Y-99682002D01*
X125200000Y-98748094D01*
X125220002Y-98679973D01*
X125236905Y-98658999D01*
X126151405Y-97744499D01*
X126213717Y-97710473D01*
X126284532Y-97715538D01*
X126341368Y-97758085D01*
X126366179Y-97824605D01*
X126366500Y-97833594D01*
X126366500Y-98421233D01*
X126365973Y-98432416D01*
X126364298Y-98439909D01*
X126364547Y-98447835D01*
X126364547Y-98447836D01*
X126366438Y-98507986D01*
X126366500Y-98511945D01*
X126366500Y-98539856D01*
X126366997Y-98543790D01*
X126366997Y-98543791D01*
X126367005Y-98543856D01*
X126367938Y-98555693D01*
X126369327Y-98599889D01*
X126374978Y-98619339D01*
X126378987Y-98638700D01*
X126381526Y-98658797D01*
X126384445Y-98666168D01*
X126384445Y-98666170D01*
X126397804Y-98699912D01*
X126401649Y-98711142D01*
X126413982Y-98753593D01*
X126418015Y-98760412D01*
X126418017Y-98760417D01*
X126424293Y-98771028D01*
X126432988Y-98788776D01*
X126440448Y-98807617D01*
X126445110Y-98814033D01*
X126445110Y-98814034D01*
X126466436Y-98843387D01*
X126472952Y-98853307D01*
X126495458Y-98891362D01*
X126509779Y-98905683D01*
X126522619Y-98920716D01*
X126534528Y-98937107D01*
X126540634Y-98942158D01*
X126568605Y-98965298D01*
X126577384Y-98973288D01*
X127237558Y-99633462D01*
X127271584Y-99695774D01*
X127266519Y-99766589D01*
X127237558Y-99811652D01*
X126502458Y-100546752D01*
X126495698Y-100559132D01*
X126500607Y-100565690D01*
X126589118Y-100615157D01*
X126600357Y-100620067D01*
X126776641Y-100677345D01*
X126788615Y-100679978D01*
X126972676Y-100701926D01*
X126984925Y-100702183D01*
X127169742Y-100687962D01*
X127181812Y-100685833D01*
X127329274Y-100644661D01*
X127400265Y-100645608D01*
X127459393Y-100684731D01*
X127460960Y-100687444D01*
X127465381Y-100692354D01*
X127501186Y-100732119D01*
X127588747Y-100829366D01*
X127743248Y-100941618D01*
X127749276Y-100944302D01*
X127749278Y-100944303D01*
X127911681Y-101016609D01*
X127917712Y-101019294D01*
X128011112Y-101039147D01*
X128098056Y-101057628D01*
X128098061Y-101057628D01*
X128104513Y-101059000D01*
X128295487Y-101059000D01*
X128301939Y-101057628D01*
X128301944Y-101057628D01*
X128388888Y-101039147D01*
X128482288Y-101019294D01*
X128488319Y-101016609D01*
X128650722Y-100944303D01*
X128650724Y-100944302D01*
X128656752Y-100941618D01*
X128811253Y-100829366D01*
X128897532Y-100733543D01*
X128934621Y-100692352D01*
X128934622Y-100692351D01*
X128939040Y-100687444D01*
X129034527Y-100522056D01*
X129039428Y-100506973D01*
X129079502Y-100448369D01*
X129144899Y-100420733D01*
X129214855Y-100432841D01*
X129235590Y-100446354D01*
X129235700Y-100446198D01*
X129423251Y-100577523D01*
X129428233Y-100579846D01*
X129428238Y-100579849D01*
X129625775Y-100671961D01*
X129630757Y-100674284D01*
X129636065Y-100675706D01*
X129636067Y-100675707D01*
X129846598Y-100732119D01*
X129846600Y-100732119D01*
X129851913Y-100733543D01*
X130080000Y-100753498D01*
X130308087Y-100733543D01*
X130313400Y-100732119D01*
X130313402Y-100732119D01*
X130523933Y-100675707D01*
X130523935Y-100675706D01*
X130529243Y-100674284D01*
X130534225Y-100671961D01*
X130731762Y-100579849D01*
X130731767Y-100579846D01*
X130736749Y-100577523D01*
X130841611Y-100504098D01*
X130919789Y-100449357D01*
X130919792Y-100449355D01*
X130924300Y-100446198D01*
X131086198Y-100284300D01*
X131217523Y-100096749D01*
X131219846Y-100091767D01*
X131219849Y-100091762D01*
X131311961Y-99894225D01*
X131311961Y-99894224D01*
X131314284Y-99889243D01*
X131364239Y-99702812D01*
X131372119Y-99673402D01*
X131372119Y-99673400D01*
X131373543Y-99668087D01*
X131393498Y-99440000D01*
X131373543Y-99211913D01*
X131372119Y-99206598D01*
X131315707Y-98996067D01*
X131315706Y-98996065D01*
X131314284Y-98990757D01*
X131304175Y-98969077D01*
X131219849Y-98788238D01*
X131219846Y-98788233D01*
X131217523Y-98783251D01*
X131109418Y-98628861D01*
X131089357Y-98600211D01*
X131089355Y-98600208D01*
X131086198Y-98595700D01*
X130924300Y-98433802D01*
X130919792Y-98430645D01*
X130919789Y-98430643D01*
X130776384Y-98330230D01*
X130736749Y-98302477D01*
X130731767Y-98300154D01*
X130731762Y-98300151D01*
X130534225Y-98208039D01*
X130534224Y-98208039D01*
X130529243Y-98205716D01*
X130523935Y-98204294D01*
X130523933Y-98204293D01*
X130313402Y-98147881D01*
X130313400Y-98147881D01*
X130308087Y-98146457D01*
X130080000Y-98126502D01*
X129851913Y-98146457D01*
X129846600Y-98147881D01*
X129846598Y-98147881D01*
X129636067Y-98204293D01*
X129636065Y-98204294D01*
X129630757Y-98205716D01*
X129625776Y-98208039D01*
X129625775Y-98208039D01*
X129428238Y-98300151D01*
X129428233Y-98300154D01*
X129423251Y-98302477D01*
X129383616Y-98330230D01*
X129240211Y-98430643D01*
X129240208Y-98430645D01*
X129235700Y-98433802D01*
X129073802Y-98595700D01*
X129070645Y-98600208D01*
X129070643Y-98600211D01*
X129050582Y-98628861D01*
X128942477Y-98783251D01*
X128940154Y-98788233D01*
X128940151Y-98788238D01*
X128855825Y-98969077D01*
X128845716Y-98990757D01*
X128844294Y-98996064D01*
X128844290Y-98996075D01*
X128805189Y-99142000D01*
X128768238Y-99202622D01*
X128704377Y-99233644D01*
X128633882Y-99225215D01*
X128594388Y-99198483D01*
X127670405Y-98274500D01*
X127636379Y-98212188D01*
X127633500Y-98185405D01*
X127633500Y-97839500D01*
X127653502Y-97771379D01*
X127707158Y-97724886D01*
X127759500Y-97713500D01*
X129145312Y-97713500D01*
X129163638Y-97713173D01*
X129164108Y-97713156D01*
X129164155Y-97713155D01*
X129168656Y-97712994D01*
X129172627Y-97712852D01*
X129173126Y-97712825D01*
X129173132Y-97712825D01*
X129185882Y-97712142D01*
X129185885Y-97712142D01*
X129190936Y-97711871D01*
X129232266Y-97702880D01*
X129259049Y-97700000D01*
X130911778Y-97700000D01*
X130929709Y-97701282D01*
G37*
%TD.AperFunction*%
%TD*%
%TA.AperFunction,Conductor*%
%TO.N,Net-(F3-Pad2)*%
G36*
X136742121Y-83620002D02*
G01*
X136788614Y-83673658D01*
X136800000Y-83726000D01*
X136800000Y-84895382D01*
X136779998Y-84963503D01*
X136726342Y-85009996D01*
X136653524Y-85019226D01*
X136653518Y-85019287D01*
X136653248Y-85019261D01*
X136651912Y-85019431D01*
X136643284Y-85017894D01*
X136569452Y-85016992D01*
X136425081Y-85015228D01*
X136425079Y-85015228D01*
X136419911Y-85015165D01*
X136199091Y-85048955D01*
X135986756Y-85118357D01*
X135788607Y-85221507D01*
X135784474Y-85224610D01*
X135784471Y-85224612D01*
X135760247Y-85242800D01*
X135609965Y-85355635D01*
X135455629Y-85517138D01*
X135348201Y-85674621D01*
X135293293Y-85719621D01*
X135222768Y-85727792D01*
X135159021Y-85696538D01*
X135138324Y-85672054D01*
X135057822Y-85547617D01*
X135057820Y-85547614D01*
X135055014Y-85543277D01*
X134904670Y-85378051D01*
X134900619Y-85374852D01*
X134900615Y-85374848D01*
X134733414Y-85242800D01*
X134733410Y-85242798D01*
X134729359Y-85239598D01*
X134693028Y-85219542D01*
X134634329Y-85187139D01*
X134533789Y-85131638D01*
X134528920Y-85129914D01*
X134528916Y-85129912D01*
X134328087Y-85058795D01*
X134328083Y-85058794D01*
X134323212Y-85057069D01*
X134318119Y-85056162D01*
X134318116Y-85056161D01*
X134108373Y-85018800D01*
X134108367Y-85018799D01*
X134103284Y-85017894D01*
X134029452Y-85016992D01*
X133885081Y-85015228D01*
X133885079Y-85015228D01*
X133879911Y-85015165D01*
X133659091Y-85048955D01*
X133446756Y-85118357D01*
X133248607Y-85221507D01*
X133244474Y-85224610D01*
X133244471Y-85224612D01*
X133220247Y-85242800D01*
X133069965Y-85355635D01*
X132915629Y-85517138D01*
X132808204Y-85674618D01*
X132807898Y-85675066D01*
X132752987Y-85720069D01*
X132682462Y-85728240D01*
X132618715Y-85696986D01*
X132598018Y-85672502D01*
X132517426Y-85547926D01*
X132511136Y-85539757D01*
X132367806Y-85382240D01*
X132360273Y-85375215D01*
X132193139Y-85243222D01*
X132184552Y-85237517D01*
X131998117Y-85134599D01*
X131988705Y-85130369D01*
X131787959Y-85059280D01*
X131777988Y-85056646D01*
X131706837Y-85043972D01*
X131693540Y-85045432D01*
X131689000Y-85059989D01*
X131689000Y-87693517D01*
X131693064Y-87707359D01*
X131706478Y-87709393D01*
X131713184Y-87708534D01*
X131723262Y-87706392D01*
X131927255Y-87645191D01*
X131936842Y-87641433D01*
X132128095Y-87547739D01*
X132136945Y-87542464D01*
X132310328Y-87418792D01*
X132318200Y-87412139D01*
X132469052Y-87261812D01*
X132475730Y-87253965D01*
X132603022Y-87076819D01*
X132604279Y-87077722D01*
X132651373Y-87034362D01*
X132721311Y-87022145D01*
X132786751Y-87049678D01*
X132814579Y-87081511D01*
X132874987Y-87180088D01*
X133021250Y-87348938D01*
X133193126Y-87491632D01*
X133386000Y-87604338D01*
X133594692Y-87684030D01*
X133599760Y-87685061D01*
X133599763Y-87685062D01*
X133694862Y-87704410D01*
X133813597Y-87728567D01*
X133818772Y-87728757D01*
X133818774Y-87728757D01*
X134031673Y-87736564D01*
X134031677Y-87736564D01*
X134036837Y-87736753D01*
X134041957Y-87736097D01*
X134041959Y-87736097D01*
X134253288Y-87709025D01*
X134253289Y-87709025D01*
X134258416Y-87708368D01*
X134263366Y-87706883D01*
X134467429Y-87645661D01*
X134467434Y-87645659D01*
X134472384Y-87644174D01*
X134672994Y-87545896D01*
X134854860Y-87416173D01*
X134865887Y-87405185D01*
X135009435Y-87262137D01*
X135013096Y-87258489D01*
X135052168Y-87204115D01*
X135143453Y-87077077D01*
X135144776Y-87078028D01*
X135191645Y-87034857D01*
X135261580Y-87022625D01*
X135327026Y-87050144D01*
X135354875Y-87081994D01*
X135414987Y-87180088D01*
X135561250Y-87348938D01*
X135733126Y-87491632D01*
X135926000Y-87604338D01*
X136134692Y-87684030D01*
X136139760Y-87685061D01*
X136139763Y-87685062D01*
X136234862Y-87704410D01*
X136353597Y-87728567D01*
X136358772Y-87728757D01*
X136358774Y-87728757D01*
X136571673Y-87736564D01*
X136571677Y-87736564D01*
X136576837Y-87736753D01*
X136581957Y-87736097D01*
X136581959Y-87736097D01*
X136657990Y-87726357D01*
X136728100Y-87737541D01*
X136781034Y-87784855D01*
X136800000Y-87851336D01*
X136800000Y-97074000D01*
X136779998Y-97142121D01*
X136726342Y-97188614D01*
X136674000Y-97200000D01*
X131014688Y-97200000D01*
X130946567Y-97179998D01*
X130900074Y-97126342D01*
X130889970Y-97056068D01*
X130919464Y-96991488D01*
X130925593Y-96984905D01*
X131086198Y-96824300D01*
X131091376Y-96816906D01*
X131179233Y-96691432D01*
X131217523Y-96636749D01*
X131219846Y-96631767D01*
X131219849Y-96631762D01*
X131311961Y-96434225D01*
X131311961Y-96434224D01*
X131314284Y-96429243D01*
X131338921Y-96337299D01*
X131372119Y-96213402D01*
X131372119Y-96213400D01*
X131373543Y-96208087D01*
X131393498Y-95980000D01*
X131373543Y-95751913D01*
X131356014Y-95686494D01*
X131315707Y-95536067D01*
X131315706Y-95536065D01*
X131314284Y-95530757D01*
X131294049Y-95487362D01*
X131219849Y-95328238D01*
X131219846Y-95328233D01*
X131217523Y-95323251D01*
X131124169Y-95189928D01*
X131089357Y-95140211D01*
X131089355Y-95140208D01*
X131086198Y-95135700D01*
X130924300Y-94973802D01*
X130919792Y-94970645D01*
X130919789Y-94970643D01*
X130841611Y-94915902D01*
X130736749Y-94842477D01*
X130731767Y-94840154D01*
X130731762Y-94840151D01*
X130534225Y-94748039D01*
X130534224Y-94748039D01*
X130529243Y-94745716D01*
X130523935Y-94744294D01*
X130523933Y-94744293D01*
X130313402Y-94687881D01*
X130313400Y-94687881D01*
X130308087Y-94686457D01*
X130080000Y-94666502D01*
X129851913Y-94686457D01*
X129846600Y-94687881D01*
X129846598Y-94687881D01*
X129636067Y-94744293D01*
X129636065Y-94744294D01*
X129630757Y-94745716D01*
X129625776Y-94748039D01*
X129625775Y-94748039D01*
X129428238Y-94840151D01*
X129428233Y-94840154D01*
X129423251Y-94842477D01*
X129318389Y-94915902D01*
X129240211Y-94970643D01*
X129240208Y-94970645D01*
X129235700Y-94973802D01*
X129073802Y-95135700D01*
X129070645Y-95140208D01*
X129070643Y-95140211D01*
X129035831Y-95189928D01*
X128942477Y-95323251D01*
X128940154Y-95328233D01*
X128940151Y-95328238D01*
X128865951Y-95487362D01*
X128845716Y-95530757D01*
X128844294Y-95536065D01*
X128844293Y-95536067D01*
X128803986Y-95686494D01*
X128786457Y-95751913D01*
X128766502Y-95980000D01*
X128786457Y-96208087D01*
X128787881Y-96213400D01*
X128787881Y-96213402D01*
X128821080Y-96337299D01*
X128845716Y-96429243D01*
X128848039Y-96434224D01*
X128848039Y-96434225D01*
X128940151Y-96631762D01*
X128940154Y-96631767D01*
X128942477Y-96636749D01*
X128980767Y-96691432D01*
X129068625Y-96816906D01*
X129073802Y-96824300D01*
X129234407Y-96984905D01*
X129268433Y-97047217D01*
X129263368Y-97118032D01*
X129220821Y-97174868D01*
X129154301Y-97199679D01*
X129145312Y-97200000D01*
X127759500Y-97200000D01*
X127691379Y-97179998D01*
X127644886Y-97126342D01*
X127633500Y-97074000D01*
X127633500Y-96828763D01*
X127634027Y-96817579D01*
X127635701Y-96810091D01*
X127633562Y-96742032D01*
X127633500Y-96738075D01*
X127633500Y-96710144D01*
X127632994Y-96706138D01*
X127632061Y-96694292D01*
X127630922Y-96658037D01*
X127630673Y-96650110D01*
X127625022Y-96630658D01*
X127621014Y-96611306D01*
X127619468Y-96599068D01*
X127619467Y-96599066D01*
X127618474Y-96591203D01*
X127602194Y-96550086D01*
X127598359Y-96538885D01*
X127586018Y-96496406D01*
X127581985Y-96489587D01*
X127581983Y-96489582D01*
X127575707Y-96478971D01*
X127567010Y-96461221D01*
X127559552Y-96442383D01*
X127533571Y-96406623D01*
X127527053Y-96396701D01*
X127508578Y-96365460D01*
X127508574Y-96365455D01*
X127504542Y-96358637D01*
X127490218Y-96344313D01*
X127477376Y-96329278D01*
X127465472Y-96312893D01*
X127431406Y-96284711D01*
X127422627Y-96276722D01*
X127253652Y-96107747D01*
X127246112Y-96099461D01*
X127242000Y-96092982D01*
X127192348Y-96046356D01*
X127189507Y-96043602D01*
X127169770Y-96023865D01*
X127166573Y-96021385D01*
X127157551Y-96013680D01*
X127153179Y-96009574D01*
X127125321Y-95983414D01*
X127118375Y-95979595D01*
X127118372Y-95979593D01*
X127107566Y-95973652D01*
X127091047Y-95962801D01*
X127090583Y-95962441D01*
X127075041Y-95950386D01*
X127067772Y-95947241D01*
X127067768Y-95947238D01*
X127034463Y-95932826D01*
X127023813Y-95927609D01*
X126985060Y-95906305D01*
X126965437Y-95901267D01*
X126946734Y-95894863D01*
X126935420Y-95889967D01*
X126935419Y-95889967D01*
X126928145Y-95886819D01*
X126920322Y-95885580D01*
X126920312Y-95885577D01*
X126884476Y-95879901D01*
X126872857Y-95877495D01*
X126846277Y-95870671D01*
X126788514Y-95837724D01*
X126641922Y-95691132D01*
X127364408Y-95691132D01*
X127364539Y-95692965D01*
X127368790Y-95699580D01*
X127856661Y-96187451D01*
X127869041Y-96194211D01*
X127875775Y-96189170D01*
X127922262Y-96107337D01*
X127927256Y-96096121D01*
X127985759Y-95920253D01*
X127988479Y-95908281D01*
X128012039Y-95721784D01*
X128012531Y-95714757D01*
X128012828Y-95693523D01*
X128012533Y-95686494D01*
X127994188Y-95499397D01*
X127991805Y-95487362D01*
X127938233Y-95309924D01*
X127933559Y-95298584D01*
X127878562Y-95195148D01*
X127868702Y-95185067D01*
X127861575Y-95187635D01*
X127372022Y-95677188D01*
X127364408Y-95691132D01*
X126641922Y-95691132D01*
X126143121Y-95192331D01*
X126116939Y-95178034D01*
X126073715Y-95168632D01*
X126023512Y-95118430D01*
X126008788Y-95044873D01*
X126012814Y-95006565D01*
X126013504Y-95000000D01*
X126010751Y-94973802D01*
X125994701Y-94821101D01*
X126494820Y-94821101D01*
X126497274Y-94828064D01*
X126987188Y-95317978D01*
X127001132Y-95325592D01*
X127002965Y-95325461D01*
X127009580Y-95321210D01*
X127497834Y-94832956D01*
X127504594Y-94820576D01*
X127499935Y-94814353D01*
X127397924Y-94759196D01*
X127386619Y-94754444D01*
X127209554Y-94699633D01*
X127197541Y-94697167D01*
X127013199Y-94677792D01*
X127000931Y-94677707D01*
X126816345Y-94694505D01*
X126804296Y-94696803D01*
X126626483Y-94749137D01*
X126615108Y-94753732D01*
X126504969Y-94811312D01*
X126494820Y-94821101D01*
X125994701Y-94821101D01*
X125994232Y-94816635D01*
X125994232Y-94816633D01*
X125993542Y-94810072D01*
X125934527Y-94628444D01*
X125839040Y-94463056D01*
X125711253Y-94321134D01*
X125556752Y-94208882D01*
X125550724Y-94206198D01*
X125550722Y-94206197D01*
X125388319Y-94133891D01*
X125388318Y-94133891D01*
X125382288Y-94131206D01*
X125319874Y-94117940D01*
X125299803Y-94113673D01*
X125237329Y-94079944D01*
X125203008Y-94017795D01*
X125200000Y-93990426D01*
X125200000Y-92571376D01*
X125220002Y-92503255D01*
X125236076Y-92483117D01*
X129476751Y-88162429D01*
X129476754Y-88162426D01*
X129479434Y-88159695D01*
X129544587Y-88074768D01*
X129554628Y-88063209D01*
X130280144Y-87324005D01*
X130342135Y-87289399D01*
X130412995Y-87293802D01*
X130465306Y-87329768D01*
X130478212Y-87344668D01*
X130485579Y-87351881D01*
X130649434Y-87487916D01*
X130657881Y-87493831D01*
X130841756Y-87601279D01*
X130851042Y-87605729D01*
X131050001Y-87681703D01*
X131059899Y-87684579D01*
X131163250Y-87705606D01*
X131177299Y-87704410D01*
X131181000Y-87694065D01*
X131181000Y-85058102D01*
X131177082Y-85044758D01*
X131162806Y-85042771D01*
X131124324Y-85048660D01*
X131114288Y-85051051D01*
X130911868Y-85117212D01*
X130902359Y-85121209D01*
X130713463Y-85219542D01*
X130704742Y-85225034D01*
X130701656Y-85227351D01*
X130635172Y-85252259D01*
X130565776Y-85237268D01*
X130515501Y-85187139D01*
X130500000Y-85126593D01*
X130500000Y-83726000D01*
X130520002Y-83657879D01*
X130573658Y-83611386D01*
X130626000Y-83600000D01*
X136674000Y-83600000D01*
X136742121Y-83620002D01*
G37*
%TD.AperFunction*%
%TD*%
M02*
