%TF.GenerationSoftware,KiCad,Pcbnew,(6.0.10)*%
%TF.CreationDate,2023-08-29T00:03:06+02:00*%
%TF.ProjectId,Rentree ARES,52656e74-7265-4652-9041-5245532e6b69,rev?*%
%TF.SameCoordinates,Original*%
%TF.FileFunction,Soldermask,Bot*%
%TF.FilePolarity,Negative*%
%FSLAX46Y46*%
G04 Gerber Fmt 4.6, Leading zero omitted, Abs format (unit mm)*
G04 Created by KiCad (PCBNEW (6.0.10)) date 2023-08-29 00:03:06*
%MOMM*%
%LPD*%
G01*
G04 APERTURE LIST*
%ADD10C,1.600000*%
%ADD11O,1.600000X1.600000*%
%ADD12R,1.600000X1.600000*%
%ADD13C,1.800000*%
%ADD14R,1.800000X1.800000*%
%ADD15R,1.700000X1.700000*%
%ADD16O,1.700000X1.700000*%
%ADD17C,2.000000*%
%ADD18O,1.050000X1.500000*%
%ADD19R,1.050000X1.500000*%
G04 APERTURE END LIST*
D10*
%TO.C,R2*%
X119920000Y-99440000D03*
D11*
X130080000Y-99440000D03*
%TD*%
%TO.C,A1*%
X149500000Y-86000000D03*
X149500000Y-88540000D03*
X149500000Y-91080000D03*
X149500000Y-93620000D03*
X149500000Y-96160000D03*
X149500000Y-98700000D03*
X149500000Y-101240000D03*
X149500000Y-103780000D03*
X149500000Y-106320000D03*
X149500000Y-108860000D03*
X149500000Y-112920000D03*
X149500000Y-115460000D03*
X149500000Y-118000000D03*
X149500000Y-120540000D03*
X149500000Y-123080000D03*
X149500000Y-125620000D03*
X149500000Y-128160000D03*
X149500000Y-130700000D03*
X101240000Y-130700000D03*
X101240000Y-128160000D03*
X101240000Y-125620000D03*
X101240000Y-123080000D03*
X101240000Y-120540000D03*
X101240000Y-118000000D03*
X101240000Y-112920000D03*
X101240000Y-110380000D03*
X101240000Y-107840000D03*
X101240000Y-105300000D03*
X101240000Y-102760000D03*
X101240000Y-100220000D03*
X101240000Y-97680000D03*
D12*
X101240000Y-95140000D03*
%TD*%
D13*
%TO.C,D1*%
X112210000Y-128000000D03*
D14*
X114750000Y-128000000D03*
%TD*%
D13*
%TO.C,D2*%
X137790000Y-128000000D03*
D14*
X135250000Y-128000000D03*
%TD*%
%TO.C,D3*%
X108500000Y-94275000D03*
D13*
X108500000Y-91735000D03*
%TD*%
D14*
%TO.C,D4*%
X141500000Y-94275000D03*
D13*
X141500000Y-91735000D03*
%TD*%
D15*
%TO.C,J1*%
X113655000Y-86375000D03*
D16*
X116195000Y-86375000D03*
X118735000Y-86375000D03*
X121275000Y-86375000D03*
X123815000Y-86375000D03*
X126355000Y-86375000D03*
X128895000Y-86375000D03*
X131435000Y-86375000D03*
X133975000Y-86375000D03*
X136515000Y-86375000D03*
%TD*%
D12*
%TO.C,LS1*%
X121750000Y-111500000D03*
D10*
X128250000Y-111500000D03*
%TD*%
D11*
%TO.C,R1*%
X116500000Y-98975000D03*
D10*
X116500000Y-96435000D03*
%TD*%
D11*
%TO.C,R3*%
X130080000Y-95980000D03*
D10*
X119920000Y-95980000D03*
%TD*%
D17*
%TO.C,SW1*%
X113250000Y-103750000D03*
X113250000Y-110250000D03*
X108750000Y-103750000D03*
X108750000Y-110250000D03*
%TD*%
%TO.C,SW2*%
X141250000Y-103750000D03*
X141250000Y-110250000D03*
X136750000Y-103750000D03*
X136750000Y-110250000D03*
%TD*%
D18*
%TO.C,Q1*%
X120750000Y-128000000D03*
X122020000Y-128000000D03*
D19*
X123290000Y-128000000D03*
%TD*%
D18*
%TO.C,Q2*%
X126730000Y-128000000D03*
X128000000Y-128000000D03*
D19*
X129270000Y-128000000D03*
%TD*%
M02*
