%TF.GenerationSoftware,KiCad,Pcbnew,(6.0.10)*%
%TF.CreationDate,2023-08-29T00:03:06+02:00*%
%TF.ProjectId,Rentree ARES,52656e74-7265-4652-9041-5245532e6b69,rev?*%
%TF.SameCoordinates,Original*%
%TF.FileFunction,Legend,Top*%
%TF.FilePolarity,Positive*%
%FSLAX46Y46*%
G04 Gerber Fmt 4.6, Leading zero omitted, Abs format (unit mm)*
G04 Created by KiCad (PCBNEW (6.0.10)) date 2023-08-29 00:03:06*
%MOMM*%
%LPD*%
G01*
G04 APERTURE LIST*
%ADD10C,0.150000*%
%ADD11C,0.120000*%
G04 APERTURE END LIST*
D10*
%TO.C,F2*%
X124166666Y-98988571D02*
X123833333Y-98988571D01*
X123833333Y-99512380D02*
X123833333Y-98512380D01*
X124309523Y-98512380D01*
X124642857Y-98607619D02*
X124690476Y-98560000D01*
X124785714Y-98512380D01*
X125023809Y-98512380D01*
X125119047Y-98560000D01*
X125166666Y-98607619D01*
X125214285Y-98702857D01*
X125214285Y-98798095D01*
X125166666Y-98940952D01*
X124595238Y-99512380D01*
X125214285Y-99512380D01*
%TO.C,F3*%
X125166666Y-96118571D02*
X124833333Y-96118571D01*
X124833333Y-96642380D02*
X124833333Y-95642380D01*
X125309523Y-95642380D01*
X125595238Y-95642380D02*
X126214285Y-95642380D01*
X125880952Y-96023333D01*
X126023809Y-96023333D01*
X126119047Y-96070952D01*
X126166666Y-96118571D01*
X126214285Y-96213809D01*
X126214285Y-96451904D01*
X126166666Y-96547142D01*
X126119047Y-96594761D01*
X126023809Y-96642380D01*
X125738095Y-96642380D01*
X125642857Y-96594761D01*
X125595238Y-96547142D01*
%TO.C,R2*%
X132333333Y-99892380D02*
X132000000Y-99416190D01*
X131761904Y-99892380D02*
X131761904Y-98892380D01*
X132142857Y-98892380D01*
X132238095Y-98940000D01*
X132285714Y-98987619D01*
X132333333Y-99082857D01*
X132333333Y-99225714D01*
X132285714Y-99320952D01*
X132238095Y-99368571D01*
X132142857Y-99416190D01*
X131761904Y-99416190D01*
X132714285Y-98987619D02*
X132761904Y-98940000D01*
X132857142Y-98892380D01*
X133095238Y-98892380D01*
X133190476Y-98940000D01*
X133238095Y-98987619D01*
X133285714Y-99082857D01*
X133285714Y-99178095D01*
X133238095Y-99320952D01*
X132666666Y-99892380D01*
X133285714Y-99892380D01*
%TO.C,A1*%
X100535714Y-93166666D02*
X101011904Y-93166666D01*
X100440476Y-93452380D02*
X100773809Y-92452380D01*
X101107142Y-93452380D01*
X101964285Y-93452380D02*
X101392857Y-93452380D01*
X101678571Y-93452380D02*
X101678571Y-92452380D01*
X101583333Y-92595238D01*
X101488095Y-92690476D01*
X101392857Y-92738095D01*
%TO.C,F1*%
X119916666Y-133928571D02*
X119583333Y-133928571D01*
X119583333Y-134452380D02*
X119583333Y-133452380D01*
X120059523Y-133452380D01*
X120964285Y-134452380D02*
X120392857Y-134452380D01*
X120678571Y-134452380D02*
X120678571Y-133452380D01*
X120583333Y-133595238D01*
X120488095Y-133690476D01*
X120392857Y-133738095D01*
%TO.C,C1*%
X128433333Y-121717142D02*
X128385714Y-121764761D01*
X128242857Y-121812380D01*
X128147619Y-121812380D01*
X128004761Y-121764761D01*
X127909523Y-121669523D01*
X127861904Y-121574285D01*
X127814285Y-121383809D01*
X127814285Y-121240952D01*
X127861904Y-121050476D01*
X127909523Y-120955238D01*
X128004761Y-120860000D01*
X128147619Y-120812380D01*
X128242857Y-120812380D01*
X128385714Y-120860000D01*
X128433333Y-120907619D01*
X129385714Y-121812380D02*
X128814285Y-121812380D01*
X129100000Y-121812380D02*
X129100000Y-120812380D01*
X129004761Y-120955238D01*
X128909523Y-121050476D01*
X128814285Y-121098095D01*
%TO.C,C2*%
X128433333Y-124467142D02*
X128385714Y-124514761D01*
X128242857Y-124562380D01*
X128147619Y-124562380D01*
X128004761Y-124514761D01*
X127909523Y-124419523D01*
X127861904Y-124324285D01*
X127814285Y-124133809D01*
X127814285Y-123990952D01*
X127861904Y-123800476D01*
X127909523Y-123705238D01*
X128004761Y-123610000D01*
X128147619Y-123562380D01*
X128242857Y-123562380D01*
X128385714Y-123610000D01*
X128433333Y-123657619D01*
X128814285Y-123657619D02*
X128861904Y-123610000D01*
X128957142Y-123562380D01*
X129195238Y-123562380D01*
X129290476Y-123610000D01*
X129338095Y-123657619D01*
X129385714Y-123752857D01*
X129385714Y-123848095D01*
X129338095Y-123990952D01*
X128766666Y-124562380D01*
X129385714Y-124562380D01*
%TO.C,D1*%
X116536904Y-128352380D02*
X116536904Y-127352380D01*
X116775000Y-127352380D01*
X116917857Y-127400000D01*
X117013095Y-127495238D01*
X117060714Y-127590476D01*
X117108333Y-127780952D01*
X117108333Y-127923809D01*
X117060714Y-128114285D01*
X117013095Y-128209523D01*
X116917857Y-128304761D01*
X116775000Y-128352380D01*
X116536904Y-128352380D01*
X118060714Y-128352380D02*
X117489285Y-128352380D01*
X117775000Y-128352380D02*
X117775000Y-127352380D01*
X117679761Y-127495238D01*
X117584523Y-127590476D01*
X117489285Y-127638095D01*
%TO.C,D2*%
X131886904Y-128452380D02*
X131886904Y-127452380D01*
X132125000Y-127452380D01*
X132267857Y-127500000D01*
X132363095Y-127595238D01*
X132410714Y-127690476D01*
X132458333Y-127880952D01*
X132458333Y-128023809D01*
X132410714Y-128214285D01*
X132363095Y-128309523D01*
X132267857Y-128404761D01*
X132125000Y-128452380D01*
X131886904Y-128452380D01*
X132839285Y-127547619D02*
X132886904Y-127500000D01*
X132982142Y-127452380D01*
X133220238Y-127452380D01*
X133315476Y-127500000D01*
X133363095Y-127547619D01*
X133410714Y-127642857D01*
X133410714Y-127738095D01*
X133363095Y-127880952D01*
X132791666Y-128452380D01*
X133410714Y-128452380D01*
%TO.C,D3*%
X107761904Y-96952380D02*
X107761904Y-95952380D01*
X108000000Y-95952380D01*
X108142857Y-96000000D01*
X108238095Y-96095238D01*
X108285714Y-96190476D01*
X108333333Y-96380952D01*
X108333333Y-96523809D01*
X108285714Y-96714285D01*
X108238095Y-96809523D01*
X108142857Y-96904761D01*
X108000000Y-96952380D01*
X107761904Y-96952380D01*
X108666666Y-95952380D02*
X109285714Y-95952380D01*
X108952380Y-96333333D01*
X109095238Y-96333333D01*
X109190476Y-96380952D01*
X109238095Y-96428571D01*
X109285714Y-96523809D01*
X109285714Y-96761904D01*
X109238095Y-96857142D01*
X109190476Y-96904761D01*
X109095238Y-96952380D01*
X108809523Y-96952380D01*
X108714285Y-96904761D01*
X108666666Y-96857142D01*
%TO.C,D4*%
X140761904Y-96952380D02*
X140761904Y-95952380D01*
X141000000Y-95952380D01*
X141142857Y-96000000D01*
X141238095Y-96095238D01*
X141285714Y-96190476D01*
X141333333Y-96380952D01*
X141333333Y-96523809D01*
X141285714Y-96714285D01*
X141238095Y-96809523D01*
X141142857Y-96904761D01*
X141000000Y-96952380D01*
X140761904Y-96952380D01*
X142190476Y-96285714D02*
X142190476Y-96952380D01*
X141952380Y-95904761D02*
X141714285Y-96619047D01*
X142333333Y-96619047D01*
%TO.C,J1*%
X110166666Y-86952380D02*
X110166666Y-87666666D01*
X110119047Y-87809523D01*
X110023809Y-87904761D01*
X109880952Y-87952380D01*
X109785714Y-87952380D01*
X111166666Y-87952380D02*
X110595238Y-87952380D01*
X110880952Y-87952380D02*
X110880952Y-86952380D01*
X110785714Y-87095238D01*
X110690476Y-87190476D01*
X110595238Y-87238095D01*
%TO.C,LS1*%
X124457142Y-119252380D02*
X123980952Y-119252380D01*
X123980952Y-118252380D01*
X124742857Y-119204761D02*
X124885714Y-119252380D01*
X125123809Y-119252380D01*
X125219047Y-119204761D01*
X125266666Y-119157142D01*
X125314285Y-119061904D01*
X125314285Y-118966666D01*
X125266666Y-118871428D01*
X125219047Y-118823809D01*
X125123809Y-118776190D01*
X124933333Y-118728571D01*
X124838095Y-118680952D01*
X124790476Y-118633333D01*
X124742857Y-118538095D01*
X124742857Y-118442857D01*
X124790476Y-118347619D01*
X124838095Y-118300000D01*
X124933333Y-118252380D01*
X125171428Y-118252380D01*
X125314285Y-118300000D01*
X126266666Y-119252380D02*
X125695238Y-119252380D01*
X125980952Y-119252380D02*
X125980952Y-118252380D01*
X125885714Y-118395238D01*
X125790476Y-118490476D01*
X125695238Y-118538095D01*
X121369047Y-109771428D02*
X122130952Y-109771428D01*
X121750000Y-110152380D02*
X121750000Y-109390476D01*
%TO.C,R1*%
X116333333Y-101352380D02*
X116000000Y-100876190D01*
X115761904Y-101352380D02*
X115761904Y-100352380D01*
X116142857Y-100352380D01*
X116238095Y-100400000D01*
X116285714Y-100447619D01*
X116333333Y-100542857D01*
X116333333Y-100685714D01*
X116285714Y-100780952D01*
X116238095Y-100828571D01*
X116142857Y-100876190D01*
X115761904Y-100876190D01*
X117285714Y-101352380D02*
X116714285Y-101352380D01*
X117000000Y-101352380D02*
X117000000Y-100352380D01*
X116904761Y-100495238D01*
X116809523Y-100590476D01*
X116714285Y-100638095D01*
%TO.C,R4*%
X111583333Y-119452380D02*
X111250000Y-118976190D01*
X111011904Y-119452380D02*
X111011904Y-118452380D01*
X111392857Y-118452380D01*
X111488095Y-118500000D01*
X111535714Y-118547619D01*
X111583333Y-118642857D01*
X111583333Y-118785714D01*
X111535714Y-118880952D01*
X111488095Y-118928571D01*
X111392857Y-118976190D01*
X111011904Y-118976190D01*
X112440476Y-118785714D02*
X112440476Y-119452380D01*
X112202380Y-118404761D02*
X111964285Y-119119047D01*
X112583333Y-119119047D01*
%TO.C,R5*%
X114583333Y-119452380D02*
X114250000Y-118976190D01*
X114011904Y-119452380D02*
X114011904Y-118452380D01*
X114392857Y-118452380D01*
X114488095Y-118500000D01*
X114535714Y-118547619D01*
X114583333Y-118642857D01*
X114583333Y-118785714D01*
X114535714Y-118880952D01*
X114488095Y-118928571D01*
X114392857Y-118976190D01*
X114011904Y-118976190D01*
X115488095Y-118452380D02*
X115011904Y-118452380D01*
X114964285Y-118928571D01*
X115011904Y-118880952D01*
X115107142Y-118833333D01*
X115345238Y-118833333D01*
X115440476Y-118880952D01*
X115488095Y-118928571D01*
X115535714Y-119023809D01*
X115535714Y-119261904D01*
X115488095Y-119357142D01*
X115440476Y-119404761D01*
X115345238Y-119452380D01*
X115107142Y-119452380D01*
X115011904Y-119404761D01*
X114964285Y-119357142D01*
%TO.C,R6*%
X135083333Y-119452380D02*
X134750000Y-118976190D01*
X134511904Y-119452380D02*
X134511904Y-118452380D01*
X134892857Y-118452380D01*
X134988095Y-118500000D01*
X135035714Y-118547619D01*
X135083333Y-118642857D01*
X135083333Y-118785714D01*
X135035714Y-118880952D01*
X134988095Y-118928571D01*
X134892857Y-118976190D01*
X134511904Y-118976190D01*
X135940476Y-118452380D02*
X135750000Y-118452380D01*
X135654761Y-118500000D01*
X135607142Y-118547619D01*
X135511904Y-118690476D01*
X135464285Y-118880952D01*
X135464285Y-119261904D01*
X135511904Y-119357142D01*
X135559523Y-119404761D01*
X135654761Y-119452380D01*
X135845238Y-119452380D01*
X135940476Y-119404761D01*
X135988095Y-119357142D01*
X136035714Y-119261904D01*
X136035714Y-119023809D01*
X135988095Y-118928571D01*
X135940476Y-118880952D01*
X135845238Y-118833333D01*
X135654761Y-118833333D01*
X135559523Y-118880952D01*
X135511904Y-118928571D01*
X135464285Y-119023809D01*
%TO.C,R7*%
X138083333Y-119452380D02*
X137750000Y-118976190D01*
X137511904Y-119452380D02*
X137511904Y-118452380D01*
X137892857Y-118452380D01*
X137988095Y-118500000D01*
X138035714Y-118547619D01*
X138083333Y-118642857D01*
X138083333Y-118785714D01*
X138035714Y-118880952D01*
X137988095Y-118928571D01*
X137892857Y-118976190D01*
X137511904Y-118976190D01*
X138416666Y-118452380D02*
X139083333Y-118452380D01*
X138654761Y-119452380D01*
%TO.C,R8*%
X109233333Y-100952380D02*
X108900000Y-100476190D01*
X108661904Y-100952380D02*
X108661904Y-99952380D01*
X109042857Y-99952380D01*
X109138095Y-100000000D01*
X109185714Y-100047619D01*
X109233333Y-100142857D01*
X109233333Y-100285714D01*
X109185714Y-100380952D01*
X109138095Y-100428571D01*
X109042857Y-100476190D01*
X108661904Y-100476190D01*
X109804761Y-100380952D02*
X109709523Y-100333333D01*
X109661904Y-100285714D01*
X109614285Y-100190476D01*
X109614285Y-100142857D01*
X109661904Y-100047619D01*
X109709523Y-100000000D01*
X109804761Y-99952380D01*
X109995238Y-99952380D01*
X110090476Y-100000000D01*
X110138095Y-100047619D01*
X110185714Y-100142857D01*
X110185714Y-100190476D01*
X110138095Y-100285714D01*
X110090476Y-100333333D01*
X109995238Y-100380952D01*
X109804761Y-100380952D01*
X109709523Y-100428571D01*
X109661904Y-100476190D01*
X109614285Y-100571428D01*
X109614285Y-100761904D01*
X109661904Y-100857142D01*
X109709523Y-100904761D01*
X109804761Y-100952380D01*
X109995238Y-100952380D01*
X110090476Y-100904761D01*
X110138095Y-100857142D01*
X110185714Y-100761904D01*
X110185714Y-100571428D01*
X110138095Y-100476190D01*
X110090476Y-100428571D01*
X109995238Y-100380952D01*
%TO.C,R9*%
X140420833Y-100952380D02*
X140087500Y-100476190D01*
X139849404Y-100952380D02*
X139849404Y-99952380D01*
X140230357Y-99952380D01*
X140325595Y-100000000D01*
X140373214Y-100047619D01*
X140420833Y-100142857D01*
X140420833Y-100285714D01*
X140373214Y-100380952D01*
X140325595Y-100428571D01*
X140230357Y-100476190D01*
X139849404Y-100476190D01*
X140897023Y-100952380D02*
X141087500Y-100952380D01*
X141182738Y-100904761D01*
X141230357Y-100857142D01*
X141325595Y-100714285D01*
X141373214Y-100523809D01*
X141373214Y-100142857D01*
X141325595Y-100047619D01*
X141277976Y-100000000D01*
X141182738Y-99952380D01*
X140992261Y-99952380D01*
X140897023Y-100000000D01*
X140849404Y-100047619D01*
X140801785Y-100142857D01*
X140801785Y-100380952D01*
X140849404Y-100476190D01*
X140897023Y-100523809D01*
X140992261Y-100571428D01*
X141182738Y-100571428D01*
X141277976Y-100523809D01*
X141325595Y-100476190D01*
X141373214Y-100380952D01*
%TO.C,R10*%
X135157142Y-116752380D02*
X134823809Y-116276190D01*
X134585714Y-116752380D02*
X134585714Y-115752380D01*
X134966666Y-115752380D01*
X135061904Y-115800000D01*
X135109523Y-115847619D01*
X135157142Y-115942857D01*
X135157142Y-116085714D01*
X135109523Y-116180952D01*
X135061904Y-116228571D01*
X134966666Y-116276190D01*
X134585714Y-116276190D01*
X136109523Y-116752380D02*
X135538095Y-116752380D01*
X135823809Y-116752380D02*
X135823809Y-115752380D01*
X135728571Y-115895238D01*
X135633333Y-115990476D01*
X135538095Y-116038095D01*
X136728571Y-115752380D02*
X136823809Y-115752380D01*
X136919047Y-115800000D01*
X136966666Y-115847619D01*
X137014285Y-115942857D01*
X137061904Y-116133333D01*
X137061904Y-116371428D01*
X137014285Y-116561904D01*
X136966666Y-116657142D01*
X136919047Y-116704761D01*
X136823809Y-116752380D01*
X136728571Y-116752380D01*
X136633333Y-116704761D01*
X136585714Y-116657142D01*
X136538095Y-116561904D01*
X136490476Y-116371428D01*
X136490476Y-116133333D01*
X136538095Y-115942857D01*
X136585714Y-115847619D01*
X136633333Y-115800000D01*
X136728571Y-115752380D01*
%TO.C,R11*%
X113557142Y-116752380D02*
X113223809Y-116276190D01*
X112985714Y-116752380D02*
X112985714Y-115752380D01*
X113366666Y-115752380D01*
X113461904Y-115800000D01*
X113509523Y-115847619D01*
X113557142Y-115942857D01*
X113557142Y-116085714D01*
X113509523Y-116180952D01*
X113461904Y-116228571D01*
X113366666Y-116276190D01*
X112985714Y-116276190D01*
X114509523Y-116752380D02*
X113938095Y-116752380D01*
X114223809Y-116752380D02*
X114223809Y-115752380D01*
X114128571Y-115895238D01*
X114033333Y-115990476D01*
X113938095Y-116038095D01*
X115461904Y-116752380D02*
X114890476Y-116752380D01*
X115176190Y-116752380D02*
X115176190Y-115752380D01*
X115080952Y-115895238D01*
X114985714Y-115990476D01*
X114890476Y-116038095D01*
%TO.C,TP1*%
X118738095Y-102392380D02*
X119309523Y-102392380D01*
X119023809Y-103392380D02*
X119023809Y-102392380D01*
X119642857Y-103392380D02*
X119642857Y-102392380D01*
X120023809Y-102392380D01*
X120119047Y-102440000D01*
X120166666Y-102487619D01*
X120214285Y-102582857D01*
X120214285Y-102725714D01*
X120166666Y-102820952D01*
X120119047Y-102868571D01*
X120023809Y-102916190D01*
X119642857Y-102916190D01*
X121166666Y-103392380D02*
X120595238Y-103392380D01*
X120880952Y-103392380D02*
X120880952Y-102392380D01*
X120785714Y-102535238D01*
X120690476Y-102630476D01*
X120595238Y-102678095D01*
%TO.C,TP2*%
X128778095Y-102392380D02*
X129349523Y-102392380D01*
X129063809Y-103392380D02*
X129063809Y-102392380D01*
X129682857Y-103392380D02*
X129682857Y-102392380D01*
X130063809Y-102392380D01*
X130159047Y-102440000D01*
X130206666Y-102487619D01*
X130254285Y-102582857D01*
X130254285Y-102725714D01*
X130206666Y-102820952D01*
X130159047Y-102868571D01*
X130063809Y-102916190D01*
X129682857Y-102916190D01*
X130635238Y-102487619D02*
X130682857Y-102440000D01*
X130778095Y-102392380D01*
X131016190Y-102392380D01*
X131111428Y-102440000D01*
X131159047Y-102487619D01*
X131206666Y-102582857D01*
X131206666Y-102678095D01*
X131159047Y-102820952D01*
X130587619Y-103392380D01*
X131206666Y-103392380D01*
%TO.C,TP3*%
X128778095Y-91852380D02*
X129349523Y-91852380D01*
X129063809Y-92852380D02*
X129063809Y-91852380D01*
X129682857Y-92852380D02*
X129682857Y-91852380D01*
X130063809Y-91852380D01*
X130159047Y-91900000D01*
X130206666Y-91947619D01*
X130254285Y-92042857D01*
X130254285Y-92185714D01*
X130206666Y-92280952D01*
X130159047Y-92328571D01*
X130063809Y-92376190D01*
X129682857Y-92376190D01*
X130587619Y-91852380D02*
X131206666Y-91852380D01*
X130873333Y-92233333D01*
X131016190Y-92233333D01*
X131111428Y-92280952D01*
X131159047Y-92328571D01*
X131206666Y-92423809D01*
X131206666Y-92661904D01*
X131159047Y-92757142D01*
X131111428Y-92804761D01*
X131016190Y-92852380D01*
X130730476Y-92852380D01*
X130635238Y-92804761D01*
X130587619Y-92757142D01*
%TO.C,TP4*%
X118738095Y-91952380D02*
X119309523Y-91952380D01*
X119023809Y-92952380D02*
X119023809Y-91952380D01*
X119642857Y-92952380D02*
X119642857Y-91952380D01*
X120023809Y-91952380D01*
X120119047Y-92000000D01*
X120166666Y-92047619D01*
X120214285Y-92142857D01*
X120214285Y-92285714D01*
X120166666Y-92380952D01*
X120119047Y-92428571D01*
X120023809Y-92476190D01*
X119642857Y-92476190D01*
X121071428Y-92285714D02*
X121071428Y-92952380D01*
X120833333Y-91904761D02*
X120595238Y-92619047D01*
X121214285Y-92619047D01*
%TO.C,R3*%
X132333333Y-96392380D02*
X132000000Y-95916190D01*
X131761904Y-96392380D02*
X131761904Y-95392380D01*
X132142857Y-95392380D01*
X132238095Y-95440000D01*
X132285714Y-95487619D01*
X132333333Y-95582857D01*
X132333333Y-95725714D01*
X132285714Y-95820952D01*
X132238095Y-95868571D01*
X132142857Y-95916190D01*
X131761904Y-95916190D01*
X132666666Y-95392380D02*
X133285714Y-95392380D01*
X132952380Y-95773333D01*
X133095238Y-95773333D01*
X133190476Y-95820952D01*
X133238095Y-95868571D01*
X133285714Y-95963809D01*
X133285714Y-96201904D01*
X133238095Y-96297142D01*
X133190476Y-96344761D01*
X133095238Y-96392380D01*
X132809523Y-96392380D01*
X132714285Y-96344761D01*
X132666666Y-96297142D01*
%TO.C,SW1*%
X107466666Y-113004761D02*
X107609523Y-113052380D01*
X107847619Y-113052380D01*
X107942857Y-113004761D01*
X107990476Y-112957142D01*
X108038095Y-112861904D01*
X108038095Y-112766666D01*
X107990476Y-112671428D01*
X107942857Y-112623809D01*
X107847619Y-112576190D01*
X107657142Y-112528571D01*
X107561904Y-112480952D01*
X107514285Y-112433333D01*
X107466666Y-112338095D01*
X107466666Y-112242857D01*
X107514285Y-112147619D01*
X107561904Y-112100000D01*
X107657142Y-112052380D01*
X107895238Y-112052380D01*
X108038095Y-112100000D01*
X108371428Y-112052380D02*
X108609523Y-113052380D01*
X108800000Y-112338095D01*
X108990476Y-113052380D01*
X109228571Y-112052380D01*
X110133333Y-113052380D02*
X109561904Y-113052380D01*
X109847619Y-113052380D02*
X109847619Y-112052380D01*
X109752380Y-112195238D01*
X109657142Y-112290476D01*
X109561904Y-112338095D01*
%TO.C,SW2*%
X139966666Y-113004761D02*
X140109523Y-113052380D01*
X140347619Y-113052380D01*
X140442857Y-113004761D01*
X140490476Y-112957142D01*
X140538095Y-112861904D01*
X140538095Y-112766666D01*
X140490476Y-112671428D01*
X140442857Y-112623809D01*
X140347619Y-112576190D01*
X140157142Y-112528571D01*
X140061904Y-112480952D01*
X140014285Y-112433333D01*
X139966666Y-112338095D01*
X139966666Y-112242857D01*
X140014285Y-112147619D01*
X140061904Y-112100000D01*
X140157142Y-112052380D01*
X140395238Y-112052380D01*
X140538095Y-112100000D01*
X140871428Y-112052380D02*
X141109523Y-113052380D01*
X141300000Y-112338095D01*
X141490476Y-113052380D01*
X141728571Y-112052380D01*
X142061904Y-112147619D02*
X142109523Y-112100000D01*
X142204761Y-112052380D01*
X142442857Y-112052380D01*
X142538095Y-112100000D01*
X142585714Y-112147619D01*
X142633333Y-112242857D01*
X142633333Y-112338095D01*
X142585714Y-112480952D01*
X142014285Y-113052380D01*
X142633333Y-113052380D01*
%TO.C,Q1*%
X118004761Y-130747619D02*
X117909523Y-130700000D01*
X117814285Y-130604761D01*
X117671428Y-130461904D01*
X117576190Y-130414285D01*
X117480952Y-130414285D01*
X117528571Y-130652380D02*
X117433333Y-130604761D01*
X117338095Y-130509523D01*
X117290476Y-130319047D01*
X117290476Y-129985714D01*
X117338095Y-129795238D01*
X117433333Y-129700000D01*
X117528571Y-129652380D01*
X117719047Y-129652380D01*
X117814285Y-129700000D01*
X117909523Y-129795238D01*
X117957142Y-129985714D01*
X117957142Y-130319047D01*
X117909523Y-130509523D01*
X117814285Y-130604761D01*
X117719047Y-130652380D01*
X117528571Y-130652380D01*
X118909523Y-130652380D02*
X118338095Y-130652380D01*
X118623809Y-130652380D02*
X118623809Y-129652380D01*
X118528571Y-129795238D01*
X118433333Y-129890476D01*
X118338095Y-129938095D01*
%TO.C,Q2*%
X131804761Y-130747619D02*
X131709523Y-130700000D01*
X131614285Y-130604761D01*
X131471428Y-130461904D01*
X131376190Y-130414285D01*
X131280952Y-130414285D01*
X131328571Y-130652380D02*
X131233333Y-130604761D01*
X131138095Y-130509523D01*
X131090476Y-130319047D01*
X131090476Y-129985714D01*
X131138095Y-129795238D01*
X131233333Y-129700000D01*
X131328571Y-129652380D01*
X131519047Y-129652380D01*
X131614285Y-129700000D01*
X131709523Y-129795238D01*
X131757142Y-129985714D01*
X131757142Y-130319047D01*
X131709523Y-130509523D01*
X131614285Y-130604761D01*
X131519047Y-130652380D01*
X131328571Y-130652380D01*
X132138095Y-129747619D02*
X132185714Y-129700000D01*
X132280952Y-129652380D01*
X132519047Y-129652380D01*
X132614285Y-129700000D01*
X132661904Y-129747619D01*
X132709523Y-129842857D01*
X132709523Y-129938095D01*
X132661904Y-130080952D01*
X132090476Y-130652380D01*
X132709523Y-130652380D01*
D11*
%TO.C,R2*%
X129040000Y-99440000D02*
X128270000Y-99440000D01*
X120960000Y-99440000D02*
X121730000Y-99440000D01*
X121730000Y-98070000D02*
X121730000Y-100810000D01*
X128270000Y-100810000D02*
X128270000Y-98070000D01*
X121730000Y-100810000D02*
X128270000Y-100810000D01*
X128270000Y-98070000D02*
X121730000Y-98070000D01*
%TO.C,REF\u002A\u002A*%
G36*
X143672928Y-126892351D02*
G01*
X143678684Y-126932079D01*
X143687419Y-126993511D01*
X143698465Y-127071893D01*
X143711154Y-127162468D01*
X143724818Y-127260484D01*
X143736748Y-127346450D01*
X143786222Y-127703730D01*
X143840877Y-127717061D01*
X143980592Y-127754530D01*
X144121397Y-127798439D01*
X144250437Y-127844734D01*
X144268561Y-127851864D01*
X144330169Y-127875617D01*
X144371894Y-127889329D01*
X144398143Y-127894062D01*
X144413323Y-127890878D01*
X144417245Y-127887667D01*
X144429571Y-127873860D01*
X144457325Y-127842384D01*
X144498362Y-127795683D01*
X144550539Y-127736202D01*
X144611711Y-127666384D01*
X144679734Y-127588676D01*
X144736877Y-127523344D01*
X144808490Y-127441459D01*
X144874672Y-127365815D01*
X144933330Y-127298800D01*
X144982371Y-127242807D01*
X145019702Y-127200223D01*
X145043230Y-127173439D01*
X145050717Y-127164985D01*
X145063224Y-127170141D01*
X145093471Y-127189803D01*
X145138463Y-127221641D01*
X145195203Y-127263325D01*
X145260699Y-127312524D01*
X145331953Y-127366908D01*
X145405973Y-127424147D01*
X145479762Y-127481911D01*
X145550327Y-127537870D01*
X145614671Y-127589694D01*
X145669800Y-127635051D01*
X145712720Y-127671613D01*
X145740435Y-127697049D01*
X145749951Y-127709025D01*
X145744911Y-127724569D01*
X145731431Y-127762063D01*
X145710626Y-127818516D01*
X145683610Y-127890934D01*
X145651498Y-127976329D01*
X145615404Y-128071706D01*
X145586020Y-128148967D01*
X145423926Y-128574273D01*
X145542087Y-128685505D01*
X145599905Y-128742552D01*
X145660859Y-128806988D01*
X145716211Y-128869390D01*
X145745249Y-128904651D01*
X145792770Y-128961672D01*
X145827438Y-128995787D01*
X145849098Y-129006846D01*
X145851113Y-129006537D01*
X145882965Y-128998361D01*
X145934840Y-128986261D01*
X146003200Y-128970973D01*
X146084507Y-128953232D01*
X146175224Y-128933774D01*
X146271813Y-128913333D01*
X146370735Y-128892647D01*
X146468453Y-128872449D01*
X146561430Y-128853475D01*
X146646127Y-128836461D01*
X146719007Y-128822142D01*
X146776531Y-128811254D01*
X146815163Y-128804531D01*
X146831364Y-128802710D01*
X146831488Y-128802746D01*
X146838885Y-128815925D01*
X146853763Y-128850469D01*
X146874711Y-128902563D01*
X146900317Y-128968387D01*
X146929168Y-129044125D01*
X146959852Y-129125958D01*
X146990956Y-129210070D01*
X147021068Y-129292641D01*
X147048777Y-129369855D01*
X147072670Y-129437893D01*
X147091334Y-129492938D01*
X147103357Y-129531172D01*
X147107342Y-129548460D01*
X147097739Y-129559140D01*
X147070551Y-129585388D01*
X147028150Y-129625017D01*
X146972905Y-129675841D01*
X146907185Y-129735672D01*
X146833361Y-129802326D01*
X146790090Y-129841165D01*
X146711849Y-129911256D01*
X146639433Y-129976140D01*
X146575392Y-130033531D01*
X146522278Y-130081144D01*
X146482640Y-130116693D01*
X146459030Y-130137890D01*
X146453948Y-130142469D01*
X146445855Y-130154062D01*
X146444192Y-130172366D01*
X146449637Y-130202806D01*
X146462869Y-130250809D01*
X146470786Y-130277103D01*
X146496077Y-130365667D01*
X146520922Y-130462745D01*
X146543672Y-130560980D01*
X146562677Y-130653013D01*
X146576287Y-130731485D01*
X146581279Y-130769965D01*
X146589749Y-130851602D01*
X146951999Y-130928139D01*
X147050307Y-130948902D01*
X147143175Y-130968503D01*
X147226463Y-130986069D01*
X147296032Y-131000727D01*
X147347742Y-131011604D01*
X147377423Y-131017821D01*
X147440597Y-131030967D01*
X147433997Y-131126735D01*
X147431485Y-131168243D01*
X147428127Y-131231092D01*
X147424188Y-131309937D01*
X147419933Y-131399434D01*
X147415624Y-131494238D01*
X147413785Y-131536102D01*
X147409551Y-131624990D01*
X147405031Y-131704816D01*
X147400499Y-131771761D01*
X147396232Y-131822005D01*
X147392504Y-131851728D01*
X147390597Y-131858165D01*
X147375760Y-131863310D01*
X147338112Y-131873980D01*
X147280786Y-131889355D01*
X147206914Y-131908613D01*
X147119630Y-131930936D01*
X147022066Y-131955501D01*
X146957789Y-131971499D01*
X146534558Y-132076369D01*
X146505274Y-132196965D01*
X146464048Y-132352753D01*
X146415412Y-132509000D01*
X146356154Y-132676152D01*
X146334079Y-132738965D01*
X146319446Y-132788209D01*
X146313328Y-132819882D01*
X146315014Y-132829727D01*
X146341576Y-132849214D01*
X146382831Y-132881489D01*
X146435758Y-132924021D01*
X146497336Y-132974278D01*
X146564545Y-133029727D01*
X146634363Y-133087838D01*
X146703770Y-133146078D01*
X146769744Y-133201916D01*
X146829265Y-133252818D01*
X146879312Y-133296254D01*
X146916864Y-133329691D01*
X146938900Y-133350597D01*
X146943465Y-133356461D01*
X146935394Y-133370520D01*
X146914539Y-133404266D01*
X146882633Y-133454965D01*
X146841410Y-133519886D01*
X146792601Y-133596296D01*
X146737941Y-133681462D01*
X146699293Y-133741464D01*
X146633665Y-133842262D01*
X146575424Y-133929809D01*
X146525832Y-134002307D01*
X146486151Y-134057955D01*
X146457640Y-134094953D01*
X146441561Y-134111501D01*
X146439538Y-134112231D01*
X146422324Y-134108091D01*
X146382869Y-134096765D01*
X146324365Y-134079227D01*
X146250003Y-134056452D01*
X146162974Y-134029412D01*
X146066468Y-133999082D01*
X146008292Y-133980647D01*
X145908511Y-133948808D01*
X145817087Y-133919395D01*
X145737081Y-133893412D01*
X145671554Y-133871862D01*
X145623566Y-133855748D01*
X145596178Y-133846075D01*
X145590919Y-133843793D01*
X145584321Y-133831128D01*
X145566644Y-133795668D01*
X145538486Y-133738640D01*
X145500443Y-133661271D01*
X145453113Y-133564787D01*
X145397094Y-133450415D01*
X145332983Y-133319381D01*
X145261377Y-133172913D01*
X145182874Y-133012236D01*
X145098071Y-132838577D01*
X145007565Y-132653163D01*
X144911954Y-132457220D01*
X144811836Y-132251976D01*
X144707807Y-132038656D01*
X144600465Y-131818487D01*
X144490407Y-131592696D01*
X144378231Y-131362510D01*
X144264535Y-131129155D01*
X144149915Y-130893857D01*
X144034969Y-130657843D01*
X143920295Y-130422341D01*
X143806489Y-130188576D01*
X143694149Y-129957774D01*
X143583873Y-129731164D01*
X143476258Y-129509970D01*
X143371901Y-129295421D01*
X143271400Y-129088742D01*
X143175352Y-128891160D01*
X143084355Y-128703901D01*
X142999005Y-128528193D01*
X142919901Y-128365262D01*
X142847639Y-128216334D01*
X142782818Y-128082636D01*
X142726034Y-127965395D01*
X142677885Y-127865837D01*
X142638968Y-127785189D01*
X142609880Y-127724677D01*
X142591220Y-127685528D01*
X142583584Y-127668969D01*
X142583543Y-127668863D01*
X142577491Y-127652112D01*
X142573577Y-127635749D01*
X142572344Y-127616495D01*
X142574335Y-127591066D01*
X142580094Y-127556182D01*
X142590162Y-127508560D01*
X142605084Y-127444920D01*
X142625403Y-127361978D01*
X142651662Y-127256453D01*
X142652054Y-127254878D01*
X142676190Y-127158219D01*
X142698840Y-127067710D01*
X142719015Y-126987289D01*
X142735726Y-126920891D01*
X142747985Y-126872454D01*
X142754801Y-126845913D01*
X142754881Y-126845610D01*
X142768117Y-126795531D01*
X143658583Y-126795531D01*
X143672928Y-126892351D01*
G37*
G36*
X144142587Y-135502577D02*
G01*
X143368034Y-135502577D01*
X143368034Y-135996688D01*
X144022398Y-135996688D01*
X144022398Y-136170295D01*
X143368034Y-136170295D01*
X143368034Y-136744532D01*
X144169296Y-136744532D01*
X144169296Y-136918139D01*
X143167719Y-136918139D01*
X143167719Y-135342324D01*
X144142587Y-135342324D01*
X144142587Y-135502577D01*
G37*
G36*
X146155068Y-135317770D02*
G01*
X146269245Y-135346237D01*
X146358289Y-135383429D01*
X146410519Y-135411920D01*
X146457570Y-135441696D01*
X146490825Y-135467208D01*
X146495455Y-135471720D01*
X146531211Y-135509254D01*
X146480817Y-135568137D01*
X146430424Y-135627020D01*
X146350046Y-135577408D01*
X146297954Y-135548324D01*
X146243611Y-135522757D01*
X146205583Y-135508509D01*
X146147826Y-135496773D01*
X146077781Y-135490684D01*
X146005606Y-135490381D01*
X145941460Y-135496000D01*
X145904017Y-135504421D01*
X145834364Y-135538474D01*
X145781070Y-135586129D01*
X145746225Y-135643104D01*
X145731917Y-135705120D01*
X145740236Y-135767898D01*
X145757378Y-135804842D01*
X145782395Y-135838776D01*
X145816040Y-135870139D01*
X145862123Y-135901377D01*
X145924457Y-135934939D01*
X146006854Y-135973273D01*
X146046736Y-135990686D01*
X146162966Y-136041352D01*
X146257223Y-136084141D01*
X146332412Y-136120894D01*
X146391438Y-136153454D01*
X146437205Y-136183662D01*
X146472618Y-136213360D01*
X146500582Y-136244389D01*
X146524002Y-136278593D01*
X146537240Y-136301695D01*
X146573028Y-136393905D01*
X146584819Y-136490462D01*
X146573817Y-136586877D01*
X146541230Y-136678662D01*
X146488264Y-136761327D01*
X146416127Y-136830384D01*
X146390344Y-136848147D01*
X146318566Y-136887887D01*
X146245645Y-136914915D01*
X146163570Y-136931409D01*
X146064331Y-136939545D01*
X146052261Y-136940014D01*
X145972914Y-136941130D01*
X145909617Y-136937393D01*
X145852001Y-136927873D01*
X145814576Y-136918656D01*
X145695905Y-136876988D01*
X145588164Y-136820371D01*
X145508335Y-136761137D01*
X145451843Y-136711147D01*
X145511133Y-136644375D01*
X145546186Y-136607596D01*
X145569906Y-136590115D01*
X145586168Y-136589273D01*
X145588994Y-136590957D01*
X145682326Y-136654701D01*
X145763120Y-136701593D01*
X145837192Y-136734182D01*
X145910360Y-136755017D01*
X145988441Y-136766648D01*
X145990344Y-136766827D01*
X146080261Y-136766683D01*
X146166501Y-136750856D01*
X146243689Y-136721461D01*
X146306450Y-136680611D01*
X146349409Y-136630419D01*
X146352748Y-136624316D01*
X146369628Y-136569300D01*
X146372699Y-136504593D01*
X146362484Y-136441717D01*
X146342401Y-136396273D01*
X146325160Y-136372970D01*
X146305076Y-136351966D01*
X146278891Y-136331352D01*
X146243344Y-136309222D01*
X146195177Y-136283669D01*
X146131130Y-136252786D01*
X146047944Y-136214665D01*
X145979633Y-136184016D01*
X145869010Y-136133039D01*
X145780551Y-136088211D01*
X145711082Y-136047243D01*
X145657428Y-136007843D01*
X145616412Y-135967722D01*
X145584859Y-135924589D01*
X145562922Y-135883447D01*
X145540205Y-135811241D01*
X145531246Y-135728919D01*
X145536762Y-135648794D01*
X145546913Y-135608066D01*
X145590131Y-135520561D01*
X145653423Y-135446873D01*
X145733478Y-135387917D01*
X145826982Y-135344612D01*
X145930624Y-135317874D01*
X146041090Y-135308621D01*
X146155068Y-135317770D01*
G37*
G36*
X143412246Y-132593045D02*
G01*
X143568487Y-132593293D01*
X143705954Y-132593829D01*
X143825969Y-132594701D01*
X143929854Y-132595955D01*
X144018933Y-132597636D01*
X144094527Y-132599792D01*
X144157959Y-132602468D01*
X144210551Y-132605710D01*
X144253627Y-132609566D01*
X144288507Y-132614081D01*
X144316515Y-132619301D01*
X144338973Y-132625272D01*
X144357203Y-132632042D01*
X144372529Y-132639655D01*
X144386271Y-132648159D01*
X144399753Y-132657600D01*
X144414298Y-132668024D01*
X144414796Y-132668374D01*
X144425462Y-132676955D01*
X144437063Y-132689035D01*
X144450493Y-132706254D01*
X144466644Y-132730254D01*
X144486408Y-132762676D01*
X144510679Y-132805162D01*
X144540350Y-132859352D01*
X144576312Y-132926888D01*
X144619459Y-133009411D01*
X144670683Y-133108563D01*
X144730877Y-133225984D01*
X144800934Y-133363316D01*
X144881747Y-133522201D01*
X144917662Y-133592903D01*
X145368665Y-134480968D01*
X145199659Y-134489449D01*
X145121007Y-134493177D01*
X145026716Y-134497311D01*
X144927842Y-134501382D01*
X144835440Y-134504925D01*
X144822576Y-134505390D01*
X144614500Y-134512851D01*
X144465600Y-134209791D01*
X144412846Y-134101539D01*
X144371386Y-134013652D01*
X144340213Y-133942788D01*
X144318318Y-133885603D01*
X144304697Y-133838756D01*
X144298339Y-133798903D01*
X144298240Y-133762703D01*
X144303391Y-133726813D01*
X144310698Y-133695759D01*
X144329221Y-133576123D01*
X144322402Y-133460149D01*
X144291007Y-133350656D01*
X144235805Y-133250464D01*
X144168083Y-133172170D01*
X144099782Y-133112932D01*
X144036629Y-133073419D01*
X143970373Y-133050256D01*
X143892761Y-133040064D01*
X143842114Y-133038764D01*
X143780009Y-133039792D01*
X143734383Y-133044323D01*
X143695046Y-133054399D01*
X143651809Y-133072064D01*
X143633474Y-133080605D01*
X143538683Y-133134958D01*
X143465121Y-133199673D01*
X143407936Y-133279356D01*
X143391534Y-133310325D01*
X143370723Y-133354936D01*
X143357861Y-133391692D01*
X143351082Y-133429878D01*
X143348521Y-133478776D01*
X143348244Y-133525896D01*
X143349485Y-133591325D01*
X143353954Y-133639125D01*
X143363210Y-133678328D01*
X143378812Y-133717962D01*
X143382980Y-133727056D01*
X143435729Y-133817239D01*
X143505533Y-133894423D01*
X143580710Y-133953264D01*
X143638742Y-133995489D01*
X143685219Y-134036429D01*
X143724136Y-134081423D01*
X143759489Y-134135810D01*
X143795274Y-134204931D01*
X143835051Y-134293116D01*
X143862990Y-134357845D01*
X143886720Y-134413345D01*
X143904402Y-134455273D01*
X143914197Y-134479290D01*
X143915563Y-134483248D01*
X143902793Y-134484428D01*
X143866823Y-134485489D01*
X143811161Y-134486385D01*
X143739316Y-134487073D01*
X143654794Y-134487507D01*
X143568735Y-134487645D01*
X143221907Y-134487645D01*
X143159895Y-134370794D01*
X143139770Y-134332424D01*
X143109275Y-134273684D01*
X143070173Y-134197997D01*
X143024227Y-134108786D01*
X142973199Y-134009475D01*
X142918852Y-133903488D01*
X142862950Y-133794248D01*
X142855698Y-133780058D01*
X142792908Y-133657607D01*
X142740718Y-133556881D01*
X142697868Y-133475676D01*
X142663101Y-133411786D01*
X142635157Y-133363005D01*
X142612779Y-133327125D01*
X142594708Y-133301943D01*
X142579687Y-133285251D01*
X142568136Y-133275931D01*
X142522759Y-133245689D01*
X140793409Y-133245689D01*
X140755301Y-133290065D01*
X140741850Y-133310687D01*
X140717934Y-133352755D01*
X140684872Y-133413749D01*
X140643983Y-133491145D01*
X140596585Y-133582423D01*
X140543998Y-133685061D01*
X140487541Y-133796537D01*
X140428532Y-133914329D01*
X140423518Y-133924397D01*
X140129844Y-134514354D01*
X139772493Y-134514354D01*
X139677935Y-134514121D01*
X139592769Y-134513463D01*
X139520451Y-134512444D01*
X139464436Y-134511127D01*
X139428182Y-134509575D01*
X139415144Y-134507851D01*
X139415142Y-134507833D01*
X139420943Y-134495113D01*
X139437726Y-134460374D01*
X139464561Y-134405498D01*
X139500515Y-134332370D01*
X139544660Y-134242874D01*
X139596064Y-134138896D01*
X139653798Y-134022319D01*
X139716929Y-133895027D01*
X139784528Y-133758906D01*
X139852498Y-133622205D01*
X139924111Y-133478195D01*
X139992614Y-133340316D01*
X140057019Y-133210563D01*
X140116339Y-133090933D01*
X140169585Y-132983421D01*
X140215770Y-132890023D01*
X140253906Y-132812734D01*
X140283005Y-132753551D01*
X140302080Y-132714468D01*
X140309885Y-132698074D01*
X140334700Y-132658703D01*
X140366809Y-132626124D01*
X140367618Y-132625526D01*
X140373087Y-132621717D01*
X140379416Y-132618274D01*
X140387925Y-132615176D01*
X140399934Y-132612402D01*
X140416761Y-132609931D01*
X140439726Y-132607741D01*
X140470148Y-132605812D01*
X140509347Y-132604122D01*
X140558641Y-132602650D01*
X140619351Y-132601375D01*
X140692796Y-132600277D01*
X140780294Y-132599333D01*
X140883165Y-132598522D01*
X141002729Y-132597825D01*
X141140304Y-132597218D01*
X141297211Y-132596682D01*
X141474768Y-132596196D01*
X141674294Y-132595737D01*
X141897110Y-132595285D01*
X142144534Y-132594819D01*
X142303144Y-132594528D01*
X142573092Y-132594023D01*
X142817654Y-132593576D01*
X143038152Y-132593233D01*
X143235909Y-132593041D01*
X143412246Y-132593045D01*
G37*
G36*
X141721069Y-127376760D02*
G01*
X141784912Y-127404009D01*
X141834370Y-127444912D01*
X141843959Y-127460797D01*
X141864719Y-127499411D01*
X141896029Y-127559517D01*
X141937270Y-127639880D01*
X141987821Y-127739263D01*
X142047063Y-127856430D01*
X142114375Y-127990144D01*
X142189138Y-128139168D01*
X142270732Y-128302267D01*
X142358537Y-128478204D01*
X142451933Y-128665742D01*
X142550301Y-128863646D01*
X142653019Y-129070678D01*
X142759469Y-129285602D01*
X142869031Y-129507183D01*
X142914845Y-129599948D01*
X143047996Y-129869633D01*
X143169823Y-130116412D01*
X143280804Y-130341341D01*
X143381416Y-130545474D01*
X143472136Y-130729866D01*
X143553440Y-130895572D01*
X143625806Y-131043648D01*
X143689710Y-131175148D01*
X143745631Y-131291127D01*
X143794044Y-131392639D01*
X143835427Y-131480741D01*
X143870258Y-131556487D01*
X143899012Y-131620931D01*
X143922167Y-131675129D01*
X143940201Y-131720136D01*
X143953589Y-131757006D01*
X143962810Y-131786795D01*
X143968340Y-131810558D01*
X143970656Y-131829348D01*
X143970236Y-131844223D01*
X143967556Y-131856235D01*
X143963093Y-131866441D01*
X143957325Y-131875895D01*
X143950728Y-131885652D01*
X143949368Y-131887707D01*
X143923337Y-131913192D01*
X143883685Y-131937706D01*
X143864401Y-131946286D01*
X143853512Y-131950053D01*
X143840460Y-131953405D01*
X143823717Y-131956368D01*
X143801755Y-131958966D01*
X143773049Y-131961221D01*
X143736071Y-131963159D01*
X143689295Y-131964804D01*
X143631192Y-131966178D01*
X143560237Y-131967306D01*
X143474902Y-131968212D01*
X143373661Y-131968920D01*
X143254986Y-131969454D01*
X143117350Y-131969838D01*
X142959228Y-131970095D01*
X142779090Y-131970250D01*
X142575411Y-131970326D01*
X142346664Y-131970347D01*
X140855228Y-131970347D01*
X140816258Y-131926735D01*
X140793840Y-131898206D01*
X140781825Y-131870402D01*
X140779805Y-131836803D01*
X140787367Y-131790893D01*
X140803713Y-131727553D01*
X140820052Y-131676162D01*
X140843759Y-131611239D01*
X140872301Y-131538784D01*
X140903147Y-131464797D01*
X140933766Y-131395279D01*
X140961625Y-131336228D01*
X140984193Y-131293645D01*
X140991931Y-131281477D01*
X141016131Y-131257654D01*
X141055758Y-131228836D01*
X141100461Y-131202257D01*
X141192111Y-131143505D01*
X141272901Y-131072181D01*
X141337151Y-130993925D01*
X141371450Y-130933226D01*
X141388668Y-130892264D01*
X141399015Y-130857506D01*
X141403797Y-130820172D01*
X141404321Y-130771483D01*
X141402735Y-130722963D01*
X141398689Y-130655047D01*
X141391709Y-130604699D01*
X141379927Y-130562797D01*
X141361477Y-130520222D01*
X141361023Y-130519291D01*
X141310720Y-130441379D01*
X141241316Y-130368755D01*
X141160351Y-130308615D01*
X141114059Y-130283666D01*
X141072416Y-130266089D01*
X141033908Y-130255355D01*
X140989386Y-130249852D01*
X140929701Y-130247970D01*
X140910831Y-130247876D01*
X140848976Y-130248501D01*
X140804991Y-130251852D01*
X140770055Y-130259721D01*
X140735346Y-130273899D01*
X140703838Y-130289919D01*
X140611699Y-130351637D01*
X140532044Y-130430810D01*
X140471213Y-130520872D01*
X140461016Y-130541430D01*
X140441544Y-130587830D01*
X140430301Y-130629537D01*
X140425247Y-130677309D01*
X140424306Y-130735069D01*
X140425912Y-130799603D01*
X140429741Y-130864917D01*
X140435010Y-130918106D01*
X140435758Y-130923447D01*
X140439650Y-130999525D01*
X140430584Y-131047352D01*
X140423377Y-131063324D01*
X140405193Y-131101381D01*
X140376841Y-131159882D01*
X140339136Y-131237187D01*
X140292888Y-131331652D01*
X140238910Y-131441639D01*
X140178015Y-131565504D01*
X140111014Y-131701608D01*
X140038719Y-131848309D01*
X139961943Y-132003965D01*
X139881498Y-132166935D01*
X139798195Y-132335578D01*
X139712848Y-132508254D01*
X139626268Y-132683320D01*
X139539268Y-132859135D01*
X139452659Y-133034059D01*
X139367254Y-133206449D01*
X139283865Y-133374666D01*
X139203303Y-133537066D01*
X139126382Y-133692011D01*
X139053914Y-133837857D01*
X138986710Y-133972964D01*
X138925583Y-134095690D01*
X138871344Y-134204395D01*
X138824807Y-134297437D01*
X138786782Y-134373175D01*
X138758083Y-134429968D01*
X138739522Y-134466174D01*
X138731910Y-134480153D01*
X138731826Y-134480243D01*
X138717848Y-134481509D01*
X138680640Y-134483225D01*
X138623675Y-134485275D01*
X138550425Y-134487545D01*
X138464363Y-134489921D01*
X138368961Y-134492287D01*
X138362064Y-134492449D01*
X138253048Y-134494849D01*
X138167956Y-134496309D01*
X138104019Y-134496739D01*
X138058464Y-134496050D01*
X138028523Y-134494154D01*
X138011424Y-134490962D01*
X138004397Y-134486385D01*
X138004407Y-134480973D01*
X138012278Y-134464208D01*
X138031508Y-134425059D01*
X138061455Y-134364798D01*
X138101472Y-134284699D01*
X138150917Y-134186036D01*
X138209145Y-134070083D01*
X138275510Y-133938113D01*
X138349369Y-133791400D01*
X138430078Y-133631217D01*
X138516991Y-133458839D01*
X138609464Y-133275538D01*
X138706853Y-133082589D01*
X138808514Y-132881264D01*
X138913801Y-132672839D01*
X139022071Y-132458585D01*
X139132679Y-132239778D01*
X139244981Y-132017690D01*
X139358331Y-131793596D01*
X139472087Y-131568768D01*
X139585602Y-131344481D01*
X139698234Y-131122009D01*
X139809337Y-130902624D01*
X139918266Y-130687600D01*
X140024378Y-130478212D01*
X140127028Y-130275732D01*
X140225572Y-130081435D01*
X140319364Y-129896594D01*
X140407761Y-129722483D01*
X140490119Y-129560375D01*
X140565792Y-129411544D01*
X140634136Y-129277264D01*
X140694508Y-129158807D01*
X140746261Y-129057449D01*
X140788753Y-128974463D01*
X140821338Y-128911121D01*
X140843371Y-128868699D01*
X140854210Y-128848469D01*
X140855179Y-128846922D01*
X140883234Y-128823999D01*
X140920002Y-128803702D01*
X140920847Y-128803341D01*
X140956336Y-128792166D01*
X140987147Y-128795647D01*
X141007650Y-128803463D01*
X141047928Y-128826712D01*
X141081540Y-128855051D01*
X141092063Y-128871887D01*
X141113199Y-128910361D01*
X141143782Y-128968143D01*
X141182646Y-129042901D01*
X141228622Y-129132304D01*
X141280545Y-129234021D01*
X141337247Y-129345720D01*
X141397561Y-129465070D01*
X141460320Y-129589739D01*
X141524357Y-129717398D01*
X141588505Y-129845713D01*
X141651597Y-129972354D01*
X141712467Y-130094990D01*
X141769947Y-130211289D01*
X141822870Y-130318920D01*
X141870069Y-130415552D01*
X141910377Y-130498854D01*
X141942627Y-130566494D01*
X141965652Y-130616140D01*
X141978286Y-130645463D01*
X141979594Y-130649073D01*
X141987665Y-130688906D01*
X141993635Y-130751708D01*
X141997230Y-130833802D01*
X141998158Y-130895321D01*
X141998819Y-130971772D01*
X142000404Y-131027301D01*
X142003772Y-131067692D01*
X142009781Y-131098733D01*
X142019286Y-131126208D01*
X142033147Y-131155905D01*
X142038283Y-131166115D01*
X142094433Y-131250989D01*
X142169925Y-131327005D01*
X142257460Y-131387186D01*
X142283418Y-131400382D01*
X142324744Y-131418003D01*
X142362677Y-131428759D01*
X142406323Y-131434255D01*
X142464788Y-131436094D01*
X142486646Y-131436173D01*
X142549835Y-131435278D01*
X142595750Y-131431381D01*
X142633800Y-131422662D01*
X142673393Y-131407300D01*
X142700316Y-131394847D01*
X142799454Y-131333764D01*
X142879906Y-131254404D01*
X142936938Y-131164594D01*
X142954484Y-131125988D01*
X142965464Y-131091427D01*
X142971357Y-131052526D01*
X142973647Y-131000901D01*
X142973903Y-130955416D01*
X142972898Y-130889502D01*
X142969113Y-130841686D01*
X142961087Y-130803393D01*
X142947356Y-130766044D01*
X142938113Y-130745511D01*
X142901665Y-130682324D01*
X142853098Y-130618586D01*
X142799016Y-130561728D01*
X142746026Y-130519183D01*
X142727025Y-130508045D01*
X142706905Y-130497499D01*
X142688167Y-130486440D01*
X142670026Y-130473485D01*
X142651700Y-130457250D01*
X142632406Y-130436353D01*
X142611361Y-130409410D01*
X142587782Y-130375039D01*
X142560885Y-130331856D01*
X142529888Y-130278479D01*
X142494008Y-130213525D01*
X142452461Y-130135611D01*
X142404466Y-130043353D01*
X142349237Y-129935369D01*
X142285994Y-129810276D01*
X142213952Y-129666691D01*
X142132328Y-129503231D01*
X142040340Y-129318513D01*
X141945042Y-129126915D01*
X141829613Y-128894377D01*
X141726387Y-128685560D01*
X141635350Y-128500433D01*
X141556488Y-128338967D01*
X141489786Y-128201131D01*
X141435229Y-128086896D01*
X141392804Y-127996230D01*
X141362495Y-127929105D01*
X141344289Y-127885491D01*
X141338171Y-127865357D01*
X141338171Y-127865302D01*
X141345617Y-127813885D01*
X141368437Y-127747785D01*
X141407357Y-127665296D01*
X141463099Y-127564710D01*
X141472469Y-127548778D01*
X141519087Y-127474384D01*
X141557791Y-127421868D01*
X141587611Y-127392516D01*
X141593011Y-127389228D01*
X141655043Y-127371358D01*
X141721069Y-127376760D01*
G37*
G36*
X138408748Y-136122923D02*
G01*
X138671018Y-135342324D01*
X138905468Y-135342324D01*
X138926542Y-135399080D01*
X138934616Y-135422032D01*
X138950335Y-135467844D01*
X138972864Y-135534046D01*
X139001370Y-135618171D01*
X139035019Y-135717751D01*
X139072976Y-135830317D01*
X139114407Y-135953403D01*
X139158477Y-136084540D01*
X139192860Y-136186988D01*
X139438104Y-136918139D01*
X139220669Y-136918139D01*
X139074543Y-136444059D01*
X138786823Y-136440468D01*
X138499104Y-136436876D01*
X138425098Y-136674169D01*
X138351093Y-136911462D01*
X138248785Y-136915362D01*
X138200372Y-136916265D01*
X138164329Y-136915140D01*
X138147103Y-136912238D01*
X138146478Y-136911393D01*
X138150618Y-136897676D01*
X138162555Y-136860835D01*
X138181561Y-136803054D01*
X138206908Y-136726521D01*
X138237870Y-136633422D01*
X138273719Y-136525944D01*
X138313727Y-136406274D01*
X138357167Y-136276597D01*
X138361976Y-136262269D01*
X138560463Y-136262269D01*
X138571110Y-136268353D01*
X138603918Y-136272777D01*
X138660190Y-136275624D01*
X138741231Y-136276982D01*
X138787487Y-136277130D01*
X138881347Y-136276399D01*
X138949542Y-136274164D01*
X138993075Y-136270360D01*
X139012952Y-136264921D01*
X139014511Y-136262460D01*
X139010738Y-136246027D01*
X139000148Y-136207820D01*
X138983834Y-136151576D01*
X138962889Y-136081033D01*
X138938406Y-135999928D01*
X138921721Y-135945294D01*
X138894453Y-135855875D01*
X138868977Y-135771350D01*
X138846643Y-135696274D01*
X138828802Y-135635206D01*
X138816804Y-135592703D01*
X138813301Y-135579364D01*
X138802497Y-135542713D01*
X138792332Y-135519802D01*
X138788091Y-135515931D01*
X138779966Y-135527755D01*
X138768080Y-135558666D01*
X138755743Y-135599396D01*
X138744960Y-135637365D01*
X138727871Y-135695647D01*
X138706032Y-135769030D01*
X138680995Y-135852299D01*
X138654315Y-135940243D01*
X138646719Y-135965135D01*
X138621589Y-136048022D01*
X138599341Y-136122640D01*
X138581105Y-136185099D01*
X138568011Y-136231507D01*
X138561188Y-136257974D01*
X138560463Y-136262269D01*
X138361976Y-136262269D01*
X138403313Y-136139102D01*
X138408748Y-136122923D01*
G37*
G36*
X141061068Y-135345312D02*
G01*
X141171702Y-135347010D01*
X141259195Y-135349025D01*
X141327116Y-135351601D01*
X141379034Y-135354982D01*
X141418516Y-135359412D01*
X141449130Y-135365135D01*
X141474445Y-135372396D01*
X141478674Y-135373871D01*
X141573402Y-135419821D01*
X141650394Y-135482712D01*
X141704925Y-135557055D01*
X141724489Y-135596223D01*
X141736957Y-135632657D01*
X141744313Y-135675202D01*
X141748540Y-135732704D01*
X141749579Y-135756310D01*
X141751063Y-135822776D01*
X141748497Y-135872153D01*
X141740743Y-135913903D01*
X141726662Y-135957486D01*
X141724786Y-135962513D01*
X141677670Y-136050759D01*
X141609477Y-136125198D01*
X141523810Y-136182235D01*
X141488775Y-136198060D01*
X141405679Y-136231289D01*
X141511585Y-136414532D01*
X141558196Y-136495056D01*
X141609924Y-136584216D01*
X141660910Y-136671927D01*
X141705297Y-136748105D01*
X141711049Y-136757957D01*
X141804606Y-136918139D01*
X141688239Y-136917716D01*
X141571872Y-136917292D01*
X141197220Y-136257098D01*
X141054025Y-136253308D01*
X140910831Y-136249517D01*
X140910831Y-136918139D01*
X140710516Y-136918139D01*
X140710516Y-136093474D01*
X140910831Y-136093474D01*
X141107808Y-136086740D01*
X141209817Y-136081731D01*
X141287708Y-136074372D01*
X141343991Y-136064381D01*
X141366746Y-136057625D01*
X141428196Y-136025573D01*
X141483451Y-135979092D01*
X141524756Y-135925551D01*
X141539475Y-135893535D01*
X141546726Y-135855612D01*
X141550246Y-135803465D01*
X141549609Y-135756955D01*
X141544332Y-135701604D01*
X141533874Y-135662264D01*
X141514955Y-135628306D01*
X141506218Y-135616367D01*
X141474907Y-135580507D01*
X141440107Y-135553313D01*
X141397605Y-135533542D01*
X141343187Y-135519953D01*
X141272640Y-135511304D01*
X141181751Y-135506355D01*
X141127840Y-135504890D01*
X140910831Y-135500279D01*
X140910831Y-136093474D01*
X140710516Y-136093474D01*
X140710516Y-135340707D01*
X141061068Y-135345312D01*
G37*
%TO.C,F1*%
X127000000Y-132500000D02*
X126500000Y-132500000D01*
X126500000Y-132500000D02*
X126000000Y-133000000D01*
X124000000Y-133000000D02*
X123500000Y-132500000D01*
X124000000Y-136000000D02*
X125000000Y-135000000D01*
X126500000Y-135500000D02*
X128500000Y-135500000D01*
X125000000Y-135500000D02*
X126000000Y-136500000D01*
X121500000Y-135500000D02*
X123500000Y-135500000D01*
X124000000Y-136500000D02*
X125000000Y-135500000D01*
X125000000Y-135000000D02*
X126000000Y-136000000D01*
X121500000Y-132500000D02*
X121500000Y-135500000D01*
X128500000Y-132500000D02*
X127000000Y-132500000D01*
X126000000Y-135000000D02*
X126500000Y-135500000D01*
X123500000Y-135500000D02*
X124000000Y-135000000D01*
X123500000Y-132500000D02*
X121500000Y-132500000D01*
X128500000Y-135500000D02*
X128500000Y-132500000D01*
%TO.C,C1*%
X125711252Y-120450000D02*
X124288748Y-120450000D01*
X125711252Y-122270000D02*
X124288748Y-122270000D01*
%TO.C,C2*%
X125711252Y-125020000D02*
X124288748Y-125020000D01*
X125711252Y-123200000D02*
X124288748Y-123200000D01*
%TO.C,D1*%
X115980000Y-128000000D02*
G75*
G03*
X115980000Y-128000000I-2500000J0D01*
G01*
X116040000Y-126455170D02*
G75*
G03*
X110490000Y-128000462I-2560000J-1544830D01*
G01*
X110490000Y-127999538D02*
G75*
G03*
X116040000Y-129544830I2990000J-462D01*
G01*
X116040000Y-129545000D02*
X116040000Y-126455000D01*
%TO.C,D2*%
X139020000Y-128000000D02*
G75*
G03*
X139020000Y-128000000I-2500000J0D01*
G01*
X133960000Y-129544830D02*
G75*
G03*
X139510000Y-127999538I2560000J1544830D01*
G01*
X139510000Y-128000462D02*
G75*
G03*
X133960000Y-126455170I-2990000J462D01*
G01*
X133960000Y-126455000D02*
X133960000Y-129545000D01*
%TO.C,D3*%
X106955000Y-95565000D02*
X110045000Y-95565000D01*
X108500462Y-90015000D02*
G75*
G03*
X106955170Y-95565000I-462J-2990000D01*
G01*
X110044830Y-95565000D02*
G75*
G03*
X108499538Y-90015000I-1544830J2560000D01*
G01*
X111000000Y-93005000D02*
G75*
G03*
X111000000Y-93005000I-2500000J0D01*
G01*
%TO.C,D4*%
X139955000Y-95565000D02*
X143045000Y-95565000D01*
X141500462Y-90015000D02*
G75*
G03*
X139955170Y-95565000I-462J-2990000D01*
G01*
X143044830Y-95565000D02*
G75*
G03*
X141499538Y-90015000I-1544830J2560000D01*
G01*
X144000000Y-93005000D02*
G75*
G03*
X144000000Y-93005000I-2500000J0D01*
G01*
%TO.C,J1*%
X131815000Y-85332071D02*
X131815000Y-84935000D01*
X136895000Y-76275000D02*
X136895000Y-82275000D01*
X120895000Y-76275000D02*
X121655000Y-76275000D01*
X125975000Y-85332071D02*
X125975000Y-84935000D01*
X124195000Y-76275000D02*
X124195000Y-82275000D01*
X128515000Y-76275000D02*
X129275000Y-76275000D01*
X113275000Y-85265000D02*
X113275000Y-84935000D01*
X116575000Y-76275000D02*
X116575000Y-82275000D01*
X127625000Y-84935000D02*
X127625000Y-82275000D01*
X119115000Y-76275000D02*
X119115000Y-82275000D01*
X120005000Y-84935000D02*
X120005000Y-82275000D01*
X137845000Y-82275000D02*
X112325000Y-82275000D01*
X116575000Y-85332071D02*
X116575000Y-84935000D01*
X114035000Y-85265000D02*
X114035000Y-84935000D01*
X123435000Y-82275000D02*
X123435000Y-76275000D01*
X112325000Y-84935000D02*
X137845000Y-84935000D01*
X113275000Y-76275000D02*
X114035000Y-76275000D01*
X113335000Y-82275000D02*
X113335000Y-76275000D01*
X120895000Y-85332071D02*
X120895000Y-84935000D01*
X113275000Y-82275000D02*
X113275000Y-76275000D01*
X136135000Y-82275000D02*
X136135000Y-76275000D01*
X123435000Y-85332071D02*
X123435000Y-84935000D01*
X113695000Y-82275000D02*
X113695000Y-76275000D01*
X115815000Y-85332071D02*
X115815000Y-84935000D01*
X121655000Y-85332071D02*
X121655000Y-84935000D01*
X134355000Y-85332071D02*
X134355000Y-84935000D01*
X114035000Y-76275000D02*
X114035000Y-82275000D01*
X125975000Y-76275000D02*
X126735000Y-76275000D01*
X131055000Y-85332071D02*
X131055000Y-84935000D01*
X126735000Y-85332071D02*
X126735000Y-84935000D01*
X126735000Y-76275000D02*
X126735000Y-82275000D01*
X120895000Y-82275000D02*
X120895000Y-76275000D01*
X130165000Y-84935000D02*
X130165000Y-82275000D01*
X129275000Y-76275000D02*
X129275000Y-82275000D01*
X128515000Y-85332071D02*
X128515000Y-84935000D01*
X113815000Y-82275000D02*
X113815000Y-76275000D01*
X136895000Y-85332071D02*
X136895000Y-84935000D01*
X125085000Y-84935000D02*
X125085000Y-82275000D01*
X134355000Y-76275000D02*
X134355000Y-82275000D01*
X133595000Y-76275000D02*
X134355000Y-76275000D01*
X136135000Y-85332071D02*
X136135000Y-84935000D01*
X123435000Y-76275000D02*
X124195000Y-76275000D01*
X128515000Y-82275000D02*
X128515000Y-76275000D01*
X118355000Y-76275000D02*
X119115000Y-76275000D01*
X112385000Y-87645000D02*
X112385000Y-86375000D01*
X124195000Y-85332071D02*
X124195000Y-84935000D01*
X118355000Y-85332071D02*
X118355000Y-84935000D01*
X131815000Y-76275000D02*
X131815000Y-82275000D01*
X125975000Y-82275000D02*
X125975000Y-76275000D01*
X129275000Y-85332071D02*
X129275000Y-84935000D01*
X133595000Y-85332071D02*
X133595000Y-84935000D01*
X137845000Y-84935000D02*
X137845000Y-82275000D01*
X121655000Y-76275000D02*
X121655000Y-82275000D01*
X114925000Y-84935000D02*
X114925000Y-82275000D01*
X133595000Y-82275000D02*
X133595000Y-76275000D01*
X131055000Y-76275000D02*
X131815000Y-76275000D01*
X112325000Y-82275000D02*
X112325000Y-84935000D01*
X115815000Y-76275000D02*
X116575000Y-76275000D01*
X132705000Y-84935000D02*
X132705000Y-82275000D01*
X131055000Y-82275000D02*
X131055000Y-76275000D01*
X113655000Y-87645000D02*
X112385000Y-87645000D01*
X122545000Y-84935000D02*
X122545000Y-82275000D01*
X119115000Y-85332071D02*
X119115000Y-84935000D01*
X117465000Y-84935000D02*
X117465000Y-82275000D01*
X135245000Y-84935000D02*
X135245000Y-82275000D01*
X118355000Y-82275000D02*
X118355000Y-76275000D01*
X113455000Y-82275000D02*
X113455000Y-76275000D01*
X113935000Y-82275000D02*
X113935000Y-76275000D01*
X115815000Y-82275000D02*
X115815000Y-76275000D01*
X113575000Y-82275000D02*
X113575000Y-76275000D01*
X136135000Y-76275000D02*
X136895000Y-76275000D01*
%TO.C,LS1*%
X131100000Y-111500000D02*
G75*
G03*
X131100000Y-111500000I-6100000J0D01*
G01*
%TO.C,R1*%
X117870000Y-96435000D02*
G75*
G03*
X117870000Y-96435000I-1370000J0D01*
G01*
X116500000Y-97805000D02*
X116500000Y-97875000D01*
%TO.C,R4*%
X111015000Y-121772936D02*
X111015000Y-122227064D01*
X112485000Y-121772936D02*
X112485000Y-122227064D01*
%TO.C,R5*%
X114015000Y-121772936D02*
X114015000Y-122227064D01*
X115485000Y-121772936D02*
X115485000Y-122227064D01*
%TO.C,R6*%
X134515000Y-121772936D02*
X134515000Y-122227064D01*
X135985000Y-121772936D02*
X135985000Y-122227064D01*
%TO.C,R7*%
X137515000Y-121772936D02*
X137515000Y-122227064D01*
X138985000Y-121772936D02*
X138985000Y-122227064D01*
%TO.C,R8*%
X109185436Y-99485000D02*
X109639564Y-99485000D01*
X109185436Y-98015000D02*
X109639564Y-98015000D01*
%TO.C,R9*%
X140814564Y-99485000D02*
X140360436Y-99485000D01*
X140814564Y-98015000D02*
X140360436Y-98015000D01*
%TO.C,R10*%
X135610436Y-113765000D02*
X136064564Y-113765000D01*
X135610436Y-115235000D02*
X136064564Y-115235000D01*
%TO.C,R11*%
X114389564Y-115235000D02*
X113935436Y-115235000D01*
X114389564Y-113765000D02*
X113935436Y-113765000D01*
%TO.C,TP1*%
X123950000Y-102940000D02*
G75*
G03*
X123950000Y-102940000I-950000J0D01*
G01*
%TO.C,TP2*%
X127950000Y-102940000D02*
G75*
G03*
X127950000Y-102940000I-950000J0D01*
G01*
%TO.C,TP3*%
X127950000Y-92400000D02*
G75*
G03*
X127950000Y-92400000I-950000J0D01*
G01*
%TO.C,TP4*%
X123950000Y-92500000D02*
G75*
G03*
X123950000Y-92500000I-950000J0D01*
G01*
%TO.C,R3*%
X128270000Y-94610000D02*
X121730000Y-94610000D01*
X121730000Y-97350000D02*
X128270000Y-97350000D01*
X128270000Y-97350000D02*
X128270000Y-94610000D01*
X121730000Y-94610000D02*
X121730000Y-97350000D01*
X120960000Y-95980000D02*
X121730000Y-95980000D01*
X129040000Y-95980000D02*
X128270000Y-95980000D01*
%TO.C,SW1*%
X110250000Y-110500000D02*
X111750000Y-110500000D01*
X111750000Y-103500000D02*
X110250000Y-103500000D01*
X114250000Y-109250000D02*
X114250000Y-104750000D01*
X107750000Y-104750000D02*
X107750000Y-109250000D01*
%TO.C,SW2*%
X142250000Y-109250000D02*
X142250000Y-104750000D01*
X135750000Y-104750000D02*
X135750000Y-109250000D01*
X138250000Y-110500000D02*
X139750000Y-110500000D01*
X139750000Y-103500000D02*
X138250000Y-103500000D01*
%TO.C,Q1*%
X122020000Y-130600001D02*
G75*
G03*
X123858478Y-126161522I0J2600001D01*
G01*
X120181522Y-126161522D02*
G75*
G03*
X122020000Y-130600000I1838478J-1838478D01*
G01*
X123820000Y-126150000D02*
X120220000Y-126150000D01*
%TO.C,Q2*%
X128000000Y-130600001D02*
G75*
G03*
X129838478Y-126161522I0J2600001D01*
G01*
X126161522Y-126161522D02*
G75*
G03*
X128000000Y-130600000I1838478J-1838478D01*
G01*
X129800000Y-126150000D02*
X126200000Y-126150000D01*
%TD*%
M02*
