%TF.GenerationSoftware,KiCad,Pcbnew,(6.0.10)*%
%TF.CreationDate,2023-08-29T00:03:05+02:00*%
%TF.ProjectId,Rentree ARES,52656e74-7265-4652-9041-5245532e6b69,rev?*%
%TF.SameCoordinates,Original*%
%TF.FileFunction,Copper,L2,Inr*%
%TF.FilePolarity,Positive*%
%FSLAX46Y46*%
G04 Gerber Fmt 4.6, Leading zero omitted, Abs format (unit mm)*
G04 Created by KiCad (PCBNEW (6.0.10)) date 2023-08-29 00:03:05*
%MOMM*%
%LPD*%
G01*
G04 APERTURE LIST*
%TA.AperFunction,EtchedComponent*%
%ADD10C,0.100000*%
%TD*%
%TA.AperFunction,ComponentPad*%
%ADD11C,1.000000*%
%TD*%
%TA.AperFunction,ComponentPad*%
%ADD12C,1.600000*%
%TD*%
%TA.AperFunction,ComponentPad*%
%ADD13O,1.600000X1.600000*%
%TD*%
%TA.AperFunction,ComponentPad*%
%ADD14R,1.600000X1.600000*%
%TD*%
%TA.AperFunction,ComponentPad*%
%ADD15C,1.800000*%
%TD*%
%TA.AperFunction,ComponentPad*%
%ADD16R,1.800000X1.800000*%
%TD*%
%TA.AperFunction,ComponentPad*%
%ADD17R,1.700000X1.700000*%
%TD*%
%TA.AperFunction,ComponentPad*%
%ADD18O,1.700000X1.700000*%
%TD*%
%TA.AperFunction,ComponentPad*%
%ADD19C,2.000000*%
%TD*%
%TA.AperFunction,ComponentPad*%
%ADD20O,1.050000X1.500000*%
%TD*%
%TA.AperFunction,ComponentPad*%
%ADD21R,1.050000X1.500000*%
%TD*%
%TA.AperFunction,ViaPad*%
%ADD22C,0.800000*%
%TD*%
G04 APERTURE END LIST*
D10*
%TO.C,F2*%
X123000000Y-99390000D02*
X123000000Y-95990000D01*
%TO.C,F3*%
X127000000Y-99390000D02*
X127000000Y-95990000D01*
%TD*%
D11*
%TO.N,/Simon un peu plus dur/SW0*%
%TO.C,F2*%
X123000000Y-99690000D03*
%TO.N,Net-(F2-Pad2)*%
X123000000Y-95690000D03*
%TD*%
%TO.N,/Simon un peu plus dur/SW1*%
%TO.C,F3*%
X127000000Y-99690000D03*
%TO.N,Net-(F3-Pad2)*%
X127000000Y-95690000D03*
%TD*%
D12*
%TO.N,Net-(R1-Pad2)*%
%TO.C,R2*%
X119920000Y-99440000D03*
D13*
%TO.N,/S1*%
X130080000Y-99440000D03*
%TD*%
%TO.N,unconnected-(A1-Pad32)*%
%TO.C,A1*%
X149500000Y-86000000D03*
%TO.N,unconnected-(A1-Pad31)*%
X149500000Y-88540000D03*
%TO.N,unconnected-(A1-Pad30)*%
X149500000Y-91080000D03*
%TO.N,GND*%
X149500000Y-93620000D03*
%TO.N,/RST*%
X149500000Y-96160000D03*
%TO.N,/Simon un peu plus dur/LED1*%
X149500000Y-98700000D03*
%TO.N,unconnected-(A1-Pad26)*%
X149500000Y-101240000D03*
%TO.N,/BUZZER*%
X149500000Y-103780000D03*
%TO.N,/Simon un peu plus dur/SW1*%
X149500000Y-106320000D03*
%TO.N,/Simon un peu plus dur/SW0*%
X149500000Y-108860000D03*
%TO.N,unconnected-(A1-Pad22)*%
X149500000Y-112920000D03*
%TO.N,unconnected-(A1-Pad21)*%
X149500000Y-115460000D03*
%TO.N,unconnected-(A1-Pad20)*%
X149500000Y-118000000D03*
%TO.N,unconnected-(A1-Pad19)*%
X149500000Y-120540000D03*
%TO.N,unconnected-(A1-Pad18)*%
X149500000Y-123080000D03*
%TO.N,unconnected-(A1-Pad17)*%
X149500000Y-125620000D03*
%TO.N,unconnected-(A1-Pad16)*%
X149500000Y-128160000D03*
%TO.N,unconnected-(A1-Pad15)*%
X149500000Y-130700000D03*
%TO.N,unconnected-(A1-Pad14)*%
X101240000Y-130700000D03*
%TO.N,unconnected-(A1-Pad13)*%
X101240000Y-128160000D03*
%TO.N,unconnected-(A1-Pad12)*%
X101240000Y-125620000D03*
%TO.N,unconnected-(A1-Pad11)*%
X101240000Y-123080000D03*
%TO.N,unconnected-(A1-Pad10)*%
X101240000Y-120540000D03*
%TO.N,/Simon un peu plus dur/LED0*%
X101240000Y-118000000D03*
%TO.N,unconnected-(A1-Pad8)*%
X101240000Y-112920000D03*
%TO.N,GND*%
X101240000Y-110380000D03*
X101240000Y-107840000D03*
%TO.N,unconnected-(A1-Pad5)*%
X101240000Y-105300000D03*
%TO.N,+3.3V*%
X101240000Y-102760000D03*
%TO.N,unconnected-(A1-Pad3)*%
X101240000Y-100220000D03*
%TO.N,unconnected-(A1-Pad2)*%
X101240000Y-97680000D03*
D14*
%TO.N,unconnected-(A1-Pad1)*%
X101240000Y-95140000D03*
%TD*%
D15*
%TO.N,Net-(D1-Pad2)*%
%TO.C,D1*%
X112210000Y-128000000D03*
D16*
%TO.N,Net-(C1-Pad2)*%
X114750000Y-128000000D03*
%TD*%
D15*
%TO.N,Net-(D2-Pad2)*%
%TO.C,D2*%
X137790000Y-128000000D03*
D16*
%TO.N,/OSC*%
X135250000Y-128000000D03*
%TD*%
%TO.N,Net-(D3-Pad1)*%
%TO.C,D3*%
X108500000Y-94275000D03*
D15*
%TO.N,+3.3V*%
X108500000Y-91735000D03*
%TD*%
D16*
%TO.N,Net-(D4-Pad1)*%
%TO.C,D4*%
X141500000Y-94275000D03*
D15*
%TO.N,+3.3V*%
X141500000Y-91735000D03*
%TD*%
D17*
%TO.N,+3.3V*%
%TO.C,J1*%
X113655000Y-86375000D03*
D18*
%TO.N,/S1*%
X116195000Y-86375000D03*
%TO.N,/OSC*%
X118735000Y-86375000D03*
%TO.N,/BUZZER*%
X121275000Y-86375000D03*
%TO.N,/Simon un peu plus dur/LED0*%
X123815000Y-86375000D03*
%TO.N,/Simon un peu plus dur/LED1*%
X126355000Y-86375000D03*
%TO.N,Net-(F2-Pad2)*%
X128895000Y-86375000D03*
%TO.N,Net-(F3-Pad2)*%
X131435000Y-86375000D03*
%TO.N,/RST*%
X133975000Y-86375000D03*
%TO.N,GND*%
X136515000Y-86375000D03*
%TD*%
D14*
%TO.N,+3.3V*%
%TO.C,LS1*%
X121750000Y-111500000D03*
D12*
%TO.N,/BUZZER*%
X128250000Y-111500000D03*
%TD*%
D13*
%TO.N,Net-(R1-Pad2)*%
%TO.C,R1*%
X116500000Y-98975000D03*
D12*
%TO.N,+3.3V*%
X116500000Y-96435000D03*
%TD*%
D13*
%TO.N,GND*%
%TO.C,R3*%
X130080000Y-95980000D03*
D12*
%TO.N,/S1*%
X119920000Y-95980000D03*
%TD*%
D19*
%TO.N,/Simon un peu plus dur/SW0*%
%TO.C,SW1*%
X113250000Y-103750000D03*
X113250000Y-110250000D03*
%TO.N,GND*%
X108750000Y-103750000D03*
X108750000Y-110250000D03*
%TD*%
%TO.N,GND*%
%TO.C,SW2*%
X141250000Y-103750000D03*
X141250000Y-110250000D03*
%TO.N,/Simon un peu plus dur/SW1*%
X136750000Y-103750000D03*
X136750000Y-110250000D03*
%TD*%
D20*
%TO.N,Net-(C1-Pad2)*%
%TO.C,Q1*%
X120750000Y-128000000D03*
%TO.N,Net-(C2-Pad2)*%
X122020000Y-128000000D03*
D21*
%TO.N,GND*%
X123290000Y-128000000D03*
%TD*%
D20*
%TO.N,/OSC*%
%TO.C,Q2*%
X126730000Y-128000000D03*
%TO.N,Net-(C1-Pad1)*%
X128000000Y-128000000D03*
D21*
%TO.N,GND*%
X129270000Y-128000000D03*
%TD*%
D22*
%TO.N,GND*%
X129200000Y-134000000D03*
%TO.N,/BUZZER*%
X128200000Y-100150500D03*
X125100000Y-95000000D03*
%TO.N,/OSC*%
X125100000Y-121400000D03*
%TO.N,Net-(C2-Pad2)*%
X133325000Y-122900000D03*
%TO.N,/Simon un peu plus dur/SW1*%
X136750000Y-112550000D03*
%TO.N,/Simon un peu plus dur/SW0*%
X113250000Y-112600000D03*
%TO.N,Net-(F3-Pad2)*%
X127000000Y-92400000D03*
%TO.N,+3.3V*%
X134925000Y-117500000D03*
X115075000Y-117500000D03*
X136775000Y-121000000D03*
X113265000Y-121110000D03*
%TO.N,Net-(F2-Pad2)*%
X123000000Y-92500000D03*
%TO.N,/Simon un peu plus dur/SW0*%
X123000000Y-102940000D03*
%TO.N,/Simon un peu plus dur/SW1*%
X126960000Y-102940000D03*
%TD*%
%TA.AperFunction,Conductor*%
%TO.N,GND*%
G36*
X148970018Y-82510000D02*
G01*
X148984852Y-82512310D01*
X148984855Y-82512310D01*
X148993724Y-82513691D01*
X149011033Y-82511428D01*
X149013656Y-82511085D01*
X149035810Y-82510156D01*
X149362472Y-82525258D01*
X149374060Y-82526332D01*
X149727672Y-82575659D01*
X149739112Y-82577798D01*
X150086665Y-82659541D01*
X150097841Y-82662721D01*
X150267111Y-82719455D01*
X150436372Y-82776186D01*
X150447224Y-82780390D01*
X150773840Y-82924605D01*
X150784245Y-82929785D01*
X151096177Y-83103530D01*
X151106053Y-83109645D01*
X151134557Y-83129171D01*
X151400610Y-83311422D01*
X151409898Y-83318436D01*
X151684581Y-83546530D01*
X151693181Y-83554371D01*
X151945629Y-83806819D01*
X151953470Y-83815419D01*
X152181564Y-84090102D01*
X152188578Y-84099390D01*
X152390354Y-84393946D01*
X152396470Y-84403823D01*
X152570215Y-84715755D01*
X152575395Y-84726160D01*
X152719610Y-85052776D01*
X152723814Y-85063628D01*
X152753368Y-85151803D01*
X152835910Y-85398074D01*
X152837276Y-85402150D01*
X152840459Y-85413335D01*
X152914170Y-85726739D01*
X152922202Y-85760888D01*
X152924341Y-85772328D01*
X152973668Y-86125940D01*
X152974742Y-86137529D01*
X152989502Y-86456785D01*
X152988136Y-86481989D01*
X152987690Y-86484850D01*
X152987690Y-86484856D01*
X152986309Y-86493724D01*
X152987473Y-86502626D01*
X152987473Y-86502628D01*
X152990436Y-86525283D01*
X152991500Y-86541621D01*
X152991500Y-133700633D01*
X152990000Y-133720018D01*
X152986309Y-133743724D01*
X152987473Y-133752625D01*
X152988915Y-133763656D01*
X152989844Y-133785810D01*
X152974742Y-134112471D01*
X152973668Y-134124060D01*
X152924341Y-134477672D01*
X152922202Y-134489112D01*
X152840461Y-134836656D01*
X152837276Y-134847850D01*
X152723814Y-135186372D01*
X152719610Y-135197224D01*
X152575395Y-135523840D01*
X152570215Y-135534245D01*
X152396470Y-135846177D01*
X152390354Y-135856054D01*
X152188578Y-136150610D01*
X152181564Y-136159898D01*
X151953470Y-136434581D01*
X151945629Y-136443181D01*
X151693181Y-136695629D01*
X151684581Y-136703470D01*
X151409898Y-136931564D01*
X151400610Y-136938578D01*
X151178930Y-137090433D01*
X151106054Y-137140354D01*
X151096177Y-137146470D01*
X150784245Y-137320215D01*
X150773840Y-137325395D01*
X150447224Y-137469610D01*
X150436372Y-137473814D01*
X150267111Y-137530545D01*
X150097841Y-137587279D01*
X150086665Y-137590459D01*
X149754150Y-137668665D01*
X149739112Y-137672202D01*
X149727672Y-137674341D01*
X149374060Y-137723668D01*
X149362471Y-137724742D01*
X149043215Y-137739502D01*
X149018011Y-137738136D01*
X149015150Y-137737690D01*
X149015144Y-137737690D01*
X149006276Y-137736309D01*
X148997374Y-137737473D01*
X148997372Y-137737473D01*
X148983900Y-137739235D01*
X148974714Y-137740436D01*
X148958379Y-137741500D01*
X101055666Y-137741500D01*
X101033817Y-137739591D01*
X101025295Y-137738090D01*
X101025292Y-137738090D01*
X101016455Y-137736534D01*
X101007535Y-137737521D01*
X101007532Y-137737521D01*
X100996485Y-137738744D01*
X100974314Y-137739235D01*
X100639530Y-137717101D01*
X100627973Y-137715797D01*
X100267031Y-137658135D01*
X100255637Y-137655770D01*
X99901546Y-137565047D01*
X99890442Y-137561649D01*
X99546222Y-137438638D01*
X99535464Y-137434223D01*
X99204065Y-137279978D01*
X99193778Y-137274600D01*
X98878019Y-137090431D01*
X98868251Y-137084111D01*
X98570855Y-136871611D01*
X98561708Y-136864415D01*
X98375523Y-136703470D01*
X98285177Y-136625371D01*
X98276737Y-136617365D01*
X98023447Y-136353832D01*
X98015778Y-136345077D01*
X97787885Y-136059298D01*
X97781057Y-136049873D01*
X97580510Y-135744295D01*
X97574580Y-135734281D01*
X97403074Y-135411485D01*
X97398094Y-135400966D01*
X97257105Y-135063727D01*
X97253119Y-135052799D01*
X97143852Y-134704000D01*
X97140889Y-134692745D01*
X97097234Y-134489112D01*
X97064267Y-134335332D01*
X97062357Y-134323857D01*
X97019041Y-133960917D01*
X97018197Y-133949309D01*
X97009543Y-133621340D01*
X97011407Y-133596172D01*
X97011910Y-133593313D01*
X97011910Y-133593310D01*
X97013466Y-133584472D01*
X97009265Y-133546510D01*
X97008500Y-133532651D01*
X97008500Y-130700000D01*
X99926502Y-130700000D01*
X99946457Y-130928087D01*
X100005716Y-131149243D01*
X100008039Y-131154224D01*
X100008039Y-131154225D01*
X100100151Y-131351762D01*
X100100154Y-131351767D01*
X100102477Y-131356749D01*
X100233802Y-131544300D01*
X100395700Y-131706198D01*
X100400208Y-131709355D01*
X100400211Y-131709357D01*
X100478389Y-131764098D01*
X100583251Y-131837523D01*
X100588233Y-131839846D01*
X100588238Y-131839849D01*
X100785775Y-131931961D01*
X100790757Y-131934284D01*
X100796065Y-131935706D01*
X100796067Y-131935707D01*
X101006598Y-131992119D01*
X101006600Y-131992119D01*
X101011913Y-131993543D01*
X101240000Y-132013498D01*
X101468087Y-131993543D01*
X101473400Y-131992119D01*
X101473402Y-131992119D01*
X101683933Y-131935707D01*
X101683935Y-131935706D01*
X101689243Y-131934284D01*
X101694225Y-131931961D01*
X101891762Y-131839849D01*
X101891767Y-131839846D01*
X101896749Y-131837523D01*
X102001611Y-131764098D01*
X102079789Y-131709357D01*
X102079792Y-131709355D01*
X102084300Y-131706198D01*
X102246198Y-131544300D01*
X102377523Y-131356749D01*
X102379846Y-131351767D01*
X102379849Y-131351762D01*
X102471961Y-131154225D01*
X102471961Y-131154224D01*
X102474284Y-131149243D01*
X102533543Y-130928087D01*
X102553498Y-130700000D01*
X148186502Y-130700000D01*
X148206457Y-130928087D01*
X148265716Y-131149243D01*
X148268039Y-131154224D01*
X148268039Y-131154225D01*
X148360151Y-131351762D01*
X148360154Y-131351767D01*
X148362477Y-131356749D01*
X148493802Y-131544300D01*
X148655700Y-131706198D01*
X148660208Y-131709355D01*
X148660211Y-131709357D01*
X148738389Y-131764098D01*
X148843251Y-131837523D01*
X148848233Y-131839846D01*
X148848238Y-131839849D01*
X149045775Y-131931961D01*
X149050757Y-131934284D01*
X149056065Y-131935706D01*
X149056067Y-131935707D01*
X149266598Y-131992119D01*
X149266600Y-131992119D01*
X149271913Y-131993543D01*
X149500000Y-132013498D01*
X149728087Y-131993543D01*
X149733400Y-131992119D01*
X149733402Y-131992119D01*
X149943933Y-131935707D01*
X149943935Y-131935706D01*
X149949243Y-131934284D01*
X149954225Y-131931961D01*
X150151762Y-131839849D01*
X150151767Y-131839846D01*
X150156749Y-131837523D01*
X150261611Y-131764098D01*
X150339789Y-131709357D01*
X150339792Y-131709355D01*
X150344300Y-131706198D01*
X150506198Y-131544300D01*
X150637523Y-131356749D01*
X150639846Y-131351767D01*
X150639849Y-131351762D01*
X150731961Y-131154225D01*
X150731961Y-131154224D01*
X150734284Y-131149243D01*
X150793543Y-130928087D01*
X150813498Y-130700000D01*
X150793543Y-130471913D01*
X150734284Y-130250757D01*
X150731961Y-130245775D01*
X150639849Y-130048238D01*
X150639846Y-130048233D01*
X150637523Y-130043251D01*
X150506198Y-129855700D01*
X150344300Y-129693802D01*
X150339792Y-129690645D01*
X150339789Y-129690643D01*
X150261611Y-129635902D01*
X150156749Y-129562477D01*
X150151767Y-129560154D01*
X150151762Y-129560151D01*
X150117543Y-129544195D01*
X150064258Y-129497278D01*
X150044797Y-129429001D01*
X150065339Y-129361041D01*
X150117543Y-129315805D01*
X150151762Y-129299849D01*
X150151767Y-129299846D01*
X150156749Y-129297523D01*
X150310850Y-129189620D01*
X150339789Y-129169357D01*
X150339792Y-129169355D01*
X150344300Y-129166198D01*
X150506198Y-129004300D01*
X150509410Y-128999714D01*
X150612594Y-128852351D01*
X150637523Y-128816749D01*
X150639846Y-128811767D01*
X150639849Y-128811762D01*
X150731961Y-128614225D01*
X150731961Y-128614224D01*
X150734284Y-128609243D01*
X150759449Y-128515329D01*
X150792119Y-128393402D01*
X150792119Y-128393400D01*
X150793543Y-128388087D01*
X150813498Y-128160000D01*
X150793543Y-127931913D01*
X150748592Y-127764156D01*
X150735707Y-127716067D01*
X150735706Y-127716065D01*
X150734284Y-127710757D01*
X150670864Y-127574751D01*
X150639849Y-127508238D01*
X150639846Y-127508233D01*
X150637523Y-127503251D01*
X150506198Y-127315700D01*
X150344300Y-127153802D01*
X150339792Y-127150645D01*
X150339789Y-127150643D01*
X150261611Y-127095902D01*
X150156749Y-127022477D01*
X150151767Y-127020154D01*
X150151762Y-127020151D01*
X150117543Y-127004195D01*
X150064258Y-126957278D01*
X150044797Y-126889001D01*
X150065339Y-126821041D01*
X150117543Y-126775805D01*
X150151762Y-126759849D01*
X150151767Y-126759846D01*
X150156749Y-126757523D01*
X150315687Y-126646233D01*
X150339789Y-126629357D01*
X150339792Y-126629355D01*
X150344300Y-126626198D01*
X150506198Y-126464300D01*
X150637523Y-126276749D01*
X150639846Y-126271767D01*
X150639849Y-126271762D01*
X150731961Y-126074225D01*
X150731961Y-126074224D01*
X150734284Y-126069243D01*
X150793543Y-125848087D01*
X150813498Y-125620000D01*
X150793543Y-125391913D01*
X150734284Y-125170757D01*
X150731961Y-125165775D01*
X150639849Y-124968238D01*
X150639846Y-124968233D01*
X150637523Y-124963251D01*
X150506198Y-124775700D01*
X150344300Y-124613802D01*
X150339792Y-124610645D01*
X150339789Y-124610643D01*
X150261611Y-124555902D01*
X150156749Y-124482477D01*
X150151767Y-124480154D01*
X150151762Y-124480151D01*
X150117543Y-124464195D01*
X150064258Y-124417278D01*
X150044797Y-124349001D01*
X150065339Y-124281041D01*
X150117543Y-124235805D01*
X150151762Y-124219849D01*
X150151767Y-124219846D01*
X150156749Y-124217523D01*
X150261611Y-124144098D01*
X150339789Y-124089357D01*
X150339792Y-124089355D01*
X150344300Y-124086198D01*
X150506198Y-123924300D01*
X150637523Y-123736749D01*
X150639846Y-123731767D01*
X150639849Y-123731762D01*
X150731961Y-123534225D01*
X150731961Y-123534224D01*
X150734284Y-123529243D01*
X150793543Y-123308087D01*
X150813498Y-123080000D01*
X150793543Y-122851913D01*
X150755537Y-122710072D01*
X150735707Y-122636067D01*
X150735706Y-122636065D01*
X150734284Y-122630757D01*
X150686575Y-122528444D01*
X150639849Y-122428238D01*
X150639846Y-122428233D01*
X150637523Y-122423251D01*
X150556213Y-122307128D01*
X150509357Y-122240211D01*
X150509355Y-122240208D01*
X150506198Y-122235700D01*
X150344300Y-122073802D01*
X150339792Y-122070645D01*
X150339789Y-122070643D01*
X150204780Y-121976109D01*
X150156749Y-121942477D01*
X150151767Y-121940154D01*
X150151762Y-121940151D01*
X150117543Y-121924195D01*
X150064258Y-121877278D01*
X150044797Y-121809001D01*
X150065339Y-121741041D01*
X150117543Y-121695805D01*
X150151762Y-121679849D01*
X150151767Y-121679846D01*
X150156749Y-121677523D01*
X150291220Y-121583365D01*
X150339789Y-121549357D01*
X150339792Y-121549355D01*
X150344300Y-121546198D01*
X150506198Y-121384300D01*
X150511115Y-121377279D01*
X150569872Y-121293365D01*
X150637523Y-121196749D01*
X150639846Y-121191767D01*
X150639849Y-121191762D01*
X150731961Y-120994225D01*
X150731961Y-120994224D01*
X150734284Y-120989243D01*
X150752819Y-120920072D01*
X150792119Y-120773402D01*
X150792119Y-120773400D01*
X150793543Y-120768087D01*
X150813498Y-120540000D01*
X150793543Y-120311913D01*
X150792119Y-120306598D01*
X150735707Y-120096067D01*
X150735706Y-120096065D01*
X150734284Y-120090757D01*
X150731961Y-120085775D01*
X150639849Y-119888238D01*
X150639846Y-119888233D01*
X150637523Y-119883251D01*
X150506198Y-119695700D01*
X150344300Y-119533802D01*
X150339792Y-119530645D01*
X150339789Y-119530643D01*
X150261611Y-119475902D01*
X150156749Y-119402477D01*
X150151767Y-119400154D01*
X150151762Y-119400151D01*
X150117543Y-119384195D01*
X150064258Y-119337278D01*
X150044797Y-119269001D01*
X150065339Y-119201041D01*
X150117543Y-119155805D01*
X150151762Y-119139849D01*
X150151767Y-119139846D01*
X150156749Y-119137523D01*
X150261611Y-119064098D01*
X150339789Y-119009357D01*
X150339792Y-119009355D01*
X150344300Y-119006198D01*
X150506198Y-118844300D01*
X150637523Y-118656749D01*
X150639846Y-118651767D01*
X150639849Y-118651762D01*
X150731961Y-118454225D01*
X150731961Y-118454224D01*
X150734284Y-118449243D01*
X150755841Y-118368794D01*
X150792119Y-118233402D01*
X150792119Y-118233400D01*
X150793543Y-118228087D01*
X150813498Y-118000000D01*
X150793543Y-117771913D01*
X150771575Y-117689928D01*
X150735707Y-117556067D01*
X150735706Y-117556065D01*
X150734284Y-117550757D01*
X150710616Y-117500000D01*
X150639849Y-117348238D01*
X150639846Y-117348233D01*
X150637523Y-117343251D01*
X150506198Y-117155700D01*
X150344300Y-116993802D01*
X150339792Y-116990645D01*
X150339789Y-116990643D01*
X150261611Y-116935902D01*
X150156749Y-116862477D01*
X150151767Y-116860154D01*
X150151762Y-116860151D01*
X150117543Y-116844195D01*
X150064258Y-116797278D01*
X150044797Y-116729001D01*
X150065339Y-116661041D01*
X150117543Y-116615805D01*
X150151762Y-116599849D01*
X150151767Y-116599846D01*
X150156749Y-116597523D01*
X150261611Y-116524098D01*
X150339789Y-116469357D01*
X150339792Y-116469355D01*
X150344300Y-116466198D01*
X150506198Y-116304300D01*
X150637523Y-116116749D01*
X150639846Y-116111767D01*
X150639849Y-116111762D01*
X150731961Y-115914225D01*
X150731961Y-115914224D01*
X150734284Y-115909243D01*
X150767096Y-115786790D01*
X150792119Y-115693402D01*
X150792119Y-115693400D01*
X150793543Y-115688087D01*
X150813498Y-115460000D01*
X150793543Y-115231913D01*
X150734284Y-115010757D01*
X150731961Y-115005775D01*
X150639849Y-114808238D01*
X150639846Y-114808233D01*
X150637523Y-114803251D01*
X150506198Y-114615700D01*
X150344300Y-114453802D01*
X150339792Y-114450645D01*
X150339789Y-114450643D01*
X150261611Y-114395902D01*
X150156749Y-114322477D01*
X150151767Y-114320154D01*
X150151762Y-114320151D01*
X150117543Y-114304195D01*
X150064258Y-114257278D01*
X150044797Y-114189001D01*
X150065339Y-114121041D01*
X150117543Y-114075805D01*
X150151762Y-114059849D01*
X150151767Y-114059846D01*
X150156749Y-114057523D01*
X150261611Y-113984098D01*
X150339789Y-113929357D01*
X150339792Y-113929355D01*
X150344300Y-113926198D01*
X150506198Y-113764300D01*
X150637523Y-113576749D01*
X150639846Y-113571767D01*
X150639849Y-113571762D01*
X150731961Y-113374225D01*
X150731961Y-113374224D01*
X150734284Y-113369243D01*
X150793543Y-113148087D01*
X150813498Y-112920000D01*
X150793543Y-112691913D01*
X150734284Y-112470757D01*
X150731961Y-112465775D01*
X150639849Y-112268238D01*
X150639846Y-112268233D01*
X150637523Y-112263251D01*
X150506198Y-112075700D01*
X150344300Y-111913802D01*
X150339792Y-111910645D01*
X150339789Y-111910643D01*
X150261611Y-111855902D01*
X150156749Y-111782477D01*
X150151767Y-111780154D01*
X150151762Y-111780151D01*
X149954225Y-111688039D01*
X149954224Y-111688039D01*
X149949243Y-111685716D01*
X149943935Y-111684294D01*
X149943933Y-111684293D01*
X149733402Y-111627881D01*
X149733400Y-111627881D01*
X149728087Y-111626457D01*
X149500000Y-111606502D01*
X149271913Y-111626457D01*
X149266600Y-111627881D01*
X149266598Y-111627881D01*
X149056067Y-111684293D01*
X149056065Y-111684294D01*
X149050757Y-111685716D01*
X149045776Y-111688039D01*
X149045775Y-111688039D01*
X148848238Y-111780151D01*
X148848233Y-111780154D01*
X148843251Y-111782477D01*
X148738389Y-111855902D01*
X148660211Y-111910643D01*
X148660208Y-111910645D01*
X148655700Y-111913802D01*
X148493802Y-112075700D01*
X148362477Y-112263251D01*
X148360154Y-112268233D01*
X148360151Y-112268238D01*
X148268039Y-112465775D01*
X148265716Y-112470757D01*
X148206457Y-112691913D01*
X148186502Y-112920000D01*
X148206457Y-113148087D01*
X148265716Y-113369243D01*
X148268039Y-113374224D01*
X148268039Y-113374225D01*
X148360151Y-113571762D01*
X148360154Y-113571767D01*
X148362477Y-113576749D01*
X148493802Y-113764300D01*
X148655700Y-113926198D01*
X148660208Y-113929355D01*
X148660211Y-113929357D01*
X148738389Y-113984098D01*
X148843251Y-114057523D01*
X148848233Y-114059846D01*
X148848238Y-114059849D01*
X148882457Y-114075805D01*
X148935742Y-114122722D01*
X148955203Y-114190999D01*
X148934661Y-114258959D01*
X148882457Y-114304195D01*
X148848238Y-114320151D01*
X148848233Y-114320154D01*
X148843251Y-114322477D01*
X148738389Y-114395902D01*
X148660211Y-114450643D01*
X148660208Y-114450645D01*
X148655700Y-114453802D01*
X148493802Y-114615700D01*
X148362477Y-114803251D01*
X148360154Y-114808233D01*
X148360151Y-114808238D01*
X148268039Y-115005775D01*
X148265716Y-115010757D01*
X148206457Y-115231913D01*
X148186502Y-115460000D01*
X148206457Y-115688087D01*
X148207881Y-115693400D01*
X148207881Y-115693402D01*
X148232905Y-115786790D01*
X148265716Y-115909243D01*
X148268039Y-115914224D01*
X148268039Y-115914225D01*
X148360151Y-116111762D01*
X148360154Y-116111767D01*
X148362477Y-116116749D01*
X148493802Y-116304300D01*
X148655700Y-116466198D01*
X148660208Y-116469355D01*
X148660211Y-116469357D01*
X148738389Y-116524098D01*
X148843251Y-116597523D01*
X148848233Y-116599846D01*
X148848238Y-116599849D01*
X148882457Y-116615805D01*
X148935742Y-116662722D01*
X148955203Y-116730999D01*
X148934661Y-116798959D01*
X148882457Y-116844195D01*
X148848238Y-116860151D01*
X148848233Y-116860154D01*
X148843251Y-116862477D01*
X148738389Y-116935902D01*
X148660211Y-116990643D01*
X148660208Y-116990645D01*
X148655700Y-116993802D01*
X148493802Y-117155700D01*
X148362477Y-117343251D01*
X148360154Y-117348233D01*
X148360151Y-117348238D01*
X148289384Y-117500000D01*
X148265716Y-117550757D01*
X148264294Y-117556065D01*
X148264293Y-117556067D01*
X148228425Y-117689928D01*
X148206457Y-117771913D01*
X148186502Y-118000000D01*
X148206457Y-118228087D01*
X148207881Y-118233400D01*
X148207881Y-118233402D01*
X148244160Y-118368794D01*
X148265716Y-118449243D01*
X148268039Y-118454224D01*
X148268039Y-118454225D01*
X148360151Y-118651762D01*
X148360154Y-118651767D01*
X148362477Y-118656749D01*
X148493802Y-118844300D01*
X148655700Y-119006198D01*
X148660208Y-119009355D01*
X148660211Y-119009357D01*
X148738389Y-119064098D01*
X148843251Y-119137523D01*
X148848233Y-119139846D01*
X148848238Y-119139849D01*
X148882457Y-119155805D01*
X148935742Y-119202722D01*
X148955203Y-119270999D01*
X148934661Y-119338959D01*
X148882457Y-119384195D01*
X148848238Y-119400151D01*
X148848233Y-119400154D01*
X148843251Y-119402477D01*
X148738389Y-119475902D01*
X148660211Y-119530643D01*
X148660208Y-119530645D01*
X148655700Y-119533802D01*
X148493802Y-119695700D01*
X148362477Y-119883251D01*
X148360154Y-119888233D01*
X148360151Y-119888238D01*
X148268039Y-120085775D01*
X148265716Y-120090757D01*
X148264294Y-120096065D01*
X148264293Y-120096067D01*
X148207881Y-120306598D01*
X148206457Y-120311913D01*
X148186502Y-120540000D01*
X148206457Y-120768087D01*
X148207881Y-120773400D01*
X148207881Y-120773402D01*
X148247182Y-120920072D01*
X148265716Y-120989243D01*
X148268039Y-120994224D01*
X148268039Y-120994225D01*
X148360151Y-121191762D01*
X148360154Y-121191767D01*
X148362477Y-121196749D01*
X148430128Y-121293365D01*
X148488886Y-121377279D01*
X148493802Y-121384300D01*
X148655700Y-121546198D01*
X148660208Y-121549355D01*
X148660211Y-121549357D01*
X148708780Y-121583365D01*
X148843251Y-121677523D01*
X148848233Y-121679846D01*
X148848238Y-121679849D01*
X148882457Y-121695805D01*
X148935742Y-121742722D01*
X148955203Y-121810999D01*
X148934661Y-121878959D01*
X148882457Y-121924195D01*
X148848238Y-121940151D01*
X148848233Y-121940154D01*
X148843251Y-121942477D01*
X148795220Y-121976109D01*
X148660211Y-122070643D01*
X148660208Y-122070645D01*
X148655700Y-122073802D01*
X148493802Y-122235700D01*
X148490645Y-122240208D01*
X148490643Y-122240211D01*
X148443787Y-122307128D01*
X148362477Y-122423251D01*
X148360154Y-122428233D01*
X148360151Y-122428238D01*
X148313425Y-122528444D01*
X148265716Y-122630757D01*
X148264294Y-122636065D01*
X148264293Y-122636067D01*
X148244463Y-122710072D01*
X148206457Y-122851913D01*
X148186502Y-123080000D01*
X148206457Y-123308087D01*
X148265716Y-123529243D01*
X148268039Y-123534224D01*
X148268039Y-123534225D01*
X148360151Y-123731762D01*
X148360154Y-123731767D01*
X148362477Y-123736749D01*
X148493802Y-123924300D01*
X148655700Y-124086198D01*
X148660208Y-124089355D01*
X148660211Y-124089357D01*
X148738389Y-124144098D01*
X148843251Y-124217523D01*
X148848233Y-124219846D01*
X148848238Y-124219849D01*
X148882457Y-124235805D01*
X148935742Y-124282722D01*
X148955203Y-124350999D01*
X148934661Y-124418959D01*
X148882457Y-124464195D01*
X148848238Y-124480151D01*
X148848233Y-124480154D01*
X148843251Y-124482477D01*
X148738389Y-124555902D01*
X148660211Y-124610643D01*
X148660208Y-124610645D01*
X148655700Y-124613802D01*
X148493802Y-124775700D01*
X148362477Y-124963251D01*
X148360154Y-124968233D01*
X148360151Y-124968238D01*
X148268039Y-125165775D01*
X148265716Y-125170757D01*
X148206457Y-125391913D01*
X148186502Y-125620000D01*
X148206457Y-125848087D01*
X148265716Y-126069243D01*
X148268039Y-126074224D01*
X148268039Y-126074225D01*
X148360151Y-126271762D01*
X148360154Y-126271767D01*
X148362477Y-126276749D01*
X148493802Y-126464300D01*
X148655700Y-126626198D01*
X148660208Y-126629355D01*
X148660211Y-126629357D01*
X148684313Y-126646233D01*
X148843251Y-126757523D01*
X148848233Y-126759846D01*
X148848238Y-126759849D01*
X148882457Y-126775805D01*
X148935742Y-126822722D01*
X148955203Y-126890999D01*
X148934661Y-126958959D01*
X148882457Y-127004195D01*
X148848238Y-127020151D01*
X148848233Y-127020154D01*
X148843251Y-127022477D01*
X148738389Y-127095902D01*
X148660211Y-127150643D01*
X148660208Y-127150645D01*
X148655700Y-127153802D01*
X148493802Y-127315700D01*
X148362477Y-127503251D01*
X148360154Y-127508233D01*
X148360151Y-127508238D01*
X148329136Y-127574751D01*
X148265716Y-127710757D01*
X148264294Y-127716065D01*
X148264293Y-127716067D01*
X148251408Y-127764156D01*
X148206457Y-127931913D01*
X148186502Y-128160000D01*
X148206457Y-128388087D01*
X148207881Y-128393400D01*
X148207881Y-128393402D01*
X148240552Y-128515329D01*
X148265716Y-128609243D01*
X148268039Y-128614224D01*
X148268039Y-128614225D01*
X148360151Y-128811762D01*
X148360154Y-128811767D01*
X148362477Y-128816749D01*
X148387406Y-128852351D01*
X148490591Y-128999714D01*
X148493802Y-129004300D01*
X148655700Y-129166198D01*
X148660208Y-129169355D01*
X148660211Y-129169357D01*
X148689150Y-129189620D01*
X148843251Y-129297523D01*
X148848233Y-129299846D01*
X148848238Y-129299849D01*
X148882457Y-129315805D01*
X148935742Y-129362722D01*
X148955203Y-129430999D01*
X148934661Y-129498959D01*
X148882457Y-129544195D01*
X148848238Y-129560151D01*
X148848233Y-129560154D01*
X148843251Y-129562477D01*
X148738389Y-129635902D01*
X148660211Y-129690643D01*
X148660208Y-129690645D01*
X148655700Y-129693802D01*
X148493802Y-129855700D01*
X148362477Y-130043251D01*
X148360154Y-130048233D01*
X148360151Y-130048238D01*
X148268039Y-130245775D01*
X148265716Y-130250757D01*
X148206457Y-130471913D01*
X148186502Y-130700000D01*
X102553498Y-130700000D01*
X102533543Y-130471913D01*
X102474284Y-130250757D01*
X102471961Y-130245775D01*
X102379849Y-130048238D01*
X102379846Y-130048233D01*
X102377523Y-130043251D01*
X102246198Y-129855700D01*
X102084300Y-129693802D01*
X102079792Y-129690645D01*
X102079789Y-129690643D01*
X102001611Y-129635902D01*
X101896749Y-129562477D01*
X101891767Y-129560154D01*
X101891762Y-129560151D01*
X101857543Y-129544195D01*
X101804258Y-129497278D01*
X101784797Y-129429001D01*
X101805339Y-129361041D01*
X101857543Y-129315805D01*
X101891762Y-129299849D01*
X101891767Y-129299846D01*
X101896749Y-129297523D01*
X102050850Y-129189620D01*
X102079789Y-129169357D01*
X102079792Y-129169355D01*
X102084300Y-129166198D01*
X102246198Y-129004300D01*
X102249410Y-128999714D01*
X102352594Y-128852351D01*
X102377523Y-128816749D01*
X102379846Y-128811767D01*
X102379849Y-128811762D01*
X102471961Y-128614225D01*
X102471961Y-128614224D01*
X102474284Y-128609243D01*
X102499449Y-128515329D01*
X102532119Y-128393402D01*
X102532119Y-128393400D01*
X102533543Y-128388087D01*
X102553498Y-128160000D01*
X102536479Y-127965469D01*
X110797095Y-127965469D01*
X110797392Y-127970622D01*
X110797392Y-127970625D01*
X110803067Y-128069041D01*
X110810427Y-128196697D01*
X110811564Y-128201743D01*
X110811565Y-128201749D01*
X110843741Y-128344523D01*
X110861346Y-128422642D01*
X110863288Y-128427424D01*
X110863289Y-128427428D01*
X110946540Y-128632450D01*
X110948484Y-128637237D01*
X111069501Y-128834719D01*
X111221147Y-129009784D01*
X111399349Y-129157730D01*
X111599322Y-129274584D01*
X111604147Y-129276426D01*
X111604148Y-129276427D01*
X111659393Y-129297523D01*
X111815694Y-129357209D01*
X111820760Y-129358240D01*
X111820761Y-129358240D01*
X111842791Y-129362722D01*
X112042656Y-129403385D01*
X112172089Y-129408131D01*
X112268949Y-129411683D01*
X112268953Y-129411683D01*
X112274113Y-129411872D01*
X112279233Y-129411216D01*
X112279235Y-129411216D01*
X112353166Y-129401745D01*
X112503847Y-129382442D01*
X112508795Y-129380957D01*
X112508802Y-129380956D01*
X112720747Y-129317369D01*
X112725690Y-129315886D01*
X112806236Y-129276427D01*
X112929049Y-129216262D01*
X112929052Y-129216260D01*
X112933684Y-129213991D01*
X113122243Y-129079494D01*
X113167309Y-129034585D01*
X113229681Y-129000669D01*
X113300487Y-129005857D01*
X113357249Y-129048503D01*
X113374231Y-129079607D01*
X113380690Y-129096835D01*
X113399385Y-129146705D01*
X113486739Y-129263261D01*
X113603295Y-129350615D01*
X113739684Y-129401745D01*
X113801866Y-129408500D01*
X115698134Y-129408500D01*
X115760316Y-129401745D01*
X115896705Y-129350615D01*
X116013261Y-129263261D01*
X116100615Y-129146705D01*
X116151745Y-129010316D01*
X116158500Y-128948134D01*
X116158500Y-128276004D01*
X119716500Y-128276004D01*
X119731277Y-128426713D01*
X119789858Y-128620742D01*
X119885010Y-128799698D01*
X119888904Y-128804472D01*
X119888905Y-128804474D01*
X119916756Y-128838622D01*
X120013110Y-128956763D01*
X120017857Y-128960690D01*
X120017859Y-128960692D01*
X120164528Y-129082027D01*
X120164531Y-129082029D01*
X120169278Y-129085956D01*
X120347565Y-129182356D01*
X120440076Y-129210993D01*
X120535293Y-129240468D01*
X120535296Y-129240469D01*
X120541180Y-129242290D01*
X120547305Y-129242934D01*
X120547306Y-129242934D01*
X120736622Y-129262832D01*
X120736623Y-129262832D01*
X120742750Y-129263476D01*
X120852090Y-129253525D01*
X120938457Y-129245665D01*
X120938460Y-129245664D01*
X120944596Y-129245106D01*
X120950502Y-129243368D01*
X120950506Y-129243367D01*
X121091909Y-129201749D01*
X121139029Y-129187881D01*
X121144486Y-129185028D01*
X121144489Y-129185027D01*
X121296182Y-129105724D01*
X121318460Y-129094077D01*
X121318462Y-129094077D01*
X121318645Y-129093981D01*
X121318663Y-129094016D01*
X121384441Y-129074111D01*
X121445409Y-129089271D01*
X121617565Y-129182356D01*
X121710076Y-129210993D01*
X121805293Y-129240468D01*
X121805296Y-129240469D01*
X121811180Y-129242290D01*
X121817305Y-129242934D01*
X121817306Y-129242934D01*
X122006622Y-129262832D01*
X122006623Y-129262832D01*
X122012750Y-129263476D01*
X122122090Y-129253525D01*
X122208457Y-129245665D01*
X122208460Y-129245664D01*
X122214596Y-129245106D01*
X122220502Y-129243368D01*
X122220506Y-129243367D01*
X122320315Y-129213991D01*
X122409029Y-129187881D01*
X122409229Y-129188559D01*
X122475273Y-129182044D01*
X122512323Y-129195320D01*
X122526937Y-129203321D01*
X122647394Y-129248478D01*
X122662649Y-129252105D01*
X122713514Y-129257631D01*
X122720328Y-129258000D01*
X123017885Y-129258000D01*
X123033124Y-129253525D01*
X123034329Y-129252135D01*
X123036000Y-129244452D01*
X123036000Y-129239884D01*
X123544000Y-129239884D01*
X123548475Y-129255123D01*
X123549865Y-129256328D01*
X123557548Y-129257999D01*
X123859669Y-129257999D01*
X123866490Y-129257629D01*
X123917352Y-129252105D01*
X123932604Y-129248479D01*
X124053054Y-129203324D01*
X124068649Y-129194786D01*
X124170724Y-129118285D01*
X124183285Y-129105724D01*
X124259786Y-129003649D01*
X124268324Y-128988054D01*
X124313478Y-128867606D01*
X124317105Y-128852351D01*
X124322631Y-128801486D01*
X124323000Y-128794672D01*
X124323000Y-128276004D01*
X125696500Y-128276004D01*
X125711277Y-128426713D01*
X125769858Y-128620742D01*
X125865010Y-128799698D01*
X125868904Y-128804472D01*
X125868905Y-128804474D01*
X125896756Y-128838622D01*
X125993110Y-128956763D01*
X125997857Y-128960690D01*
X125997859Y-128960692D01*
X126144528Y-129082027D01*
X126144531Y-129082029D01*
X126149278Y-129085956D01*
X126327565Y-129182356D01*
X126420076Y-129210993D01*
X126515293Y-129240468D01*
X126515296Y-129240469D01*
X126521180Y-129242290D01*
X126527305Y-129242934D01*
X126527306Y-129242934D01*
X126716622Y-129262832D01*
X126716623Y-129262832D01*
X126722750Y-129263476D01*
X126832090Y-129253525D01*
X126918457Y-129245665D01*
X126918460Y-129245664D01*
X126924596Y-129245106D01*
X126930502Y-129243368D01*
X126930506Y-129243367D01*
X127071909Y-129201749D01*
X127119029Y-129187881D01*
X127124486Y-129185028D01*
X127124489Y-129185027D01*
X127276182Y-129105724D01*
X127298460Y-129094077D01*
X127298462Y-129094077D01*
X127298645Y-129093981D01*
X127298663Y-129094016D01*
X127364441Y-129074111D01*
X127425409Y-129089271D01*
X127597565Y-129182356D01*
X127690076Y-129210993D01*
X127785293Y-129240468D01*
X127785296Y-129240469D01*
X127791180Y-129242290D01*
X127797305Y-129242934D01*
X127797306Y-129242934D01*
X127986622Y-129262832D01*
X127986623Y-129262832D01*
X127992750Y-129263476D01*
X128102090Y-129253525D01*
X128188457Y-129245665D01*
X128188460Y-129245664D01*
X128194596Y-129245106D01*
X128200502Y-129243368D01*
X128200506Y-129243367D01*
X128300315Y-129213991D01*
X128389029Y-129187881D01*
X128389229Y-129188559D01*
X128455273Y-129182044D01*
X128492323Y-129195320D01*
X128506937Y-129203321D01*
X128627394Y-129248478D01*
X128642649Y-129252105D01*
X128693514Y-129257631D01*
X128700328Y-129258000D01*
X128997885Y-129258000D01*
X129013124Y-129253525D01*
X129014329Y-129252135D01*
X129016000Y-129244452D01*
X129016000Y-129239884D01*
X129524000Y-129239884D01*
X129528475Y-129255123D01*
X129529865Y-129256328D01*
X129537548Y-129257999D01*
X129839669Y-129257999D01*
X129846490Y-129257629D01*
X129897352Y-129252105D01*
X129912604Y-129248479D01*
X130033054Y-129203324D01*
X130048649Y-129194786D01*
X130150724Y-129118285D01*
X130163285Y-129105724D01*
X130239786Y-129003649D01*
X130248324Y-128988054D01*
X130263289Y-128948134D01*
X133841500Y-128948134D01*
X133848255Y-129010316D01*
X133899385Y-129146705D01*
X133986739Y-129263261D01*
X134103295Y-129350615D01*
X134239684Y-129401745D01*
X134301866Y-129408500D01*
X136198134Y-129408500D01*
X136260316Y-129401745D01*
X136396705Y-129350615D01*
X136513261Y-129263261D01*
X136600615Y-129146705D01*
X136625180Y-129081178D01*
X136667822Y-129024414D01*
X136734383Y-128999714D01*
X136803732Y-129014921D01*
X136823647Y-129028464D01*
X136916707Y-129105724D01*
X136979349Y-129157730D01*
X137179322Y-129274584D01*
X137184147Y-129276426D01*
X137184148Y-129276427D01*
X137239393Y-129297523D01*
X137395694Y-129357209D01*
X137400760Y-129358240D01*
X137400761Y-129358240D01*
X137422791Y-129362722D01*
X137622656Y-129403385D01*
X137752089Y-129408131D01*
X137848949Y-129411683D01*
X137848953Y-129411683D01*
X137854113Y-129411872D01*
X137859233Y-129411216D01*
X137859235Y-129411216D01*
X137933166Y-129401745D01*
X138083847Y-129382442D01*
X138088795Y-129380957D01*
X138088802Y-129380956D01*
X138300747Y-129317369D01*
X138305690Y-129315886D01*
X138386236Y-129276427D01*
X138509049Y-129216262D01*
X138509052Y-129216260D01*
X138513684Y-129213991D01*
X138702243Y-129079494D01*
X138866303Y-128916005D01*
X139001458Y-128727917D01*
X139048641Y-128632450D01*
X139101784Y-128524922D01*
X139101785Y-128524920D01*
X139104078Y-128520280D01*
X139171408Y-128298671D01*
X139201640Y-128069041D01*
X139203327Y-128000000D01*
X139197032Y-127923434D01*
X139184773Y-127774318D01*
X139184772Y-127774312D01*
X139184349Y-127769167D01*
X139156137Y-127656850D01*
X139129184Y-127549544D01*
X139129183Y-127549540D01*
X139127925Y-127544533D01*
X139125866Y-127539797D01*
X139037630Y-127336868D01*
X139037628Y-127336865D01*
X139035570Y-127332131D01*
X138909764Y-127137665D01*
X138753887Y-126966358D01*
X138749836Y-126963159D01*
X138749832Y-126963155D01*
X138576177Y-126826011D01*
X138576172Y-126826008D01*
X138572123Y-126822810D01*
X138567607Y-126820317D01*
X138567604Y-126820315D01*
X138373879Y-126713373D01*
X138373875Y-126713371D01*
X138369355Y-126710876D01*
X138364486Y-126709152D01*
X138364482Y-126709150D01*
X138155903Y-126635288D01*
X138155899Y-126635287D01*
X138151028Y-126633562D01*
X138145935Y-126632655D01*
X138145932Y-126632654D01*
X137928095Y-126593851D01*
X137928089Y-126593850D01*
X137923006Y-126592945D01*
X137850096Y-126592054D01*
X137696581Y-126590179D01*
X137696579Y-126590179D01*
X137691411Y-126590116D01*
X137462464Y-126625150D01*
X137242314Y-126697106D01*
X137237726Y-126699494D01*
X137237722Y-126699496D01*
X137091134Y-126775805D01*
X137036872Y-126804052D01*
X137032739Y-126807155D01*
X137032736Y-126807157D01*
X136855790Y-126940012D01*
X136851655Y-126943117D01*
X136838122Y-126957278D01*
X136834170Y-126961414D01*
X136772646Y-126996844D01*
X136701733Y-126993387D01*
X136643947Y-126952141D01*
X136625094Y-126918592D01*
X136603768Y-126861705D01*
X136603767Y-126861703D01*
X136600615Y-126853295D01*
X136513261Y-126736739D01*
X136396705Y-126649385D01*
X136260316Y-126598255D01*
X136198134Y-126591500D01*
X134301866Y-126591500D01*
X134239684Y-126598255D01*
X134103295Y-126649385D01*
X133986739Y-126736739D01*
X133899385Y-126853295D01*
X133848255Y-126989684D01*
X133841500Y-127051866D01*
X133841500Y-128948134D01*
X130263289Y-128948134D01*
X130293478Y-128867606D01*
X130297105Y-128852351D01*
X130302631Y-128801486D01*
X130303000Y-128794672D01*
X130303000Y-128272115D01*
X130298525Y-128256876D01*
X130297135Y-128255671D01*
X130289452Y-128254000D01*
X129542115Y-128254000D01*
X129526876Y-128258475D01*
X129525671Y-128259865D01*
X129524000Y-128267548D01*
X129524000Y-129239884D01*
X129016000Y-129239884D01*
X129016000Y-128446242D01*
X129016785Y-128432197D01*
X129021733Y-128388087D01*
X129033500Y-128283183D01*
X129033500Y-127727885D01*
X129524000Y-127727885D01*
X129528475Y-127743124D01*
X129529865Y-127744329D01*
X129537548Y-127746000D01*
X130284884Y-127746000D01*
X130300123Y-127741525D01*
X130301328Y-127740135D01*
X130302999Y-127732452D01*
X130302999Y-127205331D01*
X130302629Y-127198510D01*
X130297105Y-127147648D01*
X130293479Y-127132396D01*
X130248324Y-127011946D01*
X130239786Y-126996351D01*
X130163285Y-126894276D01*
X130150724Y-126881715D01*
X130048649Y-126805214D01*
X130033054Y-126796676D01*
X129912606Y-126751522D01*
X129897351Y-126747895D01*
X129846486Y-126742369D01*
X129839672Y-126742000D01*
X129542115Y-126742000D01*
X129526876Y-126746475D01*
X129525671Y-126747865D01*
X129524000Y-126755548D01*
X129524000Y-127727885D01*
X129033500Y-127727885D01*
X129033500Y-127723996D01*
X129018723Y-127573287D01*
X129018032Y-127570998D01*
X129016000Y-127550276D01*
X129016000Y-126760116D01*
X129011525Y-126744877D01*
X129010135Y-126743672D01*
X129002452Y-126742001D01*
X128700331Y-126742001D01*
X128693510Y-126742371D01*
X128642648Y-126747895D01*
X128627396Y-126751521D01*
X128506944Y-126796677D01*
X128491534Y-126805114D01*
X128422177Y-126820284D01*
X128393764Y-126814960D01*
X128384587Y-126812119D01*
X128208820Y-126757710D01*
X128202695Y-126757066D01*
X128202694Y-126757066D01*
X128013378Y-126737168D01*
X128013377Y-126737168D01*
X128007250Y-126736524D01*
X127928709Y-126743672D01*
X127811543Y-126754335D01*
X127811540Y-126754336D01*
X127805404Y-126754894D01*
X127799498Y-126756632D01*
X127799494Y-126756633D01*
X127663442Y-126796676D01*
X127610971Y-126812119D01*
X127605514Y-126814972D01*
X127605511Y-126814973D01*
X127545953Y-126846109D01*
X127431540Y-126905923D01*
X127431538Y-126905923D01*
X127431355Y-126906019D01*
X127431337Y-126905984D01*
X127365559Y-126925889D01*
X127304591Y-126910729D01*
X127295815Y-126905984D01*
X127132435Y-126817644D01*
X127035627Y-126787677D01*
X126944707Y-126759532D01*
X126944704Y-126759531D01*
X126938820Y-126757710D01*
X126932695Y-126757066D01*
X126932694Y-126757066D01*
X126743378Y-126737168D01*
X126743377Y-126737168D01*
X126737250Y-126736524D01*
X126658709Y-126743672D01*
X126541543Y-126754335D01*
X126541540Y-126754336D01*
X126535404Y-126754894D01*
X126529498Y-126756632D01*
X126529494Y-126756633D01*
X126393442Y-126796676D01*
X126340971Y-126812119D01*
X126335514Y-126814972D01*
X126335511Y-126814973D01*
X126275953Y-126846109D01*
X126161355Y-126906019D01*
X126003399Y-127033019D01*
X125873119Y-127188281D01*
X125870155Y-127193673D01*
X125870152Y-127193677D01*
X125778444Y-127360494D01*
X125775477Y-127365891D01*
X125714193Y-127559084D01*
X125713507Y-127565201D01*
X125713506Y-127565205D01*
X125711912Y-127579418D01*
X125696500Y-127716817D01*
X125696500Y-128276004D01*
X124323000Y-128276004D01*
X124323000Y-128272115D01*
X124318525Y-128256876D01*
X124317135Y-128255671D01*
X124309452Y-128254000D01*
X123562115Y-128254000D01*
X123546876Y-128258475D01*
X123545671Y-128259865D01*
X123544000Y-128267548D01*
X123544000Y-129239884D01*
X123036000Y-129239884D01*
X123036000Y-128446242D01*
X123036785Y-128432197D01*
X123041733Y-128388087D01*
X123053500Y-128283183D01*
X123053500Y-127727885D01*
X123544000Y-127727885D01*
X123548475Y-127743124D01*
X123549865Y-127744329D01*
X123557548Y-127746000D01*
X124304884Y-127746000D01*
X124320123Y-127741525D01*
X124321328Y-127740135D01*
X124322999Y-127732452D01*
X124322999Y-127205331D01*
X124322629Y-127198510D01*
X124317105Y-127147648D01*
X124313479Y-127132396D01*
X124268324Y-127011946D01*
X124259786Y-126996351D01*
X124183285Y-126894276D01*
X124170724Y-126881715D01*
X124068649Y-126805214D01*
X124053054Y-126796676D01*
X123932606Y-126751522D01*
X123917351Y-126747895D01*
X123866486Y-126742369D01*
X123859672Y-126742000D01*
X123562115Y-126742000D01*
X123546876Y-126746475D01*
X123545671Y-126747865D01*
X123544000Y-126755548D01*
X123544000Y-127727885D01*
X123053500Y-127727885D01*
X123053500Y-127723996D01*
X123038723Y-127573287D01*
X123038032Y-127570998D01*
X123036000Y-127550276D01*
X123036000Y-126760116D01*
X123031525Y-126744877D01*
X123030135Y-126743672D01*
X123022452Y-126742001D01*
X122720331Y-126742001D01*
X122713510Y-126742371D01*
X122662648Y-126747895D01*
X122647396Y-126751521D01*
X122526944Y-126796677D01*
X122511534Y-126805114D01*
X122442177Y-126820284D01*
X122413764Y-126814960D01*
X122404587Y-126812119D01*
X122228820Y-126757710D01*
X122222695Y-126757066D01*
X122222694Y-126757066D01*
X122033378Y-126737168D01*
X122033377Y-126737168D01*
X122027250Y-126736524D01*
X121948709Y-126743672D01*
X121831543Y-126754335D01*
X121831540Y-126754336D01*
X121825404Y-126754894D01*
X121819498Y-126756632D01*
X121819494Y-126756633D01*
X121683442Y-126796676D01*
X121630971Y-126812119D01*
X121625514Y-126814972D01*
X121625511Y-126814973D01*
X121565953Y-126846109D01*
X121451540Y-126905923D01*
X121451538Y-126905923D01*
X121451355Y-126906019D01*
X121451337Y-126905984D01*
X121385559Y-126925889D01*
X121324591Y-126910729D01*
X121315815Y-126905984D01*
X121152435Y-126817644D01*
X121055627Y-126787677D01*
X120964707Y-126759532D01*
X120964704Y-126759531D01*
X120958820Y-126757710D01*
X120952695Y-126757066D01*
X120952694Y-126757066D01*
X120763378Y-126737168D01*
X120763377Y-126737168D01*
X120757250Y-126736524D01*
X120678709Y-126743672D01*
X120561543Y-126754335D01*
X120561540Y-126754336D01*
X120555404Y-126754894D01*
X120549498Y-126756632D01*
X120549494Y-126756633D01*
X120413442Y-126796676D01*
X120360971Y-126812119D01*
X120355514Y-126814972D01*
X120355511Y-126814973D01*
X120295953Y-126846109D01*
X120181355Y-126906019D01*
X120023399Y-127033019D01*
X119893119Y-127188281D01*
X119890155Y-127193673D01*
X119890152Y-127193677D01*
X119798444Y-127360494D01*
X119795477Y-127365891D01*
X119734193Y-127559084D01*
X119733507Y-127565201D01*
X119733506Y-127565205D01*
X119731912Y-127579418D01*
X119716500Y-127716817D01*
X119716500Y-128276004D01*
X116158500Y-128276004D01*
X116158500Y-127051866D01*
X116151745Y-126989684D01*
X116100615Y-126853295D01*
X116013261Y-126736739D01*
X115896705Y-126649385D01*
X115760316Y-126598255D01*
X115698134Y-126591500D01*
X113801866Y-126591500D01*
X113739684Y-126598255D01*
X113603295Y-126649385D01*
X113486739Y-126736739D01*
X113399385Y-126853295D01*
X113396233Y-126861703D01*
X113396232Y-126861705D01*
X113375538Y-126916906D01*
X113332897Y-126973671D01*
X113266335Y-126998371D01*
X113196986Y-126983164D01*
X113174167Y-126966666D01*
X113173887Y-126966358D01*
X113107646Y-126914044D01*
X112996177Y-126826011D01*
X112996172Y-126826008D01*
X112992123Y-126822810D01*
X112987607Y-126820317D01*
X112987604Y-126820315D01*
X112793879Y-126713373D01*
X112793875Y-126713371D01*
X112789355Y-126710876D01*
X112784486Y-126709152D01*
X112784482Y-126709150D01*
X112575903Y-126635288D01*
X112575899Y-126635287D01*
X112571028Y-126633562D01*
X112565935Y-126632655D01*
X112565932Y-126632654D01*
X112348095Y-126593851D01*
X112348089Y-126593850D01*
X112343006Y-126592945D01*
X112270096Y-126592054D01*
X112116581Y-126590179D01*
X112116579Y-126590179D01*
X112111411Y-126590116D01*
X111882464Y-126625150D01*
X111662314Y-126697106D01*
X111657726Y-126699494D01*
X111657722Y-126699496D01*
X111511134Y-126775805D01*
X111456872Y-126804052D01*
X111452739Y-126807155D01*
X111452736Y-126807157D01*
X111275790Y-126940012D01*
X111271655Y-126943117D01*
X111111639Y-127110564D01*
X111108725Y-127114836D01*
X111108724Y-127114837D01*
X111093152Y-127137665D01*
X110981119Y-127301899D01*
X110883602Y-127511981D01*
X110821707Y-127735169D01*
X110797095Y-127965469D01*
X102536479Y-127965469D01*
X102533543Y-127931913D01*
X102488592Y-127764156D01*
X102475707Y-127716067D01*
X102475706Y-127716065D01*
X102474284Y-127710757D01*
X102410864Y-127574751D01*
X102379849Y-127508238D01*
X102379846Y-127508233D01*
X102377523Y-127503251D01*
X102246198Y-127315700D01*
X102084300Y-127153802D01*
X102079792Y-127150645D01*
X102079789Y-127150643D01*
X102001611Y-127095902D01*
X101896749Y-127022477D01*
X101891767Y-127020154D01*
X101891762Y-127020151D01*
X101857543Y-127004195D01*
X101804258Y-126957278D01*
X101784797Y-126889001D01*
X101805339Y-126821041D01*
X101857543Y-126775805D01*
X101891762Y-126759849D01*
X101891767Y-126759846D01*
X101896749Y-126757523D01*
X102055687Y-126646233D01*
X102079789Y-126629357D01*
X102079792Y-126629355D01*
X102084300Y-126626198D01*
X102246198Y-126464300D01*
X102377523Y-126276749D01*
X102379846Y-126271767D01*
X102379849Y-126271762D01*
X102471961Y-126074225D01*
X102471961Y-126074224D01*
X102474284Y-126069243D01*
X102533543Y-125848087D01*
X102553498Y-125620000D01*
X102533543Y-125391913D01*
X102474284Y-125170757D01*
X102471961Y-125165775D01*
X102379849Y-124968238D01*
X102379846Y-124968233D01*
X102377523Y-124963251D01*
X102246198Y-124775700D01*
X102084300Y-124613802D01*
X102079792Y-124610645D01*
X102079789Y-124610643D01*
X102001611Y-124555902D01*
X101896749Y-124482477D01*
X101891767Y-124480154D01*
X101891762Y-124480151D01*
X101857543Y-124464195D01*
X101804258Y-124417278D01*
X101784797Y-124349001D01*
X101805339Y-124281041D01*
X101857543Y-124235805D01*
X101891762Y-124219849D01*
X101891767Y-124219846D01*
X101896749Y-124217523D01*
X102001611Y-124144098D01*
X102079789Y-124089357D01*
X102079792Y-124089355D01*
X102084300Y-124086198D01*
X102246198Y-123924300D01*
X102377523Y-123736749D01*
X102379846Y-123731767D01*
X102379849Y-123731762D01*
X102471961Y-123534225D01*
X102471961Y-123534224D01*
X102474284Y-123529243D01*
X102533543Y-123308087D01*
X102553498Y-123080000D01*
X102537750Y-122900000D01*
X132411496Y-122900000D01*
X132412186Y-122906565D01*
X132430415Y-123080000D01*
X132431458Y-123089928D01*
X132490473Y-123271556D01*
X132585960Y-123436944D01*
X132713747Y-123578866D01*
X132868248Y-123691118D01*
X132874276Y-123693802D01*
X132874278Y-123693803D01*
X133036681Y-123766109D01*
X133042712Y-123768794D01*
X133136113Y-123788647D01*
X133223056Y-123807128D01*
X133223061Y-123807128D01*
X133229513Y-123808500D01*
X133420487Y-123808500D01*
X133426939Y-123807128D01*
X133426944Y-123807128D01*
X133513887Y-123788647D01*
X133607288Y-123768794D01*
X133613319Y-123766109D01*
X133775722Y-123693803D01*
X133775724Y-123693802D01*
X133781752Y-123691118D01*
X133936253Y-123578866D01*
X134064040Y-123436944D01*
X134159527Y-123271556D01*
X134218542Y-123089928D01*
X134219586Y-123080000D01*
X134237814Y-122906565D01*
X134238504Y-122900000D01*
X134218542Y-122710072D01*
X134159527Y-122528444D01*
X134064040Y-122363056D01*
X133945860Y-122231803D01*
X133940675Y-122226045D01*
X133940674Y-122226044D01*
X133936253Y-122221134D01*
X133781752Y-122108882D01*
X133775724Y-122106198D01*
X133775722Y-122106197D01*
X133613319Y-122033891D01*
X133613318Y-122033891D01*
X133607288Y-122031206D01*
X133513888Y-122011353D01*
X133426944Y-121992872D01*
X133426939Y-121992872D01*
X133420487Y-121991500D01*
X133229513Y-121991500D01*
X133223061Y-121992872D01*
X133223056Y-121992872D01*
X133136112Y-122011353D01*
X133042712Y-122031206D01*
X133036682Y-122033891D01*
X133036681Y-122033891D01*
X132874278Y-122106197D01*
X132874276Y-122106198D01*
X132868248Y-122108882D01*
X132713747Y-122221134D01*
X132709326Y-122226044D01*
X132709325Y-122226045D01*
X132704141Y-122231803D01*
X132585960Y-122363056D01*
X132490473Y-122528444D01*
X132431458Y-122710072D01*
X132411496Y-122900000D01*
X102537750Y-122900000D01*
X102533543Y-122851913D01*
X102495537Y-122710072D01*
X102475707Y-122636067D01*
X102475706Y-122636065D01*
X102474284Y-122630757D01*
X102426575Y-122528444D01*
X102379849Y-122428238D01*
X102379846Y-122428233D01*
X102377523Y-122423251D01*
X102296213Y-122307128D01*
X102249357Y-122240211D01*
X102249355Y-122240208D01*
X102246198Y-122235700D01*
X102084300Y-122073802D01*
X102079792Y-122070645D01*
X102079789Y-122070643D01*
X101944780Y-121976109D01*
X101896749Y-121942477D01*
X101891767Y-121940154D01*
X101891762Y-121940151D01*
X101857543Y-121924195D01*
X101804258Y-121877278D01*
X101784797Y-121809001D01*
X101805339Y-121741041D01*
X101857543Y-121695805D01*
X101891762Y-121679849D01*
X101891767Y-121679846D01*
X101896749Y-121677523D01*
X102031220Y-121583365D01*
X102079789Y-121549357D01*
X102079792Y-121549355D01*
X102084300Y-121546198D01*
X102246198Y-121384300D01*
X102251115Y-121377279D01*
X102309872Y-121293365D01*
X102377523Y-121196749D01*
X102379846Y-121191767D01*
X102379849Y-121191762D01*
X102417975Y-121110000D01*
X112351496Y-121110000D01*
X112352186Y-121116565D01*
X112360614Y-121196749D01*
X112371458Y-121299928D01*
X112430473Y-121481556D01*
X112525960Y-121646944D01*
X112530378Y-121651851D01*
X112530379Y-121651852D01*
X112610685Y-121741041D01*
X112653747Y-121788866D01*
X112808248Y-121901118D01*
X112814276Y-121903802D01*
X112814278Y-121903803D01*
X112901142Y-121942477D01*
X112982712Y-121978794D01*
X113076113Y-121998647D01*
X113163056Y-122017128D01*
X113163061Y-122017128D01*
X113169513Y-122018500D01*
X113360487Y-122018500D01*
X113366939Y-122017128D01*
X113366944Y-122017128D01*
X113453887Y-121998647D01*
X113547288Y-121978794D01*
X113628858Y-121942477D01*
X113715722Y-121903803D01*
X113715724Y-121903802D01*
X113721752Y-121901118D01*
X113876253Y-121788866D01*
X113919315Y-121741041D01*
X113999621Y-121651852D01*
X113999622Y-121651851D01*
X114004040Y-121646944D01*
X114099527Y-121481556D01*
X114126026Y-121400000D01*
X124186496Y-121400000D01*
X124206458Y-121589928D01*
X124265473Y-121771556D01*
X124268776Y-121777278D01*
X124268777Y-121777279D01*
X124274526Y-121787237D01*
X124360960Y-121936944D01*
X124365378Y-121941851D01*
X124365379Y-121941852D01*
X124396224Y-121976109D01*
X124488747Y-122078866D01*
X124643248Y-122191118D01*
X124649276Y-122193802D01*
X124649278Y-122193803D01*
X124734628Y-122231803D01*
X124817712Y-122268794D01*
X124911112Y-122288647D01*
X124998056Y-122307128D01*
X124998061Y-122307128D01*
X125004513Y-122308500D01*
X125195487Y-122308500D01*
X125201939Y-122307128D01*
X125201944Y-122307128D01*
X125288888Y-122288647D01*
X125382288Y-122268794D01*
X125465372Y-122231803D01*
X125550722Y-122193803D01*
X125550724Y-122193802D01*
X125556752Y-122191118D01*
X125711253Y-122078866D01*
X125803776Y-121976109D01*
X125834621Y-121941852D01*
X125834622Y-121941851D01*
X125839040Y-121936944D01*
X125925474Y-121787237D01*
X125931223Y-121777279D01*
X125931224Y-121777278D01*
X125934527Y-121771556D01*
X125993542Y-121589928D01*
X126013504Y-121400000D01*
X125993542Y-121210072D01*
X125934527Y-121028444D01*
X125918105Y-121000000D01*
X135861496Y-121000000D01*
X135881458Y-121189928D01*
X135940473Y-121371556D01*
X136035960Y-121536944D01*
X136040378Y-121541851D01*
X136040379Y-121541852D01*
X136159325Y-121673955D01*
X136163747Y-121678866D01*
X136318248Y-121791118D01*
X136324276Y-121793802D01*
X136324278Y-121793803D01*
X136486681Y-121866109D01*
X136492712Y-121868794D01*
X136586112Y-121888647D01*
X136673056Y-121907128D01*
X136673061Y-121907128D01*
X136679513Y-121908500D01*
X136870487Y-121908500D01*
X136876939Y-121907128D01*
X136876944Y-121907128D01*
X136963888Y-121888647D01*
X137057288Y-121868794D01*
X137063319Y-121866109D01*
X137225722Y-121793803D01*
X137225724Y-121793802D01*
X137231752Y-121791118D01*
X137386253Y-121678866D01*
X137390675Y-121673955D01*
X137509621Y-121541852D01*
X137509622Y-121541851D01*
X137514040Y-121536944D01*
X137609527Y-121371556D01*
X137668542Y-121189928D01*
X137688504Y-121000000D01*
X137680103Y-120920072D01*
X137669232Y-120816635D01*
X137669232Y-120816633D01*
X137668542Y-120810072D01*
X137609527Y-120628444D01*
X137514040Y-120463056D01*
X137485298Y-120431134D01*
X137390675Y-120326045D01*
X137390674Y-120326044D01*
X137386253Y-120321134D01*
X137231752Y-120208882D01*
X137225724Y-120206198D01*
X137225722Y-120206197D01*
X137063319Y-120133891D01*
X137063318Y-120133891D01*
X137057288Y-120131206D01*
X136963887Y-120111353D01*
X136876944Y-120092872D01*
X136876939Y-120092872D01*
X136870487Y-120091500D01*
X136679513Y-120091500D01*
X136673061Y-120092872D01*
X136673056Y-120092872D01*
X136586113Y-120111353D01*
X136492712Y-120131206D01*
X136486682Y-120133891D01*
X136486681Y-120133891D01*
X136324278Y-120206197D01*
X136324276Y-120206198D01*
X136318248Y-120208882D01*
X136163747Y-120321134D01*
X136159326Y-120326044D01*
X136159325Y-120326045D01*
X136064703Y-120431134D01*
X136035960Y-120463056D01*
X135940473Y-120628444D01*
X135881458Y-120810072D01*
X135880768Y-120816633D01*
X135880768Y-120816635D01*
X135869897Y-120920072D01*
X135861496Y-121000000D01*
X125918105Y-121000000D01*
X125839040Y-120863056D01*
X125797243Y-120816635D01*
X125715675Y-120726045D01*
X125715674Y-120726044D01*
X125711253Y-120721134D01*
X125556752Y-120608882D01*
X125550724Y-120606198D01*
X125550722Y-120606197D01*
X125388319Y-120533891D01*
X125388318Y-120533891D01*
X125382288Y-120531206D01*
X125288887Y-120511353D01*
X125201944Y-120492872D01*
X125201939Y-120492872D01*
X125195487Y-120491500D01*
X125004513Y-120491500D01*
X124998061Y-120492872D01*
X124998056Y-120492872D01*
X124911113Y-120511353D01*
X124817712Y-120531206D01*
X124811682Y-120533891D01*
X124811681Y-120533891D01*
X124649278Y-120606197D01*
X124649276Y-120606198D01*
X124643248Y-120608882D01*
X124488747Y-120721134D01*
X124484326Y-120726044D01*
X124484325Y-120726045D01*
X124402758Y-120816635D01*
X124360960Y-120863056D01*
X124265473Y-121028444D01*
X124206458Y-121210072D01*
X124186496Y-121400000D01*
X114126026Y-121400000D01*
X114158542Y-121299928D01*
X114169387Y-121196749D01*
X114177814Y-121116565D01*
X114178504Y-121110000D01*
X114158542Y-120920072D01*
X114099527Y-120738444D01*
X114092369Y-120726045D01*
X114007341Y-120578774D01*
X114004040Y-120573056D01*
X113900577Y-120458148D01*
X113880675Y-120436045D01*
X113880674Y-120436044D01*
X113876253Y-120431134D01*
X113721752Y-120318882D01*
X113715724Y-120316198D01*
X113715722Y-120316197D01*
X113553319Y-120243891D01*
X113553318Y-120243891D01*
X113547288Y-120241206D01*
X113453887Y-120221353D01*
X113366944Y-120202872D01*
X113366939Y-120202872D01*
X113360487Y-120201500D01*
X113169513Y-120201500D01*
X113163061Y-120202872D01*
X113163056Y-120202872D01*
X113076113Y-120221353D01*
X112982712Y-120241206D01*
X112976682Y-120243891D01*
X112976681Y-120243891D01*
X112814278Y-120316197D01*
X112814276Y-120316198D01*
X112808248Y-120318882D01*
X112653747Y-120431134D01*
X112649326Y-120436044D01*
X112649325Y-120436045D01*
X112629424Y-120458148D01*
X112525960Y-120573056D01*
X112522659Y-120578774D01*
X112437632Y-120726045D01*
X112430473Y-120738444D01*
X112371458Y-120920072D01*
X112351496Y-121110000D01*
X102417975Y-121110000D01*
X102471961Y-120994225D01*
X102471961Y-120994224D01*
X102474284Y-120989243D01*
X102492819Y-120920072D01*
X102532119Y-120773402D01*
X102532119Y-120773400D01*
X102533543Y-120768087D01*
X102553498Y-120540000D01*
X102533543Y-120311913D01*
X102532119Y-120306598D01*
X102475707Y-120096067D01*
X102475706Y-120096065D01*
X102474284Y-120090757D01*
X102471961Y-120085775D01*
X102379849Y-119888238D01*
X102379846Y-119888233D01*
X102377523Y-119883251D01*
X102246198Y-119695700D01*
X102084300Y-119533802D01*
X102079792Y-119530645D01*
X102079789Y-119530643D01*
X102001611Y-119475902D01*
X101896749Y-119402477D01*
X101891767Y-119400154D01*
X101891762Y-119400151D01*
X101857543Y-119384195D01*
X101804258Y-119337278D01*
X101784797Y-119269001D01*
X101805339Y-119201041D01*
X101857543Y-119155805D01*
X101891762Y-119139849D01*
X101891767Y-119139846D01*
X101896749Y-119137523D01*
X102001611Y-119064098D01*
X102079789Y-119009357D01*
X102079792Y-119009355D01*
X102084300Y-119006198D01*
X102246198Y-118844300D01*
X102377523Y-118656749D01*
X102379846Y-118651767D01*
X102379849Y-118651762D01*
X102471961Y-118454225D01*
X102471961Y-118454224D01*
X102474284Y-118449243D01*
X102495841Y-118368794D01*
X102532119Y-118233402D01*
X102532119Y-118233400D01*
X102533543Y-118228087D01*
X102553498Y-118000000D01*
X102533543Y-117771913D01*
X102511575Y-117689928D01*
X102475707Y-117556067D01*
X102475706Y-117556065D01*
X102474284Y-117550757D01*
X102450616Y-117500000D01*
X114161496Y-117500000D01*
X114181458Y-117689928D01*
X114240473Y-117871556D01*
X114335960Y-118036944D01*
X114463747Y-118178866D01*
X114618248Y-118291118D01*
X114624276Y-118293802D01*
X114624278Y-118293803D01*
X114786681Y-118366109D01*
X114792712Y-118368794D01*
X114886113Y-118388647D01*
X114973056Y-118407128D01*
X114973061Y-118407128D01*
X114979513Y-118408500D01*
X115170487Y-118408500D01*
X115176939Y-118407128D01*
X115176944Y-118407128D01*
X115263887Y-118388647D01*
X115357288Y-118368794D01*
X115363319Y-118366109D01*
X115525722Y-118293803D01*
X115525724Y-118293802D01*
X115531752Y-118291118D01*
X115686253Y-118178866D01*
X115814040Y-118036944D01*
X115909527Y-117871556D01*
X115968542Y-117689928D01*
X115988504Y-117500000D01*
X134011496Y-117500000D01*
X134031458Y-117689928D01*
X134090473Y-117871556D01*
X134185960Y-118036944D01*
X134313747Y-118178866D01*
X134468248Y-118291118D01*
X134474276Y-118293802D01*
X134474278Y-118293803D01*
X134636681Y-118366109D01*
X134642712Y-118368794D01*
X134736113Y-118388647D01*
X134823056Y-118407128D01*
X134823061Y-118407128D01*
X134829513Y-118408500D01*
X135020487Y-118408500D01*
X135026939Y-118407128D01*
X135026944Y-118407128D01*
X135113887Y-118388647D01*
X135207288Y-118368794D01*
X135213319Y-118366109D01*
X135375722Y-118293803D01*
X135375724Y-118293802D01*
X135381752Y-118291118D01*
X135536253Y-118178866D01*
X135664040Y-118036944D01*
X135759527Y-117871556D01*
X135818542Y-117689928D01*
X135838504Y-117500000D01*
X135837814Y-117493435D01*
X135819232Y-117316635D01*
X135819232Y-117316633D01*
X135818542Y-117310072D01*
X135759527Y-117128444D01*
X135664040Y-116963056D01*
X135536253Y-116821134D01*
X135381752Y-116708882D01*
X135375724Y-116706198D01*
X135375722Y-116706197D01*
X135213319Y-116633891D01*
X135213318Y-116633891D01*
X135207288Y-116631206D01*
X135113887Y-116611353D01*
X135026944Y-116592872D01*
X135026939Y-116592872D01*
X135020487Y-116591500D01*
X134829513Y-116591500D01*
X134823061Y-116592872D01*
X134823056Y-116592872D01*
X134736113Y-116611353D01*
X134642712Y-116631206D01*
X134636682Y-116633891D01*
X134636681Y-116633891D01*
X134474278Y-116706197D01*
X134474276Y-116706198D01*
X134468248Y-116708882D01*
X134313747Y-116821134D01*
X134185960Y-116963056D01*
X134090473Y-117128444D01*
X134031458Y-117310072D01*
X134030768Y-117316633D01*
X134030768Y-117316635D01*
X134012186Y-117493435D01*
X134011496Y-117500000D01*
X115988504Y-117500000D01*
X115987814Y-117493435D01*
X115969232Y-117316635D01*
X115969232Y-117316633D01*
X115968542Y-117310072D01*
X115909527Y-117128444D01*
X115814040Y-116963056D01*
X115686253Y-116821134D01*
X115531752Y-116708882D01*
X115525724Y-116706198D01*
X115525722Y-116706197D01*
X115363319Y-116633891D01*
X115363318Y-116633891D01*
X115357288Y-116631206D01*
X115263887Y-116611353D01*
X115176944Y-116592872D01*
X115176939Y-116592872D01*
X115170487Y-116591500D01*
X114979513Y-116591500D01*
X114973061Y-116592872D01*
X114973056Y-116592872D01*
X114886113Y-116611353D01*
X114792712Y-116631206D01*
X114786682Y-116633891D01*
X114786681Y-116633891D01*
X114624278Y-116706197D01*
X114624276Y-116706198D01*
X114618248Y-116708882D01*
X114463747Y-116821134D01*
X114335960Y-116963056D01*
X114240473Y-117128444D01*
X114181458Y-117310072D01*
X114180768Y-117316633D01*
X114180768Y-117316635D01*
X114162186Y-117493435D01*
X114161496Y-117500000D01*
X102450616Y-117500000D01*
X102379849Y-117348238D01*
X102379846Y-117348233D01*
X102377523Y-117343251D01*
X102246198Y-117155700D01*
X102084300Y-116993802D01*
X102079792Y-116990645D01*
X102079789Y-116990643D01*
X102001611Y-116935902D01*
X101896749Y-116862477D01*
X101891767Y-116860154D01*
X101891762Y-116860151D01*
X101694225Y-116768039D01*
X101694224Y-116768039D01*
X101689243Y-116765716D01*
X101683935Y-116764294D01*
X101683933Y-116764293D01*
X101473402Y-116707881D01*
X101473400Y-116707881D01*
X101468087Y-116706457D01*
X101240000Y-116686502D01*
X101011913Y-116706457D01*
X101006600Y-116707881D01*
X101006598Y-116707881D01*
X100796067Y-116764293D01*
X100796065Y-116764294D01*
X100790757Y-116765716D01*
X100785776Y-116768039D01*
X100785775Y-116768039D01*
X100588238Y-116860151D01*
X100588233Y-116860154D01*
X100583251Y-116862477D01*
X100478389Y-116935902D01*
X100400211Y-116990643D01*
X100400208Y-116990645D01*
X100395700Y-116993802D01*
X100233802Y-117155700D01*
X100102477Y-117343251D01*
X100100154Y-117348233D01*
X100100151Y-117348238D01*
X100029384Y-117500000D01*
X100005716Y-117550757D01*
X100004294Y-117556065D01*
X100004293Y-117556067D01*
X99968425Y-117689928D01*
X99946457Y-117771913D01*
X99926502Y-118000000D01*
X99946457Y-118228087D01*
X99947881Y-118233400D01*
X99947881Y-118233402D01*
X99984160Y-118368794D01*
X100005716Y-118449243D01*
X100008039Y-118454224D01*
X100008039Y-118454225D01*
X100100151Y-118651762D01*
X100100154Y-118651767D01*
X100102477Y-118656749D01*
X100233802Y-118844300D01*
X100395700Y-119006198D01*
X100400208Y-119009355D01*
X100400211Y-119009357D01*
X100478389Y-119064098D01*
X100583251Y-119137523D01*
X100588233Y-119139846D01*
X100588238Y-119139849D01*
X100622457Y-119155805D01*
X100675742Y-119202722D01*
X100695203Y-119270999D01*
X100674661Y-119338959D01*
X100622457Y-119384195D01*
X100588238Y-119400151D01*
X100588233Y-119400154D01*
X100583251Y-119402477D01*
X100478389Y-119475902D01*
X100400211Y-119530643D01*
X100400208Y-119530645D01*
X100395700Y-119533802D01*
X100233802Y-119695700D01*
X100102477Y-119883251D01*
X100100154Y-119888233D01*
X100100151Y-119888238D01*
X100008039Y-120085775D01*
X100005716Y-120090757D01*
X100004294Y-120096065D01*
X100004293Y-120096067D01*
X99947881Y-120306598D01*
X99946457Y-120311913D01*
X99926502Y-120540000D01*
X99946457Y-120768087D01*
X99947881Y-120773400D01*
X99947881Y-120773402D01*
X99987182Y-120920072D01*
X100005716Y-120989243D01*
X100008039Y-120994224D01*
X100008039Y-120994225D01*
X100100151Y-121191762D01*
X100100154Y-121191767D01*
X100102477Y-121196749D01*
X100170128Y-121293365D01*
X100228886Y-121377279D01*
X100233802Y-121384300D01*
X100395700Y-121546198D01*
X100400208Y-121549355D01*
X100400211Y-121549357D01*
X100448780Y-121583365D01*
X100583251Y-121677523D01*
X100588233Y-121679846D01*
X100588238Y-121679849D01*
X100622457Y-121695805D01*
X100675742Y-121742722D01*
X100695203Y-121810999D01*
X100674661Y-121878959D01*
X100622457Y-121924195D01*
X100588238Y-121940151D01*
X100588233Y-121940154D01*
X100583251Y-121942477D01*
X100535220Y-121976109D01*
X100400211Y-122070643D01*
X100400208Y-122070645D01*
X100395700Y-122073802D01*
X100233802Y-122235700D01*
X100230645Y-122240208D01*
X100230643Y-122240211D01*
X100183787Y-122307128D01*
X100102477Y-122423251D01*
X100100154Y-122428233D01*
X100100151Y-122428238D01*
X100053425Y-122528444D01*
X100005716Y-122630757D01*
X100004294Y-122636065D01*
X100004293Y-122636067D01*
X99984463Y-122710072D01*
X99946457Y-122851913D01*
X99926502Y-123080000D01*
X99946457Y-123308087D01*
X100005716Y-123529243D01*
X100008039Y-123534224D01*
X100008039Y-123534225D01*
X100100151Y-123731762D01*
X100100154Y-123731767D01*
X100102477Y-123736749D01*
X100233802Y-123924300D01*
X100395700Y-124086198D01*
X100400208Y-124089355D01*
X100400211Y-124089357D01*
X100478389Y-124144098D01*
X100583251Y-124217523D01*
X100588233Y-124219846D01*
X100588238Y-124219849D01*
X100622457Y-124235805D01*
X100675742Y-124282722D01*
X100695203Y-124350999D01*
X100674661Y-124418959D01*
X100622457Y-124464195D01*
X100588238Y-124480151D01*
X100588233Y-124480154D01*
X100583251Y-124482477D01*
X100478389Y-124555902D01*
X100400211Y-124610643D01*
X100400208Y-124610645D01*
X100395700Y-124613802D01*
X100233802Y-124775700D01*
X100102477Y-124963251D01*
X100100154Y-124968233D01*
X100100151Y-124968238D01*
X100008039Y-125165775D01*
X100005716Y-125170757D01*
X99946457Y-125391913D01*
X99926502Y-125620000D01*
X99946457Y-125848087D01*
X100005716Y-126069243D01*
X100008039Y-126074224D01*
X100008039Y-126074225D01*
X100100151Y-126271762D01*
X100100154Y-126271767D01*
X100102477Y-126276749D01*
X100233802Y-126464300D01*
X100395700Y-126626198D01*
X100400208Y-126629355D01*
X100400211Y-126629357D01*
X100424313Y-126646233D01*
X100583251Y-126757523D01*
X100588233Y-126759846D01*
X100588238Y-126759849D01*
X100622457Y-126775805D01*
X100675742Y-126822722D01*
X100695203Y-126890999D01*
X100674661Y-126958959D01*
X100622457Y-127004195D01*
X100588238Y-127020151D01*
X100588233Y-127020154D01*
X100583251Y-127022477D01*
X100478389Y-127095902D01*
X100400211Y-127150643D01*
X100400208Y-127150645D01*
X100395700Y-127153802D01*
X100233802Y-127315700D01*
X100102477Y-127503251D01*
X100100154Y-127508233D01*
X100100151Y-127508238D01*
X100069136Y-127574751D01*
X100005716Y-127710757D01*
X100004294Y-127716065D01*
X100004293Y-127716067D01*
X99991408Y-127764156D01*
X99946457Y-127931913D01*
X99926502Y-128160000D01*
X99946457Y-128388087D01*
X99947881Y-128393400D01*
X99947881Y-128393402D01*
X99980552Y-128515329D01*
X100005716Y-128609243D01*
X100008039Y-128614224D01*
X100008039Y-128614225D01*
X100100151Y-128811762D01*
X100100154Y-128811767D01*
X100102477Y-128816749D01*
X100127406Y-128852351D01*
X100230591Y-128999714D01*
X100233802Y-129004300D01*
X100395700Y-129166198D01*
X100400208Y-129169355D01*
X100400211Y-129169357D01*
X100429150Y-129189620D01*
X100583251Y-129297523D01*
X100588233Y-129299846D01*
X100588238Y-129299849D01*
X100622457Y-129315805D01*
X100675742Y-129362722D01*
X100695203Y-129430999D01*
X100674661Y-129498959D01*
X100622457Y-129544195D01*
X100588238Y-129560151D01*
X100588233Y-129560154D01*
X100583251Y-129562477D01*
X100478389Y-129635902D01*
X100400211Y-129690643D01*
X100400208Y-129690645D01*
X100395700Y-129693802D01*
X100233802Y-129855700D01*
X100102477Y-130043251D01*
X100100154Y-130048233D01*
X100100151Y-130048238D01*
X100008039Y-130245775D01*
X100005716Y-130250757D01*
X99946457Y-130471913D01*
X99926502Y-130700000D01*
X97008500Y-130700000D01*
X97008500Y-112920000D01*
X99926502Y-112920000D01*
X99946457Y-113148087D01*
X100005716Y-113369243D01*
X100008039Y-113374224D01*
X100008039Y-113374225D01*
X100100151Y-113571762D01*
X100100154Y-113571767D01*
X100102477Y-113576749D01*
X100233802Y-113764300D01*
X100395700Y-113926198D01*
X100400208Y-113929355D01*
X100400211Y-113929357D01*
X100478389Y-113984098D01*
X100583251Y-114057523D01*
X100588233Y-114059846D01*
X100588238Y-114059849D01*
X100785775Y-114151961D01*
X100790757Y-114154284D01*
X100796065Y-114155706D01*
X100796067Y-114155707D01*
X101006598Y-114212119D01*
X101006600Y-114212119D01*
X101011913Y-114213543D01*
X101240000Y-114233498D01*
X101468087Y-114213543D01*
X101473400Y-114212119D01*
X101473402Y-114212119D01*
X101683933Y-114155707D01*
X101683935Y-114155706D01*
X101689243Y-114154284D01*
X101694225Y-114151961D01*
X101891762Y-114059849D01*
X101891767Y-114059846D01*
X101896749Y-114057523D01*
X102001611Y-113984098D01*
X102079789Y-113929357D01*
X102079792Y-113929355D01*
X102084300Y-113926198D01*
X102246198Y-113764300D01*
X102377523Y-113576749D01*
X102379846Y-113571767D01*
X102379849Y-113571762D01*
X102471961Y-113374225D01*
X102471961Y-113374224D01*
X102474284Y-113369243D01*
X102533543Y-113148087D01*
X102553498Y-112920000D01*
X102533543Y-112691913D01*
X102474284Y-112470757D01*
X102471961Y-112465775D01*
X102379849Y-112268238D01*
X102379846Y-112268233D01*
X102377523Y-112263251D01*
X102246198Y-112075700D01*
X102084300Y-111913802D01*
X102079792Y-111910645D01*
X102079789Y-111910643D01*
X102001611Y-111855902D01*
X101896749Y-111782477D01*
X101891767Y-111780154D01*
X101891762Y-111780151D01*
X101856951Y-111763919D01*
X101803666Y-111717002D01*
X101784205Y-111648725D01*
X101804747Y-111580765D01*
X101856951Y-111535529D01*
X101891511Y-111519414D01*
X101901007Y-111513931D01*
X101945652Y-111482670D01*
X107882160Y-111482670D01*
X107887887Y-111490320D01*
X108059042Y-111595205D01*
X108067837Y-111599687D01*
X108277988Y-111686734D01*
X108287373Y-111689783D01*
X108508554Y-111742885D01*
X108518301Y-111744428D01*
X108745070Y-111762275D01*
X108754930Y-111762275D01*
X108981699Y-111744428D01*
X108991446Y-111742885D01*
X109212627Y-111689783D01*
X109222012Y-111686734D01*
X109432163Y-111599687D01*
X109440958Y-111595205D01*
X109608445Y-111492568D01*
X109617907Y-111482110D01*
X109614124Y-111473334D01*
X108762812Y-110622022D01*
X108748868Y-110614408D01*
X108747035Y-110614539D01*
X108740420Y-110618790D01*
X107888920Y-111470290D01*
X107882160Y-111482670D01*
X101945652Y-111482670D01*
X102079467Y-111388972D01*
X102087875Y-111381916D01*
X102241916Y-111227875D01*
X102248972Y-111219467D01*
X102373931Y-111041007D01*
X102379414Y-111031511D01*
X102471490Y-110834053D01*
X102475236Y-110823761D01*
X102521394Y-110651497D01*
X102521058Y-110637401D01*
X102513116Y-110634000D01*
X99972033Y-110634000D01*
X99958502Y-110637973D01*
X99957273Y-110646522D01*
X100004764Y-110823761D01*
X100008510Y-110834053D01*
X100100586Y-111031511D01*
X100106069Y-111041007D01*
X100231028Y-111219467D01*
X100238084Y-111227875D01*
X100392125Y-111381916D01*
X100400533Y-111388972D01*
X100578993Y-111513931D01*
X100588489Y-111519414D01*
X100623049Y-111535529D01*
X100676334Y-111582446D01*
X100695795Y-111650723D01*
X100675253Y-111718683D01*
X100623049Y-111763919D01*
X100588238Y-111780151D01*
X100588233Y-111780154D01*
X100583251Y-111782477D01*
X100478389Y-111855902D01*
X100400211Y-111910643D01*
X100400208Y-111910645D01*
X100395700Y-111913802D01*
X100233802Y-112075700D01*
X100102477Y-112263251D01*
X100100154Y-112268233D01*
X100100151Y-112268238D01*
X100008039Y-112465775D01*
X100005716Y-112470757D01*
X99946457Y-112691913D01*
X99926502Y-112920000D01*
X97008500Y-112920000D01*
X97008500Y-110254930D01*
X107237725Y-110254930D01*
X107255572Y-110481699D01*
X107257115Y-110491446D01*
X107310217Y-110712627D01*
X107313266Y-110722012D01*
X107400313Y-110932163D01*
X107404795Y-110940958D01*
X107507432Y-111108445D01*
X107517890Y-111117907D01*
X107526666Y-111114124D01*
X108377978Y-110262812D01*
X108384356Y-110251132D01*
X109114408Y-110251132D01*
X109114539Y-110252965D01*
X109118790Y-110259580D01*
X109970290Y-111111080D01*
X109982670Y-111117840D01*
X109990320Y-111112113D01*
X110095205Y-110940958D01*
X110099687Y-110932163D01*
X110186734Y-110722012D01*
X110189783Y-110712627D01*
X110237981Y-110511870D01*
X110273333Y-110450301D01*
X110336360Y-110417618D01*
X110407051Y-110424199D01*
X110462962Y-110467953D01*
X110486500Y-110541284D01*
X110486500Y-115574000D01*
X110498234Y-115683149D01*
X110498952Y-115686449D01*
X110498952Y-115686450D01*
X110505961Y-115718669D01*
X110509620Y-115735491D01*
X110544290Y-115839657D01*
X110623308Y-115962612D01*
X110669801Y-116016268D01*
X110673194Y-116019208D01*
X110773450Y-116106081D01*
X110773453Y-116106083D01*
X110780261Y-116111982D01*
X110913210Y-116172698D01*
X110936964Y-116179673D01*
X110977008Y-116191431D01*
X110977012Y-116191432D01*
X110981331Y-116192700D01*
X110985780Y-116193340D01*
X110985786Y-116193341D01*
X111121553Y-116212861D01*
X111121558Y-116212861D01*
X111126000Y-116213500D01*
X124560500Y-116213500D01*
X124563846Y-116213140D01*
X124563851Y-116213140D01*
X124666285Y-116202128D01*
X124666292Y-116202127D01*
X124669649Y-116201766D01*
X124672950Y-116201048D01*
X124718710Y-116191094D01*
X124718715Y-116191093D01*
X124721991Y-116190380D01*
X124826157Y-116155710D01*
X124832789Y-116151448D01*
X124832791Y-116151447D01*
X124872073Y-116126202D01*
X124940194Y-116106201D01*
X124992534Y-116117587D01*
X125113210Y-116172698D01*
X125136964Y-116179673D01*
X125177008Y-116191431D01*
X125177012Y-116191432D01*
X125181331Y-116192700D01*
X125185780Y-116193340D01*
X125185786Y-116193341D01*
X125321553Y-116212861D01*
X125321558Y-116212861D01*
X125326000Y-116213500D01*
X138574000Y-116213500D01*
X138577346Y-116213140D01*
X138577351Y-116213140D01*
X138679785Y-116202128D01*
X138679792Y-116202127D01*
X138683149Y-116201766D01*
X138686450Y-116201048D01*
X138732210Y-116191094D01*
X138732215Y-116191093D01*
X138735491Y-116190380D01*
X138839657Y-116155710D01*
X138962612Y-116076692D01*
X139016268Y-116030199D01*
X139071888Y-115966010D01*
X139106081Y-115926550D01*
X139106083Y-115926547D01*
X139111982Y-115919739D01*
X139172698Y-115786790D01*
X139192700Y-115718669D01*
X139197333Y-115686450D01*
X139212861Y-115578447D01*
X139212861Y-115578442D01*
X139213500Y-115574000D01*
X139213500Y-111482670D01*
X140382160Y-111482670D01*
X140387887Y-111490320D01*
X140559042Y-111595205D01*
X140567837Y-111599687D01*
X140777988Y-111686734D01*
X140787373Y-111689783D01*
X141008554Y-111742885D01*
X141018301Y-111744428D01*
X141245070Y-111762275D01*
X141254930Y-111762275D01*
X141481699Y-111744428D01*
X141491446Y-111742885D01*
X141712627Y-111689783D01*
X141722012Y-111686734D01*
X141932163Y-111599687D01*
X141940958Y-111595205D01*
X142108445Y-111492568D01*
X142117907Y-111482110D01*
X142114124Y-111473334D01*
X141262812Y-110622022D01*
X141248868Y-110614408D01*
X141247035Y-110614539D01*
X141240420Y-110618790D01*
X140388920Y-111470290D01*
X140382160Y-111482670D01*
X139213500Y-111482670D01*
X139213500Y-110254930D01*
X139737725Y-110254930D01*
X139755572Y-110481699D01*
X139757115Y-110491446D01*
X139810217Y-110712627D01*
X139813266Y-110722012D01*
X139900313Y-110932163D01*
X139904795Y-110940958D01*
X140007432Y-111108445D01*
X140017890Y-111117907D01*
X140026666Y-111114124D01*
X140877978Y-110262812D01*
X140884356Y-110251132D01*
X141614408Y-110251132D01*
X141614539Y-110252965D01*
X141618790Y-110259580D01*
X142470290Y-111111080D01*
X142482670Y-111117840D01*
X142490320Y-111112113D01*
X142595205Y-110940958D01*
X142599687Y-110932163D01*
X142686734Y-110722012D01*
X142689783Y-110712627D01*
X142742885Y-110491446D01*
X142744428Y-110481699D01*
X142762275Y-110254930D01*
X142762275Y-110245070D01*
X142744428Y-110018301D01*
X142742885Y-110008554D01*
X142689783Y-109787373D01*
X142686734Y-109777988D01*
X142599687Y-109567837D01*
X142595205Y-109559042D01*
X142492568Y-109391555D01*
X142482110Y-109382093D01*
X142473334Y-109385876D01*
X141622022Y-110237188D01*
X141614408Y-110251132D01*
X140884356Y-110251132D01*
X140885592Y-110248868D01*
X140885461Y-110247035D01*
X140881210Y-110240420D01*
X140029710Y-109388920D01*
X140017330Y-109382160D01*
X140009680Y-109387887D01*
X139904795Y-109559042D01*
X139900313Y-109567837D01*
X139813266Y-109777988D01*
X139810217Y-109787373D01*
X139757115Y-110008554D01*
X139755572Y-110018301D01*
X139737725Y-110245070D01*
X139737725Y-110254930D01*
X139213500Y-110254930D01*
X139213500Y-109017890D01*
X140382093Y-109017890D01*
X140385876Y-109026666D01*
X141237188Y-109877978D01*
X141251132Y-109885592D01*
X141252965Y-109885461D01*
X141259580Y-109881210D01*
X142111080Y-109029710D01*
X142117840Y-109017330D01*
X142112113Y-109009680D01*
X141940958Y-108904795D01*
X141932163Y-108900313D01*
X141834838Y-108860000D01*
X148186502Y-108860000D01*
X148206457Y-109088087D01*
X148265716Y-109309243D01*
X148268039Y-109314224D01*
X148268039Y-109314225D01*
X148360151Y-109511762D01*
X148360154Y-109511767D01*
X148362477Y-109516749D01*
X148493802Y-109704300D01*
X148655700Y-109866198D01*
X148660208Y-109869355D01*
X148660211Y-109869357D01*
X148677139Y-109881210D01*
X148843251Y-109997523D01*
X148848233Y-109999846D01*
X148848238Y-109999849D01*
X149027489Y-110083434D01*
X149050757Y-110094284D01*
X149056065Y-110095706D01*
X149056067Y-110095707D01*
X149266598Y-110152119D01*
X149266600Y-110152119D01*
X149271913Y-110153543D01*
X149500000Y-110173498D01*
X149728087Y-110153543D01*
X149733400Y-110152119D01*
X149733402Y-110152119D01*
X149943933Y-110095707D01*
X149943935Y-110095706D01*
X149949243Y-110094284D01*
X149972511Y-110083434D01*
X150151762Y-109999849D01*
X150151767Y-109999846D01*
X150156749Y-109997523D01*
X150322861Y-109881210D01*
X150339789Y-109869357D01*
X150339792Y-109869355D01*
X150344300Y-109866198D01*
X150506198Y-109704300D01*
X150637523Y-109516749D01*
X150639846Y-109511767D01*
X150639849Y-109511762D01*
X150731961Y-109314225D01*
X150731961Y-109314224D01*
X150734284Y-109309243D01*
X150793543Y-109088087D01*
X150813498Y-108860000D01*
X150793543Y-108631913D01*
X150734284Y-108410757D01*
X150731961Y-108405775D01*
X150639849Y-108208238D01*
X150639846Y-108208233D01*
X150637523Y-108203251D01*
X150506198Y-108015700D01*
X150344300Y-107853802D01*
X150339792Y-107850645D01*
X150339789Y-107850643D01*
X150261611Y-107795902D01*
X150156749Y-107722477D01*
X150151767Y-107720154D01*
X150151762Y-107720151D01*
X150117543Y-107704195D01*
X150064258Y-107657278D01*
X150044797Y-107589001D01*
X150065339Y-107521041D01*
X150117543Y-107475805D01*
X150151762Y-107459849D01*
X150151767Y-107459846D01*
X150156749Y-107457523D01*
X150261611Y-107384098D01*
X150339789Y-107329357D01*
X150339792Y-107329355D01*
X150344300Y-107326198D01*
X150506198Y-107164300D01*
X150637523Y-106976749D01*
X150639846Y-106971767D01*
X150639849Y-106971762D01*
X150731961Y-106774225D01*
X150731961Y-106774224D01*
X150734284Y-106769243D01*
X150793543Y-106548087D01*
X150813498Y-106320000D01*
X150793543Y-106091913D01*
X150757326Y-105956749D01*
X150735707Y-105876067D01*
X150735706Y-105876065D01*
X150734284Y-105870757D01*
X150679945Y-105754225D01*
X150639849Y-105668238D01*
X150639846Y-105668233D01*
X150637523Y-105663251D01*
X150564098Y-105558389D01*
X150509357Y-105480211D01*
X150509355Y-105480208D01*
X150506198Y-105475700D01*
X150344300Y-105313802D01*
X150339792Y-105310645D01*
X150339789Y-105310643D01*
X150243020Y-105242885D01*
X150156749Y-105182477D01*
X150151767Y-105180154D01*
X150151762Y-105180151D01*
X150117543Y-105164195D01*
X150064258Y-105117278D01*
X150044797Y-105049001D01*
X150065339Y-104981041D01*
X150117543Y-104935805D01*
X150151762Y-104919849D01*
X150151767Y-104919846D01*
X150156749Y-104917523D01*
X150261611Y-104844098D01*
X150339789Y-104789357D01*
X150339792Y-104789355D01*
X150344300Y-104786198D01*
X150506198Y-104624300D01*
X150510675Y-104617907D01*
X150564098Y-104541611D01*
X150637523Y-104436749D01*
X150639846Y-104431767D01*
X150639849Y-104431762D01*
X150731961Y-104234225D01*
X150731961Y-104234224D01*
X150734284Y-104229243D01*
X150787672Y-104030000D01*
X150792119Y-104013402D01*
X150792119Y-104013400D01*
X150793543Y-104008087D01*
X150813498Y-103780000D01*
X150793543Y-103551913D01*
X150757326Y-103416749D01*
X150735707Y-103336067D01*
X150735706Y-103336065D01*
X150734284Y-103330757D01*
X150679945Y-103214225D01*
X150639849Y-103128238D01*
X150639846Y-103128233D01*
X150637523Y-103123251D01*
X150564098Y-103018389D01*
X150509357Y-102940211D01*
X150509355Y-102940208D01*
X150506198Y-102935700D01*
X150344300Y-102773802D01*
X150339792Y-102770645D01*
X150339789Y-102770643D01*
X150261611Y-102715902D01*
X150156749Y-102642477D01*
X150151767Y-102640154D01*
X150151762Y-102640151D01*
X150117543Y-102624195D01*
X150064258Y-102577278D01*
X150044797Y-102509001D01*
X150065339Y-102441041D01*
X150117543Y-102395805D01*
X150151762Y-102379849D01*
X150151767Y-102379846D01*
X150156749Y-102377523D01*
X150330913Y-102255572D01*
X150339789Y-102249357D01*
X150339792Y-102249355D01*
X150344300Y-102246198D01*
X150506198Y-102084300D01*
X150637523Y-101896749D01*
X150639846Y-101891767D01*
X150639849Y-101891762D01*
X150731961Y-101694225D01*
X150731961Y-101694224D01*
X150734284Y-101689243D01*
X150787672Y-101490000D01*
X150792119Y-101473402D01*
X150792119Y-101473400D01*
X150793543Y-101468087D01*
X150813498Y-101240000D01*
X150793543Y-101011913D01*
X150757326Y-100876749D01*
X150735707Y-100796067D01*
X150735706Y-100796065D01*
X150734284Y-100790757D01*
X150679945Y-100674225D01*
X150639849Y-100588238D01*
X150639846Y-100588233D01*
X150637523Y-100583251D01*
X150564098Y-100478389D01*
X150509357Y-100400211D01*
X150509355Y-100400208D01*
X150506198Y-100395700D01*
X150344300Y-100233802D01*
X150339792Y-100230645D01*
X150339789Y-100230643D01*
X150261611Y-100175902D01*
X150156749Y-100102477D01*
X150151767Y-100100154D01*
X150151762Y-100100151D01*
X150117543Y-100084195D01*
X150064258Y-100037278D01*
X150044797Y-99969001D01*
X150065339Y-99901041D01*
X150117543Y-99855805D01*
X150151762Y-99839849D01*
X150151767Y-99839846D01*
X150156749Y-99837523D01*
X150261611Y-99764098D01*
X150339789Y-99709357D01*
X150339792Y-99709355D01*
X150344300Y-99706198D01*
X150506198Y-99544300D01*
X150637523Y-99356749D01*
X150639846Y-99351767D01*
X150639849Y-99351762D01*
X150731961Y-99154225D01*
X150731961Y-99154224D01*
X150734284Y-99149243D01*
X150787672Y-98950000D01*
X150792119Y-98933402D01*
X150792119Y-98933400D01*
X150793543Y-98928087D01*
X150813498Y-98700000D01*
X150793543Y-98471913D01*
X150757326Y-98336749D01*
X150735707Y-98256067D01*
X150735706Y-98256065D01*
X150734284Y-98250757D01*
X150679945Y-98134225D01*
X150639849Y-98048238D01*
X150639846Y-98048233D01*
X150637523Y-98043251D01*
X150564098Y-97938389D01*
X150509357Y-97860211D01*
X150509355Y-97860208D01*
X150506198Y-97855700D01*
X150344300Y-97693802D01*
X150339792Y-97690645D01*
X150339789Y-97690643D01*
X150261611Y-97635902D01*
X150156749Y-97562477D01*
X150151767Y-97560154D01*
X150151762Y-97560151D01*
X150117543Y-97544195D01*
X150064258Y-97497278D01*
X150044797Y-97429001D01*
X150065339Y-97361041D01*
X150117543Y-97315805D01*
X150151762Y-97299849D01*
X150151767Y-97299846D01*
X150156749Y-97297523D01*
X150283788Y-97208569D01*
X150339789Y-97169357D01*
X150339792Y-97169355D01*
X150344300Y-97166198D01*
X150506198Y-97004300D01*
X150521120Y-96982990D01*
X150564098Y-96921611D01*
X150637523Y-96816749D01*
X150639846Y-96811767D01*
X150639849Y-96811762D01*
X150731961Y-96614225D01*
X150731961Y-96614224D01*
X150734284Y-96609243D01*
X150736903Y-96599471D01*
X150792119Y-96393402D01*
X150792119Y-96393400D01*
X150793543Y-96388087D01*
X150813498Y-96160000D01*
X150793543Y-95931913D01*
X150792119Y-95926598D01*
X150735707Y-95716067D01*
X150735706Y-95716065D01*
X150734284Y-95710757D01*
X150694582Y-95625615D01*
X150639849Y-95508238D01*
X150639846Y-95508233D01*
X150637523Y-95503251D01*
X150564098Y-95398389D01*
X150509357Y-95320211D01*
X150509355Y-95320208D01*
X150506198Y-95315700D01*
X150344300Y-95153802D01*
X150339792Y-95150645D01*
X150339789Y-95150643D01*
X150261611Y-95095902D01*
X150156749Y-95022477D01*
X150151767Y-95020154D01*
X150151762Y-95020151D01*
X150116951Y-95003919D01*
X150063666Y-94957002D01*
X150044205Y-94888725D01*
X150064747Y-94820765D01*
X150116951Y-94775529D01*
X150151511Y-94759414D01*
X150161007Y-94753931D01*
X150339467Y-94628972D01*
X150347875Y-94621916D01*
X150501916Y-94467875D01*
X150508972Y-94459467D01*
X150633931Y-94281007D01*
X150639414Y-94271511D01*
X150731490Y-94074053D01*
X150735236Y-94063761D01*
X150781394Y-93891497D01*
X150781058Y-93877401D01*
X150773116Y-93874000D01*
X148232033Y-93874000D01*
X148218502Y-93877973D01*
X148217273Y-93886522D01*
X148264764Y-94063761D01*
X148268510Y-94074053D01*
X148360586Y-94271511D01*
X148366069Y-94281007D01*
X148491028Y-94459467D01*
X148498084Y-94467875D01*
X148652125Y-94621916D01*
X148660533Y-94628972D01*
X148838993Y-94753931D01*
X148848489Y-94759414D01*
X148883049Y-94775529D01*
X148936334Y-94822446D01*
X148955795Y-94890723D01*
X148935253Y-94958683D01*
X148883049Y-95003919D01*
X148848238Y-95020151D01*
X148848233Y-95020154D01*
X148843251Y-95022477D01*
X148738389Y-95095902D01*
X148660211Y-95150643D01*
X148660208Y-95150645D01*
X148655700Y-95153802D01*
X148493802Y-95315700D01*
X148490645Y-95320208D01*
X148490643Y-95320211D01*
X148435902Y-95398389D01*
X148362477Y-95503251D01*
X148360154Y-95508233D01*
X148360151Y-95508238D01*
X148305418Y-95625615D01*
X148265716Y-95710757D01*
X148264294Y-95716065D01*
X148264293Y-95716067D01*
X148207881Y-95926598D01*
X148206457Y-95931913D01*
X148186502Y-96160000D01*
X148206457Y-96388087D01*
X148207881Y-96393400D01*
X148207881Y-96393402D01*
X148263098Y-96599471D01*
X148265716Y-96609243D01*
X148268039Y-96614224D01*
X148268039Y-96614225D01*
X148360151Y-96811762D01*
X148360154Y-96811767D01*
X148362477Y-96816749D01*
X148435902Y-96921611D01*
X148478881Y-96982990D01*
X148493802Y-97004300D01*
X148655700Y-97166198D01*
X148660208Y-97169355D01*
X148660211Y-97169357D01*
X148716212Y-97208569D01*
X148843251Y-97297523D01*
X148848233Y-97299846D01*
X148848238Y-97299849D01*
X148882457Y-97315805D01*
X148935742Y-97362722D01*
X148955203Y-97430999D01*
X148934661Y-97498959D01*
X148882457Y-97544195D01*
X148848238Y-97560151D01*
X148848233Y-97560154D01*
X148843251Y-97562477D01*
X148738389Y-97635902D01*
X148660211Y-97690643D01*
X148660208Y-97690645D01*
X148655700Y-97693802D01*
X148493802Y-97855700D01*
X148490645Y-97860208D01*
X148490643Y-97860211D01*
X148435902Y-97938389D01*
X148362477Y-98043251D01*
X148360154Y-98048233D01*
X148360151Y-98048238D01*
X148320055Y-98134225D01*
X148265716Y-98250757D01*
X148264294Y-98256065D01*
X148264293Y-98256067D01*
X148242674Y-98336749D01*
X148206457Y-98471913D01*
X148186502Y-98700000D01*
X148206457Y-98928087D01*
X148207881Y-98933400D01*
X148207881Y-98933402D01*
X148212329Y-98950000D01*
X148265716Y-99149243D01*
X148268039Y-99154224D01*
X148268039Y-99154225D01*
X148360151Y-99351762D01*
X148360154Y-99351767D01*
X148362477Y-99356749D01*
X148493802Y-99544300D01*
X148655700Y-99706198D01*
X148660208Y-99709355D01*
X148660211Y-99709357D01*
X148738389Y-99764098D01*
X148843251Y-99837523D01*
X148848233Y-99839846D01*
X148848238Y-99839849D01*
X148882457Y-99855805D01*
X148935742Y-99902722D01*
X148955203Y-99970999D01*
X148934661Y-100038959D01*
X148882457Y-100084195D01*
X148848238Y-100100151D01*
X148848233Y-100100154D01*
X148843251Y-100102477D01*
X148738389Y-100175902D01*
X148660211Y-100230643D01*
X148660208Y-100230645D01*
X148655700Y-100233802D01*
X148493802Y-100395700D01*
X148490645Y-100400208D01*
X148490643Y-100400211D01*
X148435902Y-100478389D01*
X148362477Y-100583251D01*
X148360154Y-100588233D01*
X148360151Y-100588238D01*
X148320055Y-100674225D01*
X148265716Y-100790757D01*
X148264294Y-100796065D01*
X148264293Y-100796067D01*
X148242674Y-100876749D01*
X148206457Y-101011913D01*
X148186502Y-101240000D01*
X148206457Y-101468087D01*
X148207881Y-101473400D01*
X148207881Y-101473402D01*
X148212329Y-101490000D01*
X148265716Y-101689243D01*
X148268039Y-101694224D01*
X148268039Y-101694225D01*
X148360151Y-101891762D01*
X148360154Y-101891767D01*
X148362477Y-101896749D01*
X148493802Y-102084300D01*
X148655700Y-102246198D01*
X148660208Y-102249355D01*
X148660211Y-102249357D01*
X148669087Y-102255572D01*
X148843251Y-102377523D01*
X148848233Y-102379846D01*
X148848238Y-102379849D01*
X148882457Y-102395805D01*
X148935742Y-102442722D01*
X148955203Y-102510999D01*
X148934661Y-102578959D01*
X148882457Y-102624195D01*
X148848238Y-102640151D01*
X148848233Y-102640154D01*
X148843251Y-102642477D01*
X148738389Y-102715902D01*
X148660211Y-102770643D01*
X148660208Y-102770645D01*
X148655700Y-102773802D01*
X148493802Y-102935700D01*
X148490645Y-102940208D01*
X148490643Y-102940211D01*
X148435902Y-103018389D01*
X148362477Y-103123251D01*
X148360154Y-103128233D01*
X148360151Y-103128238D01*
X148320055Y-103214225D01*
X148265716Y-103330757D01*
X148264294Y-103336065D01*
X148264293Y-103336067D01*
X148242674Y-103416749D01*
X148206457Y-103551913D01*
X148186502Y-103780000D01*
X148206457Y-104008087D01*
X148207881Y-104013400D01*
X148207881Y-104013402D01*
X148212329Y-104030000D01*
X148265716Y-104229243D01*
X148268039Y-104234224D01*
X148268039Y-104234225D01*
X148360151Y-104431762D01*
X148360154Y-104431767D01*
X148362477Y-104436749D01*
X148435902Y-104541611D01*
X148489326Y-104617907D01*
X148493802Y-104624300D01*
X148655700Y-104786198D01*
X148660208Y-104789355D01*
X148660211Y-104789357D01*
X148738389Y-104844098D01*
X148843251Y-104917523D01*
X148848233Y-104919846D01*
X148848238Y-104919849D01*
X148882457Y-104935805D01*
X148935742Y-104982722D01*
X148955203Y-105050999D01*
X148934661Y-105118959D01*
X148882457Y-105164195D01*
X148848238Y-105180151D01*
X148848233Y-105180154D01*
X148843251Y-105182477D01*
X148756980Y-105242885D01*
X148660211Y-105310643D01*
X148660208Y-105310645D01*
X148655700Y-105313802D01*
X148493802Y-105475700D01*
X148490645Y-105480208D01*
X148490643Y-105480211D01*
X148435902Y-105558389D01*
X148362477Y-105663251D01*
X148360154Y-105668233D01*
X148360151Y-105668238D01*
X148320055Y-105754225D01*
X148265716Y-105870757D01*
X148264294Y-105876065D01*
X148264293Y-105876067D01*
X148242674Y-105956749D01*
X148206457Y-106091913D01*
X148186502Y-106320000D01*
X148206457Y-106548087D01*
X148265716Y-106769243D01*
X148268039Y-106774224D01*
X148268039Y-106774225D01*
X148360151Y-106971762D01*
X148360154Y-106971767D01*
X148362477Y-106976749D01*
X148493802Y-107164300D01*
X148655700Y-107326198D01*
X148660208Y-107329355D01*
X148660211Y-107329357D01*
X148738389Y-107384098D01*
X148843251Y-107457523D01*
X148848233Y-107459846D01*
X148848238Y-107459849D01*
X148882457Y-107475805D01*
X148935742Y-107522722D01*
X148955203Y-107590999D01*
X148934661Y-107658959D01*
X148882457Y-107704195D01*
X148848238Y-107720151D01*
X148848233Y-107720154D01*
X148843251Y-107722477D01*
X148738389Y-107795902D01*
X148660211Y-107850643D01*
X148660208Y-107850645D01*
X148655700Y-107853802D01*
X148493802Y-108015700D01*
X148362477Y-108203251D01*
X148360154Y-108208233D01*
X148360151Y-108208238D01*
X148268039Y-108405775D01*
X148265716Y-108410757D01*
X148206457Y-108631913D01*
X148186502Y-108860000D01*
X141834838Y-108860000D01*
X141722012Y-108813266D01*
X141712627Y-108810217D01*
X141491446Y-108757115D01*
X141481699Y-108755572D01*
X141254930Y-108737725D01*
X141245070Y-108737725D01*
X141018301Y-108755572D01*
X141008554Y-108757115D01*
X140787373Y-108810217D01*
X140777988Y-108813266D01*
X140567837Y-108900313D01*
X140559042Y-108904795D01*
X140391555Y-109007432D01*
X140382093Y-109017890D01*
X139213500Y-109017890D01*
X139213500Y-104982670D01*
X140382160Y-104982670D01*
X140387887Y-104990320D01*
X140559042Y-105095205D01*
X140567837Y-105099687D01*
X140777988Y-105186734D01*
X140787373Y-105189783D01*
X141008554Y-105242885D01*
X141018301Y-105244428D01*
X141245070Y-105262275D01*
X141254930Y-105262275D01*
X141481699Y-105244428D01*
X141491446Y-105242885D01*
X141712627Y-105189783D01*
X141722012Y-105186734D01*
X141932163Y-105099687D01*
X141940958Y-105095205D01*
X142108445Y-104992568D01*
X142117907Y-104982110D01*
X142114124Y-104973334D01*
X141262812Y-104122022D01*
X141248868Y-104114408D01*
X141247035Y-104114539D01*
X141240420Y-104118790D01*
X140388920Y-104970290D01*
X140382160Y-104982670D01*
X139213500Y-104982670D01*
X139213500Y-103754930D01*
X139737725Y-103754930D01*
X139755572Y-103981699D01*
X139757115Y-103991446D01*
X139810217Y-104212627D01*
X139813266Y-104222012D01*
X139900313Y-104432163D01*
X139904795Y-104440958D01*
X140007432Y-104608445D01*
X140017890Y-104617907D01*
X140026666Y-104614124D01*
X140877978Y-103762812D01*
X140884356Y-103751132D01*
X141614408Y-103751132D01*
X141614539Y-103752965D01*
X141618790Y-103759580D01*
X142470290Y-104611080D01*
X142482670Y-104617840D01*
X142490320Y-104612113D01*
X142595205Y-104440958D01*
X142599687Y-104432163D01*
X142686734Y-104222012D01*
X142689783Y-104212627D01*
X142742885Y-103991446D01*
X142744428Y-103981699D01*
X142762275Y-103754930D01*
X142762275Y-103745070D01*
X142744428Y-103518301D01*
X142742885Y-103508554D01*
X142689783Y-103287373D01*
X142686734Y-103277988D01*
X142599687Y-103067837D01*
X142595205Y-103059042D01*
X142492568Y-102891555D01*
X142482110Y-102882093D01*
X142473334Y-102885876D01*
X141622022Y-103737188D01*
X141614408Y-103751132D01*
X140884356Y-103751132D01*
X140885592Y-103748868D01*
X140885461Y-103747035D01*
X140881210Y-103740420D01*
X140029710Y-102888920D01*
X140017330Y-102882160D01*
X140009680Y-102887887D01*
X139904795Y-103059042D01*
X139900313Y-103067837D01*
X139813266Y-103277988D01*
X139810217Y-103287373D01*
X139757115Y-103508554D01*
X139755572Y-103518301D01*
X139737725Y-103745070D01*
X139737725Y-103754930D01*
X139213500Y-103754930D01*
X139213500Y-102517890D01*
X140382093Y-102517890D01*
X140385876Y-102526666D01*
X141237188Y-103377978D01*
X141251132Y-103385592D01*
X141252965Y-103385461D01*
X141259580Y-103381210D01*
X142111080Y-102529710D01*
X142117840Y-102517330D01*
X142112113Y-102509680D01*
X141940958Y-102404795D01*
X141932163Y-102400313D01*
X141722012Y-102313266D01*
X141712627Y-102310217D01*
X141491446Y-102257115D01*
X141481699Y-102255572D01*
X141254930Y-102237725D01*
X141245070Y-102237725D01*
X141018301Y-102255572D01*
X141008554Y-102257115D01*
X140787373Y-102310217D01*
X140777988Y-102313266D01*
X140567837Y-102400313D01*
X140559042Y-102404795D01*
X140391555Y-102507432D01*
X140382093Y-102517890D01*
X139213500Y-102517890D01*
X139213500Y-97826000D01*
X139201766Y-97716851D01*
X139190380Y-97664509D01*
X139155710Y-97560343D01*
X139076692Y-97437388D01*
X139070291Y-97430000D01*
X139033139Y-97387125D01*
X139030199Y-97383732D01*
X139004012Y-97361041D01*
X138926550Y-97293919D01*
X138926547Y-97293917D01*
X138919739Y-97288018D01*
X138786790Y-97227302D01*
X138763036Y-97220327D01*
X138722992Y-97208569D01*
X138722988Y-97208568D01*
X138718669Y-97207300D01*
X138714220Y-97206660D01*
X138714214Y-97206659D01*
X138578447Y-97187139D01*
X138578442Y-97187139D01*
X138574000Y-97186500D01*
X137439500Y-97186500D01*
X137371379Y-97166498D01*
X137324886Y-97112842D01*
X137313500Y-97060500D01*
X137313500Y-91700469D01*
X140087095Y-91700469D01*
X140087392Y-91705622D01*
X140087392Y-91705625D01*
X140100129Y-91926529D01*
X140100427Y-91931697D01*
X140101564Y-91936743D01*
X140101565Y-91936749D01*
X140133741Y-92079523D01*
X140151346Y-92157642D01*
X140153288Y-92162424D01*
X140153289Y-92162428D01*
X140229161Y-92349277D01*
X140238484Y-92372237D01*
X140359501Y-92569719D01*
X140362882Y-92573622D01*
X140471304Y-92698788D01*
X140500786Y-92763373D01*
X140490671Y-92833646D01*
X140444170Y-92887294D01*
X140420296Y-92899267D01*
X140364515Y-92920179D01*
X140353295Y-92924385D01*
X140236739Y-93011739D01*
X140149385Y-93128295D01*
X140098255Y-93264684D01*
X140091500Y-93326866D01*
X140091500Y-95223134D01*
X140098255Y-95285316D01*
X140149385Y-95421705D01*
X140236739Y-95538261D01*
X140353295Y-95625615D01*
X140489684Y-95676745D01*
X140551866Y-95683500D01*
X142448134Y-95683500D01*
X142510316Y-95676745D01*
X142646705Y-95625615D01*
X142763261Y-95538261D01*
X142850615Y-95421705D01*
X142901745Y-95285316D01*
X142908500Y-95223134D01*
X142908500Y-93326866D01*
X142901745Y-93264684D01*
X142850615Y-93128295D01*
X142763261Y-93011739D01*
X142646705Y-92924385D01*
X142638296Y-92921233D01*
X142638295Y-92921232D01*
X142579804Y-92899305D01*
X142523039Y-92856664D01*
X142498339Y-92790103D01*
X142513546Y-92720754D01*
X142535093Y-92692073D01*
X142572636Y-92654660D01*
X142572640Y-92654655D01*
X142576303Y-92651005D01*
X142711458Y-92462917D01*
X142758641Y-92367450D01*
X142811784Y-92259922D01*
X142811785Y-92259920D01*
X142814078Y-92255280D01*
X142881408Y-92033671D01*
X142911640Y-91804041D01*
X142913327Y-91735000D01*
X142907032Y-91658434D01*
X142894773Y-91509318D01*
X142894772Y-91509312D01*
X142894349Y-91504167D01*
X142866137Y-91391850D01*
X142839184Y-91284544D01*
X142839183Y-91284540D01*
X142837925Y-91279533D01*
X142835866Y-91274797D01*
X142751166Y-91080000D01*
X148186502Y-91080000D01*
X148206457Y-91308087D01*
X148265716Y-91529243D01*
X148268039Y-91534224D01*
X148268039Y-91534225D01*
X148360151Y-91731762D01*
X148360154Y-91731767D01*
X148362477Y-91736749D01*
X148493802Y-91924300D01*
X148655700Y-92086198D01*
X148660208Y-92089355D01*
X148660211Y-92089357D01*
X148738389Y-92144098D01*
X148843251Y-92217523D01*
X148848233Y-92219846D01*
X148848238Y-92219849D01*
X148883049Y-92236081D01*
X148936334Y-92282998D01*
X148955795Y-92351275D01*
X148935253Y-92419235D01*
X148883049Y-92464471D01*
X148848489Y-92480586D01*
X148838993Y-92486069D01*
X148660533Y-92611028D01*
X148652125Y-92618084D01*
X148498084Y-92772125D01*
X148491028Y-92780533D01*
X148366069Y-92958993D01*
X148360586Y-92968489D01*
X148268510Y-93165947D01*
X148264764Y-93176239D01*
X148218606Y-93348503D01*
X148218942Y-93362599D01*
X148226884Y-93366000D01*
X150767967Y-93366000D01*
X150781498Y-93362027D01*
X150782727Y-93353478D01*
X150735236Y-93176239D01*
X150731490Y-93165947D01*
X150639414Y-92968489D01*
X150633931Y-92958993D01*
X150508972Y-92780533D01*
X150501916Y-92772125D01*
X150347875Y-92618084D01*
X150339467Y-92611028D01*
X150161007Y-92486069D01*
X150151511Y-92480586D01*
X150116951Y-92464471D01*
X150063666Y-92417554D01*
X150044205Y-92349277D01*
X150064747Y-92281317D01*
X150116951Y-92236081D01*
X150151762Y-92219849D01*
X150151767Y-92219846D01*
X150156749Y-92217523D01*
X150261611Y-92144098D01*
X150339789Y-92089357D01*
X150339792Y-92089355D01*
X150344300Y-92086198D01*
X150506198Y-91924300D01*
X150637523Y-91736749D01*
X150639846Y-91731767D01*
X150639849Y-91731762D01*
X150731961Y-91534225D01*
X150731961Y-91534224D01*
X150734284Y-91529243D01*
X150793543Y-91308087D01*
X150813498Y-91080000D01*
X150793543Y-90851913D01*
X150791842Y-90845564D01*
X150735707Y-90636067D01*
X150735706Y-90636065D01*
X150734284Y-90630757D01*
X150701761Y-90561011D01*
X150639849Y-90428238D01*
X150639846Y-90428233D01*
X150637523Y-90423251D01*
X150506198Y-90235700D01*
X150344300Y-90073802D01*
X150339792Y-90070645D01*
X150339789Y-90070643D01*
X150261611Y-90015902D01*
X150156749Y-89942477D01*
X150151767Y-89940154D01*
X150151762Y-89940151D01*
X150117543Y-89924195D01*
X150064258Y-89877278D01*
X150044797Y-89809001D01*
X150065339Y-89741041D01*
X150117543Y-89695805D01*
X150151762Y-89679849D01*
X150151767Y-89679846D01*
X150156749Y-89677523D01*
X150261611Y-89604098D01*
X150339789Y-89549357D01*
X150339792Y-89549355D01*
X150344300Y-89546198D01*
X150506198Y-89384300D01*
X150637523Y-89196749D01*
X150639846Y-89191767D01*
X150639849Y-89191762D01*
X150731961Y-88994225D01*
X150731961Y-88994224D01*
X150734284Y-88989243D01*
X150793543Y-88768087D01*
X150813498Y-88540000D01*
X150793543Y-88311913D01*
X150734284Y-88090757D01*
X150731961Y-88085775D01*
X150639849Y-87888238D01*
X150639846Y-87888233D01*
X150637523Y-87883251D01*
X150534944Y-87736753D01*
X150509357Y-87700211D01*
X150509355Y-87700208D01*
X150506198Y-87695700D01*
X150344300Y-87533802D01*
X150339792Y-87530645D01*
X150339789Y-87530643D01*
X150243609Y-87463297D01*
X150156749Y-87402477D01*
X150151767Y-87400154D01*
X150151762Y-87400151D01*
X150117543Y-87384195D01*
X150064258Y-87337278D01*
X150044797Y-87269001D01*
X150065339Y-87201041D01*
X150117543Y-87155805D01*
X150151762Y-87139849D01*
X150151767Y-87139846D01*
X150156749Y-87137523D01*
X150285798Y-87047162D01*
X150339789Y-87009357D01*
X150339792Y-87009355D01*
X150344300Y-87006198D01*
X150506198Y-86844300D01*
X150637523Y-86656749D01*
X150639846Y-86651767D01*
X150639849Y-86651762D01*
X150731961Y-86454225D01*
X150731961Y-86454224D01*
X150734284Y-86449243D01*
X150754178Y-86375000D01*
X150792119Y-86233402D01*
X150792119Y-86233400D01*
X150793543Y-86228087D01*
X150813498Y-86000000D01*
X150793543Y-85771913D01*
X150783870Y-85735814D01*
X150735707Y-85556067D01*
X150735706Y-85556065D01*
X150734284Y-85550757D01*
X150723977Y-85528654D01*
X150639849Y-85348238D01*
X150639846Y-85348233D01*
X150637523Y-85343251D01*
X150515454Y-85168919D01*
X150509357Y-85160211D01*
X150509355Y-85160208D01*
X150506198Y-85155700D01*
X150344300Y-84993802D01*
X150339792Y-84990645D01*
X150339789Y-84990643D01*
X150197321Y-84890886D01*
X150156749Y-84862477D01*
X150151767Y-84860154D01*
X150151762Y-84860151D01*
X149954225Y-84768039D01*
X149954224Y-84768039D01*
X149949243Y-84765716D01*
X149943935Y-84764294D01*
X149943933Y-84764293D01*
X149733402Y-84707881D01*
X149733400Y-84707881D01*
X149728087Y-84706457D01*
X149500000Y-84686502D01*
X149271913Y-84706457D01*
X149266600Y-84707881D01*
X149266598Y-84707881D01*
X149056067Y-84764293D01*
X149056065Y-84764294D01*
X149050757Y-84765716D01*
X149045776Y-84768039D01*
X149045775Y-84768039D01*
X148848238Y-84860151D01*
X148848233Y-84860154D01*
X148843251Y-84862477D01*
X148802679Y-84890886D01*
X148660211Y-84990643D01*
X148660208Y-84990645D01*
X148655700Y-84993802D01*
X148493802Y-85155700D01*
X148490645Y-85160208D01*
X148490643Y-85160211D01*
X148484546Y-85168919D01*
X148362477Y-85343251D01*
X148360154Y-85348233D01*
X148360151Y-85348238D01*
X148276023Y-85528654D01*
X148265716Y-85550757D01*
X148264294Y-85556065D01*
X148264293Y-85556067D01*
X148216130Y-85735814D01*
X148206457Y-85771913D01*
X148186502Y-86000000D01*
X148206457Y-86228087D01*
X148207881Y-86233400D01*
X148207881Y-86233402D01*
X148245823Y-86375000D01*
X148265716Y-86449243D01*
X148268039Y-86454224D01*
X148268039Y-86454225D01*
X148360151Y-86651762D01*
X148360154Y-86651767D01*
X148362477Y-86656749D01*
X148493802Y-86844300D01*
X148655700Y-87006198D01*
X148660208Y-87009355D01*
X148660211Y-87009357D01*
X148714202Y-87047162D01*
X148843251Y-87137523D01*
X148848233Y-87139846D01*
X148848238Y-87139849D01*
X148882457Y-87155805D01*
X148935742Y-87202722D01*
X148955203Y-87270999D01*
X148934661Y-87338959D01*
X148882457Y-87384195D01*
X148848238Y-87400151D01*
X148848233Y-87400154D01*
X148843251Y-87402477D01*
X148756391Y-87463297D01*
X148660211Y-87530643D01*
X148660208Y-87530645D01*
X148655700Y-87533802D01*
X148493802Y-87695700D01*
X148490645Y-87700208D01*
X148490643Y-87700211D01*
X148465056Y-87736753D01*
X148362477Y-87883251D01*
X148360154Y-87888233D01*
X148360151Y-87888238D01*
X148268039Y-88085775D01*
X148265716Y-88090757D01*
X148206457Y-88311913D01*
X148186502Y-88540000D01*
X148206457Y-88768087D01*
X148265716Y-88989243D01*
X148268039Y-88994224D01*
X148268039Y-88994225D01*
X148360151Y-89191762D01*
X148360154Y-89191767D01*
X148362477Y-89196749D01*
X148493802Y-89384300D01*
X148655700Y-89546198D01*
X148660208Y-89549355D01*
X148660211Y-89549357D01*
X148738389Y-89604098D01*
X148843251Y-89677523D01*
X148848233Y-89679846D01*
X148848238Y-89679849D01*
X148882457Y-89695805D01*
X148935742Y-89742722D01*
X148955203Y-89810999D01*
X148934661Y-89878959D01*
X148882457Y-89924195D01*
X148848238Y-89940151D01*
X148848233Y-89940154D01*
X148843251Y-89942477D01*
X148738389Y-90015902D01*
X148660211Y-90070643D01*
X148660208Y-90070645D01*
X148655700Y-90073802D01*
X148493802Y-90235700D01*
X148362477Y-90423251D01*
X148360154Y-90428233D01*
X148360151Y-90428238D01*
X148298239Y-90561011D01*
X148265716Y-90630757D01*
X148264294Y-90636065D01*
X148264293Y-90636067D01*
X148208158Y-90845564D01*
X148206457Y-90851913D01*
X148186502Y-91080000D01*
X142751166Y-91080000D01*
X142747630Y-91071868D01*
X142747628Y-91071865D01*
X142745570Y-91067131D01*
X142619764Y-90872665D01*
X142463887Y-90701358D01*
X142459836Y-90698159D01*
X142459832Y-90698155D01*
X142286177Y-90561011D01*
X142286172Y-90561008D01*
X142282123Y-90557810D01*
X142277607Y-90555317D01*
X142277604Y-90555315D01*
X142083879Y-90448373D01*
X142083875Y-90448371D01*
X142079355Y-90445876D01*
X142074486Y-90444152D01*
X142074482Y-90444150D01*
X141865903Y-90370288D01*
X141865899Y-90370287D01*
X141861028Y-90368562D01*
X141855935Y-90367655D01*
X141855932Y-90367654D01*
X141638095Y-90328851D01*
X141638089Y-90328850D01*
X141633006Y-90327945D01*
X141560096Y-90327054D01*
X141406581Y-90325179D01*
X141406579Y-90325179D01*
X141401411Y-90325116D01*
X141172464Y-90360150D01*
X140952314Y-90432106D01*
X140947726Y-90434494D01*
X140947722Y-90434496D01*
X140921065Y-90448373D01*
X140746872Y-90539052D01*
X140742739Y-90542155D01*
X140742736Y-90542157D01*
X140617660Y-90636067D01*
X140561655Y-90678117D01*
X140401639Y-90845564D01*
X140398725Y-90849836D01*
X140398724Y-90849837D01*
X140383152Y-90872665D01*
X140271119Y-91036899D01*
X140173602Y-91246981D01*
X140111707Y-91470169D01*
X140087095Y-91700469D01*
X137313500Y-91700469D01*
X137313500Y-87851336D01*
X137297450Y-87736564D01*
X137294405Y-87714794D01*
X137294404Y-87714790D01*
X137293799Y-87710463D01*
X137274833Y-87643982D01*
X137268371Y-87629388D01*
X137259079Y-87559004D01*
X137289315Y-87494768D01*
X137310413Y-87475794D01*
X137390328Y-87418792D01*
X137398200Y-87412139D01*
X137549052Y-87261812D01*
X137555730Y-87253965D01*
X137680003Y-87081020D01*
X137685313Y-87072183D01*
X137779670Y-86881267D01*
X137783469Y-86871672D01*
X137845377Y-86667910D01*
X137847555Y-86657837D01*
X137848986Y-86646962D01*
X137846775Y-86632778D01*
X137833617Y-86629000D01*
X136387000Y-86629000D01*
X136318879Y-86608998D01*
X136272386Y-86555342D01*
X136261000Y-86503000D01*
X136261000Y-86247000D01*
X136281002Y-86178879D01*
X136334658Y-86132386D01*
X136387000Y-86121000D01*
X137833344Y-86121000D01*
X137846875Y-86117027D01*
X137848180Y-86107947D01*
X137806214Y-85940875D01*
X137802894Y-85931124D01*
X137717972Y-85735814D01*
X137713105Y-85726739D01*
X137597426Y-85547926D01*
X137591136Y-85539757D01*
X137447806Y-85382240D01*
X137440273Y-85375216D01*
X137305084Y-85268451D01*
X137264021Y-85210535D01*
X137260789Y-85139612D01*
X137268561Y-85117231D01*
X137272698Y-85108172D01*
X137285777Y-85063628D01*
X137291431Y-85044374D01*
X137291432Y-85044370D01*
X137292700Y-85040051D01*
X137294717Y-85026029D01*
X137312861Y-84899829D01*
X137312861Y-84899824D01*
X137313500Y-84895382D01*
X137313500Y-83726000D01*
X137301766Y-83616851D01*
X137301048Y-83613550D01*
X137291094Y-83567790D01*
X137291093Y-83567785D01*
X137290380Y-83564509D01*
X137255710Y-83460343D01*
X137176692Y-83337388D01*
X137154193Y-83311422D01*
X137133139Y-83287125D01*
X137130199Y-83283732D01*
X137120933Y-83275703D01*
X137026550Y-83193919D01*
X137026547Y-83193917D01*
X137019739Y-83188018D01*
X136886790Y-83127302D01*
X136863036Y-83120327D01*
X136822992Y-83108569D01*
X136822988Y-83108568D01*
X136818669Y-83107300D01*
X136814220Y-83106660D01*
X136814214Y-83106659D01*
X136678447Y-83087139D01*
X136678442Y-83087139D01*
X136674000Y-83086500D01*
X130626000Y-83086500D01*
X130622654Y-83086860D01*
X130622649Y-83086860D01*
X130520215Y-83097872D01*
X130520208Y-83097873D01*
X130516851Y-83098234D01*
X130513551Y-83098952D01*
X130513550Y-83098952D01*
X130467790Y-83108906D01*
X130467785Y-83108907D01*
X130464509Y-83109620D01*
X130360343Y-83144290D01*
X130237388Y-83223308D01*
X130233991Y-83226251D01*
X130233989Y-83226253D01*
X130231441Y-83228461D01*
X130230411Y-83228931D01*
X130230385Y-83228951D01*
X130230381Y-83228945D01*
X130166861Y-83257955D01*
X130096586Y-83247852D01*
X130066415Y-83228462D01*
X130026554Y-83193922D01*
X130026549Y-83193918D01*
X130019739Y-83188018D01*
X129886790Y-83127302D01*
X129863036Y-83120327D01*
X129822992Y-83108569D01*
X129822988Y-83108568D01*
X129818669Y-83107300D01*
X129814220Y-83106660D01*
X129814214Y-83106659D01*
X129678447Y-83087139D01*
X129678442Y-83087139D01*
X129674000Y-83086500D01*
X117826000Y-83086500D01*
X117822654Y-83086860D01*
X117822649Y-83086860D01*
X117720215Y-83097872D01*
X117720208Y-83097873D01*
X117716851Y-83098234D01*
X117713551Y-83098952D01*
X117713550Y-83098952D01*
X117667790Y-83108906D01*
X117667785Y-83108907D01*
X117664509Y-83109620D01*
X117560343Y-83144290D01*
X117437388Y-83223308D01*
X117433993Y-83226250D01*
X117433990Y-83226252D01*
X117397403Y-83257955D01*
X117383732Y-83269801D01*
X117380792Y-83273194D01*
X117293919Y-83373450D01*
X117293917Y-83373453D01*
X117288018Y-83380261D01*
X117227302Y-83513210D01*
X117207300Y-83581331D01*
X117206660Y-83585780D01*
X117206659Y-83585786D01*
X117202193Y-83616851D01*
X117186500Y-83726000D01*
X117186500Y-85166817D01*
X117166498Y-85234938D01*
X117112842Y-85281431D01*
X117042568Y-85291535D01*
X116982407Y-85265698D01*
X116953415Y-85242801D01*
X116953413Y-85242800D01*
X116949359Y-85239598D01*
X116940918Y-85234938D01*
X116879529Y-85201050D01*
X116753789Y-85131638D01*
X116748920Y-85129914D01*
X116748916Y-85129912D01*
X116548087Y-85058795D01*
X116548083Y-85058794D01*
X116543212Y-85057069D01*
X116538119Y-85056162D01*
X116538116Y-85056161D01*
X116328373Y-85018800D01*
X116328367Y-85018799D01*
X116323284Y-85017894D01*
X116249452Y-85016992D01*
X116105081Y-85015228D01*
X116105079Y-85015228D01*
X116099911Y-85015165D01*
X115879091Y-85048955D01*
X115666756Y-85118357D01*
X115468607Y-85221507D01*
X115464474Y-85224610D01*
X115464471Y-85224612D01*
X115295364Y-85351581D01*
X115289965Y-85355635D01*
X115233537Y-85414684D01*
X115209283Y-85440064D01*
X115147759Y-85475494D01*
X115076846Y-85472037D01*
X115019060Y-85430791D01*
X115000207Y-85397243D01*
X114958767Y-85286703D01*
X114955615Y-85278295D01*
X114868261Y-85161739D01*
X114751705Y-85074385D01*
X114615316Y-85023255D01*
X114553134Y-85016500D01*
X112756866Y-85016500D01*
X112694684Y-85023255D01*
X112558295Y-85074385D01*
X112441739Y-85161739D01*
X112354385Y-85278295D01*
X112303255Y-85414684D01*
X112296500Y-85476866D01*
X112296500Y-87273134D01*
X112303255Y-87335316D01*
X112354385Y-87471705D01*
X112441739Y-87588261D01*
X112558295Y-87675615D01*
X112694684Y-87726745D01*
X112756866Y-87733500D01*
X114553134Y-87733500D01*
X114615316Y-87726745D01*
X114751705Y-87675615D01*
X114868261Y-87588261D01*
X114955615Y-87471705D01*
X114976433Y-87416173D01*
X114999598Y-87354382D01*
X115042240Y-87297618D01*
X115108802Y-87272918D01*
X115178150Y-87288126D01*
X115212817Y-87316114D01*
X115241250Y-87348938D01*
X115413126Y-87491632D01*
X115606000Y-87604338D01*
X115814692Y-87684030D01*
X115819760Y-87685061D01*
X115819763Y-87685062D01*
X115927017Y-87706883D01*
X116033597Y-87728567D01*
X116038772Y-87728757D01*
X116038774Y-87728757D01*
X116251673Y-87736564D01*
X116251677Y-87736564D01*
X116256837Y-87736753D01*
X116261957Y-87736097D01*
X116261959Y-87736097D01*
X116473288Y-87709025D01*
X116473289Y-87709025D01*
X116478416Y-87708368D01*
X116483366Y-87706883D01*
X116687429Y-87645661D01*
X116687434Y-87645659D01*
X116692384Y-87644174D01*
X116892994Y-87545896D01*
X116987331Y-87478606D01*
X117054405Y-87455332D01*
X117123414Y-87472016D01*
X117172448Y-87523360D01*
X117186500Y-87581185D01*
X117186500Y-95113570D01*
X117166498Y-95181691D01*
X117112842Y-95228184D01*
X117042568Y-95238288D01*
X117007250Y-95227765D01*
X116954225Y-95203039D01*
X116954224Y-95203039D01*
X116949243Y-95200716D01*
X116943935Y-95199294D01*
X116943933Y-95199293D01*
X116733402Y-95142881D01*
X116733400Y-95142881D01*
X116728087Y-95141457D01*
X116500000Y-95121502D01*
X116271913Y-95141457D01*
X116266600Y-95142881D01*
X116266598Y-95142881D01*
X116056067Y-95199293D01*
X116056065Y-95199294D01*
X116050757Y-95200716D01*
X116045776Y-95203039D01*
X116045775Y-95203039D01*
X115848238Y-95295151D01*
X115848233Y-95295154D01*
X115843251Y-95297477D01*
X115817226Y-95315700D01*
X115660211Y-95425643D01*
X115660208Y-95425645D01*
X115655700Y-95428802D01*
X115493802Y-95590700D01*
X115490645Y-95595208D01*
X115490643Y-95595211D01*
X115469354Y-95625615D01*
X115362477Y-95778251D01*
X115360154Y-95783233D01*
X115360151Y-95783238D01*
X115268039Y-95980775D01*
X115265716Y-95985757D01*
X115206457Y-96206913D01*
X115186502Y-96435000D01*
X115186981Y-96440475D01*
X115196521Y-96549518D01*
X115182532Y-96619123D01*
X115133132Y-96670116D01*
X115071000Y-96686500D01*
X111126000Y-96686500D01*
X111122654Y-96686860D01*
X111122649Y-96686860D01*
X111020215Y-96697872D01*
X111020208Y-96697873D01*
X111016851Y-96698234D01*
X111013551Y-96698952D01*
X111013550Y-96698952D01*
X110967790Y-96708906D01*
X110967785Y-96708907D01*
X110964509Y-96709620D01*
X110860343Y-96744290D01*
X110737388Y-96823308D01*
X110733993Y-96826250D01*
X110733990Y-96826252D01*
X110717881Y-96840211D01*
X110683732Y-96869801D01*
X110680792Y-96873194D01*
X110593919Y-96973450D01*
X110593917Y-96973453D01*
X110588018Y-96980261D01*
X110527302Y-97113210D01*
X110526034Y-97117529D01*
X110512888Y-97162301D01*
X110507300Y-97181331D01*
X110506660Y-97185780D01*
X110506659Y-97185786D01*
X110487139Y-97321553D01*
X110486500Y-97326000D01*
X110486500Y-103458716D01*
X110466498Y-103526837D01*
X110412842Y-103573330D01*
X110342568Y-103583434D01*
X110277988Y-103553940D01*
X110237981Y-103488130D01*
X110189783Y-103287373D01*
X110186734Y-103277988D01*
X110099687Y-103067837D01*
X110095205Y-103059042D01*
X109992568Y-102891555D01*
X109982110Y-102882093D01*
X109973334Y-102885876D01*
X109122022Y-103737188D01*
X109114408Y-103751132D01*
X109114539Y-103752965D01*
X109118790Y-103759580D01*
X109970290Y-104611080D01*
X109982670Y-104617840D01*
X109990320Y-104612113D01*
X110095205Y-104440958D01*
X110099687Y-104432163D01*
X110186734Y-104222012D01*
X110189783Y-104212627D01*
X110237981Y-104011870D01*
X110273333Y-103950301D01*
X110336360Y-103917618D01*
X110407051Y-103924199D01*
X110462962Y-103967953D01*
X110486500Y-104041284D01*
X110486500Y-109958716D01*
X110466498Y-110026837D01*
X110412842Y-110073330D01*
X110342568Y-110083434D01*
X110277988Y-110053940D01*
X110237981Y-109988130D01*
X110189783Y-109787373D01*
X110186734Y-109777988D01*
X110099687Y-109567837D01*
X110095205Y-109559042D01*
X109992568Y-109391555D01*
X109982110Y-109382093D01*
X109973334Y-109385876D01*
X109122022Y-110237188D01*
X109114408Y-110251132D01*
X108384356Y-110251132D01*
X108385592Y-110248868D01*
X108385461Y-110247035D01*
X108381210Y-110240420D01*
X107529710Y-109388920D01*
X107517330Y-109382160D01*
X107509680Y-109387887D01*
X107404795Y-109559042D01*
X107400313Y-109567837D01*
X107313266Y-109777988D01*
X107310217Y-109787373D01*
X107257115Y-110008554D01*
X107255572Y-110018301D01*
X107237725Y-110245070D01*
X107237725Y-110254930D01*
X97008500Y-110254930D01*
X97008500Y-108106522D01*
X99957273Y-108106522D01*
X100004764Y-108283761D01*
X100008510Y-108294053D01*
X100100586Y-108491511D01*
X100106069Y-108501007D01*
X100231028Y-108679467D01*
X100238084Y-108687875D01*
X100392125Y-108841916D01*
X100400533Y-108848972D01*
X100578993Y-108973931D01*
X100588489Y-108979414D01*
X100623641Y-108995805D01*
X100676926Y-109042722D01*
X100696387Y-109110999D01*
X100675845Y-109178959D01*
X100623641Y-109224195D01*
X100588489Y-109240586D01*
X100578993Y-109246069D01*
X100400533Y-109371028D01*
X100392125Y-109378084D01*
X100238084Y-109532125D01*
X100231028Y-109540533D01*
X100106069Y-109718993D01*
X100100586Y-109728489D01*
X100008510Y-109925947D01*
X100004764Y-109936239D01*
X99958606Y-110108503D01*
X99958942Y-110122599D01*
X99966884Y-110126000D01*
X100967885Y-110126000D01*
X100983124Y-110121525D01*
X100984329Y-110120135D01*
X100986000Y-110112452D01*
X100986000Y-110107885D01*
X101494000Y-110107885D01*
X101498475Y-110123124D01*
X101499865Y-110124329D01*
X101507548Y-110126000D01*
X102507967Y-110126000D01*
X102521498Y-110122027D01*
X102522727Y-110113478D01*
X102475236Y-109936239D01*
X102471490Y-109925947D01*
X102379414Y-109728489D01*
X102373931Y-109718993D01*
X102248972Y-109540533D01*
X102241916Y-109532125D01*
X102087875Y-109378084D01*
X102079467Y-109371028D01*
X101901007Y-109246069D01*
X101891511Y-109240586D01*
X101856359Y-109224195D01*
X101803074Y-109177278D01*
X101783613Y-109109001D01*
X101804155Y-109041041D01*
X101830872Y-109017890D01*
X107882093Y-109017890D01*
X107885876Y-109026666D01*
X108737188Y-109877978D01*
X108751132Y-109885592D01*
X108752965Y-109885461D01*
X108759580Y-109881210D01*
X109611080Y-109029710D01*
X109617840Y-109017330D01*
X109612113Y-109009680D01*
X109440958Y-108904795D01*
X109432163Y-108900313D01*
X109222012Y-108813266D01*
X109212627Y-108810217D01*
X108991446Y-108757115D01*
X108981699Y-108755572D01*
X108754930Y-108737725D01*
X108745070Y-108737725D01*
X108518301Y-108755572D01*
X108508554Y-108757115D01*
X108287373Y-108810217D01*
X108277988Y-108813266D01*
X108067837Y-108900313D01*
X108059042Y-108904795D01*
X107891555Y-109007432D01*
X107882093Y-109017890D01*
X101830872Y-109017890D01*
X101856359Y-108995805D01*
X101891511Y-108979414D01*
X101901007Y-108973931D01*
X102079467Y-108848972D01*
X102087875Y-108841916D01*
X102241916Y-108687875D01*
X102248972Y-108679467D01*
X102373931Y-108501007D01*
X102379414Y-108491511D01*
X102471490Y-108294053D01*
X102475236Y-108283761D01*
X102521394Y-108111497D01*
X102521058Y-108097401D01*
X102513116Y-108094000D01*
X101512115Y-108094000D01*
X101496876Y-108098475D01*
X101495671Y-108099865D01*
X101494000Y-108107548D01*
X101494000Y-110107885D01*
X100986000Y-110107885D01*
X100986000Y-108112115D01*
X100981525Y-108096876D01*
X100980135Y-108095671D01*
X100972452Y-108094000D01*
X99972033Y-108094000D01*
X99958502Y-108097973D01*
X99957273Y-108106522D01*
X97008500Y-108106522D01*
X97008500Y-105300000D01*
X99926502Y-105300000D01*
X99946457Y-105528087D01*
X99947881Y-105533400D01*
X99947881Y-105533402D01*
X99984011Y-105668238D01*
X100005716Y-105749243D01*
X100008039Y-105754224D01*
X100008039Y-105754225D01*
X100100151Y-105951762D01*
X100100154Y-105951767D01*
X100102477Y-105956749D01*
X100105634Y-105961257D01*
X100193399Y-106086598D01*
X100233802Y-106144300D01*
X100395700Y-106306198D01*
X100400208Y-106309355D01*
X100400211Y-106309357D01*
X100407592Y-106314525D01*
X100583251Y-106437523D01*
X100588233Y-106439846D01*
X100588238Y-106439849D01*
X100623049Y-106456081D01*
X100676334Y-106502998D01*
X100695795Y-106571275D01*
X100675253Y-106639235D01*
X100623049Y-106684471D01*
X100588489Y-106700586D01*
X100578993Y-106706069D01*
X100400533Y-106831028D01*
X100392125Y-106838084D01*
X100238084Y-106992125D01*
X100231028Y-107000533D01*
X100106069Y-107178993D01*
X100100586Y-107188489D01*
X100008510Y-107385947D01*
X100004764Y-107396239D01*
X99958606Y-107568503D01*
X99958942Y-107582599D01*
X99966884Y-107586000D01*
X102507967Y-107586000D01*
X102521498Y-107582027D01*
X102522727Y-107573478D01*
X102475236Y-107396239D01*
X102471490Y-107385947D01*
X102379414Y-107188489D01*
X102373931Y-107178993D01*
X102248972Y-107000533D01*
X102241916Y-106992125D01*
X102087875Y-106838084D01*
X102079467Y-106831028D01*
X101901007Y-106706069D01*
X101891511Y-106700586D01*
X101856951Y-106684471D01*
X101803666Y-106637554D01*
X101784205Y-106569277D01*
X101804747Y-106501317D01*
X101856951Y-106456081D01*
X101891762Y-106439849D01*
X101891767Y-106439846D01*
X101896749Y-106437523D01*
X102072408Y-106314525D01*
X102079789Y-106309357D01*
X102079792Y-106309355D01*
X102084300Y-106306198D01*
X102246198Y-106144300D01*
X102286602Y-106086598D01*
X102374366Y-105961257D01*
X102377523Y-105956749D01*
X102379846Y-105951767D01*
X102379849Y-105951762D01*
X102471961Y-105754225D01*
X102471961Y-105754224D01*
X102474284Y-105749243D01*
X102495990Y-105668238D01*
X102532119Y-105533402D01*
X102532119Y-105533400D01*
X102533543Y-105528087D01*
X102553498Y-105300000D01*
X102533543Y-105071913D01*
X102527939Y-105050999D01*
X102509630Y-104982670D01*
X107882160Y-104982670D01*
X107887887Y-104990320D01*
X108059042Y-105095205D01*
X108067837Y-105099687D01*
X108277988Y-105186734D01*
X108287373Y-105189783D01*
X108508554Y-105242885D01*
X108518301Y-105244428D01*
X108745070Y-105262275D01*
X108754930Y-105262275D01*
X108981699Y-105244428D01*
X108991446Y-105242885D01*
X109212627Y-105189783D01*
X109222012Y-105186734D01*
X109432163Y-105099687D01*
X109440958Y-105095205D01*
X109608445Y-104992568D01*
X109617907Y-104982110D01*
X109614124Y-104973334D01*
X108762812Y-104122022D01*
X108748868Y-104114408D01*
X108747035Y-104114539D01*
X108740420Y-104118790D01*
X107888920Y-104970290D01*
X107882160Y-104982670D01*
X102509630Y-104982670D01*
X102475707Y-104856067D01*
X102475706Y-104856065D01*
X102474284Y-104850757D01*
X102442363Y-104782301D01*
X102379849Y-104648238D01*
X102379846Y-104648233D01*
X102377523Y-104643251D01*
X102246198Y-104455700D01*
X102084300Y-104293802D01*
X102079792Y-104290645D01*
X102079789Y-104290643D01*
X101984517Y-104223933D01*
X101896749Y-104162477D01*
X101891767Y-104160154D01*
X101891762Y-104160151D01*
X101857543Y-104144195D01*
X101804258Y-104097278D01*
X101784797Y-104029001D01*
X101805339Y-103961041D01*
X101857543Y-103915805D01*
X101891762Y-103899849D01*
X101891767Y-103899846D01*
X101896749Y-103897523D01*
X102072408Y-103774525D01*
X102079789Y-103769357D01*
X102079792Y-103769355D01*
X102084300Y-103766198D01*
X102095568Y-103754930D01*
X107237725Y-103754930D01*
X107255572Y-103981699D01*
X107257115Y-103991446D01*
X107310217Y-104212627D01*
X107313266Y-104222012D01*
X107400313Y-104432163D01*
X107404795Y-104440958D01*
X107507432Y-104608445D01*
X107517890Y-104617907D01*
X107526666Y-104614124D01*
X108377978Y-103762812D01*
X108385592Y-103748868D01*
X108385461Y-103747035D01*
X108381210Y-103740420D01*
X107529710Y-102888920D01*
X107517330Y-102882160D01*
X107509680Y-102887887D01*
X107404795Y-103059042D01*
X107400313Y-103067837D01*
X107313266Y-103277988D01*
X107310217Y-103287373D01*
X107257115Y-103508554D01*
X107255572Y-103518301D01*
X107237725Y-103745070D01*
X107237725Y-103754930D01*
X102095568Y-103754930D01*
X102246198Y-103604300D01*
X102267884Y-103573330D01*
X102374366Y-103421257D01*
X102377523Y-103416749D01*
X102379846Y-103411767D01*
X102379849Y-103411762D01*
X102471961Y-103214225D01*
X102471961Y-103214224D01*
X102474284Y-103209243D01*
X102495990Y-103128238D01*
X102532119Y-102993402D01*
X102532119Y-102993400D01*
X102533543Y-102988087D01*
X102553498Y-102760000D01*
X102533543Y-102531913D01*
X102529786Y-102517890D01*
X107882093Y-102517890D01*
X107885876Y-102526666D01*
X108737188Y-103377978D01*
X108751132Y-103385592D01*
X108752965Y-103385461D01*
X108759580Y-103381210D01*
X109611080Y-102529710D01*
X109617840Y-102517330D01*
X109612113Y-102509680D01*
X109440958Y-102404795D01*
X109432163Y-102400313D01*
X109222012Y-102313266D01*
X109212627Y-102310217D01*
X108991446Y-102257115D01*
X108981699Y-102255572D01*
X108754930Y-102237725D01*
X108745070Y-102237725D01*
X108518301Y-102255572D01*
X108508554Y-102257115D01*
X108287373Y-102310217D01*
X108277988Y-102313266D01*
X108067837Y-102400313D01*
X108059042Y-102404795D01*
X107891555Y-102507432D01*
X107882093Y-102517890D01*
X102529786Y-102517890D01*
X102475707Y-102316067D01*
X102475706Y-102316065D01*
X102474284Y-102310757D01*
X102471961Y-102305775D01*
X102379849Y-102108238D01*
X102379846Y-102108233D01*
X102377523Y-102103251D01*
X102246198Y-101915700D01*
X102084300Y-101753802D01*
X102079792Y-101750645D01*
X102079789Y-101750643D01*
X101984517Y-101683933D01*
X101896749Y-101622477D01*
X101891767Y-101620154D01*
X101891762Y-101620151D01*
X101857543Y-101604195D01*
X101804258Y-101557278D01*
X101784797Y-101489001D01*
X101805339Y-101421041D01*
X101857543Y-101375805D01*
X101891762Y-101359849D01*
X101891767Y-101359846D01*
X101896749Y-101357523D01*
X102072408Y-101234525D01*
X102079789Y-101229357D01*
X102079792Y-101229355D01*
X102084300Y-101226198D01*
X102246198Y-101064300D01*
X102286602Y-101006598D01*
X102374366Y-100881257D01*
X102377523Y-100876749D01*
X102379846Y-100871767D01*
X102379849Y-100871762D01*
X102471961Y-100674225D01*
X102471961Y-100674224D01*
X102474284Y-100669243D01*
X102495990Y-100588238D01*
X102532119Y-100453402D01*
X102532119Y-100453400D01*
X102533543Y-100448087D01*
X102553498Y-100220000D01*
X102533543Y-99991913D01*
X102527939Y-99970999D01*
X102475707Y-99776067D01*
X102475706Y-99776065D01*
X102474284Y-99770757D01*
X102442363Y-99702301D01*
X102379849Y-99568238D01*
X102379846Y-99568233D01*
X102377523Y-99563251D01*
X102246198Y-99375700D01*
X102084300Y-99213802D01*
X102079792Y-99210645D01*
X102079789Y-99210643D01*
X101984517Y-99143933D01*
X101896749Y-99082477D01*
X101891767Y-99080154D01*
X101891762Y-99080151D01*
X101857543Y-99064195D01*
X101804258Y-99017278D01*
X101784797Y-98949001D01*
X101805339Y-98881041D01*
X101857543Y-98835805D01*
X101891762Y-98819849D01*
X101891767Y-98819846D01*
X101896749Y-98817523D01*
X102072408Y-98694525D01*
X102079789Y-98689357D01*
X102079792Y-98689355D01*
X102084300Y-98686198D01*
X102246198Y-98524300D01*
X102286602Y-98466598D01*
X102374366Y-98341257D01*
X102377523Y-98336749D01*
X102379846Y-98331767D01*
X102379849Y-98331762D01*
X102471961Y-98134225D01*
X102471961Y-98134224D01*
X102474284Y-98129243D01*
X102495990Y-98048238D01*
X102532119Y-97913402D01*
X102532119Y-97913400D01*
X102533543Y-97908087D01*
X102553498Y-97680000D01*
X102533543Y-97451913D01*
X102532119Y-97446598D01*
X102475707Y-97236067D01*
X102475706Y-97236065D01*
X102474284Y-97230757D01*
X102453314Y-97185786D01*
X102379849Y-97028238D01*
X102379846Y-97028233D01*
X102377523Y-97023251D01*
X102246198Y-96835700D01*
X102084300Y-96673802D01*
X102079789Y-96670643D01*
X102075576Y-96667108D01*
X102076527Y-96665974D01*
X102036529Y-96615929D01*
X102029224Y-96545310D01*
X102061258Y-96481951D01*
X102122462Y-96445970D01*
X102139517Y-96442918D01*
X102150316Y-96441745D01*
X102286705Y-96390615D01*
X102403261Y-96303261D01*
X102490615Y-96186705D01*
X102541745Y-96050316D01*
X102548500Y-95988134D01*
X102548500Y-94291866D01*
X102541745Y-94229684D01*
X102490615Y-94093295D01*
X102403261Y-93976739D01*
X102286705Y-93889385D01*
X102150316Y-93838255D01*
X102088134Y-93831500D01*
X100391866Y-93831500D01*
X100329684Y-93838255D01*
X100193295Y-93889385D01*
X100076739Y-93976739D01*
X99989385Y-94093295D01*
X99938255Y-94229684D01*
X99931500Y-94291866D01*
X99931500Y-95988134D01*
X99938255Y-96050316D01*
X99989385Y-96186705D01*
X100076739Y-96303261D01*
X100193295Y-96390615D01*
X100329684Y-96441745D01*
X100340474Y-96442917D01*
X100342606Y-96443803D01*
X100345222Y-96444425D01*
X100345121Y-96444848D01*
X100406035Y-96470155D01*
X100446463Y-96528517D01*
X100448922Y-96599471D01*
X100412629Y-96660490D01*
X100403969Y-96667489D01*
X100400207Y-96670646D01*
X100395700Y-96673802D01*
X100233802Y-96835700D01*
X100102477Y-97023251D01*
X100100154Y-97028233D01*
X100100151Y-97028238D01*
X100026686Y-97185786D01*
X100005716Y-97230757D01*
X100004294Y-97236065D01*
X100004293Y-97236067D01*
X99947881Y-97446598D01*
X99946457Y-97451913D01*
X99926502Y-97680000D01*
X99946457Y-97908087D01*
X99947881Y-97913400D01*
X99947881Y-97913402D01*
X99984011Y-98048238D01*
X100005716Y-98129243D01*
X100008039Y-98134224D01*
X100008039Y-98134225D01*
X100100151Y-98331762D01*
X100100154Y-98331767D01*
X100102477Y-98336749D01*
X100105634Y-98341257D01*
X100193399Y-98466598D01*
X100233802Y-98524300D01*
X100395700Y-98686198D01*
X100400208Y-98689355D01*
X100400211Y-98689357D01*
X100407592Y-98694525D01*
X100583251Y-98817523D01*
X100588233Y-98819846D01*
X100588238Y-98819849D01*
X100622457Y-98835805D01*
X100675742Y-98882722D01*
X100695203Y-98950999D01*
X100674661Y-99018959D01*
X100622457Y-99064195D01*
X100588238Y-99080151D01*
X100588233Y-99080154D01*
X100583251Y-99082477D01*
X100495483Y-99143933D01*
X100400211Y-99210643D01*
X100400208Y-99210645D01*
X100395700Y-99213802D01*
X100233802Y-99375700D01*
X100102477Y-99563251D01*
X100100154Y-99568233D01*
X100100151Y-99568238D01*
X100037637Y-99702301D01*
X100005716Y-99770757D01*
X100004294Y-99776065D01*
X100004293Y-99776067D01*
X99952061Y-99970999D01*
X99946457Y-99991913D01*
X99926502Y-100220000D01*
X99946457Y-100448087D01*
X99947881Y-100453400D01*
X99947881Y-100453402D01*
X99984011Y-100588238D01*
X100005716Y-100669243D01*
X100008039Y-100674224D01*
X100008039Y-100674225D01*
X100100151Y-100871762D01*
X100100154Y-100871767D01*
X100102477Y-100876749D01*
X100105634Y-100881257D01*
X100193399Y-101006598D01*
X100233802Y-101064300D01*
X100395700Y-101226198D01*
X100400208Y-101229355D01*
X100400211Y-101229357D01*
X100407592Y-101234525D01*
X100583251Y-101357523D01*
X100588233Y-101359846D01*
X100588238Y-101359849D01*
X100622457Y-101375805D01*
X100675742Y-101422722D01*
X100695203Y-101490999D01*
X100674661Y-101558959D01*
X100622457Y-101604195D01*
X100588238Y-101620151D01*
X100588233Y-101620154D01*
X100583251Y-101622477D01*
X100495483Y-101683933D01*
X100400211Y-101750643D01*
X100400208Y-101750645D01*
X100395700Y-101753802D01*
X100233802Y-101915700D01*
X100102477Y-102103251D01*
X100100154Y-102108233D01*
X100100151Y-102108238D01*
X100008039Y-102305775D01*
X100005716Y-102310757D01*
X100004294Y-102316065D01*
X100004293Y-102316067D01*
X99950214Y-102517890D01*
X99946457Y-102531913D01*
X99926502Y-102760000D01*
X99946457Y-102988087D01*
X99947881Y-102993400D01*
X99947881Y-102993402D01*
X99984011Y-103128238D01*
X100005716Y-103209243D01*
X100008039Y-103214224D01*
X100008039Y-103214225D01*
X100100151Y-103411762D01*
X100100154Y-103411767D01*
X100102477Y-103416749D01*
X100105634Y-103421257D01*
X100212117Y-103573330D01*
X100233802Y-103604300D01*
X100395700Y-103766198D01*
X100400208Y-103769355D01*
X100400211Y-103769357D01*
X100407592Y-103774525D01*
X100583251Y-103897523D01*
X100588233Y-103899846D01*
X100588238Y-103899849D01*
X100622457Y-103915805D01*
X100675742Y-103962722D01*
X100695203Y-104030999D01*
X100674661Y-104098959D01*
X100622457Y-104144195D01*
X100588238Y-104160151D01*
X100588233Y-104160154D01*
X100583251Y-104162477D01*
X100495483Y-104223933D01*
X100400211Y-104290643D01*
X100400208Y-104290645D01*
X100395700Y-104293802D01*
X100233802Y-104455700D01*
X100102477Y-104643251D01*
X100100154Y-104648233D01*
X100100151Y-104648238D01*
X100037637Y-104782301D01*
X100005716Y-104850757D01*
X100004294Y-104856065D01*
X100004293Y-104856067D01*
X99952061Y-105050999D01*
X99946457Y-105071913D01*
X99926502Y-105300000D01*
X97008500Y-105300000D01*
X97008500Y-91700469D01*
X107087095Y-91700469D01*
X107087392Y-91705622D01*
X107087392Y-91705625D01*
X107100129Y-91926529D01*
X107100427Y-91931697D01*
X107101564Y-91936743D01*
X107101565Y-91936749D01*
X107133741Y-92079523D01*
X107151346Y-92157642D01*
X107153288Y-92162424D01*
X107153289Y-92162428D01*
X107229161Y-92349277D01*
X107238484Y-92372237D01*
X107359501Y-92569719D01*
X107362882Y-92573622D01*
X107471304Y-92698788D01*
X107500786Y-92763373D01*
X107490671Y-92833646D01*
X107444170Y-92887294D01*
X107420296Y-92899267D01*
X107364515Y-92920179D01*
X107353295Y-92924385D01*
X107236739Y-93011739D01*
X107149385Y-93128295D01*
X107098255Y-93264684D01*
X107091500Y-93326866D01*
X107091500Y-95223134D01*
X107098255Y-95285316D01*
X107149385Y-95421705D01*
X107236739Y-95538261D01*
X107353295Y-95625615D01*
X107489684Y-95676745D01*
X107551866Y-95683500D01*
X109448134Y-95683500D01*
X109510316Y-95676745D01*
X109646705Y-95625615D01*
X109763261Y-95538261D01*
X109850615Y-95421705D01*
X109901745Y-95285316D01*
X109908500Y-95223134D01*
X109908500Y-93326866D01*
X109901745Y-93264684D01*
X109850615Y-93128295D01*
X109763261Y-93011739D01*
X109646705Y-92924385D01*
X109638296Y-92921233D01*
X109638295Y-92921232D01*
X109579804Y-92899305D01*
X109523039Y-92856664D01*
X109498339Y-92790103D01*
X109513546Y-92720754D01*
X109535093Y-92692073D01*
X109572636Y-92654660D01*
X109572640Y-92654655D01*
X109576303Y-92651005D01*
X109711458Y-92462917D01*
X109758641Y-92367450D01*
X109811784Y-92259922D01*
X109811785Y-92259920D01*
X109814078Y-92255280D01*
X109881408Y-92033671D01*
X109911640Y-91804041D01*
X109913327Y-91735000D01*
X109907032Y-91658434D01*
X109894773Y-91509318D01*
X109894772Y-91509312D01*
X109894349Y-91504167D01*
X109866137Y-91391850D01*
X109839184Y-91284544D01*
X109839183Y-91284540D01*
X109837925Y-91279533D01*
X109835866Y-91274797D01*
X109747630Y-91071868D01*
X109747628Y-91071865D01*
X109745570Y-91067131D01*
X109619764Y-90872665D01*
X109463887Y-90701358D01*
X109459836Y-90698159D01*
X109459832Y-90698155D01*
X109286177Y-90561011D01*
X109286172Y-90561008D01*
X109282123Y-90557810D01*
X109277607Y-90555317D01*
X109277604Y-90555315D01*
X109083879Y-90448373D01*
X109083875Y-90448371D01*
X109079355Y-90445876D01*
X109074486Y-90444152D01*
X109074482Y-90444150D01*
X108865903Y-90370288D01*
X108865899Y-90370287D01*
X108861028Y-90368562D01*
X108855935Y-90367655D01*
X108855932Y-90367654D01*
X108638095Y-90328851D01*
X108638089Y-90328850D01*
X108633006Y-90327945D01*
X108560096Y-90327054D01*
X108406581Y-90325179D01*
X108406579Y-90325179D01*
X108401411Y-90325116D01*
X108172464Y-90360150D01*
X107952314Y-90432106D01*
X107947726Y-90434494D01*
X107947722Y-90434496D01*
X107921065Y-90448373D01*
X107746872Y-90539052D01*
X107742739Y-90542155D01*
X107742736Y-90542157D01*
X107617660Y-90636067D01*
X107561655Y-90678117D01*
X107401639Y-90845564D01*
X107398725Y-90849836D01*
X107398724Y-90849837D01*
X107383152Y-90872665D01*
X107271119Y-91036899D01*
X107173602Y-91246981D01*
X107111707Y-91470169D01*
X107087095Y-91700469D01*
X97008500Y-91700469D01*
X97008500Y-86553250D01*
X97010246Y-86532345D01*
X97012770Y-86517344D01*
X97012770Y-86517341D01*
X97013576Y-86512552D01*
X97013729Y-86500000D01*
X97011464Y-86484183D01*
X97010326Y-86460508D01*
X97025258Y-86137529D01*
X97026332Y-86125940D01*
X97075659Y-85772328D01*
X97077798Y-85760888D01*
X97085830Y-85726739D01*
X97159541Y-85413335D01*
X97162724Y-85402150D01*
X97164091Y-85398074D01*
X97246632Y-85151803D01*
X97276186Y-85063628D01*
X97280390Y-85052776D01*
X97424605Y-84726160D01*
X97429785Y-84715755D01*
X97603530Y-84403823D01*
X97609646Y-84393946D01*
X97811422Y-84099390D01*
X97818436Y-84090102D01*
X98046530Y-83815419D01*
X98054371Y-83806819D01*
X98306819Y-83554371D01*
X98315419Y-83546530D01*
X98590102Y-83318436D01*
X98599390Y-83311422D01*
X98865443Y-83129171D01*
X98893947Y-83109645D01*
X98903823Y-83103530D01*
X99215755Y-82929785D01*
X99226160Y-82924605D01*
X99552776Y-82780390D01*
X99563628Y-82776186D01*
X99732889Y-82719455D01*
X99902159Y-82662721D01*
X99913335Y-82659541D01*
X100260888Y-82577798D01*
X100272328Y-82575659D01*
X100625940Y-82526332D01*
X100637529Y-82525258D01*
X100956785Y-82510498D01*
X100981989Y-82511864D01*
X100984850Y-82512310D01*
X100984856Y-82512310D01*
X100993724Y-82513691D01*
X101002626Y-82512527D01*
X101002628Y-82512527D01*
X101020757Y-82510156D01*
X101025286Y-82509564D01*
X101041621Y-82508500D01*
X148950633Y-82508500D01*
X148970018Y-82510000D01*
G37*
%TD.AperFunction*%
%TD*%
%TA.AperFunction,Conductor*%
%TO.N,/Simon un peu plus dur/SW0*%
G36*
X115440805Y-97220002D02*
G01*
X115475897Y-97253729D01*
X115488721Y-97272043D01*
X115493802Y-97279300D01*
X115655700Y-97441198D01*
X115660208Y-97444355D01*
X115660211Y-97444357D01*
X115737617Y-97498557D01*
X115843251Y-97572523D01*
X115848233Y-97574846D01*
X115848238Y-97574849D01*
X115882457Y-97590805D01*
X115935742Y-97637722D01*
X115955203Y-97705999D01*
X115934661Y-97773959D01*
X115882457Y-97819195D01*
X115848238Y-97835151D01*
X115848233Y-97835154D01*
X115843251Y-97837477D01*
X115738389Y-97910902D01*
X115660211Y-97965643D01*
X115660208Y-97965645D01*
X115655700Y-97968802D01*
X115493802Y-98130700D01*
X115490645Y-98135208D01*
X115490643Y-98135211D01*
X115442271Y-98204293D01*
X115362477Y-98318251D01*
X115360154Y-98323233D01*
X115360151Y-98323238D01*
X115310068Y-98430643D01*
X115265716Y-98525757D01*
X115264294Y-98531065D01*
X115264293Y-98531067D01*
X115207881Y-98741598D01*
X115206457Y-98746913D01*
X115186502Y-98975000D01*
X115206457Y-99203087D01*
X115207881Y-99208400D01*
X115207881Y-99208402D01*
X115232807Y-99301424D01*
X115265716Y-99424243D01*
X115268039Y-99429224D01*
X115268039Y-99429225D01*
X115360151Y-99626762D01*
X115360154Y-99626767D01*
X115362477Y-99631749D01*
X115389074Y-99669733D01*
X115488891Y-99812286D01*
X115493802Y-99819300D01*
X115655700Y-99981198D01*
X115660208Y-99984355D01*
X115660211Y-99984357D01*
X115706472Y-100016749D01*
X115843251Y-100112523D01*
X115848233Y-100114846D01*
X115848238Y-100114849D01*
X116021128Y-100195468D01*
X116050757Y-100209284D01*
X116056065Y-100210706D01*
X116056067Y-100210707D01*
X116266598Y-100267119D01*
X116266600Y-100267119D01*
X116271913Y-100268543D01*
X116500000Y-100288498D01*
X116728087Y-100268543D01*
X116733400Y-100267119D01*
X116733402Y-100267119D01*
X116943933Y-100210707D01*
X116943935Y-100210706D01*
X116949243Y-100209284D01*
X116978872Y-100195468D01*
X117151762Y-100114849D01*
X117151767Y-100114846D01*
X117156749Y-100112523D01*
X117293528Y-100016749D01*
X117339789Y-99984357D01*
X117339792Y-99984355D01*
X117344300Y-99981198D01*
X117506198Y-99819300D01*
X117511110Y-99812286D01*
X117610926Y-99669733D01*
X117637523Y-99631749D01*
X117639846Y-99626767D01*
X117639849Y-99626762D01*
X117726937Y-99440000D01*
X118606502Y-99440000D01*
X118626457Y-99668087D01*
X118627881Y-99673400D01*
X118627881Y-99673402D01*
X118677310Y-99857870D01*
X118685716Y-99889243D01*
X118688039Y-99894224D01*
X118688039Y-99894225D01*
X118780151Y-100091762D01*
X118780154Y-100091767D01*
X118782477Y-100096749D01*
X118823182Y-100154882D01*
X118902769Y-100268543D01*
X118913802Y-100284300D01*
X119075700Y-100446198D01*
X119080208Y-100449355D01*
X119080211Y-100449357D01*
X119144634Y-100494466D01*
X119263251Y-100577523D01*
X119268233Y-100579846D01*
X119268238Y-100579849D01*
X119379117Y-100631552D01*
X119470757Y-100674284D01*
X119476065Y-100675706D01*
X119476067Y-100675707D01*
X119686598Y-100732119D01*
X119686600Y-100732119D01*
X119691913Y-100733543D01*
X119920000Y-100753498D01*
X120148087Y-100733543D01*
X120153400Y-100732119D01*
X120153402Y-100732119D01*
X120363933Y-100675707D01*
X120363935Y-100675706D01*
X120369243Y-100674284D01*
X120460883Y-100631552D01*
X120571762Y-100579849D01*
X120571767Y-100579846D01*
X120576749Y-100577523D01*
X120695366Y-100494466D01*
X120759789Y-100449357D01*
X120759792Y-100449355D01*
X120764300Y-100446198D01*
X120926198Y-100284300D01*
X120937232Y-100268543D01*
X121016818Y-100154882D01*
X121057523Y-100096749D01*
X121059846Y-100091767D01*
X121059849Y-100091762D01*
X121151961Y-99894225D01*
X121151961Y-99894224D01*
X121154284Y-99889243D01*
X121162691Y-99857870D01*
X121212119Y-99673402D01*
X121212119Y-99673400D01*
X121213543Y-99668087D01*
X121233498Y-99440000D01*
X121213543Y-99211913D01*
X121212119Y-99206598D01*
X121155707Y-98996067D01*
X121155706Y-98996065D01*
X121154284Y-98990757D01*
X121151961Y-98985775D01*
X121059849Y-98788238D01*
X121059846Y-98788233D01*
X121057523Y-98783251D01*
X120926198Y-98595700D01*
X120764300Y-98433802D01*
X120759792Y-98430645D01*
X120759789Y-98430643D01*
X120681611Y-98375902D01*
X120576749Y-98302477D01*
X120571767Y-98300154D01*
X120571762Y-98300151D01*
X120374225Y-98208039D01*
X120374224Y-98208039D01*
X120369243Y-98205716D01*
X120363935Y-98204294D01*
X120363933Y-98204293D01*
X120153402Y-98147881D01*
X120153400Y-98147881D01*
X120148087Y-98146457D01*
X119920000Y-98126502D01*
X119691913Y-98146457D01*
X119686600Y-98147881D01*
X119686598Y-98147881D01*
X119476067Y-98204293D01*
X119476065Y-98204294D01*
X119470757Y-98205716D01*
X119465776Y-98208039D01*
X119465775Y-98208039D01*
X119268238Y-98300151D01*
X119268233Y-98300154D01*
X119263251Y-98302477D01*
X119158389Y-98375902D01*
X119080211Y-98430643D01*
X119080208Y-98430645D01*
X119075700Y-98433802D01*
X118913802Y-98595700D01*
X118782477Y-98783251D01*
X118780154Y-98788233D01*
X118780151Y-98788238D01*
X118688039Y-98985775D01*
X118685716Y-98990757D01*
X118684294Y-98996065D01*
X118684293Y-98996067D01*
X118627881Y-99206598D01*
X118626457Y-99211913D01*
X118606502Y-99440000D01*
X117726937Y-99440000D01*
X117731961Y-99429225D01*
X117731961Y-99429224D01*
X117734284Y-99424243D01*
X117767194Y-99301424D01*
X117792119Y-99208402D01*
X117792119Y-99208400D01*
X117793543Y-99203087D01*
X117813498Y-98975000D01*
X117793543Y-98746913D01*
X117792119Y-98741598D01*
X117735707Y-98531067D01*
X117735706Y-98531065D01*
X117734284Y-98525757D01*
X117689932Y-98430643D01*
X117639849Y-98323238D01*
X117639846Y-98323233D01*
X117637523Y-98318251D01*
X117557729Y-98204293D01*
X117509357Y-98135211D01*
X117509355Y-98135208D01*
X117506198Y-98130700D01*
X117344300Y-97968802D01*
X117339792Y-97965645D01*
X117339789Y-97965643D01*
X117261611Y-97910902D01*
X117156749Y-97837477D01*
X117151767Y-97835154D01*
X117151762Y-97835151D01*
X117117543Y-97819195D01*
X117064258Y-97772278D01*
X117044797Y-97704001D01*
X117065339Y-97636041D01*
X117117543Y-97590805D01*
X117151762Y-97574849D01*
X117151767Y-97574846D01*
X117156749Y-97572523D01*
X117229982Y-97521245D01*
X117297255Y-97498557D01*
X117366115Y-97515842D01*
X117384763Y-97529232D01*
X117480261Y-97611982D01*
X117613210Y-97672698D01*
X117636964Y-97679673D01*
X117677008Y-97691431D01*
X117677012Y-97691432D01*
X117681331Y-97692700D01*
X117685780Y-97693340D01*
X117685786Y-97693341D01*
X117821553Y-97712861D01*
X117821558Y-97712861D01*
X117826000Y-97713500D01*
X118985312Y-97713500D01*
X119003638Y-97713173D01*
X119004108Y-97713156D01*
X119004155Y-97713155D01*
X119008656Y-97712994D01*
X119012627Y-97712852D01*
X119013126Y-97712825D01*
X119013132Y-97712825D01*
X119025882Y-97712142D01*
X119025885Y-97712142D01*
X119030936Y-97711871D01*
X119109265Y-97694831D01*
X119169346Y-97681761D01*
X119169350Y-97681760D01*
X119173753Y-97680802D01*
X119177972Y-97679228D01*
X119177980Y-97679226D01*
X119206638Y-97668536D01*
X119240273Y-97655991D01*
X119368550Y-97585946D01*
X119471899Y-97482598D01*
X119486861Y-97462612D01*
X119511745Y-97429370D01*
X119514446Y-97425762D01*
X119517735Y-97419739D01*
X119562731Y-97337336D01*
X119612933Y-97287134D01*
X119682307Y-97272043D01*
X119689744Y-97272962D01*
X119691913Y-97273543D01*
X119697386Y-97274022D01*
X119697387Y-97274022D01*
X119914525Y-97293019D01*
X119920000Y-97293498D01*
X119925475Y-97293019D01*
X120148087Y-97273543D01*
X120148229Y-97275164D01*
X120211377Y-97282201D01*
X120266485Y-97326963D01*
X120272223Y-97337086D01*
X120272978Y-97339657D01*
X120351996Y-97462612D01*
X120398489Y-97516268D01*
X120401882Y-97519208D01*
X120502138Y-97606081D01*
X120502141Y-97606083D01*
X120508949Y-97611982D01*
X120641898Y-97672698D01*
X120665652Y-97679673D01*
X120705696Y-97691431D01*
X120705700Y-97691432D01*
X120710019Y-97692700D01*
X120714468Y-97693340D01*
X120714474Y-97693341D01*
X120850241Y-97712861D01*
X120850246Y-97712861D01*
X120854688Y-97713500D01*
X122315500Y-97713500D01*
X122383621Y-97733502D01*
X122430114Y-97787158D01*
X122441500Y-97839500D01*
X122441500Y-99186520D01*
X122421498Y-99254641D01*
X122367842Y-99301134D01*
X122297568Y-99311238D01*
X122232988Y-99281744D01*
X122226405Y-99275615D01*
X122143121Y-99192331D01*
X122130741Y-99185571D01*
X122124353Y-99190353D01*
X122071997Y-99285586D01*
X122067166Y-99296858D01*
X122011120Y-99473538D01*
X122008570Y-99485532D01*
X121987909Y-99669733D01*
X121987738Y-99682002D01*
X122003248Y-99866705D01*
X122005461Y-99878764D01*
X122056554Y-100056945D01*
X122061066Y-100068342D01*
X122121148Y-100185250D01*
X122130865Y-100195468D01*
X122137666Y-100193124D01*
X122489543Y-99841247D01*
X122551855Y-99807221D01*
X122622670Y-99812286D01*
X122651627Y-99827636D01*
X122730845Y-99883933D01*
X122738816Y-99889598D01*
X122834624Y-99924091D01*
X122861414Y-99933736D01*
X122918732Y-99975631D01*
X122944301Y-100041863D01*
X122930003Y-100111405D01*
X122907828Y-100141382D01*
X122502458Y-100546752D01*
X122495698Y-100559132D01*
X122500607Y-100565690D01*
X122589118Y-100615157D01*
X122600357Y-100620067D01*
X122776641Y-100677345D01*
X122788615Y-100679978D01*
X122972676Y-100701926D01*
X122984925Y-100702183D01*
X123169742Y-100687962D01*
X123181822Y-100685831D01*
X123360345Y-100635986D01*
X123371778Y-100631552D01*
X123495507Y-100569052D01*
X123505791Y-100559407D01*
X123503553Y-100552763D01*
X123091735Y-100140945D01*
X123057709Y-100078633D01*
X123062774Y-100007818D01*
X123105321Y-99950982D01*
X123155925Y-99928336D01*
X123185399Y-99922393D01*
X123250460Y-99889243D01*
X123314087Y-99856824D01*
X123314090Y-99856822D01*
X123321740Y-99852924D01*
X123328063Y-99847110D01*
X123328067Y-99847107D01*
X123337194Y-99838714D01*
X123400876Y-99807327D01*
X123471417Y-99815352D01*
X123511576Y-99842366D01*
X123856661Y-100187451D01*
X123869041Y-100194211D01*
X123875775Y-100189170D01*
X123922262Y-100107337D01*
X123927256Y-100096121D01*
X123985759Y-99920253D01*
X123988479Y-99908281D01*
X124012039Y-99721784D01*
X124012531Y-99714757D01*
X124012828Y-99693523D01*
X124012533Y-99686494D01*
X123994188Y-99499397D01*
X123991805Y-99487362D01*
X123938233Y-99309924D01*
X123933559Y-99298584D01*
X123878562Y-99195148D01*
X123868702Y-99185067D01*
X123861575Y-99187635D01*
X123773595Y-99275615D01*
X123711283Y-99309641D01*
X123640468Y-99304576D01*
X123583632Y-99262029D01*
X123558821Y-99195509D01*
X123558500Y-99186520D01*
X123558500Y-97839500D01*
X123578502Y-97771379D01*
X123632158Y-97724886D01*
X123684500Y-97713500D01*
X124374000Y-97713500D01*
X124377346Y-97713140D01*
X124377351Y-97713140D01*
X124479785Y-97702128D01*
X124479792Y-97702127D01*
X124483149Y-97701766D01*
X124512488Y-97695384D01*
X124535491Y-97690380D01*
X124535827Y-97691924D01*
X124600565Y-97693050D01*
X124659615Y-97732467D01*
X124687980Y-97797551D01*
X124687687Y-97831235D01*
X124687141Y-97835037D01*
X124687140Y-97835046D01*
X124686500Y-97839500D01*
X124686500Y-115574000D01*
X124666498Y-115642121D01*
X124612842Y-115688614D01*
X124560500Y-115700000D01*
X111126000Y-115700000D01*
X111057879Y-115679998D01*
X111011386Y-115626342D01*
X111000000Y-115574000D01*
X111000000Y-112348134D01*
X120441500Y-112348134D01*
X120448255Y-112410316D01*
X120499385Y-112546705D01*
X120586739Y-112663261D01*
X120703295Y-112750615D01*
X120839684Y-112801745D01*
X120901866Y-112808500D01*
X122598134Y-112808500D01*
X122660316Y-112801745D01*
X122796705Y-112750615D01*
X122913261Y-112663261D01*
X123000615Y-112546705D01*
X123051745Y-112410316D01*
X123058500Y-112348134D01*
X123058500Y-110651866D01*
X123051745Y-110589684D01*
X123000615Y-110453295D01*
X122913261Y-110336739D01*
X122796705Y-110249385D01*
X122660316Y-110198255D01*
X122598134Y-110191500D01*
X120901866Y-110191500D01*
X120839684Y-110198255D01*
X120703295Y-110249385D01*
X120586739Y-110336739D01*
X120499385Y-110453295D01*
X120448255Y-110589684D01*
X120441500Y-110651866D01*
X120441500Y-112348134D01*
X111000000Y-112348134D01*
X111000000Y-111482670D01*
X112382160Y-111482670D01*
X112387887Y-111490320D01*
X112559042Y-111595205D01*
X112567837Y-111599687D01*
X112777988Y-111686734D01*
X112787373Y-111689783D01*
X113008554Y-111742885D01*
X113018301Y-111744428D01*
X113245070Y-111762275D01*
X113254930Y-111762275D01*
X113481699Y-111744428D01*
X113491446Y-111742885D01*
X113712627Y-111689783D01*
X113722012Y-111686734D01*
X113932163Y-111599687D01*
X113940958Y-111595205D01*
X114108445Y-111492568D01*
X114117907Y-111482110D01*
X114114124Y-111473334D01*
X113262812Y-110622022D01*
X113248868Y-110614408D01*
X113247035Y-110614539D01*
X113240420Y-110618790D01*
X112388920Y-111470290D01*
X112382160Y-111482670D01*
X111000000Y-111482670D01*
X111000000Y-110254930D01*
X111737725Y-110254930D01*
X111755572Y-110481699D01*
X111757115Y-110491446D01*
X111810217Y-110712627D01*
X111813266Y-110722012D01*
X111900313Y-110932163D01*
X111904795Y-110940958D01*
X112007432Y-111108445D01*
X112017890Y-111117907D01*
X112026666Y-111114124D01*
X112877978Y-110262812D01*
X112884356Y-110251132D01*
X113614408Y-110251132D01*
X113614539Y-110252965D01*
X113618790Y-110259580D01*
X114470290Y-111111080D01*
X114482670Y-111117840D01*
X114490320Y-111112113D01*
X114595205Y-110940958D01*
X114599687Y-110932163D01*
X114686734Y-110722012D01*
X114689783Y-110712627D01*
X114742885Y-110491446D01*
X114744428Y-110481699D01*
X114762275Y-110254930D01*
X114762275Y-110245070D01*
X114744428Y-110018301D01*
X114742885Y-110008554D01*
X114689783Y-109787373D01*
X114686734Y-109777988D01*
X114599687Y-109567837D01*
X114595205Y-109559042D01*
X114492568Y-109391555D01*
X114482110Y-109382093D01*
X114473334Y-109385876D01*
X113622022Y-110237188D01*
X113614408Y-110251132D01*
X112884356Y-110251132D01*
X112885592Y-110248868D01*
X112885461Y-110247035D01*
X112881210Y-110240420D01*
X112029710Y-109388920D01*
X112017330Y-109382160D01*
X112009680Y-109387887D01*
X111904795Y-109559042D01*
X111900313Y-109567837D01*
X111813266Y-109777988D01*
X111810217Y-109787373D01*
X111757115Y-110008554D01*
X111755572Y-110018301D01*
X111737725Y-110245070D01*
X111737725Y-110254930D01*
X111000000Y-110254930D01*
X111000000Y-109017890D01*
X112382093Y-109017890D01*
X112385876Y-109026666D01*
X113237188Y-109877978D01*
X113251132Y-109885592D01*
X113252965Y-109885461D01*
X113259580Y-109881210D01*
X114111080Y-109029710D01*
X114117840Y-109017330D01*
X114112113Y-109009680D01*
X113940958Y-108904795D01*
X113932163Y-108900313D01*
X113722012Y-108813266D01*
X113712627Y-108810217D01*
X113491446Y-108757115D01*
X113481699Y-108755572D01*
X113254930Y-108737725D01*
X113245070Y-108737725D01*
X113018301Y-108755572D01*
X113008554Y-108757115D01*
X112787373Y-108810217D01*
X112777988Y-108813266D01*
X112567837Y-108900313D01*
X112559042Y-108904795D01*
X112391555Y-109007432D01*
X112382093Y-109017890D01*
X111000000Y-109017890D01*
X111000000Y-104982670D01*
X112382160Y-104982670D01*
X112387887Y-104990320D01*
X112559042Y-105095205D01*
X112567837Y-105099687D01*
X112777988Y-105186734D01*
X112787373Y-105189783D01*
X113008554Y-105242885D01*
X113018301Y-105244428D01*
X113245070Y-105262275D01*
X113254930Y-105262275D01*
X113481699Y-105244428D01*
X113491446Y-105242885D01*
X113712627Y-105189783D01*
X113722012Y-105186734D01*
X113932163Y-105099687D01*
X113940958Y-105095205D01*
X114108445Y-104992568D01*
X114117907Y-104982110D01*
X114114124Y-104973334D01*
X113262812Y-104122022D01*
X113248868Y-104114408D01*
X113247035Y-104114539D01*
X113240420Y-104118790D01*
X112388920Y-104970290D01*
X112382160Y-104982670D01*
X111000000Y-104982670D01*
X111000000Y-103754930D01*
X111737725Y-103754930D01*
X111755572Y-103981699D01*
X111757115Y-103991446D01*
X111810217Y-104212627D01*
X111813266Y-104222012D01*
X111900313Y-104432163D01*
X111904795Y-104440958D01*
X112007432Y-104608445D01*
X112017890Y-104617907D01*
X112026666Y-104614124D01*
X112877978Y-103762812D01*
X112884356Y-103751132D01*
X113614408Y-103751132D01*
X113614539Y-103752965D01*
X113618790Y-103759580D01*
X114470290Y-104611080D01*
X114482670Y-104617840D01*
X114490320Y-104612113D01*
X114595205Y-104440958D01*
X114599687Y-104432163D01*
X114686734Y-104222012D01*
X114689783Y-104212627D01*
X114742885Y-103991446D01*
X114744428Y-103981699D01*
X114762275Y-103754930D01*
X114762275Y-103745070D01*
X114744428Y-103518301D01*
X114742885Y-103508554D01*
X114689783Y-103287373D01*
X114686734Y-103277988D01*
X114599687Y-103067837D01*
X114595205Y-103059042D01*
X114492568Y-102891555D01*
X114482110Y-102882093D01*
X114473334Y-102885876D01*
X113622022Y-103737188D01*
X113614408Y-103751132D01*
X112884356Y-103751132D01*
X112885592Y-103748868D01*
X112885461Y-103747035D01*
X112881210Y-103740420D01*
X112029710Y-102888920D01*
X112017330Y-102882160D01*
X112009680Y-102887887D01*
X111904795Y-103059042D01*
X111900313Y-103067837D01*
X111813266Y-103277988D01*
X111810217Y-103287373D01*
X111757115Y-103508554D01*
X111755572Y-103518301D01*
X111737725Y-103745070D01*
X111737725Y-103754930D01*
X111000000Y-103754930D01*
X111000000Y-102517890D01*
X112382093Y-102517890D01*
X112385876Y-102526666D01*
X113237188Y-103377978D01*
X113251132Y-103385592D01*
X113252965Y-103385461D01*
X113259580Y-103381210D01*
X114111080Y-102529710D01*
X114117840Y-102517330D01*
X114112113Y-102509680D01*
X113940958Y-102404795D01*
X113932163Y-102400313D01*
X113722012Y-102313266D01*
X113712627Y-102310217D01*
X113491446Y-102257115D01*
X113481699Y-102255572D01*
X113254930Y-102237725D01*
X113245070Y-102237725D01*
X113018301Y-102255572D01*
X113008554Y-102257115D01*
X112787373Y-102310217D01*
X112777988Y-102313266D01*
X112567837Y-102400313D01*
X112559042Y-102404795D01*
X112391555Y-102507432D01*
X112382093Y-102517890D01*
X111000000Y-102517890D01*
X111000000Y-97326000D01*
X111020002Y-97257879D01*
X111073658Y-97211386D01*
X111126000Y-97200000D01*
X115372684Y-97200000D01*
X115440805Y-97220002D01*
G37*
%TD.AperFunction*%
%TD*%
%TA.AperFunction,Conductor*%
%TO.N,Net-(F2-Pad2)*%
G36*
X129742121Y-83620002D02*
G01*
X129788614Y-83673658D01*
X129800000Y-83726000D01*
X129800000Y-85109850D01*
X129779998Y-85177971D01*
X129726342Y-85224464D01*
X129656068Y-85234568D01*
X129613106Y-85220158D01*
X129458117Y-85134599D01*
X129448705Y-85130369D01*
X129247959Y-85059280D01*
X129237988Y-85056646D01*
X129166837Y-85043972D01*
X129153540Y-85045432D01*
X129149000Y-85059989D01*
X129149000Y-87711632D01*
X129143930Y-87711632D01*
X129143792Y-87747707D01*
X129112957Y-87800005D01*
X125835267Y-91139540D01*
X124500000Y-92500000D01*
X124500000Y-94260270D01*
X124479998Y-94328391D01*
X124467636Y-94344580D01*
X124360960Y-94463056D01*
X124265473Y-94628444D01*
X124206458Y-94810072D01*
X124205768Y-94816633D01*
X124205768Y-94816635D01*
X124189249Y-94973802D01*
X124186496Y-95000000D01*
X124187186Y-95006565D01*
X124201364Y-95141457D01*
X124206458Y-95189928D01*
X124265473Y-95371556D01*
X124360960Y-95536944D01*
X124365378Y-95541851D01*
X124365379Y-95541852D01*
X124467636Y-95655420D01*
X124498354Y-95719427D01*
X124500000Y-95739730D01*
X124500000Y-97074000D01*
X124479998Y-97142121D01*
X124426342Y-97188614D01*
X124374000Y-97200000D01*
X123684500Y-97200000D01*
X123616379Y-97179998D01*
X123569886Y-97126342D01*
X123558500Y-97074000D01*
X123558500Y-96193480D01*
X123578502Y-96125359D01*
X123632158Y-96078866D01*
X123702432Y-96068762D01*
X123767012Y-96098256D01*
X123773595Y-96104385D01*
X123856661Y-96187451D01*
X123869041Y-96194211D01*
X123875775Y-96189170D01*
X123922262Y-96107337D01*
X123927256Y-96096121D01*
X123985759Y-95920253D01*
X123988479Y-95908281D01*
X124012039Y-95721784D01*
X124012531Y-95714757D01*
X124012828Y-95693523D01*
X124012533Y-95686494D01*
X123994188Y-95499397D01*
X123991805Y-95487362D01*
X123938233Y-95309924D01*
X123933559Y-95298584D01*
X123878562Y-95195148D01*
X123868702Y-95185067D01*
X123861575Y-95187635D01*
X123510457Y-95538753D01*
X123448145Y-95572779D01*
X123377330Y-95567714D01*
X123348373Y-95552364D01*
X123268186Y-95495378D01*
X123261184Y-95490402D01*
X123138586Y-95446264D01*
X123081268Y-95404369D01*
X123055699Y-95338137D01*
X123069997Y-95268595D01*
X123092172Y-95238618D01*
X123497834Y-94832956D01*
X123504594Y-94820576D01*
X123499935Y-94814353D01*
X123397924Y-94759196D01*
X123386619Y-94754444D01*
X123209554Y-94699633D01*
X123197541Y-94697167D01*
X123013199Y-94677792D01*
X123000931Y-94677707D01*
X122816345Y-94694505D01*
X122804296Y-94696803D01*
X122626483Y-94749137D01*
X122615108Y-94753732D01*
X122504969Y-94811312D01*
X122494820Y-94821101D01*
X122497274Y-94828064D01*
X122908265Y-95239055D01*
X122942291Y-95301367D01*
X122937226Y-95372182D01*
X122894679Y-95429018D01*
X122844075Y-95451664D01*
X122814601Y-95457607D01*
X122806946Y-95461507D01*
X122806947Y-95461507D01*
X122685913Y-95523176D01*
X122685910Y-95523178D01*
X122678260Y-95527076D01*
X122671937Y-95532890D01*
X122671933Y-95532893D01*
X122662806Y-95541286D01*
X122599124Y-95572673D01*
X122528583Y-95564648D01*
X122488424Y-95537634D01*
X122143121Y-95192331D01*
X122130741Y-95185571D01*
X122124353Y-95190353D01*
X122071997Y-95285586D01*
X122067166Y-95296858D01*
X122011120Y-95473538D01*
X122008570Y-95485532D01*
X121987909Y-95669733D01*
X121987738Y-95682002D01*
X122003248Y-95866705D01*
X122005461Y-95878764D01*
X122056554Y-96056945D01*
X122061066Y-96068342D01*
X122121148Y-96185250D01*
X122130865Y-96195468D01*
X122137666Y-96193124D01*
X122226405Y-96104385D01*
X122288717Y-96070359D01*
X122359532Y-96075424D01*
X122416368Y-96117971D01*
X122441179Y-96184491D01*
X122441500Y-96193480D01*
X122441500Y-97074000D01*
X122421498Y-97142121D01*
X122367842Y-97188614D01*
X122315500Y-97200000D01*
X120854688Y-97200000D01*
X120786567Y-97179998D01*
X120740074Y-97126342D01*
X120729970Y-97056068D01*
X120759464Y-96991488D01*
X120765593Y-96984905D01*
X120926198Y-96824300D01*
X121057523Y-96636749D01*
X121059846Y-96631767D01*
X121059849Y-96631762D01*
X121151961Y-96434225D01*
X121151961Y-96434224D01*
X121154284Y-96429243D01*
X121213543Y-96208087D01*
X121233498Y-95980000D01*
X121213543Y-95751913D01*
X121210279Y-95739730D01*
X121155707Y-95536067D01*
X121155706Y-95536065D01*
X121154284Y-95530757D01*
X121134049Y-95487362D01*
X121059849Y-95328238D01*
X121059846Y-95328233D01*
X121057523Y-95323251D01*
X120964169Y-95189928D01*
X120929357Y-95140211D01*
X120929355Y-95140208D01*
X120926198Y-95135700D01*
X120764300Y-94973802D01*
X120759792Y-94970645D01*
X120759789Y-94970643D01*
X120681611Y-94915902D01*
X120576749Y-94842477D01*
X120571767Y-94840154D01*
X120571762Y-94840151D01*
X120374225Y-94748039D01*
X120374224Y-94748039D01*
X120369243Y-94745716D01*
X120363935Y-94744294D01*
X120363933Y-94744293D01*
X120153402Y-94687881D01*
X120153400Y-94687881D01*
X120148087Y-94686457D01*
X119920000Y-94666502D01*
X119691913Y-94686457D01*
X119686600Y-94687881D01*
X119686598Y-94687881D01*
X119476067Y-94744293D01*
X119476065Y-94744294D01*
X119470757Y-94745716D01*
X119465776Y-94748039D01*
X119465775Y-94748039D01*
X119268238Y-94840151D01*
X119268233Y-94840154D01*
X119263251Y-94842477D01*
X119158389Y-94915902D01*
X119080211Y-94970643D01*
X119080208Y-94970645D01*
X119075700Y-94973802D01*
X118913802Y-95135700D01*
X118910645Y-95140208D01*
X118910643Y-95140211D01*
X118875831Y-95189928D01*
X118782477Y-95323251D01*
X118780154Y-95328233D01*
X118780151Y-95328238D01*
X118705951Y-95487362D01*
X118685716Y-95530757D01*
X118684294Y-95536065D01*
X118684293Y-95536067D01*
X118629721Y-95739730D01*
X118626457Y-95751913D01*
X118606502Y-95980000D01*
X118626457Y-96208087D01*
X118685716Y-96429243D01*
X118688039Y-96434224D01*
X118688039Y-96434225D01*
X118780151Y-96631762D01*
X118780154Y-96631767D01*
X118782477Y-96636749D01*
X118913802Y-96824300D01*
X119074407Y-96984905D01*
X119108433Y-97047217D01*
X119103368Y-97118032D01*
X119060821Y-97174868D01*
X118994301Y-97199679D01*
X118985312Y-97200000D01*
X117826000Y-97200000D01*
X117757879Y-97179998D01*
X117711386Y-97126342D01*
X117700000Y-97074000D01*
X117700000Y-96985699D01*
X117711805Y-96932450D01*
X117731958Y-96889232D01*
X117731959Y-96889228D01*
X117734284Y-96884243D01*
X117793543Y-96663087D01*
X117813498Y-96435000D01*
X117793543Y-96206913D01*
X117790140Y-96194211D01*
X117735708Y-95991072D01*
X117734284Y-95985757D01*
X117731600Y-95980000D01*
X117711805Y-95937550D01*
X117700000Y-95884301D01*
X117700000Y-87549854D01*
X117720002Y-87481733D01*
X117773658Y-87435240D01*
X117843932Y-87425136D01*
X117906485Y-87452910D01*
X117941203Y-87481733D01*
X117953126Y-87491632D01*
X118146000Y-87604338D01*
X118354692Y-87684030D01*
X118359760Y-87685061D01*
X118359763Y-87685062D01*
X118454862Y-87704410D01*
X118573597Y-87728567D01*
X118578772Y-87728757D01*
X118578774Y-87728757D01*
X118791673Y-87736564D01*
X118791677Y-87736564D01*
X118796837Y-87736753D01*
X118801957Y-87736097D01*
X118801959Y-87736097D01*
X119013288Y-87709025D01*
X119013289Y-87709025D01*
X119018416Y-87708368D01*
X119031609Y-87704410D01*
X119227429Y-87645661D01*
X119227434Y-87645659D01*
X119232384Y-87644174D01*
X119432994Y-87545896D01*
X119614860Y-87416173D01*
X119773096Y-87258489D01*
X119903453Y-87077077D01*
X119904776Y-87078028D01*
X119951645Y-87034857D01*
X120021580Y-87022625D01*
X120087026Y-87050144D01*
X120114875Y-87081994D01*
X120174987Y-87180088D01*
X120321250Y-87348938D01*
X120493126Y-87491632D01*
X120686000Y-87604338D01*
X120894692Y-87684030D01*
X120899760Y-87685061D01*
X120899763Y-87685062D01*
X120994862Y-87704410D01*
X121113597Y-87728567D01*
X121118772Y-87728757D01*
X121118774Y-87728757D01*
X121331673Y-87736564D01*
X121331677Y-87736564D01*
X121336837Y-87736753D01*
X121341957Y-87736097D01*
X121341959Y-87736097D01*
X121553288Y-87709025D01*
X121553289Y-87709025D01*
X121558416Y-87708368D01*
X121571609Y-87704410D01*
X121767429Y-87645661D01*
X121767434Y-87645659D01*
X121772384Y-87644174D01*
X121972994Y-87545896D01*
X122154860Y-87416173D01*
X122313096Y-87258489D01*
X122443453Y-87077077D01*
X122444776Y-87078028D01*
X122491645Y-87034857D01*
X122561580Y-87022625D01*
X122627026Y-87050144D01*
X122654875Y-87081994D01*
X122714987Y-87180088D01*
X122861250Y-87348938D01*
X123033126Y-87491632D01*
X123226000Y-87604338D01*
X123434692Y-87684030D01*
X123439760Y-87685061D01*
X123439763Y-87685062D01*
X123534862Y-87704410D01*
X123653597Y-87728567D01*
X123658772Y-87728757D01*
X123658774Y-87728757D01*
X123871673Y-87736564D01*
X123871677Y-87736564D01*
X123876837Y-87736753D01*
X123881957Y-87736097D01*
X123881959Y-87736097D01*
X124093288Y-87709025D01*
X124093289Y-87709025D01*
X124098416Y-87708368D01*
X124111609Y-87704410D01*
X124307429Y-87645661D01*
X124307434Y-87645659D01*
X124312384Y-87644174D01*
X124512994Y-87545896D01*
X124694860Y-87416173D01*
X124853096Y-87258489D01*
X124983453Y-87077077D01*
X124984776Y-87078028D01*
X125031645Y-87034857D01*
X125101580Y-87022625D01*
X125167026Y-87050144D01*
X125194875Y-87081994D01*
X125254987Y-87180088D01*
X125401250Y-87348938D01*
X125573126Y-87491632D01*
X125766000Y-87604338D01*
X125974692Y-87684030D01*
X125979760Y-87685061D01*
X125979763Y-87685062D01*
X126074862Y-87704410D01*
X126193597Y-87728567D01*
X126198772Y-87728757D01*
X126198774Y-87728757D01*
X126411673Y-87736564D01*
X126411677Y-87736564D01*
X126416837Y-87736753D01*
X126421957Y-87736097D01*
X126421959Y-87736097D01*
X126633288Y-87709025D01*
X126633289Y-87709025D01*
X126638416Y-87708368D01*
X126651609Y-87704410D01*
X126847429Y-87645661D01*
X126847434Y-87645659D01*
X126852384Y-87644174D01*
X127052994Y-87545896D01*
X127234860Y-87416173D01*
X127393096Y-87258489D01*
X127523453Y-87077077D01*
X127524640Y-87077930D01*
X127571960Y-87034362D01*
X127641897Y-87022145D01*
X127707338Y-87049678D01*
X127735166Y-87081511D01*
X127792694Y-87175388D01*
X127798777Y-87183699D01*
X127938213Y-87344667D01*
X127945580Y-87351883D01*
X128109434Y-87487916D01*
X128117881Y-87493831D01*
X128301756Y-87601279D01*
X128311042Y-87605729D01*
X128510001Y-87681703D01*
X128519899Y-87684579D01*
X128623250Y-87705606D01*
X128637299Y-87704410D01*
X128641000Y-87694065D01*
X128641000Y-85058102D01*
X128637082Y-85044758D01*
X128622806Y-85042771D01*
X128584324Y-85048660D01*
X128574288Y-85051051D01*
X128371868Y-85117212D01*
X128362359Y-85121209D01*
X128173463Y-85219542D01*
X128164738Y-85225036D01*
X127994433Y-85352905D01*
X127986726Y-85359748D01*
X127839590Y-85513717D01*
X127833109Y-85521722D01*
X127728498Y-85675074D01*
X127673587Y-85720076D01*
X127603062Y-85728247D01*
X127539315Y-85696993D01*
X127518618Y-85672509D01*
X127437822Y-85547617D01*
X127437820Y-85547614D01*
X127435014Y-85543277D01*
X127284670Y-85378051D01*
X127280619Y-85374852D01*
X127280615Y-85374848D01*
X127113414Y-85242800D01*
X127113410Y-85242798D01*
X127109359Y-85239598D01*
X127073028Y-85219542D01*
X126997721Y-85177971D01*
X126913789Y-85131638D01*
X126908920Y-85129914D01*
X126908916Y-85129912D01*
X126708087Y-85058795D01*
X126708083Y-85058794D01*
X126703212Y-85057069D01*
X126698119Y-85056162D01*
X126698116Y-85056161D01*
X126488373Y-85018800D01*
X126488367Y-85018799D01*
X126483284Y-85017894D01*
X126409452Y-85016992D01*
X126265081Y-85015228D01*
X126265079Y-85015228D01*
X126259911Y-85015165D01*
X126039091Y-85048955D01*
X125826756Y-85118357D01*
X125628607Y-85221507D01*
X125624474Y-85224610D01*
X125624471Y-85224612D01*
X125454100Y-85352530D01*
X125449965Y-85355635D01*
X125295629Y-85517138D01*
X125188201Y-85674621D01*
X125133293Y-85719621D01*
X125062768Y-85727792D01*
X124999021Y-85696538D01*
X124978324Y-85672054D01*
X124897822Y-85547617D01*
X124897820Y-85547614D01*
X124895014Y-85543277D01*
X124744670Y-85378051D01*
X124740619Y-85374852D01*
X124740615Y-85374848D01*
X124573414Y-85242800D01*
X124573410Y-85242798D01*
X124569359Y-85239598D01*
X124533028Y-85219542D01*
X124457721Y-85177971D01*
X124373789Y-85131638D01*
X124368920Y-85129914D01*
X124368916Y-85129912D01*
X124168087Y-85058795D01*
X124168083Y-85058794D01*
X124163212Y-85057069D01*
X124158119Y-85056162D01*
X124158116Y-85056161D01*
X123948373Y-85018800D01*
X123948367Y-85018799D01*
X123943284Y-85017894D01*
X123869452Y-85016992D01*
X123725081Y-85015228D01*
X123725079Y-85015228D01*
X123719911Y-85015165D01*
X123499091Y-85048955D01*
X123286756Y-85118357D01*
X123088607Y-85221507D01*
X123084474Y-85224610D01*
X123084471Y-85224612D01*
X122914100Y-85352530D01*
X122909965Y-85355635D01*
X122755629Y-85517138D01*
X122648201Y-85674621D01*
X122593293Y-85719621D01*
X122522768Y-85727792D01*
X122459021Y-85696538D01*
X122438324Y-85672054D01*
X122357822Y-85547617D01*
X122357820Y-85547614D01*
X122355014Y-85543277D01*
X122204670Y-85378051D01*
X122200619Y-85374852D01*
X122200615Y-85374848D01*
X122033414Y-85242800D01*
X122033410Y-85242798D01*
X122029359Y-85239598D01*
X121993028Y-85219542D01*
X121917721Y-85177971D01*
X121833789Y-85131638D01*
X121828920Y-85129914D01*
X121828916Y-85129912D01*
X121628087Y-85058795D01*
X121628083Y-85058794D01*
X121623212Y-85057069D01*
X121618119Y-85056162D01*
X121618116Y-85056161D01*
X121408373Y-85018800D01*
X121408367Y-85018799D01*
X121403284Y-85017894D01*
X121329452Y-85016992D01*
X121185081Y-85015228D01*
X121185079Y-85015228D01*
X121179911Y-85015165D01*
X120959091Y-85048955D01*
X120746756Y-85118357D01*
X120548607Y-85221507D01*
X120544474Y-85224610D01*
X120544471Y-85224612D01*
X120374100Y-85352530D01*
X120369965Y-85355635D01*
X120215629Y-85517138D01*
X120108201Y-85674621D01*
X120053293Y-85719621D01*
X119982768Y-85727792D01*
X119919021Y-85696538D01*
X119898324Y-85672054D01*
X119817822Y-85547617D01*
X119817820Y-85547614D01*
X119815014Y-85543277D01*
X119664670Y-85378051D01*
X119660619Y-85374852D01*
X119660615Y-85374848D01*
X119493414Y-85242800D01*
X119493410Y-85242798D01*
X119489359Y-85239598D01*
X119453028Y-85219542D01*
X119377721Y-85177971D01*
X119293789Y-85131638D01*
X119288920Y-85129914D01*
X119288916Y-85129912D01*
X119088087Y-85058795D01*
X119088083Y-85058794D01*
X119083212Y-85057069D01*
X119078119Y-85056162D01*
X119078116Y-85056161D01*
X118868373Y-85018800D01*
X118868367Y-85018799D01*
X118863284Y-85017894D01*
X118789452Y-85016992D01*
X118645081Y-85015228D01*
X118645079Y-85015228D01*
X118639911Y-85015165D01*
X118419091Y-85048955D01*
X118206756Y-85118357D01*
X118008607Y-85221507D01*
X118004474Y-85224610D01*
X118004471Y-85224612D01*
X117901653Y-85301810D01*
X117835168Y-85326716D01*
X117765772Y-85311724D01*
X117715499Y-85261593D01*
X117700000Y-85201050D01*
X117700000Y-83726000D01*
X117720002Y-83657879D01*
X117773658Y-83611386D01*
X117826000Y-83600000D01*
X129674000Y-83600000D01*
X129742121Y-83620002D01*
G37*
%TD.AperFunction*%
%TD*%
%TA.AperFunction,Conductor*%
%TO.N,/Simon un peu plus dur/SW1*%
G36*
X130929709Y-97701282D02*
G01*
X131010241Y-97712861D01*
X131010246Y-97712861D01*
X131014688Y-97713500D01*
X136674000Y-97713500D01*
X136677346Y-97713140D01*
X136677351Y-97713140D01*
X136779794Y-97702127D01*
X136779800Y-97702126D01*
X136783149Y-97701766D01*
X136784338Y-97701507D01*
X136803059Y-97700000D01*
X138574000Y-97700000D01*
X138642121Y-97720002D01*
X138688614Y-97773658D01*
X138700000Y-97826000D01*
X138700000Y-115574000D01*
X138679998Y-115642121D01*
X138626342Y-115688614D01*
X138574000Y-115700000D01*
X125326000Y-115700000D01*
X125257879Y-115679998D01*
X125211386Y-115626342D01*
X125200000Y-115574000D01*
X125200000Y-111500000D01*
X126936502Y-111500000D01*
X126956457Y-111728087D01*
X126957881Y-111733400D01*
X126957881Y-111733402D01*
X126960836Y-111744428D01*
X127015716Y-111949243D01*
X127018039Y-111954224D01*
X127018039Y-111954225D01*
X127110151Y-112151762D01*
X127110154Y-112151767D01*
X127112477Y-112156749D01*
X127243802Y-112344300D01*
X127405700Y-112506198D01*
X127410208Y-112509355D01*
X127410211Y-112509357D01*
X127488389Y-112564098D01*
X127593251Y-112637523D01*
X127598233Y-112639846D01*
X127598238Y-112639849D01*
X127795775Y-112731961D01*
X127800757Y-112734284D01*
X127806065Y-112735706D01*
X127806067Y-112735707D01*
X128016598Y-112792119D01*
X128016600Y-112792119D01*
X128021913Y-112793543D01*
X128250000Y-112813498D01*
X128478087Y-112793543D01*
X128483400Y-112792119D01*
X128483402Y-112792119D01*
X128693933Y-112735707D01*
X128693935Y-112735706D01*
X128699243Y-112734284D01*
X128704225Y-112731961D01*
X128901762Y-112639849D01*
X128901767Y-112639846D01*
X128906749Y-112637523D01*
X129011611Y-112564098D01*
X129089789Y-112509357D01*
X129089792Y-112509355D01*
X129094300Y-112506198D01*
X129256198Y-112344300D01*
X129387523Y-112156749D01*
X129389846Y-112151767D01*
X129389849Y-112151762D01*
X129481961Y-111954225D01*
X129481961Y-111954224D01*
X129484284Y-111949243D01*
X129539165Y-111744428D01*
X129542119Y-111733402D01*
X129542119Y-111733400D01*
X129543543Y-111728087D01*
X129563498Y-111500000D01*
X129561982Y-111482670D01*
X135882160Y-111482670D01*
X135887887Y-111490320D01*
X136059042Y-111595205D01*
X136067837Y-111599687D01*
X136277988Y-111686734D01*
X136287373Y-111689783D01*
X136508554Y-111742885D01*
X136518301Y-111744428D01*
X136745070Y-111762275D01*
X136754930Y-111762275D01*
X136981699Y-111744428D01*
X136991446Y-111742885D01*
X137212627Y-111689783D01*
X137222012Y-111686734D01*
X137432163Y-111599687D01*
X137440958Y-111595205D01*
X137608445Y-111492568D01*
X137617907Y-111482110D01*
X137614124Y-111473334D01*
X136762812Y-110622022D01*
X136748868Y-110614408D01*
X136747035Y-110614539D01*
X136740420Y-110618790D01*
X135888920Y-111470290D01*
X135882160Y-111482670D01*
X129561982Y-111482670D01*
X129543543Y-111271913D01*
X129501263Y-111114124D01*
X129485707Y-111056067D01*
X129485706Y-111056065D01*
X129484284Y-111050757D01*
X129481961Y-111045775D01*
X129389849Y-110848238D01*
X129389846Y-110848233D01*
X129387523Y-110843251D01*
X129256198Y-110655700D01*
X129094300Y-110493802D01*
X129089792Y-110490645D01*
X129089789Y-110490643D01*
X129011611Y-110435902D01*
X128906749Y-110362477D01*
X128901767Y-110360154D01*
X128901762Y-110360151D01*
X128704225Y-110268039D01*
X128704224Y-110268039D01*
X128699243Y-110265716D01*
X128693935Y-110264294D01*
X128693933Y-110264293D01*
X128658990Y-110254930D01*
X135237725Y-110254930D01*
X135255572Y-110481699D01*
X135257115Y-110491446D01*
X135310217Y-110712627D01*
X135313266Y-110722012D01*
X135400313Y-110932163D01*
X135404795Y-110940958D01*
X135507432Y-111108445D01*
X135517890Y-111117907D01*
X135526666Y-111114124D01*
X136377978Y-110262812D01*
X136384356Y-110251132D01*
X137114408Y-110251132D01*
X137114539Y-110252965D01*
X137118790Y-110259580D01*
X137970290Y-111111080D01*
X137982670Y-111117840D01*
X137990320Y-111112113D01*
X138095205Y-110940958D01*
X138099687Y-110932163D01*
X138186734Y-110722012D01*
X138189783Y-110712627D01*
X138242885Y-110491446D01*
X138244428Y-110481699D01*
X138262275Y-110254930D01*
X138262275Y-110245070D01*
X138244428Y-110018301D01*
X138242885Y-110008554D01*
X138189783Y-109787373D01*
X138186734Y-109777988D01*
X138099687Y-109567837D01*
X138095205Y-109559042D01*
X137992568Y-109391555D01*
X137982110Y-109382093D01*
X137973334Y-109385876D01*
X137122022Y-110237188D01*
X137114408Y-110251132D01*
X136384356Y-110251132D01*
X136385592Y-110248868D01*
X136385461Y-110247035D01*
X136381210Y-110240420D01*
X135529710Y-109388920D01*
X135517330Y-109382160D01*
X135509680Y-109387887D01*
X135404795Y-109559042D01*
X135400313Y-109567837D01*
X135313266Y-109777988D01*
X135310217Y-109787373D01*
X135257115Y-110008554D01*
X135255572Y-110018301D01*
X135237725Y-110245070D01*
X135237725Y-110254930D01*
X128658990Y-110254930D01*
X128483402Y-110207881D01*
X128483400Y-110207881D01*
X128478087Y-110206457D01*
X128250000Y-110186502D01*
X128021913Y-110206457D01*
X128016600Y-110207881D01*
X128016598Y-110207881D01*
X127806067Y-110264293D01*
X127806065Y-110264294D01*
X127800757Y-110265716D01*
X127795776Y-110268039D01*
X127795775Y-110268039D01*
X127598238Y-110360151D01*
X127598233Y-110360154D01*
X127593251Y-110362477D01*
X127488389Y-110435902D01*
X127410211Y-110490643D01*
X127410208Y-110490645D01*
X127405700Y-110493802D01*
X127243802Y-110655700D01*
X127112477Y-110843251D01*
X127110154Y-110848233D01*
X127110151Y-110848238D01*
X127018039Y-111045775D01*
X127015716Y-111050757D01*
X127014294Y-111056065D01*
X127014293Y-111056067D01*
X126998737Y-111114124D01*
X126956457Y-111271913D01*
X126936502Y-111500000D01*
X125200000Y-111500000D01*
X125200000Y-109017890D01*
X135882093Y-109017890D01*
X135885876Y-109026666D01*
X136737188Y-109877978D01*
X136751132Y-109885592D01*
X136752965Y-109885461D01*
X136759580Y-109881210D01*
X137611080Y-109029710D01*
X137617840Y-109017330D01*
X137612113Y-109009680D01*
X137440958Y-108904795D01*
X137432163Y-108900313D01*
X137222012Y-108813266D01*
X137212627Y-108810217D01*
X136991446Y-108757115D01*
X136981699Y-108755572D01*
X136754930Y-108737725D01*
X136745070Y-108737725D01*
X136518301Y-108755572D01*
X136508554Y-108757115D01*
X136287373Y-108810217D01*
X136277988Y-108813266D01*
X136067837Y-108900313D01*
X136059042Y-108904795D01*
X135891555Y-109007432D01*
X135882093Y-109017890D01*
X125200000Y-109017890D01*
X125200000Y-104982670D01*
X135882160Y-104982670D01*
X135887887Y-104990320D01*
X136059042Y-105095205D01*
X136067837Y-105099687D01*
X136277988Y-105186734D01*
X136287373Y-105189783D01*
X136508554Y-105242885D01*
X136518301Y-105244428D01*
X136745070Y-105262275D01*
X136754930Y-105262275D01*
X136981699Y-105244428D01*
X136991446Y-105242885D01*
X137212627Y-105189783D01*
X137222012Y-105186734D01*
X137432163Y-105099687D01*
X137440958Y-105095205D01*
X137608445Y-104992568D01*
X137617907Y-104982110D01*
X137614124Y-104973334D01*
X136762812Y-104122022D01*
X136748868Y-104114408D01*
X136747035Y-104114539D01*
X136740420Y-104118790D01*
X135888920Y-104970290D01*
X135882160Y-104982670D01*
X125200000Y-104982670D01*
X125200000Y-103754930D01*
X135237725Y-103754930D01*
X135255572Y-103981699D01*
X135257115Y-103991446D01*
X135310217Y-104212627D01*
X135313266Y-104222012D01*
X135400313Y-104432163D01*
X135404795Y-104440958D01*
X135507432Y-104608445D01*
X135517890Y-104617907D01*
X135526666Y-104614124D01*
X136377978Y-103762812D01*
X136384356Y-103751132D01*
X137114408Y-103751132D01*
X137114539Y-103752965D01*
X137118790Y-103759580D01*
X137970290Y-104611080D01*
X137982670Y-104617840D01*
X137990320Y-104612113D01*
X138095205Y-104440958D01*
X138099687Y-104432163D01*
X138186734Y-104222012D01*
X138189783Y-104212627D01*
X138242885Y-103991446D01*
X138244428Y-103981699D01*
X138262275Y-103754930D01*
X138262275Y-103745070D01*
X138244428Y-103518301D01*
X138242885Y-103508554D01*
X138189783Y-103287373D01*
X138186734Y-103277988D01*
X138099687Y-103067837D01*
X138095205Y-103059042D01*
X137992568Y-102891555D01*
X137982110Y-102882093D01*
X137973334Y-102885876D01*
X137122022Y-103737188D01*
X137114408Y-103751132D01*
X136384356Y-103751132D01*
X136385592Y-103748868D01*
X136385461Y-103747035D01*
X136381210Y-103740420D01*
X135529710Y-102888920D01*
X135517330Y-102882160D01*
X135509680Y-102887887D01*
X135404795Y-103059042D01*
X135400313Y-103067837D01*
X135313266Y-103277988D01*
X135310217Y-103287373D01*
X135257115Y-103508554D01*
X135255572Y-103518301D01*
X135237725Y-103745070D01*
X135237725Y-103754930D01*
X125200000Y-103754930D01*
X125200000Y-102517890D01*
X135882093Y-102517890D01*
X135885876Y-102526666D01*
X136737188Y-103377978D01*
X136751132Y-103385592D01*
X136752965Y-103385461D01*
X136759580Y-103381210D01*
X137611080Y-102529710D01*
X137617840Y-102517330D01*
X137612113Y-102509680D01*
X137440958Y-102404795D01*
X137432163Y-102400313D01*
X137222012Y-102313266D01*
X137212627Y-102310217D01*
X136991446Y-102257115D01*
X136981699Y-102255572D01*
X136754930Y-102237725D01*
X136745070Y-102237725D01*
X136518301Y-102255572D01*
X136508554Y-102257115D01*
X136287373Y-102310217D01*
X136277988Y-102313266D01*
X136067837Y-102400313D01*
X136059042Y-102404795D01*
X135891555Y-102507432D01*
X135882093Y-102517890D01*
X125200000Y-102517890D01*
X125200000Y-97839500D01*
X125220002Y-97771379D01*
X125273658Y-97724886D01*
X125326000Y-97713500D01*
X126315500Y-97713500D01*
X126383621Y-97733502D01*
X126430114Y-97787158D01*
X126441500Y-97839500D01*
X126441500Y-99186520D01*
X126421498Y-99254641D01*
X126367842Y-99301134D01*
X126297568Y-99311238D01*
X126232988Y-99281744D01*
X126226405Y-99275615D01*
X126143121Y-99192331D01*
X126130741Y-99185571D01*
X126124353Y-99190353D01*
X126071997Y-99285586D01*
X126067166Y-99296858D01*
X126011120Y-99473538D01*
X126008570Y-99485532D01*
X125987909Y-99669733D01*
X125987738Y-99682002D01*
X126003248Y-99866705D01*
X126005461Y-99878764D01*
X126056554Y-100056945D01*
X126061066Y-100068342D01*
X126121148Y-100185250D01*
X126130865Y-100195468D01*
X126137666Y-100193124D01*
X126489543Y-99841247D01*
X126551855Y-99807221D01*
X126622670Y-99812286D01*
X126651627Y-99827636D01*
X126730845Y-99883933D01*
X126738816Y-99889598D01*
X126861414Y-99933736D01*
X126918732Y-99975631D01*
X126944301Y-100041863D01*
X126930003Y-100111405D01*
X126907828Y-100141382D01*
X126502458Y-100546752D01*
X126495698Y-100559132D01*
X126500607Y-100565690D01*
X126589118Y-100615157D01*
X126600357Y-100620067D01*
X126776641Y-100677345D01*
X126788615Y-100679978D01*
X126972676Y-100701926D01*
X126984925Y-100702183D01*
X127169742Y-100687962D01*
X127181812Y-100685833D01*
X127329274Y-100644661D01*
X127400265Y-100645608D01*
X127459393Y-100684731D01*
X127460960Y-100687444D01*
X127465381Y-100692354D01*
X127501186Y-100732119D01*
X127588747Y-100829366D01*
X127743248Y-100941618D01*
X127749276Y-100944302D01*
X127749278Y-100944303D01*
X127911681Y-101016609D01*
X127917712Y-101019294D01*
X128011112Y-101039147D01*
X128098056Y-101057628D01*
X128098061Y-101057628D01*
X128104513Y-101059000D01*
X128295487Y-101059000D01*
X128301939Y-101057628D01*
X128301944Y-101057628D01*
X128388888Y-101039147D01*
X128482288Y-101019294D01*
X128488319Y-101016609D01*
X128650722Y-100944303D01*
X128650724Y-100944302D01*
X128656752Y-100941618D01*
X128811253Y-100829366D01*
X128897532Y-100733543D01*
X128934621Y-100692352D01*
X128934622Y-100692351D01*
X128939040Y-100687444D01*
X129034527Y-100522056D01*
X129039428Y-100506973D01*
X129079502Y-100448369D01*
X129144899Y-100420733D01*
X129214855Y-100432841D01*
X129235590Y-100446354D01*
X129235700Y-100446198D01*
X129423251Y-100577523D01*
X129428233Y-100579846D01*
X129428238Y-100579849D01*
X129625775Y-100671961D01*
X129630757Y-100674284D01*
X129636065Y-100675706D01*
X129636067Y-100675707D01*
X129846598Y-100732119D01*
X129846600Y-100732119D01*
X129851913Y-100733543D01*
X130080000Y-100753498D01*
X130308087Y-100733543D01*
X130313400Y-100732119D01*
X130313402Y-100732119D01*
X130523933Y-100675707D01*
X130523935Y-100675706D01*
X130529243Y-100674284D01*
X130534225Y-100671961D01*
X130731762Y-100579849D01*
X130731767Y-100579846D01*
X130736749Y-100577523D01*
X130841611Y-100504098D01*
X130919789Y-100449357D01*
X130919792Y-100449355D01*
X130924300Y-100446198D01*
X131086198Y-100284300D01*
X131217523Y-100096749D01*
X131219846Y-100091767D01*
X131219849Y-100091762D01*
X131311961Y-99894225D01*
X131311961Y-99894224D01*
X131314284Y-99889243D01*
X131337941Y-99800957D01*
X131372119Y-99673402D01*
X131372119Y-99673400D01*
X131373543Y-99668087D01*
X131393498Y-99440000D01*
X131373543Y-99211913D01*
X131314284Y-98990757D01*
X131311961Y-98985775D01*
X131219849Y-98788238D01*
X131219846Y-98788233D01*
X131217523Y-98783251D01*
X131086198Y-98595700D01*
X130924300Y-98433802D01*
X130919792Y-98430645D01*
X130919789Y-98430643D01*
X130841611Y-98375902D01*
X130736749Y-98302477D01*
X130731767Y-98300154D01*
X130731762Y-98300151D01*
X130534225Y-98208039D01*
X130534224Y-98208039D01*
X130529243Y-98205716D01*
X130523935Y-98204294D01*
X130523933Y-98204293D01*
X130313402Y-98147881D01*
X130313400Y-98147881D01*
X130308087Y-98146457D01*
X130080000Y-98126502D01*
X129851913Y-98146457D01*
X129846600Y-98147881D01*
X129846598Y-98147881D01*
X129636067Y-98204293D01*
X129636065Y-98204294D01*
X129630757Y-98205716D01*
X129625776Y-98208039D01*
X129625775Y-98208039D01*
X129428238Y-98300151D01*
X129428233Y-98300154D01*
X129423251Y-98302477D01*
X129318389Y-98375902D01*
X129240211Y-98430643D01*
X129240208Y-98430645D01*
X129235700Y-98433802D01*
X129073802Y-98595700D01*
X128942477Y-98783251D01*
X128940154Y-98788233D01*
X128940151Y-98788238D01*
X128848039Y-98985775D01*
X128845716Y-98990757D01*
X128786457Y-99211913D01*
X128785978Y-99217391D01*
X128785977Y-99217395D01*
X128784572Y-99233460D01*
X128758710Y-99299579D01*
X128701207Y-99341220D01*
X128630320Y-99345162D01*
X128607803Y-99337588D01*
X128488323Y-99284392D01*
X128488315Y-99284389D01*
X128482288Y-99281706D01*
X128383237Y-99260652D01*
X128301944Y-99243372D01*
X128301939Y-99243372D01*
X128295487Y-99242000D01*
X128104513Y-99242000D01*
X128098053Y-99243373D01*
X128098054Y-99243373D01*
X128016759Y-99260652D01*
X127945968Y-99255250D01*
X127889336Y-99212432D01*
X127879311Y-99196556D01*
X127878563Y-99195150D01*
X127868702Y-99185067D01*
X127861575Y-99187635D01*
X127773595Y-99275615D01*
X127711283Y-99309641D01*
X127640468Y-99304576D01*
X127583632Y-99262029D01*
X127558821Y-99195509D01*
X127558500Y-99186520D01*
X127558500Y-97839500D01*
X127578502Y-97771379D01*
X127632158Y-97724886D01*
X127684500Y-97713500D01*
X129145312Y-97713500D01*
X129163638Y-97713173D01*
X129164108Y-97713156D01*
X129164155Y-97713155D01*
X129168656Y-97712994D01*
X129172627Y-97712852D01*
X129173126Y-97712825D01*
X129173132Y-97712825D01*
X129185882Y-97712142D01*
X129185885Y-97712142D01*
X129190936Y-97711871D01*
X129232266Y-97702880D01*
X129259049Y-97700000D01*
X130911778Y-97700000D01*
X130929709Y-97701282D01*
G37*
%TD.AperFunction*%
%TD*%
%TA.AperFunction,Conductor*%
%TO.N,Net-(F3-Pad2)*%
G36*
X136742121Y-83620002D02*
G01*
X136788614Y-83673658D01*
X136800000Y-83726000D01*
X136800000Y-84895382D01*
X136779998Y-84963503D01*
X136726342Y-85009996D01*
X136653524Y-85019226D01*
X136653518Y-85019287D01*
X136653248Y-85019261D01*
X136651912Y-85019431D01*
X136643284Y-85017894D01*
X136569452Y-85016992D01*
X136425081Y-85015228D01*
X136425079Y-85015228D01*
X136419911Y-85015165D01*
X136199091Y-85048955D01*
X135986756Y-85118357D01*
X135788607Y-85221507D01*
X135784474Y-85224610D01*
X135784471Y-85224612D01*
X135760247Y-85242800D01*
X135609965Y-85355635D01*
X135455629Y-85517138D01*
X135348201Y-85674621D01*
X135293293Y-85719621D01*
X135222768Y-85727792D01*
X135159021Y-85696538D01*
X135138324Y-85672054D01*
X135057822Y-85547617D01*
X135057820Y-85547614D01*
X135055014Y-85543277D01*
X134904670Y-85378051D01*
X134900619Y-85374852D01*
X134900615Y-85374848D01*
X134733414Y-85242800D01*
X134733410Y-85242798D01*
X134729359Y-85239598D01*
X134693028Y-85219542D01*
X134634329Y-85187139D01*
X134533789Y-85131638D01*
X134528920Y-85129914D01*
X134528916Y-85129912D01*
X134328087Y-85058795D01*
X134328083Y-85058794D01*
X134323212Y-85057069D01*
X134318119Y-85056162D01*
X134318116Y-85056161D01*
X134108373Y-85018800D01*
X134108367Y-85018799D01*
X134103284Y-85017894D01*
X134029452Y-85016992D01*
X133885081Y-85015228D01*
X133885079Y-85015228D01*
X133879911Y-85015165D01*
X133659091Y-85048955D01*
X133446756Y-85118357D01*
X133248607Y-85221507D01*
X133244474Y-85224610D01*
X133244471Y-85224612D01*
X133220247Y-85242800D01*
X133069965Y-85355635D01*
X132915629Y-85517138D01*
X132808204Y-85674618D01*
X132807898Y-85675066D01*
X132752987Y-85720069D01*
X132682462Y-85728240D01*
X132618715Y-85696986D01*
X132598018Y-85672502D01*
X132517426Y-85547926D01*
X132511136Y-85539757D01*
X132367806Y-85382240D01*
X132360273Y-85375215D01*
X132193139Y-85243222D01*
X132184552Y-85237517D01*
X131998117Y-85134599D01*
X131988705Y-85130369D01*
X131787959Y-85059280D01*
X131777988Y-85056646D01*
X131706837Y-85043972D01*
X131693540Y-85045432D01*
X131689000Y-85059989D01*
X131689000Y-87693517D01*
X131693064Y-87707359D01*
X131706478Y-87709393D01*
X131713184Y-87708534D01*
X131723262Y-87706392D01*
X131927255Y-87645191D01*
X131936842Y-87641433D01*
X132128095Y-87547739D01*
X132136945Y-87542464D01*
X132310328Y-87418792D01*
X132318200Y-87412139D01*
X132469052Y-87261812D01*
X132475730Y-87253965D01*
X132603022Y-87076819D01*
X132604279Y-87077722D01*
X132651373Y-87034362D01*
X132721311Y-87022145D01*
X132786751Y-87049678D01*
X132814579Y-87081511D01*
X132874987Y-87180088D01*
X133021250Y-87348938D01*
X133193126Y-87491632D01*
X133386000Y-87604338D01*
X133594692Y-87684030D01*
X133599760Y-87685061D01*
X133599763Y-87685062D01*
X133694862Y-87704410D01*
X133813597Y-87728567D01*
X133818772Y-87728757D01*
X133818774Y-87728757D01*
X134031673Y-87736564D01*
X134031677Y-87736564D01*
X134036837Y-87736753D01*
X134041957Y-87736097D01*
X134041959Y-87736097D01*
X134253288Y-87709025D01*
X134253289Y-87709025D01*
X134258416Y-87708368D01*
X134263366Y-87706883D01*
X134467429Y-87645661D01*
X134467434Y-87645659D01*
X134472384Y-87644174D01*
X134672994Y-87545896D01*
X134854860Y-87416173D01*
X134865887Y-87405185D01*
X135009435Y-87262137D01*
X135013096Y-87258489D01*
X135052168Y-87204115D01*
X135143453Y-87077077D01*
X135144776Y-87078028D01*
X135191645Y-87034857D01*
X135261580Y-87022625D01*
X135327026Y-87050144D01*
X135354875Y-87081994D01*
X135414987Y-87180088D01*
X135561250Y-87348938D01*
X135733126Y-87491632D01*
X135926000Y-87604338D01*
X136134692Y-87684030D01*
X136139760Y-87685061D01*
X136139763Y-87685062D01*
X136234862Y-87704410D01*
X136353597Y-87728567D01*
X136358772Y-87728757D01*
X136358774Y-87728757D01*
X136571673Y-87736564D01*
X136571677Y-87736564D01*
X136576837Y-87736753D01*
X136581957Y-87736097D01*
X136581959Y-87736097D01*
X136657990Y-87726357D01*
X136728100Y-87737541D01*
X136781034Y-87784855D01*
X136800000Y-87851336D01*
X136800000Y-97074000D01*
X136779998Y-97142121D01*
X136726342Y-97188614D01*
X136674000Y-97200000D01*
X131014688Y-97200000D01*
X130946567Y-97179998D01*
X130900074Y-97126342D01*
X130889970Y-97056068D01*
X130919464Y-96991488D01*
X130925593Y-96984905D01*
X131086198Y-96824300D01*
X131217523Y-96636749D01*
X131219846Y-96631767D01*
X131219849Y-96631762D01*
X131311961Y-96434225D01*
X131311961Y-96434224D01*
X131314284Y-96429243D01*
X131373543Y-96208087D01*
X131393498Y-95980000D01*
X131373543Y-95751913D01*
X131356014Y-95686494D01*
X131315707Y-95536067D01*
X131315706Y-95536065D01*
X131314284Y-95530757D01*
X131294049Y-95487362D01*
X131219849Y-95328238D01*
X131219846Y-95328233D01*
X131217523Y-95323251D01*
X131124169Y-95189928D01*
X131089357Y-95140211D01*
X131089355Y-95140208D01*
X131086198Y-95135700D01*
X130924300Y-94973802D01*
X130919792Y-94970645D01*
X130919789Y-94970643D01*
X130841611Y-94915902D01*
X130736749Y-94842477D01*
X130731767Y-94840154D01*
X130731762Y-94840151D01*
X130534225Y-94748039D01*
X130534224Y-94748039D01*
X130529243Y-94745716D01*
X130523935Y-94744294D01*
X130523933Y-94744293D01*
X130313402Y-94687881D01*
X130313400Y-94687881D01*
X130308087Y-94686457D01*
X130080000Y-94666502D01*
X129851913Y-94686457D01*
X129846600Y-94687881D01*
X129846598Y-94687881D01*
X129636067Y-94744293D01*
X129636065Y-94744294D01*
X129630757Y-94745716D01*
X129625776Y-94748039D01*
X129625775Y-94748039D01*
X129428238Y-94840151D01*
X129428233Y-94840154D01*
X129423251Y-94842477D01*
X129318389Y-94915902D01*
X129240211Y-94970643D01*
X129240208Y-94970645D01*
X129235700Y-94973802D01*
X129073802Y-95135700D01*
X129070645Y-95140208D01*
X129070643Y-95140211D01*
X129035831Y-95189928D01*
X128942477Y-95323251D01*
X128940154Y-95328233D01*
X128940151Y-95328238D01*
X128865951Y-95487362D01*
X128845716Y-95530757D01*
X128844294Y-95536065D01*
X128844293Y-95536067D01*
X128803986Y-95686494D01*
X128786457Y-95751913D01*
X128766502Y-95980000D01*
X128786457Y-96208087D01*
X128845716Y-96429243D01*
X128848039Y-96434224D01*
X128848039Y-96434225D01*
X128940151Y-96631762D01*
X128940154Y-96631767D01*
X128942477Y-96636749D01*
X129073802Y-96824300D01*
X129234407Y-96984905D01*
X129268433Y-97047217D01*
X129263368Y-97118032D01*
X129220821Y-97174868D01*
X129154301Y-97199679D01*
X129145312Y-97200000D01*
X127684500Y-97200000D01*
X127616379Y-97179998D01*
X127569886Y-97126342D01*
X127558500Y-97074000D01*
X127558500Y-96193480D01*
X127578502Y-96125359D01*
X127632158Y-96078866D01*
X127702432Y-96068762D01*
X127767012Y-96098256D01*
X127773595Y-96104385D01*
X127856661Y-96187451D01*
X127869041Y-96194211D01*
X127875775Y-96189170D01*
X127922262Y-96107337D01*
X127927256Y-96096121D01*
X127985759Y-95920253D01*
X127988479Y-95908281D01*
X128012039Y-95721784D01*
X128012531Y-95714757D01*
X128012828Y-95693523D01*
X128012533Y-95686494D01*
X127994188Y-95499397D01*
X127991805Y-95487362D01*
X127938233Y-95309924D01*
X127933559Y-95298584D01*
X127878562Y-95195148D01*
X127868702Y-95185067D01*
X127861575Y-95187635D01*
X127510457Y-95538753D01*
X127448145Y-95572779D01*
X127377330Y-95567714D01*
X127348373Y-95552364D01*
X127268186Y-95495378D01*
X127261184Y-95490402D01*
X127138586Y-95446264D01*
X127081268Y-95404369D01*
X127055699Y-95338137D01*
X127069997Y-95268595D01*
X127092172Y-95238618D01*
X127497834Y-94832956D01*
X127504594Y-94820576D01*
X127499935Y-94814353D01*
X127397924Y-94759196D01*
X127386619Y-94754444D01*
X127209554Y-94699633D01*
X127197541Y-94697167D01*
X127013199Y-94677792D01*
X127000931Y-94677707D01*
X126816345Y-94694505D01*
X126804296Y-94696803D01*
X126626483Y-94749137D01*
X126615108Y-94753732D01*
X126504969Y-94811312D01*
X126494820Y-94821101D01*
X126497274Y-94828064D01*
X126908265Y-95239055D01*
X126942291Y-95301367D01*
X126937226Y-95372182D01*
X126894679Y-95429018D01*
X126844075Y-95451664D01*
X126814601Y-95457607D01*
X126806946Y-95461507D01*
X126806947Y-95461507D01*
X126685913Y-95523176D01*
X126685910Y-95523178D01*
X126678260Y-95527076D01*
X126671937Y-95532890D01*
X126671933Y-95532893D01*
X126662806Y-95541286D01*
X126599124Y-95572673D01*
X126528583Y-95564648D01*
X126488424Y-95537634D01*
X126143121Y-95192331D01*
X126116939Y-95178034D01*
X126073715Y-95168632D01*
X126023512Y-95118430D01*
X126008788Y-95044873D01*
X126012814Y-95006565D01*
X126013504Y-95000000D01*
X126010751Y-94973802D01*
X125994232Y-94816635D01*
X125994232Y-94816633D01*
X125993542Y-94810072D01*
X125934527Y-94628444D01*
X125839040Y-94463056D01*
X125711253Y-94321134D01*
X125556752Y-94208882D01*
X125550724Y-94206198D01*
X125550722Y-94206197D01*
X125388319Y-94133891D01*
X125388318Y-94133891D01*
X125382288Y-94131206D01*
X125319874Y-94117940D01*
X125299803Y-94113673D01*
X125237329Y-94079944D01*
X125203008Y-94017795D01*
X125200000Y-93990426D01*
X125200000Y-92571376D01*
X125220002Y-92503255D01*
X125236076Y-92483117D01*
X129476751Y-88162429D01*
X129476754Y-88162426D01*
X129479434Y-88159695D01*
X129544587Y-88074768D01*
X129554628Y-88063209D01*
X130280144Y-87324005D01*
X130342135Y-87289399D01*
X130412995Y-87293802D01*
X130465306Y-87329768D01*
X130478212Y-87344668D01*
X130485579Y-87351881D01*
X130649434Y-87487916D01*
X130657881Y-87493831D01*
X130841756Y-87601279D01*
X130851042Y-87605729D01*
X131050001Y-87681703D01*
X131059899Y-87684579D01*
X131163250Y-87705606D01*
X131177299Y-87704410D01*
X131181000Y-87694065D01*
X131181000Y-85058102D01*
X131177082Y-85044758D01*
X131162806Y-85042771D01*
X131124324Y-85048660D01*
X131114288Y-85051051D01*
X130911868Y-85117212D01*
X130902359Y-85121209D01*
X130713463Y-85219542D01*
X130704742Y-85225034D01*
X130701656Y-85227351D01*
X130635172Y-85252259D01*
X130565776Y-85237268D01*
X130515501Y-85187139D01*
X130500000Y-85126593D01*
X130500000Y-83726000D01*
X130520002Y-83657879D01*
X130573658Y-83611386D01*
X130626000Y-83600000D01*
X136674000Y-83600000D01*
X136742121Y-83620002D01*
G37*
%TD.AperFunction*%
%TD*%
M02*
