<svg id="Capa_1" enable-background="new 0 0 512 512" height="512" viewBox="0 0 512 512" width="512" xmlns="http://www.w3.org/2000/svg"><g><path fill="white" d="m511.14 395.752-16.489-46.756c-2.756-7.813-11.323-11.914-19.135-9.157-7.814 2.755-11.913 11.321-9.158 19.134l6.228 17.658-66.656-22.654 13.781-18.554c48.029-64.649 63.703-149.494 41.93-226.947-10.679-38.119-37.968-82.522-74.861-95.792-41.114-14.788-84.231 13.345-101.4 64.158-9.761 28.911-13.688 63.249-11.7 102.184-26.446 14.305-67.419 40.354-88.904 54.357-8.305-15.044-16.832-29.721-25.106-44.651 31.146-25.192 66.025-56.093 76.005-96.36 4.726-19.069.604-38.788-11.608-55.525-19.839-27.194-55.999-41.01-86.229-35.743-47.09 8.202-58.657 57.717-46.495 104.549 7.359 28.341 19.259 54.318 30.102 75.315-17.152 13.882-35.405 27.358-55.504 40.978-6.798-4.899-15.051-7.783-23.947-7.783-23.156 0-41.994 19.479-41.994 43.422s18.838 43.422 41.994 43.422c23.155 0 41.993-19.479 41.993-43.422 0-3.71-.454-7.312-1.305-10.752 19.142-12.969 36.704-25.832 53.265-39.035 7.966 14.255 16.016 28.151 23.83 42.383-20.051 13.882-40.19 28.812-60.017 44.497-13.316 10.526-32.727 26.909-47.506 47.566-15.938 22.275-21.887 51.942-16.32 81.396 5.636 29.818 22.137 55.541 45.273 70.573 68.31 44.38 124.745.841 142.99-78.964 7.672-33.557 7.364-68.389-.844-95.563-5.678-18.798-13.365-37.597-24.468-59.682 8.72-5.717 52.559-33.923 77.559-48.188 2.665 21.904 7.582 42.692 19.249 57.579 27.279 34.818 77.401 19.868 90.167-20.6 9.818-31.145-4.307-66.876-32.155-81.343-15.446-8.029-32.747-8.915-50.492-2.681-.457-29.838 3.089-56.112 10.59-78.329 13.878-41.068 43.019-52.654 62.823-45.53 25.503 9.173 47.54 45.003 56.13 75.668 19.28 68.585 5.4 143.708-37.128 200.954l-19.63 26.428-95.267-30.915c-12.258-3.979-23.495 8.393-18.405 20.204 16.706 38.756 8.425 129.79 3.825 161.593-2.239 15.443 17.692 23.473 26.886 11.096l94.101-126.667 77.948 26.491-13.904 10.31c-6.654 4.934-8.049 14.328-3.114 20.982 4.934 6.656 14.329 8.048 20.984 3.115.369-.273 36.569-27.113 36.935-27.39 5.335-3.989 7.313-10.959 5.153-17.029zm-469.146-124.744c-6.613 0-11.993-6.021-11.993-13.423s5.38-13.423 11.993-13.423c6.663 0 11.992 6.133 11.992 13.423 0 7.401-5.38 13.423-11.992 13.423zm103.321-109.275c-9.272-18.457-18.896-40.363-24.935-63.62-8.252-31.776-4.568-68.022 30.353-68.022 31.472 0 62.894 26.53 55.822 55.067-7.265 29.31-34.923 54.988-61.24 76.575zm49.635 246.829c-6.684 29.233-19.541 52.775-35.277 64.588-17.425 13.081-37.746 11.743-62.123-4.094-33.853-21.994-44.656-76.153-20.899-109.357 9.566-13.37 22.821-26.553 41.717-41.491 18.33-14.5 36.921-28.331 55.444-41.25 9.371 18.988 15.951 35.282 20.82 51.401 6.649 22.01 6.767 51.992.318 80.203zm144.92-214.49c14.805 7.691 22.762 28.621 17.378 45.701-5.474 17.349-25.708 26.738-37.942 11.12-9.074-11.58-12.394-33.123-14.282-54.271 11.572-5.632 23.024-8.696 34.846-2.55zm-38.709 250.627c1.761-29.207 2.111-65.112-3.141-94.501l59.098 19.178z"/></g></svg>