<?xml version="1.0" encoding="iso-8859-1"?>
<!-- Generator: Adobe Illustrator 19.0.0, SVG Export Plug-In . SVG Version: 6.00 Build 0)  -->
<svg version="1.1" id="Capa_1" xmlns="http://www.w3.org/2000/svg" xmlns:xlink="http://www.w3.org/1999/xlink" x="0px" y="0px"
	 viewBox="0 0 512 512" xml:space="preserve">
<g>
	<g>
		<path fill="white" d="M334,196h-17v-17c0-33.084-26.916-60-60-60h-77c-33.084,0-60,26.916-60,60v77c0,33.084,26.916,60,60,60h17v17
			c0,33.084,26.916,60,60,60h77c33.084,0,60-26.916,60-60v-77C394,222.916,367.084,196,334,196z M197,256v20h-17
			c-11.028,0-20-8.972-20-20v-77c0-11.028,8.972-20,20-20h77c11.028,0,20,8.972,20,20v17h-20C223.916,196,197,222.916,197,256z
			 M277,236v20c0,11.028-8.972,20-20,20h-20v-20c0-11.028,8.972-20,20-20H277z M354,333c0,11.028-8.972,20-20,20h-77
			c-11.028,0-20-8.972-20-20v-17h20c33.084,0,60-26.916,60-60v-20h17c11.028,0,20,8.972,20,20V333z"/>
	</g>
</g>
<g>
	<g>
		<circle fill="white" cx="333" cy="60" r="20"/>
	</g>
</g>
<g>
	<g>
		<path fill="white" d="M100,0H20C8.954,0,0,8.954,0,20v80c0,11.046,8.954,20,20,20h80c11.046,0,20-8.954,20-20V20C120,8.954,111.046,0,100,0z
			 M80,80H40V40h40V80z"/>
	</g>
</g>
<g>
	<g>
		<path fill="white" d="M492,0h-80c-11.046,0-20,8.954-20,20v80c0,11.046,8.954,20,20,20h80c11.046,0,20-8.954,20-20V20
			C512,8.954,503.046,0,492,0z M472,80h-40V40h40V80z"/>
	</g>
</g>
<g>
	<g>
		<circle fill="white" cx="255" cy="60" r="20"/>
	</g>
</g>
<g>
	<g>
		<circle fill="white" cx="177" cy="60" r="20"/>
	</g>
</g>
<g>
	<g>
		<circle fill="white" cx="333" cy="452" r="20"/>
	</g>
</g>
<g>
	<g>
		<path fill="white" d="M100,392H20c-11.046,0-20,8.954-20,20v80c0,11.046,8.954,20,20,20h80c11.046,0,20-8.954,20-20v-80
			C120,400.954,111.046,392,100,392z M80,472H40v-40h40V472z"/>
	</g>
</g>
<g>
	<g>
		<path fill="white" d="M492,392h-80c-11.046,0-20,8.954-20,20v80c0,11.046,8.954,20,20,20h80c11.046,0,20-8.954,20-20v-80
			C512,400.954,503.046,392,492,392z M472,472h-40v-40h40V472z"/>
	</g>
</g>
<g>
	<g>
		<circle fill="white" cx="255" cy="452" r="20"/>
	</g>
</g>
<g>
	<g>
		<circle fill="white" cx="177" cy="452" r="20"/>
	</g>
</g>
<g>
	<g>
		<circle fill="white" cx="452" cy="336" r="20"/>
	</g>
</g>
<g>
	<g>
		<circle fill="white" cx="452" cy="258" r="20"/>
	</g>
</g>
<g>
	<g>
		<circle fill="white" cx="452" cy="177" r="20"/>
	</g>
</g>
<g>
	<g>
		<circle fill="white" cx="60" cy="336" r="20"/>
	</g>
</g>
<g>
	<g>
		<circle fill="white" cx="60" cy="258" r="20"/>
	</g>
</g>
<g>
	<g>
		<circle fill="white" cx="60" cy="177" r="20"/>
	</g>
</g>
</svg>
