<?xml version="1.0" encoding="iso-8859-1"?>
<!-- Generator: Adobe Illustrator 19.0.0, SVG Export Plug-In . SVG Version: 6.00 Build 0)  -->
<svg version="1.1" id="Capa_1" xmlns="http://www.w3.org/2000/svg" xmlns:xlink="http://www.w3.org/1999/xlink" x="0px" y="0px"
	 viewBox="0 0 512 512" style="enable-background:new 0 0 512 512;" xml:space="preserve">
<g>
	<g>
		<path fill="white" d="M452,332c11.046,0,20-8.954,20-20v-56h20c11.046,0,20-8.954,20-20v-80c0-11.046-8.954-20-20-20h-80
			c-11.046,0-20,8.954-20,20v20h-51v-56h20c11.046,0,20-8.954,20-20V20c0-11.046-8.954-20-20-20h-80c-11.046,0-20,8.954-20,20v20
			H120V20c0-11.046-8.954-20-20-20H20C8.954,0,0,8.954,0,20v80c0,11.046,8.954,20,20,20h18v146H20c-11.046,0-20,8.954-20,20v80
			c0,11.046,8.954,20,20,20h80c11.046,0,20-8.954,20-20v-20h50v46h-18c-11.046,0-20,8.954-20,20v80c0,11.046,8.954,20,20,20h80
			c11.046,0,20-8.954,20-20v-20h140v20c0,11.046,8.954,20,20,20h80c11.046,0,20-8.954,20-20v-80c0-11.046-8.954-20-20-20h-80
			c-11.046,0-20,8.954-20,20v20H252v-20c0-11.046-8.954-20-20-20h-22V256h22c11.046,0,20-8.954,20-20v-20h140v20
			c0,11.046,8.954,20,20,20h20v56C432,323.046,440.954,332,452,332z M432,432h40v40h-40V432z M40,40h40v40H40V40z M80,346H40v-40h40
			V346z M212,432v40h-40v-40H212z M212,216h-40v-40h40V216z M301,176h-49v-20c0-11.046-8.954-20-20-20h-80c-11.046,0-20,8.954-20,20
			v80c0,11.046,8.954,20,20,20h18v50h-50v-20c0-11.046-8.954-20-20-20H78V120h22c11.046,0,20-8.954,20-20V80h141v20
			c0,11.046,8.954,20,20,20h20V176z M301,40h40v40h-40V40z M432,176h40v40h-40V176z"/>
	</g>
</g>
</svg>
