<?xml version="1.0" encoding="UTF-8" standalone="no"?>
<svg
   version="1.1"
   id="Capa_1"
   x="0px"
   y="0px"
   viewBox="0 0 512 512"
   style="enable-background:new 0 0 512 512;"
   xml:space="preserve"
   sodipodi:docname="011-height copy.svg"
   inkscape:version="1.1-dev (9017afb, 2021-01-01)"
   xmlns:inkscape="http://www.inkscape.org/namespaces/inkscape"
   xmlns:sodipodi="http://sodipodi.sourceforge.net/DTD/sodipodi-0.dtd"
   xmlns="http://www.w3.org/2000/svg"
   xmlns:svg="http://www.w3.org/2000/svg"><defs
   id="defs881" /><sodipodi:namedview
   id="namedview879"
   pagecolor="#ffffff"
   bordercolor="#111111"
   borderopacity="1"
   objecttolerance="10.0"
   gridtolerance="10.0"
   guidetolerance="10.0"
   inkscape:pageshadow="0"
   inkscape:pageopacity="0"
   inkscape:pagecheckerboard="1"
   showgrid="false"
   inkscape:zoom="1.28125"
   inkscape:cx="256"
   inkscape:cy="256"
   inkscape:window-width="1680"
   inkscape:window-height="928"
   inkscape:window-x="0"
   inkscape:window-y="25"
   inkscape:window-maximized="1"
   inkscape:current-layer="g838" />
<g
   id="g828"
   transform="translate(0,472)">
	<g
   id="g826">
		<path
   d="M 381,0 H 131 c -11.046,0 -20,8.954 -20,20 0,11.046 8.954,20 20,20 h 250 c 11.046,0 20,-8.954 20,-20 C 401,8.954 392.046,0 381,0 Z"
   id="path824" />
	</g>
</g>

<g
   id="g840"
   transform="matrix(1,0,0,-1,-1.0001885,501.97561)">
	<g
   id="g838">
		<path
   d="M 361.2,119.916 299.547,57.754 C 288.191,46.305 273.081,40 257,40 240.919,40 225.809,46.305 214.453,57.754 L 152.8,119.916 c -7.778,7.842 -7.727,20.506 0.116,28.284 7.844,7.779 20.506,7.726 28.284,-0.116 L 236,92.833 V 481 c 0,11.046 8.954,20 20,20 11.046,0 20,-8.954 20,-20 V 90.816 l 56.8,57.268 c 3.911,3.943 9.054,5.917 14.201,5.916 5.09,0 10.184,-1.932 14.083,-5.8 7.843,-7.778 7.895,-20.442 0.116,-28.284 z"
   id="path836"
   sodipodi:nodetypes="ccsccsscsssccccc" />
	</g>
</g>

<g
   id="g848">
</g>
<g
   id="g850">
</g>
<g
   id="g852">
</g>
<g
   id="g854">
</g>
<g
   id="g856">
</g>
<g
   id="g858">
</g>
<g
   id="g860">
</g>
<g
   id="g862">
</g>
<g
   id="g864">
</g>
<g
   id="g866">
</g>
<g
   id="g868">
</g>
<g
   id="g870">
</g>
<g
   id="g872">
</g>
<g
   id="g874">
</g>
<g
   id="g876">
</g>
</svg>
