<?xml version="1.0" encoding="iso-8859-1"?>
<!-- Generator: Adobe Illustrator 19.0.0, SVG Export Plug-In . SVG Version: 6.00 Build 0)  -->
<svg version="1.1" id="Capa_1" xmlns="http://www.w3.org/2000/svg" xmlns:xlink="http://www.w3.org/1999/xlink" x="0px" y="0px"
	 viewBox="0 0 512 512" style="enable-background:new 0 0 512 512;" xml:space="preserve">
<g>
	<g>
		<path d="M381,0H131c-11.046,0-20,8.954-20,20s8.954,20,20,20h250c11.046,0,20-8.954,20-20S392.046,0,381,0z"/>
	</g>
</g>
<g>
	<g>
		<path d="M381,472H131c-11.046,0-20,8.954-20,20c0,11.046,8.954,20,20,20h250c11.046,0,20-8.954,20-20
			C401,480.954,392.046,472,381,472z"/>
	</g>
</g>
<g>
	<g>
		<path d="M361.2,119.916l-61.653-62.162C288.191,46.305,273.081,40,257,40s-31.191,6.305-42.547,17.754L152.8,119.916
			c-7.778,7.842-7.727,20.506,0.116,28.284c7.844,7.779,20.506,7.726,28.284-0.116L236,92.833V353c0,11.046,8.954,20,20,20
			s20-8.954,20-20V90.816l56.8,57.268c3.911,3.943,9.054,5.917,14.201,5.916c5.09,0,10.184-1.932,14.083-5.8
			C368.927,140.422,368.979,127.758,361.2,119.916z"/>
	</g>
</g>
<g>
	<g>
		<path d="M361.084,363.8c-7.844-7.778-20.506-7.726-28.284,0.116l-61.653,62.162C267.358,429.897,262.335,432,257,432
			c-5.335,0-10.358-2.103-14.146-5.922L181.2,363.916c-7.778-7.841-20.44-7.895-28.284-0.116
			c-7.843,7.778-7.895,20.442-0.116,28.284l61.653,62.162C225.809,465.695,240.919,472,257,472s31.191-6.305,42.547-17.754
			l61.653-62.162C368.978,384.242,368.927,371.578,361.084,363.8z"/>
	</g>
</g>
<g>
</g>
<g>
</g>
<g>
</g>
<g>
</g>
<g>
</g>
<g>
</g>
<g>
</g>
<g>
</g>
<g>
</g>
<g>
</g>
<g>
</g>
<g>
</g>
<g>
</g>
<g>
</g>
<g>
</g>
</svg>
