<?xml version="1.0" encoding="iso-8859-1"?>
<!-- Generator: Adobe Illustrator 19.0.0, SVG Export Plug-In . SVG Version: 6.00 Build 0)  -->
<svg version="1.1" id="Capa_1" xmlns="http://www.w3.org/2000/svg" xmlns:xlink="http://www.w3.org/1999/xlink" x="0px" y="0px"
	 viewBox="0 0 512 512" style="enable-background:new 0 0 512 512;" xml:space="preserve">
<g>
	<g>
		<path d="M492,352c11.046,0,20-8.954,20-20V210c0-46.87-32.412-86.312-76-97.089V20c0-11.046-8.954-20-20-20h-80
			c-1.727,0-3.402,0.219-5,0.63C329.402,0.219,327.727,0,326,0h-30c-11.046,0-20,8.954-20,20s8.954,20,20,20h20v72.911
			c-43.588,10.777-76,50.219-76,97.089v222c0,44.112,35.888,80,80,80h112c44.112,0,80-35.888,80-80c0-11.046-8.954-20-20-20
			c-11.046,0-20,8.954-20,20c0,22.056-17.944,40-40,40H320c-22.056,0-40-17.944-40-40V210c0-33.084,26.916-60,60-60h72
			c33.084,0,60,26.916,60,60v122C472,343.046,480.954,352,492,352z M396,110h-40V40h40V110z"/>
	</g>
</g>
<g>
	<g>
		<circle cx="70" cy="70" r="20"/>
	</g>
</g>
<g>
	<g>
		<circle cx="120" cy="120" r="20"/>
	</g>
</g>
<g>
	<g>
		<circle cx="120" cy="20" r="20"/>
	</g>
</g>
<g>
	<g>
		<circle cx="20" cy="120" r="20"/>
	</g>
</g>
<g>
	<g>
		<circle cx="70" cy="170" r="20"/>
	</g>
</g>
<g>
	<g>
		<circle cx="20" cy="220" r="20"/>
	</g>
</g>
<g>
	<g>
		<circle cx="20" cy="20" r="20"/>
	</g>
</g>
<g>
	<g>
		<circle cx="220" cy="20" r="20"/>
	</g>
</g>
<g>
	<g>
		<circle cx="170" cy="70" r="20"/>
	</g>
</g>
<g>
</g>
<g>
</g>
<g>
</g>
<g>
</g>
<g>
</g>
<g>
</g>
<g>
</g>
<g>
</g>
<g>
</g>
<g>
</g>
<g>
</g>
<g>
</g>
<g>
</g>
<g>
</g>
<g>
</g>
</svg>
