<?xml version="1.0" encoding="iso-8859-1"?>
<!-- Generator: Adobe Illustrator 19.0.0, SVG Export Plug-In . SVG Version: 6.00 Build 0)  -->
<svg version="1.1" id="Capa_1" xmlns="http://www.w3.org/2000/svg" xmlns:xlink="http://www.w3.org/1999/xlink" x="0px" y="0px"
	 viewBox="0 0 512 512" style="enable-background:new 0 0 512 512;" xml:space="preserve">
<g>
	<g>
		<path fill="white" d="M506.257,23.511c-8.018-14.384-23.227-23.32-39.695-23.32H359.433c-22.122,0-42.214,11.971-52.752,31.332l-73.08,107.648
			l-32.818-26.422c-8.613-6.935-21.219-5.575-28.155,3.04c-6.935,8.614-5.575,21.22,3.04,28.155l35.41,28.509L3.419,480.593
			c-5.1,7.568-4.438,17.627,1.61,24.461c3.901,4.407,9.404,6.755,15.003,6.755c3.082,0,6.193-0.712,9.081-2.183l267.322-136.164
			c6.71-3.418,10.935-10.312,10.935-17.843V249.979l63.535,51.153c3.701,2.98,8.137,4.427,12.545,4.427
			c5.852,0,11.654-2.554,15.609-7.467c6.935-8.614,5.575-21.22-3.04-28.155l-23.899-19.242l70.918-96.474
			c6.55-8.911,4.637-21.444-4.274-27.994c-8.91-6.551-21.443-4.636-27.994,4.274l-69.874,95.055L264.9,164.368l75.522-111.245
			c0.448-0.66,0.855-1.346,1.221-2.054c3.453-6.681,10.269-10.831,17.789-10.831h107.129c2.62,0,4.009,1.506,4.713,2.768
			c0.704,1.264,1.254,3.237-0.124,5.465c-5.817,9.405-2.907,21.746,6.498,27.562c9.405,5.817,21.746,2.909,27.562-6.498
			C513.873,55.532,514.274,37.895,506.257,23.511z M267.391,217.79c-0.045,0.549-0.069,1.104-0.069,1.665v123.891l-187.47,95.491
			l162.534-241.18L267.391,217.79z"/>
	</g>
</g>
</svg>
