<?xml version="1.0" encoding="iso-8859-1"?>
<!-- Generator: Adobe Illustrator 19.0.0, SVG Export Plug-In . SVG Version: 6.00 Build 0)  -->
<svg version="1.1" id="Capa_1" xmlns="http://www.w3.org/2000/svg" xmlns:xlink="http://www.w3.org/1999/xlink" x="0px" y="0px"
	 viewBox="0 0 512 512" style="enable-background:new 0 0 512 512;" xml:space="preserve">
<g>
	<g>
		<path d="M492.039,361.793c11.024,0,19.961-8.937,19.961-19.961v-21.957c0-38.523-31.341-69.864-69.864-69.864h-10.979v-88.827
			c0-44.026-35.818-79.844-79.844-79.844h-89.825V70.363c0-38.523-31.341-69.864-69.864-69.864H69.864
			C31.341,0.499,0,31.84,0,70.363v121.762c0,38.523,31.341,69.864,69.864,69.864H81.84v88.827c0,44.026,35.818,79.844,79.844,79.844
			h88.827v10.979c0,38.523,31.341,69.864,69.864,69.864h121.762c38.523,0,69.864-31.341,69.864-69.864
			c0-11.024-8.937-19.961-19.961-19.961s-19.961,8.937-19.961,19.961c0,16.51-13.432,29.942-29.942,29.942H320.374
			c-16.51,0-29.942-13.432-29.942-29.942V319.875c0-16.51,13.432-29.942,29.942-29.942h121.762c16.51,0,29.942,13.432,29.942,29.942
			v21.957C472.078,352.857,481.015,361.793,492.039,361.793z M261.489,121.263h44.629l-44.629,44.629V121.263z M69.864,222.066
			c-16.51,0-29.941-13.432-29.941-29.942V70.363c0-16.51,13.432-29.941,29.941-29.941h121.762c16.51,0,29.942,13.432,29.942,29.941
			v121.762c0,16.51-13.432,29.942-29.942,29.942H69.864z M121.762,261.988h43.631l-43.631,43.631V261.988z M250.511,390.737H206.88
			l43.631-43.631V390.737z M151.689,389.469c-13.996-3.621-25.038-14.662-28.66-28.659l238.281-238.28
			c13.997,3.621,25.038,14.663,28.66,28.66L151.689,389.469z M391.236,250.012h-43.631l43.631-43.631V250.012z"/>
	</g>
</g>
<g>
</g>
<g>
</g>
<g>
</g>
<g>
</g>
<g>
</g>
<g>
</g>
<g>
</g>
<g>
</g>
<g>
</g>
<g>
</g>
<g>
</g>
<g>
</g>
<g>
</g>
<g>
</g>
<g>
</g>
</svg>
