<?xml version="1.0" encoding="iso-8859-1"?>
<!-- Generator: Adobe Illustrator 19.0.0, SVG Export Plug-In . SVG Version: 6.00 Build 0)  -->
<svg version="1.1" id="Capa_1" xmlns="http://www.w3.org/2000/svg" xmlns:xlink="http://www.w3.org/1999/xlink" x="0px" y="0px"
	 viewBox="0 0 512 512" style="enable-background:new 0 0 512 512;" xml:space="preserve">
<g>
	<g>
		<path d="M452,471.5H60c-11.046,0-20,8.954-20,20c0,11.046,8.954,20,20,20h392c11.046,0,20-8.954,20-20
			C472,480.454,463.046,471.5,452,471.5z"/>
	</g>
</g>
<g>
	<g>
		<path d="M492.698,310.901c-12.448-14.498-29.705-24.074-48.594-26.966l-111.13-17.009c-9.835-1.506-16.974-9.82-16.974-19.77
			c0-29.482,8.8-57.365,25.449-80.635c12.375-17.3,19.129-37.704,19.531-59.007C362.07,49.88,316.108,1.887,258.525,0.529
			c-28.539-0.658-55.49,9.928-75.886,29.85C162.236,50.306,151,76.985,151,105.5c0,21.785,6.617,42.683,19.138,60.437
			c16.92,23.994,25.863,52.08,25.863,81.22c0,9.95-7.139,18.264-16.974,19.77L67.896,283.936
			c-18.888,2.891-36.146,12.467-48.593,26.965C6.855,325.399,0,343.907,0,363.015V381.5c0,27.57,22.43,50,50,50h312
			c11.046,0,20-8.955,20-20c0-11.046-8.954-20-20-20H50c-5.514,0-10-4.486-10-10v-18.485c0-19.9,14.277-36.529,33.948-39.54
			l111.13-17.009c14.166-2.169,27.109-9.351,36.445-20.225C230.858,275.367,236,261.486,236,247.154
			c0-37.437-11.472-73.493-33.174-104.27C195.09,131.914,191,118.986,191,105.5c0-17.653,6.956-34.168,19.587-46.506
			c12.626-12.331,29.327-18.905,46.994-18.476c35.636,0.84,64.081,30.555,63.407,66.24c-0.249,13.179-4.424,25.797-12.071,36.488
			C287.383,173.345,276,209.277,276,247.156c0,14.331,5.142,28.212,14.477,39.086c9.336,10.873,22.279,18.056,36.445,20.224
			l111.13,17.009c19.671,3.011,33.948,19.64,33.948,39.54V381.5c0,5.514-4.486,10-10,10c-11.046,0-20,8.954-20,20
			c0,11.045,8.954,20,20,20c27.57,0,50-22.43,50-50v-18.485C512,343.906,505.145,325.399,492.698,310.901z"/>
	</g>
</g>
<g>
</g>
<g>
</g>
<g>
</g>
<g>
</g>
<g>
</g>
<g>
</g>
<g>
</g>
<g>
</g>
<g>
</g>
<g>
</g>
<g>
</g>
<g>
</g>
<g>
</g>
<g>
</g>
<g>
</g>
</svg>
