<?xml version="1.0" encoding="iso-8859-1"?>
<!-- Generator: Adobe Illustrator 19.0.0, SVG Export Plug-In . SVG Version: 6.00 Build 0)  -->
<svg version="1.1" id="Capa_1" xmlns="http://www.w3.org/2000/svg" xmlns:xlink="http://www.w3.org/1999/xlink" x="0px" y="0px"
	 viewBox="0 0 512 512" style="enable-background:new 0 0 512 512;" xml:space="preserve">
<g>
	<g>
		<path d="M487.276,11.472c-12.963-9.419-28.82-13.227-44.645-10.721c-15.646,2.477-29.413,10.831-38.827,23.546L218.9,253.643
			c-6.162-1.025-12.436-1.568-18.777-1.61c-32.135-0.255-63.123,12.294-87.262,35.214c-22.236,21.114-31.59,47.784-39.842,71.314
			c-11.732,33.45-20.998,59.87-60.339,75.38c-6.715,2.648-11.482,8.709-12.473,15.859c-0.991,7.15,1.949,14.279,7.691,18.654
			C10.232,470.232,65.874,512,135.748,512c49.847,0,102.351-6.374,148.624-52.61c22.96-22.942,35.604-53.446,35.604-85.893
			c0-15.492-2.883-30.54-8.394-44.535l47.284-57.904c1.147-1.405,2.072-2.919,2.778-4.499c0.475-0.483,0.93-0.994,1.362-1.534
			c6.906-8.619,5.517-21.204-3.102-28.11l-46.26-37.066l121.58-150.801l0.609-0.796c3.141-4.321,7.775-7.161,13.051-7.997
			c5.272-0.834,10.561,0.434,14.882,3.574c8.808,6.4,10.854,18.698,4.663,27.594l-78.25,97.066
			c-6.932,8.599-5.581,21.187,3.018,28.119c8.598,6.93,21.187,5.58,28.119-3.019l78.618-97.523l0.609-0.796
			C519.99,68.509,514.037,30.918,487.276,11.472z M256.102,431.098c-33.977,33.951-72.686,40.907-120.355,40.907
			c-29.513,0-56.54-9.706-75.588-18.949c30.091-22.785,40.848-53.449,50.601-81.258c7.41-21.128,14.409-41.085,29.641-55.548
			c16.602-15.764,37.749-24.371,59.458-24.224c21.003,0.139,40.978,8.615,56.243,23.868c15.399,15.387,23.879,35.843,23.879,57.602
			C279.98,395.255,271.501,415.71,256.102,431.098z M319.619,255.886l-30.237,37.028c-1.612-1.812-3.282-3.583-5.011-5.31
			c-7.774-7.768-16.387-14.357-25.617-19.673l29.787-36.946L319.619,255.886z"/>
	</g>
</g>
<g>
</g>
<g>
</g>
<g>
</g>
<g>
</g>
<g>
</g>
<g>
</g>
<g>
</g>
<g>
</g>
<g>
</g>
<g>
</g>
<g>
</g>
<g>
</g>
<g>
</g>
<g>
</g>
<g>
</g>
</svg>
