<?xml version="1.0" encoding="iso-8859-1"?>
<!-- Generator: Adobe Illustrator 19.0.0, SVG Export Plug-In . SVG Version: 6.00 Build 0)  -->
<svg version="1.1" id="Capa_1" xmlns="http://www.w3.org/2000/svg" xmlns:xlink="http://www.w3.org/1999/xlink" x="0px" y="0px"
	 viewBox="0 0 511.998 511.998" style="enable-background:new 0 0 511.998 511.998;" xml:space="preserve">
<g>
	<g>
		<path fill="white" d="M491.549,112.285l-91.836-91.836c-27.266-27.265-71.631-27.265-98.899,0.001L20.449,300.815
			c-27.266,27.267-27.266,71.633,0,98.9l91.836,91.836c13.632,13.632,31.532,20.446,49.44,20.446
			c17.914,0,35.836-6.824,49.484-20.472l176.83-177.464c7.788-7.816,7.766-20.468-0.051-28.257
			c-7.816-7.789-20.468-7.766-28.257,0.051L182.928,463.293c-11.686,11.686-30.699,11.685-42.385,0l-91.836-91.836
			c-11.686-11.686-11.686-30.699,0-42.385l14.438-14.438l33.908,33.908c3.901,3.901,9.014,5.852,14.128,5.852
			s10.227-1.951,14.128-5.852c7.803-7.803,7.803-20.454,0-28.257l-33.908-33.909l29.595-29.594l62.299,62.299
			c3.901,3.901,9.014,5.852,14.128,5.852s10.227-1.951,14.128-5.852c7.803-7.804,7.803-20.454,0-28.257l-62.299-62.299
			l28.012-28.012l34.19,34.19c3.901,3.901,9.014,5.852,14.128,5.852s10.227-1.951,14.128-5.852c7.803-7.803,7.803-20.454,0-28.257
			l-34.19-34.19l28.373-28.373l62.081,62.081c3.901,3.901,9.014,5.852,14.128,5.852c5.114,0,10.227-1.951,14.128-5.852
			c7.804-7.803,7.804-20.454,0-28.257l-62.081-62.081l29.533-29.533l34.057,34.058c3.902,3.902,9.014,5.852,14.128,5.852
			c5.113,0,10.227-1.951,14.128-5.852c7.803-7.804,7.803-20.454,0-28.257l-34.057-34.058l9.13-9.13
			c11.686-11.686,30.699-11.686,42.385,0l91.836,91.836c11.686,11.686,11.686,30.699,0,42.385l-34.966,34.966
			c-7.804,7.803-7.804,20.454,0,28.257c7.803,7.802,20.454,7.803,28.257,0l34.966-34.966
			C518.815,183.918,518.815,139.552,491.549,112.285z"/>
	</g>
</g>
<g>
</g>
<g>
</g>
<g>
</g>
<g>
</g>
<g>
</g>
<g>
</g>
<g>
</g>
<g>
</g>
<g>
</g>
<g>
</g>
<g>
</g>
<g>
</g>
<g>
</g>
<g>
</g>
<g>
</g>
</svg>
