<?xml version="1.0" encoding="iso-8859-1"?>
<!-- Generator: Adobe Illustrator 19.0.0, SVG Export Plug-In . SVG Version: 6.00 Build 0)  -->
<svg version="1.1" id="Capa_1" xmlns="http://www.w3.org/2000/svg" xmlns:xlink="http://www.w3.org/1999/xlink" x="0px" y="0px"
	 viewBox="0 0 512 512" style="enable-background:new 0 0 512 512;" xml:space="preserve">
<g>
	<g>
		<circle cx="333" cy="60" r="20"/>
	</g>
</g>
<g>
	<g>
		<path d="M100,0H20C8.954,0,0,8.954,0,20v80c0,11.046,8.954,20,20,20h80c11.046,0,20-8.954,20-20V20C120,8.954,111.046,0,100,0z
			 M80,80H40V40h40V80z"/>
	</g>
</g>
<g>
	<g>
		<path d="M492,0h-80c-11.046,0-20,8.954-20,20v80c0,11.046,8.954,20,20,20h80c11.046,0,20-8.954,20-20V20
			C512,8.954,503.046,0,492,0z M472,80h-40V40h40V80z"/>
	</g>
</g>
<g>
	<g>
		<circle cx="255" cy="60" r="20"/>
	</g>
</g>
<g>
	<g>
		<circle cx="177" cy="60" r="20"/>
	</g>
</g>
<g>
	<g>
		<circle cx="333" cy="452" r="20"/>
	</g>
</g>
<g>
	<g>
		<path d="M100,392H20c-11.046,0-20,8.954-20,20v80c0,11.046,8.954,20,20,20h80c11.046,0,20-8.954,20-20v-80
			C120,400.954,111.046,392,100,392z M80,472H40v-40h40V472z"/>
	</g>
</g>
<g>
	<g>
		<path d="M492,392h-80c-11.046,0-20,8.954-20,20v80c0,11.046,8.954,20,20,20h80c11.046,0,20-8.954,20-20v-80
			C512,400.954,503.046,392,492,392z M472,472h-40v-40h40V472z"/>
	</g>
</g>
<g>
	<g>
		<circle cx="255" cy="452" r="20"/>
	</g>
</g>
<g>
	<g>
		<circle cx="177" cy="452" r="20"/>
	</g>
</g>
<g>
	<g>
		<circle cx="452" cy="336" r="20"/>
	</g>
</g>
<g>
	<g>
		<circle cx="452" cy="258" r="20"/>
	</g>
</g>
<g>
	<g>
		<circle cx="452" cy="177" r="20"/>
	</g>
</g>
<g>
	<g>
		<circle cx="60" cy="336" r="20"/>
	</g>
</g>
<g>
	<g>
		<circle cx="60" cy="258" r="20"/>
	</g>
</g>
<g>
	<g>
		<circle cx="60" cy="177" r="20"/>
	</g>
</g>
<g>
	<g>
		<path d="M296,238h-20v-20c0-11.046-8.954-20-20-20c-11.046,0-20,8.954-20,20v20h-20c-11.046,0-20,8.954-20,20
			c0,11.046,8.954,20,20,20h20v20c0,11.046,8.954,20,20,20s20-8.954,20-20v-20h20c11.046,0,20-8.954,20-20
			C316,246.954,307.046,238,296,238z"/>
	</g>
</g>
<g>
</g>
<g>
</g>
<g>
</g>
<g>
</g>
<g>
</g>
<g>
</g>
<g>
</g>
<g>
</g>
<g>
</g>
<g>
</g>
<g>
</g>
<g>
</g>
<g>
</g>
<g>
</g>
<g>
</g>
</svg>
