<?xml version="1.0" encoding="iso-8859-1"?>
<!-- Generator: Adobe Illustrator 19.0.0, SVG Export Plug-In . SVG Version: 6.00 Build 0)  -->
<svg version="1.1" id="Capa_1" xmlns="http://www.w3.org/2000/svg" xmlns:xlink="http://www.w3.org/1999/xlink" x="0px" y="0px"
	 viewBox="0 0 512 512" style="enable-background:new 0 0 512 512;" xml:space="preserve">
<g>
	<g>
		<path d="M490.011,22.819C475.605,8.201,456.369,0.098,435.845,0.001C435.72,0,435.598,0,435.473,0
			c-20.274,0-39.346,7.828-53.772,22.074c-15.734,14.771-20.021,26.696-24.169,38.232c-2.682,7.46-5.455,15.173-12.491,26.022
			c-1.758,2.71-4.347,3.36-5.733,3.507c-1.396,0.148-4.096,0.051-6.415-2.269C324.142,78.818,312.121,74,299.041,74
			s-25.101,4.818-33.853,13.568l-16.578,16.579c-8.75,8.749-13.569,20.771-13.569,33.853c0,13.082,4.819,25.104,13.567,33.852
			l3.779,3.779L26.026,401.29c-12.92,12.863-13.338,30.704-13.707,46.445c-0.292,12.482-0.568,24.272-6.42,30.124
			c-3.905,3.905-5.857,9.023-5.857,14.142c0,5.119,1.952,10.237,5.857,14.142C9.804,510.048,14.923,512,20.041,512
			c5.118,0,10.237-1.953,14.143-5.858c5.92-5.92,17.717-6.162,30.207-6.417c15.685-0.321,33.463-0.684,46.32-13.542l166.247-166.032
			c5.726-5.718,7.441-14.322,4.348-21.799c-3.095-7.477-10.389-12.352-18.48-12.352h-64.494l82.341-82.085l63.519,63.519
			c8.75,8.748,20.771,13.566,33.851,13.566s25.101-4.818,33.853-13.568l16.578-16.579c8.75-8.749,13.569-20.771,13.569-33.853
			c0-13.082-4.819-25.104-13.566-33.85l-2.012-2.012c-2.287-2.287-2.405-4.951-2.271-6.335c0.133-1.376,0.752-3.953,3.412-5.746
			c8.922-6.016,15.916-9.217,23.32-12.607c11.73-5.371,23.861-10.924,38.693-25.758C519.251,101.059,519.427,52.667,490.011,22.819z
			 M214.497,326L82.539,457.786c-2.583,1.612-12.825,1.822-18.966,1.947c-3.648,0.075-7.586,0.155-11.691,0.405
			c0.252-4.024,0.342-7.885,0.426-11.468c0.146-6.201,0.388-16.547,2.035-19.13L158.206,326H214.497z M461.333,102.407
			c-9.743,9.744-16.633,12.898-27.061,17.672c-8.148,3.731-17.385,7.959-29.031,15.812c-11.885,8.014-19.49,20.798-20.865,35.075
			c-1.377,14.291,3.654,28.308,13.802,38.455l2.013,2.013c1.228,1.228,1.851,3.101,1.851,5.566c0,2.465-0.623,4.338-1.853,5.568
			l-16.578,16.579c-1.229,1.229-3.104,1.853-5.569,1.853c-2.465,0-4.34-0.624-5.567-1.852l-95.582-95.583
			c-1.228-1.228-1.851-3.101-1.851-5.566c0-2.465,0.623-4.338,1.853-5.568l16.578-16.579c1.229-1.229,3.104-1.853,5.569-1.853
			c2.465,0,4.34,0.624,5.567,1.852c10.27,10.269,24.442,15.286,38.892,13.763c14.423-1.521,27.216-9.364,35.101-21.521
			c9.552-14.729,13.444-25.555,16.572-34.254c3.465-9.639,5.204-14.477,14.057-22.744l0.46-0.444
			c6.944-6.915,16.208-10.71,25.967-10.651c9.8,0.046,18.985,3.916,25.864,10.896C475.568,65.149,475.484,88.257,461.333,102.407z"
			/>
	</g>
</g>
<g>
</g>
<g>
</g>
<g>
</g>
<g>
</g>
<g>
</g>
<g>
</g>
<g>
</g>
<g>
</g>
<g>
</g>
<g>
</g>
<g>
</g>
<g>
</g>
<g>
</g>
<g>
</g>
<g>
</g>
</svg>
