<?xml version="1.0" encoding="UTF-8" standalone="no"?>
<!DOCTYPE svg PUBLIC "-//W3C//DTD SVG 1.1//EN" "http://www.w3.org/Graphics/SVG/1.1/DTD/svg11.dtd">
<svg version="1.1" xmlns="http://www.w3.org/2000/svg" xmlns:xlink="http://www.w3.org/1999/xlink" preserveAspectRatio="xMidYMid meet" viewBox="83.2 32 473.6000000000001 576" width="474" height="576">
	<defs>
		<path d="M122.88 36.48C148.39 53.89 275.97 140.93 505.6 297.6C505.6 153.6 505.6 73.6 505.6 57.6C505.6 43.52 517.12 32 531.2 32C545.28 32 556.8 43.52 556.8 57.6C556.8 110.08 556.8 529.92 556.8 582.4C556.8 596.48 545.28 608 531.2 608C517.12 608 505.6 596.48 505.6 582.4C505.6 566.4 505.6 486.4 505.6 342.4C276.35 499.07 148.99 586.11 123.52 603.52C119.04 606.72 113.92 608 108.8 608C104.96 608 100.48 606.72 96.64 604.8C88.32 600.32 83.2 592 83.2 582.4C83.2 529.92 83.2 110.08 83.2 57.6C83.2 48 88.32 39.68 96.64 35.2C104.96 30.72 115.2 31.36 122.88 36.48Z" id="aw8xhnHOA">
		</path>
	</defs>
	<g>
		<use xlink:href="#aw8xhnHOA" opacity="1" fill="white" fill-opacity="1">
		</use>
	</g>
</svg>
