<?xml version="1.0" encoding="UTF-8" standalone="no"?>
<svg
   width="158mm"
   height="186mm"
   viewBox="0 0 158 186"
   version="1.1"
   id="svg2856"
   inkscape:version="1.1-dev (9017afb, 2021-01-01)"
   sodipodi:docname="play-clock.svg"
   xmlns:inkscape="http://www.inkscape.org/namespaces/inkscape"
   xmlns:sodipodi="http://sodipodi.sourceforge.net/DTD/sodipodi-0.dtd"
   xmlns="http://www.w3.org/2000/svg"
   xmlns:svg="http://www.w3.org/2000/svg">
  <sodipodi:namedview
     id="namedview2858"
     pagecolor="#505050"
     bordercolor="#eeeeee"
     borderopacity="1"
     objecttolerance="10.0"
     gridtolerance="10.0"
     guidetolerance="10.0"
     inkscape:pageshadow="0"
     inkscape:pageopacity="0"
     inkscape:pagecheckerboard="0"
     inkscape:document-units="mm"
     showgrid="false"
     width="209mm"
     inkscape:zoom="0.73921183"
     inkscape:cx="357.13714"
     inkscape:cy="311.14221"
     inkscape:window-width="1680"
     inkscape:window-height="1022"
     inkscape:window-x="0"
     inkscape:window-y="28"
     inkscape:window-maximized="0"
     inkscape:current-layer="layer1" />
  <defs
     id="defs2853">
    <path
       d="m 497.82,297.5 c 3.74,2.43 6.57,5.81 8.5,10.14 2.89,6.5 4.03,7.3 2.24,17.64 -1.2,6.88 -4.78,12.56 -10.74,17.02 -229.25,156.67 -356.61,243.71 -382.09,261.12 -4.48,3.2 -9.6,4.48 -14.72,4.48 -3.84,0 -8.32,-1.28 -12.16,-3.2 -8.32,-4.48 -13.44,-12.8 -13.44,-22.4 0,-52.48 0,-472.33 0,-524.81 0,-9.6 5.12,-17.92 13.44,-22.4 8.32,-4.48 18.56,-3.84 26.24,1.28 25.52,17.41 153.09,104.45 382.73,261.13 z"
       id="b1kfAMY8qm" />
  </defs>
  <g
     inkscape:label="Layer 1"
     inkscape:groupmode="layer"
     id="layer1">
    <g
       id="g2956"
       transform="matrix(3.003633,0,0,3.003633,-9.2698645,0.03961241)">
	<path
   id="path2954"
   style="fill:#ffffff;fill-opacity:1;stroke-width:11.3523"
   d="m 169.37891,182.30859 c -12.4095,0.004 -24.80906,3.12482 -35.59375,9.35157 -22.00079,12.66918 -35.679691,36.33998 -35.679691,61.75781 v 524.5332 c 0,25.42918 13.667061,49.09815 35.542971,61.69922 10.81875,6.30053 23.18103,9.62695 35.74804,9.62695 12.53296,0 24.88486,-3.31518 35.65821,-9.57031 l 56.1289,-32.4043 a 214.31894,214.21352 0 0 1 -19.13476,-67.59961 l -71.10742,41.05079 c -0.93089,0.53355 -2.04409,0.59044 -3.16797,-0.0566 -0.9536,-0.55627 -1.55469,-1.61087 -1.55469,-2.7461 V 253.40625 c 0,-1.13523 0.59084,-2.1808 1.58984,-2.75977 0.4768,-0.2838 1.01991,-0.42968 1.57618,-0.42968 0.57896,0 1.12513,0.14588 1.61328,0.42968 l 454.20507,262.2168 c 1.01036,0.59032 1.64649,1.66824 1.64649,2.82617 -0.0113,1.16929 -0.60219,2.20229 -1.58984,2.78125 l -43.31836,25.00782 a 214.31894,214.21352 0 0 1 49.04101,50.32812 l 28.35742,-16.37109 c 21.97808,-12.70324 35.62305,-36.36232 35.62305,-61.7461 -0.0113,-25.34971 -13.64375,-49.00794 -35.64453,-61.77929 l -454.28711,-262.25 c -10.82443,-6.24378 -23.24285,-9.35582 -35.65234,-9.35157 z"
   transform="matrix(0.08808777,0,0,0.08808777,-5.553811,-16.058955)" />

</g>
    <path
       style="fill:#ffffff;fill-opacity:1;stroke-width:0.0882766"
       d="m 91.579135,185.43988 c -5.78672,-0.36952 -11.85522,-2.02497 -16.98345,-4.63299 -11.040703,-5.61486 -19.176243,-15.43749 -22.559162,-27.23732 -1.875905,-6.54326 -2.207028,-13.47471 -0.967419,-20.25113 2.106035,-11.51282 8.975746,-21.97073 18.759649,-28.55825 3.19975,-2.15439 7.494152,-4.24009 11.070912,-5.376876 8.87697,-2.82136 18.23839,-2.82138 27.116505,-5e-5 2.93707,0.933346 6.84421,2.734826 9.51164,4.385556 15.48669,9.5839 23.50107,27.34688 20.40144,45.21748 -1.89579,10.93 -7.86043,20.73519 -16.72353,27.49157 -8.49878,6.47865 -18.95994,9.64314 -29.626585,8.96201 z m 6.98364,-11.19854 c 5.965445,-0.79942 11.181995,-2.92937 15.889785,-6.48792 3.17201,-2.39768 6.25849,-5.81559 8.29693,-9.18788 0.68911,-1.14003 1.99851,-3.74064 2.42235,-4.81107 6.38568,-16.12707 -0.49258,-34.22487 -15.95248,-41.97354 -12.718895,-6.37484 -28.063105,-3.8727 -38.154737,6.22179 -5.406753,5.40829 -8.644599,12.1869 -9.550448,19.99438 -0.146897,1.2661 -0.147395,5.52478 -7.94e-4,6.79729 0.354632,3.07826 1.074531,6.00021 2.164055,8.78352 0.534678,1.3659 1.884567,4.03217 2.693066,5.31927 5.038131,8.02056 13.238553,13.53263 22.481853,15.11161 1.07059,0.18288 1.67749,0.25835 3.53106,0.43912 0.96811,0.0944 4.91888,-0.0377 6.17936,-0.20657 z m -5.56142,-27.53773 c -1.70974,-0.49295 -2.99704,-1.6741 -3.71637,-3.40992 l -0.25608,-0.61793 v -12.31459 -12.31459 l 0.28715,-0.70621 c 0.67794,-1.66735 2.0756,-2.90853 3.7731,-3.35068 0.67612,-0.1761 2.0614,-0.1761 2.73752,0 1.6975,0.44215 3.09516,1.68333 3.77311,3.35068 l 0.28713,0.70621 0.0441,8.91594 0.0441,8.91594 8.915935,0.0441 8.91594,0.0441 0.59114,0.23702 c 1.57775,0.63262 2.6618,1.70064 3.28159,3.23304 0.26327,0.65094 0.27462,0.73172 0.27527,1.95895 6.2e-4,1.21215 -0.0129,1.31277 -0.25524,1.89794 -0.56458,1.36324 -1.41098,2.32707 -2.57402,2.93114 -1.32705,0.68925 -0.37304,0.64481 -13.69021,0.63778 -11.010715,-0.006 -11.944355,-0.0178 -12.434245,-0.159 z"
       id="path2977" />
  </g>
</svg>
