<?xml version="1.0" encoding="UTF-8" standalone="no"?>
<!DOCTYPE svg PUBLIC "-//W3C//DTD SVG 1.1//EN" "http://www.w3.org/Graphics/SVG/1.1/DTD/svg11.dtd">
<svg version="1.1" xmlns="http://www.w3.org/2000/svg" xmlns:xlink="http://www.w3.org/1999/xlink" preserveAspectRatio="xMidYMid meet" viewBox="83.19999999999999 32 473.59999999999997 576" width="474" height="576">
	<defs>
		<path d="M134.4 297.6C134.4 153.6 134.4 73.6 134.4 57.6C134.4 43.52 122.88 32 108.8 32C94.72 32 83.2 43.52 83.2 57.6C83.2 110.08 83.2 529.92 83.2 582.4C83.2 596.48 94.72 608 108.8 608C122.88 608 134.4 596.48 134.4 582.4C134.4 566.4 134.4 486.4 134.4 342.4C363.65 499.07 491.01 586.11 516.48 603.52C520.96 606.72 526.08 608 531.2 608C535.04 608 539.52 606.72 543.36 604.8C551.68 600.32 556.8 592 556.8 582.4C556.8 529.92 556.8 110.08 556.8 57.6C556.8 48 551.68 39.68 543.36 35.2C535.04 30.72 524.8 31.36 517.12 36.48C491.61 53.89 364.03 140.93 134.4 297.6Z" id="a90tD1VoCE">
		</path>
	</defs>
		<g>
			<use xlink:href="#a90tD1VoCE" opacity="1" fill="white" fill-opacity="1">
			</use>
		</g>
</svg>
