%TF.GenerationSoftware,KiCad,Pcbnew,7.0.10-7.0.10~ubuntu22.04.1*%
%TF.CreationDate,2024-02-14T11:38:45+01:00*%
%TF.ProjectId,puissanceok,70756973-7361-46e6-9365-6f6b2e6b6963,rev?*%
%TF.SameCoordinates,Original*%
%TF.FileFunction,Copper,L2,Inr*%
%TF.FilePolarity,Positive*%
%FSLAX46Y46*%
G04 Gerber Fmt 4.6, Leading zero omitted, Abs format (unit mm)*
G04 Created by KiCad (PCBNEW 7.0.10-7.0.10~ubuntu22.04.1) date 2024-02-14 11:38:45*
%MOMM*%
%LPD*%
G01*
G04 APERTURE LIST*
G04 Aperture macros list*
%AMRoundRect*
0 Rectangle with rounded corners*
0 $1 Rounding radius*
0 $2 $3 $4 $5 $6 $7 $8 $9 X,Y pos of 4 corners*
0 Add a 4 corners polygon primitive as box body*
4,1,4,$2,$3,$4,$5,$6,$7,$8,$9,$2,$3,0*
0 Add four circle primitives for the rounded corners*
1,1,$1+$1,$2,$3*
1,1,$1+$1,$4,$5*
1,1,$1+$1,$6,$7*
1,1,$1+$1,$8,$9*
0 Add four rect primitives between the rounded corners*
20,1,$1+$1,$2,$3,$4,$5,0*
20,1,$1+$1,$4,$5,$6,$7,0*
20,1,$1+$1,$6,$7,$8,$9,0*
20,1,$1+$1,$8,$9,$2,$3,0*%
G04 Aperture macros list end*
%TA.AperFunction,ComponentPad*%
%ADD10C,0.800000*%
%TD*%
%TA.AperFunction,ComponentPad*%
%ADD11C,5.400000*%
%TD*%
%TA.AperFunction,ComponentPad*%
%ADD12RoundRect,0.250000X-0.600000X-0.750000X0.600000X-0.750000X0.600000X0.750000X-0.600000X0.750000X0*%
%TD*%
%TA.AperFunction,ComponentPad*%
%ADD13O,1.700000X2.000000*%
%TD*%
%TA.AperFunction,ComponentPad*%
%ADD14RoundRect,0.250000X-0.600000X-0.725000X0.600000X-0.725000X0.600000X0.725000X-0.600000X0.725000X0*%
%TD*%
%TA.AperFunction,ComponentPad*%
%ADD15O,1.700000X1.950000*%
%TD*%
%TA.AperFunction,ComponentPad*%
%ADD16R,1.700000X1.700000*%
%TD*%
%TA.AperFunction,ComponentPad*%
%ADD17O,1.700000X1.700000*%
%TD*%
%TA.AperFunction,ComponentPad*%
%ADD18C,1.800000*%
%TD*%
%TA.AperFunction,ComponentPad*%
%ADD19RoundRect,0.381000X-0.381000X0.381000X-0.381000X-0.381000X0.381000X-0.381000X0.381000X0.381000X0*%
%TD*%
%TA.AperFunction,ComponentPad*%
%ADD20C,1.524000*%
%TD*%
%TA.AperFunction,ComponentPad*%
%ADD21RoundRect,0.250000X0.725000X-0.600000X0.725000X0.600000X-0.725000X0.600000X-0.725000X-0.600000X0*%
%TD*%
%TA.AperFunction,ComponentPad*%
%ADD22O,1.950000X1.700000*%
%TD*%
%TA.AperFunction,ComponentPad*%
%ADD23RoundRect,0.250000X0.750000X-0.600000X0.750000X0.600000X-0.750000X0.600000X-0.750000X-0.600000X0*%
%TD*%
%TA.AperFunction,ComponentPad*%
%ADD24O,2.000000X1.700000*%
%TD*%
%TA.AperFunction,ViaPad*%
%ADD25C,0.600000*%
%TD*%
G04 APERTURE END LIST*
D10*
%TO.N,GND*%
%TO.C,H102*%
X105975000Y-50000000D03*
X106568109Y-48568109D03*
X106568109Y-51431891D03*
X108000000Y-47975000D03*
D11*
X108000000Y-50000000D03*
D10*
X108000000Y-52025000D03*
X109431891Y-48568109D03*
X109431891Y-51431891D03*
X110025000Y-50000000D03*
%TD*%
D12*
%TO.N,GND*%
%TO.C,J107*%
X57300000Y-99400000D03*
D13*
%TO.N,14.4V*%
X59800000Y-99400000D03*
%TD*%
D14*
%TO.N,GND*%
%TO.C,J114*%
X75700000Y-93100000D03*
D15*
%TO.N,5.1V*%
X78200000Y-93100000D03*
%TO.N,GND*%
X80700000Y-93100000D03*
X83200000Y-93100000D03*
%TO.N,+3.3V*%
X85700000Y-93100000D03*
%TD*%
D16*
%TO.N,GND*%
%TO.C,J111*%
X110300000Y-83480000D03*
D17*
X110300000Y-80940000D03*
X110300000Y-78400000D03*
X110300000Y-75860000D03*
X110300000Y-73320000D03*
X110300000Y-70780000D03*
X110300000Y-68240000D03*
X110300000Y-65700000D03*
%TD*%
D12*
%TO.N,GND*%
%TO.C,J108*%
X67000000Y-93100000D03*
D13*
%TO.N,14.4V*%
X69500000Y-93100000D03*
%TD*%
D18*
%TO.N,+3.3V*%
%TO.C,TP104*%
X104600000Y-94700000D03*
%TD*%
D19*
%TO.N,Net-(J101-Pin_1)*%
%TO.C,J101*%
X53900000Y-63850000D03*
D20*
%TO.N,/V_BAT*%
X53900000Y-67350000D03*
%TD*%
D14*
%TO.N,/Out_color_sensor*%
%TO.C,J115*%
X75700000Y-99400000D03*
D15*
%TO.N,/S3_color_sensor*%
X78200000Y-99400000D03*
%TO.N,/S2_color_sensor*%
X80700000Y-99400000D03*
%TO.N,/S1_color_sensor*%
X83200000Y-99400000D03*
%TO.N,/S0_color_sensor*%
X85700000Y-99400000D03*
%TD*%
D12*
%TO.N,GND*%
%TO.C,J110*%
X70350000Y-77575000D03*
D13*
%TO.N,5.1V*%
X72850000Y-77575000D03*
%TD*%
D14*
%TO.N,GND*%
%TO.C,J801*%
X92400000Y-99400000D03*
D15*
%TO.N,/Uart2_TX*%
X94900000Y-99400000D03*
%TO.N,/Uart2_RX*%
X97400000Y-99400000D03*
%TO.N,+3.3V*%
X99900000Y-99400000D03*
%TD*%
D18*
%TO.N,7.4V*%
%TO.C,TP103*%
X104600000Y-89300000D03*
%TD*%
D19*
%TO.N,Net-(J103-Pin_2)*%
%TO.C,J104*%
X53900000Y-80650000D03*
D20*
%TO.N,14.4V*%
X53900000Y-84150000D03*
%TD*%
D10*
%TO.N,GND*%
%TO.C,H104*%
X47975000Y-99000000D03*
X48568109Y-97568109D03*
X48568109Y-100431891D03*
X50000000Y-96975000D03*
D11*
X50000000Y-99000000D03*
D10*
X50000000Y-101025000D03*
X51431891Y-97568109D03*
X51431891Y-100431891D03*
X52025000Y-99000000D03*
%TD*%
D14*
%TO.N,GND*%
%TO.C,J1101*%
X92400000Y-93100000D03*
D15*
%TO.N,/Uart4_TX*%
X94900000Y-93100000D03*
%TO.N,/Uart4_RX*%
X97400000Y-93100000D03*
%TO.N,+3.3V*%
X99900000Y-93100000D03*
%TD*%
D16*
%TO.N,+3.3V*%
%TO.C,J113*%
X105220000Y-83480000D03*
D17*
X105220000Y-80940000D03*
X105220000Y-78400000D03*
X105220000Y-75860000D03*
X105220000Y-73320000D03*
X105220000Y-70780000D03*
%TO.N,7.4V*%
X105220000Y-68240000D03*
X105220000Y-65700000D03*
%TD*%
D21*
%TO.N,GND*%
%TO.C,J901*%
X108400000Y-61000000D03*
D22*
%TO.N,7.4V*%
X108400000Y-58500000D03*
%TO.N,/XL_320_connector_and_buffer/DXL_Data*%
X108400000Y-56000000D03*
%TD*%
D10*
%TO.N,GND*%
%TO.C,H103*%
X105975000Y-99000000D03*
X106568109Y-97568109D03*
X106568109Y-100431891D03*
X108000000Y-96975000D03*
D11*
X108000000Y-99000000D03*
D10*
X108000000Y-101025000D03*
X109431891Y-97568109D03*
X109431891Y-100431891D03*
X110025000Y-99000000D03*
%TD*%
D14*
%TO.N,GND*%
%TO.C,J1001*%
X92400000Y-86800000D03*
D15*
%TO.N,/Uart3_TX*%
X94900000Y-86800000D03*
%TO.N,/Uart3_RX*%
X97400000Y-86800000D03*
%TO.N,+3.3V*%
X99900000Y-86800000D03*
%TD*%
D19*
%TO.N,/V_BAT*%
%TO.C,J103*%
X53900000Y-72250000D03*
D20*
%TO.N,Net-(J103-Pin_2)*%
X53900000Y-75750000D03*
%TD*%
D19*
%TO.N,GND*%
%TO.C,J102*%
X53900000Y-55450000D03*
D20*
%TO.N,Net-(J101-Pin_1)*%
X53900000Y-58950000D03*
%TD*%
D23*
%TO.N,GND*%
%TO.C,J701*%
X84400000Y-87200000D03*
D24*
%TO.N,Net-(J701-Pin_2)*%
X84400000Y-84700000D03*
%TD*%
D23*
%TO.N,GND*%
%TO.C,J501*%
X75600000Y-87200000D03*
D24*
%TO.N,Net-(J501-Pin_2)*%
X75600000Y-84700000D03*
%TD*%
D18*
%TO.N,5.1V*%
%TO.C,TP102*%
X104600000Y-92000000D03*
%TD*%
%TO.N,14.4V*%
%TO.C,TP101*%
X104600000Y-86600000D03*
%TD*%
D23*
%TO.N,GND*%
%TO.C,J201*%
X58000000Y-87200000D03*
D24*
%TO.N,Net-(J201-Pin_2)*%
X58000000Y-84700000D03*
%TD*%
D16*
%TO.N,/GPIO11*%
%TO.C,J112*%
X107760000Y-83480000D03*
D17*
%TO.N,/GPIO6*%
X107760000Y-80940000D03*
%TO.N,/GPIO7*%
X107760000Y-78400000D03*
%TO.N,/GPIO19*%
X107760000Y-75860000D03*
%TO.N,/GPIO16*%
X107760000Y-73320000D03*
%TO.N,/GPIO26*%
X107760000Y-70780000D03*
%TO.N,Net-(J112-Pin_7)*%
X107760000Y-68240000D03*
%TO.N,Net-(J112-Pin_8)*%
X107760000Y-65700000D03*
%TD*%
D10*
%TO.N,GND*%
%TO.C,H101*%
X47975000Y-50000000D03*
X48568109Y-48568109D03*
X48568109Y-51431891D03*
X50000000Y-47975000D03*
D11*
X50000000Y-50000000D03*
D10*
X50000000Y-52025000D03*
X51431891Y-48568109D03*
X51431891Y-51431891D03*
X52025000Y-50000000D03*
%TD*%
D12*
%TO.N,GND*%
%TO.C,J109*%
X67000000Y-99400000D03*
D13*
%TO.N,14.4V*%
X69500000Y-99400000D03*
%TD*%
D12*
%TO.N,GND*%
%TO.C,J106*%
X57300000Y-93100000D03*
D13*
%TO.N,14.4V*%
X59800000Y-93100000D03*
%TD*%
D23*
%TO.N,GND*%
%TO.C,J401*%
X66800000Y-87200000D03*
D24*
%TO.N,Net-(J401-Pin_2)*%
X66800000Y-84700000D03*
%TD*%
D16*
%TO.N,unconnected-(J105-Pin_1-Pad1)*%
%TO.C,J105*%
X54870000Y-51270000D03*
D17*
%TO.N,5.1V*%
X54870000Y-48730000D03*
%TO.N,/FDC_1*%
X57410000Y-51270000D03*
%TO.N,5.1V*%
X57410000Y-48730000D03*
%TO.N,/FDC_2*%
X59950000Y-51270000D03*
%TO.N,GND*%
X59950000Y-48730000D03*
%TO.N,/Uart3_TX*%
X62490000Y-51270000D03*
%TO.N,/Uart1_TX*%
X62490000Y-48730000D03*
%TO.N,GND*%
X65030000Y-51270000D03*
%TO.N,/Uart1_RX*%
X65030000Y-48730000D03*
%TO.N,/FDC_3*%
X67570000Y-51270000D03*
%TO.N,/UartTX_Enable*%
X67570000Y-48730000D03*
%TO.N,/FDC_4*%
X70110000Y-51270000D03*
%TO.N,GND*%
X70110000Y-48730000D03*
%TO.N,/S3_color_sensor*%
X72650000Y-51270000D03*
%TO.N,/Out_color_sensor*%
X72650000Y-48730000D03*
%TO.N,+3.3V*%
X75190000Y-51270000D03*
%TO.N,/S2_color_sensor*%
X75190000Y-48730000D03*
%TO.N,/S1_color_sensor*%
X77730000Y-51270000D03*
%TO.N,GND*%
X77730000Y-48730000D03*
%TO.N,/Uart4_RX*%
X80270000Y-51270000D03*
%TO.N,/S0_color_sensor*%
X80270000Y-48730000D03*
%TO.N,/GPIO11*%
X82810000Y-51270000D03*
%TO.N,/Uart4_TX*%
X82810000Y-48730000D03*
%TO.N,GND*%
X85350000Y-51270000D03*
%TO.N,/GPIO7*%
X85350000Y-48730000D03*
%TO.N,/Uart2_TX*%
X87890000Y-51270000D03*
%TO.N,/Uart2_RX*%
X87890000Y-48730000D03*
%TO.N,/Uart3_RX*%
X90430000Y-51270000D03*
%TO.N,GND*%
X90430000Y-48730000D03*
%TO.N,/GPIO6*%
X92970000Y-51270000D03*
%TO.N,/Uart5_TX*%
X92970000Y-48730000D03*
%TO.N,/Uart5_RX*%
X95510000Y-51270000D03*
%TO.N,GND*%
X95510000Y-48730000D03*
%TO.N,/GPIO19*%
X98050000Y-51270000D03*
%TO.N,/GPIO16*%
X98050000Y-48730000D03*
%TO.N,/GPIO26*%
X100590000Y-51270000D03*
%TO.N,/GPIO20*%
X100590000Y-48730000D03*
%TO.N,GND*%
X103130000Y-51270000D03*
%TO.N,/GPIO21*%
X103130000Y-48730000D03*
%TD*%
D25*
%TO.N,/FDC_2*%
X71200000Y-82800000D03*
%TO.N,GND*%
X111600000Y-81300000D03*
X46600000Y-68000000D03*
X63825000Y-68900000D03*
X102300000Y-60200000D03*
X46600000Y-95500000D03*
X90475000Y-64100000D03*
X77940000Y-46600000D03*
X81400000Y-79100000D03*
X98100000Y-83100000D03*
X88200000Y-85300000D03*
X73600000Y-102400000D03*
X78700000Y-60500000D03*
X91875000Y-73700000D03*
X101700000Y-68700000D03*
X94675000Y-72100000D03*
X95600000Y-85300000D03*
X46600000Y-98000000D03*
X57620000Y-46600000D03*
X85100000Y-91100000D03*
X68175000Y-64100000D03*
X61100000Y-102400000D03*
X111600000Y-68500000D03*
X94675000Y-64100000D03*
X96100000Y-102400000D03*
X62825000Y-68900000D03*
X93275000Y-65700000D03*
X46600000Y-65500000D03*
X88100000Y-46600000D03*
X100800000Y-46600000D03*
X73775000Y-73700000D03*
X69575000Y-68900000D03*
X78200000Y-82200000D03*
X90475000Y-73700000D03*
X68175000Y-65700000D03*
X63500000Y-80300000D03*
X46600000Y-58000000D03*
X70975000Y-70500000D03*
X46600000Y-78000000D03*
X78700000Y-56700000D03*
X59200000Y-60500000D03*
X46600000Y-70500000D03*
X70975000Y-67300000D03*
X76650000Y-69610000D03*
X82300000Y-80400000D03*
X75175000Y-73700000D03*
X46600000Y-73000000D03*
X76700000Y-55700000D03*
X66775000Y-68900000D03*
X69575000Y-70500000D03*
X65240000Y-46600000D03*
X66775000Y-64100000D03*
X58600000Y-102400000D03*
X85100000Y-78700000D03*
X59200000Y-61500000D03*
X102000000Y-81500000D03*
X105880000Y-46600000D03*
X74900000Y-55200000D03*
X83325000Y-68900000D03*
X111600000Y-66100000D03*
X58200000Y-56200000D03*
X46600000Y-88000000D03*
X73775000Y-68900000D03*
X111600000Y-78800000D03*
X101700000Y-71300000D03*
X76100000Y-102400000D03*
X87675000Y-65700000D03*
X87675000Y-64100000D03*
X98300000Y-71280000D03*
X50000000Y-46600000D03*
X102400000Y-95500000D03*
X70600000Y-85300000D03*
X74900000Y-53600000D03*
X59200000Y-56700000D03*
X83600000Y-102400000D03*
X70975000Y-68900000D03*
X90640000Y-46600000D03*
X103600000Y-102400000D03*
X83100000Y-78700000D03*
X55080000Y-46600000D03*
X90475000Y-67300000D03*
X91875000Y-64100000D03*
X94675000Y-68900000D03*
X83020000Y-46600000D03*
X80325000Y-68900000D03*
X75175000Y-67300000D03*
X68175000Y-67300000D03*
X111600000Y-93800000D03*
X101300000Y-92500000D03*
X72375000Y-67300000D03*
X75175000Y-68900000D03*
X70975000Y-64100000D03*
X91875000Y-68900000D03*
X89075000Y-72100000D03*
X87675000Y-68900000D03*
X94675000Y-65700000D03*
X72375000Y-73700000D03*
X98300000Y-68740000D03*
X98300000Y-73820000D03*
X75175000Y-65700000D03*
X87675000Y-72100000D03*
X75175000Y-64100000D03*
X71100000Y-102400000D03*
X68100000Y-76500000D03*
X101200000Y-64100000D03*
X72860000Y-46600000D03*
X47800000Y-47300000D03*
X76700000Y-68600000D03*
X111600000Y-71300000D03*
X66100000Y-102400000D03*
X93275000Y-70500000D03*
X57200000Y-55700000D03*
X87675000Y-70500000D03*
X97600000Y-60600000D03*
X86275000Y-67300000D03*
X55900000Y-75600000D03*
X77700000Y-63200000D03*
X76700000Y-56700000D03*
X73775000Y-64100000D03*
X111400000Y-56300000D03*
X82300000Y-81700000D03*
X72375000Y-68900000D03*
X57200000Y-61500000D03*
X111600000Y-73800000D03*
X87675000Y-67300000D03*
X98200000Y-79200000D03*
X66775000Y-72100000D03*
X46600000Y-93000000D03*
X89075000Y-73700000D03*
X56900000Y-65500000D03*
X80800000Y-86700000D03*
X98260000Y-46600000D03*
X94675000Y-67300000D03*
X90700000Y-79200000D03*
X69575000Y-72100000D03*
X91875000Y-65700000D03*
X65600000Y-78700000D03*
X70975000Y-72100000D03*
X53600000Y-102400000D03*
X93275000Y-72100000D03*
X108420000Y-46600000D03*
X110400000Y-47600000D03*
X91100000Y-102400000D03*
X101200000Y-90850000D03*
X46600000Y-80500000D03*
X94400000Y-55200000D03*
X101600000Y-79200000D03*
X74800000Y-82200000D03*
X72960000Y-53600000D03*
X76300000Y-79400000D03*
X103340000Y-46600000D03*
X68600000Y-102400000D03*
X76200000Y-67000000D03*
X93275000Y-73700000D03*
X82900000Y-90100000D03*
X97900000Y-97300000D03*
X46600000Y-90500000D03*
X95700000Y-79200000D03*
X86100000Y-102400000D03*
X85100000Y-77700000D03*
X57000000Y-69600000D03*
X90475000Y-72100000D03*
X90475000Y-70500000D03*
X89075000Y-70500000D03*
X111200000Y-100200000D03*
X69900000Y-82500000D03*
X93450000Y-55200000D03*
X85200000Y-81700000D03*
X91875000Y-72100000D03*
X68175000Y-68900000D03*
X73900000Y-80300000D03*
X95900000Y-64100000D03*
X76500000Y-71600000D03*
X90475000Y-68900000D03*
X69575000Y-73700000D03*
X110100000Y-101800000D03*
X111400000Y-51300000D03*
X75175000Y-70500000D03*
X52540000Y-46600000D03*
X97500000Y-90900000D03*
X111600000Y-83800000D03*
X46600000Y-53000000D03*
X61600000Y-74300000D03*
X74300000Y-77400000D03*
X111400000Y-58800000D03*
X93180000Y-46600000D03*
X63100000Y-53500000D03*
X86275000Y-65700000D03*
X69575000Y-65700000D03*
X47700000Y-101700000D03*
X59825000Y-68900000D03*
X72960000Y-55200000D03*
X111400000Y-61300000D03*
X46600000Y-55500000D03*
X46600000Y-50500000D03*
X73775000Y-70500000D03*
X103508800Y-59582000D03*
X83100000Y-77700000D03*
X51100000Y-102400000D03*
X69575000Y-67300000D03*
X68175000Y-73700000D03*
X73775000Y-72100000D03*
X63600000Y-77700000D03*
X86600000Y-75200000D03*
X78700000Y-61500000D03*
X66775000Y-65700000D03*
X86275000Y-64100000D03*
X93200000Y-79200000D03*
X94675000Y-70500000D03*
X46600000Y-75500000D03*
X66775000Y-67300000D03*
X111600000Y-88800000D03*
X79325000Y-68900000D03*
X60825000Y-68900000D03*
X72375000Y-65700000D03*
X106000000Y-54100000D03*
X111600000Y-76300000D03*
X77700000Y-61000000D03*
X103800000Y-57000000D03*
X46800000Y-48900000D03*
X111400000Y-49500000D03*
X100300000Y-97600000D03*
X64600000Y-78200000D03*
X78700000Y-55700000D03*
X84200000Y-76900000D03*
X108600000Y-102400000D03*
X101700000Y-76300000D03*
X93500000Y-91000000D03*
X93275000Y-67300000D03*
X63600000Y-78700000D03*
X70975000Y-73700000D03*
X111400000Y-53800000D03*
X88200000Y-81100000D03*
X98300000Y-66200000D03*
X98300000Y-76360000D03*
X101300000Y-93800000D03*
X111600000Y-98500000D03*
X81100000Y-102400000D03*
X78600000Y-102400000D03*
X94675000Y-73700000D03*
X89075000Y-64100000D03*
X57200000Y-56700000D03*
X46600000Y-85500000D03*
X70975000Y-65700000D03*
X95720000Y-46600000D03*
X71700000Y-62800000D03*
X57000000Y-68600000D03*
X111600000Y-86300000D03*
X93600000Y-102400000D03*
X56100000Y-102400000D03*
X88200000Y-77500000D03*
X73775000Y-65700000D03*
X93275000Y-68900000D03*
X63500000Y-76500000D03*
X87500000Y-76100000D03*
X81325000Y-68900000D03*
X91875000Y-70500000D03*
X82900000Y-85900000D03*
X72375000Y-70500000D03*
X79400000Y-85300000D03*
X93275000Y-64100000D03*
X72375000Y-64100000D03*
X86275000Y-70500000D03*
X80480000Y-46600000D03*
X66775000Y-70500000D03*
X76700000Y-60500000D03*
X66775000Y-73700000D03*
X60900000Y-81600000D03*
X85100000Y-83400000D03*
X68400000Y-80300000D03*
X101100000Y-102400000D03*
X89075000Y-67300000D03*
X67780000Y-46600000D03*
X87675000Y-73700000D03*
X82325000Y-68900000D03*
X91875000Y-67300000D03*
X76700000Y-61500000D03*
X101700000Y-73800000D03*
X93450000Y-53950000D03*
X60160000Y-46600000D03*
X72375000Y-72100000D03*
X46600000Y-63000000D03*
X58200000Y-61000000D03*
X75400000Y-46600000D03*
X60900000Y-76500000D03*
X90475000Y-65700000D03*
X70320000Y-46600000D03*
X57200000Y-60500000D03*
X69575000Y-64100000D03*
X59200000Y-55700000D03*
X68175000Y-72100000D03*
X61825000Y-68900000D03*
X86275000Y-73700000D03*
X46600000Y-83000000D03*
X111600000Y-91300000D03*
X84100000Y-78200000D03*
X98600000Y-102400000D03*
X85560000Y-46600000D03*
X106100000Y-102400000D03*
X62700000Y-46600000D03*
X86275000Y-68900000D03*
X89075000Y-68900000D03*
X49400000Y-102400000D03*
X98200000Y-81700000D03*
X57000000Y-71600000D03*
X63600000Y-102400000D03*
X68175000Y-70500000D03*
X111600000Y-63800000D03*
X89075000Y-65700000D03*
X66500000Y-82500000D03*
X73775000Y-67300000D03*
X75175000Y-72100000D03*
X86275000Y-72100000D03*
X88600000Y-102400000D03*
X65600000Y-77700000D03*
X89200000Y-90900000D03*
X77700000Y-56200000D03*
X88200000Y-79200000D03*
X46900000Y-100400000D03*
X46600000Y-60500000D03*
X61800000Y-85300000D03*
X98200000Y-80500000D03*
X111600000Y-96300000D03*
X83400000Y-74100000D03*
X92460000Y-55200000D03*
%TO.N,/FDC_3*%
X80000000Y-82800000D03*
%TO.N,/FDC_1*%
X62450000Y-82600000D03*
%TO.N,/FDC_4*%
X81550000Y-81000000D03*
%TO.N,+3.3V*%
X88800000Y-88800000D03*
X71200000Y-88800000D03*
X80000000Y-88800000D03*
X62400000Y-88900000D03*
X102400000Y-55800000D03*
X100800000Y-52800000D03*
%TO.N,7.4V*%
X85700000Y-56900000D03*
X101500000Y-56400000D03*
X83300000Y-56900000D03*
X84900000Y-57700000D03*
X84900000Y-56900000D03*
X84100000Y-58500000D03*
X85700000Y-57700000D03*
X84900000Y-58500000D03*
X100500000Y-57400000D03*
X83300000Y-58500000D03*
X84100000Y-56900000D03*
X86500000Y-57700000D03*
X100500000Y-58400000D03*
X101500000Y-58400000D03*
X83300000Y-57700000D03*
X86500000Y-56900000D03*
X100500000Y-56400000D03*
X83300000Y-59300000D03*
X84100000Y-57700000D03*
X101500000Y-57400000D03*
%TO.N,/GPIO20*%
X106000000Y-62850000D03*
%TO.N,/GPIO21*%
X105500000Y-59600000D03*
%TO.N,5.1V*%
X65400000Y-58500000D03*
X63800000Y-56900000D03*
X63800000Y-57700000D03*
X64600000Y-58500000D03*
X66200000Y-56900000D03*
X64600000Y-56900000D03*
X66200000Y-57700000D03*
X63800000Y-59300000D03*
X67000000Y-57700000D03*
X65400000Y-56900000D03*
X64600000Y-57700000D03*
X67000000Y-56900000D03*
X65400000Y-57700000D03*
X63800000Y-58500000D03*
X105650958Y-56960137D03*
%TO.N,/Uart3_TX*%
X80658578Y-54591422D03*
%TO.N,/UartTX_Enable*%
X96750000Y-54420000D03*
X96267843Y-52802157D03*
%TO.N,/Uart4_TX*%
X81539561Y-51900000D03*
%TO.N,/Uart2_RX*%
X89160439Y-51900000D03*
%TO.N,/Uart3_RX*%
X101100000Y-83000000D03*
%TO.N,14.4V*%
X51800000Y-88900000D03*
X52400000Y-94100000D03*
X79325000Y-65100000D03*
X50900000Y-89700000D03*
X60100000Y-78700000D03*
X59100000Y-78200000D03*
X58100000Y-78700000D03*
X82325000Y-65100000D03*
X77600000Y-77700000D03*
X60825000Y-65100000D03*
X58100000Y-77700000D03*
X79600000Y-77700000D03*
X50400000Y-94100000D03*
X78600000Y-78200000D03*
X63825000Y-65100000D03*
X61825000Y-65100000D03*
X80325000Y-65100000D03*
X52600000Y-89700000D03*
X81325000Y-72710000D03*
X51400000Y-93600000D03*
X52400000Y-93100000D03*
X77600000Y-78700000D03*
X83325000Y-65100000D03*
X81325000Y-65100000D03*
X50400000Y-93100000D03*
X102400000Y-84700000D03*
X79600000Y-78700000D03*
X59825000Y-65100000D03*
X52600000Y-88100000D03*
X61825000Y-72710000D03*
X60100000Y-77700000D03*
X62825000Y-65100000D03*
X50900000Y-88100000D03*
%TD*%
%TA.AperFunction,Conductor*%
%TO.N,GND*%
G36*
X108002854Y-46000632D02*
G01*
X108018811Y-46001369D01*
X108173088Y-46008502D01*
X108369795Y-46018166D01*
X108380787Y-46019201D01*
X108562876Y-46044601D01*
X108563781Y-46044732D01*
X108747261Y-46071949D01*
X108757413Y-46073892D01*
X108938614Y-46116510D01*
X108940023Y-46116852D01*
X109117874Y-46161401D01*
X109127091Y-46164096D01*
X109304478Y-46223550D01*
X109306618Y-46224292D01*
X109478220Y-46285692D01*
X109486519Y-46289004D01*
X109657980Y-46364712D01*
X109660909Y-46366051D01*
X109747263Y-46406892D01*
X109825119Y-46443715D01*
X109832411Y-46447465D01*
X109929135Y-46501341D01*
X109996435Y-46538827D01*
X109999810Y-46540777D01*
X110155371Y-46634017D01*
X110161670Y-46638058D01*
X110316699Y-46744256D01*
X110320459Y-46746935D01*
X110466009Y-46854882D01*
X110471305Y-46859040D01*
X110616009Y-46979200D01*
X110619947Y-46982617D01*
X110754206Y-47104303D01*
X110758590Y-47108478D01*
X110891520Y-47241408D01*
X110895698Y-47245795D01*
X111017375Y-47380045D01*
X111020805Y-47383998D01*
X111140951Y-47528684D01*
X111145124Y-47534000D01*
X111253041Y-47679509D01*
X111255742Y-47683299D01*
X111361940Y-47838328D01*
X111365992Y-47844645D01*
X111447509Y-47980648D01*
X111459200Y-48000153D01*
X111461171Y-48003563D01*
X111552525Y-48167573D01*
X111556291Y-48174896D01*
X111633947Y-48339089D01*
X111635286Y-48342018D01*
X111710994Y-48513479D01*
X111714311Y-48521791D01*
X111775666Y-48693265D01*
X111776487Y-48695634D01*
X111835894Y-48872881D01*
X111838606Y-48882157D01*
X111883104Y-49059803D01*
X111883526Y-49061543D01*
X111926101Y-49242562D01*
X111928053Y-49252758D01*
X111955257Y-49436156D01*
X111955410Y-49437218D01*
X111980794Y-49619184D01*
X111981834Y-49630232D01*
X111991512Y-49827238D01*
X111991529Y-49827595D01*
X111999368Y-49997145D01*
X111999500Y-50002872D01*
X111999500Y-98997127D01*
X111999368Y-99002854D01*
X111991529Y-99172404D01*
X111991512Y-99172761D01*
X111981834Y-99369766D01*
X111980794Y-99380814D01*
X111955410Y-99562780D01*
X111955257Y-99563842D01*
X111928053Y-99747240D01*
X111926101Y-99757436D01*
X111883526Y-99938455D01*
X111883104Y-99940195D01*
X111838606Y-100117841D01*
X111835894Y-100127117D01*
X111776487Y-100304364D01*
X111775666Y-100306733D01*
X111714311Y-100478207D01*
X111710994Y-100486519D01*
X111635286Y-100657980D01*
X111633947Y-100660909D01*
X111556291Y-100825102D01*
X111552525Y-100832425D01*
X111461171Y-100996435D01*
X111459200Y-100999845D01*
X111365999Y-101155342D01*
X111361940Y-101161670D01*
X111255742Y-101316699D01*
X111253041Y-101320489D01*
X111145135Y-101465984D01*
X111140935Y-101471334D01*
X111020851Y-101615947D01*
X111017331Y-101620004D01*
X110895717Y-101754183D01*
X110891520Y-101758590D01*
X110758590Y-101891520D01*
X110754183Y-101895717D01*
X110620004Y-102017331D01*
X110615947Y-102020851D01*
X110471334Y-102140935D01*
X110465984Y-102145135D01*
X110320489Y-102253041D01*
X110316699Y-102255742D01*
X110161670Y-102361940D01*
X110155342Y-102365999D01*
X109999845Y-102459200D01*
X109996435Y-102461171D01*
X109832425Y-102552525D01*
X109825102Y-102556291D01*
X109660909Y-102633947D01*
X109657980Y-102635286D01*
X109486519Y-102710994D01*
X109478207Y-102714311D01*
X109306733Y-102775666D01*
X109304364Y-102776487D01*
X109127117Y-102835894D01*
X109117841Y-102838606D01*
X108940195Y-102883104D01*
X108938455Y-102883526D01*
X108757436Y-102926101D01*
X108747240Y-102928053D01*
X108563842Y-102955257D01*
X108562780Y-102955410D01*
X108380814Y-102980794D01*
X108369766Y-102981834D01*
X108172931Y-102991503D01*
X108172575Y-102991520D01*
X108007393Y-102999158D01*
X108002854Y-102999368D01*
X107997128Y-102999500D01*
X50002872Y-102999500D01*
X49997145Y-102999368D01*
X49992305Y-102999144D01*
X49827423Y-102991520D01*
X49827067Y-102991503D01*
X49630232Y-102981834D01*
X49619184Y-102980794D01*
X49437218Y-102955410D01*
X49436156Y-102955257D01*
X49252758Y-102928053D01*
X49242562Y-102926101D01*
X49061543Y-102883526D01*
X49059803Y-102883104D01*
X48882157Y-102838606D01*
X48872881Y-102835894D01*
X48695634Y-102776487D01*
X48693265Y-102775666D01*
X48521791Y-102714311D01*
X48513479Y-102710994D01*
X48342018Y-102635286D01*
X48339089Y-102633947D01*
X48174896Y-102556291D01*
X48167573Y-102552525D01*
X48003563Y-102461171D01*
X48000153Y-102459200D01*
X47980648Y-102447509D01*
X47844645Y-102365992D01*
X47838328Y-102361940D01*
X47683299Y-102255742D01*
X47679509Y-102253041D01*
X47534000Y-102145124D01*
X47528684Y-102140951D01*
X47383998Y-102020805D01*
X47380045Y-102017375D01*
X47245795Y-101895698D01*
X47241408Y-101891520D01*
X47108478Y-101758590D01*
X47104303Y-101754206D01*
X46982617Y-101619947D01*
X46979200Y-101616009D01*
X46859040Y-101471305D01*
X46854882Y-101466009D01*
X46746935Y-101320459D01*
X46744256Y-101316699D01*
X46638058Y-101161670D01*
X46634017Y-101155371D01*
X46540777Y-100999810D01*
X46538827Y-100996435D01*
X46512261Y-100948740D01*
X46447465Y-100832411D01*
X46443715Y-100825119D01*
X46406892Y-100747263D01*
X46366051Y-100660909D01*
X46364712Y-100657980D01*
X46289004Y-100486519D01*
X46285692Y-100478220D01*
X46224292Y-100306618D01*
X46223550Y-100304478D01*
X46164096Y-100127091D01*
X46161401Y-100117874D01*
X46116852Y-99940023D01*
X46116510Y-99938614D01*
X46073892Y-99757413D01*
X46071949Y-99747261D01*
X46050343Y-99601604D01*
X58749500Y-99601604D01*
X58764699Y-99755932D01*
X58794734Y-99854944D01*
X58824768Y-99953954D01*
X58922315Y-100136450D01*
X58922317Y-100136452D01*
X59053589Y-100296410D01*
X59104124Y-100337882D01*
X59213550Y-100427685D01*
X59396046Y-100525232D01*
X59594066Y-100585300D01*
X59594065Y-100585300D01*
X59612529Y-100587118D01*
X59800000Y-100605583D01*
X60005934Y-100585300D01*
X60203954Y-100525232D01*
X60386450Y-100427685D01*
X60546410Y-100296410D01*
X60677685Y-100136450D01*
X60775232Y-99953954D01*
X60835300Y-99755934D01*
X60850500Y-99601608D01*
X60850500Y-99601604D01*
X68449500Y-99601604D01*
X68464699Y-99755932D01*
X68494734Y-99854944D01*
X68524768Y-99953954D01*
X68622315Y-100136450D01*
X68622317Y-100136452D01*
X68753589Y-100296410D01*
X68804124Y-100337882D01*
X68913550Y-100427685D01*
X69096046Y-100525232D01*
X69294066Y-100585300D01*
X69294065Y-100585300D01*
X69312529Y-100587118D01*
X69500000Y-100605583D01*
X69705934Y-100585300D01*
X69903954Y-100525232D01*
X70086450Y-100427685D01*
X70246410Y-100296410D01*
X70342545Y-100179269D01*
X74649500Y-100179269D01*
X74652353Y-100209699D01*
X74652353Y-100209701D01*
X74697206Y-100337880D01*
X74697207Y-100337882D01*
X74777850Y-100447150D01*
X74887118Y-100527793D01*
X74929845Y-100542744D01*
X75015299Y-100572646D01*
X75045730Y-100575500D01*
X75045734Y-100575500D01*
X76354270Y-100575500D01*
X76384699Y-100572646D01*
X76384701Y-100572646D01*
X76448790Y-100550219D01*
X76512882Y-100527793D01*
X76622150Y-100447150D01*
X76702793Y-100337882D01*
X76726052Y-100271410D01*
X76747646Y-100209701D01*
X76747646Y-100209699D01*
X76750500Y-100179269D01*
X76750500Y-99576608D01*
X77149500Y-99576608D01*
X77154502Y-99627398D01*
X77164699Y-99730932D01*
X77172739Y-99757436D01*
X77224768Y-99928954D01*
X77322315Y-100111450D01*
X77356969Y-100153677D01*
X77453589Y-100271410D01*
X77496491Y-100306618D01*
X77613550Y-100402685D01*
X77796046Y-100500232D01*
X77994066Y-100560300D01*
X77994065Y-100560300D01*
X78012529Y-100562118D01*
X78200000Y-100580583D01*
X78405934Y-100560300D01*
X78603954Y-100500232D01*
X78786450Y-100402685D01*
X78946410Y-100271410D01*
X79077685Y-100111450D01*
X79175232Y-99928954D01*
X79235300Y-99730934D01*
X79250500Y-99576608D01*
X79649500Y-99576608D01*
X79654502Y-99627398D01*
X79664699Y-99730932D01*
X79672739Y-99757436D01*
X79724768Y-99928954D01*
X79822315Y-100111450D01*
X79856969Y-100153677D01*
X79953589Y-100271410D01*
X79996491Y-100306618D01*
X80113550Y-100402685D01*
X80296046Y-100500232D01*
X80494066Y-100560300D01*
X80494065Y-100560300D01*
X80512529Y-100562118D01*
X80700000Y-100580583D01*
X80905934Y-100560300D01*
X81103954Y-100500232D01*
X81286450Y-100402685D01*
X81446410Y-100271410D01*
X81577685Y-100111450D01*
X81675232Y-99928954D01*
X81735300Y-99730934D01*
X81750500Y-99576608D01*
X82149500Y-99576608D01*
X82154502Y-99627398D01*
X82164699Y-99730932D01*
X82172739Y-99757436D01*
X82224768Y-99928954D01*
X82322315Y-100111450D01*
X82356969Y-100153677D01*
X82453589Y-100271410D01*
X82496491Y-100306618D01*
X82613550Y-100402685D01*
X82796046Y-100500232D01*
X82994066Y-100560300D01*
X82994065Y-100560300D01*
X83012529Y-100562118D01*
X83200000Y-100580583D01*
X83405934Y-100560300D01*
X83603954Y-100500232D01*
X83786450Y-100402685D01*
X83946410Y-100271410D01*
X84077685Y-100111450D01*
X84175232Y-99928954D01*
X84235300Y-99730934D01*
X84250500Y-99576608D01*
X84649500Y-99576608D01*
X84654502Y-99627398D01*
X84664699Y-99730932D01*
X84672739Y-99757436D01*
X84724768Y-99928954D01*
X84822315Y-100111450D01*
X84856969Y-100153677D01*
X84953589Y-100271410D01*
X84996491Y-100306618D01*
X85113550Y-100402685D01*
X85296046Y-100500232D01*
X85494066Y-100560300D01*
X85494065Y-100560300D01*
X85512529Y-100562118D01*
X85700000Y-100580583D01*
X85905934Y-100560300D01*
X86103954Y-100500232D01*
X86286450Y-100402685D01*
X86446410Y-100271410D01*
X86577685Y-100111450D01*
X86675232Y-99928954D01*
X86735300Y-99730934D01*
X86750500Y-99576608D01*
X93849500Y-99576608D01*
X93854502Y-99627398D01*
X93864699Y-99730932D01*
X93872739Y-99757436D01*
X93924768Y-99928954D01*
X94022315Y-100111450D01*
X94056969Y-100153677D01*
X94153589Y-100271410D01*
X94196491Y-100306618D01*
X94313550Y-100402685D01*
X94496046Y-100500232D01*
X94694066Y-100560300D01*
X94694065Y-100560300D01*
X94712529Y-100562118D01*
X94900000Y-100580583D01*
X95105934Y-100560300D01*
X95303954Y-100500232D01*
X95486450Y-100402685D01*
X95646410Y-100271410D01*
X95777685Y-100111450D01*
X95875232Y-99928954D01*
X95935300Y-99730934D01*
X95950500Y-99576608D01*
X96349500Y-99576608D01*
X96354502Y-99627398D01*
X96364699Y-99730932D01*
X96372739Y-99757436D01*
X96424768Y-99928954D01*
X96522315Y-100111450D01*
X96556969Y-100153677D01*
X96653589Y-100271410D01*
X96696491Y-100306618D01*
X96813550Y-100402685D01*
X96996046Y-100500232D01*
X97194066Y-100560300D01*
X97194065Y-100560300D01*
X97212529Y-100562118D01*
X97400000Y-100580583D01*
X97605934Y-100560300D01*
X97803954Y-100500232D01*
X97986450Y-100402685D01*
X98146410Y-100271410D01*
X98277685Y-100111450D01*
X98375232Y-99928954D01*
X98435300Y-99730934D01*
X98450500Y-99576608D01*
X98849500Y-99576608D01*
X98854502Y-99627398D01*
X98864699Y-99730932D01*
X98872739Y-99757436D01*
X98924768Y-99928954D01*
X99022315Y-100111450D01*
X99056969Y-100153677D01*
X99153589Y-100271410D01*
X99196491Y-100306618D01*
X99313550Y-100402685D01*
X99496046Y-100500232D01*
X99694066Y-100560300D01*
X99694065Y-100560300D01*
X99712529Y-100562118D01*
X99900000Y-100580583D01*
X100105934Y-100560300D01*
X100303954Y-100500232D01*
X100486450Y-100402685D01*
X100646410Y-100271410D01*
X100777685Y-100111450D01*
X100875232Y-99928954D01*
X100935300Y-99730934D01*
X100950500Y-99576608D01*
X100950500Y-99223392D01*
X100935300Y-99069066D01*
X100875232Y-98871046D01*
X100777685Y-98688550D01*
X100697052Y-98590298D01*
X100646410Y-98528589D01*
X100486452Y-98397317D01*
X100486453Y-98397317D01*
X100486450Y-98397315D01*
X100303954Y-98299768D01*
X100105934Y-98239700D01*
X100105932Y-98239699D01*
X100105934Y-98239699D01*
X99900000Y-98219417D01*
X99694067Y-98239699D01*
X99496043Y-98299769D01*
X99396737Y-98352850D01*
X99313550Y-98397315D01*
X99313548Y-98397316D01*
X99313547Y-98397317D01*
X99153589Y-98528589D01*
X99022317Y-98688547D01*
X98924769Y-98871043D01*
X98864699Y-99069067D01*
X98854522Y-99172403D01*
X98849500Y-99223392D01*
X98849500Y-99576608D01*
X98450500Y-99576608D01*
X98450500Y-99223392D01*
X98435300Y-99069066D01*
X98375232Y-98871046D01*
X98277685Y-98688550D01*
X98197052Y-98590298D01*
X98146410Y-98528589D01*
X97986452Y-98397317D01*
X97986453Y-98397317D01*
X97986450Y-98397315D01*
X97803954Y-98299768D01*
X97605934Y-98239700D01*
X97605932Y-98239699D01*
X97605934Y-98239699D01*
X97400000Y-98219417D01*
X97194067Y-98239699D01*
X96996043Y-98299769D01*
X96896737Y-98352850D01*
X96813550Y-98397315D01*
X96813548Y-98397316D01*
X96813547Y-98397317D01*
X96653589Y-98528589D01*
X96522317Y-98688547D01*
X96424769Y-98871043D01*
X96364699Y-99069067D01*
X96354522Y-99172403D01*
X96349500Y-99223392D01*
X96349500Y-99576608D01*
X95950500Y-99576608D01*
X95950500Y-99223392D01*
X95935300Y-99069066D01*
X95875232Y-98871046D01*
X95777685Y-98688550D01*
X95697052Y-98590298D01*
X95646410Y-98528589D01*
X95486452Y-98397317D01*
X95486453Y-98397317D01*
X95486450Y-98397315D01*
X95303954Y-98299768D01*
X95105934Y-98239700D01*
X95105932Y-98239699D01*
X95105934Y-98239699D01*
X94900000Y-98219417D01*
X94694067Y-98239699D01*
X94496043Y-98299769D01*
X94396737Y-98352850D01*
X94313550Y-98397315D01*
X94313548Y-98397316D01*
X94313547Y-98397317D01*
X94153589Y-98528589D01*
X94022317Y-98688547D01*
X93924769Y-98871043D01*
X93864699Y-99069067D01*
X93854522Y-99172403D01*
X93849500Y-99223392D01*
X93849500Y-99576608D01*
X86750500Y-99576608D01*
X86750500Y-99223392D01*
X86735300Y-99069066D01*
X86675232Y-98871046D01*
X86577685Y-98688550D01*
X86497052Y-98590298D01*
X86446410Y-98528589D01*
X86286452Y-98397317D01*
X86286453Y-98397317D01*
X86286450Y-98397315D01*
X86103954Y-98299768D01*
X85905934Y-98239700D01*
X85905932Y-98239699D01*
X85905934Y-98239699D01*
X85700000Y-98219417D01*
X85494067Y-98239699D01*
X85296043Y-98299769D01*
X85196737Y-98352850D01*
X85113550Y-98397315D01*
X85113548Y-98397316D01*
X85113547Y-98397317D01*
X84953589Y-98528589D01*
X84822317Y-98688547D01*
X84724769Y-98871043D01*
X84664699Y-99069067D01*
X84654522Y-99172403D01*
X84649500Y-99223392D01*
X84649500Y-99576608D01*
X84250500Y-99576608D01*
X84250500Y-99223392D01*
X84235300Y-99069066D01*
X84175232Y-98871046D01*
X84077685Y-98688550D01*
X83997052Y-98590298D01*
X83946410Y-98528589D01*
X83786452Y-98397317D01*
X83786453Y-98397317D01*
X83786450Y-98397315D01*
X83603954Y-98299768D01*
X83405934Y-98239700D01*
X83405932Y-98239699D01*
X83405934Y-98239699D01*
X83200000Y-98219417D01*
X82994067Y-98239699D01*
X82796043Y-98299769D01*
X82696737Y-98352850D01*
X82613550Y-98397315D01*
X82613548Y-98397316D01*
X82613547Y-98397317D01*
X82453589Y-98528589D01*
X82322317Y-98688547D01*
X82224769Y-98871043D01*
X82164699Y-99069067D01*
X82154522Y-99172403D01*
X82149500Y-99223392D01*
X82149500Y-99576608D01*
X81750500Y-99576608D01*
X81750500Y-99223392D01*
X81735300Y-99069066D01*
X81675232Y-98871046D01*
X81577685Y-98688550D01*
X81497052Y-98590298D01*
X81446410Y-98528589D01*
X81286452Y-98397317D01*
X81286453Y-98397317D01*
X81286450Y-98397315D01*
X81103954Y-98299768D01*
X80905934Y-98239700D01*
X80905932Y-98239699D01*
X80905934Y-98239699D01*
X80700000Y-98219417D01*
X80494067Y-98239699D01*
X80296043Y-98299769D01*
X80196737Y-98352850D01*
X80113550Y-98397315D01*
X80113548Y-98397316D01*
X80113547Y-98397317D01*
X79953589Y-98528589D01*
X79822317Y-98688547D01*
X79724769Y-98871043D01*
X79664699Y-99069067D01*
X79654522Y-99172403D01*
X79649500Y-99223392D01*
X79649500Y-99576608D01*
X79250500Y-99576608D01*
X79250500Y-99223392D01*
X79235300Y-99069066D01*
X79175232Y-98871046D01*
X79077685Y-98688550D01*
X78997052Y-98590298D01*
X78946410Y-98528589D01*
X78786452Y-98397317D01*
X78786453Y-98397317D01*
X78786450Y-98397315D01*
X78603954Y-98299768D01*
X78405934Y-98239700D01*
X78405932Y-98239699D01*
X78405934Y-98239699D01*
X78200000Y-98219417D01*
X77994067Y-98239699D01*
X77796043Y-98299769D01*
X77696737Y-98352850D01*
X77613550Y-98397315D01*
X77613548Y-98397316D01*
X77613547Y-98397317D01*
X77453589Y-98528589D01*
X77322317Y-98688547D01*
X77224769Y-98871043D01*
X77164699Y-99069067D01*
X77154522Y-99172403D01*
X77149500Y-99223392D01*
X77149500Y-99576608D01*
X76750500Y-99576608D01*
X76750500Y-98620730D01*
X76747646Y-98590300D01*
X76747646Y-98590298D01*
X76702793Y-98462119D01*
X76702792Y-98462117D01*
X76622150Y-98352850D01*
X76512882Y-98272207D01*
X76512880Y-98272206D01*
X76384700Y-98227353D01*
X76354270Y-98224500D01*
X76354266Y-98224500D01*
X75045734Y-98224500D01*
X75045730Y-98224500D01*
X75015300Y-98227353D01*
X75015298Y-98227353D01*
X74887119Y-98272206D01*
X74887117Y-98272207D01*
X74777850Y-98352850D01*
X74697207Y-98462117D01*
X74697206Y-98462119D01*
X74652353Y-98590298D01*
X74652353Y-98590300D01*
X74649500Y-98620730D01*
X74649500Y-100179269D01*
X70342545Y-100179269D01*
X70377685Y-100136450D01*
X70475232Y-99953954D01*
X70535300Y-99755934D01*
X70550500Y-99601608D01*
X70550500Y-99198392D01*
X70535300Y-99044066D01*
X70475232Y-98846046D01*
X70377685Y-98663550D01*
X70325702Y-98600209D01*
X70246410Y-98503589D01*
X70086452Y-98372317D01*
X70086453Y-98372317D01*
X70086450Y-98372315D01*
X69903954Y-98274768D01*
X69705934Y-98214700D01*
X69705932Y-98214699D01*
X69705934Y-98214699D01*
X69500000Y-98194417D01*
X69294067Y-98214699D01*
X69096043Y-98274769D01*
X68985898Y-98333643D01*
X68913550Y-98372315D01*
X68913548Y-98372316D01*
X68913547Y-98372317D01*
X68753589Y-98503589D01*
X68622317Y-98663547D01*
X68524769Y-98846043D01*
X68464699Y-99044067D01*
X68453251Y-99160298D01*
X68452025Y-99172761D01*
X68449500Y-99198395D01*
X68449500Y-99601604D01*
X60850500Y-99601604D01*
X60850500Y-99198392D01*
X60835300Y-99044066D01*
X60775232Y-98846046D01*
X60677685Y-98663550D01*
X60625702Y-98600209D01*
X60546410Y-98503589D01*
X60386452Y-98372317D01*
X60386453Y-98372317D01*
X60386450Y-98372315D01*
X60203954Y-98274768D01*
X60005934Y-98214700D01*
X60005932Y-98214699D01*
X60005934Y-98214699D01*
X59800000Y-98194417D01*
X59594067Y-98214699D01*
X59396043Y-98274769D01*
X59285898Y-98333643D01*
X59213550Y-98372315D01*
X59213548Y-98372316D01*
X59213547Y-98372317D01*
X59053589Y-98503589D01*
X58922317Y-98663547D01*
X58824769Y-98846043D01*
X58764699Y-99044067D01*
X58753251Y-99160298D01*
X58752025Y-99172761D01*
X58749500Y-99198395D01*
X58749500Y-99601604D01*
X46050343Y-99601604D01*
X46044732Y-99563781D01*
X46044588Y-99562780D01*
X46019201Y-99380787D01*
X46018166Y-99369795D01*
X46008480Y-99172611D01*
X46000632Y-99002854D01*
X46000500Y-98997128D01*
X46000500Y-94700000D01*
X103494785Y-94700000D01*
X103513602Y-94903082D01*
X103569417Y-95099247D01*
X103569422Y-95099260D01*
X103660327Y-95281821D01*
X103783237Y-95444581D01*
X103933958Y-95581980D01*
X103933960Y-95581982D01*
X104033141Y-95643392D01*
X104107363Y-95689348D01*
X104297544Y-95763024D01*
X104498024Y-95800500D01*
X104498026Y-95800500D01*
X104701974Y-95800500D01*
X104701976Y-95800500D01*
X104902456Y-95763024D01*
X105092637Y-95689348D01*
X105266041Y-95581981D01*
X105416764Y-95444579D01*
X105539673Y-95281821D01*
X105630582Y-95099250D01*
X105686397Y-94903083D01*
X105705215Y-94700000D01*
X105686397Y-94496917D01*
X105630582Y-94300750D01*
X105610440Y-94260300D01*
X105544406Y-94127685D01*
X105539673Y-94118179D01*
X105450441Y-94000017D01*
X105416762Y-93955418D01*
X105266041Y-93818019D01*
X105266039Y-93818017D01*
X105092642Y-93710655D01*
X105092635Y-93710651D01*
X104997546Y-93673814D01*
X104902456Y-93636976D01*
X104701976Y-93599500D01*
X104498024Y-93599500D01*
X104297544Y-93636976D01*
X104297541Y-93636976D01*
X104297541Y-93636977D01*
X104107364Y-93710651D01*
X104107357Y-93710655D01*
X103933960Y-93818017D01*
X103933958Y-93818019D01*
X103783237Y-93955418D01*
X103660327Y-94118178D01*
X103569422Y-94300739D01*
X103569417Y-94300752D01*
X103513602Y-94496917D01*
X103494785Y-94699999D01*
X103494785Y-94700000D01*
X46000500Y-94700000D01*
X46000500Y-94100000D01*
X49894353Y-94100000D01*
X49914834Y-94242456D01*
X49943664Y-94305583D01*
X49974623Y-94373373D01*
X50068872Y-94482143D01*
X50189947Y-94559953D01*
X50189950Y-94559954D01*
X50189949Y-94559954D01*
X50328036Y-94600499D01*
X50328038Y-94600500D01*
X50328039Y-94600500D01*
X50471962Y-94600500D01*
X50471962Y-94600499D01*
X50610053Y-94559953D01*
X50731128Y-94482143D01*
X50825377Y-94373373D01*
X50885165Y-94242457D01*
X50905647Y-94100000D01*
X50905646Y-94099999D01*
X50906909Y-94091222D01*
X50909392Y-94091579D01*
X50925332Y-94037294D01*
X50978136Y-93991539D01*
X51047294Y-93981595D01*
X51096684Y-94000017D01*
X51154174Y-94036963D01*
X51189948Y-94059954D01*
X51308108Y-94094647D01*
X51326336Y-94100000D01*
X51328036Y-94100499D01*
X51328038Y-94100500D01*
X51328039Y-94100500D01*
X51471962Y-94100500D01*
X51471962Y-94100499D01*
X51610050Y-94059954D01*
X51610051Y-94059954D01*
X51610053Y-94059953D01*
X51703314Y-94000017D01*
X51770353Y-93980333D01*
X51837392Y-94000017D01*
X51883147Y-94052821D01*
X51891549Y-94091443D01*
X51893091Y-94091222D01*
X51914834Y-94242456D01*
X51943664Y-94305583D01*
X51974623Y-94373373D01*
X52068872Y-94482143D01*
X52189947Y-94559953D01*
X52189950Y-94559954D01*
X52189949Y-94559954D01*
X52328036Y-94600499D01*
X52328038Y-94600500D01*
X52328039Y-94600500D01*
X52471962Y-94600500D01*
X52471962Y-94600499D01*
X52610053Y-94559953D01*
X52731128Y-94482143D01*
X52825377Y-94373373D01*
X52885165Y-94242457D01*
X52905647Y-94100000D01*
X52885165Y-93957543D01*
X52825377Y-93826627D01*
X52731128Y-93717857D01*
X52731125Y-93717855D01*
X52731125Y-93717854D01*
X52710058Y-93704316D01*
X52664302Y-93651513D01*
X52654358Y-93582354D01*
X52683382Y-93518798D01*
X52710058Y-93495684D01*
X52731125Y-93482145D01*
X52731125Y-93482144D01*
X52731128Y-93482143D01*
X52825377Y-93373373D01*
X52858153Y-93301604D01*
X58749500Y-93301604D01*
X58764699Y-93455932D01*
X58772651Y-93482145D01*
X58824768Y-93653954D01*
X58922315Y-93836450D01*
X58922317Y-93836452D01*
X59053589Y-93996410D01*
X59122327Y-94052821D01*
X59213550Y-94127685D01*
X59396046Y-94225232D01*
X59594066Y-94285300D01*
X59594065Y-94285300D01*
X59612529Y-94287118D01*
X59800000Y-94305583D01*
X60005934Y-94285300D01*
X60203954Y-94225232D01*
X60386450Y-94127685D01*
X60546410Y-93996410D01*
X60677685Y-93836450D01*
X60775232Y-93653954D01*
X60835300Y-93455934D01*
X60850500Y-93301608D01*
X60850500Y-93301604D01*
X68449500Y-93301604D01*
X68464699Y-93455932D01*
X68472651Y-93482145D01*
X68524768Y-93653954D01*
X68622315Y-93836450D01*
X68622317Y-93836452D01*
X68753589Y-93996410D01*
X68822327Y-94052821D01*
X68913550Y-94127685D01*
X69096046Y-94225232D01*
X69294066Y-94285300D01*
X69294065Y-94285300D01*
X69312529Y-94287118D01*
X69500000Y-94305583D01*
X69705934Y-94285300D01*
X69903954Y-94225232D01*
X70086450Y-94127685D01*
X70246410Y-93996410D01*
X70377685Y-93836450D01*
X70475232Y-93653954D01*
X70535300Y-93455934D01*
X70550500Y-93301608D01*
X70550500Y-93276608D01*
X77149500Y-93276608D01*
X77154427Y-93326627D01*
X77164699Y-93430932D01*
X77184341Y-93495684D01*
X77224768Y-93628954D01*
X77322315Y-93811450D01*
X77356969Y-93853677D01*
X77453589Y-93971410D01*
X77488449Y-94000018D01*
X77613550Y-94102685D01*
X77796046Y-94200232D01*
X77994066Y-94260300D01*
X77994065Y-94260300D01*
X78012529Y-94262118D01*
X78200000Y-94280583D01*
X78405934Y-94260300D01*
X78603954Y-94200232D01*
X78786450Y-94102685D01*
X78946410Y-93971410D01*
X79077685Y-93811450D01*
X79175232Y-93628954D01*
X79235300Y-93430934D01*
X79250500Y-93276608D01*
X84649500Y-93276608D01*
X84654427Y-93326627D01*
X84664699Y-93430932D01*
X84684341Y-93495684D01*
X84724768Y-93628954D01*
X84822315Y-93811450D01*
X84856969Y-93853677D01*
X84953589Y-93971410D01*
X84988449Y-94000018D01*
X85113550Y-94102685D01*
X85296046Y-94200232D01*
X85494066Y-94260300D01*
X85494065Y-94260300D01*
X85512529Y-94262118D01*
X85700000Y-94280583D01*
X85905934Y-94260300D01*
X86103954Y-94200232D01*
X86286450Y-94102685D01*
X86446410Y-93971410D01*
X86577685Y-93811450D01*
X86675232Y-93628954D01*
X86735300Y-93430934D01*
X86750500Y-93276608D01*
X93849500Y-93276608D01*
X93854427Y-93326627D01*
X93864699Y-93430932D01*
X93884341Y-93495684D01*
X93924768Y-93628954D01*
X94022315Y-93811450D01*
X94056969Y-93853677D01*
X94153589Y-93971410D01*
X94188449Y-94000018D01*
X94313550Y-94102685D01*
X94496046Y-94200232D01*
X94694066Y-94260300D01*
X94694065Y-94260300D01*
X94712529Y-94262118D01*
X94900000Y-94280583D01*
X95105934Y-94260300D01*
X95303954Y-94200232D01*
X95486450Y-94102685D01*
X95646410Y-93971410D01*
X95777685Y-93811450D01*
X95875232Y-93628954D01*
X95935300Y-93430934D01*
X95950500Y-93276608D01*
X96349500Y-93276608D01*
X96354427Y-93326627D01*
X96364699Y-93430932D01*
X96384341Y-93495684D01*
X96424768Y-93628954D01*
X96522315Y-93811450D01*
X96556969Y-93853677D01*
X96653589Y-93971410D01*
X96688449Y-94000018D01*
X96813550Y-94102685D01*
X96996046Y-94200232D01*
X97194066Y-94260300D01*
X97194065Y-94260300D01*
X97212529Y-94262118D01*
X97400000Y-94280583D01*
X97605934Y-94260300D01*
X97803954Y-94200232D01*
X97986450Y-94102685D01*
X98146410Y-93971410D01*
X98277685Y-93811450D01*
X98375232Y-93628954D01*
X98435300Y-93430934D01*
X98450500Y-93276608D01*
X98849500Y-93276608D01*
X98854427Y-93326627D01*
X98864699Y-93430932D01*
X98884341Y-93495684D01*
X98924768Y-93628954D01*
X99022315Y-93811450D01*
X99056969Y-93853677D01*
X99153589Y-93971410D01*
X99188449Y-94000018D01*
X99313550Y-94102685D01*
X99496046Y-94200232D01*
X99694066Y-94260300D01*
X99694065Y-94260300D01*
X99712529Y-94262118D01*
X99900000Y-94280583D01*
X100105934Y-94260300D01*
X100303954Y-94200232D01*
X100486450Y-94102685D01*
X100646410Y-93971410D01*
X100777685Y-93811450D01*
X100875232Y-93628954D01*
X100935300Y-93430934D01*
X100950500Y-93276608D01*
X100950500Y-92923392D01*
X100935300Y-92769066D01*
X100875232Y-92571046D01*
X100777685Y-92388550D01*
X100725702Y-92325209D01*
X100646410Y-92228589D01*
X100486452Y-92097317D01*
X100486453Y-92097317D01*
X100486450Y-92097315D01*
X100304388Y-92000000D01*
X103494785Y-92000000D01*
X103513602Y-92203082D01*
X103569417Y-92399247D01*
X103569422Y-92399260D01*
X103660327Y-92581821D01*
X103783237Y-92744581D01*
X103933958Y-92881980D01*
X103933960Y-92881982D01*
X104000840Y-92923392D01*
X104107363Y-92989348D01*
X104297544Y-93063024D01*
X104498024Y-93100500D01*
X104498026Y-93100500D01*
X104701974Y-93100500D01*
X104701976Y-93100500D01*
X104902456Y-93063024D01*
X105092637Y-92989348D01*
X105266041Y-92881981D01*
X105416764Y-92744579D01*
X105539673Y-92581821D01*
X105630582Y-92399250D01*
X105686397Y-92203083D01*
X105705215Y-92000000D01*
X105686397Y-91796917D01*
X105630582Y-91600750D01*
X105539673Y-91418179D01*
X105416764Y-91255421D01*
X105416762Y-91255418D01*
X105266041Y-91118019D01*
X105266039Y-91118017D01*
X105092642Y-91010655D01*
X105092635Y-91010651D01*
X104997546Y-90973814D01*
X104902456Y-90936976D01*
X104701976Y-90899500D01*
X104498024Y-90899500D01*
X104297544Y-90936976D01*
X104297541Y-90936976D01*
X104297541Y-90936977D01*
X104107364Y-91010651D01*
X104107357Y-91010655D01*
X103933960Y-91118017D01*
X103933958Y-91118019D01*
X103783237Y-91255418D01*
X103660327Y-91418178D01*
X103569422Y-91600739D01*
X103569417Y-91600752D01*
X103513602Y-91796917D01*
X103494785Y-91999999D01*
X103494785Y-92000000D01*
X100304388Y-92000000D01*
X100303954Y-91999768D01*
X100105934Y-91939700D01*
X100105932Y-91939699D01*
X100105934Y-91939699D01*
X99900000Y-91919417D01*
X99694067Y-91939699D01*
X99496043Y-91999769D01*
X99385898Y-92058643D01*
X99313550Y-92097315D01*
X99313548Y-92097316D01*
X99313547Y-92097317D01*
X99153589Y-92228589D01*
X99022317Y-92388547D01*
X99022315Y-92388550D01*
X98983643Y-92460898D01*
X98924769Y-92571043D01*
X98924768Y-92571045D01*
X98924768Y-92571046D01*
X98917898Y-92593692D01*
X98864699Y-92769067D01*
X98853579Y-92881980D01*
X98849500Y-92923392D01*
X98849500Y-93276608D01*
X98450500Y-93276608D01*
X98450500Y-92923392D01*
X98435300Y-92769066D01*
X98375232Y-92571046D01*
X98277685Y-92388550D01*
X98225702Y-92325209D01*
X98146410Y-92228589D01*
X97986452Y-92097317D01*
X97986453Y-92097317D01*
X97986450Y-92097315D01*
X97803954Y-91999768D01*
X97605934Y-91939700D01*
X97605932Y-91939699D01*
X97605934Y-91939699D01*
X97400000Y-91919417D01*
X97194067Y-91939699D01*
X96996043Y-91999769D01*
X96885898Y-92058643D01*
X96813550Y-92097315D01*
X96813548Y-92097316D01*
X96813547Y-92097317D01*
X96653589Y-92228589D01*
X96522317Y-92388547D01*
X96522315Y-92388550D01*
X96483643Y-92460898D01*
X96424769Y-92571043D01*
X96424768Y-92571045D01*
X96424768Y-92571046D01*
X96417898Y-92593692D01*
X96364699Y-92769067D01*
X96353579Y-92881980D01*
X96349500Y-92923392D01*
X96349500Y-93276608D01*
X95950500Y-93276608D01*
X95950500Y-92923392D01*
X95935300Y-92769066D01*
X95875232Y-92571046D01*
X95777685Y-92388550D01*
X95725702Y-92325209D01*
X95646410Y-92228589D01*
X95486452Y-92097317D01*
X95486453Y-92097317D01*
X95486450Y-92097315D01*
X95303954Y-91999768D01*
X95105934Y-91939700D01*
X95105932Y-91939699D01*
X95105934Y-91939699D01*
X94900000Y-91919417D01*
X94694067Y-91939699D01*
X94496043Y-91999769D01*
X94385898Y-92058643D01*
X94313550Y-92097315D01*
X94313548Y-92097316D01*
X94313547Y-92097317D01*
X94153589Y-92228589D01*
X94022317Y-92388547D01*
X94022315Y-92388550D01*
X93983643Y-92460898D01*
X93924769Y-92571043D01*
X93924768Y-92571045D01*
X93924768Y-92571046D01*
X93917898Y-92593692D01*
X93864699Y-92769067D01*
X93853579Y-92881980D01*
X93849500Y-92923392D01*
X93849500Y-93276608D01*
X86750500Y-93276608D01*
X86750500Y-92923392D01*
X86735300Y-92769066D01*
X86675232Y-92571046D01*
X86577685Y-92388550D01*
X86525702Y-92325209D01*
X86446410Y-92228589D01*
X86286452Y-92097317D01*
X86286453Y-92097317D01*
X86286450Y-92097315D01*
X86103954Y-91999768D01*
X85905934Y-91939700D01*
X85905932Y-91939699D01*
X85905934Y-91939699D01*
X85700000Y-91919417D01*
X85494067Y-91939699D01*
X85296043Y-91999769D01*
X85185898Y-92058643D01*
X85113550Y-92097315D01*
X85113548Y-92097316D01*
X85113547Y-92097317D01*
X84953589Y-92228589D01*
X84822317Y-92388547D01*
X84822315Y-92388550D01*
X84783643Y-92460898D01*
X84724769Y-92571043D01*
X84724768Y-92571045D01*
X84724768Y-92571046D01*
X84717898Y-92593692D01*
X84664699Y-92769067D01*
X84653579Y-92881980D01*
X84649500Y-92923392D01*
X84649500Y-93276608D01*
X79250500Y-93276608D01*
X79250500Y-92923392D01*
X79235300Y-92769066D01*
X79175232Y-92571046D01*
X79077685Y-92388550D01*
X79025702Y-92325209D01*
X78946410Y-92228589D01*
X78786452Y-92097317D01*
X78786453Y-92097317D01*
X78786450Y-92097315D01*
X78603954Y-91999768D01*
X78405934Y-91939700D01*
X78405932Y-91939699D01*
X78405934Y-91939699D01*
X78200000Y-91919417D01*
X77994067Y-91939699D01*
X77796043Y-91999769D01*
X77685898Y-92058643D01*
X77613550Y-92097315D01*
X77613548Y-92097316D01*
X77613547Y-92097317D01*
X77453589Y-92228589D01*
X77322317Y-92388547D01*
X77322315Y-92388550D01*
X77283643Y-92460898D01*
X77224769Y-92571043D01*
X77224768Y-92571045D01*
X77224768Y-92571046D01*
X77217898Y-92593692D01*
X77164699Y-92769067D01*
X77153579Y-92881980D01*
X77149500Y-92923392D01*
X77149500Y-93276608D01*
X70550500Y-93276608D01*
X70550500Y-92898392D01*
X70535300Y-92744066D01*
X70475232Y-92546046D01*
X70377685Y-92363550D01*
X70266927Y-92228590D01*
X70246410Y-92203589D01*
X70086452Y-92072317D01*
X70086453Y-92072317D01*
X70086450Y-92072315D01*
X69903954Y-91974768D01*
X69705934Y-91914700D01*
X69705932Y-91914699D01*
X69705934Y-91914699D01*
X69500000Y-91894417D01*
X69294067Y-91914699D01*
X69096043Y-91974769D01*
X68985898Y-92033643D01*
X68913550Y-92072315D01*
X68913548Y-92072316D01*
X68913547Y-92072317D01*
X68753589Y-92203589D01*
X68622317Y-92363547D01*
X68622315Y-92363550D01*
X68583643Y-92435898D01*
X68524769Y-92546043D01*
X68464699Y-92744067D01*
X68456568Y-92826626D01*
X68451117Y-92881981D01*
X68449500Y-92898395D01*
X68449500Y-93301604D01*
X60850500Y-93301604D01*
X60850500Y-92898392D01*
X60835300Y-92744066D01*
X60775232Y-92546046D01*
X60677685Y-92363550D01*
X60566927Y-92228590D01*
X60546410Y-92203589D01*
X60386452Y-92072317D01*
X60386453Y-92072317D01*
X60386450Y-92072315D01*
X60203954Y-91974768D01*
X60005934Y-91914700D01*
X60005932Y-91914699D01*
X60005934Y-91914699D01*
X59800000Y-91894417D01*
X59594067Y-91914699D01*
X59396043Y-91974769D01*
X59285898Y-92033643D01*
X59213550Y-92072315D01*
X59213548Y-92072316D01*
X59213547Y-92072317D01*
X59053589Y-92203589D01*
X58922317Y-92363547D01*
X58922315Y-92363550D01*
X58883643Y-92435898D01*
X58824769Y-92546043D01*
X58764699Y-92744067D01*
X58756568Y-92826626D01*
X58751117Y-92881981D01*
X58749500Y-92898395D01*
X58749500Y-93301604D01*
X52858153Y-93301604D01*
X52885165Y-93242457D01*
X52905647Y-93100000D01*
X52885165Y-92957543D01*
X52825377Y-92826627D01*
X52731128Y-92717857D01*
X52610053Y-92640047D01*
X52610051Y-92640046D01*
X52610049Y-92640045D01*
X52610050Y-92640045D01*
X52471963Y-92599500D01*
X52471961Y-92599500D01*
X52328039Y-92599500D01*
X52328036Y-92599500D01*
X52189949Y-92640045D01*
X52068873Y-92717856D01*
X51974623Y-92826626D01*
X51974622Y-92826628D01*
X51914834Y-92957543D01*
X51893091Y-93108778D01*
X51890607Y-93108420D01*
X51874668Y-93162705D01*
X51821864Y-93208460D01*
X51752706Y-93218404D01*
X51703314Y-93199982D01*
X51693327Y-93193564D01*
X51610053Y-93140047D01*
X51610051Y-93140046D01*
X51610049Y-93140045D01*
X51610050Y-93140045D01*
X51471963Y-93099500D01*
X51471961Y-93099500D01*
X51328039Y-93099500D01*
X51328036Y-93099500D01*
X51189949Y-93140045D01*
X51096686Y-93199982D01*
X51029647Y-93219666D01*
X50962607Y-93199981D01*
X50916852Y-93147177D01*
X50908450Y-93108556D01*
X50906909Y-93108778D01*
X50885165Y-92957543D01*
X50869570Y-92923395D01*
X50825377Y-92826627D01*
X50731128Y-92717857D01*
X50610053Y-92640047D01*
X50610051Y-92640046D01*
X50610049Y-92640045D01*
X50610050Y-92640045D01*
X50471963Y-92599500D01*
X50471961Y-92599500D01*
X50328039Y-92599500D01*
X50328036Y-92599500D01*
X50189949Y-92640045D01*
X50068873Y-92717856D01*
X49974623Y-92826626D01*
X49974622Y-92826628D01*
X49914834Y-92957543D01*
X49894353Y-93100000D01*
X49914834Y-93242456D01*
X49974622Y-93373371D01*
X49974623Y-93373373D01*
X50068872Y-93482143D01*
X50076324Y-93486932D01*
X50089943Y-93495685D01*
X50135698Y-93548489D01*
X50145641Y-93617648D01*
X50116615Y-93681203D01*
X50089943Y-93704315D01*
X50068874Y-93717855D01*
X49974623Y-93826626D01*
X49974622Y-93826628D01*
X49914834Y-93957543D01*
X49894353Y-94100000D01*
X46000500Y-94100000D01*
X46000500Y-89700000D01*
X50394353Y-89700000D01*
X50414834Y-89842456D01*
X50432812Y-89881821D01*
X50474623Y-89973373D01*
X50568872Y-90082143D01*
X50689947Y-90159953D01*
X50689950Y-90159954D01*
X50689949Y-90159954D01*
X50828036Y-90200499D01*
X50828038Y-90200500D01*
X50828039Y-90200500D01*
X50971962Y-90200500D01*
X50971962Y-90200499D01*
X51110053Y-90159953D01*
X51231128Y-90082143D01*
X51325377Y-89973373D01*
X51385165Y-89842457D01*
X51405647Y-89700000D01*
X51385165Y-89557543D01*
X51347804Y-89475736D01*
X51337861Y-89406578D01*
X51366886Y-89343023D01*
X51425664Y-89305248D01*
X51495533Y-89305248D01*
X51527639Y-89319910D01*
X51589948Y-89359954D01*
X51728036Y-89400499D01*
X51728038Y-89400500D01*
X51728039Y-89400500D01*
X51871961Y-89400500D01*
X51974749Y-89370319D01*
X52044618Y-89370319D01*
X52103396Y-89408093D01*
X52132421Y-89471649D01*
X52122479Y-89540805D01*
X52114834Y-89557544D01*
X52094353Y-89700000D01*
X52114834Y-89842456D01*
X52132812Y-89881821D01*
X52174623Y-89973373D01*
X52268872Y-90082143D01*
X52389947Y-90159953D01*
X52389950Y-90159954D01*
X52389949Y-90159954D01*
X52528036Y-90200499D01*
X52528038Y-90200500D01*
X52528039Y-90200500D01*
X52671962Y-90200500D01*
X52671962Y-90200499D01*
X52810053Y-90159953D01*
X52931128Y-90082143D01*
X53025377Y-89973373D01*
X53085165Y-89842457D01*
X53105647Y-89700000D01*
X53085165Y-89557543D01*
X53025377Y-89426627D01*
X52931128Y-89317857D01*
X52810053Y-89240047D01*
X52810051Y-89240046D01*
X52810049Y-89240045D01*
X52810050Y-89240045D01*
X52671963Y-89199500D01*
X52671961Y-89199500D01*
X52528039Y-89199500D01*
X52528035Y-89199500D01*
X52425250Y-89229680D01*
X52355380Y-89229680D01*
X52296602Y-89191905D01*
X52267578Y-89128349D01*
X52277521Y-89059193D01*
X52285165Y-89042457D01*
X52305647Y-88900000D01*
X61894353Y-88900000D01*
X61914834Y-89042456D01*
X61914835Y-89042458D01*
X61974623Y-89173373D01*
X62068872Y-89282143D01*
X62189947Y-89359953D01*
X62189950Y-89359954D01*
X62189949Y-89359954D01*
X62328036Y-89400499D01*
X62328038Y-89400500D01*
X62328039Y-89400500D01*
X62471962Y-89400500D01*
X62471962Y-89400499D01*
X62610053Y-89359953D01*
X62731128Y-89282143D01*
X62825377Y-89173373D01*
X62885165Y-89042457D01*
X62905647Y-88900000D01*
X62891269Y-88800000D01*
X70694353Y-88800000D01*
X70714834Y-88942456D01*
X70760504Y-89042457D01*
X70774623Y-89073373D01*
X70868872Y-89182143D01*
X70989947Y-89259953D01*
X70989950Y-89259954D01*
X70989949Y-89259954D01*
X71058528Y-89280090D01*
X71126336Y-89300000D01*
X71128036Y-89300499D01*
X71128038Y-89300500D01*
X71128039Y-89300500D01*
X71271962Y-89300500D01*
X71271962Y-89300499D01*
X71410053Y-89259953D01*
X71531128Y-89182143D01*
X71625377Y-89073373D01*
X71685165Y-88942457D01*
X71705647Y-88800000D01*
X79494353Y-88800000D01*
X79514834Y-88942456D01*
X79560504Y-89042457D01*
X79574623Y-89073373D01*
X79668872Y-89182143D01*
X79789947Y-89259953D01*
X79789950Y-89259954D01*
X79789949Y-89259954D01*
X79858528Y-89280090D01*
X79926336Y-89300000D01*
X79928036Y-89300499D01*
X79928038Y-89300500D01*
X79928039Y-89300500D01*
X80071962Y-89300500D01*
X80071962Y-89300499D01*
X80210053Y-89259953D01*
X80331128Y-89182143D01*
X80425377Y-89073373D01*
X80485165Y-88942457D01*
X80505647Y-88800000D01*
X88294353Y-88800000D01*
X88314834Y-88942456D01*
X88360504Y-89042457D01*
X88374623Y-89073373D01*
X88468872Y-89182143D01*
X88589947Y-89259953D01*
X88589950Y-89259954D01*
X88589949Y-89259954D01*
X88658528Y-89280090D01*
X88726336Y-89300000D01*
X88728036Y-89300499D01*
X88728038Y-89300500D01*
X88728039Y-89300500D01*
X88871962Y-89300500D01*
X88871962Y-89300499D01*
X88873661Y-89300000D01*
X103494785Y-89300000D01*
X103513602Y-89503082D01*
X103569417Y-89699247D01*
X103569422Y-89699260D01*
X103660327Y-89881821D01*
X103783237Y-90044581D01*
X103933958Y-90181980D01*
X103933960Y-90181982D01*
X103963868Y-90200500D01*
X104107363Y-90289348D01*
X104297544Y-90363024D01*
X104498024Y-90400500D01*
X104498026Y-90400500D01*
X104701974Y-90400500D01*
X104701976Y-90400500D01*
X104902456Y-90363024D01*
X105092637Y-90289348D01*
X105266041Y-90181981D01*
X105416764Y-90044579D01*
X105539673Y-89881821D01*
X105630582Y-89699250D01*
X105686397Y-89503083D01*
X105705215Y-89300000D01*
X105699659Y-89240045D01*
X105686397Y-89096917D01*
X105679698Y-89073373D01*
X105630582Y-88900750D01*
X105539673Y-88718179D01*
X105470536Y-88626627D01*
X105416762Y-88555418D01*
X105266041Y-88418019D01*
X105266039Y-88418017D01*
X105092642Y-88310655D01*
X105092635Y-88310651D01*
X104997546Y-88273814D01*
X104902456Y-88236976D01*
X104701976Y-88199500D01*
X104498024Y-88199500D01*
X104297544Y-88236976D01*
X104297541Y-88236976D01*
X104297541Y-88236977D01*
X104107364Y-88310651D01*
X104107357Y-88310655D01*
X103933960Y-88418017D01*
X103933958Y-88418019D01*
X103783237Y-88555418D01*
X103660327Y-88718178D01*
X103569422Y-88900739D01*
X103569417Y-88900752D01*
X103513602Y-89096917D01*
X103494785Y-89299999D01*
X103494785Y-89300000D01*
X88873661Y-89300000D01*
X89010053Y-89259953D01*
X89131128Y-89182143D01*
X89225377Y-89073373D01*
X89285165Y-88942457D01*
X89305647Y-88800000D01*
X89285165Y-88657543D01*
X89225377Y-88526627D01*
X89131128Y-88417857D01*
X89010053Y-88340047D01*
X89010051Y-88340046D01*
X89010049Y-88340045D01*
X89010050Y-88340045D01*
X88871963Y-88299500D01*
X88871961Y-88299500D01*
X88728039Y-88299500D01*
X88728036Y-88299500D01*
X88589949Y-88340045D01*
X88468873Y-88417856D01*
X88374623Y-88526626D01*
X88374622Y-88526628D01*
X88314834Y-88657543D01*
X88294353Y-88800000D01*
X80505647Y-88800000D01*
X80485165Y-88657543D01*
X80425377Y-88526627D01*
X80331128Y-88417857D01*
X80210053Y-88340047D01*
X80210051Y-88340046D01*
X80210049Y-88340045D01*
X80210050Y-88340045D01*
X80071963Y-88299500D01*
X80071961Y-88299500D01*
X79928039Y-88299500D01*
X79928036Y-88299500D01*
X79789949Y-88340045D01*
X79668873Y-88417856D01*
X79574623Y-88526626D01*
X79574622Y-88526628D01*
X79514834Y-88657543D01*
X79494353Y-88800000D01*
X71705647Y-88800000D01*
X71685165Y-88657543D01*
X71625377Y-88526627D01*
X71531128Y-88417857D01*
X71410053Y-88340047D01*
X71410051Y-88340046D01*
X71410049Y-88340045D01*
X71410050Y-88340045D01*
X71271963Y-88299500D01*
X71271961Y-88299500D01*
X71128039Y-88299500D01*
X71128036Y-88299500D01*
X70989949Y-88340045D01*
X70868873Y-88417856D01*
X70774623Y-88526626D01*
X70774622Y-88526628D01*
X70714834Y-88657543D01*
X70694353Y-88800000D01*
X62891269Y-88800000D01*
X62885165Y-88757543D01*
X62825377Y-88626627D01*
X62731128Y-88517857D01*
X62610053Y-88440047D01*
X62610051Y-88440046D01*
X62610049Y-88440045D01*
X62610050Y-88440045D01*
X62471963Y-88399500D01*
X62471961Y-88399500D01*
X62328039Y-88399500D01*
X62328036Y-88399500D01*
X62189949Y-88440045D01*
X62068873Y-88517856D01*
X61974623Y-88626626D01*
X61974622Y-88626628D01*
X61914834Y-88757543D01*
X61894353Y-88900000D01*
X52305647Y-88900000D01*
X52285165Y-88757543D01*
X52277521Y-88740806D01*
X52267578Y-88671650D01*
X52296602Y-88608094D01*
X52355380Y-88570319D01*
X52425251Y-88570319D01*
X52528038Y-88600500D01*
X52528039Y-88600500D01*
X52671962Y-88600500D01*
X52671962Y-88600499D01*
X52810053Y-88559953D01*
X52931128Y-88482143D01*
X53025377Y-88373373D01*
X53085165Y-88242457D01*
X53105647Y-88100000D01*
X53085165Y-87957543D01*
X53025377Y-87826627D01*
X52931128Y-87717857D01*
X52810053Y-87640047D01*
X52810051Y-87640046D01*
X52810049Y-87640045D01*
X52810050Y-87640045D01*
X52671963Y-87599500D01*
X52671961Y-87599500D01*
X52528039Y-87599500D01*
X52528036Y-87599500D01*
X52389949Y-87640045D01*
X52268873Y-87717856D01*
X52174623Y-87826626D01*
X52174622Y-87826628D01*
X52114834Y-87957543D01*
X52094353Y-88100000D01*
X52114834Y-88242455D01*
X52122478Y-88259192D01*
X52132421Y-88328351D01*
X52103395Y-88391906D01*
X52044617Y-88429680D01*
X51974749Y-88429680D01*
X51871963Y-88399500D01*
X51871961Y-88399500D01*
X51728039Y-88399500D01*
X51728036Y-88399500D01*
X51589949Y-88440045D01*
X51527638Y-88480090D01*
X51460598Y-88499774D01*
X51393559Y-88480089D01*
X51347804Y-88427285D01*
X51337861Y-88358126D01*
X51347805Y-88324262D01*
X51354020Y-88310655D01*
X51385165Y-88242457D01*
X51405647Y-88100000D01*
X51385165Y-87957543D01*
X51325377Y-87826627D01*
X51231128Y-87717857D01*
X51110053Y-87640047D01*
X51110051Y-87640046D01*
X51110049Y-87640045D01*
X51110050Y-87640045D01*
X50971963Y-87599500D01*
X50971961Y-87599500D01*
X50828039Y-87599500D01*
X50828036Y-87599500D01*
X50689949Y-87640045D01*
X50568873Y-87717856D01*
X50474623Y-87826626D01*
X50474622Y-87826628D01*
X50414834Y-87957543D01*
X50394353Y-88100000D01*
X50414834Y-88242456D01*
X50454062Y-88328351D01*
X50474623Y-88373373D01*
X50568872Y-88482143D01*
X50689947Y-88559953D01*
X50689950Y-88559954D01*
X50689949Y-88559954D01*
X50828036Y-88600499D01*
X50828038Y-88600500D01*
X50828039Y-88600500D01*
X50971962Y-88600500D01*
X50971962Y-88600499D01*
X51110050Y-88559954D01*
X51110051Y-88559954D01*
X51110053Y-88559953D01*
X51172362Y-88519909D01*
X51239399Y-88500225D01*
X51306439Y-88519909D01*
X51352194Y-88572713D01*
X51362138Y-88641871D01*
X51352195Y-88675736D01*
X51314834Y-88757545D01*
X51294353Y-88900000D01*
X51314834Y-89042457D01*
X51314835Y-89042458D01*
X51352194Y-89124263D01*
X51362138Y-89193421D01*
X51333113Y-89256977D01*
X51274335Y-89294751D01*
X51204465Y-89294751D01*
X51172361Y-89280090D01*
X51110053Y-89240047D01*
X51110051Y-89240046D01*
X51110049Y-89240045D01*
X51110050Y-89240045D01*
X50971963Y-89199500D01*
X50971961Y-89199500D01*
X50828039Y-89199500D01*
X50828036Y-89199500D01*
X50689949Y-89240045D01*
X50568873Y-89317856D01*
X50474623Y-89426626D01*
X50474622Y-89426628D01*
X50414834Y-89557543D01*
X50394353Y-89700000D01*
X46000500Y-89700000D01*
X46000500Y-86976604D01*
X93849500Y-86976604D01*
X93864699Y-87130932D01*
X93864700Y-87130934D01*
X93924768Y-87328954D01*
X94022315Y-87511450D01*
X94022317Y-87511452D01*
X94153589Y-87671410D01*
X94189036Y-87700500D01*
X94313550Y-87802685D01*
X94496046Y-87900232D01*
X94694066Y-87960300D01*
X94694065Y-87960300D01*
X94712529Y-87962118D01*
X94900000Y-87980583D01*
X95105934Y-87960300D01*
X95303954Y-87900232D01*
X95486450Y-87802685D01*
X95646410Y-87671410D01*
X95777685Y-87511450D01*
X95875232Y-87328954D01*
X95935300Y-87130934D01*
X95950500Y-86976608D01*
X95950500Y-86976604D01*
X96349500Y-86976604D01*
X96364699Y-87130932D01*
X96364700Y-87130934D01*
X96424768Y-87328954D01*
X96522315Y-87511450D01*
X96522317Y-87511452D01*
X96653589Y-87671410D01*
X96689036Y-87700500D01*
X96813550Y-87802685D01*
X96996046Y-87900232D01*
X97194066Y-87960300D01*
X97194065Y-87960300D01*
X97212529Y-87962118D01*
X97400000Y-87980583D01*
X97605934Y-87960300D01*
X97803954Y-87900232D01*
X97986450Y-87802685D01*
X98146410Y-87671410D01*
X98277685Y-87511450D01*
X98375232Y-87328954D01*
X98435300Y-87130934D01*
X98450500Y-86976608D01*
X98450500Y-86976604D01*
X98849500Y-86976604D01*
X98864699Y-87130932D01*
X98864700Y-87130934D01*
X98924768Y-87328954D01*
X99022315Y-87511450D01*
X99022317Y-87511452D01*
X99153589Y-87671410D01*
X99189036Y-87700500D01*
X99313550Y-87802685D01*
X99496046Y-87900232D01*
X99694066Y-87960300D01*
X99694065Y-87960300D01*
X99712529Y-87962118D01*
X99900000Y-87980583D01*
X100105934Y-87960300D01*
X100303954Y-87900232D01*
X100486450Y-87802685D01*
X100646410Y-87671410D01*
X100777685Y-87511450D01*
X100875232Y-87328954D01*
X100935300Y-87130934D01*
X100950500Y-86976608D01*
X100950500Y-86623392D01*
X100948196Y-86600000D01*
X103494785Y-86600000D01*
X103513602Y-86803082D01*
X103569417Y-86999247D01*
X103569422Y-86999260D01*
X103660327Y-87181821D01*
X103783237Y-87344581D01*
X103933958Y-87481980D01*
X103933960Y-87481982D01*
X103981553Y-87511450D01*
X104107363Y-87589348D01*
X104297544Y-87663024D01*
X104498024Y-87700500D01*
X104498026Y-87700500D01*
X104701974Y-87700500D01*
X104701976Y-87700500D01*
X104902456Y-87663024D01*
X105092637Y-87589348D01*
X105266041Y-87481981D01*
X105416764Y-87344579D01*
X105539673Y-87181821D01*
X105630582Y-86999250D01*
X105686397Y-86803083D01*
X105705215Y-86600000D01*
X105686397Y-86396917D01*
X105630582Y-86200750D01*
X105539673Y-86018179D01*
X105416764Y-85855421D01*
X105416762Y-85855418D01*
X105266041Y-85718019D01*
X105266039Y-85718017D01*
X105092642Y-85610655D01*
X105092635Y-85610651D01*
X104997546Y-85573814D01*
X104902456Y-85536976D01*
X104701976Y-85499500D01*
X104498024Y-85499500D01*
X104297544Y-85536976D01*
X104297541Y-85536976D01*
X104297541Y-85536977D01*
X104107364Y-85610651D01*
X104107357Y-85610655D01*
X103933960Y-85718017D01*
X103933958Y-85718019D01*
X103783237Y-85855418D01*
X103660327Y-86018178D01*
X103569422Y-86200739D01*
X103569417Y-86200752D01*
X103513602Y-86396917D01*
X103494785Y-86599999D01*
X103494785Y-86600000D01*
X100948196Y-86600000D01*
X100935300Y-86469066D01*
X100875232Y-86271046D01*
X100777685Y-86088550D01*
X100719933Y-86018178D01*
X100646410Y-85928589D01*
X100486452Y-85797317D01*
X100486453Y-85797317D01*
X100486450Y-85797315D01*
X100303954Y-85699768D01*
X100105934Y-85639700D01*
X100105932Y-85639699D01*
X100105934Y-85639699D01*
X99900000Y-85619417D01*
X99694067Y-85639699D01*
X99496043Y-85699769D01*
X99401134Y-85750500D01*
X99313550Y-85797315D01*
X99313548Y-85797316D01*
X99313547Y-85797317D01*
X99153589Y-85928589D01*
X99022317Y-86088547D01*
X98924769Y-86271043D01*
X98864699Y-86469067D01*
X98849500Y-86623395D01*
X98849500Y-86976604D01*
X98450500Y-86976604D01*
X98450500Y-86623392D01*
X98435300Y-86469066D01*
X98375232Y-86271046D01*
X98277685Y-86088550D01*
X98219933Y-86018178D01*
X98146410Y-85928589D01*
X97986452Y-85797317D01*
X97986453Y-85797317D01*
X97986450Y-85797315D01*
X97803954Y-85699768D01*
X97605934Y-85639700D01*
X97605932Y-85639699D01*
X97605934Y-85639699D01*
X97400000Y-85619417D01*
X97194067Y-85639699D01*
X96996043Y-85699769D01*
X96901134Y-85750500D01*
X96813550Y-85797315D01*
X96813548Y-85797316D01*
X96813547Y-85797317D01*
X96653589Y-85928589D01*
X96522317Y-86088547D01*
X96424769Y-86271043D01*
X96364699Y-86469067D01*
X96349500Y-86623395D01*
X96349500Y-86976604D01*
X95950500Y-86976604D01*
X95950500Y-86623392D01*
X95935300Y-86469066D01*
X95875232Y-86271046D01*
X95777685Y-86088550D01*
X95719933Y-86018178D01*
X95646410Y-85928589D01*
X95486452Y-85797317D01*
X95486453Y-85797317D01*
X95486450Y-85797315D01*
X95303954Y-85699768D01*
X95105934Y-85639700D01*
X95105932Y-85639699D01*
X95105934Y-85639699D01*
X94900000Y-85619417D01*
X94694067Y-85639699D01*
X94496043Y-85699769D01*
X94401134Y-85750500D01*
X94313550Y-85797315D01*
X94313548Y-85797316D01*
X94313547Y-85797317D01*
X94153589Y-85928589D01*
X94022317Y-86088547D01*
X93924769Y-86271043D01*
X93864699Y-86469067D01*
X93849500Y-86623395D01*
X93849500Y-86976604D01*
X46000500Y-86976604D01*
X46000500Y-84150000D01*
X52932843Y-84150000D01*
X52951426Y-84338681D01*
X52969772Y-84399160D01*
X53006463Y-84520115D01*
X53006464Y-84520118D01*
X53006465Y-84520119D01*
X53006466Y-84520122D01*
X53095834Y-84687318D01*
X53095838Y-84687325D01*
X53216116Y-84833883D01*
X53362674Y-84954161D01*
X53362681Y-84954165D01*
X53529877Y-85043533D01*
X53529878Y-85043533D01*
X53529885Y-85043537D01*
X53711317Y-85098573D01*
X53711316Y-85098573D01*
X53728233Y-85100239D01*
X53900000Y-85117157D01*
X54088683Y-85098573D01*
X54270115Y-85043537D01*
X54437324Y-84954162D01*
X54583883Y-84833883D01*
X54693759Y-84700000D01*
X56794417Y-84700000D01*
X56814699Y-84905932D01*
X56835157Y-84973373D01*
X56874768Y-85103954D01*
X56972315Y-85286450D01*
X56972317Y-85286452D01*
X57103589Y-85446410D01*
X57200209Y-85525702D01*
X57263550Y-85577685D01*
X57446046Y-85675232D01*
X57644066Y-85735300D01*
X57644065Y-85735300D01*
X57682647Y-85739100D01*
X57798392Y-85750500D01*
X57798395Y-85750500D01*
X58201605Y-85750500D01*
X58201608Y-85750500D01*
X58355934Y-85735300D01*
X58553954Y-85675232D01*
X58736450Y-85577685D01*
X58896410Y-85446410D01*
X59027685Y-85286450D01*
X59125232Y-85103954D01*
X59185300Y-84905934D01*
X59205583Y-84700000D01*
X65594417Y-84700000D01*
X65614699Y-84905932D01*
X65635157Y-84973373D01*
X65674768Y-85103954D01*
X65772315Y-85286450D01*
X65772317Y-85286452D01*
X65903589Y-85446410D01*
X66000209Y-85525702D01*
X66063550Y-85577685D01*
X66246046Y-85675232D01*
X66444066Y-85735300D01*
X66444065Y-85735300D01*
X66482647Y-85739100D01*
X66598392Y-85750500D01*
X66598395Y-85750500D01*
X67001605Y-85750500D01*
X67001608Y-85750500D01*
X67155934Y-85735300D01*
X67353954Y-85675232D01*
X67536450Y-85577685D01*
X67696410Y-85446410D01*
X67827685Y-85286450D01*
X67925232Y-85103954D01*
X67985300Y-84905934D01*
X68005583Y-84700000D01*
X74394417Y-84700000D01*
X74414699Y-84905932D01*
X74435157Y-84973373D01*
X74474768Y-85103954D01*
X74572315Y-85286450D01*
X74572317Y-85286452D01*
X74703589Y-85446410D01*
X74800209Y-85525702D01*
X74863550Y-85577685D01*
X75046046Y-85675232D01*
X75244066Y-85735300D01*
X75244065Y-85735300D01*
X75282647Y-85739100D01*
X75398392Y-85750500D01*
X75398395Y-85750500D01*
X75801605Y-85750500D01*
X75801608Y-85750500D01*
X75955934Y-85735300D01*
X76153954Y-85675232D01*
X76336450Y-85577685D01*
X76496410Y-85446410D01*
X76627685Y-85286450D01*
X76725232Y-85103954D01*
X76785300Y-84905934D01*
X76805583Y-84700000D01*
X83194417Y-84700000D01*
X83214699Y-84905932D01*
X83235157Y-84973373D01*
X83274768Y-85103954D01*
X83372315Y-85286450D01*
X83372317Y-85286452D01*
X83503589Y-85446410D01*
X83600209Y-85525702D01*
X83663550Y-85577685D01*
X83846046Y-85675232D01*
X84044066Y-85735300D01*
X84044065Y-85735300D01*
X84082647Y-85739100D01*
X84198392Y-85750500D01*
X84198395Y-85750500D01*
X84601605Y-85750500D01*
X84601608Y-85750500D01*
X84755934Y-85735300D01*
X84953954Y-85675232D01*
X85136450Y-85577685D01*
X85296410Y-85446410D01*
X85427685Y-85286450D01*
X85525232Y-85103954D01*
X85585300Y-84905934D01*
X85605583Y-84700000D01*
X101894353Y-84700000D01*
X101914834Y-84842456D01*
X101965851Y-84954165D01*
X101974623Y-84973373D01*
X102068872Y-85082143D01*
X102189947Y-85159953D01*
X102189950Y-85159954D01*
X102189949Y-85159954D01*
X102328036Y-85200499D01*
X102328038Y-85200500D01*
X102328039Y-85200500D01*
X102471962Y-85200500D01*
X102471962Y-85200499D01*
X102610053Y-85159953D01*
X102731128Y-85082143D01*
X102825377Y-84973373D01*
X102885165Y-84842457D01*
X102905647Y-84700000D01*
X102885165Y-84557543D01*
X102825377Y-84426627D01*
X102758765Y-84349752D01*
X104169500Y-84349752D01*
X104181131Y-84408229D01*
X104181132Y-84408230D01*
X104225447Y-84474552D01*
X104291769Y-84518867D01*
X104291770Y-84518868D01*
X104350247Y-84530499D01*
X104350250Y-84530500D01*
X104350252Y-84530500D01*
X106089750Y-84530500D01*
X106089751Y-84530499D01*
X106104568Y-84527552D01*
X106148229Y-84518868D01*
X106148229Y-84518867D01*
X106148231Y-84518867D01*
X106214552Y-84474552D01*
X106258867Y-84408231D01*
X106258867Y-84408229D01*
X106258868Y-84408229D01*
X106270499Y-84349752D01*
X106709500Y-84349752D01*
X106721131Y-84408229D01*
X106721132Y-84408230D01*
X106765447Y-84474552D01*
X106831769Y-84518867D01*
X106831770Y-84518868D01*
X106890247Y-84530499D01*
X106890250Y-84530500D01*
X106890252Y-84530500D01*
X108629750Y-84530500D01*
X108629751Y-84530499D01*
X108644568Y-84527552D01*
X108688229Y-84518868D01*
X108688229Y-84518867D01*
X108688231Y-84518867D01*
X108754552Y-84474552D01*
X108798867Y-84408231D01*
X108798867Y-84408229D01*
X108798868Y-84408229D01*
X108810499Y-84349752D01*
X108810500Y-84349750D01*
X108810500Y-82610249D01*
X108810499Y-82610247D01*
X108798868Y-82551770D01*
X108798867Y-82551769D01*
X108754552Y-82485447D01*
X108688230Y-82441132D01*
X108688229Y-82441131D01*
X108629752Y-82429500D01*
X108629748Y-82429500D01*
X106890252Y-82429500D01*
X106890247Y-82429500D01*
X106831770Y-82441131D01*
X106831769Y-82441132D01*
X106765447Y-82485447D01*
X106721132Y-82551769D01*
X106721131Y-82551770D01*
X106709500Y-82610247D01*
X106709500Y-84349752D01*
X106270499Y-84349752D01*
X106270500Y-84349750D01*
X106270500Y-82610249D01*
X106270499Y-82610247D01*
X106258868Y-82551770D01*
X106258867Y-82551769D01*
X106214552Y-82485447D01*
X106148230Y-82441132D01*
X106148229Y-82441131D01*
X106089752Y-82429500D01*
X106089748Y-82429500D01*
X104350252Y-82429500D01*
X104350247Y-82429500D01*
X104291770Y-82441131D01*
X104291769Y-82441132D01*
X104225447Y-82485447D01*
X104181132Y-82551769D01*
X104181131Y-82551770D01*
X104169500Y-82610247D01*
X104169500Y-84349752D01*
X102758765Y-84349752D01*
X102731128Y-84317857D01*
X102610053Y-84240047D01*
X102610051Y-84240046D01*
X102610049Y-84240045D01*
X102610050Y-84240045D01*
X102471963Y-84199500D01*
X102471961Y-84199500D01*
X102328039Y-84199500D01*
X102328036Y-84199500D01*
X102189949Y-84240045D01*
X102068873Y-84317856D01*
X101974623Y-84426626D01*
X101974622Y-84426628D01*
X101914834Y-84557543D01*
X101894353Y-84700000D01*
X85605583Y-84700000D01*
X85585300Y-84494066D01*
X85525232Y-84296046D01*
X85427685Y-84113550D01*
X85375702Y-84050209D01*
X85296410Y-83953589D01*
X85136452Y-83822317D01*
X85136453Y-83822317D01*
X85136450Y-83822315D01*
X84953954Y-83724768D01*
X84755934Y-83664700D01*
X84755932Y-83664699D01*
X84755934Y-83664699D01*
X84636805Y-83652966D01*
X84601608Y-83649500D01*
X84198392Y-83649500D01*
X84160298Y-83653251D01*
X84044067Y-83664699D01*
X83846043Y-83724769D01*
X83742945Y-83779877D01*
X83663550Y-83822315D01*
X83663548Y-83822316D01*
X83663547Y-83822317D01*
X83503589Y-83953589D01*
X83372317Y-84113547D01*
X83274769Y-84296043D01*
X83214699Y-84494067D01*
X83194417Y-84700000D01*
X76805583Y-84700000D01*
X76785300Y-84494066D01*
X76725232Y-84296046D01*
X76627685Y-84113550D01*
X76575702Y-84050209D01*
X76496410Y-83953589D01*
X76336452Y-83822317D01*
X76336453Y-83822317D01*
X76336450Y-83822315D01*
X76153954Y-83724768D01*
X75955934Y-83664700D01*
X75955932Y-83664699D01*
X75955934Y-83664699D01*
X75836805Y-83652966D01*
X75801608Y-83649500D01*
X75398392Y-83649500D01*
X75360298Y-83653251D01*
X75244067Y-83664699D01*
X75046043Y-83724769D01*
X74942945Y-83779877D01*
X74863550Y-83822315D01*
X74863548Y-83822316D01*
X74863547Y-83822317D01*
X74703589Y-83953589D01*
X74572317Y-84113547D01*
X74474769Y-84296043D01*
X74414699Y-84494067D01*
X74394417Y-84700000D01*
X68005583Y-84700000D01*
X67985300Y-84494066D01*
X67925232Y-84296046D01*
X67827685Y-84113550D01*
X67775702Y-84050209D01*
X67696410Y-83953589D01*
X67536452Y-83822317D01*
X67536453Y-83822317D01*
X67536450Y-83822315D01*
X67353954Y-83724768D01*
X67155934Y-83664700D01*
X67155932Y-83664699D01*
X67155934Y-83664699D01*
X67036805Y-83652966D01*
X67001608Y-83649500D01*
X66598392Y-83649500D01*
X66560298Y-83653251D01*
X66444067Y-83664699D01*
X66246043Y-83724769D01*
X66142945Y-83779877D01*
X66063550Y-83822315D01*
X66063548Y-83822316D01*
X66063547Y-83822317D01*
X65903589Y-83953589D01*
X65772317Y-84113547D01*
X65674769Y-84296043D01*
X65614699Y-84494067D01*
X65594417Y-84700000D01*
X59205583Y-84700000D01*
X59185300Y-84494066D01*
X59125232Y-84296046D01*
X59027685Y-84113550D01*
X58975702Y-84050209D01*
X58896410Y-83953589D01*
X58736452Y-83822317D01*
X58736453Y-83822317D01*
X58736450Y-83822315D01*
X58553954Y-83724768D01*
X58355934Y-83664700D01*
X58355932Y-83664699D01*
X58355934Y-83664699D01*
X58236805Y-83652966D01*
X58201608Y-83649500D01*
X57798392Y-83649500D01*
X57760298Y-83653251D01*
X57644067Y-83664699D01*
X57446043Y-83724769D01*
X57342945Y-83779877D01*
X57263550Y-83822315D01*
X57263548Y-83822316D01*
X57263547Y-83822317D01*
X57103589Y-83953589D01*
X56972317Y-84113547D01*
X56874769Y-84296043D01*
X56814699Y-84494067D01*
X56794417Y-84700000D01*
X54693759Y-84700000D01*
X54704162Y-84687324D01*
X54793537Y-84520115D01*
X54848573Y-84338683D01*
X54867157Y-84150000D01*
X54848573Y-83961317D01*
X54793537Y-83779885D01*
X54764077Y-83724769D01*
X54704165Y-83612681D01*
X54704161Y-83612674D01*
X54583883Y-83466116D01*
X54437325Y-83345838D01*
X54437318Y-83345834D01*
X54270122Y-83256466D01*
X54270119Y-83256465D01*
X54270118Y-83256464D01*
X54270115Y-83256463D01*
X54088683Y-83201427D01*
X54088681Y-83201426D01*
X54088683Y-83201426D01*
X53900000Y-83182843D01*
X53711318Y-83201426D01*
X53604194Y-83233921D01*
X53529885Y-83256463D01*
X53529882Y-83256464D01*
X53529880Y-83256465D01*
X53529877Y-83256466D01*
X53362681Y-83345834D01*
X53362674Y-83345838D01*
X53216116Y-83466116D01*
X53095838Y-83612674D01*
X53095834Y-83612681D01*
X53006466Y-83779877D01*
X53006465Y-83779880D01*
X52951426Y-83961318D01*
X52932843Y-84150000D01*
X46000500Y-84150000D01*
X46000500Y-82600000D01*
X61944353Y-82600000D01*
X61964834Y-82742456D01*
X62024622Y-82873371D01*
X62024623Y-82873373D01*
X62118872Y-82982143D01*
X62239947Y-83059953D01*
X62239950Y-83059954D01*
X62239949Y-83059954D01*
X62378036Y-83100499D01*
X62378038Y-83100500D01*
X62378039Y-83100500D01*
X62521962Y-83100500D01*
X62521962Y-83100499D01*
X62660053Y-83059953D01*
X62781128Y-82982143D01*
X62875377Y-82873373D01*
X62908886Y-82800000D01*
X70694353Y-82800000D01*
X70714834Y-82942456D01*
X70732959Y-82982143D01*
X70774623Y-83073373D01*
X70868872Y-83182143D01*
X70989947Y-83259953D01*
X70989950Y-83259954D01*
X70989949Y-83259954D01*
X71128036Y-83300499D01*
X71128038Y-83300500D01*
X71128039Y-83300500D01*
X71271962Y-83300500D01*
X71271962Y-83300499D01*
X71410053Y-83259953D01*
X71531128Y-83182143D01*
X71625377Y-83073373D01*
X71685165Y-82942457D01*
X71705647Y-82800000D01*
X79494353Y-82800000D01*
X79514834Y-82942456D01*
X79532959Y-82982143D01*
X79574623Y-83073373D01*
X79668872Y-83182143D01*
X79789947Y-83259953D01*
X79789950Y-83259954D01*
X79789949Y-83259954D01*
X79928036Y-83300499D01*
X79928038Y-83300500D01*
X79928039Y-83300500D01*
X80071962Y-83300500D01*
X80071962Y-83300499D01*
X80210053Y-83259953D01*
X80331128Y-83182143D01*
X80425377Y-83073373D01*
X80458886Y-83000000D01*
X100594353Y-83000000D01*
X100614834Y-83142456D01*
X100641766Y-83201427D01*
X100674623Y-83273373D01*
X100768872Y-83382143D01*
X100889947Y-83459953D01*
X100889950Y-83459954D01*
X100889949Y-83459954D01*
X101028036Y-83500499D01*
X101028038Y-83500500D01*
X101028039Y-83500500D01*
X101171962Y-83500500D01*
X101171962Y-83500499D01*
X101310053Y-83459953D01*
X101431128Y-83382143D01*
X101525377Y-83273373D01*
X101585165Y-83142457D01*
X101605647Y-83000000D01*
X101585165Y-82857543D01*
X101525377Y-82726627D01*
X101431128Y-82617857D01*
X101310053Y-82540047D01*
X101310051Y-82540046D01*
X101310049Y-82540045D01*
X101310050Y-82540045D01*
X101171963Y-82499500D01*
X101171961Y-82499500D01*
X101028039Y-82499500D01*
X101028036Y-82499500D01*
X100889949Y-82540045D01*
X100768873Y-82617856D01*
X100674623Y-82726626D01*
X100674622Y-82726628D01*
X100614834Y-82857543D01*
X100594353Y-83000000D01*
X80458886Y-83000000D01*
X80485165Y-82942457D01*
X80505647Y-82800000D01*
X80485165Y-82657543D01*
X80425377Y-82526627D01*
X80331128Y-82417857D01*
X80210053Y-82340047D01*
X80210051Y-82340046D01*
X80210049Y-82340045D01*
X80210050Y-82340045D01*
X80071963Y-82299500D01*
X80071961Y-82299500D01*
X79928039Y-82299500D01*
X79928036Y-82299500D01*
X79789949Y-82340045D01*
X79668873Y-82417856D01*
X79574623Y-82526626D01*
X79574622Y-82526628D01*
X79514834Y-82657543D01*
X79494353Y-82800000D01*
X71705647Y-82800000D01*
X71685165Y-82657543D01*
X71625377Y-82526627D01*
X71531128Y-82417857D01*
X71410053Y-82340047D01*
X71410051Y-82340046D01*
X71410049Y-82340045D01*
X71410050Y-82340045D01*
X71271963Y-82299500D01*
X71271961Y-82299500D01*
X71128039Y-82299500D01*
X71128036Y-82299500D01*
X70989949Y-82340045D01*
X70868873Y-82417856D01*
X70774623Y-82526626D01*
X70774622Y-82526628D01*
X70714834Y-82657543D01*
X70694353Y-82800000D01*
X62908886Y-82800000D01*
X62935165Y-82742457D01*
X62955647Y-82600000D01*
X62935165Y-82457543D01*
X62875377Y-82326627D01*
X62781128Y-82217857D01*
X62660053Y-82140047D01*
X62660051Y-82140046D01*
X62660049Y-82140045D01*
X62660050Y-82140045D01*
X62521963Y-82099500D01*
X62521961Y-82099500D01*
X62378039Y-82099500D01*
X62378036Y-82099500D01*
X62239949Y-82140045D01*
X62118873Y-82217856D01*
X62024623Y-82326626D01*
X62024622Y-82326628D01*
X61964834Y-82457543D01*
X61944353Y-82600000D01*
X46000500Y-82600000D01*
X46000500Y-81069123D01*
X52937500Y-81069123D01*
X52952467Y-81182801D01*
X52952467Y-81182802D01*
X53011060Y-81324258D01*
X53011061Y-81324259D01*
X53104269Y-81445731D01*
X53225741Y-81538939D01*
X53367198Y-81597533D01*
X53480884Y-81612500D01*
X53480891Y-81612500D01*
X54319109Y-81612500D01*
X54319116Y-81612500D01*
X54432802Y-81597533D01*
X54574259Y-81538939D01*
X54695731Y-81445731D01*
X54788939Y-81324259D01*
X54847533Y-81182802D01*
X54862500Y-81069116D01*
X54862500Y-81000000D01*
X81044353Y-81000000D01*
X81064834Y-81142456D01*
X81083260Y-81182802D01*
X81124623Y-81273373D01*
X81218872Y-81382143D01*
X81339947Y-81459953D01*
X81339950Y-81459954D01*
X81339949Y-81459954D01*
X81478036Y-81500499D01*
X81478038Y-81500500D01*
X81478039Y-81500500D01*
X81621962Y-81500500D01*
X81621962Y-81500499D01*
X81760053Y-81459953D01*
X81881128Y-81382143D01*
X81975377Y-81273373D01*
X82035165Y-81142457D01*
X82055647Y-81000000D01*
X82047020Y-80940000D01*
X104164417Y-80940000D01*
X104184699Y-81145932D01*
X104214734Y-81244944D01*
X104244768Y-81343954D01*
X104342315Y-81526450D01*
X104376969Y-81568677D01*
X104473589Y-81686410D01*
X104570209Y-81765702D01*
X104633550Y-81817685D01*
X104816046Y-81915232D01*
X105014066Y-81975300D01*
X105014065Y-81975300D01*
X105032529Y-81977118D01*
X105220000Y-81995583D01*
X105425934Y-81975300D01*
X105623954Y-81915232D01*
X105806450Y-81817685D01*
X105966410Y-81686410D01*
X106097685Y-81526450D01*
X106195232Y-81343954D01*
X106255300Y-81145934D01*
X106275583Y-80940000D01*
X106704417Y-80940000D01*
X106724699Y-81145932D01*
X106754734Y-81244944D01*
X106784768Y-81343954D01*
X106882315Y-81526450D01*
X106916969Y-81568677D01*
X107013589Y-81686410D01*
X107110209Y-81765702D01*
X107173550Y-81817685D01*
X107356046Y-81915232D01*
X107554066Y-81975300D01*
X107554065Y-81975300D01*
X107572529Y-81977118D01*
X107760000Y-81995583D01*
X107965934Y-81975300D01*
X108163954Y-81915232D01*
X108346450Y-81817685D01*
X108506410Y-81686410D01*
X108637685Y-81526450D01*
X108735232Y-81343954D01*
X108795300Y-81145934D01*
X108815583Y-80940000D01*
X108795300Y-80734066D01*
X108735232Y-80536046D01*
X108637685Y-80353550D01*
X108585702Y-80290209D01*
X108506410Y-80193589D01*
X108346452Y-80062317D01*
X108346453Y-80062317D01*
X108346450Y-80062315D01*
X108163954Y-79964768D01*
X107965934Y-79904700D01*
X107965932Y-79904699D01*
X107965934Y-79904699D01*
X107760000Y-79884417D01*
X107554067Y-79904699D01*
X107356043Y-79964769D01*
X107245898Y-80023643D01*
X107173550Y-80062315D01*
X107173548Y-80062316D01*
X107173547Y-80062317D01*
X107013589Y-80193589D01*
X106882317Y-80353547D01*
X106784769Y-80536043D01*
X106724699Y-80734067D01*
X106704417Y-80940000D01*
X106275583Y-80940000D01*
X106255300Y-80734066D01*
X106195232Y-80536046D01*
X106097685Y-80353550D01*
X106045702Y-80290209D01*
X105966410Y-80193589D01*
X105806452Y-80062317D01*
X105806453Y-80062317D01*
X105806450Y-80062315D01*
X105623954Y-79964768D01*
X105425934Y-79904700D01*
X105425932Y-79904699D01*
X105425934Y-79904699D01*
X105220000Y-79884417D01*
X105014067Y-79904699D01*
X104816043Y-79964769D01*
X104705898Y-80023643D01*
X104633550Y-80062315D01*
X104633548Y-80062316D01*
X104633547Y-80062317D01*
X104473589Y-80193589D01*
X104342317Y-80353547D01*
X104244769Y-80536043D01*
X104184699Y-80734067D01*
X104164417Y-80940000D01*
X82047020Y-80940000D01*
X82035165Y-80857543D01*
X81975377Y-80726627D01*
X81881128Y-80617857D01*
X81760053Y-80540047D01*
X81760051Y-80540046D01*
X81760049Y-80540045D01*
X81760050Y-80540045D01*
X81621963Y-80499500D01*
X81621961Y-80499500D01*
X81478039Y-80499500D01*
X81478036Y-80499500D01*
X81339949Y-80540045D01*
X81218873Y-80617856D01*
X81124623Y-80726626D01*
X81124622Y-80726628D01*
X81064834Y-80857543D01*
X81044353Y-81000000D01*
X54862500Y-81000000D01*
X54862500Y-80230884D01*
X54847533Y-80117198D01*
X54788939Y-79975741D01*
X54695731Y-79854269D01*
X54574259Y-79761061D01*
X54574258Y-79761060D01*
X54491395Y-79726737D01*
X54432802Y-79702467D01*
X54418591Y-79700596D01*
X54319123Y-79687500D01*
X54319116Y-79687500D01*
X53480884Y-79687500D01*
X53480876Y-79687500D01*
X53367198Y-79702467D01*
X53367197Y-79702467D01*
X53225741Y-79761060D01*
X53104269Y-79854269D01*
X53011060Y-79975741D01*
X52952467Y-80117197D01*
X52952467Y-80117198D01*
X52937500Y-80230876D01*
X52937500Y-81069123D01*
X46000500Y-81069123D01*
X46000500Y-78700000D01*
X57594353Y-78700000D01*
X57614834Y-78842456D01*
X57674622Y-78973371D01*
X57674623Y-78973373D01*
X57768872Y-79082143D01*
X57889947Y-79159953D01*
X57889950Y-79159954D01*
X57889949Y-79159954D01*
X58028036Y-79200499D01*
X58028038Y-79200500D01*
X58028039Y-79200500D01*
X58171962Y-79200500D01*
X58171962Y-79200499D01*
X58310053Y-79159953D01*
X58431128Y-79082143D01*
X58525377Y-78973373D01*
X58585165Y-78842457D01*
X58605647Y-78700000D01*
X58605646Y-78699999D01*
X58606909Y-78691222D01*
X58609392Y-78691579D01*
X58625332Y-78637294D01*
X58678136Y-78591539D01*
X58747294Y-78581595D01*
X58796684Y-78600017D01*
X58805892Y-78605934D01*
X58889948Y-78659954D01*
X59008108Y-78694647D01*
X59027126Y-78700232D01*
X59028036Y-78700499D01*
X59028038Y-78700500D01*
X59028039Y-78700500D01*
X59171962Y-78700500D01*
X59171962Y-78700499D01*
X59310050Y-78659954D01*
X59310051Y-78659954D01*
X59310053Y-78659953D01*
X59403314Y-78600017D01*
X59470353Y-78580333D01*
X59537392Y-78600017D01*
X59583147Y-78652821D01*
X59591549Y-78691443D01*
X59593091Y-78691222D01*
X59614834Y-78842456D01*
X59674622Y-78973371D01*
X59674623Y-78973373D01*
X59768872Y-79082143D01*
X59889947Y-79159953D01*
X59889950Y-79159954D01*
X59889949Y-79159954D01*
X60028036Y-79200499D01*
X60028038Y-79200500D01*
X60028039Y-79200500D01*
X60171962Y-79200500D01*
X60171962Y-79200499D01*
X60310053Y-79159953D01*
X60431128Y-79082143D01*
X60525377Y-78973373D01*
X60585165Y-78842457D01*
X60605647Y-78700000D01*
X60585165Y-78557543D01*
X60525377Y-78426627D01*
X60431128Y-78317857D01*
X60431125Y-78317855D01*
X60431125Y-78317854D01*
X60410058Y-78304316D01*
X60364302Y-78251513D01*
X60354358Y-78182354D01*
X60383382Y-78118798D01*
X60410058Y-78095684D01*
X60431125Y-78082145D01*
X60431125Y-78082144D01*
X60431128Y-78082143D01*
X60525377Y-77973373D01*
X60585165Y-77842457D01*
X60594633Y-77776604D01*
X71799500Y-77776604D01*
X71814699Y-77930932D01*
X71834450Y-77996043D01*
X71874768Y-78128954D01*
X71972315Y-78311450D01*
X71977573Y-78317857D01*
X72103589Y-78471410D01*
X72200209Y-78550702D01*
X72263550Y-78602685D01*
X72446046Y-78700232D01*
X72644066Y-78760300D01*
X72644065Y-78760300D01*
X72662529Y-78762118D01*
X72850000Y-78780583D01*
X73055934Y-78760300D01*
X73253954Y-78700232D01*
X73254388Y-78700000D01*
X77094353Y-78700000D01*
X77114834Y-78842456D01*
X77174622Y-78973371D01*
X77174623Y-78973373D01*
X77268872Y-79082143D01*
X77389947Y-79159953D01*
X77389950Y-79159954D01*
X77389949Y-79159954D01*
X77528036Y-79200499D01*
X77528038Y-79200500D01*
X77528039Y-79200500D01*
X77671962Y-79200500D01*
X77671962Y-79200499D01*
X77810053Y-79159953D01*
X77931128Y-79082143D01*
X78025377Y-78973373D01*
X78085165Y-78842457D01*
X78105647Y-78700000D01*
X78105646Y-78699999D01*
X78106909Y-78691222D01*
X78109392Y-78691579D01*
X78125332Y-78637294D01*
X78178136Y-78591539D01*
X78247294Y-78581595D01*
X78296684Y-78600017D01*
X78305892Y-78605934D01*
X78389948Y-78659954D01*
X78508108Y-78694647D01*
X78527126Y-78700232D01*
X78528036Y-78700499D01*
X78528038Y-78700500D01*
X78528039Y-78700500D01*
X78671962Y-78700500D01*
X78671962Y-78700499D01*
X78810050Y-78659954D01*
X78810051Y-78659954D01*
X78810053Y-78659953D01*
X78903314Y-78600017D01*
X78970353Y-78580333D01*
X79037392Y-78600017D01*
X79083147Y-78652821D01*
X79091549Y-78691443D01*
X79093091Y-78691222D01*
X79114834Y-78842456D01*
X79174622Y-78973371D01*
X79174623Y-78973373D01*
X79268872Y-79082143D01*
X79389947Y-79159953D01*
X79389950Y-79159954D01*
X79389949Y-79159954D01*
X79528036Y-79200499D01*
X79528038Y-79200500D01*
X79528039Y-79200500D01*
X79671962Y-79200500D01*
X79671962Y-79200499D01*
X79810053Y-79159953D01*
X79931128Y-79082143D01*
X80025377Y-78973373D01*
X80085165Y-78842457D01*
X80105647Y-78700000D01*
X80085165Y-78557543D01*
X80025377Y-78426627D01*
X80002305Y-78400000D01*
X104164417Y-78400000D01*
X104184699Y-78605932D01*
X104210639Y-78691443D01*
X104244768Y-78803954D01*
X104342315Y-78986450D01*
X104342317Y-78986452D01*
X104473589Y-79146410D01*
X104539498Y-79200499D01*
X104633550Y-79277685D01*
X104816046Y-79375232D01*
X105014066Y-79435300D01*
X105014065Y-79435300D01*
X105032529Y-79437118D01*
X105220000Y-79455583D01*
X105425934Y-79435300D01*
X105623954Y-79375232D01*
X105806450Y-79277685D01*
X105966410Y-79146410D01*
X106097685Y-78986450D01*
X106195232Y-78803954D01*
X106255300Y-78605934D01*
X106275583Y-78400000D01*
X106704417Y-78400000D01*
X106724699Y-78605932D01*
X106750639Y-78691443D01*
X106784768Y-78803954D01*
X106882315Y-78986450D01*
X106882317Y-78986452D01*
X107013589Y-79146410D01*
X107079498Y-79200499D01*
X107173550Y-79277685D01*
X107356046Y-79375232D01*
X107554066Y-79435300D01*
X107554065Y-79435300D01*
X107572529Y-79437118D01*
X107760000Y-79455583D01*
X107965934Y-79435300D01*
X108163954Y-79375232D01*
X108346450Y-79277685D01*
X108506410Y-79146410D01*
X108637685Y-78986450D01*
X108735232Y-78803954D01*
X108795300Y-78605934D01*
X108815583Y-78400000D01*
X108795300Y-78194066D01*
X108735232Y-77996046D01*
X108637685Y-77813550D01*
X108577361Y-77740045D01*
X108506410Y-77653589D01*
X108346452Y-77522317D01*
X108346453Y-77522317D01*
X108346450Y-77522315D01*
X108163954Y-77424768D01*
X107965934Y-77364700D01*
X107965932Y-77364699D01*
X107965934Y-77364699D01*
X107760000Y-77344417D01*
X107554067Y-77364699D01*
X107356043Y-77424769D01*
X107245898Y-77483643D01*
X107173550Y-77522315D01*
X107173548Y-77522316D01*
X107173547Y-77522317D01*
X107013589Y-77653589D01*
X106886492Y-77808460D01*
X106882315Y-77813550D01*
X106866864Y-77842457D01*
X106784769Y-77996043D01*
X106724699Y-78194067D01*
X106704417Y-78400000D01*
X106275583Y-78400000D01*
X106255300Y-78194066D01*
X106195232Y-77996046D01*
X106097685Y-77813550D01*
X106037361Y-77740045D01*
X105966410Y-77653589D01*
X105806452Y-77522317D01*
X105806453Y-77522317D01*
X105806450Y-77522315D01*
X105623954Y-77424768D01*
X105425934Y-77364700D01*
X105425932Y-77364699D01*
X105425934Y-77364699D01*
X105220000Y-77344417D01*
X105014067Y-77364699D01*
X104816043Y-77424769D01*
X104705898Y-77483643D01*
X104633550Y-77522315D01*
X104633548Y-77522316D01*
X104633547Y-77522317D01*
X104473589Y-77653589D01*
X104346492Y-77808460D01*
X104342315Y-77813550D01*
X104326864Y-77842457D01*
X104244769Y-77996043D01*
X104184699Y-78194067D01*
X104164417Y-78400000D01*
X80002305Y-78400000D01*
X79931128Y-78317857D01*
X79931125Y-78317855D01*
X79931125Y-78317854D01*
X79910058Y-78304316D01*
X79864302Y-78251513D01*
X79854358Y-78182354D01*
X79883382Y-78118798D01*
X79910058Y-78095684D01*
X79931125Y-78082145D01*
X79931125Y-78082144D01*
X79931128Y-78082143D01*
X80025377Y-77973373D01*
X80085165Y-77842457D01*
X80105647Y-77700000D01*
X80085165Y-77557543D01*
X80025377Y-77426627D01*
X79931128Y-77317857D01*
X79810053Y-77240047D01*
X79810051Y-77240046D01*
X79810049Y-77240045D01*
X79810050Y-77240045D01*
X79671963Y-77199500D01*
X79671961Y-77199500D01*
X79528039Y-77199500D01*
X79528036Y-77199500D01*
X79389949Y-77240045D01*
X79268873Y-77317856D01*
X79174623Y-77426626D01*
X79174622Y-77426628D01*
X79114834Y-77557543D01*
X79093091Y-77708778D01*
X79090607Y-77708420D01*
X79074668Y-77762705D01*
X79021864Y-77808460D01*
X78952706Y-77818404D01*
X78903314Y-77799982D01*
X78866937Y-77776604D01*
X78810053Y-77740047D01*
X78810051Y-77740046D01*
X78810049Y-77740045D01*
X78810050Y-77740045D01*
X78671963Y-77699500D01*
X78671961Y-77699500D01*
X78528039Y-77699500D01*
X78528036Y-77699500D01*
X78389949Y-77740045D01*
X78296686Y-77799982D01*
X78229647Y-77819666D01*
X78162607Y-77799981D01*
X78116852Y-77747177D01*
X78108450Y-77708556D01*
X78106909Y-77708778D01*
X78085165Y-77557543D01*
X78025377Y-77426628D01*
X78025376Y-77426626D01*
X78023766Y-77424768D01*
X77931128Y-77317857D01*
X77810053Y-77240047D01*
X77810051Y-77240046D01*
X77810049Y-77240045D01*
X77810050Y-77240045D01*
X77671963Y-77199500D01*
X77671961Y-77199500D01*
X77528039Y-77199500D01*
X77528036Y-77199500D01*
X77389949Y-77240045D01*
X77268873Y-77317856D01*
X77174623Y-77426626D01*
X77174622Y-77426628D01*
X77114834Y-77557543D01*
X77094353Y-77700000D01*
X77114834Y-77842456D01*
X77174622Y-77973371D01*
X77174623Y-77973373D01*
X77268872Y-78082143D01*
X77276324Y-78086932D01*
X77289943Y-78095685D01*
X77335698Y-78148489D01*
X77345641Y-78217648D01*
X77316615Y-78281203D01*
X77289943Y-78304315D01*
X77268874Y-78317855D01*
X77174623Y-78426626D01*
X77174622Y-78426628D01*
X77114834Y-78557543D01*
X77094353Y-78700000D01*
X73254388Y-78700000D01*
X73436450Y-78602685D01*
X73596410Y-78471410D01*
X73727685Y-78311450D01*
X73825232Y-78128954D01*
X73885300Y-77930934D01*
X73900500Y-77776608D01*
X73900500Y-77373392D01*
X73885300Y-77219066D01*
X73825232Y-77021046D01*
X73727685Y-76838550D01*
X73644908Y-76737685D01*
X73596410Y-76678589D01*
X73478677Y-76581969D01*
X73436450Y-76547315D01*
X73253954Y-76449768D01*
X73055934Y-76389700D01*
X73055932Y-76389699D01*
X73055934Y-76389699D01*
X72850000Y-76369417D01*
X72644067Y-76389699D01*
X72446043Y-76449769D01*
X72335898Y-76508643D01*
X72263550Y-76547315D01*
X72263548Y-76547316D01*
X72263547Y-76547317D01*
X72103589Y-76678589D01*
X71972317Y-76838547D01*
X71874769Y-77021043D01*
X71814699Y-77219067D01*
X71799500Y-77373395D01*
X71799500Y-77776604D01*
X60594633Y-77776604D01*
X60605647Y-77700000D01*
X60585165Y-77557543D01*
X60525377Y-77426627D01*
X60431128Y-77317857D01*
X60310053Y-77240047D01*
X60310051Y-77240046D01*
X60310049Y-77240045D01*
X60310050Y-77240045D01*
X60171963Y-77199500D01*
X60171961Y-77199500D01*
X60028039Y-77199500D01*
X60028036Y-77199500D01*
X59889949Y-77240045D01*
X59768873Y-77317856D01*
X59674623Y-77426626D01*
X59674622Y-77426628D01*
X59614834Y-77557543D01*
X59593091Y-77708778D01*
X59590607Y-77708420D01*
X59574668Y-77762705D01*
X59521864Y-77808460D01*
X59452706Y-77818404D01*
X59403314Y-77799982D01*
X59366937Y-77776604D01*
X59310053Y-77740047D01*
X59310051Y-77740046D01*
X59310049Y-77740045D01*
X59310050Y-77740045D01*
X59171963Y-77699500D01*
X59171961Y-77699500D01*
X59028039Y-77699500D01*
X59028036Y-77699500D01*
X58889949Y-77740045D01*
X58796686Y-77799982D01*
X58729647Y-77819666D01*
X58662607Y-77799981D01*
X58616852Y-77747177D01*
X58608450Y-77708556D01*
X58606909Y-77708778D01*
X58585165Y-77557543D01*
X58525377Y-77426628D01*
X58525376Y-77426626D01*
X58523766Y-77424768D01*
X58431128Y-77317857D01*
X58310053Y-77240047D01*
X58310051Y-77240046D01*
X58310049Y-77240045D01*
X58310050Y-77240045D01*
X58171963Y-77199500D01*
X58171961Y-77199500D01*
X58028039Y-77199500D01*
X58028036Y-77199500D01*
X57889949Y-77240045D01*
X57768873Y-77317856D01*
X57674623Y-77426626D01*
X57674622Y-77426628D01*
X57614834Y-77557543D01*
X57594353Y-77700000D01*
X57614834Y-77842456D01*
X57674622Y-77973371D01*
X57674623Y-77973373D01*
X57768872Y-78082143D01*
X57776324Y-78086932D01*
X57789943Y-78095685D01*
X57835698Y-78148489D01*
X57845641Y-78217648D01*
X57816615Y-78281203D01*
X57789943Y-78304315D01*
X57768874Y-78317855D01*
X57674623Y-78426626D01*
X57674622Y-78426628D01*
X57614834Y-78557543D01*
X57594353Y-78700000D01*
X46000500Y-78700000D01*
X46000500Y-75750000D01*
X52932843Y-75750000D01*
X52951426Y-75938681D01*
X52951427Y-75938683D01*
X53006463Y-76120115D01*
X53006464Y-76120118D01*
X53006465Y-76120119D01*
X53006466Y-76120122D01*
X53095834Y-76287318D01*
X53095838Y-76287325D01*
X53216116Y-76433883D01*
X53362674Y-76554161D01*
X53362681Y-76554165D01*
X53529877Y-76643533D01*
X53529878Y-76643533D01*
X53529885Y-76643537D01*
X53711317Y-76698573D01*
X53711316Y-76698573D01*
X53728233Y-76700239D01*
X53900000Y-76717157D01*
X54088683Y-76698573D01*
X54270115Y-76643537D01*
X54437324Y-76554162D01*
X54583883Y-76433883D01*
X54704162Y-76287324D01*
X54793537Y-76120115D01*
X54848573Y-75938683D01*
X54856323Y-75860000D01*
X104164417Y-75860000D01*
X104184699Y-76065932D01*
X104214734Y-76164944D01*
X104244768Y-76263954D01*
X104342315Y-76446450D01*
X104342317Y-76446452D01*
X104473589Y-76606410D01*
X104561541Y-76678589D01*
X104633550Y-76737685D01*
X104816046Y-76835232D01*
X105014066Y-76895300D01*
X105014065Y-76895300D01*
X105032529Y-76897118D01*
X105220000Y-76915583D01*
X105425934Y-76895300D01*
X105623954Y-76835232D01*
X105806450Y-76737685D01*
X105966410Y-76606410D01*
X106097685Y-76446450D01*
X106195232Y-76263954D01*
X106255300Y-76065934D01*
X106275583Y-75860000D01*
X106704417Y-75860000D01*
X106724699Y-76065932D01*
X106754734Y-76164944D01*
X106784768Y-76263954D01*
X106882315Y-76446450D01*
X106882317Y-76446452D01*
X107013589Y-76606410D01*
X107101541Y-76678589D01*
X107173550Y-76737685D01*
X107356046Y-76835232D01*
X107554066Y-76895300D01*
X107554065Y-76895300D01*
X107572529Y-76897118D01*
X107760000Y-76915583D01*
X107965934Y-76895300D01*
X108163954Y-76835232D01*
X108346450Y-76737685D01*
X108506410Y-76606410D01*
X108637685Y-76446450D01*
X108735232Y-76263954D01*
X108795300Y-76065934D01*
X108815583Y-75860000D01*
X108795300Y-75654066D01*
X108735232Y-75456046D01*
X108637685Y-75273550D01*
X108585702Y-75210209D01*
X108506410Y-75113589D01*
X108346452Y-74982317D01*
X108346453Y-74982317D01*
X108346450Y-74982315D01*
X108163954Y-74884768D01*
X107965934Y-74824700D01*
X107965932Y-74824699D01*
X107965934Y-74824699D01*
X107760000Y-74804417D01*
X107554067Y-74824699D01*
X107356043Y-74884769D01*
X107245898Y-74943643D01*
X107173550Y-74982315D01*
X107173548Y-74982316D01*
X107173547Y-74982317D01*
X107013589Y-75113589D01*
X106882317Y-75273547D01*
X106784769Y-75456043D01*
X106724699Y-75654067D01*
X106704417Y-75860000D01*
X106275583Y-75860000D01*
X106255300Y-75654066D01*
X106195232Y-75456046D01*
X106097685Y-75273550D01*
X106045702Y-75210209D01*
X105966410Y-75113589D01*
X105806452Y-74982317D01*
X105806453Y-74982317D01*
X105806450Y-74982315D01*
X105623954Y-74884768D01*
X105425934Y-74824700D01*
X105425932Y-74824699D01*
X105425934Y-74824699D01*
X105220000Y-74804417D01*
X105014067Y-74824699D01*
X104816043Y-74884769D01*
X104705898Y-74943643D01*
X104633550Y-74982315D01*
X104633548Y-74982316D01*
X104633547Y-74982317D01*
X104473589Y-75113589D01*
X104342317Y-75273547D01*
X104244769Y-75456043D01*
X104184699Y-75654067D01*
X104164417Y-75860000D01*
X54856323Y-75860000D01*
X54867157Y-75750000D01*
X54848573Y-75561317D01*
X54793537Y-75379885D01*
X54736700Y-75273550D01*
X54704165Y-75212681D01*
X54704161Y-75212674D01*
X54583883Y-75066116D01*
X54437325Y-74945838D01*
X54437318Y-74945834D01*
X54270122Y-74856466D01*
X54270119Y-74856465D01*
X54270118Y-74856464D01*
X54270115Y-74856463D01*
X54088683Y-74801427D01*
X54088681Y-74801426D01*
X54088683Y-74801426D01*
X53900000Y-74782843D01*
X53711318Y-74801426D01*
X53604194Y-74833921D01*
X53529885Y-74856463D01*
X53529882Y-74856464D01*
X53529880Y-74856465D01*
X53529877Y-74856466D01*
X53362681Y-74945834D01*
X53362674Y-74945838D01*
X53216116Y-75066116D01*
X53095838Y-75212674D01*
X53095834Y-75212681D01*
X53006466Y-75379877D01*
X53006465Y-75379880D01*
X52951426Y-75561318D01*
X52932843Y-75750000D01*
X46000500Y-75750000D01*
X46000500Y-73320000D01*
X104164417Y-73320000D01*
X104184699Y-73525932D01*
X104184700Y-73525934D01*
X104244768Y-73723954D01*
X104342315Y-73906450D01*
X104342317Y-73906452D01*
X104473589Y-74066410D01*
X104570209Y-74145702D01*
X104633550Y-74197685D01*
X104816046Y-74295232D01*
X105014066Y-74355300D01*
X105014065Y-74355300D01*
X105032529Y-74357118D01*
X105220000Y-74375583D01*
X105425934Y-74355300D01*
X105623954Y-74295232D01*
X105806450Y-74197685D01*
X105966410Y-74066410D01*
X106097685Y-73906450D01*
X106195232Y-73723954D01*
X106255300Y-73525934D01*
X106275583Y-73320000D01*
X106704417Y-73320000D01*
X106724699Y-73525932D01*
X106724700Y-73525934D01*
X106784768Y-73723954D01*
X106882315Y-73906450D01*
X106882317Y-73906452D01*
X107013589Y-74066410D01*
X107110209Y-74145702D01*
X107173550Y-74197685D01*
X107356046Y-74295232D01*
X107554066Y-74355300D01*
X107554065Y-74355300D01*
X107572529Y-74357118D01*
X107760000Y-74375583D01*
X107965934Y-74355300D01*
X108163954Y-74295232D01*
X108346450Y-74197685D01*
X108506410Y-74066410D01*
X108637685Y-73906450D01*
X108735232Y-73723954D01*
X108795300Y-73525934D01*
X108815583Y-73320000D01*
X108795300Y-73114066D01*
X108735232Y-72916046D01*
X108637685Y-72733550D01*
X108584800Y-72669109D01*
X108506410Y-72573589D01*
X108346452Y-72442317D01*
X108346453Y-72442317D01*
X108346450Y-72442315D01*
X108163954Y-72344768D01*
X107965934Y-72284700D01*
X107965932Y-72284699D01*
X107965934Y-72284699D01*
X107760000Y-72264417D01*
X107554067Y-72284699D01*
X107356043Y-72344769D01*
X107245898Y-72403643D01*
X107173550Y-72442315D01*
X107173548Y-72442316D01*
X107173547Y-72442317D01*
X107013589Y-72573589D01*
X106882317Y-72733547D01*
X106784769Y-72916043D01*
X106724699Y-73114067D01*
X106704417Y-73320000D01*
X106275583Y-73320000D01*
X106255300Y-73114066D01*
X106195232Y-72916046D01*
X106097685Y-72733550D01*
X106044800Y-72669109D01*
X105966410Y-72573589D01*
X105806452Y-72442317D01*
X105806453Y-72442317D01*
X105806450Y-72442315D01*
X105623954Y-72344768D01*
X105425934Y-72284700D01*
X105425932Y-72284699D01*
X105425934Y-72284699D01*
X105220000Y-72264417D01*
X105014067Y-72284699D01*
X104816043Y-72344769D01*
X104705898Y-72403643D01*
X104633550Y-72442315D01*
X104633548Y-72442316D01*
X104633547Y-72442317D01*
X104473589Y-72573589D01*
X104342317Y-72733547D01*
X104244769Y-72916043D01*
X104184699Y-73114067D01*
X104164417Y-73320000D01*
X46000500Y-73320000D01*
X46000500Y-72669123D01*
X52937500Y-72669123D01*
X52952467Y-72782801D01*
X52952467Y-72782802D01*
X53011060Y-72924258D01*
X53011061Y-72924259D01*
X53104269Y-73045731D01*
X53225741Y-73138939D01*
X53367198Y-73197533D01*
X53480884Y-73212500D01*
X53480891Y-73212500D01*
X54319109Y-73212500D01*
X54319116Y-73212500D01*
X54432802Y-73197533D01*
X54574259Y-73138939D01*
X54695731Y-73045731D01*
X54788939Y-72924259D01*
X54847533Y-72782802D01*
X54857118Y-72710000D01*
X61319353Y-72710000D01*
X61339834Y-72852456D01*
X61372626Y-72924259D01*
X61399623Y-72983373D01*
X61493872Y-73092143D01*
X61614947Y-73169953D01*
X61614950Y-73169954D01*
X61614949Y-73169954D01*
X61753036Y-73210499D01*
X61753038Y-73210500D01*
X61753039Y-73210500D01*
X61896962Y-73210500D01*
X61896962Y-73210499D01*
X62035053Y-73169953D01*
X62156128Y-73092143D01*
X62250377Y-72983373D01*
X62310165Y-72852457D01*
X62330647Y-72710000D01*
X80819353Y-72710000D01*
X80839834Y-72852456D01*
X80872626Y-72924259D01*
X80899623Y-72983373D01*
X80993872Y-73092143D01*
X81114947Y-73169953D01*
X81114950Y-73169954D01*
X81114949Y-73169954D01*
X81253036Y-73210499D01*
X81253038Y-73210500D01*
X81253039Y-73210500D01*
X81396962Y-73210500D01*
X81396962Y-73210499D01*
X81535053Y-73169953D01*
X81656128Y-73092143D01*
X81750377Y-72983373D01*
X81810165Y-72852457D01*
X81830647Y-72710000D01*
X81810165Y-72567543D01*
X81750377Y-72436627D01*
X81656128Y-72327857D01*
X81535053Y-72250047D01*
X81535051Y-72250046D01*
X81535049Y-72250045D01*
X81535050Y-72250045D01*
X81396963Y-72209500D01*
X81396961Y-72209500D01*
X81253039Y-72209500D01*
X81253036Y-72209500D01*
X81114949Y-72250045D01*
X80993873Y-72327856D01*
X80899623Y-72436626D01*
X80899622Y-72436628D01*
X80839834Y-72567543D01*
X80819353Y-72710000D01*
X62330647Y-72710000D01*
X62310165Y-72567543D01*
X62250377Y-72436627D01*
X62156128Y-72327857D01*
X62035053Y-72250047D01*
X62035051Y-72250046D01*
X62035049Y-72250045D01*
X62035050Y-72250045D01*
X61896963Y-72209500D01*
X61896961Y-72209500D01*
X61753039Y-72209500D01*
X61753036Y-72209500D01*
X61614949Y-72250045D01*
X61493873Y-72327856D01*
X61399623Y-72436626D01*
X61399622Y-72436628D01*
X61339834Y-72567543D01*
X61319353Y-72710000D01*
X54857118Y-72710000D01*
X54862500Y-72669116D01*
X54862500Y-71830884D01*
X54847533Y-71717198D01*
X54788939Y-71575741D01*
X54695731Y-71454269D01*
X54574259Y-71361061D01*
X54574258Y-71361060D01*
X54491395Y-71326737D01*
X54432802Y-71302467D01*
X54418591Y-71300596D01*
X54319123Y-71287500D01*
X54319116Y-71287500D01*
X53480884Y-71287500D01*
X53480876Y-71287500D01*
X53367198Y-71302467D01*
X53367197Y-71302467D01*
X53225741Y-71361060D01*
X53104269Y-71454269D01*
X53011060Y-71575741D01*
X52952467Y-71717197D01*
X52952467Y-71717198D01*
X52937500Y-71830876D01*
X52937500Y-72669123D01*
X46000500Y-72669123D01*
X46000500Y-70780000D01*
X104164417Y-70780000D01*
X104184699Y-70985932D01*
X104184700Y-70985934D01*
X104244768Y-71183954D01*
X104342315Y-71366450D01*
X104342317Y-71366452D01*
X104473589Y-71526410D01*
X104533700Y-71575741D01*
X104633550Y-71657685D01*
X104816046Y-71755232D01*
X105014066Y-71815300D01*
X105014065Y-71815300D01*
X105032529Y-71817118D01*
X105220000Y-71835583D01*
X105425934Y-71815300D01*
X105623954Y-71755232D01*
X105806450Y-71657685D01*
X105966410Y-71526410D01*
X106097685Y-71366450D01*
X106195232Y-71183954D01*
X106255300Y-70985934D01*
X106275583Y-70780000D01*
X106704417Y-70780000D01*
X106724699Y-70985932D01*
X106724700Y-70985934D01*
X106784768Y-71183954D01*
X106882315Y-71366450D01*
X106882317Y-71366452D01*
X107013589Y-71526410D01*
X107073700Y-71575741D01*
X107173550Y-71657685D01*
X107356046Y-71755232D01*
X107554066Y-71815300D01*
X107554065Y-71815300D01*
X107572529Y-71817118D01*
X107760000Y-71835583D01*
X107965934Y-71815300D01*
X108163954Y-71755232D01*
X108346450Y-71657685D01*
X108506410Y-71526410D01*
X108637685Y-71366450D01*
X108735232Y-71183954D01*
X108795300Y-70985934D01*
X108815583Y-70780000D01*
X108795300Y-70574066D01*
X108735232Y-70376046D01*
X108637685Y-70193550D01*
X108585702Y-70130209D01*
X108506410Y-70033589D01*
X108346452Y-69902317D01*
X108346453Y-69902317D01*
X108346450Y-69902315D01*
X108163954Y-69804768D01*
X107965934Y-69744700D01*
X107965932Y-69744699D01*
X107965934Y-69744699D01*
X107760000Y-69724417D01*
X107554067Y-69744699D01*
X107356043Y-69804769D01*
X107245898Y-69863643D01*
X107173550Y-69902315D01*
X107173548Y-69902316D01*
X107173547Y-69902317D01*
X107013589Y-70033589D01*
X106882317Y-70193547D01*
X106784769Y-70376043D01*
X106724699Y-70574067D01*
X106704417Y-70780000D01*
X106275583Y-70780000D01*
X106255300Y-70574066D01*
X106195232Y-70376046D01*
X106097685Y-70193550D01*
X106045702Y-70130209D01*
X105966410Y-70033589D01*
X105806452Y-69902317D01*
X105806453Y-69902317D01*
X105806450Y-69902315D01*
X105623954Y-69804768D01*
X105425934Y-69744700D01*
X105425932Y-69744699D01*
X105425934Y-69744699D01*
X105220000Y-69724417D01*
X105014067Y-69744699D01*
X104816043Y-69804769D01*
X104705898Y-69863643D01*
X104633550Y-69902315D01*
X104633548Y-69902316D01*
X104633547Y-69902317D01*
X104473589Y-70033589D01*
X104342317Y-70193547D01*
X104244769Y-70376043D01*
X104184699Y-70574067D01*
X104164417Y-70780000D01*
X46000500Y-70780000D01*
X46000500Y-67350000D01*
X52932843Y-67350000D01*
X52951426Y-67538681D01*
X52951427Y-67538683D01*
X53006463Y-67720115D01*
X53006464Y-67720118D01*
X53006465Y-67720119D01*
X53006466Y-67720122D01*
X53095834Y-67887318D01*
X53095838Y-67887325D01*
X53216116Y-68033883D01*
X53362674Y-68154161D01*
X53362681Y-68154165D01*
X53529877Y-68243533D01*
X53529878Y-68243533D01*
X53529885Y-68243537D01*
X53711317Y-68298573D01*
X53711316Y-68298573D01*
X53728233Y-68300239D01*
X53900000Y-68317157D01*
X54088683Y-68298573D01*
X54270115Y-68243537D01*
X54276732Y-68240000D01*
X104164417Y-68240000D01*
X104184699Y-68445932D01*
X104184700Y-68445934D01*
X104244768Y-68643954D01*
X104342315Y-68826450D01*
X104342317Y-68826452D01*
X104473589Y-68986410D01*
X104570209Y-69065702D01*
X104633550Y-69117685D01*
X104816046Y-69215232D01*
X105014066Y-69275300D01*
X105014065Y-69275300D01*
X105032529Y-69277118D01*
X105220000Y-69295583D01*
X105425934Y-69275300D01*
X105623954Y-69215232D01*
X105806450Y-69117685D01*
X105966410Y-68986410D01*
X106097685Y-68826450D01*
X106195232Y-68643954D01*
X106255300Y-68445934D01*
X106275583Y-68240000D01*
X106704417Y-68240000D01*
X106724699Y-68445932D01*
X106724700Y-68445934D01*
X106784768Y-68643954D01*
X106882315Y-68826450D01*
X106882317Y-68826452D01*
X107013589Y-68986410D01*
X107110209Y-69065702D01*
X107173550Y-69117685D01*
X107356046Y-69215232D01*
X107554066Y-69275300D01*
X107554065Y-69275300D01*
X107572529Y-69277118D01*
X107760000Y-69295583D01*
X107965934Y-69275300D01*
X108163954Y-69215232D01*
X108346450Y-69117685D01*
X108506410Y-68986410D01*
X108637685Y-68826450D01*
X108735232Y-68643954D01*
X108795300Y-68445934D01*
X108815583Y-68240000D01*
X108795300Y-68034066D01*
X108735232Y-67836046D01*
X108637685Y-67653550D01*
X108543415Y-67538681D01*
X108506410Y-67493589D01*
X108346452Y-67362317D01*
X108346453Y-67362317D01*
X108346450Y-67362315D01*
X108163954Y-67264768D01*
X107965934Y-67204700D01*
X107965932Y-67204699D01*
X107965934Y-67204699D01*
X107760000Y-67184417D01*
X107554067Y-67204699D01*
X107356043Y-67264769D01*
X107245898Y-67323643D01*
X107173550Y-67362315D01*
X107173548Y-67362316D01*
X107173547Y-67362317D01*
X107013589Y-67493589D01*
X106882317Y-67653547D01*
X106784769Y-67836043D01*
X106724699Y-68034067D01*
X106704417Y-68240000D01*
X106275583Y-68240000D01*
X106255300Y-68034066D01*
X106195232Y-67836046D01*
X106097685Y-67653550D01*
X106003415Y-67538681D01*
X105966410Y-67493589D01*
X105806452Y-67362317D01*
X105806453Y-67362317D01*
X105806450Y-67362315D01*
X105623954Y-67264768D01*
X105425934Y-67204700D01*
X105425932Y-67204699D01*
X105425934Y-67204699D01*
X105220000Y-67184417D01*
X105014067Y-67204699D01*
X104816043Y-67264769D01*
X104705898Y-67323643D01*
X104633550Y-67362315D01*
X104633548Y-67362316D01*
X104633547Y-67362317D01*
X104473589Y-67493589D01*
X104342317Y-67653547D01*
X104244769Y-67836043D01*
X104184699Y-68034067D01*
X104164417Y-68240000D01*
X54276732Y-68240000D01*
X54437324Y-68154162D01*
X54583883Y-68033883D01*
X54704162Y-67887324D01*
X54793537Y-67720115D01*
X54848573Y-67538683D01*
X54867157Y-67350000D01*
X54848573Y-67161317D01*
X54793537Y-66979885D01*
X54704162Y-66812676D01*
X54704161Y-66812674D01*
X54583883Y-66666116D01*
X54437325Y-66545838D01*
X54437318Y-66545834D01*
X54270122Y-66456466D01*
X54270119Y-66456465D01*
X54270118Y-66456464D01*
X54270115Y-66456463D01*
X54088683Y-66401427D01*
X54088681Y-66401426D01*
X54088683Y-66401426D01*
X53900000Y-66382843D01*
X53711318Y-66401426D01*
X53604194Y-66433921D01*
X53529885Y-66456463D01*
X53529882Y-66456464D01*
X53529880Y-66456465D01*
X53529877Y-66456466D01*
X53362681Y-66545834D01*
X53362674Y-66545838D01*
X53216116Y-66666116D01*
X53095838Y-66812674D01*
X53095834Y-66812681D01*
X53006466Y-66979877D01*
X53006465Y-66979880D01*
X52951426Y-67161318D01*
X52932843Y-67350000D01*
X46000500Y-67350000D01*
X46000500Y-65700000D01*
X104164417Y-65700000D01*
X104184699Y-65905932D01*
X104184700Y-65905934D01*
X104244768Y-66103954D01*
X104342315Y-66286450D01*
X104342317Y-66286452D01*
X104473589Y-66446410D01*
X104570209Y-66525702D01*
X104633550Y-66577685D01*
X104816046Y-66675232D01*
X105014066Y-66735300D01*
X105014065Y-66735300D01*
X105032529Y-66737118D01*
X105220000Y-66755583D01*
X105425934Y-66735300D01*
X105623954Y-66675232D01*
X105806450Y-66577685D01*
X105966410Y-66446410D01*
X106097685Y-66286450D01*
X106195232Y-66103954D01*
X106255300Y-65905934D01*
X106275583Y-65700000D01*
X106704417Y-65700000D01*
X106724699Y-65905932D01*
X106724700Y-65905934D01*
X106784768Y-66103954D01*
X106882315Y-66286450D01*
X106882317Y-66286452D01*
X107013589Y-66446410D01*
X107110209Y-66525702D01*
X107173550Y-66577685D01*
X107356046Y-66675232D01*
X107554066Y-66735300D01*
X107554065Y-66735300D01*
X107572529Y-66737118D01*
X107760000Y-66755583D01*
X107965934Y-66735300D01*
X108163954Y-66675232D01*
X108346450Y-66577685D01*
X108506410Y-66446410D01*
X108637685Y-66286450D01*
X108735232Y-66103954D01*
X108795300Y-65905934D01*
X108815583Y-65700000D01*
X108795300Y-65494066D01*
X108735232Y-65296046D01*
X108637685Y-65113550D01*
X108585702Y-65050209D01*
X108506410Y-64953589D01*
X108346452Y-64822317D01*
X108346453Y-64822317D01*
X108346450Y-64822315D01*
X108163954Y-64724768D01*
X107965934Y-64664700D01*
X107965932Y-64664699D01*
X107965934Y-64664699D01*
X107760000Y-64644417D01*
X107554067Y-64664699D01*
X107356043Y-64724769D01*
X107245898Y-64783643D01*
X107173550Y-64822315D01*
X107173548Y-64822316D01*
X107173547Y-64822317D01*
X107013589Y-64953589D01*
X106882317Y-65113547D01*
X106784769Y-65296043D01*
X106724699Y-65494067D01*
X106704417Y-65700000D01*
X106275583Y-65700000D01*
X106255300Y-65494066D01*
X106195232Y-65296046D01*
X106097685Y-65113550D01*
X106045702Y-65050209D01*
X105966410Y-64953589D01*
X105806452Y-64822317D01*
X105806453Y-64822317D01*
X105806450Y-64822315D01*
X105623954Y-64724768D01*
X105425934Y-64664700D01*
X105425932Y-64664699D01*
X105425934Y-64664699D01*
X105220000Y-64644417D01*
X105014067Y-64664699D01*
X104816043Y-64724769D01*
X104705898Y-64783643D01*
X104633550Y-64822315D01*
X104633548Y-64822316D01*
X104633547Y-64822317D01*
X104473589Y-64953589D01*
X104342317Y-65113547D01*
X104244769Y-65296043D01*
X104184699Y-65494067D01*
X104164417Y-65700000D01*
X46000500Y-65700000D01*
X46000500Y-65100000D01*
X59319353Y-65100000D01*
X59339834Y-65242456D01*
X59392433Y-65357629D01*
X59399623Y-65373373D01*
X59493872Y-65482143D01*
X59614947Y-65559953D01*
X59614950Y-65559954D01*
X59614949Y-65559954D01*
X59753036Y-65600499D01*
X59753038Y-65600500D01*
X59753039Y-65600500D01*
X59896962Y-65600500D01*
X59896962Y-65600499D01*
X60035053Y-65559953D01*
X60156128Y-65482143D01*
X60231287Y-65395403D01*
X60290064Y-65357629D01*
X60359934Y-65357629D01*
X60418711Y-65395402D01*
X60493872Y-65482143D01*
X60614947Y-65559953D01*
X60614950Y-65559954D01*
X60614949Y-65559954D01*
X60753036Y-65600499D01*
X60753038Y-65600500D01*
X60753039Y-65600500D01*
X60896962Y-65600500D01*
X60896962Y-65600499D01*
X61035053Y-65559953D01*
X61156128Y-65482143D01*
X61231287Y-65395403D01*
X61290064Y-65357629D01*
X61359934Y-65357629D01*
X61418711Y-65395402D01*
X61493872Y-65482143D01*
X61614947Y-65559953D01*
X61614950Y-65559954D01*
X61614949Y-65559954D01*
X61753036Y-65600499D01*
X61753038Y-65600500D01*
X61753039Y-65600500D01*
X61896962Y-65600500D01*
X61896962Y-65600499D01*
X62035053Y-65559953D01*
X62156128Y-65482143D01*
X62231287Y-65395403D01*
X62290064Y-65357629D01*
X62359934Y-65357629D01*
X62418711Y-65395402D01*
X62493872Y-65482143D01*
X62614947Y-65559953D01*
X62614950Y-65559954D01*
X62614949Y-65559954D01*
X62753036Y-65600499D01*
X62753038Y-65600500D01*
X62753039Y-65600500D01*
X62896962Y-65600500D01*
X62896962Y-65600499D01*
X63035053Y-65559953D01*
X63156128Y-65482143D01*
X63231287Y-65395403D01*
X63290064Y-65357629D01*
X63359934Y-65357629D01*
X63418711Y-65395402D01*
X63493872Y-65482143D01*
X63614947Y-65559953D01*
X63614950Y-65559954D01*
X63614949Y-65559954D01*
X63753036Y-65600499D01*
X63753038Y-65600500D01*
X63753039Y-65600500D01*
X63896962Y-65600500D01*
X63896962Y-65600499D01*
X64035053Y-65559953D01*
X64156128Y-65482143D01*
X64250377Y-65373373D01*
X64310165Y-65242457D01*
X64330647Y-65100000D01*
X78819353Y-65100000D01*
X78839834Y-65242456D01*
X78892433Y-65357629D01*
X78899623Y-65373373D01*
X78993872Y-65482143D01*
X79114947Y-65559953D01*
X79114950Y-65559954D01*
X79114949Y-65559954D01*
X79253036Y-65600499D01*
X79253038Y-65600500D01*
X79253039Y-65600500D01*
X79396962Y-65600500D01*
X79396962Y-65600499D01*
X79535053Y-65559953D01*
X79656128Y-65482143D01*
X79731287Y-65395403D01*
X79790064Y-65357629D01*
X79859934Y-65357629D01*
X79918711Y-65395402D01*
X79993872Y-65482143D01*
X80114947Y-65559953D01*
X80114950Y-65559954D01*
X80114949Y-65559954D01*
X80253036Y-65600499D01*
X80253038Y-65600500D01*
X80253039Y-65600500D01*
X80396962Y-65600500D01*
X80396962Y-65600499D01*
X80535053Y-65559953D01*
X80656128Y-65482143D01*
X80731287Y-65395403D01*
X80790064Y-65357629D01*
X80859934Y-65357629D01*
X80918711Y-65395402D01*
X80993872Y-65482143D01*
X81114947Y-65559953D01*
X81114950Y-65559954D01*
X81114949Y-65559954D01*
X81253036Y-65600499D01*
X81253038Y-65600500D01*
X81253039Y-65600500D01*
X81396962Y-65600500D01*
X81396962Y-65600499D01*
X81535053Y-65559953D01*
X81656128Y-65482143D01*
X81731287Y-65395403D01*
X81790064Y-65357629D01*
X81859934Y-65357629D01*
X81918711Y-65395402D01*
X81993872Y-65482143D01*
X82114947Y-65559953D01*
X82114950Y-65559954D01*
X82114949Y-65559954D01*
X82253036Y-65600499D01*
X82253038Y-65600500D01*
X82253039Y-65600500D01*
X82396962Y-65600500D01*
X82396962Y-65600499D01*
X82535053Y-65559953D01*
X82656128Y-65482143D01*
X82731287Y-65395403D01*
X82790064Y-65357629D01*
X82859934Y-65357629D01*
X82918711Y-65395402D01*
X82993872Y-65482143D01*
X83114947Y-65559953D01*
X83114950Y-65559954D01*
X83114949Y-65559954D01*
X83253036Y-65600499D01*
X83253038Y-65600500D01*
X83253039Y-65600500D01*
X83396962Y-65600500D01*
X83396962Y-65600499D01*
X83535053Y-65559953D01*
X83656128Y-65482143D01*
X83750377Y-65373373D01*
X83810165Y-65242457D01*
X83830647Y-65100000D01*
X83810165Y-64957543D01*
X83750377Y-64826627D01*
X83656128Y-64717857D01*
X83535053Y-64640047D01*
X83535051Y-64640046D01*
X83535049Y-64640045D01*
X83535050Y-64640045D01*
X83396963Y-64599500D01*
X83396961Y-64599500D01*
X83253039Y-64599500D01*
X83253036Y-64599500D01*
X83114949Y-64640045D01*
X82993873Y-64717856D01*
X82993872Y-64717856D01*
X82993872Y-64717857D01*
X82975605Y-64738939D01*
X82918713Y-64804596D01*
X82859935Y-64842370D01*
X82790065Y-64842370D01*
X82731287Y-64804596D01*
X82725166Y-64797532D01*
X82656128Y-64717857D01*
X82535053Y-64640047D01*
X82535051Y-64640046D01*
X82535049Y-64640045D01*
X82535050Y-64640045D01*
X82396963Y-64599500D01*
X82396961Y-64599500D01*
X82253039Y-64599500D01*
X82253036Y-64599500D01*
X82114949Y-64640045D01*
X81993873Y-64717856D01*
X81993872Y-64717856D01*
X81993872Y-64717857D01*
X81975605Y-64738939D01*
X81918713Y-64804596D01*
X81859935Y-64842370D01*
X81790065Y-64842370D01*
X81731287Y-64804596D01*
X81725166Y-64797532D01*
X81656128Y-64717857D01*
X81535053Y-64640047D01*
X81535051Y-64640046D01*
X81535049Y-64640045D01*
X81535050Y-64640045D01*
X81396963Y-64599500D01*
X81396961Y-64599500D01*
X81253039Y-64599500D01*
X81253036Y-64599500D01*
X81114949Y-64640045D01*
X80993873Y-64717856D01*
X80993872Y-64717856D01*
X80993872Y-64717857D01*
X80975605Y-64738939D01*
X80918713Y-64804596D01*
X80859935Y-64842370D01*
X80790065Y-64842370D01*
X80731287Y-64804596D01*
X80725166Y-64797532D01*
X80656128Y-64717857D01*
X80535053Y-64640047D01*
X80535051Y-64640046D01*
X80535049Y-64640045D01*
X80535050Y-64640045D01*
X80396963Y-64599500D01*
X80396961Y-64599500D01*
X80253039Y-64599500D01*
X80253036Y-64599500D01*
X80114949Y-64640045D01*
X79993873Y-64717856D01*
X79993872Y-64717856D01*
X79993872Y-64717857D01*
X79975605Y-64738939D01*
X79918713Y-64804596D01*
X79859935Y-64842370D01*
X79790065Y-64842370D01*
X79731287Y-64804596D01*
X79725166Y-64797532D01*
X79656128Y-64717857D01*
X79535053Y-64640047D01*
X79535051Y-64640046D01*
X79535049Y-64640045D01*
X79535050Y-64640045D01*
X79396963Y-64599500D01*
X79396961Y-64599500D01*
X79253039Y-64599500D01*
X79253036Y-64599500D01*
X79114949Y-64640045D01*
X78993873Y-64717856D01*
X78899623Y-64826626D01*
X78899622Y-64826628D01*
X78839834Y-64957543D01*
X78819353Y-65100000D01*
X64330647Y-65100000D01*
X64310165Y-64957543D01*
X64250377Y-64826627D01*
X64156128Y-64717857D01*
X64035053Y-64640047D01*
X64035051Y-64640046D01*
X64035049Y-64640045D01*
X64035050Y-64640045D01*
X63896963Y-64599500D01*
X63896961Y-64599500D01*
X63753039Y-64599500D01*
X63753036Y-64599500D01*
X63614949Y-64640045D01*
X63493873Y-64717856D01*
X63493872Y-64717856D01*
X63493872Y-64717857D01*
X63475605Y-64738939D01*
X63418713Y-64804596D01*
X63359935Y-64842370D01*
X63290065Y-64842370D01*
X63231287Y-64804596D01*
X63225166Y-64797532D01*
X63156128Y-64717857D01*
X63035053Y-64640047D01*
X63035051Y-64640046D01*
X63035049Y-64640045D01*
X63035050Y-64640045D01*
X62896963Y-64599500D01*
X62896961Y-64599500D01*
X62753039Y-64599500D01*
X62753036Y-64599500D01*
X62614949Y-64640045D01*
X62493873Y-64717856D01*
X62493872Y-64717856D01*
X62493872Y-64717857D01*
X62475605Y-64738939D01*
X62418713Y-64804596D01*
X62359935Y-64842370D01*
X62290065Y-64842370D01*
X62231287Y-64804596D01*
X62225166Y-64797532D01*
X62156128Y-64717857D01*
X62035053Y-64640047D01*
X62035051Y-64640046D01*
X62035049Y-64640045D01*
X62035050Y-64640045D01*
X61896963Y-64599500D01*
X61896961Y-64599500D01*
X61753039Y-64599500D01*
X61753036Y-64599500D01*
X61614949Y-64640045D01*
X61493873Y-64717856D01*
X61493872Y-64717856D01*
X61493872Y-64717857D01*
X61475605Y-64738939D01*
X61418713Y-64804596D01*
X61359935Y-64842370D01*
X61290065Y-64842370D01*
X61231287Y-64804596D01*
X61225166Y-64797532D01*
X61156128Y-64717857D01*
X61035053Y-64640047D01*
X61035051Y-64640046D01*
X61035049Y-64640045D01*
X61035050Y-64640045D01*
X60896963Y-64599500D01*
X60896961Y-64599500D01*
X60753039Y-64599500D01*
X60753036Y-64599500D01*
X60614949Y-64640045D01*
X60493873Y-64717856D01*
X60493872Y-64717856D01*
X60493872Y-64717857D01*
X60475605Y-64738939D01*
X60418713Y-64804596D01*
X60359935Y-64842370D01*
X60290065Y-64842370D01*
X60231287Y-64804596D01*
X60225166Y-64797532D01*
X60156128Y-64717857D01*
X60035053Y-64640047D01*
X60035051Y-64640046D01*
X60035049Y-64640045D01*
X60035050Y-64640045D01*
X59896963Y-64599500D01*
X59896961Y-64599500D01*
X59753039Y-64599500D01*
X59753036Y-64599500D01*
X59614949Y-64640045D01*
X59493873Y-64717856D01*
X59399623Y-64826626D01*
X59399622Y-64826628D01*
X59339834Y-64957543D01*
X59319353Y-65100000D01*
X46000500Y-65100000D01*
X46000500Y-64269123D01*
X52937500Y-64269123D01*
X52952467Y-64382801D01*
X52952467Y-64382802D01*
X53011060Y-64524258D01*
X53011061Y-64524259D01*
X53104269Y-64645731D01*
X53225741Y-64738939D01*
X53367198Y-64797533D01*
X53480884Y-64812500D01*
X53480891Y-64812500D01*
X54319109Y-64812500D01*
X54319116Y-64812500D01*
X54432802Y-64797533D01*
X54574259Y-64738939D01*
X54695731Y-64645731D01*
X54788939Y-64524259D01*
X54847533Y-64382802D01*
X54862500Y-64269116D01*
X54862500Y-63430884D01*
X54847533Y-63317198D01*
X54788939Y-63175741D01*
X54695731Y-63054269D01*
X54574259Y-62961061D01*
X54574258Y-62961060D01*
X54491395Y-62926737D01*
X54432802Y-62902467D01*
X54418591Y-62900596D01*
X54319123Y-62887500D01*
X54319116Y-62887500D01*
X53480884Y-62887500D01*
X53480876Y-62887500D01*
X53367198Y-62902467D01*
X53367197Y-62902467D01*
X53225741Y-62961060D01*
X53104269Y-63054269D01*
X53011060Y-63175741D01*
X52952467Y-63317197D01*
X52952467Y-63317198D01*
X52937500Y-63430876D01*
X52937500Y-64269123D01*
X46000500Y-64269123D01*
X46000500Y-62850000D01*
X105494353Y-62850000D01*
X105514834Y-62992456D01*
X105543064Y-63054269D01*
X105574623Y-63123373D01*
X105668872Y-63232143D01*
X105789947Y-63309953D01*
X105789950Y-63309954D01*
X105789949Y-63309954D01*
X105928036Y-63350499D01*
X105928038Y-63350500D01*
X105928039Y-63350500D01*
X106071962Y-63350500D01*
X106071962Y-63350499D01*
X106210053Y-63309953D01*
X106331128Y-63232143D01*
X106425377Y-63123373D01*
X106485165Y-62992457D01*
X106505647Y-62850000D01*
X106485165Y-62707543D01*
X106425377Y-62576627D01*
X106331128Y-62467857D01*
X106210053Y-62390047D01*
X106210051Y-62390046D01*
X106210049Y-62390045D01*
X106210050Y-62390045D01*
X106071963Y-62349500D01*
X106071961Y-62349500D01*
X105928039Y-62349500D01*
X105928036Y-62349500D01*
X105789949Y-62390045D01*
X105668873Y-62467856D01*
X105574623Y-62576626D01*
X105574622Y-62576628D01*
X105514834Y-62707543D01*
X105494353Y-62850000D01*
X46000500Y-62850000D01*
X46000500Y-58950000D01*
X52932843Y-58950000D01*
X52951426Y-59138681D01*
X52969772Y-59199160D01*
X53006463Y-59320115D01*
X53006464Y-59320118D01*
X53006465Y-59320119D01*
X53006466Y-59320122D01*
X53095834Y-59487318D01*
X53095838Y-59487325D01*
X53216116Y-59633883D01*
X53362674Y-59754161D01*
X53362681Y-59754165D01*
X53529877Y-59843533D01*
X53529878Y-59843533D01*
X53529885Y-59843537D01*
X53711317Y-59898573D01*
X53711316Y-59898573D01*
X53728233Y-59900239D01*
X53900000Y-59917157D01*
X54088683Y-59898573D01*
X54270115Y-59843537D01*
X54437324Y-59754162D01*
X54583883Y-59633883D01*
X54704162Y-59487324D01*
X54793537Y-59320115D01*
X54799639Y-59300000D01*
X63294353Y-59300000D01*
X63314834Y-59442456D01*
X63357235Y-59535300D01*
X63374623Y-59573373D01*
X63468872Y-59682143D01*
X63589947Y-59759953D01*
X63589950Y-59759954D01*
X63589949Y-59759954D01*
X63728036Y-59800499D01*
X63728038Y-59800500D01*
X63728039Y-59800500D01*
X63871962Y-59800500D01*
X63871962Y-59800499D01*
X64010053Y-59759953D01*
X64131128Y-59682143D01*
X64225377Y-59573373D01*
X64285165Y-59442457D01*
X64305647Y-59300000D01*
X82794353Y-59300000D01*
X82814834Y-59442456D01*
X82857235Y-59535300D01*
X82874623Y-59573373D01*
X82968872Y-59682143D01*
X83089947Y-59759953D01*
X83089950Y-59759954D01*
X83089949Y-59759954D01*
X83228036Y-59800499D01*
X83228038Y-59800500D01*
X83228039Y-59800500D01*
X83371962Y-59800500D01*
X83371962Y-59800499D01*
X83510053Y-59759953D01*
X83631128Y-59682143D01*
X83702305Y-59600000D01*
X104994353Y-59600000D01*
X105014834Y-59742456D01*
X105060995Y-59843533D01*
X105074623Y-59873373D01*
X105168872Y-59982143D01*
X105289947Y-60059953D01*
X105289950Y-60059954D01*
X105289949Y-60059954D01*
X105428036Y-60100499D01*
X105428038Y-60100500D01*
X105428039Y-60100500D01*
X105571962Y-60100500D01*
X105571962Y-60100499D01*
X105710053Y-60059953D01*
X105831128Y-59982143D01*
X105925377Y-59873373D01*
X105985165Y-59742457D01*
X106005647Y-59600000D01*
X105985165Y-59457543D01*
X105925377Y-59326627D01*
X105831128Y-59217857D01*
X105710053Y-59140047D01*
X105710051Y-59140046D01*
X105710049Y-59140045D01*
X105710050Y-59140045D01*
X105571963Y-59099500D01*
X105571961Y-59099500D01*
X105428039Y-59099500D01*
X105428036Y-59099500D01*
X105289949Y-59140045D01*
X105168873Y-59217856D01*
X105074623Y-59326626D01*
X105074622Y-59326628D01*
X105014834Y-59457543D01*
X104994353Y-59600000D01*
X83702305Y-59600000D01*
X83725377Y-59573373D01*
X83785165Y-59442457D01*
X83805647Y-59300000D01*
X83785165Y-59157543D01*
X83777521Y-59140806D01*
X83767578Y-59071650D01*
X83796602Y-59008094D01*
X83855380Y-58970319D01*
X83925251Y-58970319D01*
X84028038Y-59000500D01*
X84028039Y-59000500D01*
X84171962Y-59000500D01*
X84171962Y-59000499D01*
X84310050Y-58959954D01*
X84310051Y-58959954D01*
X84325540Y-58950000D01*
X84431128Y-58882143D01*
X84431129Y-58882141D01*
X84432960Y-58880965D01*
X84500000Y-58861280D01*
X84567039Y-58880964D01*
X84567040Y-58880965D01*
X84568870Y-58882141D01*
X84568872Y-58882143D01*
X84602811Y-58903954D01*
X84689948Y-58959954D01*
X84828036Y-59000499D01*
X84828038Y-59000500D01*
X84828039Y-59000500D01*
X84971962Y-59000500D01*
X84971962Y-59000499D01*
X85110053Y-58959953D01*
X85231128Y-58882143D01*
X85325377Y-58773373D01*
X85385165Y-58642457D01*
X85405647Y-58500000D01*
X85391269Y-58400000D01*
X99994353Y-58400000D01*
X100014834Y-58542456D01*
X100060504Y-58642457D01*
X100074623Y-58673373D01*
X100168872Y-58782143D01*
X100289947Y-58859953D01*
X100289950Y-58859954D01*
X100289949Y-58859954D01*
X100361508Y-58880965D01*
X100426336Y-58900000D01*
X100428036Y-58900499D01*
X100428038Y-58900500D01*
X100428039Y-58900500D01*
X100571962Y-58900500D01*
X100571962Y-58900499D01*
X100710053Y-58859953D01*
X100831128Y-58782143D01*
X100906287Y-58695403D01*
X100965064Y-58657629D01*
X101034934Y-58657629D01*
X101093711Y-58695402D01*
X101168872Y-58782143D01*
X101289947Y-58859953D01*
X101289950Y-58859954D01*
X101289949Y-58859954D01*
X101361508Y-58880965D01*
X101426336Y-58900000D01*
X101428036Y-58900499D01*
X101428038Y-58900500D01*
X101428039Y-58900500D01*
X101571962Y-58900500D01*
X101571962Y-58900499D01*
X101710053Y-58859953D01*
X101831128Y-58782143D01*
X101925377Y-58673373D01*
X101985165Y-58542457D01*
X101991269Y-58500000D01*
X107219417Y-58500000D01*
X107239699Y-58705932D01*
X107260157Y-58773373D01*
X107299768Y-58903954D01*
X107397315Y-59086450D01*
X107397317Y-59086452D01*
X107528589Y-59246410D01*
X107593890Y-59300000D01*
X107688550Y-59377685D01*
X107871046Y-59475232D01*
X108069066Y-59535300D01*
X108069065Y-59535300D01*
X108107647Y-59539100D01*
X108223392Y-59550500D01*
X108223395Y-59550500D01*
X108576605Y-59550500D01*
X108576608Y-59550500D01*
X108730934Y-59535300D01*
X108928954Y-59475232D01*
X109111450Y-59377685D01*
X109271410Y-59246410D01*
X109402685Y-59086450D01*
X109500232Y-58903954D01*
X109560300Y-58705934D01*
X109580583Y-58500000D01*
X109560300Y-58294066D01*
X109500232Y-58096046D01*
X109402685Y-57913550D01*
X109324925Y-57818798D01*
X109271410Y-57753589D01*
X109111452Y-57622317D01*
X109111453Y-57622317D01*
X109111450Y-57622315D01*
X108928954Y-57524768D01*
X108730934Y-57464700D01*
X108730932Y-57464699D01*
X108730934Y-57464699D01*
X108611805Y-57452966D01*
X108576608Y-57449500D01*
X108223392Y-57449500D01*
X108185298Y-57453251D01*
X108069067Y-57464699D01*
X107871043Y-57524769D01*
X107760898Y-57583643D01*
X107688550Y-57622315D01*
X107688548Y-57622316D01*
X107688547Y-57622317D01*
X107528589Y-57753589D01*
X107397317Y-57913547D01*
X107299769Y-58096043D01*
X107239699Y-58294067D01*
X107219417Y-58500000D01*
X101991269Y-58500000D01*
X102005647Y-58400000D01*
X101985165Y-58257543D01*
X101925377Y-58126627D01*
X101831128Y-58017857D01*
X101831125Y-58017855D01*
X101831125Y-58017854D01*
X101810058Y-58004316D01*
X101764302Y-57951513D01*
X101754358Y-57882354D01*
X101783382Y-57818798D01*
X101810058Y-57795684D01*
X101831125Y-57782145D01*
X101831125Y-57782144D01*
X101831128Y-57782143D01*
X101925377Y-57673373D01*
X101985165Y-57542457D01*
X102005647Y-57400000D01*
X101985165Y-57257543D01*
X101925377Y-57126627D01*
X101831128Y-57017857D01*
X101831125Y-57017855D01*
X101831125Y-57017854D01*
X101810058Y-57004316D01*
X101771775Y-56960137D01*
X105145311Y-56960137D01*
X105165792Y-57102593D01*
X105218862Y-57218797D01*
X105225581Y-57233510D01*
X105319830Y-57342280D01*
X105440905Y-57420090D01*
X105440908Y-57420091D01*
X105440907Y-57420091D01*
X105578994Y-57460636D01*
X105578996Y-57460637D01*
X105578997Y-57460637D01*
X105722920Y-57460637D01*
X105722920Y-57460636D01*
X105861011Y-57420090D01*
X105982086Y-57342280D01*
X106076335Y-57233510D01*
X106136123Y-57102594D01*
X106156605Y-56960137D01*
X106136123Y-56817680D01*
X106076335Y-56686764D01*
X105982086Y-56577994D01*
X105861011Y-56500184D01*
X105861009Y-56500183D01*
X105861007Y-56500182D01*
X105861008Y-56500182D01*
X105722921Y-56459637D01*
X105722919Y-56459637D01*
X105578997Y-56459637D01*
X105578994Y-56459637D01*
X105440907Y-56500182D01*
X105319831Y-56577993D01*
X105225581Y-56686763D01*
X105225580Y-56686765D01*
X105165792Y-56817680D01*
X105145311Y-56960137D01*
X101771775Y-56960137D01*
X101764302Y-56951513D01*
X101754358Y-56882354D01*
X101783382Y-56818798D01*
X101810058Y-56795684D01*
X101831125Y-56782145D01*
X101831125Y-56782144D01*
X101831128Y-56782143D01*
X101925377Y-56673373D01*
X101985165Y-56542457D01*
X102005647Y-56400000D01*
X102003340Y-56383954D01*
X102013281Y-56314796D01*
X102059035Y-56261991D01*
X102126074Y-56242305D01*
X102180907Y-56258404D01*
X102181882Y-56256270D01*
X102189949Y-56259954D01*
X102328036Y-56300499D01*
X102328038Y-56300500D01*
X102328039Y-56300500D01*
X102471962Y-56300500D01*
X102471962Y-56300499D01*
X102610053Y-56259953D01*
X102731128Y-56182143D01*
X102825377Y-56073373D01*
X102858886Y-56000000D01*
X107219417Y-56000000D01*
X107239699Y-56205932D01*
X107268386Y-56300499D01*
X107299768Y-56403954D01*
X107397315Y-56586450D01*
X107397317Y-56586452D01*
X107528589Y-56746410D01*
X107625209Y-56825702D01*
X107688550Y-56877685D01*
X107871046Y-56975232D01*
X108069066Y-57035300D01*
X108069065Y-57035300D01*
X108107647Y-57039100D01*
X108223392Y-57050500D01*
X108223395Y-57050500D01*
X108576605Y-57050500D01*
X108576608Y-57050500D01*
X108730934Y-57035300D01*
X108928954Y-56975232D01*
X109111450Y-56877685D01*
X109271410Y-56746410D01*
X109402685Y-56586450D01*
X109500232Y-56403954D01*
X109560300Y-56205934D01*
X109580583Y-56000000D01*
X109560300Y-55794066D01*
X109500232Y-55596046D01*
X109402685Y-55413550D01*
X109342361Y-55340045D01*
X109271410Y-55253589D01*
X109111452Y-55122317D01*
X109111453Y-55122317D01*
X109111450Y-55122315D01*
X108928954Y-55024768D01*
X108730934Y-54964700D01*
X108730932Y-54964699D01*
X108730934Y-54964699D01*
X108611805Y-54952966D01*
X108576608Y-54949500D01*
X108223392Y-54949500D01*
X108185298Y-54953251D01*
X108069067Y-54964699D01*
X107871043Y-55024769D01*
X107821268Y-55051375D01*
X107688550Y-55122315D01*
X107688548Y-55122316D01*
X107688547Y-55122317D01*
X107528589Y-55253589D01*
X107397317Y-55413547D01*
X107397315Y-55413550D01*
X107395013Y-55417857D01*
X107299769Y-55596043D01*
X107239699Y-55794067D01*
X107219417Y-56000000D01*
X102858886Y-56000000D01*
X102885165Y-55942457D01*
X102905647Y-55800000D01*
X102885165Y-55657543D01*
X102825377Y-55526627D01*
X102731128Y-55417857D01*
X102610053Y-55340047D01*
X102610051Y-55340046D01*
X102610049Y-55340045D01*
X102610050Y-55340045D01*
X102471963Y-55299500D01*
X102471961Y-55299500D01*
X102328039Y-55299500D01*
X102328036Y-55299500D01*
X102189949Y-55340045D01*
X102068873Y-55417856D01*
X101974623Y-55526626D01*
X101974622Y-55526628D01*
X101914834Y-55657543D01*
X101894353Y-55800000D01*
X101894353Y-55800001D01*
X101896660Y-55816048D01*
X101886716Y-55885207D01*
X101840960Y-55938010D01*
X101773921Y-55957694D01*
X101719093Y-55941595D01*
X101718118Y-55943730D01*
X101710050Y-55940045D01*
X101571963Y-55899500D01*
X101571961Y-55899500D01*
X101428039Y-55899500D01*
X101428036Y-55899500D01*
X101289949Y-55940045D01*
X101168873Y-56017856D01*
X101168872Y-56017856D01*
X101168872Y-56017857D01*
X101120768Y-56073373D01*
X101093713Y-56104596D01*
X101034935Y-56142370D01*
X100965065Y-56142370D01*
X100906287Y-56104596D01*
X100831128Y-56017857D01*
X100710053Y-55940047D01*
X100710051Y-55940046D01*
X100710049Y-55940045D01*
X100710050Y-55940045D01*
X100571963Y-55899500D01*
X100571961Y-55899500D01*
X100428039Y-55899500D01*
X100428036Y-55899500D01*
X100289949Y-55940045D01*
X100168873Y-56017856D01*
X100074623Y-56126626D01*
X100074622Y-56126628D01*
X100014834Y-56257543D01*
X99994353Y-56400000D01*
X100014834Y-56542456D01*
X100053275Y-56626628D01*
X100074623Y-56673373D01*
X100168872Y-56782143D01*
X100176324Y-56786932D01*
X100189943Y-56795685D01*
X100235698Y-56848489D01*
X100245641Y-56917648D01*
X100216615Y-56981203D01*
X100189943Y-57004315D01*
X100168874Y-57017855D01*
X100074623Y-57126626D01*
X100074622Y-57126628D01*
X100014834Y-57257543D01*
X99994353Y-57400000D01*
X100014834Y-57542456D01*
X100051305Y-57622315D01*
X100074623Y-57673373D01*
X100168872Y-57782143D01*
X100176324Y-57786932D01*
X100189943Y-57795685D01*
X100235698Y-57848489D01*
X100245641Y-57917648D01*
X100216615Y-57981203D01*
X100189943Y-58004315D01*
X100168874Y-58017855D01*
X100074623Y-58126626D01*
X100074622Y-58126628D01*
X100014834Y-58257543D01*
X99994353Y-58400000D01*
X85391269Y-58400000D01*
X85385165Y-58357543D01*
X85377521Y-58340806D01*
X85367578Y-58271650D01*
X85396602Y-58208094D01*
X85455380Y-58170319D01*
X85525251Y-58170319D01*
X85628038Y-58200500D01*
X85628039Y-58200500D01*
X85771962Y-58200500D01*
X85771962Y-58200499D01*
X85910050Y-58159954D01*
X85910051Y-58159954D01*
X85932016Y-58145838D01*
X86031128Y-58082143D01*
X86031129Y-58082141D01*
X86032960Y-58080965D01*
X86100000Y-58061280D01*
X86167039Y-58080964D01*
X86167040Y-58080965D01*
X86168870Y-58082141D01*
X86168872Y-58082143D01*
X86203810Y-58104596D01*
X86289948Y-58159954D01*
X86428036Y-58200499D01*
X86428038Y-58200500D01*
X86428039Y-58200500D01*
X86571962Y-58200500D01*
X86571962Y-58200499D01*
X86710053Y-58159953D01*
X86831128Y-58082143D01*
X86925377Y-57973373D01*
X86985165Y-57842457D01*
X87005647Y-57700000D01*
X86985165Y-57557543D01*
X86925377Y-57426627D01*
X86925375Y-57426625D01*
X86925374Y-57426622D01*
X86886017Y-57381203D01*
X86856991Y-57317648D01*
X86866934Y-57248489D01*
X86886017Y-57218797D01*
X86925374Y-57173377D01*
X86925374Y-57173375D01*
X86925377Y-57173373D01*
X86985165Y-57042457D01*
X87005647Y-56900000D01*
X86985165Y-56757543D01*
X86925377Y-56626627D01*
X86831128Y-56517857D01*
X86710053Y-56440047D01*
X86710051Y-56440046D01*
X86710049Y-56440045D01*
X86710050Y-56440045D01*
X86571963Y-56399500D01*
X86571961Y-56399500D01*
X86428039Y-56399500D01*
X86428036Y-56399500D01*
X86289949Y-56440045D01*
X86167039Y-56519035D01*
X86100000Y-56538719D01*
X86032961Y-56519035D01*
X86003625Y-56500182D01*
X85910053Y-56440047D01*
X85910051Y-56440046D01*
X85910049Y-56440045D01*
X85910050Y-56440045D01*
X85771963Y-56399500D01*
X85771961Y-56399500D01*
X85628039Y-56399500D01*
X85628036Y-56399500D01*
X85489949Y-56440045D01*
X85367039Y-56519035D01*
X85300000Y-56538719D01*
X85232961Y-56519035D01*
X85203625Y-56500182D01*
X85110053Y-56440047D01*
X85110051Y-56440046D01*
X85110049Y-56440045D01*
X85110050Y-56440045D01*
X84971963Y-56399500D01*
X84971961Y-56399500D01*
X84828039Y-56399500D01*
X84828036Y-56399500D01*
X84689949Y-56440045D01*
X84567039Y-56519035D01*
X84500000Y-56538719D01*
X84432961Y-56519035D01*
X84403625Y-56500182D01*
X84310053Y-56440047D01*
X84310051Y-56440046D01*
X84310049Y-56440045D01*
X84310050Y-56440045D01*
X84171963Y-56399500D01*
X84171961Y-56399500D01*
X84028039Y-56399500D01*
X84028036Y-56399500D01*
X83889949Y-56440045D01*
X83767039Y-56519035D01*
X83700000Y-56538719D01*
X83632961Y-56519035D01*
X83603625Y-56500182D01*
X83510053Y-56440047D01*
X83510051Y-56440046D01*
X83510049Y-56440045D01*
X83510050Y-56440045D01*
X83371963Y-56399500D01*
X83371961Y-56399500D01*
X83228039Y-56399500D01*
X83228036Y-56399500D01*
X83089949Y-56440045D01*
X82968873Y-56517856D01*
X82874623Y-56626626D01*
X82874622Y-56626628D01*
X82814834Y-56757543D01*
X82794353Y-56900000D01*
X82814834Y-57042456D01*
X82874622Y-57173371D01*
X82874625Y-57173377D01*
X82913983Y-57218798D01*
X82943008Y-57282353D01*
X82933064Y-57351512D01*
X82913983Y-57381202D01*
X82874625Y-57426622D01*
X82874622Y-57426628D01*
X82814834Y-57557543D01*
X82794353Y-57700000D01*
X82814834Y-57842456D01*
X82874622Y-57973371D01*
X82874625Y-57973377D01*
X82913983Y-58018798D01*
X82943008Y-58082353D01*
X82933064Y-58151512D01*
X82913983Y-58181202D01*
X82874625Y-58226622D01*
X82874622Y-58226628D01*
X82814834Y-58357543D01*
X82794353Y-58500000D01*
X82814834Y-58642456D01*
X82874622Y-58773371D01*
X82874625Y-58773377D01*
X82913983Y-58818798D01*
X82943008Y-58882353D01*
X82933064Y-58951512D01*
X82913983Y-58981202D01*
X82874625Y-59026622D01*
X82874622Y-59026628D01*
X82814834Y-59157543D01*
X82794353Y-59300000D01*
X64305647Y-59300000D01*
X64285165Y-59157543D01*
X64277521Y-59140806D01*
X64267578Y-59071650D01*
X64296602Y-59008094D01*
X64355380Y-58970319D01*
X64425251Y-58970319D01*
X64528038Y-59000500D01*
X64528039Y-59000500D01*
X64671962Y-59000500D01*
X64671962Y-59000499D01*
X64810050Y-58959954D01*
X64810051Y-58959954D01*
X64825540Y-58950000D01*
X64931128Y-58882143D01*
X64931129Y-58882141D01*
X64932960Y-58880965D01*
X65000000Y-58861280D01*
X65067039Y-58880964D01*
X65067040Y-58880965D01*
X65068870Y-58882141D01*
X65068872Y-58882143D01*
X65102811Y-58903954D01*
X65189948Y-58959954D01*
X65328036Y-59000499D01*
X65328038Y-59000500D01*
X65328039Y-59000500D01*
X65471962Y-59000500D01*
X65471962Y-59000499D01*
X65610053Y-58959953D01*
X65731128Y-58882143D01*
X65825377Y-58773373D01*
X65885165Y-58642457D01*
X65905647Y-58500000D01*
X65885165Y-58357543D01*
X65877521Y-58340806D01*
X65867578Y-58271650D01*
X65896602Y-58208094D01*
X65955380Y-58170319D01*
X66025251Y-58170319D01*
X66128038Y-58200500D01*
X66128039Y-58200500D01*
X66271962Y-58200500D01*
X66271962Y-58200499D01*
X66410050Y-58159954D01*
X66410051Y-58159954D01*
X66432016Y-58145838D01*
X66531128Y-58082143D01*
X66531129Y-58082141D01*
X66532960Y-58080965D01*
X66600000Y-58061280D01*
X66667039Y-58080964D01*
X66667040Y-58080965D01*
X66668870Y-58082141D01*
X66668872Y-58082143D01*
X66703810Y-58104596D01*
X66789948Y-58159954D01*
X66928036Y-58200499D01*
X66928038Y-58200500D01*
X66928039Y-58200500D01*
X67071962Y-58200500D01*
X67071962Y-58200499D01*
X67210053Y-58159953D01*
X67331128Y-58082143D01*
X67425377Y-57973373D01*
X67485165Y-57842457D01*
X67505647Y-57700000D01*
X67485165Y-57557543D01*
X67425377Y-57426627D01*
X67425375Y-57426625D01*
X67425374Y-57426622D01*
X67386017Y-57381203D01*
X67356991Y-57317648D01*
X67366934Y-57248489D01*
X67386017Y-57218797D01*
X67425374Y-57173377D01*
X67425374Y-57173375D01*
X67425377Y-57173373D01*
X67485165Y-57042457D01*
X67505647Y-56900000D01*
X67485165Y-56757543D01*
X67425377Y-56626627D01*
X67331128Y-56517857D01*
X67210053Y-56440047D01*
X67210051Y-56440046D01*
X67210049Y-56440045D01*
X67210050Y-56440045D01*
X67071963Y-56399500D01*
X67071961Y-56399500D01*
X66928039Y-56399500D01*
X66928036Y-56399500D01*
X66789949Y-56440045D01*
X66667039Y-56519035D01*
X66600000Y-56538719D01*
X66532961Y-56519035D01*
X66503625Y-56500182D01*
X66410053Y-56440047D01*
X66410051Y-56440046D01*
X66410049Y-56440045D01*
X66410050Y-56440045D01*
X66271963Y-56399500D01*
X66271961Y-56399500D01*
X66128039Y-56399500D01*
X66128036Y-56399500D01*
X65989949Y-56440045D01*
X65867039Y-56519035D01*
X65800000Y-56538719D01*
X65732961Y-56519035D01*
X65703625Y-56500182D01*
X65610053Y-56440047D01*
X65610051Y-56440046D01*
X65610049Y-56440045D01*
X65610050Y-56440045D01*
X65471963Y-56399500D01*
X65471961Y-56399500D01*
X65328039Y-56399500D01*
X65328036Y-56399500D01*
X65189949Y-56440045D01*
X65067039Y-56519035D01*
X65000000Y-56538719D01*
X64932961Y-56519035D01*
X64903625Y-56500182D01*
X64810053Y-56440047D01*
X64810051Y-56440046D01*
X64810049Y-56440045D01*
X64810050Y-56440045D01*
X64671963Y-56399500D01*
X64671961Y-56399500D01*
X64528039Y-56399500D01*
X64528036Y-56399500D01*
X64389949Y-56440045D01*
X64267039Y-56519035D01*
X64200000Y-56538719D01*
X64132961Y-56519035D01*
X64103625Y-56500182D01*
X64010053Y-56440047D01*
X64010051Y-56440046D01*
X64010049Y-56440045D01*
X64010050Y-56440045D01*
X63871963Y-56399500D01*
X63871961Y-56399500D01*
X63728039Y-56399500D01*
X63728036Y-56399500D01*
X63589949Y-56440045D01*
X63468873Y-56517856D01*
X63374623Y-56626626D01*
X63374622Y-56626628D01*
X63314834Y-56757543D01*
X63294353Y-56900000D01*
X63314834Y-57042456D01*
X63374622Y-57173371D01*
X63374625Y-57173377D01*
X63413983Y-57218798D01*
X63443008Y-57282353D01*
X63433064Y-57351512D01*
X63413983Y-57381202D01*
X63374625Y-57426622D01*
X63374622Y-57426628D01*
X63314834Y-57557543D01*
X63294353Y-57700000D01*
X63314834Y-57842456D01*
X63374622Y-57973371D01*
X63374625Y-57973377D01*
X63413983Y-58018798D01*
X63443008Y-58082353D01*
X63433064Y-58151512D01*
X63413983Y-58181202D01*
X63374625Y-58226622D01*
X63374622Y-58226628D01*
X63314834Y-58357543D01*
X63294353Y-58500000D01*
X63314834Y-58642456D01*
X63374622Y-58773371D01*
X63374625Y-58773377D01*
X63413983Y-58818798D01*
X63443008Y-58882353D01*
X63433064Y-58951512D01*
X63413983Y-58981202D01*
X63374625Y-59026622D01*
X63374622Y-59026628D01*
X63314834Y-59157543D01*
X63294353Y-59300000D01*
X54799639Y-59300000D01*
X54848573Y-59138683D01*
X54867157Y-58950000D01*
X54848573Y-58761317D01*
X54793537Y-58579885D01*
X54793533Y-58579877D01*
X54704165Y-58412681D01*
X54704161Y-58412674D01*
X54583883Y-58266116D01*
X54437325Y-58145838D01*
X54437318Y-58145834D01*
X54270122Y-58056466D01*
X54270119Y-58056465D01*
X54270118Y-58056464D01*
X54270115Y-58056463D01*
X54088683Y-58001427D01*
X54088681Y-58001426D01*
X54088683Y-58001426D01*
X53900000Y-57982843D01*
X53711318Y-58001426D01*
X53604194Y-58033921D01*
X53529885Y-58056463D01*
X53529882Y-58056464D01*
X53529880Y-58056465D01*
X53529877Y-58056466D01*
X53362681Y-58145834D01*
X53362674Y-58145838D01*
X53216116Y-58266116D01*
X53095838Y-58412674D01*
X53095834Y-58412681D01*
X53006466Y-58579877D01*
X53006465Y-58579880D01*
X52951426Y-58761318D01*
X52932843Y-58950000D01*
X46000500Y-58950000D01*
X46000500Y-54591422D01*
X80152931Y-54591422D01*
X80173412Y-54733878D01*
X80204588Y-54802143D01*
X80233201Y-54864795D01*
X80327450Y-54973565D01*
X80448525Y-55051375D01*
X80448528Y-55051376D01*
X80448527Y-55051376D01*
X80586614Y-55091921D01*
X80586616Y-55091922D01*
X80586617Y-55091922D01*
X80730540Y-55091922D01*
X80730540Y-55091921D01*
X80868631Y-55051375D01*
X80989706Y-54973565D01*
X81083955Y-54864795D01*
X81143743Y-54733879D01*
X81164225Y-54591422D01*
X81143743Y-54448965D01*
X81130515Y-54420000D01*
X96244353Y-54420000D01*
X96264834Y-54562456D01*
X96278063Y-54591422D01*
X96324623Y-54693373D01*
X96418872Y-54802143D01*
X96539947Y-54879953D01*
X96539950Y-54879954D01*
X96539949Y-54879954D01*
X96678036Y-54920499D01*
X96678038Y-54920500D01*
X96678039Y-54920500D01*
X96821962Y-54920500D01*
X96821962Y-54920499D01*
X96960053Y-54879953D01*
X97081128Y-54802143D01*
X97175377Y-54693373D01*
X97235165Y-54562457D01*
X97255647Y-54420000D01*
X97235165Y-54277543D01*
X97175377Y-54146627D01*
X97081128Y-54037857D01*
X96960053Y-53960047D01*
X96960051Y-53960046D01*
X96960049Y-53960045D01*
X96960050Y-53960045D01*
X96821963Y-53919500D01*
X96821961Y-53919500D01*
X96678039Y-53919500D01*
X96678036Y-53919500D01*
X96539949Y-53960045D01*
X96418873Y-54037856D01*
X96324623Y-54146626D01*
X96324622Y-54146628D01*
X96264834Y-54277543D01*
X96244353Y-54420000D01*
X81130515Y-54420000D01*
X81083955Y-54318049D01*
X80989706Y-54209279D01*
X80868631Y-54131469D01*
X80868629Y-54131468D01*
X80868627Y-54131467D01*
X80868628Y-54131467D01*
X80730541Y-54090922D01*
X80730539Y-54090922D01*
X80586617Y-54090922D01*
X80586614Y-54090922D01*
X80448527Y-54131467D01*
X80327451Y-54209278D01*
X80233201Y-54318048D01*
X80233200Y-54318050D01*
X80173412Y-54448965D01*
X80152931Y-54591422D01*
X46000500Y-54591422D01*
X46000500Y-52139752D01*
X53819500Y-52139752D01*
X53831131Y-52198229D01*
X53831132Y-52198230D01*
X53875447Y-52264552D01*
X53941769Y-52308867D01*
X53941770Y-52308868D01*
X54000247Y-52320499D01*
X54000250Y-52320500D01*
X54000252Y-52320500D01*
X55739750Y-52320500D01*
X55739751Y-52320499D01*
X55754568Y-52317552D01*
X55798229Y-52308868D01*
X55798229Y-52308867D01*
X55798231Y-52308867D01*
X55864552Y-52264552D01*
X55908867Y-52198231D01*
X55908867Y-52198229D01*
X55908868Y-52198229D01*
X55919086Y-52146857D01*
X55920500Y-52139748D01*
X55920500Y-51270000D01*
X56354417Y-51270000D01*
X56374699Y-51475932D01*
X56374700Y-51475934D01*
X56434768Y-51673954D01*
X56532315Y-51856450D01*
X56532317Y-51856452D01*
X56663589Y-52016410D01*
X56743272Y-52081803D01*
X56823550Y-52147685D01*
X57006046Y-52245232D01*
X57204066Y-52305300D01*
X57204065Y-52305300D01*
X57222529Y-52307118D01*
X57410000Y-52325583D01*
X57615934Y-52305300D01*
X57813954Y-52245232D01*
X57996450Y-52147685D01*
X58156410Y-52016410D01*
X58287685Y-51856450D01*
X58385232Y-51673954D01*
X58445300Y-51475934D01*
X58465583Y-51270000D01*
X58894417Y-51270000D01*
X58914699Y-51475932D01*
X58914700Y-51475934D01*
X58974768Y-51673954D01*
X59072315Y-51856450D01*
X59072317Y-51856452D01*
X59203589Y-52016410D01*
X59283272Y-52081803D01*
X59363550Y-52147685D01*
X59546046Y-52245232D01*
X59744066Y-52305300D01*
X59744065Y-52305300D01*
X59762529Y-52307118D01*
X59950000Y-52325583D01*
X60155934Y-52305300D01*
X60353954Y-52245232D01*
X60536450Y-52147685D01*
X60696410Y-52016410D01*
X60827685Y-51856450D01*
X60925232Y-51673954D01*
X60985300Y-51475934D01*
X61005583Y-51270000D01*
X61434417Y-51270000D01*
X61454699Y-51475932D01*
X61454700Y-51475934D01*
X61514768Y-51673954D01*
X61612315Y-51856450D01*
X61612317Y-51856452D01*
X61743589Y-52016410D01*
X61823272Y-52081803D01*
X61903550Y-52147685D01*
X62086046Y-52245232D01*
X62284066Y-52305300D01*
X62284065Y-52305300D01*
X62302529Y-52307118D01*
X62490000Y-52325583D01*
X62695934Y-52305300D01*
X62893954Y-52245232D01*
X63076450Y-52147685D01*
X63236410Y-52016410D01*
X63367685Y-51856450D01*
X63465232Y-51673954D01*
X63525300Y-51475934D01*
X63545583Y-51270000D01*
X66514417Y-51270000D01*
X66534699Y-51475932D01*
X66534700Y-51475934D01*
X66594768Y-51673954D01*
X66692315Y-51856450D01*
X66692317Y-51856452D01*
X66823589Y-52016410D01*
X66903272Y-52081803D01*
X66983550Y-52147685D01*
X67166046Y-52245232D01*
X67364066Y-52305300D01*
X67364065Y-52305300D01*
X67382529Y-52307118D01*
X67570000Y-52325583D01*
X67775934Y-52305300D01*
X67973954Y-52245232D01*
X68156450Y-52147685D01*
X68316410Y-52016410D01*
X68447685Y-51856450D01*
X68545232Y-51673954D01*
X68605300Y-51475934D01*
X68625583Y-51270000D01*
X69054417Y-51270000D01*
X69074699Y-51475932D01*
X69074700Y-51475934D01*
X69134768Y-51673954D01*
X69232315Y-51856450D01*
X69232317Y-51856452D01*
X69363589Y-52016410D01*
X69443272Y-52081803D01*
X69523550Y-52147685D01*
X69706046Y-52245232D01*
X69904066Y-52305300D01*
X69904065Y-52305300D01*
X69922529Y-52307118D01*
X70110000Y-52325583D01*
X70315934Y-52305300D01*
X70513954Y-52245232D01*
X70696450Y-52147685D01*
X70856410Y-52016410D01*
X70987685Y-51856450D01*
X71085232Y-51673954D01*
X71145300Y-51475934D01*
X71165583Y-51270000D01*
X71594417Y-51270000D01*
X71614699Y-51475932D01*
X71614700Y-51475934D01*
X71674768Y-51673954D01*
X71772315Y-51856450D01*
X71772317Y-51856452D01*
X71903589Y-52016410D01*
X71983272Y-52081803D01*
X72063550Y-52147685D01*
X72246046Y-52245232D01*
X72444066Y-52305300D01*
X72444065Y-52305300D01*
X72462529Y-52307118D01*
X72650000Y-52325583D01*
X72855934Y-52305300D01*
X73053954Y-52245232D01*
X73236450Y-52147685D01*
X73396410Y-52016410D01*
X73527685Y-51856450D01*
X73625232Y-51673954D01*
X73685300Y-51475934D01*
X73705583Y-51270000D01*
X74134417Y-51270000D01*
X74154699Y-51475932D01*
X74154700Y-51475934D01*
X74214768Y-51673954D01*
X74312315Y-51856450D01*
X74312317Y-51856452D01*
X74443589Y-52016410D01*
X74523272Y-52081803D01*
X74603550Y-52147685D01*
X74786046Y-52245232D01*
X74984066Y-52305300D01*
X74984065Y-52305300D01*
X75002529Y-52307118D01*
X75190000Y-52325583D01*
X75395934Y-52305300D01*
X75593954Y-52245232D01*
X75776450Y-52147685D01*
X75936410Y-52016410D01*
X76067685Y-51856450D01*
X76165232Y-51673954D01*
X76225300Y-51475934D01*
X76245583Y-51270000D01*
X76674417Y-51270000D01*
X76694699Y-51475932D01*
X76694700Y-51475934D01*
X76754768Y-51673954D01*
X76852315Y-51856450D01*
X76852317Y-51856452D01*
X76983589Y-52016410D01*
X77063272Y-52081803D01*
X77143550Y-52147685D01*
X77326046Y-52245232D01*
X77524066Y-52305300D01*
X77524065Y-52305300D01*
X77542529Y-52307118D01*
X77730000Y-52325583D01*
X77935934Y-52305300D01*
X78133954Y-52245232D01*
X78316450Y-52147685D01*
X78476410Y-52016410D01*
X78607685Y-51856450D01*
X78705232Y-51673954D01*
X78765300Y-51475934D01*
X78785583Y-51270000D01*
X79214417Y-51270000D01*
X79234699Y-51475932D01*
X79234700Y-51475934D01*
X79294768Y-51673954D01*
X79392315Y-51856450D01*
X79392317Y-51856452D01*
X79523589Y-52016410D01*
X79603272Y-52081803D01*
X79683550Y-52147685D01*
X79866046Y-52245232D01*
X80064066Y-52305300D01*
X80064065Y-52305300D01*
X80082529Y-52307118D01*
X80270000Y-52325583D01*
X80475934Y-52305300D01*
X80673954Y-52245232D01*
X80856450Y-52147685D01*
X80910853Y-52103037D01*
X80975162Y-52075724D01*
X81044030Y-52087515D01*
X81095590Y-52134666D01*
X81102311Y-52147375D01*
X81114184Y-52173373D01*
X81208433Y-52282143D01*
X81329508Y-52359953D01*
X81329511Y-52359954D01*
X81329510Y-52359954D01*
X81436668Y-52391417D01*
X81451402Y-52395744D01*
X81467597Y-52400499D01*
X81467599Y-52400500D01*
X81467600Y-52400500D01*
X81611523Y-52400500D01*
X81611523Y-52400499D01*
X81749614Y-52359953D01*
X81870689Y-52282143D01*
X81964938Y-52173373D01*
X81977048Y-52146855D01*
X82022800Y-52094052D01*
X82089839Y-52074366D01*
X82156879Y-52094049D01*
X82168507Y-52102513D01*
X82223178Y-52147380D01*
X82223550Y-52147685D01*
X82406046Y-52245232D01*
X82604066Y-52305300D01*
X82604065Y-52305300D01*
X82622529Y-52307118D01*
X82810000Y-52325583D01*
X83015934Y-52305300D01*
X83213954Y-52245232D01*
X83396450Y-52147685D01*
X83556410Y-52016410D01*
X83687685Y-51856450D01*
X83785232Y-51673954D01*
X83845300Y-51475934D01*
X83865583Y-51270000D01*
X86834417Y-51270000D01*
X86854699Y-51475932D01*
X86854700Y-51475934D01*
X86914768Y-51673954D01*
X87012315Y-51856450D01*
X87012317Y-51856452D01*
X87143589Y-52016410D01*
X87223272Y-52081803D01*
X87303550Y-52147685D01*
X87486046Y-52245232D01*
X87684066Y-52305300D01*
X87684065Y-52305300D01*
X87702529Y-52307118D01*
X87890000Y-52325583D01*
X88095934Y-52305300D01*
X88293954Y-52245232D01*
X88476450Y-52147685D01*
X88531493Y-52102512D01*
X88595801Y-52075200D01*
X88664669Y-52086991D01*
X88716229Y-52134143D01*
X88722951Y-52146854D01*
X88735062Y-52173373D01*
X88829311Y-52282143D01*
X88950386Y-52359953D01*
X88950389Y-52359954D01*
X88950388Y-52359954D01*
X89057546Y-52391417D01*
X89072280Y-52395744D01*
X89088475Y-52400499D01*
X89088477Y-52400500D01*
X89088478Y-52400500D01*
X89232401Y-52400500D01*
X89232401Y-52400499D01*
X89370492Y-52359953D01*
X89491567Y-52282143D01*
X89585816Y-52173373D01*
X89597687Y-52147378D01*
X89643440Y-52094576D01*
X89710479Y-52074890D01*
X89777519Y-52094574D01*
X89789146Y-52103037D01*
X89843174Y-52147377D01*
X89843550Y-52147685D01*
X90026046Y-52245232D01*
X90224066Y-52305300D01*
X90224065Y-52305300D01*
X90242529Y-52307118D01*
X90430000Y-52325583D01*
X90635934Y-52305300D01*
X90833954Y-52245232D01*
X91016450Y-52147685D01*
X91176410Y-52016410D01*
X91307685Y-51856450D01*
X91405232Y-51673954D01*
X91465300Y-51475934D01*
X91485583Y-51270000D01*
X91914417Y-51270000D01*
X91934699Y-51475932D01*
X91934700Y-51475934D01*
X91994768Y-51673954D01*
X92092315Y-51856450D01*
X92092317Y-51856452D01*
X92223589Y-52016410D01*
X92303272Y-52081803D01*
X92383550Y-52147685D01*
X92566046Y-52245232D01*
X92764066Y-52305300D01*
X92764065Y-52305300D01*
X92782529Y-52307118D01*
X92970000Y-52325583D01*
X93175934Y-52305300D01*
X93373954Y-52245232D01*
X93556450Y-52147685D01*
X93716410Y-52016410D01*
X93847685Y-51856450D01*
X93945232Y-51673954D01*
X94005300Y-51475934D01*
X94025583Y-51270000D01*
X94454417Y-51270000D01*
X94474699Y-51475932D01*
X94474700Y-51475934D01*
X94534768Y-51673954D01*
X94632315Y-51856450D01*
X94632317Y-51856452D01*
X94763589Y-52016410D01*
X94843272Y-52081803D01*
X94923550Y-52147685D01*
X95106046Y-52245232D01*
X95304066Y-52305300D01*
X95304065Y-52305300D01*
X95322529Y-52307118D01*
X95510000Y-52325583D01*
X95715934Y-52305300D01*
X95739389Y-52298184D01*
X95809255Y-52297560D01*
X95868368Y-52334808D01*
X95897960Y-52398101D01*
X95888635Y-52467346D01*
X95869099Y-52498046D01*
X95842468Y-52528779D01*
X95842465Y-52528785D01*
X95782677Y-52659700D01*
X95762196Y-52802157D01*
X95782677Y-52944613D01*
X95841480Y-53073371D01*
X95842466Y-53075530D01*
X95936715Y-53184300D01*
X96057790Y-53262110D01*
X96057793Y-53262111D01*
X96057792Y-53262111D01*
X96164950Y-53293574D01*
X96188532Y-53300499D01*
X96195879Y-53302656D01*
X96195881Y-53302657D01*
X96195882Y-53302657D01*
X96339805Y-53302657D01*
X96339805Y-53302656D01*
X96477896Y-53262110D01*
X96598971Y-53184300D01*
X96693220Y-53075530D01*
X96753008Y-52944614D01*
X96773490Y-52802157D01*
X96753008Y-52659700D01*
X96693220Y-52528784D01*
X96598971Y-52420014D01*
X96477896Y-52342204D01*
X96477894Y-52342203D01*
X96477892Y-52342202D01*
X96477893Y-52342202D01*
X96339806Y-52301657D01*
X96339804Y-52301657D01*
X96255392Y-52301657D01*
X96188353Y-52281972D01*
X96142598Y-52229168D01*
X96132654Y-52160010D01*
X96161679Y-52096454D01*
X96176728Y-52081803D01*
X96256410Y-52016410D01*
X96286294Y-51979996D01*
X96387685Y-51856450D01*
X96485232Y-51673954D01*
X96545300Y-51475934D01*
X96565583Y-51270000D01*
X96994417Y-51270000D01*
X97014699Y-51475932D01*
X97014700Y-51475934D01*
X97074768Y-51673954D01*
X97172315Y-51856450D01*
X97172317Y-51856452D01*
X97303589Y-52016410D01*
X97383272Y-52081803D01*
X97463550Y-52147685D01*
X97646046Y-52245232D01*
X97844066Y-52305300D01*
X97844065Y-52305300D01*
X97862529Y-52307118D01*
X98050000Y-52325583D01*
X98255934Y-52305300D01*
X98453954Y-52245232D01*
X98636450Y-52147685D01*
X98796410Y-52016410D01*
X98927685Y-51856450D01*
X99025232Y-51673954D01*
X99085300Y-51475934D01*
X99105583Y-51270000D01*
X99534417Y-51270000D01*
X99554699Y-51475932D01*
X99554700Y-51475934D01*
X99614768Y-51673954D01*
X99712315Y-51856450D01*
X99712317Y-51856452D01*
X99843589Y-52016410D01*
X99923272Y-52081803D01*
X100003550Y-52147685D01*
X100186046Y-52245232D01*
X100345611Y-52293635D01*
X100404049Y-52331932D01*
X100432505Y-52395744D01*
X100421945Y-52464811D01*
X100403330Y-52493496D01*
X100374623Y-52526626D01*
X100374622Y-52526628D01*
X100314834Y-52657543D01*
X100294353Y-52800000D01*
X100314834Y-52942456D01*
X100315820Y-52944614D01*
X100374623Y-53073373D01*
X100468872Y-53182143D01*
X100589947Y-53259953D01*
X100589950Y-53259954D01*
X100589949Y-53259954D01*
X100728036Y-53300499D01*
X100728038Y-53300500D01*
X100728039Y-53300500D01*
X100871962Y-53300500D01*
X100871962Y-53300499D01*
X100979121Y-53269035D01*
X101010050Y-53259954D01*
X101010050Y-53259953D01*
X101010053Y-53259953D01*
X101131128Y-53182143D01*
X101225377Y-53073373D01*
X101285165Y-52942457D01*
X101305647Y-52800000D01*
X101285165Y-52657543D01*
X101225377Y-52526627D01*
X101131128Y-52417857D01*
X101131125Y-52417855D01*
X101131123Y-52417853D01*
X101099812Y-52397730D01*
X101054058Y-52344926D01*
X101044115Y-52275767D01*
X101073141Y-52212212D01*
X101108396Y-52184060D01*
X101176450Y-52147685D01*
X101336410Y-52016410D01*
X101467685Y-51856450D01*
X101565232Y-51673954D01*
X101625300Y-51475934D01*
X101645583Y-51270000D01*
X101625300Y-51064066D01*
X101565232Y-50866046D01*
X101467685Y-50683550D01*
X101415702Y-50620209D01*
X101336410Y-50523589D01*
X101186121Y-50400252D01*
X101176450Y-50392315D01*
X100993954Y-50294768D01*
X100795934Y-50234700D01*
X100795932Y-50234699D01*
X100795934Y-50234699D01*
X100590000Y-50214417D01*
X100384067Y-50234699D01*
X100186043Y-50294769D01*
X100098114Y-50341769D01*
X100003550Y-50392315D01*
X100003548Y-50392316D01*
X100003547Y-50392317D01*
X99843589Y-50523589D01*
X99712317Y-50683547D01*
X99614769Y-50866043D01*
X99554699Y-51064067D01*
X99534417Y-51270000D01*
X99105583Y-51270000D01*
X99085300Y-51064066D01*
X99025232Y-50866046D01*
X98927685Y-50683550D01*
X98875702Y-50620209D01*
X98796410Y-50523589D01*
X98646121Y-50400252D01*
X98636450Y-50392315D01*
X98453954Y-50294768D01*
X98255934Y-50234700D01*
X98255932Y-50234699D01*
X98255934Y-50234699D01*
X98050000Y-50214417D01*
X97844067Y-50234699D01*
X97646043Y-50294769D01*
X97558114Y-50341769D01*
X97463550Y-50392315D01*
X97463548Y-50392316D01*
X97463547Y-50392317D01*
X97303589Y-50523589D01*
X97172317Y-50683547D01*
X97074769Y-50866043D01*
X97014699Y-51064067D01*
X96994417Y-51270000D01*
X96565583Y-51270000D01*
X96545300Y-51064066D01*
X96485232Y-50866046D01*
X96387685Y-50683550D01*
X96335702Y-50620209D01*
X96256410Y-50523589D01*
X96106121Y-50400252D01*
X96096450Y-50392315D01*
X95913954Y-50294768D01*
X95715934Y-50234700D01*
X95715932Y-50234699D01*
X95715934Y-50234699D01*
X95510000Y-50214417D01*
X95304067Y-50234699D01*
X95106043Y-50294769D01*
X95018114Y-50341769D01*
X94923550Y-50392315D01*
X94923548Y-50392316D01*
X94923547Y-50392317D01*
X94763589Y-50523589D01*
X94632317Y-50683547D01*
X94534769Y-50866043D01*
X94474699Y-51064067D01*
X94454417Y-51270000D01*
X94025583Y-51270000D01*
X94005300Y-51064066D01*
X93945232Y-50866046D01*
X93847685Y-50683550D01*
X93795702Y-50620209D01*
X93716410Y-50523589D01*
X93566121Y-50400252D01*
X93556450Y-50392315D01*
X93373954Y-50294768D01*
X93175934Y-50234700D01*
X93175932Y-50234699D01*
X93175934Y-50234699D01*
X92970000Y-50214417D01*
X92764067Y-50234699D01*
X92566043Y-50294769D01*
X92478114Y-50341769D01*
X92383550Y-50392315D01*
X92383548Y-50392316D01*
X92383547Y-50392317D01*
X92223589Y-50523589D01*
X92092317Y-50683547D01*
X91994769Y-50866043D01*
X91934699Y-51064067D01*
X91914417Y-51270000D01*
X91485583Y-51270000D01*
X91465300Y-51064066D01*
X91405232Y-50866046D01*
X91307685Y-50683550D01*
X91255702Y-50620209D01*
X91176410Y-50523589D01*
X91026121Y-50400252D01*
X91016450Y-50392315D01*
X90833954Y-50294768D01*
X90635934Y-50234700D01*
X90635932Y-50234699D01*
X90635934Y-50234699D01*
X90430000Y-50214417D01*
X90224067Y-50234699D01*
X90026043Y-50294769D01*
X89938114Y-50341769D01*
X89843550Y-50392315D01*
X89843548Y-50392316D01*
X89843547Y-50392317D01*
X89683589Y-50523589D01*
X89552317Y-50683547D01*
X89454769Y-50866043D01*
X89394699Y-51064067D01*
X89374417Y-51270000D01*
X89374417Y-51276092D01*
X89371732Y-51276092D01*
X89360858Y-51333346D01*
X89312780Y-51384044D01*
X89244925Y-51400700D01*
X89232850Y-51399564D01*
X89232405Y-51399500D01*
X89232400Y-51399500D01*
X89088478Y-51399500D01*
X89088472Y-51399500D01*
X89087136Y-51399692D01*
X89085801Y-51399500D01*
X89079609Y-51399500D01*
X89079609Y-51398609D01*
X89017978Y-51389744D01*
X88965178Y-51343985D01*
X88945498Y-51276944D01*
X88945583Y-51275219D01*
X88945583Y-51270000D01*
X88925300Y-51064067D01*
X88925300Y-51064066D01*
X88865232Y-50866046D01*
X88767685Y-50683550D01*
X88715702Y-50620209D01*
X88636410Y-50523589D01*
X88486121Y-50400252D01*
X88476450Y-50392315D01*
X88293954Y-50294768D01*
X88095934Y-50234700D01*
X88095932Y-50234699D01*
X88095934Y-50234699D01*
X87890000Y-50214417D01*
X87684067Y-50234699D01*
X87486043Y-50294769D01*
X87398114Y-50341769D01*
X87303550Y-50392315D01*
X87303548Y-50392316D01*
X87303547Y-50392317D01*
X87143589Y-50523589D01*
X87012317Y-50683547D01*
X86914769Y-50866043D01*
X86854699Y-51064067D01*
X86834417Y-51270000D01*
X83865583Y-51270000D01*
X83845300Y-51064066D01*
X83785232Y-50866046D01*
X83687685Y-50683550D01*
X83635702Y-50620209D01*
X83556410Y-50523589D01*
X83406121Y-50400252D01*
X83396450Y-50392315D01*
X83213954Y-50294768D01*
X83015934Y-50234700D01*
X83015932Y-50234699D01*
X83015934Y-50234699D01*
X82810000Y-50214417D01*
X82604067Y-50234699D01*
X82406043Y-50294769D01*
X82318114Y-50341769D01*
X82223550Y-50392315D01*
X82223548Y-50392316D01*
X82223547Y-50392317D01*
X82063589Y-50523589D01*
X81932317Y-50683547D01*
X81834769Y-50866043D01*
X81774699Y-51064067D01*
X81754417Y-51270000D01*
X81754417Y-51276091D01*
X81751787Y-51276091D01*
X81740827Y-51333559D01*
X81692709Y-51384220D01*
X81624841Y-51400824D01*
X81612861Y-51399692D01*
X81611525Y-51399500D01*
X81611522Y-51399500D01*
X81467600Y-51399500D01*
X81467592Y-51399500D01*
X81467147Y-51399564D01*
X81466702Y-51399500D01*
X81458731Y-51399500D01*
X81458731Y-51398353D01*
X81397989Y-51389615D01*
X81345189Y-51343856D01*
X81325510Y-51276815D01*
X81325583Y-51275345D01*
X81325583Y-51270000D01*
X81305300Y-51064067D01*
X81305300Y-51064066D01*
X81245232Y-50866046D01*
X81147685Y-50683550D01*
X81095702Y-50620209D01*
X81016410Y-50523589D01*
X80866121Y-50400252D01*
X80856450Y-50392315D01*
X80673954Y-50294768D01*
X80475934Y-50234700D01*
X80475932Y-50234699D01*
X80475934Y-50234699D01*
X80270000Y-50214417D01*
X80064067Y-50234699D01*
X79866043Y-50294769D01*
X79778114Y-50341769D01*
X79683550Y-50392315D01*
X79683548Y-50392316D01*
X79683547Y-50392317D01*
X79523589Y-50523589D01*
X79392317Y-50683547D01*
X79294769Y-50866043D01*
X79234699Y-51064067D01*
X79214417Y-51270000D01*
X78785583Y-51270000D01*
X78765300Y-51064066D01*
X78705232Y-50866046D01*
X78607685Y-50683550D01*
X78555702Y-50620209D01*
X78476410Y-50523589D01*
X78326121Y-50400252D01*
X78316450Y-50392315D01*
X78133954Y-50294768D01*
X77935934Y-50234700D01*
X77935932Y-50234699D01*
X77935934Y-50234699D01*
X77730000Y-50214417D01*
X77524067Y-50234699D01*
X77326043Y-50294769D01*
X77238114Y-50341769D01*
X77143550Y-50392315D01*
X77143548Y-50392316D01*
X77143547Y-50392317D01*
X76983589Y-50523589D01*
X76852317Y-50683547D01*
X76754769Y-50866043D01*
X76694699Y-51064067D01*
X76674417Y-51270000D01*
X76245583Y-51270000D01*
X76225300Y-51064066D01*
X76165232Y-50866046D01*
X76067685Y-50683550D01*
X76015702Y-50620209D01*
X75936410Y-50523589D01*
X75786121Y-50400252D01*
X75776450Y-50392315D01*
X75593954Y-50294768D01*
X75395934Y-50234700D01*
X75395932Y-50234699D01*
X75395934Y-50234699D01*
X75190000Y-50214417D01*
X74984067Y-50234699D01*
X74786043Y-50294769D01*
X74698114Y-50341769D01*
X74603550Y-50392315D01*
X74603548Y-50392316D01*
X74603547Y-50392317D01*
X74443589Y-50523589D01*
X74312317Y-50683547D01*
X74214769Y-50866043D01*
X74154699Y-51064067D01*
X74134417Y-51270000D01*
X73705583Y-51270000D01*
X73685300Y-51064066D01*
X73625232Y-50866046D01*
X73527685Y-50683550D01*
X73475702Y-50620209D01*
X73396410Y-50523589D01*
X73246121Y-50400252D01*
X73236450Y-50392315D01*
X73053954Y-50294768D01*
X72855934Y-50234700D01*
X72855932Y-50234699D01*
X72855934Y-50234699D01*
X72650000Y-50214417D01*
X72444067Y-50234699D01*
X72246043Y-50294769D01*
X72158114Y-50341769D01*
X72063550Y-50392315D01*
X72063548Y-50392316D01*
X72063547Y-50392317D01*
X71903589Y-50523589D01*
X71772317Y-50683547D01*
X71674769Y-50866043D01*
X71614699Y-51064067D01*
X71594417Y-51270000D01*
X71165583Y-51270000D01*
X71145300Y-51064066D01*
X71085232Y-50866046D01*
X70987685Y-50683550D01*
X70935702Y-50620209D01*
X70856410Y-50523589D01*
X70706121Y-50400252D01*
X70696450Y-50392315D01*
X70513954Y-50294768D01*
X70315934Y-50234700D01*
X70315932Y-50234699D01*
X70315934Y-50234699D01*
X70110000Y-50214417D01*
X69904067Y-50234699D01*
X69706043Y-50294769D01*
X69618114Y-50341769D01*
X69523550Y-50392315D01*
X69523548Y-50392316D01*
X69523547Y-50392317D01*
X69363589Y-50523589D01*
X69232317Y-50683547D01*
X69134769Y-50866043D01*
X69074699Y-51064067D01*
X69054417Y-51270000D01*
X68625583Y-51270000D01*
X68605300Y-51064066D01*
X68545232Y-50866046D01*
X68447685Y-50683550D01*
X68395702Y-50620209D01*
X68316410Y-50523589D01*
X68166121Y-50400252D01*
X68156450Y-50392315D01*
X67973954Y-50294768D01*
X67775934Y-50234700D01*
X67775932Y-50234699D01*
X67775934Y-50234699D01*
X67570000Y-50214417D01*
X67364067Y-50234699D01*
X67166043Y-50294769D01*
X67078114Y-50341769D01*
X66983550Y-50392315D01*
X66983548Y-50392316D01*
X66983547Y-50392317D01*
X66823589Y-50523589D01*
X66692317Y-50683547D01*
X66594769Y-50866043D01*
X66534699Y-51064067D01*
X66514417Y-51270000D01*
X63545583Y-51270000D01*
X63525300Y-51064066D01*
X63465232Y-50866046D01*
X63367685Y-50683550D01*
X63315702Y-50620209D01*
X63236410Y-50523589D01*
X63086121Y-50400252D01*
X63076450Y-50392315D01*
X62893954Y-50294768D01*
X62695934Y-50234700D01*
X62695932Y-50234699D01*
X62695934Y-50234699D01*
X62490000Y-50214417D01*
X62284067Y-50234699D01*
X62086043Y-50294769D01*
X61998114Y-50341769D01*
X61903550Y-50392315D01*
X61903548Y-50392316D01*
X61903547Y-50392317D01*
X61743589Y-50523589D01*
X61612317Y-50683547D01*
X61514769Y-50866043D01*
X61454699Y-51064067D01*
X61434417Y-51270000D01*
X61005583Y-51270000D01*
X60985300Y-51064066D01*
X60925232Y-50866046D01*
X60827685Y-50683550D01*
X60775702Y-50620209D01*
X60696410Y-50523589D01*
X60546121Y-50400252D01*
X60536450Y-50392315D01*
X60353954Y-50294768D01*
X60155934Y-50234700D01*
X60155932Y-50234699D01*
X60155934Y-50234699D01*
X59950000Y-50214417D01*
X59744067Y-50234699D01*
X59546043Y-50294769D01*
X59458114Y-50341769D01*
X59363550Y-50392315D01*
X59363548Y-50392316D01*
X59363547Y-50392317D01*
X59203589Y-50523589D01*
X59072317Y-50683547D01*
X58974769Y-50866043D01*
X58914699Y-51064067D01*
X58894417Y-51270000D01*
X58465583Y-51270000D01*
X58445300Y-51064066D01*
X58385232Y-50866046D01*
X58287685Y-50683550D01*
X58235702Y-50620209D01*
X58156410Y-50523589D01*
X58006121Y-50400252D01*
X57996450Y-50392315D01*
X57813954Y-50294768D01*
X57615934Y-50234700D01*
X57615932Y-50234699D01*
X57615934Y-50234699D01*
X57410000Y-50214417D01*
X57204067Y-50234699D01*
X57006043Y-50294769D01*
X56918114Y-50341769D01*
X56823550Y-50392315D01*
X56823548Y-50392316D01*
X56823547Y-50392317D01*
X56663589Y-50523589D01*
X56532317Y-50683547D01*
X56434769Y-50866043D01*
X56374699Y-51064067D01*
X56354417Y-51270000D01*
X55920500Y-51270000D01*
X55920500Y-50400252D01*
X55920500Y-50400249D01*
X55920499Y-50400247D01*
X55908868Y-50341770D01*
X55908867Y-50341769D01*
X55864552Y-50275447D01*
X55798230Y-50231132D01*
X55798229Y-50231131D01*
X55739752Y-50219500D01*
X55739748Y-50219500D01*
X54000252Y-50219500D01*
X54000247Y-50219500D01*
X53941770Y-50231131D01*
X53941769Y-50231132D01*
X53875447Y-50275447D01*
X53831132Y-50341769D01*
X53831131Y-50341770D01*
X53819500Y-50400247D01*
X53819500Y-52139752D01*
X46000500Y-52139752D01*
X46000500Y-50002871D01*
X46000632Y-49997145D01*
X46000710Y-49995456D01*
X46008490Y-49827168D01*
X46018166Y-49630200D01*
X46019200Y-49619217D01*
X46044611Y-49437054D01*
X46044722Y-49436286D01*
X46071950Y-49252729D01*
X46073890Y-49242595D01*
X46116526Y-49061318D01*
X46116837Y-49060037D01*
X46161405Y-48882111D01*
X46164091Y-48872922D01*
X46211994Y-48730000D01*
X53814417Y-48730000D01*
X53834699Y-48935932D01*
X53834700Y-48935934D01*
X53894768Y-49133954D01*
X53992315Y-49316450D01*
X53992317Y-49316452D01*
X54123589Y-49476410D01*
X54220209Y-49555702D01*
X54283550Y-49607685D01*
X54466046Y-49705232D01*
X54664066Y-49765300D01*
X54664065Y-49765300D01*
X54682529Y-49767118D01*
X54870000Y-49785583D01*
X55075934Y-49765300D01*
X55273954Y-49705232D01*
X55456450Y-49607685D01*
X55616410Y-49476410D01*
X55747685Y-49316450D01*
X55845232Y-49133954D01*
X55905300Y-48935934D01*
X55925583Y-48730000D01*
X56354417Y-48730000D01*
X56374699Y-48935932D01*
X56374700Y-48935934D01*
X56434768Y-49133954D01*
X56532315Y-49316450D01*
X56532317Y-49316452D01*
X56663589Y-49476410D01*
X56760209Y-49555702D01*
X56823550Y-49607685D01*
X57006046Y-49705232D01*
X57204066Y-49765300D01*
X57204065Y-49765300D01*
X57222529Y-49767118D01*
X57410000Y-49785583D01*
X57615934Y-49765300D01*
X57813954Y-49705232D01*
X57996450Y-49607685D01*
X58156410Y-49476410D01*
X58287685Y-49316450D01*
X58385232Y-49133954D01*
X58445300Y-48935934D01*
X58465583Y-48730000D01*
X61434417Y-48730000D01*
X61454699Y-48935932D01*
X61454700Y-48935934D01*
X61514768Y-49133954D01*
X61612315Y-49316450D01*
X61612317Y-49316452D01*
X61743589Y-49476410D01*
X61840209Y-49555702D01*
X61903550Y-49607685D01*
X62086046Y-49705232D01*
X62284066Y-49765300D01*
X62284065Y-49765300D01*
X62302529Y-49767118D01*
X62490000Y-49785583D01*
X62695934Y-49765300D01*
X62893954Y-49705232D01*
X63076450Y-49607685D01*
X63236410Y-49476410D01*
X63367685Y-49316450D01*
X63465232Y-49133954D01*
X63525300Y-48935934D01*
X63545583Y-48730000D01*
X63974417Y-48730000D01*
X63994699Y-48935932D01*
X63994700Y-48935934D01*
X64054768Y-49133954D01*
X64152315Y-49316450D01*
X64152317Y-49316452D01*
X64283589Y-49476410D01*
X64380209Y-49555702D01*
X64443550Y-49607685D01*
X64626046Y-49705232D01*
X64824066Y-49765300D01*
X64824065Y-49765300D01*
X64842529Y-49767118D01*
X65030000Y-49785583D01*
X65235934Y-49765300D01*
X65433954Y-49705232D01*
X65616450Y-49607685D01*
X65776410Y-49476410D01*
X65907685Y-49316450D01*
X66005232Y-49133954D01*
X66065300Y-48935934D01*
X66085583Y-48730000D01*
X66514417Y-48730000D01*
X66534699Y-48935932D01*
X66534700Y-48935934D01*
X66594768Y-49133954D01*
X66692315Y-49316450D01*
X66692317Y-49316452D01*
X66823589Y-49476410D01*
X66920209Y-49555702D01*
X66983550Y-49607685D01*
X67166046Y-49705232D01*
X67364066Y-49765300D01*
X67364065Y-49765300D01*
X67382529Y-49767118D01*
X67570000Y-49785583D01*
X67775934Y-49765300D01*
X67973954Y-49705232D01*
X68156450Y-49607685D01*
X68316410Y-49476410D01*
X68447685Y-49316450D01*
X68545232Y-49133954D01*
X68605300Y-48935934D01*
X68625583Y-48730000D01*
X71594417Y-48730000D01*
X71614699Y-48935932D01*
X71614700Y-48935934D01*
X71674768Y-49133954D01*
X71772315Y-49316450D01*
X71772317Y-49316452D01*
X71903589Y-49476410D01*
X72000209Y-49555702D01*
X72063550Y-49607685D01*
X72246046Y-49705232D01*
X72444066Y-49765300D01*
X72444065Y-49765300D01*
X72462529Y-49767118D01*
X72650000Y-49785583D01*
X72855934Y-49765300D01*
X73053954Y-49705232D01*
X73236450Y-49607685D01*
X73396410Y-49476410D01*
X73527685Y-49316450D01*
X73625232Y-49133954D01*
X73685300Y-48935934D01*
X73705583Y-48730000D01*
X74134417Y-48730000D01*
X74154699Y-48935932D01*
X74154700Y-48935934D01*
X74214768Y-49133954D01*
X74312315Y-49316450D01*
X74312317Y-49316452D01*
X74443589Y-49476410D01*
X74540209Y-49555702D01*
X74603550Y-49607685D01*
X74786046Y-49705232D01*
X74984066Y-49765300D01*
X74984065Y-49765300D01*
X75002529Y-49767118D01*
X75190000Y-49785583D01*
X75395934Y-49765300D01*
X75593954Y-49705232D01*
X75776450Y-49607685D01*
X75936410Y-49476410D01*
X76067685Y-49316450D01*
X76165232Y-49133954D01*
X76225300Y-48935934D01*
X76245583Y-48730000D01*
X79214417Y-48730000D01*
X79234699Y-48935932D01*
X79234700Y-48935934D01*
X79294768Y-49133954D01*
X79392315Y-49316450D01*
X79392317Y-49316452D01*
X79523589Y-49476410D01*
X79620209Y-49555702D01*
X79683550Y-49607685D01*
X79866046Y-49705232D01*
X80064066Y-49765300D01*
X80064065Y-49765300D01*
X80082529Y-49767118D01*
X80270000Y-49785583D01*
X80475934Y-49765300D01*
X80673954Y-49705232D01*
X80856450Y-49607685D01*
X81016410Y-49476410D01*
X81147685Y-49316450D01*
X81245232Y-49133954D01*
X81305300Y-48935934D01*
X81325583Y-48730000D01*
X81754417Y-48730000D01*
X81774699Y-48935932D01*
X81774700Y-48935934D01*
X81834768Y-49133954D01*
X81932315Y-49316450D01*
X81932317Y-49316452D01*
X82063589Y-49476410D01*
X82160209Y-49555702D01*
X82223550Y-49607685D01*
X82406046Y-49705232D01*
X82604066Y-49765300D01*
X82604065Y-49765300D01*
X82622529Y-49767118D01*
X82810000Y-49785583D01*
X83015934Y-49765300D01*
X83213954Y-49705232D01*
X83396450Y-49607685D01*
X83556410Y-49476410D01*
X83687685Y-49316450D01*
X83785232Y-49133954D01*
X83845300Y-48935934D01*
X83865583Y-48730000D01*
X84294417Y-48730000D01*
X84314699Y-48935932D01*
X84314700Y-48935934D01*
X84374768Y-49133954D01*
X84472315Y-49316450D01*
X84472317Y-49316452D01*
X84603589Y-49476410D01*
X84700209Y-49555702D01*
X84763550Y-49607685D01*
X84946046Y-49705232D01*
X85144066Y-49765300D01*
X85144065Y-49765300D01*
X85162529Y-49767118D01*
X85350000Y-49785583D01*
X85555934Y-49765300D01*
X85753954Y-49705232D01*
X85936450Y-49607685D01*
X86096410Y-49476410D01*
X86227685Y-49316450D01*
X86325232Y-49133954D01*
X86385300Y-48935934D01*
X86405583Y-48730000D01*
X86834417Y-48730000D01*
X86854699Y-48935932D01*
X86854700Y-48935934D01*
X86914768Y-49133954D01*
X87012315Y-49316450D01*
X87012317Y-49316452D01*
X87143589Y-49476410D01*
X87240209Y-49555702D01*
X87303550Y-49607685D01*
X87486046Y-49705232D01*
X87684066Y-49765300D01*
X87684065Y-49765300D01*
X87702529Y-49767118D01*
X87890000Y-49785583D01*
X88095934Y-49765300D01*
X88293954Y-49705232D01*
X88476450Y-49607685D01*
X88636410Y-49476410D01*
X88767685Y-49316450D01*
X88865232Y-49133954D01*
X88925300Y-48935934D01*
X88945583Y-48730000D01*
X91914417Y-48730000D01*
X91934699Y-48935932D01*
X91934700Y-48935934D01*
X91994768Y-49133954D01*
X92092315Y-49316450D01*
X92092317Y-49316452D01*
X92223589Y-49476410D01*
X92320209Y-49555702D01*
X92383550Y-49607685D01*
X92566046Y-49705232D01*
X92764066Y-49765300D01*
X92764065Y-49765300D01*
X92782529Y-49767118D01*
X92970000Y-49785583D01*
X93175934Y-49765300D01*
X93373954Y-49705232D01*
X93556450Y-49607685D01*
X93716410Y-49476410D01*
X93847685Y-49316450D01*
X93945232Y-49133954D01*
X94005300Y-48935934D01*
X94025583Y-48730000D01*
X96994417Y-48730000D01*
X97014699Y-48935932D01*
X97014700Y-48935934D01*
X97074768Y-49133954D01*
X97172315Y-49316450D01*
X97172317Y-49316452D01*
X97303589Y-49476410D01*
X97400209Y-49555702D01*
X97463550Y-49607685D01*
X97646046Y-49705232D01*
X97844066Y-49765300D01*
X97844065Y-49765300D01*
X97862529Y-49767118D01*
X98050000Y-49785583D01*
X98255934Y-49765300D01*
X98453954Y-49705232D01*
X98636450Y-49607685D01*
X98796410Y-49476410D01*
X98927685Y-49316450D01*
X99025232Y-49133954D01*
X99085300Y-48935934D01*
X99105583Y-48730000D01*
X99534417Y-48730000D01*
X99554699Y-48935932D01*
X99554700Y-48935934D01*
X99614768Y-49133954D01*
X99712315Y-49316450D01*
X99712317Y-49316452D01*
X99843589Y-49476410D01*
X99940209Y-49555702D01*
X100003550Y-49607685D01*
X100186046Y-49705232D01*
X100384066Y-49765300D01*
X100384065Y-49765300D01*
X100402529Y-49767118D01*
X100590000Y-49785583D01*
X100795934Y-49765300D01*
X100993954Y-49705232D01*
X101176450Y-49607685D01*
X101336410Y-49476410D01*
X101467685Y-49316450D01*
X101565232Y-49133954D01*
X101625300Y-48935934D01*
X101645583Y-48730000D01*
X102074417Y-48730000D01*
X102094699Y-48935932D01*
X102094700Y-48935934D01*
X102154768Y-49133954D01*
X102252315Y-49316450D01*
X102252317Y-49316452D01*
X102383589Y-49476410D01*
X102480209Y-49555702D01*
X102543550Y-49607685D01*
X102726046Y-49705232D01*
X102924066Y-49765300D01*
X102924065Y-49765300D01*
X102942529Y-49767118D01*
X103130000Y-49785583D01*
X103335934Y-49765300D01*
X103533954Y-49705232D01*
X103716450Y-49607685D01*
X103876410Y-49476410D01*
X104007685Y-49316450D01*
X104105232Y-49133954D01*
X104165300Y-48935934D01*
X104185583Y-48730000D01*
X104165300Y-48524066D01*
X104105232Y-48326046D01*
X104007685Y-48143550D01*
X103931945Y-48051260D01*
X103876410Y-47983589D01*
X103716452Y-47852317D01*
X103716453Y-47852317D01*
X103716450Y-47852315D01*
X103533954Y-47754768D01*
X103335934Y-47694700D01*
X103335932Y-47694699D01*
X103335934Y-47694699D01*
X103130000Y-47674417D01*
X102924067Y-47694699D01*
X102726043Y-47754769D01*
X102615898Y-47813643D01*
X102543550Y-47852315D01*
X102543548Y-47852316D01*
X102543547Y-47852317D01*
X102383589Y-47983589D01*
X102252317Y-48143547D01*
X102252315Y-48143550D01*
X102235582Y-48174855D01*
X102154769Y-48326043D01*
X102154768Y-48326045D01*
X102154768Y-48326046D01*
X102149923Y-48342018D01*
X102094699Y-48524067D01*
X102074417Y-48730000D01*
X101645583Y-48730000D01*
X101625300Y-48524066D01*
X101565232Y-48326046D01*
X101467685Y-48143550D01*
X101391945Y-48051260D01*
X101336410Y-47983589D01*
X101176452Y-47852317D01*
X101176453Y-47852317D01*
X101176450Y-47852315D01*
X100993954Y-47754768D01*
X100795934Y-47694700D01*
X100795932Y-47694699D01*
X100795934Y-47694699D01*
X100590000Y-47674417D01*
X100384067Y-47694699D01*
X100186043Y-47754769D01*
X100075898Y-47813643D01*
X100003550Y-47852315D01*
X100003548Y-47852316D01*
X100003547Y-47852317D01*
X99843589Y-47983589D01*
X99712317Y-48143547D01*
X99712315Y-48143550D01*
X99695582Y-48174855D01*
X99614769Y-48326043D01*
X99614768Y-48326045D01*
X99614768Y-48326046D01*
X99609923Y-48342018D01*
X99554699Y-48524067D01*
X99534417Y-48730000D01*
X99105583Y-48730000D01*
X99085300Y-48524066D01*
X99025232Y-48326046D01*
X98927685Y-48143550D01*
X98851945Y-48051260D01*
X98796410Y-47983589D01*
X98636452Y-47852317D01*
X98636453Y-47852317D01*
X98636450Y-47852315D01*
X98453954Y-47754768D01*
X98255934Y-47694700D01*
X98255932Y-47694699D01*
X98255934Y-47694699D01*
X98050000Y-47674417D01*
X97844067Y-47694699D01*
X97646043Y-47754769D01*
X97535898Y-47813643D01*
X97463550Y-47852315D01*
X97463548Y-47852316D01*
X97463547Y-47852317D01*
X97303589Y-47983589D01*
X97172317Y-48143547D01*
X97172315Y-48143550D01*
X97155582Y-48174855D01*
X97074769Y-48326043D01*
X97074768Y-48326045D01*
X97074768Y-48326046D01*
X97069923Y-48342018D01*
X97014699Y-48524067D01*
X96994417Y-48730000D01*
X94025583Y-48730000D01*
X94005300Y-48524066D01*
X93945232Y-48326046D01*
X93847685Y-48143550D01*
X93771945Y-48051260D01*
X93716410Y-47983589D01*
X93556452Y-47852317D01*
X93556453Y-47852317D01*
X93556450Y-47852315D01*
X93373954Y-47754768D01*
X93175934Y-47694700D01*
X93175932Y-47694699D01*
X93175934Y-47694699D01*
X92970000Y-47674417D01*
X92764067Y-47694699D01*
X92566043Y-47754769D01*
X92455898Y-47813643D01*
X92383550Y-47852315D01*
X92383548Y-47852316D01*
X92383547Y-47852317D01*
X92223589Y-47983589D01*
X92092317Y-48143547D01*
X92092315Y-48143550D01*
X92075582Y-48174855D01*
X91994769Y-48326043D01*
X91994768Y-48326045D01*
X91994768Y-48326046D01*
X91989923Y-48342018D01*
X91934699Y-48524067D01*
X91914417Y-48730000D01*
X88945583Y-48730000D01*
X88925300Y-48524066D01*
X88865232Y-48326046D01*
X88767685Y-48143550D01*
X88691945Y-48051260D01*
X88636410Y-47983589D01*
X88476452Y-47852317D01*
X88476453Y-47852317D01*
X88476450Y-47852315D01*
X88293954Y-47754768D01*
X88095934Y-47694700D01*
X88095932Y-47694699D01*
X88095934Y-47694699D01*
X87890000Y-47674417D01*
X87684067Y-47694699D01*
X87486043Y-47754769D01*
X87375898Y-47813643D01*
X87303550Y-47852315D01*
X87303548Y-47852316D01*
X87303547Y-47852317D01*
X87143589Y-47983589D01*
X87012317Y-48143547D01*
X87012315Y-48143550D01*
X86995582Y-48174855D01*
X86914769Y-48326043D01*
X86914768Y-48326045D01*
X86914768Y-48326046D01*
X86909923Y-48342018D01*
X86854699Y-48524067D01*
X86834417Y-48730000D01*
X86405583Y-48730000D01*
X86385300Y-48524066D01*
X86325232Y-48326046D01*
X86227685Y-48143550D01*
X86151945Y-48051260D01*
X86096410Y-47983589D01*
X85936452Y-47852317D01*
X85936453Y-47852317D01*
X85936450Y-47852315D01*
X85753954Y-47754768D01*
X85555934Y-47694700D01*
X85555932Y-47694699D01*
X85555934Y-47694699D01*
X85350000Y-47674417D01*
X85144067Y-47694699D01*
X84946043Y-47754769D01*
X84835898Y-47813643D01*
X84763550Y-47852315D01*
X84763548Y-47852316D01*
X84763547Y-47852317D01*
X84603589Y-47983589D01*
X84472317Y-48143547D01*
X84472315Y-48143550D01*
X84455582Y-48174855D01*
X84374769Y-48326043D01*
X84374768Y-48326045D01*
X84374768Y-48326046D01*
X84369923Y-48342018D01*
X84314699Y-48524067D01*
X84294417Y-48730000D01*
X83865583Y-48730000D01*
X83845300Y-48524066D01*
X83785232Y-48326046D01*
X83687685Y-48143550D01*
X83611945Y-48051260D01*
X83556410Y-47983589D01*
X83396452Y-47852317D01*
X83396453Y-47852317D01*
X83396450Y-47852315D01*
X83213954Y-47754768D01*
X83015934Y-47694700D01*
X83015932Y-47694699D01*
X83015934Y-47694699D01*
X82810000Y-47674417D01*
X82604067Y-47694699D01*
X82406043Y-47754769D01*
X82295898Y-47813643D01*
X82223550Y-47852315D01*
X82223548Y-47852316D01*
X82223547Y-47852317D01*
X82063589Y-47983589D01*
X81932317Y-48143547D01*
X81932315Y-48143550D01*
X81915582Y-48174855D01*
X81834769Y-48326043D01*
X81834768Y-48326045D01*
X81834768Y-48326046D01*
X81829923Y-48342018D01*
X81774699Y-48524067D01*
X81754417Y-48730000D01*
X81325583Y-48730000D01*
X81305300Y-48524066D01*
X81245232Y-48326046D01*
X81147685Y-48143550D01*
X81071945Y-48051260D01*
X81016410Y-47983589D01*
X80856452Y-47852317D01*
X80856453Y-47852317D01*
X80856450Y-47852315D01*
X80673954Y-47754768D01*
X80475934Y-47694700D01*
X80475932Y-47694699D01*
X80475934Y-47694699D01*
X80270000Y-47674417D01*
X80064067Y-47694699D01*
X79866043Y-47754769D01*
X79755898Y-47813643D01*
X79683550Y-47852315D01*
X79683548Y-47852316D01*
X79683547Y-47852317D01*
X79523589Y-47983589D01*
X79392317Y-48143547D01*
X79392315Y-48143550D01*
X79375582Y-48174855D01*
X79294769Y-48326043D01*
X79294768Y-48326045D01*
X79294768Y-48326046D01*
X79289923Y-48342018D01*
X79234699Y-48524067D01*
X79214417Y-48730000D01*
X76245583Y-48730000D01*
X76225300Y-48524066D01*
X76165232Y-48326046D01*
X76067685Y-48143550D01*
X75991945Y-48051260D01*
X75936410Y-47983589D01*
X75776452Y-47852317D01*
X75776453Y-47852317D01*
X75776450Y-47852315D01*
X75593954Y-47754768D01*
X75395934Y-47694700D01*
X75395932Y-47694699D01*
X75395934Y-47694699D01*
X75190000Y-47674417D01*
X74984067Y-47694699D01*
X74786043Y-47754769D01*
X74675898Y-47813643D01*
X74603550Y-47852315D01*
X74603548Y-47852316D01*
X74603547Y-47852317D01*
X74443589Y-47983589D01*
X74312317Y-48143547D01*
X74312315Y-48143550D01*
X74295582Y-48174855D01*
X74214769Y-48326043D01*
X74214768Y-48326045D01*
X74214768Y-48326046D01*
X74209923Y-48342018D01*
X74154699Y-48524067D01*
X74134417Y-48730000D01*
X73705583Y-48730000D01*
X73685300Y-48524066D01*
X73625232Y-48326046D01*
X73527685Y-48143550D01*
X73451945Y-48051260D01*
X73396410Y-47983589D01*
X73236452Y-47852317D01*
X73236453Y-47852317D01*
X73236450Y-47852315D01*
X73053954Y-47754768D01*
X72855934Y-47694700D01*
X72855932Y-47694699D01*
X72855934Y-47694699D01*
X72650000Y-47674417D01*
X72444067Y-47694699D01*
X72246043Y-47754769D01*
X72135898Y-47813643D01*
X72063550Y-47852315D01*
X72063548Y-47852316D01*
X72063547Y-47852317D01*
X71903589Y-47983589D01*
X71772317Y-48143547D01*
X71772315Y-48143550D01*
X71755582Y-48174855D01*
X71674769Y-48326043D01*
X71674768Y-48326045D01*
X71674768Y-48326046D01*
X71669923Y-48342018D01*
X71614699Y-48524067D01*
X71594417Y-48730000D01*
X68625583Y-48730000D01*
X68605300Y-48524066D01*
X68545232Y-48326046D01*
X68447685Y-48143550D01*
X68371945Y-48051260D01*
X68316410Y-47983589D01*
X68156452Y-47852317D01*
X68156453Y-47852317D01*
X68156450Y-47852315D01*
X67973954Y-47754768D01*
X67775934Y-47694700D01*
X67775932Y-47694699D01*
X67775934Y-47694699D01*
X67570000Y-47674417D01*
X67364067Y-47694699D01*
X67166043Y-47754769D01*
X67055898Y-47813643D01*
X66983550Y-47852315D01*
X66983548Y-47852316D01*
X66983547Y-47852317D01*
X66823589Y-47983589D01*
X66692317Y-48143547D01*
X66692315Y-48143550D01*
X66675582Y-48174855D01*
X66594769Y-48326043D01*
X66594768Y-48326045D01*
X66594768Y-48326046D01*
X66589923Y-48342018D01*
X66534699Y-48524067D01*
X66514417Y-48730000D01*
X66085583Y-48730000D01*
X66065300Y-48524066D01*
X66005232Y-48326046D01*
X65907685Y-48143550D01*
X65831945Y-48051260D01*
X65776410Y-47983589D01*
X65616452Y-47852317D01*
X65616453Y-47852317D01*
X65616450Y-47852315D01*
X65433954Y-47754768D01*
X65235934Y-47694700D01*
X65235932Y-47694699D01*
X65235934Y-47694699D01*
X65030000Y-47674417D01*
X64824067Y-47694699D01*
X64626043Y-47754769D01*
X64515898Y-47813643D01*
X64443550Y-47852315D01*
X64443548Y-47852316D01*
X64443547Y-47852317D01*
X64283589Y-47983589D01*
X64152317Y-48143547D01*
X64152315Y-48143550D01*
X64135582Y-48174855D01*
X64054769Y-48326043D01*
X64054768Y-48326045D01*
X64054768Y-48326046D01*
X64049923Y-48342018D01*
X63994699Y-48524067D01*
X63974417Y-48730000D01*
X63545583Y-48730000D01*
X63525300Y-48524066D01*
X63465232Y-48326046D01*
X63367685Y-48143550D01*
X63291945Y-48051260D01*
X63236410Y-47983589D01*
X63076452Y-47852317D01*
X63076453Y-47852317D01*
X63076450Y-47852315D01*
X62893954Y-47754768D01*
X62695934Y-47694700D01*
X62695932Y-47694699D01*
X62695934Y-47694699D01*
X62490000Y-47674417D01*
X62284067Y-47694699D01*
X62086043Y-47754769D01*
X61975898Y-47813643D01*
X61903550Y-47852315D01*
X61903548Y-47852316D01*
X61903547Y-47852317D01*
X61743589Y-47983589D01*
X61612317Y-48143547D01*
X61612315Y-48143550D01*
X61595582Y-48174855D01*
X61514769Y-48326043D01*
X61514768Y-48326045D01*
X61514768Y-48326046D01*
X61509923Y-48342018D01*
X61454699Y-48524067D01*
X61434417Y-48730000D01*
X58465583Y-48730000D01*
X58445300Y-48524066D01*
X58385232Y-48326046D01*
X58287685Y-48143550D01*
X58211945Y-48051260D01*
X58156410Y-47983589D01*
X57996452Y-47852317D01*
X57996453Y-47852317D01*
X57996450Y-47852315D01*
X57813954Y-47754768D01*
X57615934Y-47694700D01*
X57615932Y-47694699D01*
X57615934Y-47694699D01*
X57410000Y-47674417D01*
X57204067Y-47694699D01*
X57006043Y-47754769D01*
X56895898Y-47813643D01*
X56823550Y-47852315D01*
X56823548Y-47852316D01*
X56823547Y-47852317D01*
X56663589Y-47983589D01*
X56532317Y-48143547D01*
X56532315Y-48143550D01*
X56515582Y-48174855D01*
X56434769Y-48326043D01*
X56434768Y-48326045D01*
X56434768Y-48326046D01*
X56429923Y-48342018D01*
X56374699Y-48524067D01*
X56354417Y-48730000D01*
X55925583Y-48730000D01*
X55905300Y-48524066D01*
X55845232Y-48326046D01*
X55747685Y-48143550D01*
X55671945Y-48051260D01*
X55616410Y-47983589D01*
X55456452Y-47852317D01*
X55456453Y-47852317D01*
X55456450Y-47852315D01*
X55273954Y-47754768D01*
X55075934Y-47694700D01*
X55075932Y-47694699D01*
X55075934Y-47694699D01*
X54870000Y-47674417D01*
X54664067Y-47694699D01*
X54466043Y-47754769D01*
X54355898Y-47813643D01*
X54283550Y-47852315D01*
X54283548Y-47852316D01*
X54283547Y-47852317D01*
X54123589Y-47983589D01*
X53992317Y-48143547D01*
X53992315Y-48143550D01*
X53975582Y-48174855D01*
X53894769Y-48326043D01*
X53894768Y-48326045D01*
X53894768Y-48326046D01*
X53889923Y-48342018D01*
X53834699Y-48524067D01*
X53814417Y-48730000D01*
X46211994Y-48730000D01*
X46223572Y-48695457D01*
X46224270Y-48693442D01*
X46285699Y-48521759D01*
X46288996Y-48513497D01*
X46364713Y-48342015D01*
X46366051Y-48339089D01*
X46372221Y-48326043D01*
X46443727Y-48174855D01*
X46447452Y-48167612D01*
X46538864Y-48003497D01*
X46540745Y-48000243D01*
X46634036Y-47844598D01*
X46638034Y-47838363D01*
X46744270Y-47683278D01*
X46746899Y-47679590D01*
X46854909Y-47533954D01*
X46859011Y-47528728D01*
X46979239Y-47383944D01*
X46982577Y-47380097D01*
X47104340Y-47245752D01*
X47108437Y-47241450D01*
X47241450Y-47108437D01*
X47245752Y-47104340D01*
X47380097Y-46982577D01*
X47383944Y-46979239D01*
X47528728Y-46859011D01*
X47533954Y-46854909D01*
X47679590Y-46746899D01*
X47683278Y-46744270D01*
X47838363Y-46638034D01*
X47844598Y-46634036D01*
X48000243Y-46540745D01*
X48003497Y-46538864D01*
X48167612Y-46447452D01*
X48174855Y-46443727D01*
X48339098Y-46366046D01*
X48342018Y-46364712D01*
X48406007Y-46336458D01*
X48513497Y-46288996D01*
X48521759Y-46285699D01*
X48693442Y-46224270D01*
X48695457Y-46223572D01*
X48872922Y-46164091D01*
X48882111Y-46161405D01*
X49060037Y-46116837D01*
X49061318Y-46116526D01*
X49242595Y-46073890D01*
X49252729Y-46071950D01*
X49436286Y-46044722D01*
X49437054Y-46044611D01*
X49619217Y-46019200D01*
X49630200Y-46018166D01*
X49826898Y-46008502D01*
X49991674Y-46000884D01*
X49997146Y-46000632D01*
X50002872Y-46000500D01*
X107997128Y-46000500D01*
X108002854Y-46000632D01*
G37*
%TD.AperFunction*%
%TD*%
M02*
