%TF.GenerationSoftware,KiCad,Pcbnew,7.0.10-7.0.10~ubuntu22.04.1*%
%TF.CreationDate,2024-01-31T10:54:09+01:00*%
%TF.ProjectId,puissanceok,70756973-7361-46e6-9365-6f6b2e6b6963,rev?*%
%TF.SameCoordinates,Original*%
%TF.FileFunction,Soldermask,Top*%
%TF.FilePolarity,Negative*%
%FSLAX46Y46*%
G04 Gerber Fmt 4.6, Leading zero omitted, Abs format (unit mm)*
G04 Created by KiCad (PCBNEW 7.0.10-7.0.10~ubuntu22.04.1) date 2024-01-31 10:54:09*
%MOMM*%
%LPD*%
G01*
G04 APERTURE LIST*
G04 Aperture macros list*
%AMRoundRect*
0 Rectangle with rounded corners*
0 $1 Rounding radius*
0 $2 $3 $4 $5 $6 $7 $8 $9 X,Y pos of 4 corners*
0 Add a 4 corners polygon primitive as box body*
4,1,4,$2,$3,$4,$5,$6,$7,$8,$9,$2,$3,0*
0 Add four circle primitives for the rounded corners*
1,1,$1+$1,$2,$3*
1,1,$1+$1,$4,$5*
1,1,$1+$1,$6,$7*
1,1,$1+$1,$8,$9*
0 Add four rect primitives between the rounded corners*
20,1,$1+$1,$2,$3,$4,$5,0*
20,1,$1+$1,$4,$5,$6,$7,0*
20,1,$1+$1,$6,$7,$8,$9,0*
20,1,$1+$1,$8,$9,$2,$3,0*%
G04 Aperture macros list end*
%ADD10RoundRect,0.250000X-0.550000X1.500000X-0.550000X-1.500000X0.550000X-1.500000X0.550000X1.500000X0*%
%ADD11RoundRect,0.250000X1.050000X0.550000X-1.050000X0.550000X-1.050000X-0.550000X1.050000X-0.550000X0*%
%ADD12RoundRect,0.200000X1.400000X-2.250000X1.400000X2.250000X-1.400000X2.250000X-1.400000X-2.250000X0*%
%ADD13RoundRect,0.100000X0.375000X-0.400000X0.375000X0.400000X-0.375000X0.400000X-0.375000X-0.400000X0*%
%ADD14RoundRect,0.135000X-0.185000X0.135000X-0.185000X-0.135000X0.185000X-0.135000X0.185000X0.135000X0*%
%ADD15R,0.800000X0.300000*%
%ADD16RoundRect,0.135000X0.185000X-0.135000X0.185000X0.135000X-0.185000X0.135000X-0.185000X-0.135000X0*%
%ADD17RoundRect,0.135000X0.135000X0.185000X-0.135000X0.185000X-0.135000X-0.185000X0.135000X-0.185000X0*%
%ADD18C,0.800000*%
%ADD19C,5.400000*%
%ADD20RoundRect,0.250000X-0.600000X-0.750000X0.600000X-0.750000X0.600000X0.750000X-0.600000X0.750000X0*%
%ADD21O,1.700000X2.000000*%
%ADD22RoundRect,0.218750X0.218750X0.256250X-0.218750X0.256250X-0.218750X-0.256250X0.218750X-0.256250X0*%
%ADD23RoundRect,0.250000X1.000000X0.900000X-1.000000X0.900000X-1.000000X-0.900000X1.000000X-0.900000X0*%
%ADD24RoundRect,0.140000X0.170000X-0.140000X0.170000X0.140000X-0.170000X0.140000X-0.170000X-0.140000X0*%
%ADD25RoundRect,0.250000X-0.600000X-0.725000X0.600000X-0.725000X0.600000X0.725000X-0.600000X0.725000X0*%
%ADD26O,1.700000X1.950000*%
%ADD27R,1.700000X1.700000*%
%ADD28O,1.700000X1.700000*%
%ADD29C,1.800000*%
%ADD30RoundRect,0.381000X-0.381000X0.381000X-0.381000X-0.381000X0.381000X-0.381000X0.381000X0.381000X0*%
%ADD31C,1.524000*%
%ADD32R,7.500000X2.200000*%
%ADD33RoundRect,0.140000X0.140000X0.170000X-0.140000X0.170000X-0.140000X-0.170000X0.140000X-0.170000X0*%
%ADD34RoundRect,0.250000X-1.500000X-0.550000X1.500000X-0.550000X1.500000X0.550000X-1.500000X0.550000X0*%
%ADD35RoundRect,0.200000X-2.100000X-0.200000X2.100000X-0.200000X2.100000X0.200000X-2.100000X0.200000X0*%
%ADD36RoundRect,0.250002X-4.449998X-5.149998X4.449998X-5.149998X4.449998X5.149998X-4.449998X5.149998X0*%
%ADD37RoundRect,0.250000X0.725000X-0.600000X0.725000X0.600000X-0.725000X0.600000X-0.725000X-0.600000X0*%
%ADD38O,1.950000X1.700000*%
%ADD39RoundRect,0.135000X-0.135000X-0.185000X0.135000X-0.185000X0.135000X0.185000X-0.135000X0.185000X0*%
%ADD40RoundRect,0.140000X-0.170000X0.140000X-0.170000X-0.140000X0.170000X-0.140000X0.170000X0.140000X0*%
%ADD41RoundRect,0.250000X0.750000X-0.600000X0.750000X0.600000X-0.750000X0.600000X-0.750000X-0.600000X0*%
%ADD42O,2.000000X1.700000*%
%ADD43RoundRect,0.140000X-0.140000X-0.170000X0.140000X-0.170000X0.140000X0.170000X-0.140000X0.170000X0*%
G04 APERTURE END LIST*
D10*
%TO.C,C902*%
X99200000Y-56800000D03*
X99200000Y-62200000D03*
%TD*%
D11*
%TO.C,C304*%
X81300000Y-56200000D03*
X77700000Y-56200000D03*
%TD*%
D12*
%TO.C,D601*%
X73930000Y-58750000D03*
D13*
X72960000Y-54400000D03*
X74900000Y-54400000D03*
%TD*%
D14*
%TO.C,R902*%
X97500000Y-54390000D03*
X97500000Y-55410000D03*
%TD*%
D12*
%TO.C,D301*%
X93430000Y-58750000D03*
D13*
X92460000Y-54400000D03*
X94400000Y-54400000D03*
%TD*%
D15*
%TO.C,U901*%
X104750000Y-55350000D03*
X104750000Y-54850000D03*
X104750000Y-54350000D03*
X104750000Y-53850000D03*
X101650000Y-53850000D03*
X101650000Y-54350000D03*
X101650000Y-54850000D03*
X101650000Y-55350000D03*
%TD*%
D16*
%TO.C,R701*%
X88800000Y-88210000D03*
X88800000Y-87190000D03*
%TD*%
D17*
%TO.C,R603*%
X58620000Y-69610000D03*
X57600000Y-69610000D03*
%TD*%
%TO.C,R303*%
X78120000Y-69610000D03*
X77100000Y-69610000D03*
%TD*%
D18*
%TO.C,H102*%
X105975000Y-50000000D03*
X106568109Y-48568109D03*
X106568109Y-51431891D03*
X108000000Y-47975000D03*
D19*
X108000000Y-50000000D03*
D18*
X108000000Y-52025000D03*
X109431891Y-48568109D03*
X109431891Y-51431891D03*
X110025000Y-50000000D03*
%TD*%
D20*
%TO.C,J107*%
X57300000Y-99400000D03*
D21*
X59800000Y-99400000D03*
%TD*%
D22*
%TO.C,D105*%
X108587500Y-95300000D03*
X107012500Y-95300000D03*
%TD*%
D11*
%TO.C,C101*%
X51400000Y-93600000D03*
X47800000Y-93600000D03*
%TD*%
D23*
%TO.C,D101*%
X51750000Y-88900000D03*
X47450000Y-88900000D03*
%TD*%
D14*
%TO.C,R702*%
X88800000Y-83390000D03*
X88800000Y-84410000D03*
%TD*%
D24*
%TO.C,C602*%
X57600000Y-72580000D03*
X57600000Y-71620000D03*
%TD*%
D25*
%TO.C,J114*%
X75700000Y-93100000D03*
D26*
X78200000Y-93100000D03*
X80700000Y-93100000D03*
X83200000Y-93100000D03*
X85700000Y-93100000D03*
%TD*%
D27*
%TO.C,J111*%
X110300000Y-83480000D03*
D28*
X110300000Y-80940000D03*
X110300000Y-78400000D03*
X110300000Y-75860000D03*
X110300000Y-73320000D03*
X110300000Y-70780000D03*
X110300000Y-68240000D03*
X110300000Y-65700000D03*
%TD*%
D14*
%TO.C,R202*%
X62400000Y-83390000D03*
X62400000Y-84410000D03*
%TD*%
D20*
%TO.C,J108*%
X67000000Y-93100000D03*
D21*
X69500000Y-93100000D03*
%TD*%
D29*
%TO.C,TP104*%
X104600000Y-94700000D03*
%TD*%
D22*
%TO.C,D104*%
X108587500Y-92600000D03*
X107012500Y-92600000D03*
%TD*%
D30*
%TO.C,J101*%
X53900000Y-63850000D03*
D31*
X53900000Y-67350000D03*
%TD*%
D32*
%TO.C,L601*%
X67600000Y-61100000D03*
X67600000Y-55100000D03*
%TD*%
D16*
%TO.C,R501*%
X80000000Y-88210000D03*
X80000000Y-87190000D03*
%TD*%
D25*
%TO.C,J115*%
X75700000Y-99400000D03*
D26*
X78200000Y-99400000D03*
X80700000Y-99400000D03*
X83200000Y-99400000D03*
X85700000Y-99400000D03*
%TD*%
D20*
%TO.C,J110*%
X70350000Y-77575000D03*
D21*
X72850000Y-77575000D03*
%TD*%
D16*
%TO.C,R401*%
X71200000Y-88210000D03*
X71200000Y-87190000D03*
%TD*%
D25*
%TO.C,J801*%
X92400000Y-99400000D03*
D26*
X94900000Y-99400000D03*
X97400000Y-99400000D03*
X99900000Y-99400000D03*
%TD*%
D24*
%TO.C,C302*%
X77100000Y-72580000D03*
X77100000Y-71620000D03*
%TD*%
D29*
%TO.C,TP103*%
X104600000Y-89300000D03*
%TD*%
D16*
%TO.C,R903*%
X105000000Y-57410000D03*
X105000000Y-56390000D03*
%TD*%
%TO.C,R201*%
X62400000Y-88310000D03*
X62400000Y-87290000D03*
%TD*%
D30*
%TO.C,J104*%
X53900000Y-80650000D03*
D31*
X53900000Y-84150000D03*
%TD*%
D18*
%TO.C,H104*%
X47975000Y-99000000D03*
X48568109Y-97568109D03*
X48568109Y-100431891D03*
X50000000Y-96975000D03*
D19*
X50000000Y-99000000D03*
D18*
X50000000Y-101025000D03*
X51431891Y-97568109D03*
X51431891Y-100431891D03*
X52025000Y-99000000D03*
%TD*%
D11*
%TO.C,C305*%
X81300000Y-61000000D03*
X77700000Y-61000000D03*
%TD*%
D33*
%TO.C,C303*%
X78080000Y-68600000D03*
X77120000Y-68600000D03*
%TD*%
D25*
%TO.C,J1101*%
X92400000Y-93100000D03*
D26*
X94900000Y-93100000D03*
X97400000Y-93100000D03*
X99900000Y-93100000D03*
%TD*%
D32*
%TO.C,L301*%
X87100000Y-61100000D03*
X87100000Y-55100000D03*
%TD*%
D14*
%TO.C,R502*%
X80000000Y-83390000D03*
X80000000Y-84410000D03*
%TD*%
D34*
%TO.C,C601*%
X59100000Y-78200000D03*
X64500000Y-78200000D03*
%TD*%
D33*
%TO.C,C603*%
X58580000Y-68600000D03*
X57620000Y-68600000D03*
%TD*%
D27*
%TO.C,J113*%
X105220000Y-83480000D03*
D28*
X105220000Y-80940000D03*
X105220000Y-78400000D03*
X105220000Y-75860000D03*
X105220000Y-73320000D03*
X105220000Y-70780000D03*
X105220000Y-68240000D03*
X105220000Y-65700000D03*
%TD*%
D35*
%TO.C,U601*%
X61825000Y-65090000D03*
X61825000Y-66360000D03*
X61825000Y-67630000D03*
X61825000Y-68900000D03*
D36*
X70975000Y-68900000D03*
D35*
X61825000Y-70170000D03*
X61825000Y-71440000D03*
X61825000Y-72710000D03*
%TD*%
D37*
%TO.C,J901*%
X108400000Y-61000000D03*
D38*
X108400000Y-58500000D03*
X108400000Y-56000000D03*
%TD*%
D39*
%TO.C,R103*%
X106690000Y-91400000D03*
X107710000Y-91400000D03*
%TD*%
%TO.C,R302*%
X77090000Y-70600000D03*
X78110000Y-70600000D03*
%TD*%
D18*
%TO.C,H103*%
X105975000Y-99000000D03*
X106568109Y-97568109D03*
X106568109Y-100431891D03*
X108000000Y-96975000D03*
D19*
X108000000Y-99000000D03*
D18*
X108000000Y-101025000D03*
X109431891Y-97568109D03*
X109431891Y-100431891D03*
X110025000Y-99000000D03*
%TD*%
D25*
%TO.C,J1001*%
X92400000Y-86800000D03*
D26*
X94900000Y-86800000D03*
X97400000Y-86800000D03*
X99900000Y-86800000D03*
%TD*%
D40*
%TO.C,C903*%
X105000000Y-58520000D03*
X105000000Y-59480000D03*
%TD*%
D39*
%TO.C,R102*%
X106690000Y-88700000D03*
X107710000Y-88700000D03*
%TD*%
D30*
%TO.C,J103*%
X53900000Y-72250000D03*
D31*
X53900000Y-75750000D03*
%TD*%
D30*
%TO.C,J102*%
X53900000Y-55450000D03*
D31*
X53900000Y-58950000D03*
%TD*%
D39*
%TO.C,R602*%
X57590000Y-70600000D03*
X58610000Y-70600000D03*
%TD*%
D24*
%TO.C,C701*%
X88800000Y-86280000D03*
X88800000Y-85320000D03*
%TD*%
D14*
%TO.C,R301*%
X78100000Y-71600000D03*
X78100000Y-72620000D03*
%TD*%
D41*
%TO.C,J701*%
X84400000Y-87200000D03*
D42*
X84400000Y-84700000D03*
%TD*%
D11*
%TO.C,C605*%
X61800000Y-61000000D03*
X58200000Y-61000000D03*
%TD*%
%TO.C,C604*%
X61800000Y-56200000D03*
X58200000Y-56200000D03*
%TD*%
D14*
%TO.C,R601*%
X58600000Y-71600000D03*
X58600000Y-72620000D03*
%TD*%
D24*
%TO.C,C201*%
X62400000Y-86280000D03*
X62400000Y-85320000D03*
%TD*%
D22*
%TO.C,D102*%
X108575000Y-87200000D03*
X107000000Y-87200000D03*
%TD*%
D39*
%TO.C,R104*%
X106690000Y-94100000D03*
X107710000Y-94100000D03*
%TD*%
D24*
%TO.C,C401*%
X71200000Y-86280000D03*
X71200000Y-85320000D03*
%TD*%
D34*
%TO.C,C301*%
X78600000Y-78200000D03*
X84000000Y-78200000D03*
%TD*%
D35*
%TO.C,U301*%
X81325000Y-65090000D03*
X81325000Y-66360000D03*
X81325000Y-67630000D03*
X81325000Y-68900000D03*
D36*
X90475000Y-68900000D03*
D35*
X81325000Y-70170000D03*
X81325000Y-71440000D03*
X81325000Y-72710000D03*
%TD*%
D22*
%TO.C,D103*%
X108587500Y-89900000D03*
X107012500Y-89900000D03*
%TD*%
D41*
%TO.C,J501*%
X75600000Y-87200000D03*
D42*
X75600000Y-84700000D03*
%TD*%
D29*
%TO.C,TP102*%
X104600000Y-92000000D03*
%TD*%
D24*
%TO.C,C501*%
X80000000Y-86280000D03*
X80000000Y-85320000D03*
%TD*%
D43*
%TO.C,C901*%
X103020000Y-56400000D03*
X103980000Y-56400000D03*
%TD*%
D29*
%TO.C,TP101*%
X104600000Y-86600000D03*
%TD*%
D39*
%TO.C,R101*%
X106690000Y-86000000D03*
X107710000Y-86000000D03*
%TD*%
D41*
%TO.C,J201*%
X58000000Y-87200000D03*
D42*
X58000000Y-84700000D03*
%TD*%
D39*
%TO.C,R901*%
X101380000Y-52800000D03*
X102400000Y-52800000D03*
%TD*%
D14*
%TO.C,R402*%
X71200000Y-83390000D03*
X71200000Y-84410000D03*
%TD*%
D27*
%TO.C,J112*%
X107760000Y-83480000D03*
D28*
X107760000Y-80940000D03*
X107760000Y-78400000D03*
X107760000Y-75860000D03*
X107760000Y-73320000D03*
X107760000Y-70780000D03*
X107760000Y-68240000D03*
X107760000Y-65700000D03*
%TD*%
D18*
%TO.C,H101*%
X47975000Y-50000000D03*
X48568109Y-48568109D03*
X48568109Y-51431891D03*
X50000000Y-47975000D03*
D19*
X50000000Y-50000000D03*
D18*
X50000000Y-52025000D03*
X51431891Y-48568109D03*
X51431891Y-51431891D03*
X52025000Y-50000000D03*
%TD*%
D20*
%TO.C,J109*%
X67000000Y-99400000D03*
D21*
X69500000Y-99400000D03*
%TD*%
D20*
%TO.C,J106*%
X57300000Y-93100000D03*
D21*
X59800000Y-93100000D03*
%TD*%
D41*
%TO.C,J401*%
X66800000Y-87200000D03*
D42*
X66800000Y-84700000D03*
%TD*%
D27*
%TO.C,J105*%
X54870000Y-51270000D03*
D28*
X54870000Y-48730000D03*
X57410000Y-51270000D03*
X57410000Y-48730000D03*
X59950000Y-51270000D03*
X59950000Y-48730000D03*
X62490000Y-51270000D03*
X62490000Y-48730000D03*
X65030000Y-51270000D03*
X65030000Y-48730000D03*
X67570000Y-51270000D03*
X67570000Y-48730000D03*
X70110000Y-51270000D03*
X70110000Y-48730000D03*
X72650000Y-51270000D03*
X72650000Y-48730000D03*
X75190000Y-51270000D03*
X75190000Y-48730000D03*
X77730000Y-51270000D03*
X77730000Y-48730000D03*
X80270000Y-51270000D03*
X80270000Y-48730000D03*
X82810000Y-51270000D03*
X82810000Y-48730000D03*
X85350000Y-51270000D03*
X85350000Y-48730000D03*
X87890000Y-51270000D03*
X87890000Y-48730000D03*
X90430000Y-51270000D03*
X90430000Y-48730000D03*
X92970000Y-51270000D03*
X92970000Y-48730000D03*
X95510000Y-51270000D03*
X95510000Y-48730000D03*
X98050000Y-51270000D03*
X98050000Y-48730000D03*
X100590000Y-51270000D03*
X100590000Y-48730000D03*
X103130000Y-51270000D03*
X103130000Y-48730000D03*
%TD*%
M02*
