%TF.GenerationSoftware,KiCad,Pcbnew,7.0.10-7.0.10~ubuntu22.04.1*%
%TF.CreationDate,2024-02-14T11:38:45+01:00*%
%TF.ProjectId,puissanceok,70756973-7361-46e6-9365-6f6b2e6b6963,rev?*%
%TF.SameCoordinates,Original*%
%TF.FileFunction,Paste,Top*%
%TF.FilePolarity,Positive*%
%FSLAX46Y46*%
G04 Gerber Fmt 4.6, Leading zero omitted, Abs format (unit mm)*
G04 Created by KiCad (PCBNEW 7.0.10-7.0.10~ubuntu22.04.1) date 2024-02-14 11:38:45*
%MOMM*%
%LPD*%
G01*
G04 APERTURE LIST*
G04 Aperture macros list*
%AMRoundRect*
0 Rectangle with rounded corners*
0 $1 Rounding radius*
0 $2 $3 $4 $5 $6 $7 $8 $9 X,Y pos of 4 corners*
0 Add a 4 corners polygon primitive as box body*
4,1,4,$2,$3,$4,$5,$6,$7,$8,$9,$2,$3,0*
0 Add four circle primitives for the rounded corners*
1,1,$1+$1,$2,$3*
1,1,$1+$1,$4,$5*
1,1,$1+$1,$6,$7*
1,1,$1+$1,$8,$9*
0 Add four rect primitives between the rounded corners*
20,1,$1+$1,$2,$3,$4,$5,0*
20,1,$1+$1,$4,$5,$6,$7,0*
20,1,$1+$1,$6,$7,$8,$9,0*
20,1,$1+$1,$8,$9,$2,$3,0*%
G04 Aperture macros list end*
%ADD10RoundRect,0.200000X-0.440000X1.200000X-0.440000X-1.200000X0.440000X-1.200000X0.440000X1.200000X0*%
%ADD11RoundRect,0.200000X0.840000X0.440000X-0.840000X0.440000X-0.840000X-0.440000X0.840000X-0.440000X0*%
%ADD12RoundRect,0.160000X1.120000X-1.800000X1.120000X1.800000X-1.120000X1.800000X-1.120000X-1.800000X0*%
%ADD13RoundRect,0.080000X0.300000X-0.320000X0.300000X0.320000X-0.300000X0.320000X-0.300000X-0.320000X0*%
%ADD14RoundRect,0.108000X-0.148000X0.108000X-0.148000X-0.108000X0.148000X-0.108000X0.148000X0.108000X0*%
%ADD15R,0.640000X0.240000*%
%ADD16RoundRect,0.108000X0.148000X-0.108000X0.148000X0.108000X-0.148000X0.108000X-0.148000X-0.108000X0*%
%ADD17RoundRect,0.108000X0.108000X0.148000X-0.108000X0.148000X-0.108000X-0.148000X0.108000X-0.148000X0*%
%ADD18RoundRect,0.175000X0.175000X0.205000X-0.175000X0.205000X-0.175000X-0.205000X0.175000X-0.205000X0*%
%ADD19RoundRect,0.200000X0.800000X0.720000X-0.800000X0.720000X-0.800000X-0.720000X0.800000X-0.720000X0*%
%ADD20RoundRect,0.112000X0.136000X-0.112000X0.136000X0.112000X-0.136000X0.112000X-0.136000X-0.112000X0*%
%ADD21R,6.000000X1.760000*%
%ADD22RoundRect,0.112000X0.112000X0.136000X-0.112000X0.136000X-0.112000X-0.136000X0.112000X-0.136000X0*%
%ADD23RoundRect,0.160000X-1.680000X-0.160000X1.680000X-0.160000X1.680000X0.160000X-1.680000X0.160000X0*%
%ADD24RoundRect,0.200000X-1.620000X-1.900000X1.620000X-1.900000X1.620000X1.900000X-1.620000X1.900000X0*%
%ADD25RoundRect,0.108000X-0.108000X-0.148000X0.108000X-0.148000X0.108000X0.148000X-0.108000X0.148000X0*%
%ADD26RoundRect,0.112000X-0.112000X-0.136000X0.112000X-0.136000X0.112000X0.136000X-0.112000X0.136000X0*%
%ADD27RoundRect,0.200000X-1.200000X-0.440000X1.200000X-0.440000X1.200000X0.440000X-1.200000X0.440000X0*%
G04 APERTURE END LIST*
D10*
%TO.C,C902*%
X99200000Y-56800000D03*
X99200000Y-62200000D03*
%TD*%
D11*
%TO.C,C304*%
X81300000Y-56200000D03*
X77700000Y-56200000D03*
%TD*%
D12*
%TO.C,D601*%
X73930000Y-58750000D03*
D13*
X72960000Y-54400000D03*
X74900000Y-54400000D03*
%TD*%
D14*
%TO.C,R902*%
X97500000Y-54390000D03*
X97500000Y-55410000D03*
%TD*%
D12*
%TO.C,D301*%
X93430000Y-58750000D03*
D13*
X92460000Y-54400000D03*
X94400000Y-54400000D03*
%TD*%
D15*
%TO.C,U901*%
X104750000Y-55350000D03*
X104750000Y-54850000D03*
X104750000Y-54350000D03*
X104750000Y-53850000D03*
X101650000Y-53850000D03*
X101650000Y-54350000D03*
X101650000Y-54850000D03*
X101650000Y-55350000D03*
%TD*%
D16*
%TO.C,R701*%
X88800000Y-88210000D03*
X88800000Y-87190000D03*
%TD*%
D17*
%TO.C,R603*%
X58620000Y-69610000D03*
X57600000Y-69610000D03*
%TD*%
%TO.C,R303*%
X78120000Y-69610000D03*
X77100000Y-69610000D03*
%TD*%
D18*
%TO.C,D105*%
X108587500Y-95300000D03*
X107012500Y-95300000D03*
%TD*%
D11*
%TO.C,C101*%
X51400000Y-93600000D03*
X47800000Y-93600000D03*
%TD*%
D19*
%TO.C,D101*%
X51750000Y-88900000D03*
X47450000Y-88900000D03*
%TD*%
D14*
%TO.C,R702*%
X88800000Y-83390000D03*
X88800000Y-84410000D03*
%TD*%
D20*
%TO.C,C602*%
X57600000Y-72580000D03*
X57600000Y-71620000D03*
%TD*%
D14*
%TO.C,R202*%
X62400000Y-83390000D03*
X62400000Y-84410000D03*
%TD*%
D18*
%TO.C,D104*%
X108587500Y-92600000D03*
X107012500Y-92600000D03*
%TD*%
D21*
%TO.C,L601*%
X67600000Y-61100000D03*
X67600000Y-55100000D03*
%TD*%
D16*
%TO.C,R501*%
X80000000Y-88210000D03*
X80000000Y-87190000D03*
%TD*%
%TO.C,R401*%
X71200000Y-88210000D03*
X71200000Y-87190000D03*
%TD*%
D20*
%TO.C,C302*%
X77100000Y-72580000D03*
X77100000Y-71620000D03*
%TD*%
D17*
%TO.C,R2*%
X105020000Y-60400000D03*
X104000000Y-60400000D03*
%TD*%
D16*
%TO.C,R903*%
X105000000Y-57410000D03*
X105000000Y-56390000D03*
%TD*%
%TO.C,R201*%
X62400000Y-88310000D03*
X62400000Y-87290000D03*
%TD*%
D11*
%TO.C,C305*%
X81300000Y-61000000D03*
X77700000Y-61000000D03*
%TD*%
D17*
%TO.C,R3*%
X105020000Y-63400000D03*
X104000000Y-63400000D03*
%TD*%
D22*
%TO.C,C303*%
X78080000Y-68600000D03*
X77120000Y-68600000D03*
%TD*%
D21*
%TO.C,L301*%
X87100000Y-61100000D03*
X87100000Y-55100000D03*
%TD*%
D14*
%TO.C,R502*%
X80000000Y-83390000D03*
X80000000Y-84410000D03*
%TD*%
D22*
%TO.C,C603*%
X58580000Y-68600000D03*
X57620000Y-68600000D03*
%TD*%
D23*
%TO.C,U601*%
X61825000Y-65090000D03*
X61825000Y-66360000D03*
X61825000Y-67630000D03*
X61825000Y-68900000D03*
D24*
X68550000Y-66125000D03*
X68550000Y-71675000D03*
X73400000Y-66125000D03*
X73400000Y-71675000D03*
D23*
X61825000Y-70170000D03*
X61825000Y-71440000D03*
X61825000Y-72710000D03*
%TD*%
D25*
%TO.C,R103*%
X106690000Y-91400000D03*
X107710000Y-91400000D03*
%TD*%
%TO.C,R302*%
X77090000Y-70600000D03*
X78110000Y-70600000D03*
%TD*%
D22*
%TO.C,C903*%
X105030000Y-58750000D03*
X104070000Y-58750000D03*
%TD*%
D25*
%TO.C,R102*%
X106690000Y-88700000D03*
X107710000Y-88700000D03*
%TD*%
D17*
%TO.C,R4*%
X105010000Y-62400000D03*
X103990000Y-62400000D03*
%TD*%
D25*
%TO.C,R602*%
X57590000Y-70600000D03*
X58610000Y-70600000D03*
%TD*%
D20*
%TO.C,C701*%
X88800000Y-86280000D03*
X88800000Y-85320000D03*
%TD*%
D14*
%TO.C,R301*%
X78100000Y-71600000D03*
X78100000Y-72620000D03*
%TD*%
D11*
%TO.C,C605*%
X61800000Y-61000000D03*
X58200000Y-61000000D03*
%TD*%
%TO.C,C604*%
X61800000Y-56200000D03*
X58200000Y-56200000D03*
%TD*%
D14*
%TO.C,R601*%
X58600000Y-71600000D03*
X58600000Y-72620000D03*
%TD*%
D20*
%TO.C,C201*%
X62400000Y-86280000D03*
X62400000Y-85320000D03*
%TD*%
D18*
%TO.C,D102*%
X108575000Y-87200000D03*
X107000000Y-87200000D03*
%TD*%
D25*
%TO.C,R104*%
X106690000Y-94100000D03*
X107710000Y-94100000D03*
%TD*%
D20*
%TO.C,C401*%
X71200000Y-86280000D03*
X71200000Y-85320000D03*
%TD*%
D23*
%TO.C,U301*%
X81325000Y-65090000D03*
X81325000Y-66360000D03*
X81325000Y-67630000D03*
X81325000Y-68900000D03*
D24*
X88050000Y-66125000D03*
X88050000Y-71675000D03*
X92900000Y-66125000D03*
X92900000Y-71675000D03*
D23*
X81325000Y-70170000D03*
X81325000Y-71440000D03*
X81325000Y-72710000D03*
%TD*%
D18*
%TO.C,D103*%
X108587500Y-89900000D03*
X107012500Y-89900000D03*
%TD*%
D17*
%TO.C,R1*%
X105020000Y-61400000D03*
X104000000Y-61400000D03*
%TD*%
D20*
%TO.C,C501*%
X80000000Y-86280000D03*
X80000000Y-85320000D03*
%TD*%
D26*
%TO.C,C901*%
X103020000Y-56400000D03*
X103980000Y-56400000D03*
%TD*%
D27*
%TO.C,C601*%
X59100000Y-78200000D03*
X64500000Y-78200000D03*
%TD*%
D25*
%TO.C,R101*%
X106690000Y-86000000D03*
X107710000Y-86000000D03*
%TD*%
%TO.C,R901*%
X101380000Y-52800000D03*
X102400000Y-52800000D03*
%TD*%
D14*
%TO.C,R402*%
X71200000Y-83390000D03*
X71200000Y-84410000D03*
%TD*%
D27*
%TO.C,C301*%
X78600000Y-78200000D03*
X84000000Y-78200000D03*
%TD*%
M02*
