<?xml version="1.0" encoding="iso-8859-1"?>
<!-- Generator: Adobe Illustrator 19.0.0, SVG Export Plug-In . SVG Version: 6.00 Build 0)  -->
<svg version="1.1" id="Capa_1" xmlns="http://www.w3.org/2000/svg" xmlns:xlink="http://www.w3.org/1999/xlink" x="0px" y="0px"
	 viewBox="0 0 512 512" style="enable-background:new 0 0 512 512;" xml:space="preserve">
<g>
	<g>
		<path d="M20,111c-11.046,0-20,8.954-20,20v250c0,11.046,8.954,20,20,20s20-8.954,20-20V131C40,119.954,31.046,111,20,111z"/>
	</g>
</g>
<g>
	<g>
		<path d="M492,111c-11.046,0-20,8.954-20,20v250c0,11.046,8.954,20,20,20c11.046,0,20-8.954,20-20V131
			C512,119.954,503.046,111,492,111z"/>
	</g>
</g>
<g>
	<g>
		<path d="M351,236H90.815l57.269-56.8c7.843-7.778,7.895-20.441,0.116-28.284c-7.776-7.841-20.44-7.895-28.284-0.116
			l-62.162,61.654C46.305,223.809,40,238.919,40,255s6.305,31.191,17.754,42.547l62.162,61.653c3.9,3.868,8.992,5.8,14.083,5.8
			c5.146,0,10.291-1.974,14.201-5.916c7.778-7.843,7.727-20.506-0.116-28.284L92.832,276H351c11.046,0,20-8.954,20-20
			C371,244.954,362.046,236,351,236z"/>
	</g>
</g>
<g>
	<g>
		<path d="M454.246,212.453L392.084,150.8c-7.843-7.779-20.506-7.726-28.284,0.116c-7.778,7.843-7.727,20.506,0.116,28.284
			l62.162,61.653C429.896,244.641,432,249.666,432,255s-2.104,10.359-5.922,14.146L363.916,330.8
			c-7.843,7.778-7.895,20.441-0.116,28.284c3.91,3.943,9.054,5.916,14.201,5.916c5.09,0,10.184-1.932,14.083-5.8l62.162-61.654
			C465.695,286.191,472,271.081,472,255S465.695,223.809,454.246,212.453z"/>
	</g>
</g>
<g>
</g>
<g>
</g>
<g>
</g>
<g>
</g>
<g>
</g>
<g>
</g>
<g>
</g>
<g>
</g>
<g>
</g>
<g>
</g>
<g>
</g>
<g>
</g>
<g>
</g>
<g>
</g>
<g>
</g>
</svg>
