<?xml version="1.0" encoding="iso-8859-1"?>
<!-- Generator: Adobe Illustrator 19.0.0, SVG Export Plug-In . SVG Version: 6.00 Build 0)  -->
<svg version="1.1" id="Capa_1" xmlns="http://www.w3.org/2000/svg" xmlns:xlink="http://www.w3.org/1999/xlink" x="0px" y="0px"
	 viewBox="0 0 512 512" style="enable-background:new 0 0 512 512;" xml:space="preserve">
<g>
	<g>
		<path d="M492,352c11.046,0,20-8.954,20-20v-30c0-44.112-35.888-80-80-80h-26v-5c0-38.598-31.401-70-70-70h-39v-13
			c0-33.084-26.916-60-60-60h-47V60c0-33.084-26.916-60-60-60H60C26.916,0,0,26.916,0,60v70c0,33.084,26.916,60,60,60h14v47
			c0,33.084,26.916,60,60,60h14v38c0,38.598,31.401,70,70,70h4v27c0,44.112,35.888,80,80,80h130c44.112,0,80-35.888,80-80
			c0-11.046-8.954-20-20-20c-11.046,0-20,8.954-20,20c0,22.056-17.944,40-40,40H302c-22.056,0-40-17.944-40-40V302
			c0-22.056,17.944-40,40-40h130c22.056,0,40,17.944,40,40v30C472,343.046,480.954,352,492,352z M74,134v16H60
			c-11.028,0-20-8.972-20-20V60c0-11.028,8.972-20,20-20h70c11.028,0,20,8.972,20,20v14h-16C100.916,74,74,100.916,74,134z M148,217
			v40h-14c-11.028,0-20-8.972-20-20V134c0-11.028,8.972-20,20-20h103c11.028,0,20,8.972,20,20v13h-39
			C179.401,147,148,178.402,148,217z M366,222h-64c-44.112,0-80,35.888-80,80v63h-4c-16.542,0-30-13.458-30-30V217
			c0-16.542,13.458-30,30-30h118c16.542,0,30,13.458,30,30V222z"/>
	</g>
</g>
<g>
</g>
<g>
</g>
<g>
</g>
<g>
</g>
<g>
</g>
<g>
</g>
<g>
</g>
<g>
</g>
<g>
</g>
<g>
</g>
<g>
</g>
<g>
</g>
<g>
</g>
<g>
</g>
<g>
</g>
</svg>
