<?xml version="1.0" encoding="iso-8859-1"?>
<!-- Generator: Adobe Illustrator 19.0.0, SVG Export Plug-In . SVG Version: 6.00 Build 0)  -->
<svg version="1.1" id="Capa_1" xmlns="http://www.w3.org/2000/svg" xmlns:xlink="http://www.w3.org/1999/xlink" x="0px" y="0px"
	 viewBox="0 0 512 512" style="enable-background:new 0 0 512 512;" xml:space="preserve">
<g>
	<g>
		<path d="M442,250h-31v0.025c-10.581,0.521-19,9.265-19,19.975v81c0,22.056-17.944,40-40,40H162c-22.056,0-40-17.944-40-40V161
			c0-22.056,17.944-40,40-40h190c22.056,0,40,17.944,40,40v9c0,11.046,8.954,20,20,20c11.046,0,20-8.954,20-20v-9
			c0-44.112-35.888-80-80-80h-90V70c0-38.598-31.402-70-70-70H70C31.402,0,0,31.402,0,70v122c0,38.598,31.402,70,70,70h12v89
			c0,44.112,35.888,80,80,80h88v11c0,38.598,31.402,70,70,70h122c38.598,0,70-31.402,70-70V320C512,281.402,480.598,250,442,250z
			 M205.621,43.274C215.335,48.245,222,58.359,222,70v11h-54.24L205.621,43.274z M82,222H70c-11.795,0-22.022-6.843-26.92-16.767
			L82,166.452V222z M40,151.834V94.335l54.879-54.309L94.853,40h57.384L40,151.834z M306.523,468.798
			C296.731,463.854,290,453.698,290,442v-11h54.185L306.523,468.798z M432,290h10c11.544,0,21.585,6.554,26.6,16.137L432,342.869
			V290z M472,418.144l-0.527-0.522L417.665,472H359.8L472,359.395V418.144z"/>
	</g>
</g>
<g>
</g>
<g>
</g>
<g>
</g>
<g>
</g>
<g>
</g>
<g>
</g>
<g>
</g>
<g>
</g>
<g>
</g>
<g>
</g>
<g>
</g>
<g>
</g>
<g>
</g>
<g>
</g>
<g>
</g>
</svg>
