<?xml version="1.0" encoding="iso-8859-1"?>
<!-- Generator: Adobe Illustrator 19.0.0, SVG Export Plug-In . SVG Version: 6.00 Build 0)  -->
<svg version="1.1" id="Capa_1" xmlns="http://www.w3.org/2000/svg" xmlns:xlink="http://www.w3.org/1999/xlink" x="0px" y="0px"
	 viewBox="0 0 512 512" style="enable-background:new 0 0 512 512;" xml:space="preserve">
<g>
	<g>
		<path d="M416.257,190.474C416.748,185.381,417,180.219,417,175c0-88.224-71.776-160-160-160S97,86.776,97,175
			c0,4.936,0.225,9.82,0.665,14.643C40.32,213.993,0,270.876,0,337c0,88.224,71.776,160,160,160c35.989,0,69.241-11.945,96-32.077
			C282.759,485.055,316.011,497,352,497c22.673,0,44.594-4.652,65.151-13.827c10.086-4.502,14.614-16.328,10.112-26.415
			c-4.501-10.086-16.327-14.613-26.415-10.112C385.455,453.516,369.02,457,352,457c-24.735,0-47.746-7.523-66.865-20.4
			C306.948,409.251,320,374.621,320,337c0-4.936-0.225-9.82-0.665-14.643c40.458-17.179,72.441-50.553,87.77-91.94
			C445.625,250.413,472,290.684,472,337c0,17.345-3.614,34.068-10.741,49.705c-4.581,10.051-0.147,21.913,9.904,26.494
			c10.051,4.581,21.912,0.146,26.494-9.904C507.174,382.414,512,360.109,512,337C512,271.618,472.579,215.27,416.257,190.474z
			 M160,457c-66.168,0-120-53.832-120-120c0-46.988,27.147-87.755,66.58-107.441c14.963,41.124,46.337,74.434,86.162,91.967
			C192.252,326.619,192,331.781,192,337c0,37.621,13.052,72.251,34.865,99.6C207.746,449.477,184.735,457,160,457z M201.895,281.583
			c-25.942-13.467-46.376-36.13-56.954-63.643c4.934-0.62,9.96-0.94,15.059-0.94c24.735,0,47.746,7.523,66.865,20.4
			C216.342,250.594,207.858,265.482,201.895,281.583z M256,408.924c-15.064-20.056-24-44.966-24-71.924
			c0-1.319,0.022-2.633,0.064-3.941C240.191,334.336,248.52,335,257,335c7.789,0,15.45-0.56,22.945-1.641
			c0.036,1.209,0.055,2.423,0.055,3.641C280,363.958,271.064,388.868,256,408.924z M240.039,293.805
			c4.004-10.342,9.401-19.996,15.961-28.729c6.613,8.805,12.045,18.545,16.059,28.984c-4.934,0.62-9.96,0.94-15.059,0.94
			C251.244,295,245.581,294.592,240.039,293.805z M310.42,282.441c-5.978-16.43-14.575-31.613-25.285-45.041
			C304.254,224.523,327.265,217,352,217c5.756,0,11.419,0.408,16.961,1.195C358.125,246.185,337.081,269.131,310.42,282.441z
			 M376.936,178.941C368.809,177.664,360.48,177,352,177c-35.989,0-69.241,11.945-96,32.077C229.241,188.945,195.989,177,160,177
			c-7.789,0-15.45,0.56-22.945,1.641C137.019,177.432,137,176.218,137,175c0-66.168,53.832-120,120-120s120,53.832,120,120
			C377,176.319,376.978,177.633,376.936,178.941z"/>
	</g>
</g>
<g>
</g>
<g>
</g>
<g>
</g>
<g>
</g>
<g>
</g>
<g>
</g>
<g>
</g>
<g>
</g>
<g>
</g>
<g>
</g>
<g>
</g>
<g>
</g>
<g>
</g>
<g>
</g>
<g>
</g>
</svg>
