<?xml version="1.0" encoding="iso-8859-1"?>
<!-- Generator: Adobe Illustrator 19.0.0, SVG Export Plug-In . SVG Version: 6.00 Build 0)  -->
<svg version="1.1" id="Capa_1" xmlns="http://www.w3.org/2000/svg" xmlns:xlink="http://www.w3.org/1999/xlink" x="0px" y="0px"
	 viewBox="0 0 512 512" style="enable-background:new 0 0 512 512;" xml:space="preserve">
<g>
	<g>
		<path d="M317,0c-85.61,0-158.512,55.455-184.671,132.33C55.455,158.488,0,231.39,0,317c0,107.523,87.477,195,195,195
			c85.608,0,158.508-55.452,184.668-132.323c9.342-3.158,18.436-7.022,27.176-11.567c26.635-13.849,50.083-34.018,67.809-58.326
			c6.508-8.925,4.549-21.436-4.376-27.943c-8.924-6.509-21.436-4.549-27.943,4.376c-14.069,19.293-32.275,34.831-52.901,45.739
			C389.808,327.019,390,322.031,390,317c0-107.523-87.477-195-195-195c-5.051,0-10.058,0.193-15.013,0.572
			C206.033,73.499,257.678,40,317,40c85.467,0,155,69.533,155,155c0,11.046,8.954,20,20,20c11.046,0,20-8.954,20-20
			C512,87.477,424.523,0,317,0z M195,472c-85.467,0-155-69.533-155-155c0-59.322,33.498-110.967,82.572-137.013
			C122.193,184.942,122,189.949,122,195c0,107.523,87.477,195,195,195c5.015,0,10.026-0.195,15.018-0.582
			C305.974,438.497,254.326,472,195,472z M350,317c0,10.27-1.004,20.309-2.919,30.026C337.249,348.986,327.178,350,317,350
			c-3.96,0-7.886-0.15-11.773-0.443l44.33-44.33C349.85,309.114,350,313.04,350,317z M338.879,259.337l-79.542,79.542
			c-12.696-5.106-24.565-11.847-35.347-19.96l94.928-94.928C327.031,234.772,333.772,246.641,338.879,259.337z M290.973,195.368
			l-95.606,95.605c-8.494-10.742-15.598-22.631-21.038-35.394l81.25-81.25C268.342,179.77,280.231,186.874,290.973,195.368z
			 M195,162c5.253,0,10.445,0.263,15.565,0.776l-47.789,47.789C162.263,205.445,162,200.253,162,195
			c0-10.286,1.008-20.341,2.928-30.072C174.659,163.008,184.714,162,195,162z"/>
	</g>
</g>
<g>
</g>
<g>
</g>
<g>
</g>
<g>
</g>
<g>
</g>
<g>
</g>
<g>
</g>
<g>
</g>
<g>
</g>
<g>
</g>
<g>
</g>
<g>
</g>
<g>
</g>
<g>
</g>
<g>
</g>
</svg>
