<?xml version="1.0" encoding="iso-8859-1"?>
<!-- Generator: Adobe Illustrator 19.0.0, SVG Export Plug-In . SVG Version: 6.00 Build 0)  -->
<svg version="1.1" id="Capa_1" xmlns="http://www.w3.org/2000/svg" xmlns:xlink="http://www.w3.org/1999/xlink" x="0px" y="0px"
	 viewBox="0 0 512 512" style="enable-background:new 0 0 512 512;" xml:space="preserve">
<g>
	<g>
		<path d="M291.142,277.426c7.811,7.811,20.475,7.811,28.285,0l175-175c23.394-23.394,23.394-61.458,0-84.853
			C483.094,6.241,468.026,0,452,0s-31.094,6.241-42.427,17.574L190,237.147V192c0-11.046-8.954-20-20-20s-20,8.954-20,20v74.79
			c-0.204,9.37-1.441,17.403-3.743,24.183l-28.031-28.031l-40.915-41.913c-7.716-7.905-20.379-8.056-28.282-0.341
			c-7.904,7.716-8.057,20.378-0.341,28.282l41,42c0.056,0.058,0.112,0.115,0.169,0.171l27.15,27.15
			C108.679,320.809,98.653,322.05,87,322H20c-11.046,0-20,8.954-20,20c0,11.046,8.954,20,20,20h66.906
			c0.299,0.001,0.585,0.002,0.883,0.002c0.815,0,1.625-0.006,2.431-0.016c0.258,0.01,0.518,0.015,0.778,0.015
			c0.188,0.001,0.364-0.001,0.546-0.001c9.893,0,18.556,1.199,25.938,3.581l-68.69,69.344c-7.773,7.847-7.714,20.51,0.134,28.284
			C52.826,467.072,57.913,469,63,469c5.15,0,10.3-1.978,14.21-5.925l68.936-69.593C148.708,400.962,150,409.82,150,420v72
			c0,11.046,8.954,20,20,20s20-8.954,20-20v-72.076c-0.037-9.656,1.069-18.118,3.301-25.338l29.557,29.556
			c0.061,0.06,0.12,0.119,0.181,0.178l40,39c3.889,3.792,8.926,5.68,13.96,5.68c5.203,0,10.403-2.019,14.322-6.038
			c7.711-7.909,7.551-20.571-0.358-28.282l-39.907-38.91l-29.935-29.935c7.547-2.55,16.526-3.835,26.88-3.835h0.021
			c0.146,0,0.292,0.001,0.438,0.001c0.204,0,0.411,0,0.616-0.001H320c11.046,0,20-8.954,20-20c0-11.046-8.954-20-20-20h-71.8
			c-19.353-0.042-33.845-4.725-43.082-13.927c-4.818-4.8-8.414-11.053-10.771-18.704L248.716,235L291.142,277.426z M437.858,45.858
			C441.636,42.081,446.658,40,452,40c5.342,0,10.364,2.081,14.142,5.858c7.799,7.798,7.799,20.486,0,28.284L305.284,235L277,206.716
			L437.858,45.858z"/>
	</g>
</g>
<g>
	<g>
		<path d="M131,67h-20V47c0-11.046-8.954-20-20-20s-20,8.954-20,20v20H51c-11.046,0-20,8.954-20,20s8.954,20,20,20h20v20
			c0,11.046,8.954,20,20,20s20-8.954,20-20v-20h20c11.046,0,20-8.954,20-20S142.046,67,131,67z"/>
	</g>
</g>
<g>
	<g>
		<path d="M492,422h-30v-30c0-11.046-8.954-20-20-20c-11.046,0-20,8.954-20,20v30h-30c-11.046,0-20,8.954-20,20
			c0,11.046,8.954,20,20,20h30v30c0,11.046,8.954,20,20,20c11.046,0,20-8.954,20-20v-30h30c11.046,0,20-8.954,20-20
			C512,430.954,503.046,422,492,422z"/>
	</g>
</g>
<g>
</g>
<g>
</g>
<g>
</g>
<g>
</g>
<g>
</g>
<g>
</g>
<g>
</g>
<g>
</g>
<g>
</g>
<g>
</g>
<g>
</g>
<g>
</g>
<g>
</g>
<g>
</g>
<g>
</g>
</svg>
