<?xml version="1.0" encoding="iso-8859-1"?>
<!-- Generator: Adobe Illustrator 19.0.0, SVG Export Plug-In . SVG Version: 6.00 Build 0)  -->
<svg version="1.1" id="Capa_1" xmlns="http://www.w3.org/2000/svg" xmlns:xlink="http://www.w3.org/1999/xlink" x="0px" y="0px"
	 viewBox="0 0 512 512" style="enable-background:new 0 0 512 512;" xml:space="preserve">
<g>
	<g>
		<path d="M492,204c11.046,0,20-8.954,20-20V80c0-44.112-35.888-80-80-80H201c-21.925,0-43.101,9.132-58.158,25.066L30.406,137.269
			C11.895,151.934,0,174.604,0,200v232c0,44.112,35.888,80,80,80h231c22.746,0,43.305-9.542,57.885-24.833
			c0.107-0.102,0.214-0.205,0.319-0.309l119.423-118.349l0.104-0.104C503.736,353.314,512,333.283,512,312v-27
			c0-11.046-8.954-20-20-20c-11.046,0-20,8.954-20,20v27c0,10.619-4.113,20.613-11.585,28.153L391,408.943V200
			c0-17.634-5.735-33.953-15.438-47.191l91.727-91.628C470.294,66.793,472,73.201,472,80v104C472,195.046,480.954,204,492,204z
			 M351,352c-11.046,0-20,8.954-20,20c0,11.046,8.954,20,20,20v40c0,22.056-17.944,40-40,40H80c-22.056,0-40-17.944-40-40V200
			c0-22.056,17.944-40,40-40h41.099c-0.065,0.658-0.099,1.325-0.099,2c0,11.046,8.954,20,20,20s20-8.954,20-20
			c0-0.675-0.034-1.342-0.099-2H311c22.056,0,40,17.944,40,40V352z M344.461,127.338C334.275,122.629,322.939,120,311,120H104.338
			l66.982-66.843l0.473-0.487C179.442,44.5,189.814,40,201,40h230.893L344.461,127.338z"/>
	</g>
</g>
<g>
	<g>
		<circle cx="141" cy="372" r="20"/>
	</g>
</g>
<g>
	<g>
		<circle cx="211" cy="372" r="20"/>
	</g>
</g>
<g>
	<g>
		<circle cx="281" cy="372" r="20"/>
	</g>
</g>
<g>
	<g>
		<circle cx="141" cy="302" r="20"/>
	</g>
</g>
<g>
	<g>
		<circle cx="141" cy="232" r="20"/>
	</g>
</g>
<g>
	<g>
		<circle cx="92" cy="421" r="20"/>
	</g>
</g>
<g>
</g>
<g>
</g>
<g>
</g>
<g>
</g>
<g>
</g>
<g>
</g>
<g>
</g>
<g>
</g>
<g>
</g>
<g>
</g>
<g>
</g>
<g>
</g>
<g>
</g>
<g>
</g>
<g>
</g>
</svg>
