<?xml version="1.0" encoding="iso-8859-1"?>
<!-- Generator: Adobe Illustrator 19.0.0, SVG Export Plug-In . SVG Version: 6.00 Build 0)  -->
<svg version="1.1" id="Capa_1" xmlns="http://www.w3.org/2000/svg" xmlns:xlink="http://www.w3.org/1999/xlink" x="0px" y="0px"
	 viewBox="0 0 512 512" style="enable-background:new 0 0 512 512;" xml:space="preserve">
<g>
	<g>
		<path d="M361.2,79.916l-61.653-62.162C288.191,6.305,273.081,0,257,0s-31.191,6.305-42.547,17.754L152.8,79.916
			c-7.778,7.842-7.727,20.506,0.116,28.284c7.844,7.779,20.507,7.726,28.284-0.116L236,52.832V165c0,11.046,8.954,20,20,20
			s20-8.954,20-20V50.816l56.8,57.268c3.911,3.943,9.054,5.917,14.201,5.916c5.09,0,10.184-1.932,14.083-5.8
			C368.927,100.422,368.979,87.758,361.2,79.916z"/>
	</g>
</g>
<g>
	<g>
		<path d="M361.084,403.8c-7.843-7.778-20.506-7.726-28.284,0.116L276,461.184V345c0-11.046-8.954-20-20-20
			c-11.046,0-20,8.954-20,20v114.168l-54.8-55.252c-7.778-7.841-20.441-7.895-28.284-0.116c-7.843,7.778-7.895,20.442-0.116,28.284
			l61.653,62.162C225.809,505.695,240.919,512,257,512s31.191-6.305,42.547-17.754l61.653-62.162
			C368.978,424.242,368.927,411.578,361.084,403.8z"/>
	</g>
</g>
<g>
	<g>
		<path d="M165,237H50.815l57.269-56.8c7.843-7.778,7.895-20.441,0.116-28.284c-7.775-7.841-20.44-7.895-28.284-0.116
			l-62.162,61.654C6.305,224.809,0,239.919,0,256s6.305,31.191,17.754,42.547L79.916,360.2c3.9,3.868,8.992,5.8,14.083,5.8
			c5.146,0,10.291-1.974,14.201-5.916c7.778-7.843,7.727-20.506-0.116-28.284L52.832,277H165c11.046,0,20-8.954,20-20
			C185,245.954,176.046,237,165,237z"/>
	</g>
</g>
<g>
	<g>
		<path d="M494.246,213.453L432.084,151.8c-7.844-7.778-20.506-7.726-28.284,0.116c-7.778,7.843-7.727,20.506,0.116,28.284
			l57.269,56.8H345c-11.046,0-20,8.954-20,20s8.954,20,20,20h114.168l-55.252,54.8c-7.843,7.778-7.895,20.441-0.116,28.284
			c3.91,3.943,9.054,5.916,14.201,5.916c5.09,0,10.184-1.932,14.083-5.8l62.162-61.654C505.695,287.191,512,272.081,512,256
			S505.695,224.809,494.246,213.453z"/>
	</g>
</g>
<g>
</g>
<g>
</g>
<g>
</g>
<g>
</g>
<g>
</g>
<g>
</g>
<g>
</g>
<g>
</g>
<g>
</g>
<g>
</g>
<g>
</g>
<g>
</g>
<g>
</g>
<g>
</g>
<g>
</g>
</svg>
