<?xml version="1.0" encoding="iso-8859-1"?>
<!-- Generator: Adobe Illustrator 19.0.0, SVG Export Plug-In . SVG Version: 6.00 Build 0)  -->
<svg version="1.1" id="Capa_1" xmlns="http://www.w3.org/2000/svg" xmlns:xlink="http://www.w3.org/1999/xlink" x="0px" y="0px"
	 viewBox="0 0 512 512" style="enable-background:new 0 0 512 512;" xml:space="preserve">
<g>
	<g>
		<path d="M452,75h-20v-5c0-38.598-31.402-70-70-70H70C31.402,0,0,31.402,0,70v50c0,38.598,31.402,70,70,70h192
			c11.046,0,20-8.954,20-20s-8.954-20-20-20H70c-16.542,0-30-13.458-30-30V70c0-16.542,13.458-30,30-30h292
			c16.542,0,30,13.458,30,30v50c0,16.542-13.458,30-30,30c-11.046,0-20,8.954-20,20s8.954,20,20,20c38.598,0,70-31.402,70-70v-5h20
			c11.028,0,20,8.972,20,20v75c0,11.028-8.972,20-20,20H286c-44.112,0-80,35.888-80,80v10.208l-20.024,0.024
			c-11.036,0.013-19.976,8.964-19.976,20V452c0,33.084,26.916,60,60,60s60-26.916,60-60V340.135c0-5.309-2.11-10.399-5.866-14.151
			c-3.751-3.746-8.834-5.849-14.134-5.849h-0.024L246,320.159V310c0-22.056,17.944-40,40-40h166c33.084,0,60-26.916,60-60v-75
			C512,101.916,485.084,75,452,75z M246,452c0,11.028-8.972,20-20,20s-20-8.972-20-20v-91.792l40-0.048V452z"/>
	</g>
</g>
<g>
</g>
<g>
</g>
<g>
</g>
<g>
</g>
<g>
</g>
<g>
</g>
<g>
</g>
<g>
</g>
<g>
</g>
<g>
</g>
<g>
</g>
<g>
</g>
<g>
</g>
<g>
</g>
<g>
</g>
</svg>
