<?xml version="1.0" encoding="iso-8859-1"?>
<!-- Generator: Adobe Illustrator 19.0.0, SVG Export Plug-In . SVG Version: 6.00 Build 0)  -->
<svg version="1.1" id="Capa_1" xmlns="http://www.w3.org/2000/svg" xmlns:xlink="http://www.w3.org/1999/xlink" x="0px" y="0px"
	 viewBox="0 0 512 512" style="enable-background:new 0 0 512 512;" xml:space="preserve">
<g>
	<g>
		<circle fill="white" cx="492" cy="256" r="20"/>
	</g>
</g>
<g>
	<g>
		<circle fill="white" cx="414" cy="256" r="20"/>
	</g>
</g>
<g>
	<g>
		<circle fill="white" cx="335" cy="256" r="20"/>
	</g>
</g>
<g>
	<g>
		<circle fill="white" cx="257" cy="256" r="20"/>
	</g>
</g>
<g>
	<g>
		<circle fill="white" cx="178" cy="256" r="20"/>
	</g>
</g>
<g>
	<g>
		<circle fill="white" cx="99" cy="256" r="20"/>
	</g>
</g>
<g>
	<g>
		<circle fill="white" cx="20" cy="256" r="20"/>
	</g>
</g>
<g>
	<g>
		<path fill="white" d="M406.24,28.772C398.993,11.293,382.075,0,363.143,0H146.556c-18.948,0-35.871,11.307-43.112,28.805
			c-7.234,17.48-3.257,37.416,10.133,50.789l98.97,98.841c11.702,11.688,27.069,17.532,42.445,17.532
			c15.379,0,30.767-5.851,42.483-17.553l98.696-98.871C409.529,66.161,413.483,46.232,406.24,28.772z M367.862,51.283
			l-98.675,98.849c-7.823,7.814-20.553,7.814-28.376,0L141.84,51.29c-2.58-2.578-2.205-5.333-1.437-7.19
			c0.634-1.531,2.275-4.1,6.152-4.1h216.587c3.874,0,5.517,2.566,6.15,4.095C370.062,45.95,370.438,48.703,367.862,51.283z"/>
	</g>
</g>
<g>
	<g>
		<path fill="white" d="M396.173,432.458l-98.719-98.894c-23.41-23.379-61.499-23.379-84.907,0l-98.971,98.842
			c-13.39,13.373-17.367,33.308-10.133,50.789C110.685,500.693,127.607,512,146.556,512h216.587
			c18.933,0,35.851-11.293,43.099-28.771C413.484,465.768,409.531,445.839,396.173,432.458z M146.555,472
			c-3.876,0-5.518-2.569-6.152-4.1c-0.769-1.857-1.144-4.612,1.438-7.19l98.972-98.843c3.914-3.909,9.056-5.862,14.194-5.862
			c5.132,0,10.261,1.948,14.159,5.841l9.983,10.001L178.88,472H146.555z M287.027,472h-51.546l71.928-71.845l25.756,25.802
			L287.027,472z M369.293,467.905c-0.634,1.529-2.276,4.095-6.15,4.095h-19.489l17.771-17.734l6.439,6.45
			C370.438,463.297,370.063,466.05,369.293,467.905z"/>
	</g>
</g>
<g>
</g>
<g>
</g>
<g>
</g>
<g>
</g>
<g>
</g>
<g>
</g>
<g>
</g>
<g>
</g>
<g>
</g>
<g>
</g>
<g>
</g>
<g>
</g>
<g>
</g>
<g>
</g>
<g>
</g>
</svg>
