<?xml version="1.0" encoding="iso-8859-1"?>
<!-- Generator: Adobe Illustrator 19.0.0, SVG Export Plug-In . SVG Version: 6.00 Build 0)  -->
<svg version="1.1" id="Capa_1" xmlns="http://www.w3.org/2000/svg" xmlns:xlink="http://www.w3.org/1999/xlink" x="0px" y="0px"
	 viewBox="0 0 512 512" style="enable-background:new 0 0 512 512;" xml:space="preserve">
<g>
	<g>
		<circle fill="white" cx="256" cy="20" r="20"/>
	</g>
</g>
<g>
	<g>
		<circle fill="white" cx="256" cy="98" r="20"/>
	</g>
</g>
<g>
	<g>
		<circle fill="white" cx="256" cy="177" r="20"/>
	</g>
</g>
<g>
	<g>
		<circle fill="white" cx="256" cy="255" r="20"/>
	</g>
</g>
<g>
	<g>
		<circle fill="white" cx="256" cy="334" r="20"/>
	</g>
</g>
<g>
	<g>
		<circle fill="white" cx="256" cy="413" r="20"/>
	</g>
</g>
<g>
	<g>
		<circle fill="white" cx="256" cy="492" r="20"/>
	</g>
</g>
<g>
	<g>
		<path  fill="white" d="M178.414,215.374l-98.871-98.698c-13.383-13.358-33.312-17.311-50.772-10.068C11.293,113.856,0,130.774,0,149.707v216.586
			c0,18.949,11.306,35.871,28.804,43.113c5.794,2.398,11.856,3.564,17.862,3.564c12.112,0,23.987-4.746,32.927-13.697l98.842-98.97
			C201.814,276.894,201.814,238.804,178.414,215.374z M150.133,272.037l-98.842,98.97c-2.579,2.582-5.334,2.207-7.191,1.439
			c-1.531-0.634-4.1-2.276-4.1-6.153V149.707c0-3.874,2.566-5.517,4.095-6.151c0.771-0.32,1.698-0.572,2.703-0.572
			c1.412,0,2.978,0.498,4.485,2.002l98.85,98.675C157.946,251.484,157.946,264.213,150.133,272.037z"/>
	</g>
</g>
<g>
	<g>
		<path  fill="white" d="M483.196,106.594c-17.481-7.234-37.417-3.256-50.789,10.133l-98.842,98.97c-23.379,23.409-23.379,61.499,0.021,84.929
			l98.871,98.698c8.936,8.919,20.79,13.645,32.879,13.645c6.016,0,12.091-1.17,17.893-3.577
			C500.707,402.144,512,385.226,512,366.293V149.707C512,130.758,500.694,113.836,483.196,106.594z M472,366.293
			c0,3.874-2.566,5.517-4.095,6.151c-1.855,0.769-4.609,1.146-7.188-1.43l-6.45-6.439L472,346.805V366.293z M472,290.178
			l-46.042,46.139l-25.802-25.757L472,238.633V290.178z M472,182.031l-100.153,100.27l-9.98-9.962
			c-7.813-7.823-7.813-20.552,0-28.376l98.842-98.97c2.579-2.582,5.334-2.207,7.191-1.439c1.531,0.634,4.1,2.276,4.1,6.153V182.031z
			"/>
	</g>
</g>
<g>
</g>
<g>
</g>
<g>
</g>
<g>
</g>
<g>
</g>
<g>
</g>
<g>
</g>
<g>
</g>
<g>
</g>
<g>
</g>
<g>
</g>
<g>
</g>
<g>
</g>
<g>
</g>
<g>
</g>
</svg>
