<?xml version="1.0" encoding="iso-8859-1"?>
<!-- Generator: Adobe Illustrator 19.0.0, SVG Export Plug-In . SVG Version: 6.00 Build 0)  -->
<svg version="1.1" id="Capa_1" xmlns="http://www.w3.org/2000/svg" xmlns:xlink="http://www.w3.org/1999/xlink" x="0px" y="0px"
	 viewBox="0 0 512 512" style="enable-background:new 0 0 512 512;" xml:space="preserve">
<g>
	<g>
		<path d="M452,392c-9.252,0-18.021,2.105-25.855,5.861L316,287.716v-71.793c0-11.046-8.954-20-20-20h-71.793L114.139,85.855
			C117.895,78.021,120,69.252,120,60c0-33.084-26.916-60-60-60S0,26.916,0,60s26.916,60,60,60c9.252,0,18.021-2.105,25.855-5.861
			L196,224.284v11.741c-0.331-0.016-0.665-0.025-1-0.025c-66.83,0-120.801,34.384-156.081,99.434C10.224,388.343,0,451.002,0,492
			c0,11.046,8.954,20,20,20s20-8.954,20-20c0-36.091,8.953-91.165,34.081-137.496C102.332,302.413,143.015,276,195,276
			c0.335,0,0.669-0.008,1-0.025v19.948c0,11.046,8.954,20,20,20h71.639l110.223,110.223C394.105,433.979,392,442.748,392,452
			c0,33.084,26.916,60,60,60s60-26.916,60-60S485.084,392,452,392z M60,80c-11.028,0-20-8.972-20-20s8.972-20,20-20s20,8.972,20,20
			S71.028,80,60,80z M276,275.923h-40v-40h40V275.923z M452,472c-11.028,0-20-8.972-20-20s8.972-20,20-20s20,8.972,20,20
			S463.028,472,452,472z"/>
	</g>
</g>
<g>
	<g>
		<path d="M492,0c-11.046,0-20,8.954-20,20c0,61.175-25.382,165.532-95.308,202.298c-9.776,5.14-13.535,17.233-8.395,27.01
			c3.58,6.807,10.528,10.696,17.72,10.696c3.137,0,6.321-0.74,9.291-2.302c39.803-20.928,71.809-59.976,92.555-112.924
			C502.977,106.203,512,59.558,512,20C512,8.954,503.046,0,492,0z"/>
	</g>
</g>
<g>
</g>
<g>
</g>
<g>
</g>
<g>
</g>
<g>
</g>
<g>
</g>
<g>
</g>
<g>
</g>
<g>
</g>
<g>
</g>
<g>
</g>
<g>
</g>
<g>
</g>
<g>
</g>
<g>
</g>
</svg>
