<?xml version="1.0" encoding="UTF-8" standalone="no"?>
<svg
   version="1.1"
   id="svg824"
   xml:space="preserve"
   width="942.91302"
   height="767.8999"
   viewBox="0 0 942.91306 767.89993"
   sodipodi:docname="ares.svg"
   inkscape:version="1.1-dev (9017afb, 2021-01-01)"
   xmlns:inkscape="http://www.inkscape.org/namespaces/inkscape"
   xmlns:sodipodi="http://sodipodi.sourceforge.net/DTD/sodipodi-0.dtd"
   xmlns="http://www.w3.org/2000/svg"
   xmlns:svg="http://www.w3.org/2000/svg"><defs
     id="defs828"><clipPath
       clipPathUnits="userSpaceOnUse"
       id="clipPath840"><path
         d="M 0,1000 H 1000 V 0 H 0 Z"
         id="path838" /></clipPath></defs><sodipodi:namedview
     id="namedview826"
     pagecolor="#ffffff"
     bordercolor="#111111"
     borderopacity="1"
     objecttolerance="10.0"
     gridtolerance="10.0"
     guidetolerance="10.0"
     inkscape:pageshadow="0"
     inkscape:pageopacity="0"
     inkscape:pagecheckerboard="1"
     showgrid="false"
     inkscape:zoom="0.34185759"
     inkscape:cx="272.0431"
     inkscape:cy="305.68284"
     inkscape:window-width="1680"
     inkscape:window-height="997"
     inkscape:window-x="0"
     inkscape:window-y="25"
     inkscape:window-maximized="1"
     inkscape:current-layer="g836" /><g
     id="g830"
     inkscape:groupmode="layer"
     inkscape:label="Version officielle"
     transform="matrix(1.3333333,0,0,-1.3333333,-216.72519,1278.6668)"><g
       id="g834"><g
         id="g836"
         clip-path="url(#clipPath840)"><g
           id="g842"
           transform="translate(162.5439,382.1787)"><path
             d="M 0,0.90682354 211.624,419.365 c 0,0 13.59,25.24 29.123,-13.59 18.581,-37.491 37.163,-74.982 55.744,-112.473 0.856,-1.535 2.02,-3.931 2.807,-7.017 1.681,-6.581 0.279,-10.923 0,-16.843 -0.098,-2.089 -0.341,-10.438 2.807,-18.246 4.677,-11.598 14.909,-17.224 16.843,-18.247 12.969,-6.853 25.406,-3.577 28.072,-2.807 4.363,1.261 14.428,5.022 21.053,15.44 7.681,12.078 5.415,24.737 4.21,29.474 -3.369,13.249 -12.665,20.461 -15.438,22.457 -1.699,0.744 -4.286,2.046 -7.019,4.211 0,0 -4.08,3.233 -7.15,7.946 -4.02,6.169 -41.226,80.514 -91.251,182.502 0,0 -5.825,5.824 9.707,29.122 l 5.32416,8.70633 c 0,0 11.98289,16.88566 23.79884,-4.82333 l 155.32,-314.524 c 0,0 11.65,-21.356 -17.473,-21.356 H 216.478 c -1.992,0.578 -5.214,1.87 -6.956,4.862 -1.144,1.966 -1.732,4.811 1.131,14.553 1.768,6.014 3.688,10.695 5.819,15.559 4.392,10.023 6.588,15.036 8.438,17.1 5.407,6.033 8.341,4.168 16.842,11.228 2.96,2.458 8,6.738 11.229,14.036 3.25,7.345 2.967,13.91 2.807,16.843 -0.163,3.001 -0.663,10.471 -5.614,18.246 -0.967,1.518 -6.206,9.491 -16.843,14.035 -9.474,4.048 -17.808,3.059 -19.65,2.807 -15.465,-2.109 -23.971,-13.627 -25.264,-15.439 -0.882,-1.237 -8.334,-11.991 -7.018,-25.264 0.555,-5.586 2.261,-7.574 2.073,-13.333 -0.236,-7.246 -3.231,-13.091 -5.825,-16.988 L 55.333,0.971 Z"
             style="fill:#00d989;fill-opacity:1;fill-rule:nonzero;stroke:none"
             id="path844"
             sodipodi:nodetypes="cccccccccccccccccccsccccccccccccccccc" /></g><g
           id="g846"
           transform="translate(268.356,381.208)"><path
             d="M -0.46679092,1.8671637 54.633028,2.0629271 99.017,89.31 c 0,0 3.882,5.824 7.766,5.824 h 124.256 c 0,0 9.708,-1.942 11.649,-9.707 L 285.401,1.941 h 52.421 l -11.65,27.182 c -1.185,1.555 -3.042,3.829 -5.582,6.31 -5.593,5.464 -9.302,6.855 -13.416,10.41 -6.212,5.369 -8.941,11.869 -9.824,14.036 -3.935,9.659 -4.096,22.847 2.807,33.685 4.856,7.626 11.377,11.211 14.036,12.632 3.015,1.612 12.157,6.324 23.86,4.211 7.987,-1.442 13.257,-5.358 15.44,-7.018 2.336,-1.778 11.246,-8.983 14.035,-21.053 0.406,-1.761 2.694,-11.662 0,-19.65 -0.419,-1.242 -1.812,-4.968 -1.403,-9.825 0,-10e-4 0.18,-2.149 0.819,-4.323 3.507,-11.922 23.98162,-46.5453546 23.98162,-46.5453546 L 446.545,1.941 c -22.595,44.578 -44.29189,87.128761 -66.88889,131.70476 -2.31754,4.04229 -6.19511,5.91224 -10.72511,7.63924 -7.39,2.818 -13.813,2.454 -15.577,2.386 -10.661,-0.408 -118.044,-0.246 -273.752,0 0,0 -8.386115,-0.22503 -13.591,-11.649 z"
             style="fill:#00d989;fill-opacity:1;fill-rule:nonzero;stroke:none"
             id="path848"
             sodipodi:nodetypes="cccsccccccccccsccssccccccccc" /></g><g
           id="g850"
           transform="translate(504.3867,896.8501)"><path
             d="M 0,0.23548601 C 5.111,20.820486 10.223,41.406486 15.335,61.992486 c 22.36,0.131 44.722,0.02651 67.083,0.157514 3.214,-22.701 6.428,-45.401 9.642,-68.102 7.329,-1.509 15.469,-3.597 24.173,-6.509 8.046,-2.693 15.271,-5.655 21.636,-8.608 16.501,18.783 33.001,37.568 49.502,56.351 l 52.173,-40.716 c -8.355,-21.987 -16.71,-43.974 -25.065,-65.962 4.249,-3.39 8.772,-7.375 13.358,-12.03 6.975,-7.078 12.478,-14.066 16.78,-20.308 25.382,5.524 50.764,11.047 76.146,16.572 l 20.295,-57.116 c -16.948,-15.221 -33.896,-30.44 -50.844,-45.66 2.647,-7.535 5.22,-16.06 7.398,-25.498 1.796,-7.781 3.409,-16.539 4.529,-26.16 21.067,-4.454 42.133,-8.908 63.201,-13.362 l -2.685,-62.115 -65.033,-16.251 c -1.909,-9.357 -4.504,-19.636 -8.055,-30.576 -2.942,-9.065 -6.142,-17.355 -9.38,-24.838 16.312,-13.253 32.623,-26.506 48.934,-39.759 -12.507,-19.287 -25.015,-38.573 -37.521,-57.86 l -64.609,20.347 C 151.329,-310.674 75.664,-155.10151 0,0.23548601"
             style="fill:#00d989;fill-opacity:1;fill-rule:nonzero;stroke:none"
             id="path852"
             sodipodi:nodetypes="ccccccccccccccccccccccccc" /></g></g></g></g></svg>
