<?xml version="1.0" encoding="iso-8859-1"?>
<!-- Generator: Adobe Illustrator 19.0.0, SVG Export Plug-In . SVG Version: 6.00 Build 0)  -->
<svg version="1.1" id="Capa_1" xmlns="http://www.w3.org/2000/svg" xmlns:xlink="http://www.w3.org/1999/xlink" x="0px" y="0px"
	 viewBox="0 0 512 512" style="enable-background:new 0 0 512 512;" xml:space="preserve">
<g>
	<g>
		<path d="M436.667,74.834C388.732,26.9,325.106,0.357,257.371,0.004C257.248,0.001,257.123,0,256.998,0
			c-0.065,0-0.13,0-0.194,0.001C256.536,0,256.269,0,256,0C187.753,0,123.592,26.577,75.333,74.834
			C27.076,123.093,0.499,187.254,0.499,255.501s26.577,132.408,74.834,180.667c46.978,46.978,109.029,73.41,175.247,74.778
			c2.015,0.684,4.173,1.054,6.418,1.054c2.305,0,4.519-0.391,6.579-1.11c44.075-1.299,87.011-13.925,124.627-36.709
			c9.429-5.712,12.443-17.986,6.731-27.414c-5.713-9.431-17.986-12.444-27.415-6.732c-20.622,12.491-43.147,21.36-66.606,26.338
			l165.87-165.869c-5.697,26.404-16.404,51.681-31.759,74.648c-6.128,9.165-3.665,21.561,5.499,27.688
			c9.167,6.129,21.562,3.665,27.688-5.5c28.321-42.358,43.289-91.406,43.289-141.838
			C511.501,187.254,484.924,123.093,436.667,74.834z M237.037,470.254C127.014,460.62,40.421,367.982,40.421,255.501
			S127.014,50.382,237.037,40.748V470.254z M276.959,40.933c14.968,1.451,29.492,4.438,43.414,8.804l-43.414,43.408V40.933z
			 M276.959,149.601l82.953-82.942c12.014,6.637,23.33,14.387,33.81,23.111L276.959,206.533V149.601z M276.959,262.258
			c1.271-0.791,2.472-1.739,3.576-2.842l141.396-141.396c8.86,10.674,16.711,22.214,23.406,34.472L276.959,320.868V262.258z
			 M276.959,433.868v-56.541l185.136-185.136c4.688,15.229,7.73,31.173,8.919,47.622L276.959,433.868z"/>
	</g>
</g>
<g>
</g>
<g>
</g>
<g>
</g>
<g>
</g>
<g>
</g>
<g>
</g>
<g>
</g>
<g>
</g>
<g>
</g>
<g>
</g>
<g>
</g>
<g>
</g>
<g>
</g>
<g>
</g>
<g>
</g>
</svg>
