<?xml version="1.0" encoding="iso-8859-1"?>
<!-- Generator: Adobe Illustrator 19.0.0, SVG Export Plug-In . SVG Version: 6.00 Build 0)  -->
<svg version="1.1" id="Capa_1" xmlns="http://www.w3.org/2000/svg" xmlns:xlink="http://www.w3.org/1999/xlink" x="0px" y="0px"
	 viewBox="0 0 512 512" style="enable-background:new 0 0 512 512;" xml:space="preserve">
<g>
	<g>
		<path d="M256,0c-11.046,0-20,8.954-20,20v56c0,11.046,8.954,20,20,20s20-8.954,20-20V20C276,8.954,267.046,0,256,0z"/>
	</g>
</g>
<g>
	<g>
		<path d="M76,236H20c-11.046,0-20,8.954-20,20c0,11.046,8.954,20,20,20h56c11.046,0,20-8.954,20-20S87.046,236,76,236z"/>
	</g>
</g>
<g>
	<g>
		<path d="M256,416c-11.046,0-20,8.954-20,20v56c0,11.046,8.954,20,20,20s20-8.954,20-20v-56C276,424.954,267.046,416,256,416z"/>
	</g>
</g>
<g>
	<g>
		<path d="M492,236h-56c-11.046,0-20,8.954-20,20c0,11.046,8.954,20,20,20h56c11.046,0,20-8.954,20-20S503.046,236,492,236z"/>
	</g>
</g>
<g>
	<g>
		<path d="M437.018,74.981c-7.81-7.811-20.473-7.811-28.284,0l-39.598,39.598c-7.811,7.81-7.81,20.473,0.001,28.284
			c3.906,3.905,9.024,5.858,14.142,5.858c5.118,0,10.238-1.953,14.142-5.858l39.598-39.598
			C444.83,95.455,444.829,82.791,437.018,74.981z"/>
	</g>
</g>
<g>
	<g>
		<path d="M142.863,114.579l-39.598-39.598c-7.811-7.81-20.474-7.81-28.284,0c-7.811,7.81-7.812,20.473-0.001,28.284l39.598,39.598
			c3.907,3.906,9.024,5.858,14.143,5.858c5.118,0,10.237-1.953,14.141-5.858C150.673,135.053,150.674,122.39,142.863,114.579z"/>
	</g>
</g>
<g>
	<g>
		<path d="M142.862,369.137c-7.81-7.811-20.473-7.811-28.284,0L74.98,408.735c-7.811,7.81-7.81,20.474,0.001,28.284
			c3.906,3.905,9.024,5.858,14.142,5.858c5.118,0,10.237-1.952,14.142-5.858l39.598-39.598
			C150.674,389.611,150.672,376.948,142.862,369.137z"/>
	</g>
</g>
<g>
	<g>
		<path d="M437.019,408.735l-39.598-39.598c-7.81-7.811-20.473-7.81-28.284,0c-7.811,7.81-7.812,20.473-0.001,28.284l39.598,39.598
			c3.907,3.906,9.024,5.858,14.143,5.858c5.118,0,10.237-1.953,14.141-5.858C444.829,429.209,444.83,416.546,437.019,408.735z"/>
	</g>
</g>
<g>
	<g>
		<path d="M256,136c-66.168,0-120,53.832-120,120s53.832,120,120,120c11.174,0,22.247-1.539,32.91-4.574
			c10.623-3.024,16.784-14.087,13.761-24.711c-3.024-10.624-14.085-16.785-24.712-13.761C270.858,334.975,263.471,336,256,336
			c-44.112,0-80-35.888-80-80s35.888-80,80-80s80,35.888,80,80c0,7.849-1.13,15.596-3.357,23.024
			c-3.173,10.58,2.832,21.729,13.412,24.902c10.581,3.173,21.728-2.832,24.902-13.412C374.304,279.355,376,267.743,376,256
			C376,189.832,322.168,136,256,136z"/>
	</g>
</g>
<g>
</g>
<g>
</g>
<g>
</g>
<g>
</g>
<g>
</g>
<g>
</g>
<g>
</g>
<g>
</g>
<g>
</g>
<g>
</g>
<g>
</g>
<g>
</g>
<g>
</g>
<g>
</g>
<g>
</g>
</svg>
