<?xml version="1.0" encoding="iso-8859-1"?>
<!-- Generator: Adobe Illustrator 19.0.0, SVG Export Plug-In . SVG Version: 6.00 Build 0)  -->
<svg version="1.1" id="Capa_1" xmlns="http://www.w3.org/2000/svg" xmlns:xlink="http://www.w3.org/1999/xlink" x="0px" y="0px"
	 viewBox="0 0 512 512" style="enable-background:new 0 0 512 512;" xml:space="preserve">
<g>
	<g>
		<path d="M491.54,352.312c11.024,0,19.961-8.937,19.961-19.961V202.604c0-44.026-35.818-79.844-79.844-79.844h-41.918V79.844
			C389.739,35.818,353.921,0,309.895,0H80.343C36.317,0,0.499,35.818,0.499,79.844v229.552c0,44.026,35.818,79.844,79.844,79.844
			h41.918v42.916c0,44.026,35.818,79.844,79.844,79.844h229.552c44.026,0,79.844-35.818,79.844-79.844
			c0-11.024-8.937-19.961-19.961-19.961c-11.024,0-19.961,8.937-19.961,19.961c0,22.013-17.909,39.922-39.922,39.922H202.105
			c-22.013,0-39.922-17.909-39.922-39.922V202.604c0-22.013,17.909-39.922,39.922-39.922h229.552
			c22.013,0,39.922,17.909,39.922,39.922v129.747C471.579,343.375,480.516,352.312,491.54,352.312z M40.421,79.844
			c0-22.013,17.909-39.922,39.922-39.922h28.358l-68.28,68.273V79.844z M122.261,349.318H83.482l38.779-38.779V349.318z
			 M122.261,202.604v51.474l-76.033,76.034c-3.684-6.043-5.808-13.136-5.808-20.717v-31.354l82.117-82.118
			C122.355,198.127,122.261,200.355,122.261,202.604z M40.421,221.583v-56.932L165.02,40.065c0.047-0.047,0.094-0.095,0.141-0.143
			h56.921L40.421,221.583z M253.587,122.76h-51.481c-2.25,0-4.477,0.094-6.68,0.276l78.182-78.182
			c1.49-1.49,2.695-3.157,3.615-4.932h32.672c7.58,0,14.673,2.124,20.717,5.808l-76.749,76.749
			C253.769,122.572,253.678,122.666,253.587,122.76z M349.817,122.76h-39.777l39.777-39.777V122.76z"/>
	</g>
</g>
<g>
</g>
<g>
</g>
<g>
</g>
<g>
</g>
<g>
</g>
<g>
</g>
<g>
</g>
<g>
</g>
<g>
</g>
<g>
</g>
<g>
</g>
<g>
</g>
<g>
</g>
<g>
</g>
<g>
</g>
</svg>
