<?xml version="1.0" encoding="iso-8859-1"?>
<!-- Generator: Adobe Illustrator 19.0.0, SVG Export Plug-In . SVG Version: 6.00 Build 0)  -->
<svg version="1.1" id="Capa_1" xmlns="http://www.w3.org/2000/svg" xmlns:xlink="http://www.w3.org/1999/xlink" x="0px" y="0px"
	 viewBox="0 0 512 512" style="enable-background:new 0 0 512 512;" xml:space="preserve">
<g>
	<g>
		<path d="M502.667,258.921C508.275,255.378,512,249.124,512,242v-40c0-44.112-35.888-80-80-80h-42V80c0-44.112-35.888-80-80-80H80
			C35.888,0,0,35.888,0,80v230c0,44.112,35.888,80,80,80h42v42c0,44.112,35.888,80,80,80h230c44.112,0,80-35.888,80-80v-76
			c0-11.046-8.954-20-20-20c-5.64,0-10.735,2.335-14.371,6.091c-1.23,0.778-2.393,1.702-3.466,2.774L347.158,471.857
			c-0.047,0.047-0.094,0.095-0.141,0.143h-57.033l210.508-210.508C501.301,260.683,502.025,259.823,502.667,258.921z M472,403.594
			V432c0,22.056-17.944,40-40,40h-28.413L472,403.594z M238.358,467.058c-1.493,1.493-2.7,3.163-3.622,4.942H202
			c-7.595,0-14.702-2.128-20.757-5.818L257.424,390H310c1.886,0,3.757-0.066,5.611-0.195L238.358,467.058z M162,428.856V390h38.856
			L162,428.856z M350,310c0,22.056-17.944,40-40,40H80c-22.056,0-40-17.944-40-40V80c0-22.056,17.944-40,40-40h230
			c22.056,0,40,17.944,40,40V310z M390,162h38.856L390,200.856V162z M472,233.416l-82.195,82.195
			c0.129-1.854,0.195-3.725,0.195-5.611v-52.576l76.182-76.182C469.872,187.298,472,194.405,472,202V233.416z"/>
	</g>
</g>
<g>
</g>
<g>
</g>
<g>
</g>
<g>
</g>
<g>
</g>
<g>
</g>
<g>
</g>
<g>
</g>
<g>
</g>
<g>
</g>
<g>
</g>
<g>
</g>
<g>
</g>
<g>
</g>
<g>
</g>
</svg>
