<?xml version="1.0" encoding="iso-8859-1"?>
<!-- Generator: Adobe Illustrator 19.0.0, SVG Export Plug-In . SVG Version: 6.00 Build 0)  -->
<svg version="1.1" id="Capa_1" xmlns="http://www.w3.org/2000/svg" xmlns:xlink="http://www.w3.org/1999/xlink" x="0px" y="0px"
	 viewBox="0 0 512 512" style="enable-background:new 0 0 512 512;" xml:space="preserve">
<g>
	<g>
		<path fill="white" d="M492,352c11.046,0,20-8.954,20-20V80c0-44.112-35.888-80-80-80H80C35.888,0,0,35.888,0,80v352c0,44.112,35.888,80,80,80
			h352c44.112,0,80-35.888,80-80c0-11.046-8.954-20-20-20c-11.046,0-20,8.954-20,20c0,22.056-17.944,40-40,40H196V192h276v140
			C472,343.046,480.954,352,492,352z M156,232h-56c-11.046,0-20,8.954-20,20s8.954,20,20,20h56v40h-35c-11.046,0-20,8.954-20,20
			c0,11.046,8.954,20,20,20h35v40h-56c-11.046,0-20,8.954-20,20c0,11.046,8.954,20,20,20h56v40H80c-22.056,0-40-17.944-40-40V192
			h116V232z M436,152V97c0-11.046-8.954-20-20-20c-11.046,0-20,8.954-20,20v55h-40v-35c0-11.046-8.954-20-20-20
			c-11.046,0-20,8.954-20,20v35h-40V97c0-11.046-8.954-20-20-20c-11.046,0-20,8.954-20,20v55h-40v-35c0-11.046-8.954-20-20-20
			s-20,8.954-20,20v35h-40V97c0-11.046-8.954-20-20-20s-20,8.954-20,20v55H40V80c0-22.056,17.944-40,40-40h352
			c22.056,0,40,17.944,40,40v72H436z"/>
	</g>
</g>
<g>
</g>
<g>
</g>
<g>
</g>
<g>
</g>
<g>
</g>
<g>
</g>
<g>
</g>
<g>
</g>
<g>
</g>
<g>
</g>
<g>
</g>
<g>
</g>
<g>
</g>
<g>
</g>
<g>
</g>
</svg>
