<?xml version="1.0" encoding="iso-8859-1"?>
<!-- Generator: Adobe Illustrator 19.0.0, SVG Export Plug-In . SVG Version: 6.00 Build 0)  -->
<svg version="1.1" id="Capa_1" xmlns="http://www.w3.org/2000/svg" xmlns:xlink="http://www.w3.org/1999/xlink" x="0px" y="0px"
	 viewBox="0 0 512 512" style="enable-background:new 0 0 512 512;" xml:space="preserve">
<g>
	<g>
		<path d="M492,351c11.046,0,20-8.954,20-20V156c0-31.706-25.794-57.5-57.5-57.5c-6.099,0-11.98,0.955-17.5,2.722V97
			c0-31.43-25.57-57-57-57c-6.547,0-12.841,1.11-18.701,3.151C355.096,18.391,332.655,0,306,0
			c-26.655,0-49.096,18.391-55.299,43.151C244.841,41.11,238.547,40,232,40c-31.43,0-57,25.57-57,57v208.457
			c0,10.156-6.605,24.488-17.416,25.501l-76.245-34.976c-0.601-0.275-1.215-0.521-1.84-0.736C73.231,293.092,66.671,292,60,292
			c-33.084,0-60,26.916-60,60c0,16.252,6.392,31.469,17.999,42.847c0.742,0.727,1.539,1.396,2.385,1.999l16.026,11.435
			c0.336,0.24,0.679,0.469,1.029,0.688l96.536,60.231c44.877,28,96.558,42.8,149.455,42.8H400.5
			c47.684,0,90.051-30.214,105.425-75.185c3.573-10.452-2.003-21.821-12.455-25.395c-10.453-3.573-21.821,2.003-25.395,12.455
			C458.235,452.661,431.079,472,400.5,472H283.43c-45.403,0-89.762-12.704-128.282-36.737L59.139,375.36l-14.037-10.015
			C41.802,361.673,40,356.982,40,352c0-11.028,8.972-20,20-20c1.959,0,3.879,0.277,5.72,0.825l76.258,34.981
			c0.461,0.212,0.931,0.406,1.408,0.582c5.218,1.927,10.122,2.778,15.008,2.587C193.358,369.64,215,335.926,215,305.457V97
			c0-9.374,7.626-17,17-17c9.374,0,17,7.626,17,17v137.96c0,11.046,8.954,20,20,20c11.046,0,20-8.954,20-20V97
			c0-0.323-0.003-0.646-0.008-0.969c0.005-0.191,0.008-0.382,0.008-0.575V57c0-9.374,7.626-17,17-17c9.374,0,17,7.626,17,17v166.96
			c0,11.046,8.954,20,20,20c11.046,0,20-8.954,20-20V97c0-9.374,7.626-17,17-17c9.374,0,17,7.626,17,17v137.96
			c0,11.046,8.954,20,20,20c11.046,0,20-8.954,20-20V156c0-9.649,7.851-17.5,17.5-17.5S472,146.351,472,156v175
			C472,342.046,480.954,351,492,351z"/>
	</g>
</g>
<g>
</g>
<g>
</g>
<g>
</g>
<g>
</g>
<g>
</g>
<g>
</g>
<g>
</g>
<g>
</g>
<g>
</g>
<g>
</g>
<g>
</g>
<g>
</g>
<g>
</g>
<g>
</g>
<g>
</g>
</svg>
