<?xml version="1.0" encoding="iso-8859-1"?>
<!-- Generator: Adobe Illustrator 19.0.0, SVG Export Plug-In . SVG Version: 6.00 Build 0)  -->
<svg version="1.1" id="Capa_1" xmlns="http://www.w3.org/2000/svg" xmlns:xlink="http://www.w3.org/1999/xlink" x="0px" y="0px"
	 viewBox="0 0 512 512" style="enable-background:new 0 0 512 512;" xml:space="preserve">
<g>
	<g>
		<path d="M490.625,0H21.375C10.393,0,1.491,8.902,1.491,19.883c0,10.982,8.902,19.883,19.883,19.883h469.25
			c10.982,0,19.883-8.902,19.883-19.883C510.509,8.902,501.607,0,490.625,0z"/>
	</g>
</g>
<g>
	<g>
		<path d="M448.87,361.88c10.982,0,19.883-8.902,19.883-19.884V150.12c0-38.373-31.219-69.592-69.592-69.592h-56.668
			c-38.373,0-69.592,31.219-69.592,69.592v292.287c0,38.373,31.219,69.592,69.592,69.592h56.668
			c38.373,0,69.592-31.219,69.592-69.592c0-10.982-8.902-19.883-19.883-19.883c-10.982,0-19.884,8.902-19.884,19.883
			c0,16.446-13.38,29.825-29.825,29.825h-56.668c-16.446,0-29.825-13.38-29.825-29.825V150.12c0-16.446,13.38-29.825,29.825-29.825
			h56.668c16.446,0,29.825,13.38,29.825,29.825v191.876C428.986,352.978,437.888,361.88,448.87,361.88z"/>
	</g>
</g>
<g>
	<g>
		<path d="M165.53,80.528h-56.668c-38.373,0-69.592,31.219-69.592,69.592v113.336c0,38.373,31.219,69.592,69.592,69.592h56.668
			c38.373,0,69.592-31.219,69.592-69.592V150.12C235.122,111.747,203.903,80.528,165.53,80.528z M195.355,263.456
			c0,16.446-13.38,29.825-29.825,29.825h-56.668c-16.446,0-29.825-13.38-29.825-29.825V150.12c0-16.446,13.38-29.825,29.825-29.825
			h56.668c16.446,0,29.825,13.38,29.825,29.825V263.456z"/>
	</g>
</g>
<g>
</g>
<g>
</g>
<g>
</g>
<g>
</g>
<g>
</g>
<g>
</g>
<g>
</g>
<g>
</g>
<g>
</g>
<g>
</g>
<g>
</g>
<g>
</g>
<g>
</g>
<g>
</g>
<g>
</g>
</svg>
