<?xml version="1.0" encoding="iso-8859-1"?>
<!-- Generator: Adobe Illustrator 19.0.0, SVG Export Plug-In . SVG Version: 6.00 Build 0)  -->
<svg version="1.1" id="Capa_1" xmlns="http://www.w3.org/2000/svg" xmlns:xlink="http://www.w3.org/1999/xlink" x="0px" y="0px"
	 viewBox="0 0 512 512" style="enable-background:new 0 0 512 512;" xml:space="preserve">
<g>
	<g>
		<path d="M491.082,472.156H20.918c-11.003,0-19.922,8.919-19.922,19.922S9.915,512,20.918,512h470.163
			c11.003,0,19.922-8.919,19.922-19.922S502.085,472.156,491.082,472.156z"/>
	</g>
</g>
<g>
	<g>
		<path d="M450.241,281.899c11.003,0,19.922-8.919,19.922-19.922V69.728C470.163,31.28,438.884,0,400.436,0h-56.778
			C305.21,0,273.93,31.28,273.93,69.728v292.856c0,38.448,31.28,69.728,69.728,69.728h56.778c38.448,0,69.728-31.28,69.728-69.728
			c0-11.003-8.919-19.922-19.922-19.922c-11.003,0-19.922,8.919-19.922,19.922c0,16.478-13.406,29.883-29.883,29.883h-56.778
			c-16.478,0-29.883-13.406-29.883-29.883V69.728c0-16.478,13.406-29.883,29.883-29.883h56.778
			c16.478,0,29.883,13.406,29.883,29.883v192.249C430.319,272.98,439.238,281.899,450.241,281.899z"/>
	</g>
</g>
<g>
	<g>
		<path d="M166.35,179.3h-56.778c-38.448,0-69.728,31.28-69.728,69.728v113.556c0,38.448,31.28,69.728,69.728,69.728h56.778
			c38.448,0,69.728-31.28,69.728-69.728V249.027C236.078,210.579,204.798,179.3,166.35,179.3z M196.233,362.584
			c0,16.478-13.406,29.883-29.883,29.883h-56.778c-16.478,0-29.883-13.406-29.883-29.883V249.027
			c0-16.478,13.406-29.883,29.883-29.883h56.778c16.478,0,29.883,13.406,29.883,29.883V362.584z"/>
	</g>
</g>
<g>
</g>
<g>
</g>
<g>
</g>
<g>
</g>
<g>
</g>
<g>
</g>
<g>
</g>
<g>
</g>
<g>
</g>
<g>
</g>
<g>
</g>
<g>
</g>
<g>
</g>
<g>
</g>
<g>
</g>
</svg>
