<?xml version="1.0" encoding="iso-8859-1"?>
<!-- Generator: Adobe Illustrator 19.0.0, SVG Export Plug-In . SVG Version: 6.00 Build 0)  -->
<svg version="1.1" id="Capa_1" xmlns="http://www.w3.org/2000/svg" xmlns:xlink="http://www.w3.org/1999/xlink" x="0px" y="0px"
	 viewBox="0 0 512.001 512.001" style="enable-background:new 0 0 512.001 512.001;" xml:space="preserve">
<g>
	<g>
		<path d="M501.594,187.915c-11.73-42.476-34.492-81.489-65.825-112.823C387.345,26.669,322.96,0,254.477,0
			S121.61,26.669,73.185,75.094l-6.611,6.611V19.991C66.574,8.95,57.624,0,46.583,0S26.592,8.95,26.592,19.991v73.121
			c0.079,15.839,6.241,30.758,17.353,42.011c11.151,11.292,26.026,17.616,41.886,17.807l71.701,0.001
			c11.041,0,19.991-8.95,19.991-19.991s-8.95-19.991-19.991-19.991h-65.66l9.585-9.585c40.873-40.873,95.217-63.383,153.02-63.383
			c57.803,0,112.147,22.51,153.02,63.383c26.453,26.453,45.664,59.371,55.557,95.194c2.447,8.863,10.49,14.675,19.258,14.674
			c1.761,0,3.553-0.235,5.334-0.727C498.288,209.568,504.534,198.558,501.594,187.915z"/>
	</g>
</g>
<g>
	<g>
		<path d="M210.335,468.85c-5.929-1.291-11.876-2.854-17.673-4.645c-10.548-3.258-21.742,2.649-25.002,13.199
			c-3.26,10.549,2.65,21.742,13.198,25.002c6.88,2.125,13.935,3.979,20.97,5.512c1.434,0.312,2.863,0.462,4.272,0.462
			c9.197,0,17.477-6.388,19.513-15.743C227.963,481.848,221.123,471.198,210.335,468.85z"/>
	</g>
</g>
<g>
	<g>
		<path d="M127.759,431.233c-4.873-3.625-9.653-7.506-14.207-11.531c-8.273-7.314-20.907-6.533-28.217,1.738
			c-7.313,8.272-6.534,20.907,1.737,28.218c5.392,4.766,11.051,9.359,16.82,13.652c3.584,2.667,7.769,3.954,11.918,3.954
			c6.103,0,12.131-2.786,16.055-8.059C138.456,450.346,136.618,437.823,127.759,431.233z"/>
	</g>
</g>
<g>
	<g>
		<path d="M67.84,362.977c-2.964-5.309-5.732-10.804-8.229-16.335c-4.545-10.062-16.387-14.535-26.448-9.991
			c-10.062,4.544-14.535,16.386-9.991,26.447c2.962,6.557,6.245,13.073,9.759,19.366c3.659,6.557,10.462,10.25,17.473,10.25
			c3.298,0,6.642-0.818,9.726-2.539C69.77,384.796,73.222,372.618,67.84,362.977z"/>
	</g>
</g>
<g>
	<g>
		<path d="M41.347,276.173c-0.506-6.038-0.763-12.192-0.763-18.289c0-11.041-8.95-19.991-19.991-19.991s-19.991,8.95-19.991,19.991
			c0,7.207,0.304,14.484,0.903,21.628c0.875,10.434,9.613,18.323,19.898,18.323c0.561,0,1.125-0.023,1.693-0.071
			C34.099,296.842,42.27,287.175,41.347,276.173z"/>
	</g>
</g>
<g>
	<g>
		<path d="M411.947,436.43c-6.529-8.902-19.038-10.83-27.944-4.301c-4.903,3.595-10.017,7.022-15.196,10.183
			c-9.425,5.752-12.401,18.055-6.648,27.479c3.768,6.172,10.344,9.579,17.082,9.579c3.55,0,7.145-0.946,10.396-2.931
			c6.14-3.747,12.199-7.807,18.008-12.067C416.549,457.844,418.475,445.334,411.947,436.43z"/>
	</g>
</g>
<g>
	<g>
		<path d="M493.217,259.616c-11.012-0.995-20.72,7.102-21.72,18.098c-0.551,6.053-1.366,12.151-2.425,18.124
			c-1.926,10.871,5.326,21.246,16.197,23.173c1.18,0.209,2.353,0.31,3.511,0.31c9.513,0,17.944-6.815,19.661-16.507
			c1.254-7.079,2.221-14.305,2.874-21.476C512.316,270.342,504.212,260.617,493.217,259.616z"/>
	</g>
</g>
<g>
	<g>
		<path d="M471.646,356.782c-9.601-5.451-21.803-2.083-27.254,7.518c-2.995,5.276-6.255,10.492-9.69,15.504
			c-6.242,9.106-3.921,21.549,5.186,27.792c3.455,2.369,7.39,3.503,11.285,3.503c6.37,0,12.633-3.04,16.507-8.69
			c4.071-5.939,7.934-12.122,11.484-18.375C484.614,374.433,481.248,362.232,471.646,356.782z"/>
	</g>
</g>
<g>
	<g>
		<path d="M324.829,484.618c-2.273-10.807-12.876-17.722-23.678-15.45c-5.929,1.247-11.996,2.255-18.031,2.998
			c-10.959,1.347-18.751,11.322-17.403,22.281c1.245,10.13,9.864,17.554,19.816,17.554c0.813,0,1.637-0.05,2.464-0.151
			c7.156-0.88,14.35-2.075,21.383-3.554C320.185,506.024,327.101,495.422,324.829,484.618z"/>
	</g>
</g>
<g>
</g>
<g>
</g>
<g>
</g>
<g>
</g>
<g>
</g>
<g>
</g>
<g>
</g>
<g>
</g>
<g>
</g>
<g>
</g>
<g>
</g>
<g>
</g>
<g>
</g>
<g>
</g>
<g>
</g>
</svg>
