<?xml version="1.0" encoding="iso-8859-1"?>
<!-- Generator: Adobe Illustrator 19.0.0, SVG Export Plug-In . SVG Version: 6.00 Build 0)  -->
<svg version="1.1" id="Capa_1" xmlns="http://www.w3.org/2000/svg" xmlns:xlink="http://www.w3.org/1999/xlink" x="0px" y="0px"
	 viewBox="0 0 512 512" style="enable-background:new 0 0 512 512;" xml:space="preserve">
<g>
	<g>
		<path d="M509.866,165.788c-8.965-53.361-44.342-99.584-99.613-130.151C356.71,6.023,290.465-5.434,223.723,3.374
			c-39.717,5.241-76.605,17.125-109.644,35.321c-31.93,17.586-59.123,40.834-78.635,67.23
			c-29.202,39.503-40.693,83.86-33.231,128.28c6.592,39.241,27.437,74.654,60.532,103.109c-1.108,4.551-1.709,9.298-1.709,14.185
			c0,22.845,12.837,42.745,31.674,52.877c0.939,0.711,2.227,1.861,3.608,3.617c3.521,4.474,7.718,13.052,7.718,28.507
			c0,20.376-22.753,31.688-31.949,35.429c-9.071,1.898-15.885,9.937-15.885,19.572c0,11.046,8.955,20,20,20
			c2.529,0.111,5.048-0.275,7.425-1.146c5.568-2.041,16.203-6.514,26.987-14.172c21.865-15.524,33.422-36.163,33.422-59.684
			c0-10.73-1.429-20.087-3.782-28.175c10.559-3.581,19.809-10.015,26.817-18.396c24.943,6.341,51.217,9.55,77.8,9.55
			c14.457,0,29.009-0.949,43.483-2.859c40.453-5.339,77.23-16.976,109.311-34.588c9.683-5.316,13.223-17.474,7.906-27.157
			c-5.316-9.684-17.476-13.222-27.156-7.907c-27.715,15.216-59.777,25.308-95.294,29.995c-34.625,4.571-69.632,2.897-102.101-4.799
			c0.002-0.222,0.017-0.441,0.017-0.664c0-33.085-26.916-60.001-60.001-60.001c-13.52,0-26.006,4.498-36.051,12.072
			c-23.677-21.65-38.567-47.663-43.326-75.992c-5.621-33.462,3.352-67.307,25.948-97.875
			c33.534-45.364,93.851-77.765,161.348-86.672c58.312-7.697,115.828,2.108,161.937,27.609
			c44.379,24.544,72.621,60.689,79.523,101.775c5.432,32.334-3.417,65.661-25.591,96.375c-6.466,8.956-4.446,21.457,4.509,27.922
			c8.958,6.466,21.457,4.447,27.923-4.509C505.834,252.622,517.11,208.908,509.866,165.788z M121.037,331.498
			c11.028,0,20,8.972,20,20c0,11.028-8.972,20-20,20c-2.793,0-5.452-0.58-7.869-1.618c-1.211-0.756-2.383-1.399-3.512-1.956
			c-5.202-3.615-8.62-9.625-8.62-16.425C101.037,340.47,110.009,331.498,121.037,331.498z"/>
	</g>
</g>
<g>
</g>
<g>
</g>
<g>
</g>
<g>
</g>
<g>
</g>
<g>
</g>
<g>
</g>
<g>
</g>
<g>
</g>
<g>
</g>
<g>
</g>
<g>
</g>
<g>
</g>
<g>
</g>
<g>
</g>
</svg>
