<?xml version="1.0" encoding="iso-8859-1"?>
<!-- Generator: Adobe Illustrator 19.0.0, SVG Export Plug-In . SVG Version: 6.00 Build 0)  -->
<svg version="1.1" id="Capa_1" xmlns="http://www.w3.org/2000/svg" xmlns:xlink="http://www.w3.org/1999/xlink" x="0px" y="0px"
	 viewBox="0 0 512 512" style="enable-background:new 0 0 512 512;" xml:space="preserve">
<g>
	<g>
		<path d="M492,236c-11.046,0-20,8.954-20,20c0,36.103-24.477,40-35,40c-14.969,0-22.17-3.706-32.138-8.836
			C393.466,281.299,379.282,274,355,274c-23.415,0-44.905,8.41-60.512,23.68C278.696,313.13,270,334.552,270,358
			c0,25.007,8.218,38.619,14.821,49.555C290.349,416.709,294,422.757,294,437c0,5.465-0.949,15.809-7.309,23.683
			C280.626,468.192,270.3,472,256,472c-119.103,0-216-96.897-216-216S136.897,40,256,40c83.661,0,160.56,49.024,195.909,124.896
			c4.665,10.012,16.562,14.346,26.575,9.682c10.013-4.665,14.348-16.563,9.683-26.576c-20.305-43.579-52.39-80.498-92.788-106.766
			C353.89,14.259,305.693,0,256,0C187.62,0,123.333,26.629,74.98,74.98C26.629,123.333,0,187.62,0,256s26.629,132.667,74.98,181.02
			C123.333,485.371,187.62,512,256,512c33.606,0,52.161-14.239,61.809-26.184C328.25,472.889,334,455.552,334,437
			c0-25.382-8.281-39.099-14.937-50.12C313.605,377.84,310,371.868,310,358c0-25.907,18.505-44,45-44
			c14.594,0,21.71,3.662,31.559,8.73C398.046,328.643,412.343,336,437,336c10.716,0,31.362-2.279,49.236-17.54
			C497.989,308.425,512,289.442,512,256C512,244.954,503.046,236,492,236z"/>
	</g>
</g>
<g>
	<g>
		<path d="M110,233c-16.542,0-30,13.458-30,30s13.458,30,30,30s30-13.458,30-30S126.542,233,110,233z"/>
	</g>
</g>
<g>
	<g>
		<path d="M254,80c-16.542,0-30,13.458-30,30s13.458,30,30,30s30-13.458,30-30S270.542,80,254,80z"/>
	</g>
</g>
<g>
	<g>
		<path d="M169.225,136.777l-0.001-0.001c-11.703-11.702-30.745-11.702-42.448,0.001c-11.702,11.703-11.702,30.744,0.001,42.447
			C132.628,185.075,140.314,188,148,188c7.686,0,15.373-2.926,21.225-8.777C180.927,167.521,180.927,148.479,169.225,136.777z"/>
	</g>
</g>
<g>
	<g>
		<path d="M378.223,129.777c-11.704-11.702-30.743-11.703-42.447,0c-11.702,11.702-11.702,30.744,0,42.446
			c5.852,5.851,13.538,8.777,21.223,8.777c7.686,0,15.372-2.926,21.224-8.777C389.925,160.521,389.925,141.479,378.223,129.777z"/>
	</g>
</g>
<g>
	<g>
		<path d="M172.212,340.772c-11.698-11.698-30.729-11.697-42.425,0l-0.001,0.001c-5.666,5.668-8.786,13.204-8.786,21.219
			c0,8.016,3.12,15.552,8.786,21.219c5.667,5.668,13.2,8.789,21.214,8.789c8.013,0,15.546-3.121,21.213-8.789
			c5.666-5.668,8.786-13.203,8.786-21.219S177.879,346.44,172.212,340.772z"/>
	</g>
</g>
<g>
</g>
<g>
</g>
<g>
</g>
<g>
</g>
<g>
</g>
<g>
</g>
<g>
</g>
<g>
</g>
<g>
</g>
<g>
</g>
<g>
</g>
<g>
</g>
<g>
</g>
<g>
</g>
<g>
</g>
</svg>
