<?xml version="1.0" encoding="iso-8859-1"?>
<!-- Generator: Adobe Illustrator 19.0.0, SVG Export Plug-In . SVG Version: 6.00 Build 0)  -->
<svg version="1.1" id="Capa_1" xmlns="http://www.w3.org/2000/svg" xmlns:xlink="http://www.w3.org/1999/xlink" x="0px" y="0px"
	 viewBox="0 0 512 512" style="enable-background:new 0 0 512 512;" xml:space="preserve">
<g>
	<g>
		<path d="M251,142h-29c-44.112,0-80,35.888-80,80v30c0,11.046,8.954,20,20,20s20-8.954,20-20v-30c0-22.056,17.944-40,40-40h29
			c11.046,0,20-8.954,20-20S262.046,142,251,142z"/>
	</g>
</g>
<g>
	<g>
		<path d="M432,142h-62V80c0-44.112-35.888-80-80-80H80C35.888,0,0,35.888,0,80v210c0,44.112,35.888,80,80,80h62v62
			c0,44.112,35.888,80,80,80h210c44.112,0,80-35.888,80-80V222C512,177.888,476.112,142,432,142z M472,432c0,22.056-17.944,40-40,40
			H222c-22.056,0-40-17.944-40-40v-82c0-11.046-8.954-20-20-20H80c-22.056,0-40-17.944-40-40V80c0-22.056,17.944-40,40-40h210
			c22.056,0,40,17.944,40,40v82c0,11.046,8.954,20,20,20h82c22.056,0,40,17.944,40,40V432z"/>
	</g>
</g>
<g>
	<g>
		<path d="M350,239c-11.046,0-20,8.954-20,20v31c0,22.056-17.944,40-40,40h-29c-11.046,0-20,8.954-20,20c0,11.046,8.954,20,20,20h29
			c44.112,0,80-35.888,80-80v-31C370,247.954,361.046,239,350,239z"/>
	</g>
</g>
<g>
</g>
<g>
</g>
<g>
</g>
<g>
</g>
<g>
</g>
<g>
</g>
<g>
</g>
<g>
</g>
<g>
</g>
<g>
</g>
<g>
</g>
<g>
</g>
<g>
</g>
<g>
</g>
<g>
</g>
</svg>
