<?xml version="1.0" encoding="iso-8859-1"?>
<!-- Generator: Adobe Illustrator 19.0.0, SVG Export Plug-In . SVG Version: 6.00 Build 0)  -->
<svg version="1.1" id="Capa_1" xmlns="http://www.w3.org/2000/svg" xmlns:xlink="http://www.w3.org/1999/xlink" x="0px" y="0px"
	 viewBox="0 0 511.999 511.999" style="enable-background:new 0 0 511.999 511.999;" xml:space="preserve">
<g>
	<g>
		<path d="M495.063,18.922c-0.293-0.335-0.599-0.662-0.918-0.981c-0.299-0.299-0.605-0.586-0.918-0.862
			C482.25,6.509,467.333,0,450.925,0H313.991c-11.044,0-19.997,8.952-19.997,19.997s8.953,19.997,19.997,19.997h129.823
			L40.041,443.768l0.041-135.771c0.003-11.043-8.946-19.999-19.991-20.003h-0.006c-11.04,0-19.994,8.949-19.997,19.991
			L0.044,450.966c0,33.654,27.379,61.033,61.033,61.033h136.934c11.044,0,19.997-8.953,19.997-19.997
			c0-11.044-8.953-19.997-19.997-19.997H68.36L471.964,68.402V202.01c0,11.044,8.952,19.997,19.997,19.997
			s19.997-8.952,19.997-19.997V61.034C511.958,44.72,505.526,29.883,495.063,18.922z"/>
	</g>
</g>
<g>
	<g>
		<circle cx="234.002" cy="20.037" r="19.997"/>
	</g>
</g>
<g>
	<g>
		<circle cx="154.015" cy="20.037" r="19.997"/>
	</g>
</g>
<g>
	<g>
		<circle cx="74.029" cy="20.037" r="19.997"/>
	</g>
</g>
<g>
	<g>
		<circle cx="20.038" cy="228.001" r="19.997"/>
	</g>
</g>
<g>
	<g>
		<circle cx="20.038" cy="148.015" r="19.997"/>
	</g>
</g>
<g>
	<g>
		<circle cx="20.038" cy="68.028" r="19.997"/>
	</g>
</g>
<g>
	<g>
		<circle cx="491.958" cy="277.993" r="19.997"/>
	</g>
</g>
<g>
	<g>
		<circle cx="491.958" cy="357.979" r="19.997"/>
	</g>
</g>
<g>
	<g>
		<circle cx="491.958" cy="437.966" r="19.997"/>
	</g>
</g>
<g>
	<g>
		<circle cx="283.993" cy="491.956" r="19.997"/>
	</g>
</g>
<g>
	<g>
		<circle cx="363.98" cy="491.956" r="19.997"/>
	</g>
</g>
<g>
	<g>
		<circle cx="443.966" cy="491.956" r="19.997"/>
	</g>
</g>
<g>
</g>
<g>
</g>
<g>
</g>
<g>
</g>
<g>
</g>
<g>
</g>
<g>
</g>
<g>
</g>
<g>
</g>
<g>
</g>
<g>
</g>
<g>
</g>
<g>
</g>
<g>
</g>
<g>
</g>
</svg>
