<?xml version="1.0" encoding="iso-8859-1"?>
<!-- Generator: Adobe Illustrator 19.0.0, SVG Export Plug-In . SVG Version: 6.00 Build 0)  -->
<svg version="1.1" id="Capa_1" xmlns="http://www.w3.org/2000/svg" xmlns:xlink="http://www.w3.org/1999/xlink" x="0px" y="0px"
	 viewBox="0 0 512 512" style="enable-background:new 0 0 512 512;" xml:space="preserve">
<g>
	<g>
		<path d="M503.371,312.432L421.55,255.88l81.813-56.485c5.408-3.734,8.637-9.887,8.637-16.458s-3.229-12.725-8.637-16.458
			l-236-162.937c-6.84-4.722-15.887-4.722-22.727,0l-236,162.937C3.229,170.212,0,176.365,0,182.937
			c0,6.572,3.229,12.725,8.637,16.458L90.45,255.88L8.629,312.432C3.226,316.167,0,322.316,0,328.885
			c0,6.569,3.226,12.718,8.629,16.453l236,163.115C248.05,510.817,252.025,512,256,512c3.975,0,7.95-1.183,11.371-3.547l104-71.881
			c9.087-6.28,11.361-18.738,5.081-27.824c-6.28-9.086-18.738-11.361-27.823-5.081L256,467.688L55.176,328.885l70.469-48.706
			l118.992,82.154c3.42,2.361,7.392,3.542,11.363,3.542s7.943-1.181,11.363-3.542l118.992-82.154l70.469,48.706l-25.555,17.663
			c-9.087,6.28-11.362,18.737-5.082,27.824c3.882,5.616,10.124,8.63,16.471,8.63c3.922,0,7.884-1.151,11.354-3.549l49.359-34.115
			c5.403-3.734,8.629-9.884,8.629-16.453C512,322.316,508.774,316.167,503.371,312.432z M256,321.57L55.202,182.937L256,44.304
			l200.798,138.633L256,321.57z"/>
	</g>
</g>
<g>
</g>
<g>
</g>
<g>
</g>
<g>
</g>
<g>
</g>
<g>
</g>
<g>
</g>
<g>
</g>
<g>
</g>
<g>
</g>
<g>
</g>
<g>
</g>
<g>
</g>
<g>
</g>
<g>
</g>
</svg>
