<?xml version="1.0" encoding="iso-8859-1"?>
<!-- Generator: Adobe Illustrator 19.0.0, SVG Export Plug-In . SVG Version: 6.00 Build 0)  -->
<svg version="1.1" id="Capa_1" xmlns="http://www.w3.org/2000/svg" xmlns:xlink="http://www.w3.org/1999/xlink" x="0px" y="0px"
	 viewBox="0 0 512 512" style="enable-background:new 0 0 512 512;" xml:space="preserve">
<g>
	<g>
		<path d="M361.094,117.064C316.48,56.592,272.599,8.514,270.753,6.497C266.965,2.357,261.611,0,256,0
			c-5.611,0-10.965,2.357-14.753,6.497c-1.847,2.017-45.727,50.094-90.341,110.566C89.258,200.623,58,264.883,58,308.058v5.467
			C58,422.965,146.822,512,256,512c33.919,0,67.396-8.75,96.809-25.304c9.626-5.418,13.037-17.613,7.62-27.239
			c-5.417-9.625-17.611-13.037-27.239-7.62C309.753,465.028,283.061,472,256,472c-87.122,0-158-71.091-158-158.474v-5.467
			c0-33.43,30.149-92.73,84.895-166.979c28.099-38.109,56.482-71.791,73.107-90.918c16.573,19.066,44.839,52.607,72.904,90.648
			C383.78,215.189,414,274.585,414,308.058v5.467c0,25.856-6.004,50.497-17.845,73.239c-5.101,9.797-1.293,21.875,8.504,26.976
			c9.796,5.1,21.875,1.294,26.976-8.503C446.266,377.134,454,345.422,454,313.526v-5.467
			C454,264.884,422.742,200.624,361.094,117.064z"/>
	</g>
</g>
<g>
</g>
<g>
</g>
<g>
</g>
<g>
</g>
<g>
</g>
<g>
</g>
<g>
</g>
<g>
</g>
<g>
</g>
<g>
</g>
<g>
</g>
<g>
</g>
<g>
</g>
<g>
</g>
<g>
</g>
</svg>
