<?xml version="1.0" encoding="iso-8859-1"?>
<!-- Generator: Adobe Illustrator 19.0.0, SVG Export Plug-In . SVG Version: 6.00 Build 0)  -->
<svg version="1.1" id="Capa_1" xmlns="http://www.w3.org/2000/svg" xmlns:xlink="http://www.w3.org/1999/xlink" x="0px" y="0px"
	 viewBox="0 0 512 512" style="enable-background:new 0 0 512 512;" xml:space="preserve">
<g>
	<g>
		<path d="M481.996,30.006C462.647,10.656,436.922,0,409.559,0c-27.363,0-53.088,10.656-72.437,30.005L50.826,316.301
			c-2.436,2.436-4.202,5.46-5.125,8.779L0.733,486.637c-1.939,6.968,0.035,14.441,5.163,19.542c3.8,3.78,8.892,5.821,14.106,5.821
			c1.823,0,3.661-0.25,5.463-0.762l161.557-45.891c6.817-1.936,12.1-7.335,13.888-14.192c1.788-6.857-0.186-14.148-5.189-19.167
			L93.869,329.827l180.228-180.228l88.18,88.18L237.769,361.948c-7.821,7.8-7.839,20.463-0.039,28.284
			c7.8,7.822,20.463,7.837,28.284,0.039l215.981-215.392C501.344,155.53,512,129.805,512,102.442
			C512,75.079,501.344,49.353,481.996,30.006z M143.395,436.158L48.827,463.02l26.485-95.152L143.395,436.158z M390.6,209.534
			l-88.219-88.219l28.716-28.716l88.258,88.258L390.6,209.534z M453.73,146.575l-6.053,6.037l-88.296-88.296l6.026-6.026
			C377.2,46.495,392.88,40,409.559,40c16.678,0,32.358,6.495,44.153,18.29C465.505,70.083,472,85.764,472,102.442
			C472,119.121,465.505,134.8,453.73,146.575z"/>
	</g>
</g>
<g>
</g>
<g>
</g>
<g>
</g>
<g>
</g>
<g>
</g>
<g>
</g>
<g>
</g>
<g>
</g>
<g>
</g>
<g>
</g>
<g>
</g>
<g>
</g>
<g>
</g>
<g>
</g>
<g>
</g>
</svg>
