<?xml version="1.0" encoding="iso-8859-1"?>
<!-- Generator: Adobe Illustrator 19.0.0, SVG Export Plug-In . SVG Version: 6.00 Build 0)  -->
<svg version="1.1" id="Capa_1" xmlns="http://www.w3.org/2000/svg" xmlns:xlink="http://www.w3.org/1999/xlink" x="0px" y="0px"
	 viewBox="0 0 512 512" style="enable-background:new 0 0 512 512;" xml:space="preserve">
<g>
	<g>
		<path d="M488.474,239.615L325.232,76.951l42.849-42.802c7.814-7.806,7.821-20.47,0.015-28.284
			c-7.805-7.815-20.468-7.821-28.284-0.016L98.47,246.928c-33.716,9.407-58.524,40.397-58.524,77.073c0,11.046,8.954,20,20,20
			c11.046,0,20-8.954,20-20c0-15.522,8.887-29.007,21.839-35.635l169.196,168.616c15.594,15.578,36.068,23.364,56.545,23.363
			c20.48-0.001,40.963-7.794,56.544-23.375l104.445-104.175c15.113-15.114,23.435-35.209,23.431-56.584
			C511.942,274.835,503.613,254.743,488.474,239.615z M460.249,324.491L355.804,428.668c-15.587,15.588-40.959,15.594-56.569-0.002
			L154.072,284.001h221.875c11.046,0,20-8.954,20-20c0-11.046-8.954-20-20-20H158l138.932-138.78l163.288,162.71
			c7.56,7.554,11.725,17.6,11.727,28.288C471.948,306.905,467.788,316.952,460.249,324.491z"/>
	</g>
</g>
<g>
	<g>
		<path d="M95.171,399.293c-10.177-15.195-20.241-27.475-20.665-27.991c-3.799-4.623-9.469-7.302-15.452-7.302
			c-5.983,0-11.653,2.679-15.452,7.302c-0.424,0.516-10.488,12.796-20.665,27.991C2.426,429.918,0.054,444.611,0.054,453.001
			c0,32.533,26.468,59,59,59c32.532,0,59-26.467,59-59C118.054,444.611,115.682,429.918,95.171,399.293z M59.054,472.001
			c-10.477,0-19-8.523-19.001-18.952c0.004-0.08,0.526-8.269,16.288-31.75c0.907-1.35,1.813-2.677,2.713-3.971
			c0.899,1.294,1.806,2.621,2.713,3.971c15.488,23.074,16.262,31.381,16.287,31.738C78.034,463.496,69.518,472.001,59.054,472.001z"
			/>
	</g>
</g>
<g>
</g>
<g>
</g>
<g>
</g>
<g>
</g>
<g>
</g>
<g>
</g>
<g>
</g>
<g>
</g>
<g>
</g>
<g>
</g>
<g>
</g>
<g>
</g>
<g>
</g>
<g>
</g>
<g>
</g>
</svg>
