<?xml version="1.0" encoding="iso-8859-1"?>
<!-- Generator: Adobe Illustrator 19.0.0, SVG Export Plug-In . SVG Version: 6.00 Build 0)  -->
<svg version="1.1" id="Capa_1" xmlns="http://www.w3.org/2000/svg" xmlns:xlink="http://www.w3.org/1999/xlink" x="0px" y="0px"
	 viewBox="0 0 512 512" style="enable-background:new 0 0 512 512;" xml:space="preserve">
<g>
	<g>
		<path d="M492,365.5c-11.046,0-20,8.954-20,20v22c0,22.056-17.944,40-40,40h-22c-11.046,0-20,8.954-20,20c0,11.046,8.954,20,20,20
			h22c44.112,0,80-35.888,80-80v-22C512,374.454,503.046,365.5,492,365.5z"/>
	</g>
</g>
<g>
	<g>
		<path d="M432,24.5h-22c-11.046,0-20,8.954-20,20s8.954,20,20,20h22c22.056,0,40,17.944,40,40v22c0,11.046,8.954,20,20,20
			c11.046,0,20-8.954,20-20v-22C512,60.388,476.112,24.5,432,24.5z"/>
	</g>
</g>
<g>
	<g>
		<path d="M492,196.5c-11.046,0-20,8.954-20,20v80c0,11.046,8.954,20,20,20c11.046,0,20-8.954,20-20v-80
			C512,205.454,503.046,196.5,492,196.5z"/>
	</g>
</g>
<g>
	<g>
		<path d="M102,447.5H80c-22.056,0-40-17.944-40-40v-22c0-11.046-8.954-20-20-20s-20,8.954-20,20v22c0,44.112,35.888,80,80,80h22
			c11.046,0,20-8.954,20-20C122,456.454,113.046,447.5,102,447.5z"/>
	</g>
</g>
<g>
	<g>
		<path d="M102,24.5H80c-44.112,0-80,35.888-80,80v22c0,11.046,8.954,20,20,20s20-8.954,20-20v-22c0-22.056,17.944-40,40-40h22
			c11.046,0,20-8.954,20-20S113.046,24.5,102,24.5z"/>
	</g>
</g>
<g>
	<g>
		<path d="M20,196.5c-11.046,0-20,8.954-20,20v80c0,11.046,8.954,20,20,20s20-8.954,20-20v-80C40,205.454,31.046,196.5,20,196.5z"/>
	</g>
</g>
<g>
	<g>
		<path d="M315,24.5H195c-11.046,0-20,8.954-20,20s8.954,20,20,20h120c11.046,0,20-8.954,20-20S326.046,24.5,315,24.5z"/>
	</g>
</g>
<g>
	<g>
		<path d="M315,447.5H195c-11.046,0-20,8.954-20,20c0,11.046,8.954,20,20,20h120c11.046,0,20-8.954,20-20
			C335,456.454,326.046,447.5,315,447.5z"/>
	</g>
</g>
<g>
</g>
<g>
</g>
<g>
</g>
<g>
</g>
<g>
</g>
<g>
</g>
<g>
</g>
<g>
</g>
<g>
</g>
<g>
</g>
<g>
</g>
<g>
</g>
<g>
</g>
<g>
</g>
<g>
</g>
</svg>
