<?xml version="1.0" encoding="iso-8859-1"?>
<!-- Generator: Adobe Illustrator 19.0.0, SVG Export Plug-In . SVG Version: 6.00 Build 0)  -->
<svg version="1.1" id="Capa_1" xmlns="http://www.w3.org/2000/svg" xmlns:xlink="http://www.w3.org/1999/xlink" x="0px" y="0px"
	 viewBox="0 0 512 512" style="enable-background:new 0 0 512 512;" xml:space="preserve">
<g>
	<g>
		<path d="M432,0H80C35.888,0,0,35.888,0,80v28c0,11.046,8.954,20,20,20s20-8.954,20-20V80c0-22.056,17.944-40,40-40h352
			c22.056,0,40,17.944,40,40v28c0,11.046,8.954,20,20,20c11.046,0,20-8.954,20-20V80C512,35.888,476.112,0,432,0z"/>
	</g>
</g>
<g>
	<g>
		<path d="M334,472h-58V100c0-11.046-8.954-20-20-20c-11.046,0-20,8.954-20,20v372h-58c-11.046,0-20,8.954-20,20
			c0,11.046,8.954,20,20,20h156c11.046,0,20-8.954,20-20C354,480.954,345.046,472,334,472z"/>
	</g>
</g>
<g>
</g>
<g>
</g>
<g>
</g>
<g>
</g>
<g>
</g>
<g>
</g>
<g>
</g>
<g>
</g>
<g>
</g>
<g>
</g>
<g>
</g>
<g>
</g>
<g>
</g>
<g>
</g>
<g>
</g>
</svg>
