<?xml version="1.0" encoding="iso-8859-1"?>
<!-- Generator: Adobe Illustrator 19.0.0, SVG Export Plug-In . SVG Version: 6.00 Build 0)  -->
<svg version="1.1" id="Capa_1" xmlns="http://www.w3.org/2000/svg" xmlns:xlink="http://www.w3.org/1999/xlink" x="0px" y="0px"
	 viewBox="0 0 512 512" style="enable-background:new 0 0 512 512;" xml:space="preserve">
<g>
	<g>
		<path fill="white" d="M488.604,106.839L405.16,23.395c-31.194-31.194-81.951-31.194-113.153,0.008L23.434,292.269
			C8.323,307.38,0,327.471,0,348.841c0,21.314,8.278,41.354,23.313,56.451l80.596,83.172c0.086,0.089,0.174,0.178,0.262,0.265
			c14.949,14.862,34.791,23.126,55.869,23.268c0.186,0.001,0.368,0.002,0.553,0.002c20.875,0,40.61-7.983,55.625-22.514
			c0.036-0.035,0.072-0.07,0.107-0.104l203.722-200.131c7.881-7.742,7.994-20.405,0.251-28.285
			c-7.742-7.882-20.406-7.994-28.285-0.251l-48.076,47.229L203.954,168.155L320.301,51.681c15.598-15.597,40.976-15.597,56.573,0
			l83.444,83.444c15.597,15.597,15.597,40.976,0,56.573c-7.812,7.812-7.812,20.476,0,28.286c7.812,7.811,20.476,7.812,28.286,0
			C519.799,188.79,519.799,138.033,488.604,106.839z M188.35,460.785c-15.511,14.961-40.521,14.816-55.858-0.307l-80.551-83.125
			c-0.073-0.075-0.146-0.15-0.221-0.224c-7.556-7.557-11.717-17.601-11.717-28.287c0-10.614,4.105-20.595,11.573-28.141
			L190.42,458.752L188.35,460.785z M315.399,335.977l-96.44,94.74L79.846,292.398l95.837-95.942L315.399,335.977z"/>
	</g>
</g>
</svg>
