<?xml version="1.0" encoding="iso-8859-1"?>
<!-- Generator: Adobe Illustrator 19.0.0, SVG Export Plug-In . SVG Version: 6.00 Build 0)  -->
<svg version="1.1" id="Capa_1" xmlns="http://www.w3.org/2000/svg" xmlns:xlink="http://www.w3.org/1999/xlink" x="0px" y="0px"
	 viewBox="0 0 512 512" style="enable-background:new 0 0 512 512;" xml:space="preserve">
<g>
	<g>
		<path d="M302,0C186.206,0,92,94.206,92,210c0,50.944,18.234,97.709,48.519,134.112L5.906,477.81
			c-7.837,7.784-7.88,20.447-0.097,28.284C9.719,510.03,14.859,512,20,512c5.095,0,10.192-1.936,14.093-5.81L168.89,372.31
			C205.148,402.098,251.523,420,302,420c36.026,0,71.576-9.283,102.804-26.846c9.628-5.414,13.043-17.608,7.628-27.236
			c-5.414-9.627-17.608-13.044-27.236-7.628C359.942,372.493,331.173,380,302,380c-93.738,0-170-76.262-170-170S208.262,40,302,40
			s170,76.262,170,170c0,29.531-7.683,58.609-22.217,84.091c-5.473,9.595-2.131,21.809,7.463,27.282
			c9.595,5.472,21.809,2.131,27.282-7.463C502.5,282.4,512,246.469,512,210C512,94.206,417.794,0,302,0z"/>
	</g>
</g>
<g>
</g>
<g>
</g>
<g>
</g>
<g>
</g>
<g>
</g>
<g>
</g>
<g>
</g>
<g>
</g>
<g>
</g>
<g>
</g>
<g>
</g>
<g>
</g>
<g>
</g>
<g>
</g>
<g>
</g>
</svg>
