<?xml version="1.0" encoding="UTF-8" standalone="no"?>
<svg
   version="1.1"
   id="Capa_1"
   x="0px"
   y="0px"
   viewBox="0 0 512 512"
   style="enable-background:new 0 0 512 512;"
   xml:space="preserve"
   sodipodi:docname="011-height copy.svg.2021_07_13_17_28_06.0.svg"
   inkscape:version="1.1-dev (9017afb, 2021-01-01)"
   xmlns:inkscape="http://www.inkscape.org/namespaces/inkscape"
   xmlns:sodipodi="http://sodipodi.sourceforge.net/DTD/sodipodi-0.dtd"
   xmlns="http://www.w3.org/2000/svg"
   xmlns:svg="http://www.w3.org/2000/svg"><defs
   id="defs881"><rect
     x="143.82946"
     y="496.5122"
     width="274.7317"
     height="303.60976"
     id="rect3561" /></defs><sodipodi:namedview
   id="namedview879"
   pagecolor="#ffffff"
   bordercolor="#111111"
   borderopacity="1"
   objecttolerance="10.0"
   gridtolerance="10.0"
   guidetolerance="10.0"
   inkscape:pageshadow="0"
   inkscape:pageopacity="0"
   inkscape:pagecheckerboard="1"
   showgrid="false"
   inkscape:zoom="1.28125"
   inkscape:cx="260.68293"
   inkscape:cy="246.63415"
   inkscape:window-width="1680"
   inkscape:window-height="928"
   inkscape:window-x="0"
   inkscape:window-y="25"
   inkscape:window-maximized="1"
   inkscape:current-layer="g838" />
<g
   id="g828"
   transform="translate(0,472)"
   style="fill:#ffffff">
	<g
   id="g826"
   style="fill:#ffffff">
		<path
   d="M 421,0 H 91 C 79.954,0 71,8.954 71,20 c 0,11.046 8.954,20 20,20 h 330 c 11.046,0 20,-8.954 20,-20 C 441,8.954 432.046,0 421,0 Z"
   id="path824"
   sodipodi:nodetypes="sssssss"
   style="fill:#ffffff" />
	</g>
</g>

<g
   id="g840"
   transform="matrix(1,0,0,-1,-6.4636031,501.97561)"
   style="fill:#ffffff">
	<g
   id="g838"
   style="fill:#ffffff">
		<path
   d="m 446.66342,220.89161 -141.653,-142.162 c -11.356,-11.449 -26.466,-17.754 -42.547,-17.754 -16.081,0 -31.191,6.305 -42.547,17.754 l -141.653006,142.162 c -7.778,7.842 -7.727,20.506 0.116,28.284 7.844,7.779 20.486992,7.7071 28.284006,-0.116 l 134.8,-135.251 v 368.167 c 0,11.046 8.954,20 20,20 11.046,0 20,-8.954 20,-20 v -370.184 l 136.8,137.268 c 3.911,3.943 9.054,5.917 14.201,5.916 5.09,0 10.184,-1.932 14.083,-5.8 7.843,-7.778 7.895,-20.442 0.116,-28.284 z"
   id="path836"
   sodipodi:nodetypes="ccsccsscsssccccc"
   style="fill:#ffffff" />
	<g
   aria-label=".c"
   transform="matrix(1,0,0,-1,181.8845,1095.5384)"
   id="text3559"
   style="font-weight:600;font-size:250px;line-height:1.25;font-family:'SF Pro Rounded';-inkscape-font-specification:'SF Pro Rounded Semi-Bold';white-space:pre;shape-inside:url(#rect3561)"><path
     d="m 178.62012,728.69465 c 10.86425,0 19.65332,-8.78906 19.65332,-19.65332 0,-10.98633 -8.78907,-19.65332 -19.65332,-19.65332 -10.98633,0 -19.65332,8.66699 -19.65332,19.65332 0,10.86426 8.66699,19.65332 19.65332,19.65332 z"
     id="path13852" /><path
     d="m 279.08398,730.03742 c 25.02442,0 47.36329,-12.45117 55.17579,-30.27344 1.58691,-3.54004 2.31933,-6.46972 2.31933,-9.27734 0,-8.78906 -6.71387,-14.28223 -15.01465,-14.28223 -7.56836,0 -11.47461,3.05176 -16.23535,10.49805 -5.49316,9.27734 -13.18359,15.38086 -25.63476,15.38086 -17.82227,0 -28.93067,-14.64844 -28.93067,-40.40527 0,-25.26856 11.1084,-40.16114 29.17481,-40.16114 11.35254,0 19.28711,5.24903 25.75683,16.72364 3.66211,6.46972 7.93457,9.27734 15.01465,9.27734 8.42285,0 15.25879,-5.12695 15.25879,-13.91602 0,-2.56347 -0.73242,-5.7373 -1.95313,-8.78906 -7.08007,-18.55469 -28.93066,-31.25 -55.17578,-31.25 -39.30664,0 -64.20898,26.36719 -64.20898,68.23731 0,42.35839 25.02441,68.2373 64.45312,68.2373 z"
     id="path13854" /></g></g>
</g>

<g
   id="g848"
   style="fill:#ffffff">
</g>
<g
   id="g850"
   style="fill:#ffffff">
</g>
<g
   id="g852"
   style="fill:#ffffff">
</g>
<g
   id="g854"
   style="fill:#ffffff">
</g>
<g
   id="g856"
   style="fill:#ffffff">
</g>
<g
   id="g858"
   style="fill:#ffffff">
</g>
<g
   id="g860"
   style="fill:#ffffff">
</g>
<g
   id="g862"
   style="fill:#ffffff">
</g>
<g
   id="g864"
   style="fill:#ffffff">
</g>
<g
   id="g866"
   style="fill:#ffffff">
</g>
<g
   id="g868"
   style="fill:#ffffff">
</g>
<g
   id="g870"
   style="fill:#ffffff">
</g>
<g
   id="g872"
   style="fill:#ffffff">
</g>
<g
   id="g874"
   style="fill:#ffffff">
</g>
<g
   id="g876"
   style="fill:#ffffff">
</g>
</svg>
