<?xml version="1.0" encoding="UTF-8" standalone="no"?>
<svg
   version="1.1"
   id="Capa_1"
   x="0px"
   y="0px"
   viewBox="0 0 352 352"
   xml:space="preserve"
   sodipodi:docname="line.svg"
   width="352"
   height="352"
   inkscape:version="1.1-dev (9017afb, 2021-01-01)"
   xmlns:inkscape="http://www.inkscape.org/namespaces/inkscape"
   xmlns:sodipodi="http://sodipodi.sourceforge.net/DTD/sodipodi-0.dtd"
   xmlns="http://www.w3.org/2000/svg"
   xmlns:svg="http://www.w3.org/2000/svg"><defs
   id="defs863" /><sodipodi:namedview
   id="namedview861"
   pagecolor="#ffffff"
   bordercolor="#111111"
   borderopacity="1"
   objecttolerance="10.0"
   gridtolerance="10.0"
   guidetolerance="10.0"
   inkscape:pageshadow="0"
   inkscape:pageopacity="0"
   inkscape:pagecheckerboard="1"
   showgrid="false"
   inkscape:zoom="1.28125"
   inkscape:cx="256"
   inkscape:cy="96"
   inkscape:window-width="1680"
   inkscape:window-height="928"
   inkscape:window-x="0"
   inkscape:window-y="25"
   inkscape:window-maximized="1"
   inkscape:current-layer="Capa_1" />
<g
   id="g828"
   transform="translate(0,-160)">
	<g
   id="g826">
		<path
   d="m 337,160 h -62 c -8.284,0 -15,6.716 -15,15 v 55.787 L 68.787,422 H 15 c -8.284,0 -15,6.716 -15,15 v 60 c 0,8.284 6.716,15 15,15 h 60 c 8.284,0 15,-6.716 15,-15 V 443.213 L 281.213,252 H 337 c 8.284,0 15,-6.716 15,-15 v -62 c 0,-8.284 -6.716,-15 -15,-15 z M 60,482 H 30 V 452 H 60 Z M 322,222 h -32 v -32 h 32 z"
   id="path824"
   sodipodi:nodetypes="sssccssssssccsssscccccccccc"
   style="fill:#ffffff" />
	</g>
</g>
<g
   id="g830"
   transform="translate(0,-160)">
</g>
<g
   id="g832"
   transform="translate(0,-160)">
</g>
<g
   id="g834"
   transform="translate(0,-160)">
</g>
<g
   id="g836"
   transform="translate(0,-160)">
</g>
<g
   id="g838"
   transform="translate(0,-160)">
</g>
<g
   id="g840"
   transform="translate(0,-160)">
</g>
<g
   id="g842"
   transform="translate(0,-160)">
</g>
<g
   id="g844"
   transform="translate(0,-160)">
</g>
<g
   id="g846"
   transform="translate(0,-160)">
</g>
<g
   id="g848"
   transform="translate(0,-160)">
</g>
<g
   id="g850"
   transform="translate(0,-160)">
</g>
<g
   id="g852"
   transform="translate(0,-160)">
</g>
<g
   id="g854"
   transform="translate(0,-160)">
</g>
<g
   id="g856"
   transform="translate(0,-160)">
</g>
<g
   id="g858"
   transform="translate(0,-160)">
</g>
</svg>
