%TF.GenerationSoftware,KiCad,Pcbnew,8.0.0-8.0.0-1~ubuntu22.04.1*%
%TF.CreationDate,2024-03-30T12:30:56+01:00*%
%TF.ProjectId,PAMI_mb,50414d49-5f6d-4622-9e6b-696361645f70,rev?*%
%TF.SameCoordinates,Original*%
%TF.FileFunction,Soldermask,Top*%
%TF.FilePolarity,Negative*%
%FSLAX46Y46*%
G04 Gerber Fmt 4.6, Leading zero omitted, Abs format (unit mm)*
G04 Created by KiCad (PCBNEW 8.0.0-8.0.0-1~ubuntu22.04.1) date 2024-03-30 12:30:56*
%MOMM*%
%LPD*%
G01*
G04 APERTURE LIST*
G04 Aperture macros list*
%AMRoundRect*
0 Rectangle with rounded corners*
0 $1 Rounding radius*
0 $2 $3 $4 $5 $6 $7 $8 $9 X,Y pos of 4 corners*
0 Add a 4 corners polygon primitive as box body*
4,1,4,$2,$3,$4,$5,$6,$7,$8,$9,$2,$3,0*
0 Add four circle primitives for the rounded corners*
1,1,$1+$1,$2,$3*
1,1,$1+$1,$4,$5*
1,1,$1+$1,$6,$7*
1,1,$1+$1,$8,$9*
0 Add four rect primitives between the rounded corners*
20,1,$1+$1,$2,$3,$4,$5,0*
20,1,$1+$1,$4,$5,$6,$7,0*
20,1,$1+$1,$6,$7,$8,$9,0*
20,1,$1+$1,$8,$9,$2,$3,0*%
G04 Aperture macros list end*
%ADD10R,1.550000X1.300000*%
%ADD11RoundRect,0.375000X0.625000X0.375000X-0.625000X0.375000X-0.625000X-0.375000X0.625000X-0.375000X0*%
%ADD12RoundRect,0.500000X0.500000X1.400000X-0.500000X1.400000X-0.500000X-1.400000X0.500000X-1.400000X0*%
%ADD13RoundRect,0.135000X-0.135000X-0.185000X0.135000X-0.185000X0.135000X0.185000X-0.135000X0.185000X0*%
%ADD14RoundRect,0.140000X0.140000X0.170000X-0.140000X0.170000X-0.140000X-0.170000X0.140000X-0.170000X0*%
%ADD15RoundRect,0.135000X-0.185000X0.135000X-0.185000X-0.135000X0.185000X-0.135000X0.185000X0.135000X0*%
%ADD16RoundRect,0.135000X0.135000X0.185000X-0.135000X0.185000X-0.135000X-0.185000X0.135000X-0.185000X0*%
%ADD17RoundRect,0.125000X-0.625000X-0.125000X0.625000X-0.125000X0.625000X0.125000X-0.625000X0.125000X0*%
%ADD18RoundRect,0.125000X-0.125000X-0.625000X0.125000X-0.625000X0.125000X0.625000X-0.125000X0.625000X0*%
%ADD19RoundRect,0.225000X-0.250000X0.225000X-0.250000X-0.225000X0.250000X-0.225000X0.250000X0.225000X0*%
%ADD20RoundRect,0.135000X0.185000X-0.135000X0.185000X0.135000X-0.185000X0.135000X-0.185000X-0.135000X0*%
%ADD21RoundRect,0.250000X0.725000X-0.600000X0.725000X0.600000X-0.725000X0.600000X-0.725000X-0.600000X0*%
%ADD22O,1.950000X1.700000*%
%ADD23C,1.800000*%
%ADD24C,1.854000*%
%ADD25RoundRect,0.102000X-0.825000X-0.825000X0.825000X-0.825000X0.825000X0.825000X-0.825000X0.825000X0*%
%ADD26RoundRect,0.100000X0.100000X-0.637500X0.100000X0.637500X-0.100000X0.637500X-0.100000X-0.637500X0*%
%ADD27R,5.400000X2.850000*%
%ADD28RoundRect,0.250000X-0.550000X1.500000X-0.550000X-1.500000X0.550000X-1.500000X0.550000X1.500000X0*%
%ADD29RoundRect,0.218750X0.256250X-0.218750X0.256250X0.218750X-0.256250X0.218750X-0.256250X-0.218750X0*%
%ADD30RoundRect,0.218750X-0.256250X0.218750X-0.256250X-0.218750X0.256250X-0.218750X0.256250X0.218750X0*%
%ADD31R,0.740000X2.400000*%
%ADD32C,4.700000*%
%ADD33RoundRect,0.250000X-0.750000X0.600000X-0.750000X-0.600000X0.750000X-0.600000X0.750000X0.600000X0*%
%ADD34O,2.000000X1.700000*%
%ADD35RoundRect,0.140000X-0.170000X0.140000X-0.170000X-0.140000X0.170000X-0.140000X0.170000X0.140000X0*%
%ADD36RoundRect,0.102000X-0.500000X-1.470000X0.500000X-1.470000X0.500000X1.470000X-0.500000X1.470000X0*%
%ADD37RoundRect,0.102000X-5.355000X-4.495000X5.355000X-4.495000X5.355000X4.495000X-5.355000X4.495000X0*%
%ADD38RoundRect,0.102000X-0.655000X-0.500000X0.655000X-0.500000X0.655000X0.500000X-0.655000X0.500000X0*%
%ADD39RoundRect,0.102000X-1.775000X-1.610000X1.775000X-1.610000X1.775000X1.610000X-1.775000X1.610000X0*%
%ADD40RoundRect,0.102000X-0.655000X-1.230000X0.655000X-1.230000X0.655000X1.230000X-0.655000X1.230000X0*%
%ADD41RoundRect,0.250000X1.425000X-0.362500X1.425000X0.362500X-1.425000X0.362500X-1.425000X-0.362500X0*%
%ADD42RoundRect,0.250000X-0.600000X-0.725000X0.600000X-0.725000X0.600000X0.725000X-0.600000X0.725000X0*%
%ADD43O,1.700000X1.950000*%
%ADD44C,2.775000*%
%ADD45RoundRect,0.140000X-0.140000X-0.170000X0.140000X-0.170000X0.140000X0.170000X-0.140000X0.170000X0*%
%ADD46RoundRect,0.250000X0.550000X-1.500000X0.550000X1.500000X-0.550000X1.500000X-0.550000X-1.500000X0*%
%ADD47RoundRect,0.140000X0.170000X-0.140000X0.170000X0.140000X-0.170000X0.140000X-0.170000X-0.140000X0*%
%ADD48R,7.500000X3.000000*%
%ADD49C,1.500000*%
%ADD50R,1.700000X1.700000*%
%ADD51O,1.700000X1.700000*%
G04 APERTURE END LIST*
D10*
%TO.C,SW501*%
X174875000Y-66850000D03*
X166925000Y-66850000D03*
X174875000Y-62350000D03*
X166925000Y-62350000D03*
%TD*%
D11*
%TO.C,U103*%
X161550000Y-65700000D03*
X161550000Y-63400000D03*
D12*
X155250000Y-63400000D03*
D11*
X161550000Y-61100000D03*
%TD*%
D13*
%TO.C,R501*%
X176340000Y-67510000D03*
X177360000Y-67510000D03*
%TD*%
D14*
%TO.C,C203*%
X166975000Y-86550000D03*
X166015000Y-86550000D03*
%TD*%
D15*
%TO.C,R116*%
X146300000Y-77890000D03*
X146300000Y-78910000D03*
%TD*%
D13*
%TO.C,R201*%
X159625000Y-86550000D03*
X160645000Y-86550000D03*
%TD*%
%TO.C,R204*%
X157715000Y-85550000D03*
X158735000Y-85550000D03*
%TD*%
D14*
%TO.C,C112*%
X186500000Y-53000000D03*
X185540000Y-53000000D03*
%TD*%
D16*
%TO.C,R111*%
X179610000Y-95400000D03*
X178590000Y-95400000D03*
%TD*%
D14*
%TO.C,C104*%
X164455000Y-79000000D03*
X163495000Y-79000000D03*
%TD*%
D17*
%TO.C,U101*%
X155125000Y-71400000D03*
X155125000Y-72200000D03*
X155125000Y-73000000D03*
X155125000Y-73800000D03*
X155125000Y-74600000D03*
X155125000Y-75400000D03*
X155125000Y-76200000D03*
X155125000Y-77000000D03*
D18*
X156500000Y-78375000D03*
X157300000Y-78375000D03*
X158100000Y-78375000D03*
X158900000Y-78375000D03*
X159700000Y-78375000D03*
X160500000Y-78375000D03*
X161300000Y-78375000D03*
X162100000Y-78375000D03*
D17*
X163475000Y-77000000D03*
X163475000Y-76200000D03*
X163475000Y-75400000D03*
X163475000Y-74600000D03*
X163475000Y-73800000D03*
X163475000Y-73000000D03*
X163475000Y-72200000D03*
X163475000Y-71400000D03*
D18*
X162100000Y-70025000D03*
X161300000Y-70025000D03*
X160500000Y-70025000D03*
X159700000Y-70025000D03*
X158900000Y-70025000D03*
X158100000Y-70025000D03*
X157300000Y-70025000D03*
X156500000Y-70025000D03*
%TD*%
D19*
%TO.C,C118*%
X163600000Y-64725000D03*
X163600000Y-66275000D03*
%TD*%
D20*
%TO.C,R101*%
X157275000Y-68510000D03*
X157275000Y-67490000D03*
%TD*%
D21*
%TO.C,J109*%
X187800000Y-64000000D03*
D22*
X187800000Y-61500000D03*
X187800000Y-59000000D03*
X187800000Y-56500000D03*
%TD*%
D14*
%TO.C,C302*%
X138924260Y-95329491D03*
X137964260Y-95329491D03*
%TD*%
D23*
%TO.C,TP101*%
X135140000Y-54500000D03*
%TD*%
D24*
%TO.C,SW102*%
X189950000Y-91100000D03*
X189950000Y-86100000D03*
X189950000Y-88600000D03*
D25*
X175450000Y-91100000D03*
D24*
X175450000Y-86100000D03*
%TD*%
D26*
%TO.C,U301*%
X138975000Y-93762500D03*
X139625000Y-93762500D03*
X140275000Y-93762500D03*
X140925000Y-93762500D03*
X141575000Y-93762500D03*
X142225000Y-93762500D03*
X142875000Y-93762500D03*
X143525000Y-93762500D03*
X144175000Y-93762500D03*
X144825000Y-93762500D03*
X145475000Y-93762500D03*
X146125000Y-93762500D03*
X146775000Y-93762500D03*
X147425000Y-93762500D03*
X147425000Y-88037500D03*
X146775000Y-88037500D03*
X146125000Y-88037500D03*
X145475000Y-88037500D03*
X144825000Y-88037500D03*
X144175000Y-88037500D03*
X143525000Y-88037500D03*
X142875000Y-88037500D03*
X142225000Y-88037500D03*
X141575000Y-88037500D03*
X140925000Y-88037500D03*
X140275000Y-88037500D03*
X139625000Y-88037500D03*
X138975000Y-88037500D03*
D27*
X143200000Y-90900000D03*
%TD*%
D28*
%TO.C,C116*%
X137300000Y-75300000D03*
X137300000Y-80900000D03*
%TD*%
D16*
%TO.C,R303*%
X140155000Y-86550000D03*
X139135000Y-86550000D03*
%TD*%
%TO.C,R113*%
X151710000Y-71600000D03*
X150690000Y-71600000D03*
%TD*%
D13*
%TO.C,R105*%
X187690000Y-95400000D03*
X188710000Y-95400000D03*
%TD*%
D29*
%TO.C,D104*%
X152300000Y-81687500D03*
X152300000Y-80112500D03*
%TD*%
D30*
%TO.C,D301*%
X146225000Y-84762500D03*
X146225000Y-86337500D03*
%TD*%
D19*
%TO.C,C117*%
X163600000Y-60525000D03*
X163600000Y-62075000D03*
%TD*%
D31*
%TO.C,J103*%
X174700000Y-55000000D03*
X174700000Y-58900000D03*
X173430000Y-55000000D03*
X173430000Y-58900000D03*
X172160000Y-55000000D03*
X172160000Y-58900000D03*
X170890000Y-55000000D03*
X170890000Y-58900000D03*
X169620000Y-55000000D03*
X169620000Y-58900000D03*
X168350000Y-55000000D03*
X168350000Y-58900000D03*
X167080000Y-55000000D03*
X167080000Y-58900000D03*
%TD*%
D13*
%TO.C,R401*%
X176340000Y-68500000D03*
X177360000Y-68500000D03*
%TD*%
D32*
%TO.C,H104*%
X188000000Y-99000000D03*
%TD*%
D33*
%TO.C,J105*%
X130525000Y-77500000D03*
D34*
X130525000Y-80000000D03*
%TD*%
D15*
%TO.C,R108*%
X152300000Y-77890000D03*
X152300000Y-78910000D03*
%TD*%
D35*
%TO.C,C114*%
X149600000Y-71120000D03*
X149600000Y-72080000D03*
%TD*%
D14*
%TO.C,C202*%
X157460000Y-95300000D03*
X156500000Y-95300000D03*
%TD*%
D21*
%TO.C,J107*%
X181000000Y-77500000D03*
D22*
X181000000Y-75000000D03*
X181000000Y-72500000D03*
X181000000Y-70000000D03*
%TD*%
D14*
%TO.C,C501*%
X177330000Y-65600000D03*
X176370000Y-65600000D03*
%TD*%
D30*
%TO.C,D201*%
X164825000Y-84762500D03*
X164825000Y-86337500D03*
%TD*%
D14*
%TO.C,C201*%
X159460000Y-95300000D03*
X158500000Y-95300000D03*
%TD*%
D36*
%TO.C,U102*%
X142490000Y-67010000D03*
X143760000Y-67010000D03*
X145030000Y-67010000D03*
D37*
X146300000Y-57420000D03*
D36*
X146300000Y-67010000D03*
X147570000Y-67010000D03*
X148840000Y-67010000D03*
X150110000Y-67010000D03*
%TD*%
D21*
%TO.C,J110*%
X187800000Y-77500000D03*
D22*
X187800000Y-75000000D03*
X187800000Y-72500000D03*
X187800000Y-70000000D03*
%TD*%
D38*
%TO.C,CR101*%
X134344619Y-70063492D03*
X134344619Y-71903492D03*
D39*
X137494619Y-70983492D03*
D40*
X140154619Y-70983492D03*
%TD*%
D15*
%TO.C,R207*%
X163575000Y-85590000D03*
X163575000Y-86610000D03*
%TD*%
D29*
%TO.C,D106*%
X146300000Y-81687500D03*
X146300000Y-80112500D03*
%TD*%
D13*
%TO.C,R114*%
X176690000Y-95400000D03*
X177710000Y-95400000D03*
%TD*%
D41*
%TO.C,R206*%
X168875000Y-93862500D03*
X168875000Y-87937500D03*
%TD*%
D16*
%TO.C,R502*%
X177360000Y-66550000D03*
X176340000Y-66550000D03*
%TD*%
D10*
%TO.C,SW601*%
X166925000Y-75550000D03*
X174875000Y-75550000D03*
X166925000Y-80050000D03*
X174875000Y-80050000D03*
%TD*%
D14*
%TO.C,C101*%
X164455000Y-78000000D03*
X163495000Y-78000000D03*
%TD*%
D10*
%TO.C,SW401*%
X166925000Y-68950000D03*
X174875000Y-68950000D03*
X166925000Y-73450000D03*
X174875000Y-73450000D03*
%TD*%
D15*
%TO.C,R120*%
X147800000Y-77890000D03*
X147800000Y-78910000D03*
%TD*%
D13*
%TO.C,R301*%
X141025000Y-86550000D03*
X142045000Y-86550000D03*
%TD*%
D16*
%TO.C,R302*%
X142045000Y-85550000D03*
X141025000Y-85550000D03*
%TD*%
D41*
%TO.C,R305*%
X136175000Y-93862500D03*
X136175000Y-87937500D03*
%TD*%
D16*
%TO.C,R109*%
X186810000Y-95400000D03*
X185790000Y-95400000D03*
%TD*%
%TO.C,R202*%
X160645000Y-85550000D03*
X159625000Y-85550000D03*
%TD*%
D42*
%TO.C,J112*%
X139570000Y-98750000D03*
D43*
X142070000Y-98750000D03*
X144570000Y-98750000D03*
X147070000Y-98750000D03*
%TD*%
D29*
%TO.C,D102*%
X149300000Y-81687500D03*
X149300000Y-80112500D03*
%TD*%
D42*
%TO.C,J102*%
X177200000Y-98750000D03*
D43*
X179700000Y-98750000D03*
X182200000Y-98750000D03*
%TD*%
D16*
%TO.C,R402*%
X177360000Y-69450000D03*
X176340000Y-69450000D03*
%TD*%
D14*
%TO.C,C303*%
X148375000Y-86550000D03*
X147415000Y-86550000D03*
%TD*%
D44*
%TO.C,SW101*%
X130025000Y-63300000D03*
X130025000Y-68000000D03*
X130025000Y-72700000D03*
%TD*%
D45*
%TO.C,C107*%
X183520000Y-81800000D03*
X184480000Y-81800000D03*
%TD*%
D14*
%TO.C,C110*%
X175780000Y-95400000D03*
X174820000Y-95400000D03*
%TD*%
D13*
%TO.C,R601*%
X176340000Y-76550000D03*
X177360000Y-76550000D03*
%TD*%
D41*
%TO.C,R205*%
X154775000Y-93862500D03*
X154775000Y-87937500D03*
%TD*%
D29*
%TO.C,D101*%
X141800000Y-81687500D03*
X141800000Y-80112500D03*
%TD*%
D42*
%TO.C,J111*%
X158170000Y-98750000D03*
D43*
X160670000Y-98750000D03*
X163170000Y-98750000D03*
X165670000Y-98750000D03*
%TD*%
D13*
%TO.C,R112*%
X150690000Y-70600000D03*
X151710000Y-70600000D03*
%TD*%
D32*
%TO.C,H101*%
X130000000Y-50000000D03*
%TD*%
D15*
%TO.C,R110*%
X143300000Y-77890000D03*
X143300000Y-78910000D03*
%TD*%
D45*
%TO.C,C106*%
X189612129Y-95398128D03*
X190572129Y-95398128D03*
%TD*%
D29*
%TO.C,D105*%
X143300000Y-81687500D03*
X143300000Y-80112500D03*
%TD*%
D14*
%TO.C,C601*%
X177330000Y-74600000D03*
X176370000Y-74600000D03*
%TD*%
D15*
%TO.C,R104*%
X149300000Y-77890000D03*
X149300000Y-78910000D03*
%TD*%
D29*
%TO.C,D107*%
X144800000Y-81687500D03*
X144800000Y-80112500D03*
%TD*%
D46*
%TO.C,C115*%
X137000000Y-66700000D03*
X137000000Y-61300000D03*
%TD*%
D41*
%TO.C,R306*%
X150275000Y-93862500D03*
X150275000Y-87937500D03*
%TD*%
D26*
%TO.C,U201*%
X157575000Y-93762500D03*
X158225000Y-93762500D03*
X158875000Y-93762500D03*
X159525000Y-93762500D03*
X160175000Y-93762500D03*
X160825000Y-93762500D03*
X161475000Y-93762500D03*
X162125000Y-93762500D03*
X162775000Y-93762500D03*
X163425000Y-93762500D03*
X164075000Y-93762500D03*
X164725000Y-93762500D03*
X165375000Y-93762500D03*
X166025000Y-93762500D03*
X166025000Y-88037500D03*
X165375000Y-88037500D03*
X164725000Y-88037500D03*
X164075000Y-88037500D03*
X163425000Y-88037500D03*
X162775000Y-88037500D03*
X162125000Y-88037500D03*
X161475000Y-88037500D03*
X160825000Y-88037500D03*
X160175000Y-88037500D03*
X159525000Y-88037500D03*
X158875000Y-88037500D03*
X158225000Y-88037500D03*
X157575000Y-88037500D03*
D27*
X161800000Y-90900000D03*
%TD*%
D16*
%TO.C,R203*%
X158755000Y-86550000D03*
X157735000Y-86550000D03*
%TD*%
D15*
%TO.C,R106*%
X150800000Y-77890000D03*
X150800000Y-78910000D03*
%TD*%
D29*
%TO.C,D103*%
X150800000Y-81687500D03*
X150800000Y-80112500D03*
%TD*%
%TO.C,D108*%
X147800000Y-81687500D03*
X147800000Y-80112500D03*
%TD*%
D45*
%TO.C,C103*%
X161295000Y-79900000D03*
X162255000Y-79900000D03*
%TD*%
D33*
%TO.C,J104*%
X130512723Y-86008593D03*
D34*
X130512723Y-88508593D03*
%TD*%
D32*
%TO.C,H102*%
X188000000Y-50000000D03*
%TD*%
D14*
%TO.C,C401*%
X177341518Y-70428371D03*
X176381518Y-70428371D03*
%TD*%
D15*
%TO.C,R119*%
X144800000Y-77890000D03*
X144800000Y-78910000D03*
%TD*%
D10*
%TO.C,SW103*%
X163175000Y-58650000D03*
X155225000Y-58650000D03*
X163175000Y-54150000D03*
X155225000Y-54150000D03*
%TD*%
D14*
%TO.C,C111*%
X151680000Y-72600000D03*
X150720000Y-72600000D03*
%TD*%
D47*
%TO.C,C109*%
X153700000Y-56880000D03*
X153700000Y-55920000D03*
%TD*%
D13*
%TO.C,R117*%
X149680000Y-75400000D03*
X150700000Y-75400000D03*
%TD*%
D15*
%TO.C,R102*%
X141800000Y-77890000D03*
X141800000Y-78910000D03*
%TD*%
%TO.C,R307*%
X144975000Y-85590000D03*
X144975000Y-86610000D03*
%TD*%
D48*
%TO.C,L101*%
X145100000Y-70500000D03*
X145100000Y-75500000D03*
%TD*%
D33*
%TO.C,J106*%
X130525000Y-56050000D03*
D34*
X130525000Y-58550000D03*
%TD*%
D15*
%TO.C,R115*%
X149600000Y-69190000D03*
X149600000Y-70210000D03*
%TD*%
D14*
%TO.C,C301*%
X140858320Y-95322328D03*
X139898320Y-95322328D03*
%TD*%
D16*
%TO.C,R107*%
X186820000Y-81800000D03*
X185800000Y-81800000D03*
%TD*%
%TO.C,R602*%
X177360000Y-75560000D03*
X176340000Y-75560000D03*
%TD*%
%TO.C,R103*%
X188710000Y-81800000D03*
X187690000Y-81800000D03*
%TD*%
D47*
%TO.C,C102*%
X155410609Y-69905319D03*
X155410609Y-68945319D03*
%TD*%
D49*
%TO.C,J108*%
X178000000Y-61740000D03*
X178000000Y-59200000D03*
X178000000Y-56660000D03*
%TD*%
D32*
%TO.C,H103*%
X130000000Y-99000000D03*
%TD*%
D13*
%TO.C,R304*%
X139115000Y-85550000D03*
X140135000Y-85550000D03*
%TD*%
D45*
%TO.C,C113*%
X189620000Y-80899720D03*
X190580000Y-80899720D03*
%TD*%
D16*
%TO.C,R118*%
X150700000Y-74400000D03*
X149680000Y-74400000D03*
%TD*%
D45*
%TO.C,C105*%
X189620000Y-81829491D03*
X190580000Y-81829491D03*
%TD*%
D50*
%TO.C,J101*%
X134870000Y-51270000D03*
D51*
X134870000Y-48730000D03*
X137410000Y-51270000D03*
X137410000Y-48730000D03*
X139950000Y-51270000D03*
X139950000Y-48730000D03*
X142490000Y-51270000D03*
X142490000Y-48730000D03*
X145030000Y-51270000D03*
X145030000Y-48730000D03*
X147570000Y-51270000D03*
X147570000Y-48730000D03*
X150110000Y-51270000D03*
X150110000Y-48730000D03*
X152650000Y-51270000D03*
X152650000Y-48730000D03*
X155190000Y-51270000D03*
X155190000Y-48730000D03*
X157730000Y-51270000D03*
X157730000Y-48730000D03*
X160270000Y-51270000D03*
X160270000Y-48730000D03*
X162810000Y-51270000D03*
X162810000Y-48730000D03*
X165350000Y-51270000D03*
X165350000Y-48730000D03*
X167890000Y-51270000D03*
X167890000Y-48730000D03*
X170430000Y-51270000D03*
X170430000Y-48730000D03*
X172970000Y-51270000D03*
X172970000Y-48730000D03*
X175510000Y-51270000D03*
X175510000Y-48730000D03*
X178050000Y-51270000D03*
X178050000Y-48730000D03*
X180590000Y-51270000D03*
X180590000Y-48730000D03*
X183130000Y-51270000D03*
X183130000Y-48730000D03*
%TD*%
M02*
