%TF.GenerationSoftware,KiCad,Pcbnew,8.0.0-8.0.0-1~ubuntu22.04.1*%
%TF.CreationDate,2024-03-30T12:30:56+01:00*%
%TF.ProjectId,PAMI_mb,50414d49-5f6d-4622-9e6b-696361645f70,rev?*%
%TF.SameCoordinates,Original*%
%TF.FileFunction,Legend,Bot*%
%TF.FilePolarity,Positive*%
%FSLAX46Y46*%
G04 Gerber Fmt 4.6, Leading zero omitted, Abs format (unit mm)*
G04 Created by KiCad (PCBNEW 8.0.0-8.0.0-1~ubuntu22.04.1) date 2024-03-30 12:30:56*
%MOMM*%
%LPD*%
G01*
G04 APERTURE LIST*
%ADD10C,0.100000*%
%ADD11C,0.150000*%
%ADD12C,0.120000*%
G04 APERTURE END LIST*
D10*
X151195392Y-82897732D02*
X150395392Y-82897732D01*
X150395392Y-82897732D02*
X150395392Y-83088208D01*
X150395392Y-83088208D02*
X150433487Y-83202494D01*
X150433487Y-83202494D02*
X150509677Y-83278684D01*
X150509677Y-83278684D02*
X150585868Y-83316779D01*
X150585868Y-83316779D02*
X150738249Y-83354875D01*
X150738249Y-83354875D02*
X150852535Y-83354875D01*
X150852535Y-83354875D02*
X151004916Y-83316779D01*
X151004916Y-83316779D02*
X151081106Y-83278684D01*
X151081106Y-83278684D02*
X151157297Y-83202494D01*
X151157297Y-83202494D02*
X151195392Y-83088208D01*
X151195392Y-83088208D02*
X151195392Y-82897732D01*
X151195392Y-84116779D02*
X151195392Y-83659636D01*
X151195392Y-83888208D02*
X150395392Y-83888208D01*
X150395392Y-83888208D02*
X150509677Y-83812017D01*
X150509677Y-83812017D02*
X150585868Y-83735827D01*
X150585868Y-83735827D02*
X150623963Y-83659636D01*
X150395392Y-84612018D02*
X150395392Y-84688208D01*
X150395392Y-84688208D02*
X150433487Y-84764399D01*
X150433487Y-84764399D02*
X150471582Y-84802494D01*
X150471582Y-84802494D02*
X150547773Y-84840589D01*
X150547773Y-84840589D02*
X150700154Y-84878684D01*
X150700154Y-84878684D02*
X150890630Y-84878684D01*
X150890630Y-84878684D02*
X151043011Y-84840589D01*
X151043011Y-84840589D02*
X151119201Y-84802494D01*
X151119201Y-84802494D02*
X151157297Y-84764399D01*
X151157297Y-84764399D02*
X151195392Y-84688208D01*
X151195392Y-84688208D02*
X151195392Y-84612018D01*
X151195392Y-84612018D02*
X151157297Y-84535827D01*
X151157297Y-84535827D02*
X151119201Y-84497732D01*
X151119201Y-84497732D02*
X151043011Y-84459637D01*
X151043011Y-84459637D02*
X150890630Y-84421541D01*
X150890630Y-84421541D02*
X150700154Y-84421541D01*
X150700154Y-84421541D02*
X150547773Y-84459637D01*
X150547773Y-84459637D02*
X150471582Y-84497732D01*
X150471582Y-84497732D02*
X150433487Y-84535827D01*
X150433487Y-84535827D02*
X150395392Y-84612018D01*
X150395392Y-85145351D02*
X150395392Y-85640589D01*
X150395392Y-85640589D02*
X150700154Y-85373923D01*
X150700154Y-85373923D02*
X150700154Y-85488208D01*
X150700154Y-85488208D02*
X150738249Y-85564399D01*
X150738249Y-85564399D02*
X150776344Y-85602494D01*
X150776344Y-85602494D02*
X150852535Y-85640589D01*
X150852535Y-85640589D02*
X151043011Y-85640589D01*
X151043011Y-85640589D02*
X151119201Y-85602494D01*
X151119201Y-85602494D02*
X151157297Y-85564399D01*
X151157297Y-85564399D02*
X151195392Y-85488208D01*
X151195392Y-85488208D02*
X151195392Y-85259637D01*
X151195392Y-85259637D02*
X151157297Y-85183446D01*
X151157297Y-85183446D02*
X151119201Y-85145351D01*
X149653703Y-82849928D02*
X148853703Y-82849928D01*
X148853703Y-82849928D02*
X148853703Y-83040404D01*
X148853703Y-83040404D02*
X148891798Y-83154690D01*
X148891798Y-83154690D02*
X148967988Y-83230880D01*
X148967988Y-83230880D02*
X149044179Y-83268975D01*
X149044179Y-83268975D02*
X149196560Y-83307071D01*
X149196560Y-83307071D02*
X149310846Y-83307071D01*
X149310846Y-83307071D02*
X149463227Y-83268975D01*
X149463227Y-83268975D02*
X149539417Y-83230880D01*
X149539417Y-83230880D02*
X149615608Y-83154690D01*
X149615608Y-83154690D02*
X149653703Y-83040404D01*
X149653703Y-83040404D02*
X149653703Y-82849928D01*
X149653703Y-84068975D02*
X149653703Y-83611832D01*
X149653703Y-83840404D02*
X148853703Y-83840404D01*
X148853703Y-83840404D02*
X148967988Y-83764213D01*
X148967988Y-83764213D02*
X149044179Y-83688023D01*
X149044179Y-83688023D02*
X149082274Y-83611832D01*
X148853703Y-84564214D02*
X148853703Y-84640404D01*
X148853703Y-84640404D02*
X148891798Y-84716595D01*
X148891798Y-84716595D02*
X148929893Y-84754690D01*
X148929893Y-84754690D02*
X149006084Y-84792785D01*
X149006084Y-84792785D02*
X149158465Y-84830880D01*
X149158465Y-84830880D02*
X149348941Y-84830880D01*
X149348941Y-84830880D02*
X149501322Y-84792785D01*
X149501322Y-84792785D02*
X149577512Y-84754690D01*
X149577512Y-84754690D02*
X149615608Y-84716595D01*
X149615608Y-84716595D02*
X149653703Y-84640404D01*
X149653703Y-84640404D02*
X149653703Y-84564214D01*
X149653703Y-84564214D02*
X149615608Y-84488023D01*
X149615608Y-84488023D02*
X149577512Y-84449928D01*
X149577512Y-84449928D02*
X149501322Y-84411833D01*
X149501322Y-84411833D02*
X149348941Y-84373737D01*
X149348941Y-84373737D02*
X149158465Y-84373737D01*
X149158465Y-84373737D02*
X149006084Y-84411833D01*
X149006084Y-84411833D02*
X148929893Y-84449928D01*
X148929893Y-84449928D02*
X148891798Y-84488023D01*
X148891798Y-84488023D02*
X148853703Y-84564214D01*
X148929893Y-85135642D02*
X148891798Y-85173738D01*
X148891798Y-85173738D02*
X148853703Y-85249928D01*
X148853703Y-85249928D02*
X148853703Y-85440404D01*
X148853703Y-85440404D02*
X148891798Y-85516595D01*
X148891798Y-85516595D02*
X148929893Y-85554690D01*
X148929893Y-85554690D02*
X149006084Y-85592785D01*
X149006084Y-85592785D02*
X149082274Y-85592785D01*
X149082274Y-85592785D02*
X149196560Y-85554690D01*
X149196560Y-85554690D02*
X149653703Y-85097547D01*
X149653703Y-85097547D02*
X149653703Y-85592785D01*
X142320535Y-82907458D02*
X141520535Y-82907458D01*
X141520535Y-82907458D02*
X141520535Y-83097934D01*
X141520535Y-83097934D02*
X141558630Y-83212220D01*
X141558630Y-83212220D02*
X141634820Y-83288410D01*
X141634820Y-83288410D02*
X141711011Y-83326505D01*
X141711011Y-83326505D02*
X141863392Y-83364601D01*
X141863392Y-83364601D02*
X141977678Y-83364601D01*
X141977678Y-83364601D02*
X142130059Y-83326505D01*
X142130059Y-83326505D02*
X142206249Y-83288410D01*
X142206249Y-83288410D02*
X142282440Y-83212220D01*
X142282440Y-83212220D02*
X142320535Y-83097934D01*
X142320535Y-83097934D02*
X142320535Y-82907458D01*
X142320535Y-84126505D02*
X142320535Y-83669362D01*
X142320535Y-83897934D02*
X141520535Y-83897934D01*
X141520535Y-83897934D02*
X141634820Y-83821743D01*
X141634820Y-83821743D02*
X141711011Y-83745553D01*
X141711011Y-83745553D02*
X141749106Y-83669362D01*
X141520535Y-84621744D02*
X141520535Y-84697934D01*
X141520535Y-84697934D02*
X141558630Y-84774125D01*
X141558630Y-84774125D02*
X141596725Y-84812220D01*
X141596725Y-84812220D02*
X141672916Y-84850315D01*
X141672916Y-84850315D02*
X141825297Y-84888410D01*
X141825297Y-84888410D02*
X142015773Y-84888410D01*
X142015773Y-84888410D02*
X142168154Y-84850315D01*
X142168154Y-84850315D02*
X142244344Y-84812220D01*
X142244344Y-84812220D02*
X142282440Y-84774125D01*
X142282440Y-84774125D02*
X142320535Y-84697934D01*
X142320535Y-84697934D02*
X142320535Y-84621744D01*
X142320535Y-84621744D02*
X142282440Y-84545553D01*
X142282440Y-84545553D02*
X142244344Y-84507458D01*
X142244344Y-84507458D02*
X142168154Y-84469363D01*
X142168154Y-84469363D02*
X142015773Y-84431267D01*
X142015773Y-84431267D02*
X141825297Y-84431267D01*
X141825297Y-84431267D02*
X141672916Y-84469363D01*
X141672916Y-84469363D02*
X141596725Y-84507458D01*
X141596725Y-84507458D02*
X141558630Y-84545553D01*
X141558630Y-84545553D02*
X141520535Y-84621744D01*
X142320535Y-85650315D02*
X142320535Y-85193172D01*
X142320535Y-85421744D02*
X141520535Y-85421744D01*
X141520535Y-85421744D02*
X141634820Y-85345553D01*
X141634820Y-85345553D02*
X141711011Y-85269363D01*
X141711011Y-85269363D02*
X141749106Y-85193172D01*
X149376603Y-77635865D02*
X148995650Y-77369198D01*
X149376603Y-77178722D02*
X148576603Y-77178722D01*
X148576603Y-77178722D02*
X148576603Y-77483484D01*
X148576603Y-77483484D02*
X148614698Y-77559674D01*
X148614698Y-77559674D02*
X148652793Y-77597769D01*
X148652793Y-77597769D02*
X148728984Y-77635865D01*
X148728984Y-77635865D02*
X148843269Y-77635865D01*
X148843269Y-77635865D02*
X148919460Y-77597769D01*
X148919460Y-77597769D02*
X148957555Y-77559674D01*
X148957555Y-77559674D02*
X148995650Y-77483484D01*
X148995650Y-77483484D02*
X148995650Y-77178722D01*
X149376603Y-78397769D02*
X149376603Y-77940626D01*
X149376603Y-78169198D02*
X148576603Y-78169198D01*
X148576603Y-78169198D02*
X148690888Y-78093007D01*
X148690888Y-78093007D02*
X148767079Y-78016817D01*
X148767079Y-78016817D02*
X148805174Y-77940626D01*
X148576603Y-78893008D02*
X148576603Y-78969198D01*
X148576603Y-78969198D02*
X148614698Y-79045389D01*
X148614698Y-79045389D02*
X148652793Y-79083484D01*
X148652793Y-79083484D02*
X148728984Y-79121579D01*
X148728984Y-79121579D02*
X148881365Y-79159674D01*
X148881365Y-79159674D02*
X149071841Y-79159674D01*
X149071841Y-79159674D02*
X149224222Y-79121579D01*
X149224222Y-79121579D02*
X149300412Y-79083484D01*
X149300412Y-79083484D02*
X149338508Y-79045389D01*
X149338508Y-79045389D02*
X149376603Y-78969198D01*
X149376603Y-78969198D02*
X149376603Y-78893008D01*
X149376603Y-78893008D02*
X149338508Y-78816817D01*
X149338508Y-78816817D02*
X149300412Y-78778722D01*
X149300412Y-78778722D02*
X149224222Y-78740627D01*
X149224222Y-78740627D02*
X149071841Y-78702531D01*
X149071841Y-78702531D02*
X148881365Y-78702531D01*
X148881365Y-78702531D02*
X148728984Y-78740627D01*
X148728984Y-78740627D02*
X148652793Y-78778722D01*
X148652793Y-78778722D02*
X148614698Y-78816817D01*
X148614698Y-78816817D02*
X148576603Y-78893008D01*
X148843269Y-79845389D02*
X149376603Y-79845389D01*
X148538508Y-79654913D02*
X149109936Y-79464436D01*
X149109936Y-79464436D02*
X149109936Y-79959675D01*
X152157873Y-77613908D02*
X151776920Y-77347241D01*
X152157873Y-77156765D02*
X151357873Y-77156765D01*
X151357873Y-77156765D02*
X151357873Y-77461527D01*
X151357873Y-77461527D02*
X151395968Y-77537717D01*
X151395968Y-77537717D02*
X151434063Y-77575812D01*
X151434063Y-77575812D02*
X151510254Y-77613908D01*
X151510254Y-77613908D02*
X151624539Y-77613908D01*
X151624539Y-77613908D02*
X151700730Y-77575812D01*
X151700730Y-77575812D02*
X151738825Y-77537717D01*
X151738825Y-77537717D02*
X151776920Y-77461527D01*
X151776920Y-77461527D02*
X151776920Y-77156765D01*
X152157873Y-78375812D02*
X152157873Y-77918669D01*
X152157873Y-78147241D02*
X151357873Y-78147241D01*
X151357873Y-78147241D02*
X151472158Y-78071050D01*
X151472158Y-78071050D02*
X151548349Y-77994860D01*
X151548349Y-77994860D02*
X151586444Y-77918669D01*
X151357873Y-78871051D02*
X151357873Y-78947241D01*
X151357873Y-78947241D02*
X151395968Y-79023432D01*
X151395968Y-79023432D02*
X151434063Y-79061527D01*
X151434063Y-79061527D02*
X151510254Y-79099622D01*
X151510254Y-79099622D02*
X151662635Y-79137717D01*
X151662635Y-79137717D02*
X151853111Y-79137717D01*
X151853111Y-79137717D02*
X152005492Y-79099622D01*
X152005492Y-79099622D02*
X152081682Y-79061527D01*
X152081682Y-79061527D02*
X152119778Y-79023432D01*
X152119778Y-79023432D02*
X152157873Y-78947241D01*
X152157873Y-78947241D02*
X152157873Y-78871051D01*
X152157873Y-78871051D02*
X152119778Y-78794860D01*
X152119778Y-78794860D02*
X152081682Y-78756765D01*
X152081682Y-78756765D02*
X152005492Y-78718670D01*
X152005492Y-78718670D02*
X151853111Y-78680574D01*
X151853111Y-78680574D02*
X151662635Y-78680574D01*
X151662635Y-78680574D02*
X151510254Y-78718670D01*
X151510254Y-78718670D02*
X151434063Y-78756765D01*
X151434063Y-78756765D02*
X151395968Y-78794860D01*
X151395968Y-78794860D02*
X151357873Y-78871051D01*
X151700730Y-79594860D02*
X151662635Y-79518670D01*
X151662635Y-79518670D02*
X151624539Y-79480575D01*
X151624539Y-79480575D02*
X151548349Y-79442479D01*
X151548349Y-79442479D02*
X151510254Y-79442479D01*
X151510254Y-79442479D02*
X151434063Y-79480575D01*
X151434063Y-79480575D02*
X151395968Y-79518670D01*
X151395968Y-79518670D02*
X151357873Y-79594860D01*
X151357873Y-79594860D02*
X151357873Y-79747241D01*
X151357873Y-79747241D02*
X151395968Y-79823432D01*
X151395968Y-79823432D02*
X151434063Y-79861527D01*
X151434063Y-79861527D02*
X151510254Y-79899622D01*
X151510254Y-79899622D02*
X151548349Y-79899622D01*
X151548349Y-79899622D02*
X151624539Y-79861527D01*
X151624539Y-79861527D02*
X151662635Y-79823432D01*
X151662635Y-79823432D02*
X151700730Y-79747241D01*
X151700730Y-79747241D02*
X151700730Y-79594860D01*
X151700730Y-79594860D02*
X151738825Y-79518670D01*
X151738825Y-79518670D02*
X151776920Y-79480575D01*
X151776920Y-79480575D02*
X151853111Y-79442479D01*
X151853111Y-79442479D02*
X152005492Y-79442479D01*
X152005492Y-79442479D02*
X152081682Y-79480575D01*
X152081682Y-79480575D02*
X152119778Y-79518670D01*
X152119778Y-79518670D02*
X152157873Y-79594860D01*
X152157873Y-79594860D02*
X152157873Y-79747241D01*
X152157873Y-79747241D02*
X152119778Y-79823432D01*
X152119778Y-79823432D02*
X152081682Y-79861527D01*
X152081682Y-79861527D02*
X152005492Y-79899622D01*
X152005492Y-79899622D02*
X151853111Y-79899622D01*
X151853111Y-79899622D02*
X151776920Y-79861527D01*
X151776920Y-79861527D02*
X151738825Y-79823432D01*
X151738825Y-79823432D02*
X151700730Y-79747241D01*
X146649812Y-82746119D02*
X145849812Y-82746119D01*
X145849812Y-82746119D02*
X145849812Y-82936595D01*
X145849812Y-82936595D02*
X145887907Y-83050881D01*
X145887907Y-83050881D02*
X145964097Y-83127071D01*
X145964097Y-83127071D02*
X146040288Y-83165166D01*
X146040288Y-83165166D02*
X146192669Y-83203262D01*
X146192669Y-83203262D02*
X146306955Y-83203262D01*
X146306955Y-83203262D02*
X146459336Y-83165166D01*
X146459336Y-83165166D02*
X146535526Y-83127071D01*
X146535526Y-83127071D02*
X146611717Y-83050881D01*
X146611717Y-83050881D02*
X146649812Y-82936595D01*
X146649812Y-82936595D02*
X146649812Y-82746119D01*
X146649812Y-83965166D02*
X146649812Y-83508023D01*
X146649812Y-83736595D02*
X145849812Y-83736595D01*
X145849812Y-83736595D02*
X145964097Y-83660404D01*
X145964097Y-83660404D02*
X146040288Y-83584214D01*
X146040288Y-83584214D02*
X146078383Y-83508023D01*
X145849812Y-84460405D02*
X145849812Y-84536595D01*
X145849812Y-84536595D02*
X145887907Y-84612786D01*
X145887907Y-84612786D02*
X145926002Y-84650881D01*
X145926002Y-84650881D02*
X146002193Y-84688976D01*
X146002193Y-84688976D02*
X146154574Y-84727071D01*
X146154574Y-84727071D02*
X146345050Y-84727071D01*
X146345050Y-84727071D02*
X146497431Y-84688976D01*
X146497431Y-84688976D02*
X146573621Y-84650881D01*
X146573621Y-84650881D02*
X146611717Y-84612786D01*
X146611717Y-84612786D02*
X146649812Y-84536595D01*
X146649812Y-84536595D02*
X146649812Y-84460405D01*
X146649812Y-84460405D02*
X146611717Y-84384214D01*
X146611717Y-84384214D02*
X146573621Y-84346119D01*
X146573621Y-84346119D02*
X146497431Y-84308024D01*
X146497431Y-84308024D02*
X146345050Y-84269928D01*
X146345050Y-84269928D02*
X146154574Y-84269928D01*
X146154574Y-84269928D02*
X146002193Y-84308024D01*
X146002193Y-84308024D02*
X145926002Y-84346119D01*
X145926002Y-84346119D02*
X145887907Y-84384214D01*
X145887907Y-84384214D02*
X145849812Y-84460405D01*
X145849812Y-85412786D02*
X145849812Y-85260405D01*
X145849812Y-85260405D02*
X145887907Y-85184214D01*
X145887907Y-85184214D02*
X145926002Y-85146119D01*
X145926002Y-85146119D02*
X146040288Y-85069929D01*
X146040288Y-85069929D02*
X146192669Y-85031833D01*
X146192669Y-85031833D02*
X146497431Y-85031833D01*
X146497431Y-85031833D02*
X146573621Y-85069929D01*
X146573621Y-85069929D02*
X146611717Y-85108024D01*
X146611717Y-85108024D02*
X146649812Y-85184214D01*
X146649812Y-85184214D02*
X146649812Y-85336595D01*
X146649812Y-85336595D02*
X146611717Y-85412786D01*
X146611717Y-85412786D02*
X146573621Y-85450881D01*
X146573621Y-85450881D02*
X146497431Y-85488976D01*
X146497431Y-85488976D02*
X146306955Y-85488976D01*
X146306955Y-85488976D02*
X146230764Y-85450881D01*
X146230764Y-85450881D02*
X146192669Y-85412786D01*
X146192669Y-85412786D02*
X146154574Y-85336595D01*
X146154574Y-85336595D02*
X146154574Y-85184214D01*
X146154574Y-85184214D02*
X146192669Y-85108024D01*
X146192669Y-85108024D02*
X146230764Y-85069929D01*
X146230764Y-85069929D02*
X146306955Y-85031833D01*
D11*
X161530176Y-56602938D02*
X161387319Y-56650557D01*
X161387319Y-56650557D02*
X161149224Y-56650557D01*
X161149224Y-56650557D02*
X161053986Y-56602938D01*
X161053986Y-56602938D02*
X161006367Y-56555318D01*
X161006367Y-56555318D02*
X160958748Y-56460080D01*
X160958748Y-56460080D02*
X160958748Y-56364842D01*
X160958748Y-56364842D02*
X161006367Y-56269604D01*
X161006367Y-56269604D02*
X161053986Y-56221985D01*
X161053986Y-56221985D02*
X161149224Y-56174366D01*
X161149224Y-56174366D02*
X161339700Y-56126747D01*
X161339700Y-56126747D02*
X161434938Y-56079128D01*
X161434938Y-56079128D02*
X161482557Y-56031509D01*
X161482557Y-56031509D02*
X161530176Y-55936271D01*
X161530176Y-55936271D02*
X161530176Y-55841033D01*
X161530176Y-55841033D02*
X161482557Y-55745795D01*
X161482557Y-55745795D02*
X161434938Y-55698176D01*
X161434938Y-55698176D02*
X161339700Y-55650557D01*
X161339700Y-55650557D02*
X161101605Y-55650557D01*
X161101605Y-55650557D02*
X160958748Y-55698176D01*
X160625414Y-55650557D02*
X160387319Y-56650557D01*
X160387319Y-56650557D02*
X160196843Y-55936271D01*
X160196843Y-55936271D02*
X160006367Y-56650557D01*
X160006367Y-56650557D02*
X159768272Y-55650557D01*
X158863510Y-56650557D02*
X159434938Y-56650557D01*
X159149224Y-56650557D02*
X159149224Y-55650557D01*
X159149224Y-55650557D02*
X159244462Y-55793414D01*
X159244462Y-55793414D02*
X159339700Y-55888652D01*
X159339700Y-55888652D02*
X159434938Y-55936271D01*
X158244462Y-55650557D02*
X158149224Y-55650557D01*
X158149224Y-55650557D02*
X158053986Y-55698176D01*
X158053986Y-55698176D02*
X158006367Y-55745795D01*
X158006367Y-55745795D02*
X157958748Y-55841033D01*
X157958748Y-55841033D02*
X157911129Y-56031509D01*
X157911129Y-56031509D02*
X157911129Y-56269604D01*
X157911129Y-56269604D02*
X157958748Y-56460080D01*
X157958748Y-56460080D02*
X158006367Y-56555318D01*
X158006367Y-56555318D02*
X158053986Y-56602938D01*
X158053986Y-56602938D02*
X158149224Y-56650557D01*
X158149224Y-56650557D02*
X158244462Y-56650557D01*
X158244462Y-56650557D02*
X158339700Y-56602938D01*
X158339700Y-56602938D02*
X158387319Y-56555318D01*
X158387319Y-56555318D02*
X158434938Y-56460080D01*
X158434938Y-56460080D02*
X158482557Y-56269604D01*
X158482557Y-56269604D02*
X158482557Y-56031509D01*
X158482557Y-56031509D02*
X158434938Y-55841033D01*
X158434938Y-55841033D02*
X158387319Y-55745795D01*
X158387319Y-55745795D02*
X158339700Y-55698176D01*
X158339700Y-55698176D02*
X158244462Y-55650557D01*
X157577795Y-55650557D02*
X156958748Y-55650557D01*
X156958748Y-55650557D02*
X157292081Y-56031509D01*
X157292081Y-56031509D02*
X157149224Y-56031509D01*
X157149224Y-56031509D02*
X157053986Y-56079128D01*
X157053986Y-56079128D02*
X157006367Y-56126747D01*
X157006367Y-56126747D02*
X156958748Y-56221985D01*
X156958748Y-56221985D02*
X156958748Y-56460080D01*
X156958748Y-56460080D02*
X157006367Y-56555318D01*
X157006367Y-56555318D02*
X157053986Y-56602938D01*
X157053986Y-56602938D02*
X157149224Y-56650557D01*
X157149224Y-56650557D02*
X157434938Y-56650557D01*
X157434938Y-56650557D02*
X157530176Y-56602938D01*
X157530176Y-56602938D02*
X157577795Y-56555318D01*
D10*
X148159818Y-82861879D02*
X147359818Y-82861879D01*
X147359818Y-82861879D02*
X147359818Y-83052355D01*
X147359818Y-83052355D02*
X147397913Y-83166641D01*
X147397913Y-83166641D02*
X147474103Y-83242831D01*
X147474103Y-83242831D02*
X147550294Y-83280926D01*
X147550294Y-83280926D02*
X147702675Y-83319022D01*
X147702675Y-83319022D02*
X147816961Y-83319022D01*
X147816961Y-83319022D02*
X147969342Y-83280926D01*
X147969342Y-83280926D02*
X148045532Y-83242831D01*
X148045532Y-83242831D02*
X148121723Y-83166641D01*
X148121723Y-83166641D02*
X148159818Y-83052355D01*
X148159818Y-83052355D02*
X148159818Y-82861879D01*
X148159818Y-84080926D02*
X148159818Y-83623783D01*
X148159818Y-83852355D02*
X147359818Y-83852355D01*
X147359818Y-83852355D02*
X147474103Y-83776164D01*
X147474103Y-83776164D02*
X147550294Y-83699974D01*
X147550294Y-83699974D02*
X147588389Y-83623783D01*
X147359818Y-84576165D02*
X147359818Y-84652355D01*
X147359818Y-84652355D02*
X147397913Y-84728546D01*
X147397913Y-84728546D02*
X147436008Y-84766641D01*
X147436008Y-84766641D02*
X147512199Y-84804736D01*
X147512199Y-84804736D02*
X147664580Y-84842831D01*
X147664580Y-84842831D02*
X147855056Y-84842831D01*
X147855056Y-84842831D02*
X148007437Y-84804736D01*
X148007437Y-84804736D02*
X148083627Y-84766641D01*
X148083627Y-84766641D02*
X148121723Y-84728546D01*
X148121723Y-84728546D02*
X148159818Y-84652355D01*
X148159818Y-84652355D02*
X148159818Y-84576165D01*
X148159818Y-84576165D02*
X148121723Y-84499974D01*
X148121723Y-84499974D02*
X148083627Y-84461879D01*
X148083627Y-84461879D02*
X148007437Y-84423784D01*
X148007437Y-84423784D02*
X147855056Y-84385688D01*
X147855056Y-84385688D02*
X147664580Y-84385688D01*
X147664580Y-84385688D02*
X147512199Y-84423784D01*
X147512199Y-84423784D02*
X147436008Y-84461879D01*
X147436008Y-84461879D02*
X147397913Y-84499974D01*
X147397913Y-84499974D02*
X147359818Y-84576165D01*
X147702675Y-85299974D02*
X147664580Y-85223784D01*
X147664580Y-85223784D02*
X147626484Y-85185689D01*
X147626484Y-85185689D02*
X147550294Y-85147593D01*
X147550294Y-85147593D02*
X147512199Y-85147593D01*
X147512199Y-85147593D02*
X147436008Y-85185689D01*
X147436008Y-85185689D02*
X147397913Y-85223784D01*
X147397913Y-85223784D02*
X147359818Y-85299974D01*
X147359818Y-85299974D02*
X147359818Y-85452355D01*
X147359818Y-85452355D02*
X147397913Y-85528546D01*
X147397913Y-85528546D02*
X147436008Y-85566641D01*
X147436008Y-85566641D02*
X147512199Y-85604736D01*
X147512199Y-85604736D02*
X147550294Y-85604736D01*
X147550294Y-85604736D02*
X147626484Y-85566641D01*
X147626484Y-85566641D02*
X147664580Y-85528546D01*
X147664580Y-85528546D02*
X147702675Y-85452355D01*
X147702675Y-85452355D02*
X147702675Y-85299974D01*
X147702675Y-85299974D02*
X147740770Y-85223784D01*
X147740770Y-85223784D02*
X147778865Y-85185689D01*
X147778865Y-85185689D02*
X147855056Y-85147593D01*
X147855056Y-85147593D02*
X148007437Y-85147593D01*
X148007437Y-85147593D02*
X148083627Y-85185689D01*
X148083627Y-85185689D02*
X148121723Y-85223784D01*
X148121723Y-85223784D02*
X148159818Y-85299974D01*
X148159818Y-85299974D02*
X148159818Y-85452355D01*
X148159818Y-85452355D02*
X148121723Y-85528546D01*
X148121723Y-85528546D02*
X148083627Y-85566641D01*
X148083627Y-85566641D02*
X148007437Y-85604736D01*
X148007437Y-85604736D02*
X147855056Y-85604736D01*
X147855056Y-85604736D02*
X147778865Y-85566641D01*
X147778865Y-85566641D02*
X147740770Y-85528546D01*
X147740770Y-85528546D02*
X147702675Y-85452355D01*
X144747459Y-77583984D02*
X144366506Y-77317317D01*
X144747459Y-77126841D02*
X143947459Y-77126841D01*
X143947459Y-77126841D02*
X143947459Y-77431603D01*
X143947459Y-77431603D02*
X143985554Y-77507793D01*
X143985554Y-77507793D02*
X144023649Y-77545888D01*
X144023649Y-77545888D02*
X144099840Y-77583984D01*
X144099840Y-77583984D02*
X144214125Y-77583984D01*
X144214125Y-77583984D02*
X144290316Y-77545888D01*
X144290316Y-77545888D02*
X144328411Y-77507793D01*
X144328411Y-77507793D02*
X144366506Y-77431603D01*
X144366506Y-77431603D02*
X144366506Y-77126841D01*
X144747459Y-78345888D02*
X144747459Y-77888745D01*
X144747459Y-78117317D02*
X143947459Y-78117317D01*
X143947459Y-78117317D02*
X144061744Y-78041126D01*
X144061744Y-78041126D02*
X144137935Y-77964936D01*
X144137935Y-77964936D02*
X144176030Y-77888745D01*
X144747459Y-79107793D02*
X144747459Y-78650650D01*
X144747459Y-78879222D02*
X143947459Y-78879222D01*
X143947459Y-78879222D02*
X144061744Y-78803031D01*
X144061744Y-78803031D02*
X144137935Y-78726841D01*
X144137935Y-78726841D02*
X144176030Y-78650650D01*
X144747459Y-79488746D02*
X144747459Y-79641127D01*
X144747459Y-79641127D02*
X144709364Y-79717317D01*
X144709364Y-79717317D02*
X144671268Y-79755413D01*
X144671268Y-79755413D02*
X144556983Y-79831603D01*
X144556983Y-79831603D02*
X144404602Y-79869698D01*
X144404602Y-79869698D02*
X144099840Y-79869698D01*
X144099840Y-79869698D02*
X144023649Y-79831603D01*
X144023649Y-79831603D02*
X143985554Y-79793508D01*
X143985554Y-79793508D02*
X143947459Y-79717317D01*
X143947459Y-79717317D02*
X143947459Y-79564936D01*
X143947459Y-79564936D02*
X143985554Y-79488746D01*
X143985554Y-79488746D02*
X144023649Y-79450651D01*
X144023649Y-79450651D02*
X144099840Y-79412555D01*
X144099840Y-79412555D02*
X144290316Y-79412555D01*
X144290316Y-79412555D02*
X144366506Y-79450651D01*
X144366506Y-79450651D02*
X144404602Y-79488746D01*
X144404602Y-79488746D02*
X144442697Y-79564936D01*
X144442697Y-79564936D02*
X144442697Y-79717317D01*
X144442697Y-79717317D02*
X144404602Y-79793508D01*
X144404602Y-79793508D02*
X144366506Y-79831603D01*
X144366506Y-79831603D02*
X144290316Y-79869698D01*
X150605468Y-77605417D02*
X150224515Y-77338750D01*
X150605468Y-77148274D02*
X149805468Y-77148274D01*
X149805468Y-77148274D02*
X149805468Y-77453036D01*
X149805468Y-77453036D02*
X149843563Y-77529226D01*
X149843563Y-77529226D02*
X149881658Y-77567321D01*
X149881658Y-77567321D02*
X149957849Y-77605417D01*
X149957849Y-77605417D02*
X150072134Y-77605417D01*
X150072134Y-77605417D02*
X150148325Y-77567321D01*
X150148325Y-77567321D02*
X150186420Y-77529226D01*
X150186420Y-77529226D02*
X150224515Y-77453036D01*
X150224515Y-77453036D02*
X150224515Y-77148274D01*
X150605468Y-78367321D02*
X150605468Y-77910178D01*
X150605468Y-78138750D02*
X149805468Y-78138750D01*
X149805468Y-78138750D02*
X149919753Y-78062559D01*
X149919753Y-78062559D02*
X149995944Y-77986369D01*
X149995944Y-77986369D02*
X150034039Y-77910178D01*
X149805468Y-78862560D02*
X149805468Y-78938750D01*
X149805468Y-78938750D02*
X149843563Y-79014941D01*
X149843563Y-79014941D02*
X149881658Y-79053036D01*
X149881658Y-79053036D02*
X149957849Y-79091131D01*
X149957849Y-79091131D02*
X150110230Y-79129226D01*
X150110230Y-79129226D02*
X150300706Y-79129226D01*
X150300706Y-79129226D02*
X150453087Y-79091131D01*
X150453087Y-79091131D02*
X150529277Y-79053036D01*
X150529277Y-79053036D02*
X150567373Y-79014941D01*
X150567373Y-79014941D02*
X150605468Y-78938750D01*
X150605468Y-78938750D02*
X150605468Y-78862560D01*
X150605468Y-78862560D02*
X150567373Y-78786369D01*
X150567373Y-78786369D02*
X150529277Y-78748274D01*
X150529277Y-78748274D02*
X150453087Y-78710179D01*
X150453087Y-78710179D02*
X150300706Y-78672083D01*
X150300706Y-78672083D02*
X150110230Y-78672083D01*
X150110230Y-78672083D02*
X149957849Y-78710179D01*
X149957849Y-78710179D02*
X149881658Y-78748274D01*
X149881658Y-78748274D02*
X149843563Y-78786369D01*
X149843563Y-78786369D02*
X149805468Y-78862560D01*
X149805468Y-79814941D02*
X149805468Y-79662560D01*
X149805468Y-79662560D02*
X149843563Y-79586369D01*
X149843563Y-79586369D02*
X149881658Y-79548274D01*
X149881658Y-79548274D02*
X149995944Y-79472084D01*
X149995944Y-79472084D02*
X150148325Y-79433988D01*
X150148325Y-79433988D02*
X150453087Y-79433988D01*
X150453087Y-79433988D02*
X150529277Y-79472084D01*
X150529277Y-79472084D02*
X150567373Y-79510179D01*
X150567373Y-79510179D02*
X150605468Y-79586369D01*
X150605468Y-79586369D02*
X150605468Y-79738750D01*
X150605468Y-79738750D02*
X150567373Y-79814941D01*
X150567373Y-79814941D02*
X150529277Y-79853036D01*
X150529277Y-79853036D02*
X150453087Y-79891131D01*
X150453087Y-79891131D02*
X150262611Y-79891131D01*
X150262611Y-79891131D02*
X150186420Y-79853036D01*
X150186420Y-79853036D02*
X150148325Y-79814941D01*
X150148325Y-79814941D02*
X150110230Y-79738750D01*
X150110230Y-79738750D02*
X150110230Y-79586369D01*
X150110230Y-79586369D02*
X150148325Y-79510179D01*
X150148325Y-79510179D02*
X150186420Y-79472084D01*
X150186420Y-79472084D02*
X150262611Y-79433988D01*
X143675939Y-82913294D02*
X142875939Y-82913294D01*
X142875939Y-82913294D02*
X142875939Y-83103770D01*
X142875939Y-83103770D02*
X142914034Y-83218056D01*
X142914034Y-83218056D02*
X142990224Y-83294246D01*
X142990224Y-83294246D02*
X143066415Y-83332341D01*
X143066415Y-83332341D02*
X143218796Y-83370437D01*
X143218796Y-83370437D02*
X143333082Y-83370437D01*
X143333082Y-83370437D02*
X143485463Y-83332341D01*
X143485463Y-83332341D02*
X143561653Y-83294246D01*
X143561653Y-83294246D02*
X143637844Y-83218056D01*
X143637844Y-83218056D02*
X143675939Y-83103770D01*
X143675939Y-83103770D02*
X143675939Y-82913294D01*
X143675939Y-84132341D02*
X143675939Y-83675198D01*
X143675939Y-83903770D02*
X142875939Y-83903770D01*
X142875939Y-83903770D02*
X142990224Y-83827579D01*
X142990224Y-83827579D02*
X143066415Y-83751389D01*
X143066415Y-83751389D02*
X143104510Y-83675198D01*
X142875939Y-84627580D02*
X142875939Y-84703770D01*
X142875939Y-84703770D02*
X142914034Y-84779961D01*
X142914034Y-84779961D02*
X142952129Y-84818056D01*
X142952129Y-84818056D02*
X143028320Y-84856151D01*
X143028320Y-84856151D02*
X143180701Y-84894246D01*
X143180701Y-84894246D02*
X143371177Y-84894246D01*
X143371177Y-84894246D02*
X143523558Y-84856151D01*
X143523558Y-84856151D02*
X143599748Y-84818056D01*
X143599748Y-84818056D02*
X143637844Y-84779961D01*
X143637844Y-84779961D02*
X143675939Y-84703770D01*
X143675939Y-84703770D02*
X143675939Y-84627580D01*
X143675939Y-84627580D02*
X143637844Y-84551389D01*
X143637844Y-84551389D02*
X143599748Y-84513294D01*
X143599748Y-84513294D02*
X143523558Y-84475199D01*
X143523558Y-84475199D02*
X143371177Y-84437103D01*
X143371177Y-84437103D02*
X143180701Y-84437103D01*
X143180701Y-84437103D02*
X143028320Y-84475199D01*
X143028320Y-84475199D02*
X142952129Y-84513294D01*
X142952129Y-84513294D02*
X142914034Y-84551389D01*
X142914034Y-84551389D02*
X142875939Y-84627580D01*
X142875939Y-85618056D02*
X142875939Y-85237104D01*
X142875939Y-85237104D02*
X143256891Y-85199008D01*
X143256891Y-85199008D02*
X143218796Y-85237104D01*
X143218796Y-85237104D02*
X143180701Y-85313294D01*
X143180701Y-85313294D02*
X143180701Y-85503770D01*
X143180701Y-85503770D02*
X143218796Y-85579961D01*
X143218796Y-85579961D02*
X143256891Y-85618056D01*
X143256891Y-85618056D02*
X143333082Y-85656151D01*
X143333082Y-85656151D02*
X143523558Y-85656151D01*
X143523558Y-85656151D02*
X143599748Y-85618056D01*
X143599748Y-85618056D02*
X143637844Y-85579961D01*
X143637844Y-85579961D02*
X143675939Y-85503770D01*
X143675939Y-85503770D02*
X143675939Y-85313294D01*
X143675939Y-85313294D02*
X143637844Y-85237104D01*
X143637844Y-85237104D02*
X143599748Y-85199008D01*
D11*
X173187248Y-80712619D02*
X173044391Y-80760238D01*
X173044391Y-80760238D02*
X172806296Y-80760238D01*
X172806296Y-80760238D02*
X172711058Y-80712619D01*
X172711058Y-80712619D02*
X172663439Y-80664999D01*
X172663439Y-80664999D02*
X172615820Y-80569761D01*
X172615820Y-80569761D02*
X172615820Y-80474523D01*
X172615820Y-80474523D02*
X172663439Y-80379285D01*
X172663439Y-80379285D02*
X172711058Y-80331666D01*
X172711058Y-80331666D02*
X172806296Y-80284047D01*
X172806296Y-80284047D02*
X172996772Y-80236428D01*
X172996772Y-80236428D02*
X173092010Y-80188809D01*
X173092010Y-80188809D02*
X173139629Y-80141190D01*
X173139629Y-80141190D02*
X173187248Y-80045952D01*
X173187248Y-80045952D02*
X173187248Y-79950714D01*
X173187248Y-79950714D02*
X173139629Y-79855476D01*
X173139629Y-79855476D02*
X173092010Y-79807857D01*
X173092010Y-79807857D02*
X172996772Y-79760238D01*
X172996772Y-79760238D02*
X172758677Y-79760238D01*
X172758677Y-79760238D02*
X172615820Y-79807857D01*
X172282486Y-79760238D02*
X172044391Y-80760238D01*
X172044391Y-80760238D02*
X171853915Y-80045952D01*
X171853915Y-80045952D02*
X171663439Y-80760238D01*
X171663439Y-80760238D02*
X171425344Y-79760238D01*
X170615820Y-79760238D02*
X170806296Y-79760238D01*
X170806296Y-79760238D02*
X170901534Y-79807857D01*
X170901534Y-79807857D02*
X170949153Y-79855476D01*
X170949153Y-79855476D02*
X171044391Y-79998333D01*
X171044391Y-79998333D02*
X171092010Y-80188809D01*
X171092010Y-80188809D02*
X171092010Y-80569761D01*
X171092010Y-80569761D02*
X171044391Y-80664999D01*
X171044391Y-80664999D02*
X170996772Y-80712619D01*
X170996772Y-80712619D02*
X170901534Y-80760238D01*
X170901534Y-80760238D02*
X170711058Y-80760238D01*
X170711058Y-80760238D02*
X170615820Y-80712619D01*
X170615820Y-80712619D02*
X170568201Y-80664999D01*
X170568201Y-80664999D02*
X170520582Y-80569761D01*
X170520582Y-80569761D02*
X170520582Y-80331666D01*
X170520582Y-80331666D02*
X170568201Y-80236428D01*
X170568201Y-80236428D02*
X170615820Y-80188809D01*
X170615820Y-80188809D02*
X170711058Y-80141190D01*
X170711058Y-80141190D02*
X170901534Y-80141190D01*
X170901534Y-80141190D02*
X170996772Y-80188809D01*
X170996772Y-80188809D02*
X171044391Y-80236428D01*
X171044391Y-80236428D02*
X171092010Y-80331666D01*
X169901534Y-79760238D02*
X169806296Y-79760238D01*
X169806296Y-79760238D02*
X169711058Y-79807857D01*
X169711058Y-79807857D02*
X169663439Y-79855476D01*
X169663439Y-79855476D02*
X169615820Y-79950714D01*
X169615820Y-79950714D02*
X169568201Y-80141190D01*
X169568201Y-80141190D02*
X169568201Y-80379285D01*
X169568201Y-80379285D02*
X169615820Y-80569761D01*
X169615820Y-80569761D02*
X169663439Y-80664999D01*
X169663439Y-80664999D02*
X169711058Y-80712619D01*
X169711058Y-80712619D02*
X169806296Y-80760238D01*
X169806296Y-80760238D02*
X169901534Y-80760238D01*
X169901534Y-80760238D02*
X169996772Y-80712619D01*
X169996772Y-80712619D02*
X170044391Y-80664999D01*
X170044391Y-80664999D02*
X170092010Y-80569761D01*
X170092010Y-80569761D02*
X170139629Y-80379285D01*
X170139629Y-80379285D02*
X170139629Y-80141190D01*
X170139629Y-80141190D02*
X170092010Y-79950714D01*
X170092010Y-79950714D02*
X170044391Y-79855476D01*
X170044391Y-79855476D02*
X169996772Y-79807857D01*
X169996772Y-79807857D02*
X169901534Y-79760238D01*
X168615820Y-80760238D02*
X169187248Y-80760238D01*
X168901534Y-80760238D02*
X168901534Y-79760238D01*
X168901534Y-79760238D02*
X168996772Y-79903095D01*
X168996772Y-79903095D02*
X169092010Y-79998333D01*
X169092010Y-79998333D02*
X169187248Y-80045952D01*
D10*
X141645829Y-77609831D02*
X141264876Y-77343164D01*
X141645829Y-77152688D02*
X140845829Y-77152688D01*
X140845829Y-77152688D02*
X140845829Y-77457450D01*
X140845829Y-77457450D02*
X140883924Y-77533640D01*
X140883924Y-77533640D02*
X140922019Y-77571735D01*
X140922019Y-77571735D02*
X140998210Y-77609831D01*
X140998210Y-77609831D02*
X141112495Y-77609831D01*
X141112495Y-77609831D02*
X141188686Y-77571735D01*
X141188686Y-77571735D02*
X141226781Y-77533640D01*
X141226781Y-77533640D02*
X141264876Y-77457450D01*
X141264876Y-77457450D02*
X141264876Y-77152688D01*
X141645829Y-78371735D02*
X141645829Y-77914592D01*
X141645829Y-78143164D02*
X140845829Y-78143164D01*
X140845829Y-78143164D02*
X140960114Y-78066973D01*
X140960114Y-78066973D02*
X141036305Y-77990783D01*
X141036305Y-77990783D02*
X141074400Y-77914592D01*
X140845829Y-78866974D02*
X140845829Y-78943164D01*
X140845829Y-78943164D02*
X140883924Y-79019355D01*
X140883924Y-79019355D02*
X140922019Y-79057450D01*
X140922019Y-79057450D02*
X140998210Y-79095545D01*
X140998210Y-79095545D02*
X141150591Y-79133640D01*
X141150591Y-79133640D02*
X141341067Y-79133640D01*
X141341067Y-79133640D02*
X141493448Y-79095545D01*
X141493448Y-79095545D02*
X141569638Y-79057450D01*
X141569638Y-79057450D02*
X141607734Y-79019355D01*
X141607734Y-79019355D02*
X141645829Y-78943164D01*
X141645829Y-78943164D02*
X141645829Y-78866974D01*
X141645829Y-78866974D02*
X141607734Y-78790783D01*
X141607734Y-78790783D02*
X141569638Y-78752688D01*
X141569638Y-78752688D02*
X141493448Y-78714593D01*
X141493448Y-78714593D02*
X141341067Y-78676497D01*
X141341067Y-78676497D02*
X141150591Y-78676497D01*
X141150591Y-78676497D02*
X140998210Y-78714593D01*
X140998210Y-78714593D02*
X140922019Y-78752688D01*
X140922019Y-78752688D02*
X140883924Y-78790783D01*
X140883924Y-78790783D02*
X140845829Y-78866974D01*
X140922019Y-79438402D02*
X140883924Y-79476498D01*
X140883924Y-79476498D02*
X140845829Y-79552688D01*
X140845829Y-79552688D02*
X140845829Y-79743164D01*
X140845829Y-79743164D02*
X140883924Y-79819355D01*
X140883924Y-79819355D02*
X140922019Y-79857450D01*
X140922019Y-79857450D02*
X140998210Y-79895545D01*
X140998210Y-79895545D02*
X141074400Y-79895545D01*
X141074400Y-79895545D02*
X141188686Y-79857450D01*
X141188686Y-79857450D02*
X141645829Y-79400307D01*
X141645829Y-79400307D02*
X141645829Y-79895545D01*
X147894670Y-77576110D02*
X147513717Y-77309443D01*
X147894670Y-77118967D02*
X147094670Y-77118967D01*
X147094670Y-77118967D02*
X147094670Y-77423729D01*
X147094670Y-77423729D02*
X147132765Y-77499919D01*
X147132765Y-77499919D02*
X147170860Y-77538014D01*
X147170860Y-77538014D02*
X147247051Y-77576110D01*
X147247051Y-77576110D02*
X147361336Y-77576110D01*
X147361336Y-77576110D02*
X147437527Y-77538014D01*
X147437527Y-77538014D02*
X147475622Y-77499919D01*
X147475622Y-77499919D02*
X147513717Y-77423729D01*
X147513717Y-77423729D02*
X147513717Y-77118967D01*
X147894670Y-78338014D02*
X147894670Y-77880871D01*
X147894670Y-78109443D02*
X147094670Y-78109443D01*
X147094670Y-78109443D02*
X147208955Y-78033252D01*
X147208955Y-78033252D02*
X147285146Y-77957062D01*
X147285146Y-77957062D02*
X147323241Y-77880871D01*
X147170860Y-78642776D02*
X147132765Y-78680872D01*
X147132765Y-78680872D02*
X147094670Y-78757062D01*
X147094670Y-78757062D02*
X147094670Y-78947538D01*
X147094670Y-78947538D02*
X147132765Y-79023729D01*
X147132765Y-79023729D02*
X147170860Y-79061824D01*
X147170860Y-79061824D02*
X147247051Y-79099919D01*
X147247051Y-79099919D02*
X147323241Y-79099919D01*
X147323241Y-79099919D02*
X147437527Y-79061824D01*
X147437527Y-79061824D02*
X147894670Y-78604681D01*
X147894670Y-78604681D02*
X147894670Y-79099919D01*
X147094670Y-79595158D02*
X147094670Y-79671348D01*
X147094670Y-79671348D02*
X147132765Y-79747539D01*
X147132765Y-79747539D02*
X147170860Y-79785634D01*
X147170860Y-79785634D02*
X147247051Y-79823729D01*
X147247051Y-79823729D02*
X147399432Y-79861824D01*
X147399432Y-79861824D02*
X147589908Y-79861824D01*
X147589908Y-79861824D02*
X147742289Y-79823729D01*
X147742289Y-79823729D02*
X147818479Y-79785634D01*
X147818479Y-79785634D02*
X147856575Y-79747539D01*
X147856575Y-79747539D02*
X147894670Y-79671348D01*
X147894670Y-79671348D02*
X147894670Y-79595158D01*
X147894670Y-79595158D02*
X147856575Y-79518967D01*
X147856575Y-79518967D02*
X147818479Y-79480872D01*
X147818479Y-79480872D02*
X147742289Y-79442777D01*
X147742289Y-79442777D02*
X147589908Y-79404681D01*
X147589908Y-79404681D02*
X147399432Y-79404681D01*
X147399432Y-79404681D02*
X147247051Y-79442777D01*
X147247051Y-79442777D02*
X147170860Y-79480872D01*
X147170860Y-79480872D02*
X147132765Y-79518967D01*
X147132765Y-79518967D02*
X147094670Y-79595158D01*
X143301472Y-77603996D02*
X142920519Y-77337329D01*
X143301472Y-77146853D02*
X142501472Y-77146853D01*
X142501472Y-77146853D02*
X142501472Y-77451615D01*
X142501472Y-77451615D02*
X142539567Y-77527805D01*
X142539567Y-77527805D02*
X142577662Y-77565900D01*
X142577662Y-77565900D02*
X142653853Y-77603996D01*
X142653853Y-77603996D02*
X142768138Y-77603996D01*
X142768138Y-77603996D02*
X142844329Y-77565900D01*
X142844329Y-77565900D02*
X142882424Y-77527805D01*
X142882424Y-77527805D02*
X142920519Y-77451615D01*
X142920519Y-77451615D02*
X142920519Y-77146853D01*
X143301472Y-78365900D02*
X143301472Y-77908757D01*
X143301472Y-78137329D02*
X142501472Y-78137329D01*
X142501472Y-78137329D02*
X142615757Y-78061138D01*
X142615757Y-78061138D02*
X142691948Y-77984948D01*
X142691948Y-77984948D02*
X142730043Y-77908757D01*
X143301472Y-79127805D02*
X143301472Y-78670662D01*
X143301472Y-78899234D02*
X142501472Y-78899234D01*
X142501472Y-78899234D02*
X142615757Y-78823043D01*
X142615757Y-78823043D02*
X142691948Y-78746853D01*
X142691948Y-78746853D02*
X142730043Y-78670662D01*
X142501472Y-79623044D02*
X142501472Y-79699234D01*
X142501472Y-79699234D02*
X142539567Y-79775425D01*
X142539567Y-79775425D02*
X142577662Y-79813520D01*
X142577662Y-79813520D02*
X142653853Y-79851615D01*
X142653853Y-79851615D02*
X142806234Y-79889710D01*
X142806234Y-79889710D02*
X142996710Y-79889710D01*
X142996710Y-79889710D02*
X143149091Y-79851615D01*
X143149091Y-79851615D02*
X143225281Y-79813520D01*
X143225281Y-79813520D02*
X143263377Y-79775425D01*
X143263377Y-79775425D02*
X143301472Y-79699234D01*
X143301472Y-79699234D02*
X143301472Y-79623044D01*
X143301472Y-79623044D02*
X143263377Y-79546853D01*
X143263377Y-79546853D02*
X143225281Y-79508758D01*
X143225281Y-79508758D02*
X143149091Y-79470663D01*
X143149091Y-79470663D02*
X142996710Y-79432567D01*
X142996710Y-79432567D02*
X142806234Y-79432567D01*
X142806234Y-79432567D02*
X142653853Y-79470663D01*
X142653853Y-79470663D02*
X142577662Y-79508758D01*
X142577662Y-79508758D02*
X142539567Y-79546853D01*
X142539567Y-79546853D02*
X142501472Y-79623044D01*
X152760983Y-82897732D02*
X151960983Y-82897732D01*
X151960983Y-82897732D02*
X151960983Y-83088208D01*
X151960983Y-83088208D02*
X151999078Y-83202494D01*
X151999078Y-83202494D02*
X152075268Y-83278684D01*
X152075268Y-83278684D02*
X152151459Y-83316779D01*
X152151459Y-83316779D02*
X152303840Y-83354875D01*
X152303840Y-83354875D02*
X152418126Y-83354875D01*
X152418126Y-83354875D02*
X152570507Y-83316779D01*
X152570507Y-83316779D02*
X152646697Y-83278684D01*
X152646697Y-83278684D02*
X152722888Y-83202494D01*
X152722888Y-83202494D02*
X152760983Y-83088208D01*
X152760983Y-83088208D02*
X152760983Y-82897732D01*
X152760983Y-84116779D02*
X152760983Y-83659636D01*
X152760983Y-83888208D02*
X151960983Y-83888208D01*
X151960983Y-83888208D02*
X152075268Y-83812017D01*
X152075268Y-83812017D02*
X152151459Y-83735827D01*
X152151459Y-83735827D02*
X152189554Y-83659636D01*
X151960983Y-84612018D02*
X151960983Y-84688208D01*
X151960983Y-84688208D02*
X151999078Y-84764399D01*
X151999078Y-84764399D02*
X152037173Y-84802494D01*
X152037173Y-84802494D02*
X152113364Y-84840589D01*
X152113364Y-84840589D02*
X152265745Y-84878684D01*
X152265745Y-84878684D02*
X152456221Y-84878684D01*
X152456221Y-84878684D02*
X152608602Y-84840589D01*
X152608602Y-84840589D02*
X152684792Y-84802494D01*
X152684792Y-84802494D02*
X152722888Y-84764399D01*
X152722888Y-84764399D02*
X152760983Y-84688208D01*
X152760983Y-84688208D02*
X152760983Y-84612018D01*
X152760983Y-84612018D02*
X152722888Y-84535827D01*
X152722888Y-84535827D02*
X152684792Y-84497732D01*
X152684792Y-84497732D02*
X152608602Y-84459637D01*
X152608602Y-84459637D02*
X152456221Y-84421541D01*
X152456221Y-84421541D02*
X152265745Y-84421541D01*
X152265745Y-84421541D02*
X152113364Y-84459637D01*
X152113364Y-84459637D02*
X152037173Y-84497732D01*
X152037173Y-84497732D02*
X151999078Y-84535827D01*
X151999078Y-84535827D02*
X151960983Y-84612018D01*
X152227649Y-85564399D02*
X152760983Y-85564399D01*
X151922888Y-85373923D02*
X152494316Y-85183446D01*
X152494316Y-85183446D02*
X152494316Y-85678685D01*
X145126190Y-82913574D02*
X144326190Y-82913574D01*
X144326190Y-82913574D02*
X144326190Y-83104050D01*
X144326190Y-83104050D02*
X144364285Y-83218336D01*
X144364285Y-83218336D02*
X144440475Y-83294526D01*
X144440475Y-83294526D02*
X144516666Y-83332621D01*
X144516666Y-83332621D02*
X144669047Y-83370717D01*
X144669047Y-83370717D02*
X144783333Y-83370717D01*
X144783333Y-83370717D02*
X144935714Y-83332621D01*
X144935714Y-83332621D02*
X145011904Y-83294526D01*
X145011904Y-83294526D02*
X145088095Y-83218336D01*
X145088095Y-83218336D02*
X145126190Y-83104050D01*
X145126190Y-83104050D02*
X145126190Y-82913574D01*
X145126190Y-84132621D02*
X145126190Y-83675478D01*
X145126190Y-83904050D02*
X144326190Y-83904050D01*
X144326190Y-83904050D02*
X144440475Y-83827859D01*
X144440475Y-83827859D02*
X144516666Y-83751669D01*
X144516666Y-83751669D02*
X144554761Y-83675478D01*
X144326190Y-84627860D02*
X144326190Y-84704050D01*
X144326190Y-84704050D02*
X144364285Y-84780241D01*
X144364285Y-84780241D02*
X144402380Y-84818336D01*
X144402380Y-84818336D02*
X144478571Y-84856431D01*
X144478571Y-84856431D02*
X144630952Y-84894526D01*
X144630952Y-84894526D02*
X144821428Y-84894526D01*
X144821428Y-84894526D02*
X144973809Y-84856431D01*
X144973809Y-84856431D02*
X145049999Y-84818336D01*
X145049999Y-84818336D02*
X145088095Y-84780241D01*
X145088095Y-84780241D02*
X145126190Y-84704050D01*
X145126190Y-84704050D02*
X145126190Y-84627860D01*
X145126190Y-84627860D02*
X145088095Y-84551669D01*
X145088095Y-84551669D02*
X145049999Y-84513574D01*
X145049999Y-84513574D02*
X144973809Y-84475479D01*
X144973809Y-84475479D02*
X144821428Y-84437383D01*
X144821428Y-84437383D02*
X144630952Y-84437383D01*
X144630952Y-84437383D02*
X144478571Y-84475479D01*
X144478571Y-84475479D02*
X144402380Y-84513574D01*
X144402380Y-84513574D02*
X144364285Y-84551669D01*
X144364285Y-84551669D02*
X144326190Y-84627860D01*
X144326190Y-85161193D02*
X144326190Y-85694527D01*
X144326190Y-85694527D02*
X145126190Y-85351669D01*
X146344752Y-77544913D02*
X145963799Y-77278246D01*
X146344752Y-77087770D02*
X145544752Y-77087770D01*
X145544752Y-77087770D02*
X145544752Y-77392532D01*
X145544752Y-77392532D02*
X145582847Y-77468722D01*
X145582847Y-77468722D02*
X145620942Y-77506817D01*
X145620942Y-77506817D02*
X145697133Y-77544913D01*
X145697133Y-77544913D02*
X145811418Y-77544913D01*
X145811418Y-77544913D02*
X145887609Y-77506817D01*
X145887609Y-77506817D02*
X145925704Y-77468722D01*
X145925704Y-77468722D02*
X145963799Y-77392532D01*
X145963799Y-77392532D02*
X145963799Y-77087770D01*
X146344752Y-78306817D02*
X146344752Y-77849674D01*
X146344752Y-78078246D02*
X145544752Y-78078246D01*
X145544752Y-78078246D02*
X145659037Y-78002055D01*
X145659037Y-78002055D02*
X145735228Y-77925865D01*
X145735228Y-77925865D02*
X145773323Y-77849674D01*
X146344752Y-79068722D02*
X146344752Y-78611579D01*
X146344752Y-78840151D02*
X145544752Y-78840151D01*
X145544752Y-78840151D02*
X145659037Y-78763960D01*
X145659037Y-78763960D02*
X145735228Y-78687770D01*
X145735228Y-78687770D02*
X145773323Y-78611579D01*
X145544752Y-79754437D02*
X145544752Y-79602056D01*
X145544752Y-79602056D02*
X145582847Y-79525865D01*
X145582847Y-79525865D02*
X145620942Y-79487770D01*
X145620942Y-79487770D02*
X145735228Y-79411580D01*
X145735228Y-79411580D02*
X145887609Y-79373484D01*
X145887609Y-79373484D02*
X146192371Y-79373484D01*
X146192371Y-79373484D02*
X146268561Y-79411580D01*
X146268561Y-79411580D02*
X146306657Y-79449675D01*
X146306657Y-79449675D02*
X146344752Y-79525865D01*
X146344752Y-79525865D02*
X146344752Y-79678246D01*
X146344752Y-79678246D02*
X146306657Y-79754437D01*
X146306657Y-79754437D02*
X146268561Y-79792532D01*
X146268561Y-79792532D02*
X146192371Y-79830627D01*
X146192371Y-79830627D02*
X146001895Y-79830627D01*
X146001895Y-79830627D02*
X145925704Y-79792532D01*
X145925704Y-79792532D02*
X145887609Y-79754437D01*
X145887609Y-79754437D02*
X145849514Y-79678246D01*
X145849514Y-79678246D02*
X145849514Y-79525865D01*
X145849514Y-79525865D02*
X145887609Y-79449675D01*
X145887609Y-79449675D02*
X145925704Y-79411580D01*
X145925704Y-79411580D02*
X146001895Y-79373484D01*
D11*
X173185713Y-74157200D02*
X173042856Y-74204819D01*
X173042856Y-74204819D02*
X172804761Y-74204819D01*
X172804761Y-74204819D02*
X172709523Y-74157200D01*
X172709523Y-74157200D02*
X172661904Y-74109580D01*
X172661904Y-74109580D02*
X172614285Y-74014342D01*
X172614285Y-74014342D02*
X172614285Y-73919104D01*
X172614285Y-73919104D02*
X172661904Y-73823866D01*
X172661904Y-73823866D02*
X172709523Y-73776247D01*
X172709523Y-73776247D02*
X172804761Y-73728628D01*
X172804761Y-73728628D02*
X172995237Y-73681009D01*
X172995237Y-73681009D02*
X173090475Y-73633390D01*
X173090475Y-73633390D02*
X173138094Y-73585771D01*
X173138094Y-73585771D02*
X173185713Y-73490533D01*
X173185713Y-73490533D02*
X173185713Y-73395295D01*
X173185713Y-73395295D02*
X173138094Y-73300057D01*
X173138094Y-73300057D02*
X173090475Y-73252438D01*
X173090475Y-73252438D02*
X172995237Y-73204819D01*
X172995237Y-73204819D02*
X172757142Y-73204819D01*
X172757142Y-73204819D02*
X172614285Y-73252438D01*
X172280951Y-73204819D02*
X172042856Y-74204819D01*
X172042856Y-74204819D02*
X171852380Y-73490533D01*
X171852380Y-73490533D02*
X171661904Y-74204819D01*
X171661904Y-74204819D02*
X171423809Y-73204819D01*
X170614285Y-73204819D02*
X170804761Y-73204819D01*
X170804761Y-73204819D02*
X170899999Y-73252438D01*
X170899999Y-73252438D02*
X170947618Y-73300057D01*
X170947618Y-73300057D02*
X171042856Y-73442914D01*
X171042856Y-73442914D02*
X171090475Y-73633390D01*
X171090475Y-73633390D02*
X171090475Y-74014342D01*
X171090475Y-74014342D02*
X171042856Y-74109580D01*
X171042856Y-74109580D02*
X170995237Y-74157200D01*
X170995237Y-74157200D02*
X170899999Y-74204819D01*
X170899999Y-74204819D02*
X170709523Y-74204819D01*
X170709523Y-74204819D02*
X170614285Y-74157200D01*
X170614285Y-74157200D02*
X170566666Y-74109580D01*
X170566666Y-74109580D02*
X170519047Y-74014342D01*
X170519047Y-74014342D02*
X170519047Y-73776247D01*
X170519047Y-73776247D02*
X170566666Y-73681009D01*
X170566666Y-73681009D02*
X170614285Y-73633390D01*
X170614285Y-73633390D02*
X170709523Y-73585771D01*
X170709523Y-73585771D02*
X170899999Y-73585771D01*
X170899999Y-73585771D02*
X170995237Y-73633390D01*
X170995237Y-73633390D02*
X171042856Y-73681009D01*
X171042856Y-73681009D02*
X171090475Y-73776247D01*
X169899999Y-73204819D02*
X169804761Y-73204819D01*
X169804761Y-73204819D02*
X169709523Y-73252438D01*
X169709523Y-73252438D02*
X169661904Y-73300057D01*
X169661904Y-73300057D02*
X169614285Y-73395295D01*
X169614285Y-73395295D02*
X169566666Y-73585771D01*
X169566666Y-73585771D02*
X169566666Y-73823866D01*
X169566666Y-73823866D02*
X169614285Y-74014342D01*
X169614285Y-74014342D02*
X169661904Y-74109580D01*
X169661904Y-74109580D02*
X169709523Y-74157200D01*
X169709523Y-74157200D02*
X169804761Y-74204819D01*
X169804761Y-74204819D02*
X169899999Y-74204819D01*
X169899999Y-74204819D02*
X169995237Y-74157200D01*
X169995237Y-74157200D02*
X170042856Y-74109580D01*
X170042856Y-74109580D02*
X170090475Y-74014342D01*
X170090475Y-74014342D02*
X170138094Y-73823866D01*
X170138094Y-73823866D02*
X170138094Y-73585771D01*
X170138094Y-73585771D02*
X170090475Y-73395295D01*
X170090475Y-73395295D02*
X170042856Y-73300057D01*
X170042856Y-73300057D02*
X169995237Y-73252438D01*
X169995237Y-73252438D02*
X169899999Y-73204819D01*
X168614285Y-74204819D02*
X169185713Y-74204819D01*
X168899999Y-74204819D02*
X168899999Y-73204819D01*
X168899999Y-73204819D02*
X168995237Y-73347676D01*
X168995237Y-73347676D02*
X169090475Y-73442914D01*
X169090475Y-73442914D02*
X169185713Y-73490533D01*
X173185713Y-67557200D02*
X173042856Y-67604819D01*
X173042856Y-67604819D02*
X172804761Y-67604819D01*
X172804761Y-67604819D02*
X172709523Y-67557200D01*
X172709523Y-67557200D02*
X172661904Y-67509580D01*
X172661904Y-67509580D02*
X172614285Y-67414342D01*
X172614285Y-67414342D02*
X172614285Y-67319104D01*
X172614285Y-67319104D02*
X172661904Y-67223866D01*
X172661904Y-67223866D02*
X172709523Y-67176247D01*
X172709523Y-67176247D02*
X172804761Y-67128628D01*
X172804761Y-67128628D02*
X172995237Y-67081009D01*
X172995237Y-67081009D02*
X173090475Y-67033390D01*
X173090475Y-67033390D02*
X173138094Y-66985771D01*
X173138094Y-66985771D02*
X173185713Y-66890533D01*
X173185713Y-66890533D02*
X173185713Y-66795295D01*
X173185713Y-66795295D02*
X173138094Y-66700057D01*
X173138094Y-66700057D02*
X173090475Y-66652438D01*
X173090475Y-66652438D02*
X172995237Y-66604819D01*
X172995237Y-66604819D02*
X172757142Y-66604819D01*
X172757142Y-66604819D02*
X172614285Y-66652438D01*
X172280951Y-66604819D02*
X172042856Y-67604819D01*
X172042856Y-67604819D02*
X171852380Y-66890533D01*
X171852380Y-66890533D02*
X171661904Y-67604819D01*
X171661904Y-67604819D02*
X171423809Y-66604819D01*
X170614285Y-66938152D02*
X170614285Y-67604819D01*
X170852380Y-66557200D02*
X171090475Y-67271485D01*
X171090475Y-67271485D02*
X170471428Y-67271485D01*
X169899999Y-66604819D02*
X169804761Y-66604819D01*
X169804761Y-66604819D02*
X169709523Y-66652438D01*
X169709523Y-66652438D02*
X169661904Y-66700057D01*
X169661904Y-66700057D02*
X169614285Y-66795295D01*
X169614285Y-66795295D02*
X169566666Y-66985771D01*
X169566666Y-66985771D02*
X169566666Y-67223866D01*
X169566666Y-67223866D02*
X169614285Y-67414342D01*
X169614285Y-67414342D02*
X169661904Y-67509580D01*
X169661904Y-67509580D02*
X169709523Y-67557200D01*
X169709523Y-67557200D02*
X169804761Y-67604819D01*
X169804761Y-67604819D02*
X169899999Y-67604819D01*
X169899999Y-67604819D02*
X169995237Y-67557200D01*
X169995237Y-67557200D02*
X170042856Y-67509580D01*
X170042856Y-67509580D02*
X170090475Y-67414342D01*
X170090475Y-67414342D02*
X170138094Y-67223866D01*
X170138094Y-67223866D02*
X170138094Y-66985771D01*
X170138094Y-66985771D02*
X170090475Y-66795295D01*
X170090475Y-66795295D02*
X170042856Y-66700057D01*
X170042856Y-66700057D02*
X169995237Y-66652438D01*
X169995237Y-66652438D02*
X169899999Y-66604819D01*
X168614285Y-67604819D02*
X169185713Y-67604819D01*
X168899999Y-67604819D02*
X168899999Y-66604819D01*
X168899999Y-66604819D02*
X168995237Y-66747676D01*
X168995237Y-66747676D02*
X169090475Y-66842914D01*
X169090475Y-66842914D02*
X169185713Y-66890533D01*
D10*
X132713460Y-65665004D02*
X132761079Y-65807861D01*
X132761079Y-65807861D02*
X132761079Y-66045956D01*
X132761079Y-66045956D02*
X132713460Y-66141194D01*
X132713460Y-66141194D02*
X132665840Y-66188813D01*
X132665840Y-66188813D02*
X132570602Y-66236432D01*
X132570602Y-66236432D02*
X132475364Y-66236432D01*
X132475364Y-66236432D02*
X132380126Y-66188813D01*
X132380126Y-66188813D02*
X132332507Y-66141194D01*
X132332507Y-66141194D02*
X132284888Y-66045956D01*
X132284888Y-66045956D02*
X132237269Y-65855480D01*
X132237269Y-65855480D02*
X132189650Y-65760242D01*
X132189650Y-65760242D02*
X132142031Y-65712623D01*
X132142031Y-65712623D02*
X132046793Y-65665004D01*
X132046793Y-65665004D02*
X131951555Y-65665004D01*
X131951555Y-65665004D02*
X131856317Y-65712623D01*
X131856317Y-65712623D02*
X131808698Y-65760242D01*
X131808698Y-65760242D02*
X131761079Y-65855480D01*
X131761079Y-65855480D02*
X131761079Y-66093575D01*
X131761079Y-66093575D02*
X131808698Y-66236432D01*
X131761079Y-66569766D02*
X132761079Y-66807861D01*
X132761079Y-66807861D02*
X132046793Y-66998337D01*
X132046793Y-66998337D02*
X132761079Y-67188813D01*
X132761079Y-67188813D02*
X131761079Y-67426909D01*
X132761079Y-68331670D02*
X132761079Y-67760242D01*
X132761079Y-68045956D02*
X131761079Y-68045956D01*
X131761079Y-68045956D02*
X131903936Y-67950718D01*
X131903936Y-67950718D02*
X131999174Y-67855480D01*
X131999174Y-67855480D02*
X132046793Y-67760242D01*
X131761079Y-68950718D02*
X131761079Y-69045956D01*
X131761079Y-69045956D02*
X131808698Y-69141194D01*
X131808698Y-69141194D02*
X131856317Y-69188813D01*
X131856317Y-69188813D02*
X131951555Y-69236432D01*
X131951555Y-69236432D02*
X132142031Y-69284051D01*
X132142031Y-69284051D02*
X132380126Y-69284051D01*
X132380126Y-69284051D02*
X132570602Y-69236432D01*
X132570602Y-69236432D02*
X132665840Y-69188813D01*
X132665840Y-69188813D02*
X132713460Y-69141194D01*
X132713460Y-69141194D02*
X132761079Y-69045956D01*
X132761079Y-69045956D02*
X132761079Y-68950718D01*
X132761079Y-68950718D02*
X132713460Y-68855480D01*
X132713460Y-68855480D02*
X132665840Y-68807861D01*
X132665840Y-68807861D02*
X132570602Y-68760242D01*
X132570602Y-68760242D02*
X132380126Y-68712623D01*
X132380126Y-68712623D02*
X132142031Y-68712623D01*
X132142031Y-68712623D02*
X131951555Y-68760242D01*
X131951555Y-68760242D02*
X131856317Y-68807861D01*
X131856317Y-68807861D02*
X131808698Y-68855480D01*
X131808698Y-68855480D02*
X131761079Y-68950718D01*
X132761079Y-70236432D02*
X132761079Y-69665004D01*
X132761079Y-69950718D02*
X131761079Y-69950718D01*
X131761079Y-69950718D02*
X131903936Y-69855480D01*
X131903936Y-69855480D02*
X131999174Y-69760242D01*
X131999174Y-69760242D02*
X132046793Y-69665004D01*
D11*
X132435878Y-50374618D02*
X133078735Y-50374618D01*
X133078735Y-50374618D02*
X133207306Y-50331761D01*
X133207306Y-50331761D02*
X133293021Y-50246047D01*
X133293021Y-50246047D02*
X133335878Y-50117475D01*
X133335878Y-50117475D02*
X133335878Y-50031761D01*
X133335878Y-51274618D02*
X133335878Y-50760332D01*
X133335878Y-51017475D02*
X132435878Y-51017475D01*
X132435878Y-51017475D02*
X132564449Y-50931761D01*
X132564449Y-50931761D02*
X132650163Y-50846046D01*
X132650163Y-50846046D02*
X132693021Y-50760332D01*
X132435878Y-51831761D02*
X132435878Y-51917475D01*
X132435878Y-51917475D02*
X132478735Y-52003189D01*
X132478735Y-52003189D02*
X132521592Y-52046047D01*
X132521592Y-52046047D02*
X132607306Y-52088904D01*
X132607306Y-52088904D02*
X132778735Y-52131761D01*
X132778735Y-52131761D02*
X132993021Y-52131761D01*
X132993021Y-52131761D02*
X133164449Y-52088904D01*
X133164449Y-52088904D02*
X133250163Y-52046047D01*
X133250163Y-52046047D02*
X133293021Y-52003189D01*
X133293021Y-52003189D02*
X133335878Y-51917475D01*
X133335878Y-51917475D02*
X133335878Y-51831761D01*
X133335878Y-51831761D02*
X133293021Y-51746047D01*
X133293021Y-51746047D02*
X133250163Y-51703189D01*
X133250163Y-51703189D02*
X133164449Y-51660332D01*
X133164449Y-51660332D02*
X132993021Y-51617475D01*
X132993021Y-51617475D02*
X132778735Y-51617475D01*
X132778735Y-51617475D02*
X132607306Y-51660332D01*
X132607306Y-51660332D02*
X132521592Y-51703189D01*
X132521592Y-51703189D02*
X132478735Y-51746047D01*
X132478735Y-51746047D02*
X132435878Y-51831761D01*
X133335878Y-52988904D02*
X133335878Y-52474618D01*
X133335878Y-52731761D02*
X132435878Y-52731761D01*
X132435878Y-52731761D02*
X132564449Y-52646047D01*
X132564449Y-52646047D02*
X132650163Y-52560332D01*
X132650163Y-52560332D02*
X132693021Y-52474618D01*
D12*
%TO.C,J101*%
X133540000Y-47400000D02*
X133540000Y-50000000D01*
X133540000Y-47400000D02*
X184460000Y-47400000D01*
X133540000Y-50000000D02*
X136140000Y-50000000D01*
X133540000Y-51270000D02*
X133540000Y-52600000D01*
X133540000Y-52600000D02*
X134870000Y-52600000D01*
X136140000Y-50000000D02*
X136140000Y-52600000D01*
X136140000Y-52600000D02*
X184460000Y-52600000D01*
X184460000Y-47400000D02*
X184460000Y-52600000D01*
%TD*%
M02*
