%TF.GenerationSoftware,KiCad,Pcbnew,8.0.0-8.0.0-1~ubuntu22.04.1*%
%TF.CreationDate,2024-03-30T12:30:55+01:00*%
%TF.ProjectId,PAMI_mb,50414d49-5f6d-4622-9e6b-696361645f70,rev?*%
%TF.SameCoordinates,Original*%
%TF.FileFunction,Paste,Top*%
%TF.FilePolarity,Positive*%
%FSLAX46Y46*%
G04 Gerber Fmt 4.6, Leading zero omitted, Abs format (unit mm)*
G04 Created by KiCad (PCBNEW 8.0.0-8.0.0-1~ubuntu22.04.1) date 2024-03-30 12:30:55*
%MOMM*%
%LPD*%
G01*
G04 APERTURE LIST*
G04 Aperture macros list*
%AMRoundRect*
0 Rectangle with rounded corners*
0 $1 Rounding radius*
0 $2 $3 $4 $5 $6 $7 $8 $9 X,Y pos of 4 corners*
0 Add a 4 corners polygon primitive as box body*
4,1,4,$2,$3,$4,$5,$6,$7,$8,$9,$2,$3,0*
0 Add four circle primitives for the rounded corners*
1,1,$1+$1,$2,$3*
1,1,$1+$1,$4,$5*
1,1,$1+$1,$6,$7*
1,1,$1+$1,$8,$9*
0 Add four rect primitives between the rounded corners*
20,1,$1+$1,$2,$3,$4,$5,0*
20,1,$1+$1,$4,$5,$6,$7,0*
20,1,$1+$1,$6,$7,$8,$9,0*
20,1,$1+$1,$8,$9,$2,$3,0*%
G04 Aperture macros list end*
%ADD10C,0.010000*%
%ADD11R,1.240000X1.040000*%
%ADD12RoundRect,0.300000X0.500000X0.300000X-0.500000X0.300000X-0.500000X-0.300000X0.500000X-0.300000X0*%
%ADD13RoundRect,0.400000X0.400000X1.120000X-0.400000X1.120000X-0.400000X-1.120000X0.400000X-1.120000X0*%
%ADD14RoundRect,0.108000X-0.108000X-0.148000X0.108000X-0.148000X0.108000X0.148000X-0.108000X0.148000X0*%
%ADD15RoundRect,0.112000X0.112000X0.136000X-0.112000X0.136000X-0.112000X-0.136000X0.112000X-0.136000X0*%
%ADD16RoundRect,0.108000X-0.148000X0.108000X-0.148000X-0.108000X0.148000X-0.108000X0.148000X0.108000X0*%
%ADD17RoundRect,0.108000X0.108000X0.148000X-0.108000X0.148000X-0.108000X-0.148000X0.108000X-0.148000X0*%
%ADD18RoundRect,0.100000X-0.500000X-0.100000X0.500000X-0.100000X0.500000X0.100000X-0.500000X0.100000X0*%
%ADD19RoundRect,0.100000X-0.100000X-0.500000X0.100000X-0.500000X0.100000X0.500000X-0.100000X0.500000X0*%
%ADD20RoundRect,0.180000X-0.200000X0.180000X-0.200000X-0.180000X0.200000X-0.180000X0.200000X0.180000X0*%
%ADD21RoundRect,0.108000X0.148000X-0.108000X0.148000X0.108000X-0.148000X0.108000X-0.148000X-0.108000X0*%
%ADD22RoundRect,0.250000X0.475000X-0.900000X0.475000X0.900000X-0.475000X0.900000X-0.475000X-0.900000X0*%
%ADD23RoundRect,0.080000X0.080000X-0.510000X0.080000X0.510000X-0.080000X0.510000X-0.080000X-0.510000X0*%
%ADD24RoundRect,0.200000X-0.440000X1.200000X-0.440000X-1.200000X0.440000X-1.200000X0.440000X1.200000X0*%
%ADD25RoundRect,0.175000X0.205000X-0.175000X0.205000X0.175000X-0.205000X0.175000X-0.205000X-0.175000X0*%
%ADD26RoundRect,0.175000X-0.205000X0.175000X-0.205000X-0.175000X0.205000X-0.175000X0.205000X0.175000X0*%
%ADD27R,0.592000X1.920000*%
%ADD28RoundRect,0.112000X-0.136000X0.112000X-0.136000X-0.112000X0.136000X-0.112000X0.136000X0.112000X0*%
%ADD29R,0.800000X2.352000*%
%ADD30R,1.048000X0.800000*%
%ADD31R,1.048000X1.968000*%
%ADD32RoundRect,0.200000X1.140000X-0.290000X1.140000X0.290000X-1.140000X0.290000X-1.140000X-0.290000X0*%
%ADD33RoundRect,0.112000X-0.112000X-0.136000X0.112000X-0.136000X0.112000X0.136000X-0.112000X0.136000X0*%
%ADD34RoundRect,0.200000X0.440000X-1.200000X0.440000X1.200000X-0.440000X1.200000X-0.440000X-1.200000X0*%
%ADD35RoundRect,0.112000X0.136000X-0.112000X0.136000X0.112000X-0.136000X0.112000X-0.136000X-0.112000X0*%
%ADD36R,6.000000X2.400000*%
G04 APERTURE END LIST*
D10*
%TO.C,U102*%
X142480000Y-54432500D02*
X141170000Y-54432500D01*
X141170000Y-53202500D01*
X142480000Y-53202500D01*
X142480000Y-54432500D01*
G36*
X142480000Y-54432500D02*
G01*
X141170000Y-54432500D01*
X141170000Y-53202500D01*
X142480000Y-53202500D01*
X142480000Y-54432500D01*
G37*
X142480000Y-56232500D02*
X141170000Y-56232500D01*
X141170000Y-55002500D01*
X142480000Y-55002500D01*
X142480000Y-56232500D01*
G36*
X142480000Y-56232500D02*
G01*
X141170000Y-56232500D01*
X141170000Y-55002500D01*
X142480000Y-55002500D01*
X142480000Y-56232500D01*
G37*
X142480000Y-58032500D02*
X141170000Y-58032500D01*
X141170000Y-56802500D01*
X142480000Y-56802500D01*
X142480000Y-58032500D01*
G36*
X142480000Y-58032500D02*
G01*
X141170000Y-58032500D01*
X141170000Y-56802500D01*
X142480000Y-56802500D01*
X142480000Y-58032500D01*
G37*
X142480000Y-59832500D02*
X141170000Y-59832500D01*
X141170000Y-58602500D01*
X142480000Y-58602500D01*
X142480000Y-59832500D01*
G36*
X142480000Y-59832500D02*
G01*
X141170000Y-59832500D01*
X141170000Y-58602500D01*
X142480000Y-58602500D01*
X142480000Y-59832500D01*
G37*
X142480000Y-61632500D02*
X141170000Y-61632500D01*
X141170000Y-60402500D01*
X142480000Y-60402500D01*
X142480000Y-61632500D01*
G36*
X142480000Y-61632500D02*
G01*
X141170000Y-61632500D01*
X141170000Y-60402500D01*
X142480000Y-60402500D01*
X142480000Y-61632500D01*
G37*
X144270000Y-54432500D02*
X142960000Y-54432500D01*
X142960000Y-53202500D01*
X144270000Y-53202500D01*
X144270000Y-54432500D01*
G36*
X144270000Y-54432500D02*
G01*
X142960000Y-54432500D01*
X142960000Y-53202500D01*
X144270000Y-53202500D01*
X144270000Y-54432500D01*
G37*
X144270000Y-56232500D02*
X142960000Y-56232500D01*
X142960000Y-55002500D01*
X144270000Y-55002500D01*
X144270000Y-56232500D01*
G36*
X144270000Y-56232500D02*
G01*
X142960000Y-56232500D01*
X142960000Y-55002500D01*
X144270000Y-55002500D01*
X144270000Y-56232500D01*
G37*
X144270000Y-58032500D02*
X142960000Y-58032500D01*
X142960000Y-56802500D01*
X144270000Y-56802500D01*
X144270000Y-58032500D01*
G36*
X144270000Y-58032500D02*
G01*
X142960000Y-58032500D01*
X142960000Y-56802500D01*
X144270000Y-56802500D01*
X144270000Y-58032500D01*
G37*
X144270000Y-59832500D02*
X142960000Y-59832500D01*
X142960000Y-58602500D01*
X144270000Y-58602500D01*
X144270000Y-59832500D01*
G36*
X144270000Y-59832500D02*
G01*
X142960000Y-59832500D01*
X142960000Y-58602500D01*
X144270000Y-58602500D01*
X144270000Y-59832500D01*
G37*
X144270000Y-61632500D02*
X142960000Y-61632500D01*
X142960000Y-60402500D01*
X144270000Y-60402500D01*
X144270000Y-61632500D01*
G36*
X144270000Y-61632500D02*
G01*
X142960000Y-61632500D01*
X142960000Y-60402500D01*
X144270000Y-60402500D01*
X144270000Y-61632500D01*
G37*
X146060000Y-54432500D02*
X144750000Y-54432500D01*
X144750000Y-53202500D01*
X146060000Y-53202500D01*
X146060000Y-54432500D01*
G36*
X146060000Y-54432500D02*
G01*
X144750000Y-54432500D01*
X144750000Y-53202500D01*
X146060000Y-53202500D01*
X146060000Y-54432500D01*
G37*
X146060000Y-56232500D02*
X144750000Y-56232500D01*
X144750000Y-55002500D01*
X146060000Y-55002500D01*
X146060000Y-56232500D01*
G36*
X146060000Y-56232500D02*
G01*
X144750000Y-56232500D01*
X144750000Y-55002500D01*
X146060000Y-55002500D01*
X146060000Y-56232500D01*
G37*
X146060000Y-58032500D02*
X144750000Y-58032500D01*
X144750000Y-56802500D01*
X146060000Y-56802500D01*
X146060000Y-58032500D01*
G36*
X146060000Y-58032500D02*
G01*
X144750000Y-58032500D01*
X144750000Y-56802500D01*
X146060000Y-56802500D01*
X146060000Y-58032500D01*
G37*
X146060000Y-59832500D02*
X144750000Y-59832500D01*
X144750000Y-58602500D01*
X146060000Y-58602500D01*
X146060000Y-59832500D01*
G36*
X146060000Y-59832500D02*
G01*
X144750000Y-59832500D01*
X144750000Y-58602500D01*
X146060000Y-58602500D01*
X146060000Y-59832500D01*
G37*
X146060000Y-61632500D02*
X144750000Y-61632500D01*
X144750000Y-60402500D01*
X146060000Y-60402500D01*
X146060000Y-61632500D01*
G36*
X146060000Y-61632500D02*
G01*
X144750000Y-61632500D01*
X144750000Y-60402500D01*
X146060000Y-60402500D01*
X146060000Y-61632500D01*
G37*
X147850000Y-54432500D02*
X146540000Y-54432500D01*
X146540000Y-53202500D01*
X147850000Y-53202500D01*
X147850000Y-54432500D01*
G36*
X147850000Y-54432500D02*
G01*
X146540000Y-54432500D01*
X146540000Y-53202500D01*
X147850000Y-53202500D01*
X147850000Y-54432500D01*
G37*
X147850000Y-56232500D02*
X146540000Y-56232500D01*
X146540000Y-55002500D01*
X147850000Y-55002500D01*
X147850000Y-56232500D01*
G36*
X147850000Y-56232500D02*
G01*
X146540000Y-56232500D01*
X146540000Y-55002500D01*
X147850000Y-55002500D01*
X147850000Y-56232500D01*
G37*
X147850000Y-58032500D02*
X146540000Y-58032500D01*
X146540000Y-56802500D01*
X147850000Y-56802500D01*
X147850000Y-58032500D01*
G36*
X147850000Y-58032500D02*
G01*
X146540000Y-58032500D01*
X146540000Y-56802500D01*
X147850000Y-56802500D01*
X147850000Y-58032500D01*
G37*
X147850000Y-59832500D02*
X146540000Y-59832500D01*
X146540000Y-58602500D01*
X147850000Y-58602500D01*
X147850000Y-59832500D01*
G36*
X147850000Y-59832500D02*
G01*
X146540000Y-59832500D01*
X146540000Y-58602500D01*
X147850000Y-58602500D01*
X147850000Y-59832500D01*
G37*
X147850000Y-61632500D02*
X146540000Y-61632500D01*
X146540000Y-60402500D01*
X147850000Y-60402500D01*
X147850000Y-61632500D01*
G36*
X147850000Y-61632500D02*
G01*
X146540000Y-61632500D01*
X146540000Y-60402500D01*
X147850000Y-60402500D01*
X147850000Y-61632500D01*
G37*
X149640000Y-54432500D02*
X148330000Y-54432500D01*
X148330000Y-53202500D01*
X149640000Y-53202500D01*
X149640000Y-54432500D01*
G36*
X149640000Y-54432500D02*
G01*
X148330000Y-54432500D01*
X148330000Y-53202500D01*
X149640000Y-53202500D01*
X149640000Y-54432500D01*
G37*
X149640000Y-56232500D02*
X148330000Y-56232500D01*
X148330000Y-55002500D01*
X149640000Y-55002500D01*
X149640000Y-56232500D01*
G36*
X149640000Y-56232500D02*
G01*
X148330000Y-56232500D01*
X148330000Y-55002500D01*
X149640000Y-55002500D01*
X149640000Y-56232500D01*
G37*
X149640000Y-58032500D02*
X148330000Y-58032500D01*
X148330000Y-56802500D01*
X149640000Y-56802500D01*
X149640000Y-58032500D01*
G36*
X149640000Y-58032500D02*
G01*
X148330000Y-58032500D01*
X148330000Y-56802500D01*
X149640000Y-56802500D01*
X149640000Y-58032500D01*
G37*
X149640000Y-59832500D02*
X148330000Y-59832500D01*
X148330000Y-58602500D01*
X149640000Y-58602500D01*
X149640000Y-59832500D01*
G36*
X149640000Y-59832500D02*
G01*
X148330000Y-59832500D01*
X148330000Y-58602500D01*
X149640000Y-58602500D01*
X149640000Y-59832500D01*
G37*
X149640000Y-61632500D02*
X148330000Y-61632500D01*
X148330000Y-60402500D01*
X149640000Y-60402500D01*
X149640000Y-61632500D01*
G36*
X149640000Y-61632500D02*
G01*
X148330000Y-61632500D01*
X148330000Y-60402500D01*
X149640000Y-60402500D01*
X149640000Y-61632500D01*
G37*
X151430000Y-54432500D02*
X150120000Y-54432500D01*
X150120000Y-53202500D01*
X151430000Y-53202500D01*
X151430000Y-54432500D01*
G36*
X151430000Y-54432500D02*
G01*
X150120000Y-54432500D01*
X150120000Y-53202500D01*
X151430000Y-53202500D01*
X151430000Y-54432500D01*
G37*
X151430000Y-56232500D02*
X150120000Y-56232500D01*
X150120000Y-55002500D01*
X151430000Y-55002500D01*
X151430000Y-56232500D01*
G36*
X151430000Y-56232500D02*
G01*
X150120000Y-56232500D01*
X150120000Y-55002500D01*
X151430000Y-55002500D01*
X151430000Y-56232500D01*
G37*
X151430000Y-58032500D02*
X150120000Y-58032500D01*
X150120000Y-56802500D01*
X151430000Y-56802500D01*
X151430000Y-58032500D01*
G36*
X151430000Y-58032500D02*
G01*
X150120000Y-58032500D01*
X150120000Y-56802500D01*
X151430000Y-56802500D01*
X151430000Y-58032500D01*
G37*
X151430000Y-59832500D02*
X150120000Y-59832500D01*
X150120000Y-58602500D01*
X151430000Y-58602500D01*
X151430000Y-59832500D01*
G36*
X151430000Y-59832500D02*
G01*
X150120000Y-59832500D01*
X150120000Y-58602500D01*
X151430000Y-58602500D01*
X151430000Y-59832500D01*
G37*
X151430000Y-61632500D02*
X150120000Y-61632500D01*
X150120000Y-60402500D01*
X151430000Y-60402500D01*
X151430000Y-61632500D01*
G36*
X151430000Y-61632500D02*
G01*
X150120000Y-61632500D01*
X150120000Y-60402500D01*
X151430000Y-60402500D01*
X151430000Y-61632500D01*
G37*
%TO.C,CR101*%
X138764619Y-72003492D02*
X136224619Y-72003492D01*
X136224619Y-69963492D01*
X138764619Y-69963492D01*
X138764619Y-72003492D01*
G36*
X138764619Y-72003492D02*
G01*
X136224619Y-72003492D01*
X136224619Y-69963492D01*
X138764619Y-69963492D01*
X138764619Y-72003492D01*
G37*
%TD*%
D11*
%TO.C,SW501*%
X174875000Y-66850000D03*
X166925000Y-66850000D03*
X174875000Y-62350000D03*
X166925000Y-62350000D03*
%TD*%
D12*
%TO.C,U103*%
X161550000Y-65700000D03*
X161550000Y-63400000D03*
D13*
X155250000Y-63400000D03*
D12*
X161550000Y-61100000D03*
%TD*%
D14*
%TO.C,R501*%
X176340000Y-67510000D03*
X177360000Y-67510000D03*
%TD*%
D15*
%TO.C,C203*%
X166975000Y-86550000D03*
X166015000Y-86550000D03*
%TD*%
D16*
%TO.C,R116*%
X146300000Y-77890000D03*
X146300000Y-78910000D03*
%TD*%
D14*
%TO.C,R201*%
X159625000Y-86550000D03*
X160645000Y-86550000D03*
%TD*%
%TO.C,R204*%
X157715000Y-85550000D03*
X158735000Y-85550000D03*
%TD*%
D15*
%TO.C,C112*%
X186500000Y-53000000D03*
X185540000Y-53000000D03*
%TD*%
D17*
%TO.C,R111*%
X179610000Y-95400000D03*
X178590000Y-95400000D03*
%TD*%
D15*
%TO.C,C104*%
X164455000Y-79000000D03*
X163495000Y-79000000D03*
%TD*%
D18*
%TO.C,U101*%
X155125000Y-71400000D03*
X155125000Y-72200000D03*
X155125000Y-73000000D03*
X155125000Y-73800000D03*
X155125000Y-74600000D03*
X155125000Y-75400000D03*
X155125000Y-76200000D03*
X155125000Y-77000000D03*
D19*
X156500000Y-78375000D03*
X157300000Y-78375000D03*
X158100000Y-78375000D03*
X158900000Y-78375000D03*
X159700000Y-78375000D03*
X160500000Y-78375000D03*
X161300000Y-78375000D03*
X162100000Y-78375000D03*
D18*
X163475000Y-77000000D03*
X163475000Y-76200000D03*
X163475000Y-75400000D03*
X163475000Y-74600000D03*
X163475000Y-73800000D03*
X163475000Y-73000000D03*
X163475000Y-72200000D03*
X163475000Y-71400000D03*
D19*
X162100000Y-70025000D03*
X161300000Y-70025000D03*
X160500000Y-70025000D03*
X159700000Y-70025000D03*
X158900000Y-70025000D03*
X158100000Y-70025000D03*
X157300000Y-70025000D03*
X156500000Y-70025000D03*
%TD*%
D20*
%TO.C,C118*%
X163600000Y-64725000D03*
X163600000Y-66275000D03*
%TD*%
D21*
%TO.C,R101*%
X157275000Y-68510000D03*
X157275000Y-67490000D03*
%TD*%
D15*
%TO.C,C302*%
X138924260Y-95329491D03*
X137964260Y-95329491D03*
%TD*%
D22*
%TO.C,U301*%
X141400000Y-90900000D03*
X143200000Y-90900000D03*
X145000000Y-90900000D03*
D23*
X138975000Y-93762500D03*
X139625000Y-93762500D03*
X140275000Y-93762500D03*
X140925000Y-93762500D03*
X141575000Y-93762500D03*
X142225000Y-93762500D03*
X142875000Y-93762500D03*
X143525000Y-93762500D03*
X144175000Y-93762500D03*
X144825000Y-93762500D03*
X145475000Y-93762500D03*
X146125000Y-93762500D03*
X146775000Y-93762500D03*
X147425000Y-93762500D03*
X147425000Y-88037500D03*
X146775000Y-88037500D03*
X146125000Y-88037500D03*
X145475000Y-88037500D03*
X144825000Y-88037500D03*
X144175000Y-88037500D03*
X143525000Y-88037500D03*
X142875000Y-88037500D03*
X142225000Y-88037500D03*
X141575000Y-88037500D03*
X140925000Y-88037500D03*
X140275000Y-88037500D03*
X139625000Y-88037500D03*
X138975000Y-88037500D03*
%TD*%
D24*
%TO.C,C116*%
X137300000Y-75300000D03*
X137300000Y-80900000D03*
%TD*%
D17*
%TO.C,R303*%
X140155000Y-86550000D03*
X139135000Y-86550000D03*
%TD*%
%TO.C,R113*%
X151710000Y-71600000D03*
X150690000Y-71600000D03*
%TD*%
D14*
%TO.C,R105*%
X187690000Y-95400000D03*
X188710000Y-95400000D03*
%TD*%
D25*
%TO.C,D104*%
X152300000Y-81687500D03*
X152300000Y-80112500D03*
%TD*%
D26*
%TO.C,D301*%
X146225000Y-84762500D03*
X146225000Y-86337500D03*
%TD*%
D20*
%TO.C,C117*%
X163600000Y-60525000D03*
X163600000Y-62075000D03*
%TD*%
D27*
%TO.C,J103*%
X174700000Y-55000000D03*
X174700000Y-58900000D03*
X173430000Y-55000000D03*
X173430000Y-58900000D03*
X172160000Y-55000000D03*
X172160000Y-58900000D03*
X170890000Y-55000000D03*
X170890000Y-58900000D03*
X169620000Y-55000000D03*
X169620000Y-58900000D03*
X168350000Y-55000000D03*
X168350000Y-58900000D03*
X167080000Y-55000000D03*
X167080000Y-58900000D03*
%TD*%
D14*
%TO.C,R401*%
X176340000Y-68500000D03*
X177360000Y-68500000D03*
%TD*%
D16*
%TO.C,R108*%
X152300000Y-77890000D03*
X152300000Y-78910000D03*
%TD*%
D28*
%TO.C,C114*%
X149600000Y-71120000D03*
X149600000Y-72080000D03*
%TD*%
D15*
%TO.C,C202*%
X157460000Y-95300000D03*
X156500000Y-95300000D03*
%TD*%
%TO.C,C501*%
X177330000Y-65600000D03*
X176370000Y-65600000D03*
%TD*%
D26*
%TO.C,D201*%
X164825000Y-84762500D03*
X164825000Y-86337500D03*
%TD*%
D15*
%TO.C,C201*%
X159460000Y-95300000D03*
X158500000Y-95300000D03*
%TD*%
D29*
%TO.C,U102*%
X142490000Y-67010000D03*
X143760000Y-67010000D03*
X145030000Y-67010000D03*
X146300000Y-67010000D03*
X147570000Y-67010000D03*
X148840000Y-67010000D03*
X150110000Y-67010000D03*
%TD*%
D30*
%TO.C,CR101*%
X134344619Y-70063492D03*
X134344619Y-71903492D03*
D31*
X140154619Y-70983492D03*
%TD*%
D16*
%TO.C,R207*%
X163575000Y-85590000D03*
X163575000Y-86610000D03*
%TD*%
D25*
%TO.C,D106*%
X146300000Y-81687500D03*
X146300000Y-80112500D03*
%TD*%
D14*
%TO.C,R114*%
X176690000Y-95400000D03*
X177710000Y-95400000D03*
%TD*%
D32*
%TO.C,R206*%
X168875000Y-93862500D03*
X168875000Y-87937500D03*
%TD*%
D17*
%TO.C,R502*%
X177360000Y-66550000D03*
X176340000Y-66550000D03*
%TD*%
D11*
%TO.C,SW601*%
X166925000Y-75550000D03*
X174875000Y-75550000D03*
X166925000Y-80050000D03*
X174875000Y-80050000D03*
%TD*%
D15*
%TO.C,C101*%
X164455000Y-78000000D03*
X163495000Y-78000000D03*
%TD*%
D11*
%TO.C,SW401*%
X166925000Y-68950000D03*
X174875000Y-68950000D03*
X166925000Y-73450000D03*
X174875000Y-73450000D03*
%TD*%
D16*
%TO.C,R120*%
X147800000Y-77890000D03*
X147800000Y-78910000D03*
%TD*%
D14*
%TO.C,R301*%
X141025000Y-86550000D03*
X142045000Y-86550000D03*
%TD*%
D17*
%TO.C,R302*%
X142045000Y-85550000D03*
X141025000Y-85550000D03*
%TD*%
D32*
%TO.C,R305*%
X136175000Y-93862500D03*
X136175000Y-87937500D03*
%TD*%
D17*
%TO.C,R109*%
X186810000Y-95400000D03*
X185790000Y-95400000D03*
%TD*%
%TO.C,R202*%
X160645000Y-85550000D03*
X159625000Y-85550000D03*
%TD*%
D25*
%TO.C,D102*%
X149300000Y-81687500D03*
X149300000Y-80112500D03*
%TD*%
D17*
%TO.C,R402*%
X177360000Y-69450000D03*
X176340000Y-69450000D03*
%TD*%
D15*
%TO.C,C303*%
X148375000Y-86550000D03*
X147415000Y-86550000D03*
%TD*%
D33*
%TO.C,C107*%
X183520000Y-81800000D03*
X184480000Y-81800000D03*
%TD*%
D15*
%TO.C,C110*%
X175780000Y-95400000D03*
X174820000Y-95400000D03*
%TD*%
D14*
%TO.C,R601*%
X176340000Y-76550000D03*
X177360000Y-76550000D03*
%TD*%
D32*
%TO.C,R205*%
X154775000Y-93862500D03*
X154775000Y-87937500D03*
%TD*%
D25*
%TO.C,D101*%
X141800000Y-81687500D03*
X141800000Y-80112500D03*
%TD*%
D14*
%TO.C,R112*%
X150690000Y-70600000D03*
X151710000Y-70600000D03*
%TD*%
D16*
%TO.C,R110*%
X143300000Y-77890000D03*
X143300000Y-78910000D03*
%TD*%
D33*
%TO.C,C106*%
X189612129Y-95398128D03*
X190572129Y-95398128D03*
%TD*%
D25*
%TO.C,D105*%
X143300000Y-81687500D03*
X143300000Y-80112500D03*
%TD*%
D15*
%TO.C,C601*%
X177330000Y-74600000D03*
X176370000Y-74600000D03*
%TD*%
D16*
%TO.C,R104*%
X149300000Y-77890000D03*
X149300000Y-78910000D03*
%TD*%
D25*
%TO.C,D107*%
X144800000Y-81687500D03*
X144800000Y-80112500D03*
%TD*%
D34*
%TO.C,C115*%
X137000000Y-66700000D03*
X137000000Y-61300000D03*
%TD*%
D32*
%TO.C,R306*%
X150275000Y-93862500D03*
X150275000Y-87937500D03*
%TD*%
D22*
%TO.C,U201*%
X160000000Y-90900000D03*
X161800000Y-90900000D03*
X163600000Y-90900000D03*
D23*
X157575000Y-93762500D03*
X158225000Y-93762500D03*
X158875000Y-93762500D03*
X159525000Y-93762500D03*
X160175000Y-93762500D03*
X160825000Y-93762500D03*
X161475000Y-93762500D03*
X162125000Y-93762500D03*
X162775000Y-93762500D03*
X163425000Y-93762500D03*
X164075000Y-93762500D03*
X164725000Y-93762500D03*
X165375000Y-93762500D03*
X166025000Y-93762500D03*
X166025000Y-88037500D03*
X165375000Y-88037500D03*
X164725000Y-88037500D03*
X164075000Y-88037500D03*
X163425000Y-88037500D03*
X162775000Y-88037500D03*
X162125000Y-88037500D03*
X161475000Y-88037500D03*
X160825000Y-88037500D03*
X160175000Y-88037500D03*
X159525000Y-88037500D03*
X158875000Y-88037500D03*
X158225000Y-88037500D03*
X157575000Y-88037500D03*
%TD*%
D17*
%TO.C,R203*%
X158755000Y-86550000D03*
X157735000Y-86550000D03*
%TD*%
D16*
%TO.C,R106*%
X150800000Y-77890000D03*
X150800000Y-78910000D03*
%TD*%
D25*
%TO.C,D103*%
X150800000Y-81687500D03*
X150800000Y-80112500D03*
%TD*%
%TO.C,D108*%
X147800000Y-81687500D03*
X147800000Y-80112500D03*
%TD*%
D33*
%TO.C,C103*%
X161295000Y-79900000D03*
X162255000Y-79900000D03*
%TD*%
D15*
%TO.C,C401*%
X177341518Y-70428371D03*
X176381518Y-70428371D03*
%TD*%
D16*
%TO.C,R119*%
X144800000Y-77890000D03*
X144800000Y-78910000D03*
%TD*%
D11*
%TO.C,SW103*%
X163175000Y-58650000D03*
X155225000Y-58650000D03*
X163175000Y-54150000D03*
X155225000Y-54150000D03*
%TD*%
D15*
%TO.C,C111*%
X151680000Y-72600000D03*
X150720000Y-72600000D03*
%TD*%
D35*
%TO.C,C109*%
X153700000Y-56880000D03*
X153700000Y-55920000D03*
%TD*%
D14*
%TO.C,R117*%
X149680000Y-75400000D03*
X150700000Y-75400000D03*
%TD*%
D16*
%TO.C,R102*%
X141800000Y-77890000D03*
X141800000Y-78910000D03*
%TD*%
%TO.C,R307*%
X144975000Y-85590000D03*
X144975000Y-86610000D03*
%TD*%
D36*
%TO.C,L101*%
X145100000Y-70500000D03*
X145100000Y-75500000D03*
%TD*%
D16*
%TO.C,R115*%
X149600000Y-69190000D03*
X149600000Y-70210000D03*
%TD*%
D15*
%TO.C,C301*%
X140858320Y-95322328D03*
X139898320Y-95322328D03*
%TD*%
D17*
%TO.C,R107*%
X186820000Y-81800000D03*
X185800000Y-81800000D03*
%TD*%
%TO.C,R602*%
X177360000Y-75560000D03*
X176340000Y-75560000D03*
%TD*%
%TO.C,R103*%
X188710000Y-81800000D03*
X187690000Y-81800000D03*
%TD*%
D35*
%TO.C,C102*%
X155410609Y-69905319D03*
X155410609Y-68945319D03*
%TD*%
D14*
%TO.C,R304*%
X139115000Y-85550000D03*
X140135000Y-85550000D03*
%TD*%
D33*
%TO.C,C113*%
X189620000Y-80899720D03*
X190580000Y-80899720D03*
%TD*%
D17*
%TO.C,R118*%
X150700000Y-74400000D03*
X149680000Y-74400000D03*
%TD*%
D33*
%TO.C,C105*%
X189620000Y-81829491D03*
X190580000Y-81829491D03*
%TD*%
M02*
