%TF.GenerationSoftware,KiCad,Pcbnew,8.0.0-8.0.0-1~ubuntu22.04.1*%
%TF.CreationDate,2024-03-30T12:30:56+01:00*%
%TF.ProjectId,PAMI_mb,50414d49-5f6d-4622-9e6b-696361645f70,rev?*%
%TF.SameCoordinates,Original*%
%TF.FileFunction,Soldermask,Bot*%
%TF.FilePolarity,Negative*%
%FSLAX46Y46*%
G04 Gerber Fmt 4.6, Leading zero omitted, Abs format (unit mm)*
G04 Created by KiCad (PCBNEW 8.0.0-8.0.0-1~ubuntu22.04.1) date 2024-03-30 12:30:56*
%MOMM*%
%LPD*%
G01*
G04 APERTURE LIST*
G04 Aperture macros list*
%AMRoundRect*
0 Rectangle with rounded corners*
0 $1 Rounding radius*
0 $2 $3 $4 $5 $6 $7 $8 $9 X,Y pos of 4 corners*
0 Add a 4 corners polygon primitive as box body*
4,1,4,$2,$3,$4,$5,$6,$7,$8,$9,$2,$3,0*
0 Add four circle primitives for the rounded corners*
1,1,$1+$1,$2,$3*
1,1,$1+$1,$4,$5*
1,1,$1+$1,$6,$7*
1,1,$1+$1,$8,$9*
0 Add four rect primitives between the rounded corners*
20,1,$1+$1,$2,$3,$4,$5,0*
20,1,$1+$1,$4,$5,$6,$7,0*
20,1,$1+$1,$6,$7,$8,$9,0*
20,1,$1+$1,$8,$9,$2,$3,0*%
G04 Aperture macros list end*
%ADD10RoundRect,0.250000X0.725000X-0.600000X0.725000X0.600000X-0.725000X0.600000X-0.725000X-0.600000X0*%
%ADD11O,1.950000X1.700000*%
%ADD12C,1.800000*%
%ADD13C,1.854000*%
%ADD14RoundRect,0.102000X-0.825000X-0.825000X0.825000X-0.825000X0.825000X0.825000X-0.825000X0.825000X0*%
%ADD15C,4.700000*%
%ADD16RoundRect,0.250000X-0.750000X0.600000X-0.750000X-0.600000X0.750000X-0.600000X0.750000X0.600000X0*%
%ADD17O,2.000000X1.700000*%
%ADD18RoundRect,0.250000X-0.600000X-0.725000X0.600000X-0.725000X0.600000X0.725000X-0.600000X0.725000X0*%
%ADD19O,1.700000X1.950000*%
%ADD20C,2.775000*%
%ADD21C,1.500000*%
%ADD22R,1.700000X1.700000*%
%ADD23O,1.700000X1.700000*%
G04 APERTURE END LIST*
D10*
%TO.C,J109*%
X187800000Y-64000000D03*
D11*
X187800000Y-61500000D03*
X187800000Y-59000000D03*
X187800000Y-56500000D03*
%TD*%
D12*
%TO.C,TP101*%
X135140000Y-54500000D03*
%TD*%
D13*
%TO.C,SW102*%
X189950000Y-91100000D03*
X189950000Y-86100000D03*
X189950000Y-88600000D03*
D14*
X175450000Y-91100000D03*
D13*
X175450000Y-86100000D03*
%TD*%
D15*
%TO.C,H104*%
X188000000Y-99000000D03*
%TD*%
D16*
%TO.C,J105*%
X130525000Y-77500000D03*
D17*
X130525000Y-80000000D03*
%TD*%
D10*
%TO.C,J107*%
X181000000Y-77500000D03*
D11*
X181000000Y-75000000D03*
X181000000Y-72500000D03*
X181000000Y-70000000D03*
%TD*%
D10*
%TO.C,J110*%
X187800000Y-77500000D03*
D11*
X187800000Y-75000000D03*
X187800000Y-72500000D03*
X187800000Y-70000000D03*
%TD*%
D18*
%TO.C,J112*%
X139570000Y-98750000D03*
D19*
X142070000Y-98750000D03*
X144570000Y-98750000D03*
X147070000Y-98750000D03*
%TD*%
D18*
%TO.C,J102*%
X177200000Y-98750000D03*
D19*
X179700000Y-98750000D03*
X182200000Y-98750000D03*
%TD*%
D20*
%TO.C,SW101*%
X130025000Y-63300000D03*
X130025000Y-68000000D03*
X130025000Y-72700000D03*
%TD*%
D18*
%TO.C,J111*%
X158170000Y-98750000D03*
D19*
X160670000Y-98750000D03*
X163170000Y-98750000D03*
X165670000Y-98750000D03*
%TD*%
D15*
%TO.C,H101*%
X130000000Y-50000000D03*
%TD*%
D16*
%TO.C,J104*%
X130512723Y-86008593D03*
D17*
X130512723Y-88508593D03*
%TD*%
D15*
%TO.C,H102*%
X188000000Y-50000000D03*
%TD*%
D16*
%TO.C,J106*%
X130525000Y-56050000D03*
D17*
X130525000Y-58550000D03*
%TD*%
D21*
%TO.C,J108*%
X178000000Y-61740000D03*
X178000000Y-59200000D03*
X178000000Y-56660000D03*
%TD*%
D15*
%TO.C,H103*%
X130000000Y-99000000D03*
%TD*%
D22*
%TO.C,J101*%
X134870000Y-51270000D03*
D23*
X134870000Y-48730000D03*
X137410000Y-51270000D03*
X137410000Y-48730000D03*
X139950000Y-51270000D03*
X139950000Y-48730000D03*
X142490000Y-51270000D03*
X142490000Y-48730000D03*
X145030000Y-51270000D03*
X145030000Y-48730000D03*
X147570000Y-51270000D03*
X147570000Y-48730000D03*
X150110000Y-51270000D03*
X150110000Y-48730000D03*
X152650000Y-51270000D03*
X152650000Y-48730000D03*
X155190000Y-51270000D03*
X155190000Y-48730000D03*
X157730000Y-51270000D03*
X157730000Y-48730000D03*
X160270000Y-51270000D03*
X160270000Y-48730000D03*
X162810000Y-51270000D03*
X162810000Y-48730000D03*
X165350000Y-51270000D03*
X165350000Y-48730000D03*
X167890000Y-51270000D03*
X167890000Y-48730000D03*
X170430000Y-51270000D03*
X170430000Y-48730000D03*
X172970000Y-51270000D03*
X172970000Y-48730000D03*
X175510000Y-51270000D03*
X175510000Y-48730000D03*
X178050000Y-51270000D03*
X178050000Y-48730000D03*
X180590000Y-51270000D03*
X180590000Y-48730000D03*
X183130000Y-51270000D03*
X183130000Y-48730000D03*
%TD*%
M02*
