M48
; DRILL file {KiCad 8.0.0-8.0.0-1~ubuntu22.04.1} date 2024-03-30T12:31:08+0100
; FORMAT={-:-/ absolute / inch / decimal}
; #@! TF.CreationDate,2024-03-30T12:31:08+01:00
; #@! TF.GenerationSoftware,Kicad,Pcbnew,8.0.0-8.0.0-1~ubuntu22.04.1
; #@! TF.FileFunction,Plated,1,4,PTH
FMAT,2
INCH
; #@! TA.AperFunction,Plated,PTH,ViaDrill
T1C0.0118
; #@! TA.AperFunction,Plated,PTH,ComponentDrill
T2C0.0118
; #@! TA.AperFunction,Plated,PTH,ComponentDrill
T3C0.0354
; #@! TA.AperFunction,Plated,PTH,ComponentDrill
T4C0.0374
; #@! TA.AperFunction,Plated,PTH,ComponentDrill
T5C0.0394
; #@! TA.AperFunction,Plated,PTH,ComponentDrill
T6C0.0433
; #@! TA.AperFunction,Plated,PTH,ComponentDrill
T7C0.0728
; #@! TA.AperFunction,Plated,PTH,ComponentDrill
T8C0.1063
%
G90
G05
T1
X5.0Y-1.9685
X5.0Y-2.0079
X5.0Y-2.0472
X5.0Y-2.0866
X5.0Y-2.126
X5.0Y-2.1654
X5.0Y-2.2047
X5.0Y-2.2441
X5.0Y-2.2835
X5.0Y-2.3228
X5.0Y-2.3622
X5.0Y-2.4016
X5.0Y-2.4409
X5.0Y-2.4803
X5.0Y-2.5197
X5.0Y-2.5591
X5.0Y-2.5984
X5.0Y-2.6378
X5.0Y-2.6772
X5.0Y-2.7165
X5.0Y-3.3465
X5.0Y-3.3858
X5.0Y-3.4252
X5.0Y-3.4646
X5.0Y-3.5039
X5.0Y-3.5433
X5.0Y-3.5827
X5.0Y-3.622
X5.0Y-3.6614
X5.0Y-3.7008
X5.0Y-3.7402
X5.0Y-3.7795
X5.0Y-3.8189
X5.0Y-3.8583
X5.0Y-3.8976
X5.0059Y-1.9311
X5.0079Y-3.935
X5.0217Y-3.9665
X5.0236Y-1.8996
X5.0492Y-1.872
X5.0492Y-3.9921
X5.0807Y-1.8583
X5.0807Y-2.9429
X5.0807Y-4.0098
X5.0906Y-3.2441
X5.1181Y-1.8504
X5.1181Y-4.0157
X5.1575Y-1.8504
X5.1575Y-4.0157
X5.1969Y-1.8504
X5.1969Y-4.0157
X5.2362Y-1.8504
X5.2362Y-4.0157
X5.2502Y-2.7592
X5.2502Y-2.8301
X5.2717Y-3.0217
X5.2756Y-1.8504
X5.2756Y-4.0157
X5.2856Y-2.7277
X5.2896Y-2.8655
X5.315Y-1.8504
X5.315Y-4.0157
X5.3287Y-2.5591
X5.3356Y-3.6634
X5.3504Y-2.4134
X5.3543Y-1.8504
X5.3543Y-4.0157
X5.361Y-3.4961
X5.3612Y-3.6634
X5.3622Y-3.185
X5.3868Y-3.6634
X5.3937Y-1.8504
X5.3937Y-2.3346
X5.3937Y-4.0157
X5.4055Y-3.1063
X5.4055Y-3.2638
X5.4331Y-1.8504
X5.4331Y-4.0157
X5.437Y-2.4134
X5.4429Y-2.5886
X5.4429Y-2.6201
X5.4429Y-2.6516
X5.4429Y-2.6831
X5.4488Y-3.185
X5.4567Y-3.3681
X5.4571Y-3.4075
X5.4724Y-1.8504
X5.4724Y-2.9134
X5.4724Y-2.9449
X5.4724Y-2.9764
X5.4724Y-3.0079
X5.4724Y-4.0157
X5.4744Y-2.5886
X5.4744Y-2.6201
X5.4744Y-2.6516
X5.4744Y-2.6831
X5.5039Y-2.9134
X5.5039Y-2.9449
X5.5039Y-2.9764
X5.5039Y-3.0079
X5.5059Y-2.5886
X5.5059Y-2.6201
X5.5059Y-2.6516
X5.5059Y-2.6831
X5.5118Y-1.8504
X5.5118Y-4.0157
X5.5354Y-2.9134
X5.5354Y-2.9449
X5.5354Y-2.9764
X5.5354Y-3.0079
X5.5374Y-2.5886
X5.5374Y-2.6201
X5.5374Y-2.6516
X5.5374Y-2.6831
X5.5456Y-3.7779
X5.5477Y-3.6526
X5.5512Y-1.8504
X5.5512Y-4.0157
X5.5689Y-2.5886
X5.5689Y-2.6201
X5.5689Y-2.6516
X5.5689Y-2.6831
X5.5807Y-2.5453
X5.5827Y-3.2441
X5.5906Y-1.8504
X5.5906Y-4.0157
X5.5994Y-3.6614
X5.5994Y-3.7244
X5.6126Y-3.3681
X5.613Y-3.4075
X5.6181Y-2.1535
X5.6181Y-2.2244
X5.6181Y-2.2953
X5.6181Y-2.3661
X5.6299Y-1.8504
X5.6299Y-4.0157
X5.6417Y-3.2441
X5.6534Y-3.4272
X5.6571Y-3.0512
X5.6693Y-1.8504
X5.6693Y-4.0157
X5.676Y-3.6614
X5.6762Y-3.7244
X5.689Y-2.1535
X5.689Y-2.2244
X5.689Y-2.2953
X5.689Y-2.3661
X5.7008Y-3.2441
X5.7047Y-3.3307
X5.7087Y-1.8504
X5.7087Y-4.0157
X5.725Y-3.6526
X5.7274Y-3.7402
X5.748Y-2.563
X5.748Y-4.0157
X5.7598Y-2.1535
X5.7598Y-2.2244
X5.7598Y-2.2953
X5.7598Y-2.3661
X5.7598Y-3.2441
X5.7729Y-2.563
X5.7783Y-3.5051
X5.7795Y-3.0531
X5.7874Y-4.0157
X5.8098Y-2.6382
X5.8189Y-3.2441
X5.8268Y-4.0157
X5.8307Y-2.1535
X5.8307Y-2.2244
X5.8307Y-2.2953
X5.8307Y-2.3661
X5.8406Y-3.0551
X5.8661Y-4.0157
X5.8673Y-3.4075
X5.878Y-3.2441
X5.8898Y-2.8701
X5.8908Y-3.6667
X5.8937Y-2.9055
X5.9016Y-2.1535
X5.9016Y-2.2244
X5.9016Y-2.2953
X5.9016Y-2.3661
X5.9055Y-4.0157
X5.9094Y-2.5689
X5.9161Y-3.4961
X5.9163Y-3.6663
X5.937Y-3.2441
X5.9375Y-2.8832
X5.9419Y-3.6666
X5.9449Y-4.0157
X5.9508Y-2.7421
X5.9723Y-2.8936
X5.9843Y-2.7362
X5.9843Y-4.0157
X5.9961Y-3.2441
X6.0059Y-2.7165
X6.0109Y-2.8466
X6.0236Y-4.0157
X6.0374Y-2.9724
X6.0394Y-2.937
X6.063Y-1.8504
X6.063Y-4.0157
X6.066Y-2.9076
X6.0683Y-3.6618
X6.0689Y-3.3169
X6.0709Y-2.3917
X6.0787Y-2.6634
X6.0937Y-3.4945
X6.0939Y-3.6618
X6.1024Y-1.8504
X6.1024Y-4.0157
X6.1063Y-2.7756
X6.1161Y-2.2598
X6.1195Y-3.6618
X6.1378Y-3.1693
X6.1417Y-1.8504
X6.1417Y-4.0157
X6.1457Y-2.8425
X6.1457Y-2.874
X6.1457Y-3.0
X6.1457Y-3.0276
X6.1555Y-3.1378
X6.1614Y-2.8091
X6.1732Y-2.4961
X6.1811Y-1.8504
X6.1811Y-4.0157
X6.1894Y-3.3665
X6.1898Y-3.4059
X6.1929Y-2.7953
X6.1988Y-3.0118
X6.1994Y-3.1383
X6.2008Y-2.4961
X6.2205Y-1.8504
X6.2205Y-2.9173
X6.2205Y-3.1791
X6.2205Y-4.0157
X6.228Y-2.7033
X6.2283Y-2.4961
X6.2402Y-2.8071
X6.2402Y-2.9685
X6.2559Y-2.4961
X6.2559Y-2.6754
X6.2598Y-1.8504
X6.2598Y-4.0157
X6.278Y-3.7784
X6.2805Y-3.6526
X6.2835Y-2.4961
X6.2874Y-2.9902
X6.2992Y-1.8504
X6.2992Y-4.0157
X6.311Y-2.4961
X6.3169Y-3.1299
X6.3189Y-3.0472
X6.3321Y-3.6598
X6.3321Y-3.7228
X6.3366Y-3.2972
X6.3386Y-1.8504
X6.3386Y-2.813
X6.3386Y-4.0157
X6.3453Y-3.3665
X6.3457Y-3.4059
X6.3504Y-3.1654
X6.3583Y-2.6299
X6.3583Y-3.2146
X6.3642Y-2.2795
X6.378Y-1.8504
X6.378Y-4.0157
X6.3819Y-2.7187
X6.3819Y-3.0472
X6.3861Y-3.4257
X6.4087Y-3.6598
X6.4089Y-3.7228
X6.4173Y-1.8504
X6.4173Y-2.6339
X6.4173Y-4.0157
X6.437Y-3.1299
X6.4409Y-2.4764
X6.4462Y-2.6949
X6.4531Y-3.3354
X6.4567Y-1.8504
X6.4567Y-4.0157
X6.4595Y-3.6526
X6.46Y-3.7362
X6.4646Y-2.1339
X6.4646Y-2.3071
X6.4685Y-2.3819
X6.4921Y-3.1102
X6.4961Y-1.8504
X6.4961Y-2.9134
X6.4961Y-4.0157
X6.5033Y-3.0706
X6.511Y-3.5035
X6.5177Y-2.9921
X6.5335Y-2.2224
X6.5354Y-1.8504
X6.5354Y-4.0157
X6.5512Y-2.7751
X6.5531Y-2.5807
X6.5579Y-3.0405
X6.5748Y-1.8504
X6.5748Y-4.0157
X6.6Y-3.4059
X6.6102Y-2.4528
X6.6102Y-2.8937
X6.6102Y-3.1535
X6.6142Y-1.8504
X6.6142Y-4.0157
X6.6234Y-3.6651
X6.626Y-2.2205
X6.626Y-2.2559
X6.628Y-2.6358
X6.6488Y-3.4945
X6.649Y-3.6648
X6.6535Y-1.8504
X6.6535Y-4.0157
X6.6746Y-3.665
X6.6929Y-1.8504
X6.6929Y-4.0157
X6.7283Y-2.2205
X6.7283Y-3.0
X6.7323Y-1.8504
X6.7323Y-4.0157
X6.7717Y-1.8504
X6.7717Y-4.0157
X6.7795Y-2.2205
X6.811Y-1.8504
X6.811Y-4.0157
X6.8268Y-2.2205
X6.8307Y-2.6339
X6.8465Y-2.4528
X6.8465Y-2.8937
X6.8465Y-3.1496
X6.8504Y-1.8504
X6.8504Y-4.0157
X6.8898Y-1.8504
X6.8898Y-4.0157
X6.9213Y-2.5827
X6.9233Y-3.0158
X6.9252Y-2.7751
X6.9267Y-2.6754
X6.9291Y-1.8504
X6.9291Y-4.0157
X6.9409Y-2.9173
X6.9685Y-1.8504
X6.9685Y-4.0157
X6.9941Y-3.1909
X6.9941Y-3.498
X7.0079Y-1.8504
X7.0079Y-3.0531
X7.0079Y-4.0157
X7.0354Y-3.5433
X7.0472Y-1.8504
X7.0472Y-4.0157
X7.0822Y-3.7559
X7.0846Y-3.2008
X7.0846Y-3.4823
X7.0866Y-1.8504
X7.0866Y-4.0157
X7.0906Y-3.1358
X7.126Y-1.8504
X7.126Y-4.0157
X7.1654Y-1.8504
X7.1654Y-4.0157
X7.189Y-3.2008
X7.1988Y-3.5551
X7.2047Y-1.8504
X7.2047Y-4.0157
X7.2441Y-1.8504
X7.2441Y-4.0157
X7.2835Y-1.8504
X7.2835Y-4.0157
X7.2894Y-3.2205
X7.2913Y-3.6634
X7.2953Y-3.7559
X7.3228Y-1.8504
X7.3228Y-4.0157
X7.3622Y-1.8504
X7.3622Y-3.6654
X7.3622Y-4.0157
X7.4016Y-1.8504
X7.4016Y-4.0157
X7.4114Y-3.2756
X7.4291Y-3.1811
X7.4331Y-3.7146
X7.439Y-1.8563
X7.439Y-4.0079
X7.4662Y-3.1496
X7.4705Y-1.874
X7.4705Y-3.9941
X7.4724Y-3.2618
X7.4961Y-3.9665
X7.498Y-1.8996
X7.5118Y-1.9311
X7.5138Y-3.935
X7.5197Y-1.9685
X7.5197Y-2.0079
X7.5197Y-2.0472
X7.5197Y-2.0866
X7.5197Y-2.126
X7.5197Y-2.1654
X7.5197Y-2.2047
X7.5197Y-2.2441
X7.5197Y-2.2835
X7.5197Y-2.3228
X7.5197Y-2.3622
X7.5197Y-2.4016
X7.5197Y-2.4409
X7.5197Y-2.4803
X7.5197Y-2.5197
X7.5197Y-2.5591
X7.5197Y-2.5984
X7.5197Y-2.6378
X7.5197Y-2.6772
X7.5197Y-2.7165
X7.5197Y-2.7559
X7.5197Y-2.7953
X7.5197Y-2.8346
X7.5197Y-2.874
X7.5197Y-2.9134
X7.5197Y-2.9528
X7.5197Y-2.9921
X7.5197Y-3.0315
X7.5197Y-3.0709
X7.5197Y-3.1102
X7.5197Y-3.1496
X7.5197Y-3.2677
X7.5197Y-3.3071
X7.5197Y-3.3465
X7.5197Y-3.4252
X7.5197Y-3.4646
X7.5197Y-3.5039
X7.5197Y-3.5433
X7.5197Y-3.622
X7.5197Y-3.6614
X7.5197Y-3.7008
X7.5197Y-3.7402
X7.5197Y-3.7795
X7.5197Y-3.8189
X7.5197Y-3.8583
X7.5197Y-3.8976
T2
X5.5433Y-3.5344
X5.5433Y-3.623
X5.6063Y-3.5344
X5.6063Y-3.623
X5.6693Y-3.5344
X5.6693Y-3.623
X5.7323Y-3.5344
X5.7323Y-3.623
X6.2756Y-3.5344
X6.2756Y-3.623
X6.3386Y-3.5344
X6.3386Y-3.623
X6.4016Y-3.5344
X6.4016Y-3.623
X6.4646Y-3.5344
X6.4646Y-3.623
T3
X5.3205Y-2.1457
T4
X5.4949Y-3.8878
X5.5933Y-3.8878
X5.6917Y-3.8878
X5.7902Y-3.8878
X6.2272Y-3.8878
X6.3256Y-3.8878
X6.424Y-3.8878
X6.5224Y-3.8878
X6.9764Y-3.8878
X7.0748Y-3.8878
X7.126Y-2.7559
X7.126Y-2.8543
X7.126Y-2.9528
X7.126Y-3.0512
X7.1732Y-3.8878
X7.3937Y-2.2244
X7.3937Y-2.3228
X7.3937Y-2.4213
X7.3937Y-2.5197
X7.3937Y-2.7559
X7.3937Y-2.8543
X7.3937Y-2.9528
X7.3937Y-3.0512
T5
X5.1383Y-3.3862
X5.1383Y-3.4846
X5.1388Y-2.2067
X5.1388Y-2.3051
X5.1388Y-3.0512
X5.1388Y-3.1496
X5.3098Y-1.9185
X5.3098Y-2.0185
X5.4098Y-1.9185
X5.4098Y-2.0185
X5.5098Y-1.9185
X5.5098Y-2.0185
X5.6098Y-1.9185
X5.6098Y-2.0185
X5.7098Y-1.9185
X5.7098Y-2.0185
X5.8098Y-1.9185
X5.8098Y-2.0185
X5.9098Y-1.9185
X5.9098Y-2.0185
X6.0098Y-1.9185
X6.0098Y-2.0185
X6.1098Y-1.9185
X6.1098Y-2.0185
X6.2098Y-1.9185
X6.2098Y-2.0185
X6.3098Y-1.9185
X6.3098Y-2.0185
X6.4098Y-1.9185
X6.4098Y-2.0185
X6.5098Y-1.9185
X6.5098Y-2.0185
X6.6098Y-1.9185
X6.6098Y-2.0185
X6.7098Y-1.9185
X6.7098Y-2.0185
X6.8098Y-1.9185
X6.8098Y-2.0185
X6.9098Y-1.9185
X6.9098Y-2.0185
X7.0079Y-2.2307
X7.0079Y-2.3307
X7.0079Y-2.4307
X7.0098Y-1.9185
X7.0098Y-2.0185
X7.1098Y-1.9185
X7.1098Y-2.0185
X7.2098Y-1.9185
X7.2098Y-2.0185
T6
X6.9075Y-3.3898
X6.9075Y-3.5866
X7.4783Y-3.3898
X7.4783Y-3.4882
X7.4783Y-3.5866
T7
X5.1191Y-2.4921
X5.1191Y-2.6772
X5.1191Y-2.8622
T8
X5.1181Y-1.9685
X5.1181Y-3.8976
X7.4016Y-1.9685
X7.4016Y-3.8976
M30
